<svg width="700" height="180" viewBox="0 0 700 180" fill="none" xmlns="http://www.w3.org/2000/svg">
<path fill-rule="evenodd" clip-rule="evenodd" d="M228.701 107.573L228.707 112.341L191.437 112.379C190.994 111.038 191.195 108.948 191.296 107.513C203.846 106.85 205.118 100.549 209.822 89.545L237.027 26.0757C237.915 24.0791 238.859 21.8318 239.732 19.7281C242.825 12.2743 241.36 13.5683 247.25 13.6026C247.263 14.7947 266.033 58.7978 268.158 63.9511L283.971 101.69C286.334 107.103 289.35 107.319 296.477 107.51C296.572 108.964 296.766 111.008 296.344 112.369L255.453 112.379C255 111.042 255.203 108.934 255.306 107.49C258.901 107.486 264 107.636 267.04 106.441C271.212 104.803 268.935 100.887 267.674 97.8769C266.479 95.0244 261.219 81.9434 260.313 80.4718L219.573 80.458C218.46 81.9926 213.254 95.6992 212.909 98.1704C212.336 102.282 214.586 104.644 217.308 105.993C221.427 108.034 224.232 107.021 228.701 107.573ZM653.935 90.2834L653.936 102.308C653.936 109.692 662.511 106.804 669.635 107.562L669.675 112.27C666.779 112.571 634.645 112.368 628.982 112.366L629.032 107.485C634.365 107.474 642.105 108.543 642.105 102.831V64.6661C642.104 54.4983 635.577 55.7981 628.645 55.7149L628.534 51.2048L652.115 49.9681L652.129 74.4323C652.224 73.4505 655.18 66.3089 655.802 65.0129C658.482 59.4292 662.127 53.2698 668.68 50.9067C675.814 48.3343 684.893 50.7007 685.934 59.425C687.324 71.0729 675.594 72.3249 672.467 66.5177C669.538 61.0795 674.07 58.1473 673.511 55.8457C668.313 53.6981 661.106 63.4019 659.074 68.3419C656.58 74.4085 653.935 82.9805 653.935 90.2834ZM619.083 105.792C619.706 106.253 621.266 108.625 621.525 109.366C620.397 110.802 617.715 112.457 615.477 113.312C612.811 114.33 609.276 114.509 606.312 113.71C600.841 112.236 598.953 108.268 596.651 103.409C593.157 106.028 592.135 108.068 587.178 110.901C576.635 116.924 553.021 115.647 552.303 100.488C551.516 83.883 578.332 77.1665 596.062 75.5272C596.695 72.9425 596.337 64.233 595.343 62.0242C593.956 58.9419 590.979 56.3443 587.348 55.115C581.955 53.2882 572.968 54.1072 568.868 57.7068C567.02 59.3288 567.187 60.3955 568.667 62.4032C576.481 73.0047 563.408 77.4937 557.853 71.9842C555.042 69.1968 555.008 64.6508 557.104 61.0834C566.377 45.2956 603.832 44.5036 607.587 62.625C609.036 69.6156 606.431 99.9042 608.936 104.737C611.401 109.491 615.122 107.616 619.083 105.792ZM347.058 103.536C346.186 104.098 344.656 105.57 343.828 106.346C342.69 107.414 341.817 108.139 340.551 109.033C338.154 110.725 336.105 112.021 332.78 112.999C320.891 116.495 300.69 113.279 302.974 97.7187C305.033 83.6877 327.779 78.1345 340.725 76.2516C347.376 75.2842 346.814 76.2798 346.761 73.302C346.676 68.5668 347.445 64.3745 345.171 60.676C339.941 52.1712 325.626 52.9323 319.581 57.5339C316.268 60.0562 319.482 62.2956 320.859 64.8522C322.526 67.9487 321.33 71.3085 319.078 73.0068C316.689 74.8081 312.078 74.6773 309.625 73.0049C302.489 68.1392 306.775 57.835 317.412 52.6283C323.074 49.8568 330.426 48.9021 337.812 49.3466C345.317 49.7985 351.105 52.2553 354.729 56.1787C359.393 61.228 358.44 67.3048 358.44 75.1221C358.44 82.7028 358.437 90.2834 358.439 97.8642C358.441 113.009 367.899 106.36 369.777 105.746L372.091 109.366C367.888 114.453 356.683 116.905 350.801 109.788C348.538 107.05 347.839 104.28 347.058 103.536ZM518.42 99.1712C518.417 92.7233 518.42 86.2753 518.42 79.8273C518.42 73.5678 518.985 67.7537 515.879 62.8761C510.224 53.9929 496.496 54.8736 489.63 64.6542C486.158 69.5995 485.546 73.0818 485.547 80.0887C485.55 108.814 483.3 107.483 497.371 107.488L497.389 112.363L462.804 112.335L462.847 107.511C467.578 107.367 472.478 107.901 473.724 103.909C474.522 101.352 474.063 42.8544 474.063 35.6506C474.063 22.9071 475.11 20.5241 460.712 20.5164L460.811 13.4724L485.544 13.5852L485.561 61.4601C486.375 61.0828 488.648 58.2283 489.477 57.4556C497.106 50.3394 509.062 46.434 519.417 51.4701C523.209 53.314 525.184 55.8241 527.163 59.6477C532.657 70.26 528.799 91.5545 530.107 103.1C530.727 108.575 536.454 107.37 541.981 107.508L541.996 112.362L506.602 112.352L506.662 107.496C516.626 107.4 518.424 107.768 518.42 99.1712ZM417.286 13.6005L442.825 13.5358C443.164 18.4211 442.864 33.8219 442.864 39.8328V92.6361C442.864 96.3652 442.334 101.555 444.206 104.553C446.341 107.974 450.64 107.481 455.333 107.488L455.392 112.365L433.446 112.366C432.641 112.115 432.836 111.299 432.635 109.653C432.407 107.784 431.769 101.25 431.21 100.257C428.595 103.066 427.02 107.862 419.17 111.445C413.118 114.207 405.234 113.654 399.482 111.064C378.791 101.748 376.263 64.5719 399.161 52.2142C404.232 49.4781 411.947 48.2689 418.348 50.2818C423.245 51.8218 427.053 55.0734 429.827 58.8967L430.773 60.1551C431.172 60.5774 430.822 60.284 431.289 60.625C431.553 51.8976 431.317 42.8451 431.317 34.0817C431.317 29.7192 432.204 24.9076 429.394 22.4475C426.562 19.9686 421.542 20.7649 417.275 20.4736L417.286 13.6005ZM700 118.648L699.908 0.449494L177.863 0.42627L177.829 118.547L700 118.648Z" fill="#374B92"/>
<path fill-rule="evenodd" clip-rule="evenodd" d="M253.794 154.85C251.528 168.621 227.441 166.529 229.961 151.221C230.905 145.488 236.479 141.436 243.886 142.307C250.112 143.04 254.908 148.079 253.794 154.85ZM581.292 159.307C581.249 161.029 577.644 162.888 575.428 163.469C572.622 164.206 569.078 164.284 566.404 163.299C554.771 159.014 559.711 141.939 571.84 142.197C578.957 142.349 582.212 147.961 581.284 152.587L566.442 153.213C565.362 159.235 571.409 162.468 577.101 160.295C578.811 159.642 579.66 158.084 581.292 159.307ZM378.503 145.595C379.221 147.782 380.187 148.977 379.121 151.64C376.508 158.167 366.237 155.452 365.262 155.925C364.466 156.31 363.89 157.113 364.028 158.07C365.088 160.26 373.725 157.821 379.02 161.301C383.554 164.282 381.645 170.699 377.738 173.08C373.988 175.366 366.499 175.855 362.386 173.717C358.004 171.439 357.467 165.723 362.721 162.761C358.547 158.153 361.775 156.719 363.755 154.85C362.244 153.04 359.873 152.199 360.733 148.085C361.777 143.093 369.107 140.704 374.661 143.155C376.371 143.909 376.367 144.58 378.375 143.635C379.59 143.063 380.8 142.325 382.084 142.06C382.538 142.512 383.819 144.239 382.816 145.115C382.556 145.342 379.158 145.517 378.503 145.595ZM642.851 144.952C641.607 145.517 639.078 145.172 637.488 145.181L637.462 159.049C637.927 164.143 642.683 158.919 643.796 160.517C644.224 161.519 642.888 162.113 641.979 162.671C638.798 164.624 633.844 164.687 632.228 161.643C630.908 159.158 631.775 148.956 631.526 145.29L628.569 145.155L628.545 143.342C631.095 142.755 631.975 142.81 633.265 140.92C634.474 139.148 634.407 137.769 637.382 137.75L637.408 142.661L643.411 142.81L642.851 144.952ZM556.142 160.67C548.306 167.025 533.961 164.494 535.356 152.347C536.489 142.486 548.963 139.554 554.545 144.618C559.388 149.011 550.741 148.641 550.202 148.396C548.961 147.351 549.184 145.652 547.921 144.801C546.417 143.788 544.439 144.462 543.545 145.393C541.07 147.968 540.085 159.758 547.525 160.835C553.782 161.742 555.1 156.983 556.142 160.67ZM478.82 149.531C477.225 143.93 489.704 139.775 494.803 143.747C498.2 146.395 496.497 154.537 496.973 159.77C497.236 162.671 498.395 161.596 500.546 162.136C500.751 162.709 500.986 162.8 500.382 163.323C500.112 163.557 499.359 163.76 498.983 163.838C497.88 164.066 496.7 164.109 495.586 163.909C493.539 163.543 492.754 162.45 491.996 160.739C490.053 163.031 488.736 164.234 484.317 164.008C475.688 163.568 475.91 156.185 482.423 153.33C484.513 152.413 489.651 151.647 490.919 150.83C491.267 149.195 491.148 146.951 490.277 145.625C489.565 144.541 487.416 143.628 485.895 144.818C484.829 145.651 484.784 147.829 483.728 148.54C482.862 149.123 480.121 149.649 478.82 149.531ZM327.812 143.12L337.298 142.239L337.176 146.317C339.138 145.375 339.762 143.315 343.02 142.449C346.209 141.601 349.086 142.73 350.441 144.368C353.293 147.818 350.654 158.672 352.041 161.133C353.463 162.808 355.356 161.056 355.114 163.476L343.244 163.547C342.834 161.628 343.987 162.266 345.732 161.475C346.19 159.482 345.928 154.414 345.927 151.974C345.925 148.874 345.97 145.495 341.744 146.134C338.812 146.578 337.303 148.637 337.178 151.704C337.092 153.811 336.943 159.525 337.349 161.348C338.928 162.395 340.221 161.598 339.893 163.581C339.615 163.618 328.154 163.599 327.965 163.569C327.575 160.874 331.012 162.962 331.336 160.329L331.264 146.826C330.704 143.343 327.469 146.04 327.812 143.12ZM310.963 143.348L320.483 142.231C320.8 144.021 319.857 159.792 320.422 160.948C322.159 162.74 324.102 161.2 323.7 163.612C321.93 163.743 319.376 163.457 317.423 163.456C315.653 163.455 312.676 163.771 311.171 163.586C310.747 160.716 314.197 163.135 314.53 160.316L314.464 146.838C313.936 143.305 310.892 145.973 310.963 143.348ZM290.049 157.01L291.783 157.143C292.8 159.429 292.179 160.403 295.004 161.462C300.655 163.58 305.029 158.575 299.383 156.276C297.354 155.449 295.511 155.201 293.564 154.155C289.96 152.219 289.051 147.273 292.336 144.204C295.068 141.652 301.195 141.632 304.843 143.529C305.624 144.71 305.423 147.046 305.435 148.63L303.538 148.537C302.483 146.242 302.502 144.709 299.251 144.362C296.58 144.077 293.939 145.574 295.029 148.083C296.133 150.625 303.836 150.194 305.986 154.298C308.781 159.631 303.851 166.484 292.217 163.286C290.498 162.814 290.185 162.86 290.069 161.146C289.977 159.794 289.822 158.342 290.049 157.01ZM258.373 143.348C259.385 142.754 261.65 142.95 262.873 142.778C264.292 142.578 265.826 142.023 267.287 142.381C268.563 150.921 264.408 162.454 272.53 159.913C275.874 158.866 276.159 155.855 276.154 151.975C276.153 150.592 276.329 147.4 276.087 146.224C275.536 143.554 272.866 145.88 272.934 143.348C273.713 142.874 274.073 143.011 275.196 142.971C277.935 142.875 280.198 142.014 281.85 142.369C282.426 145.385 281.788 154.848 281.982 159.051C282.102 161.665 283.433 160.752 285.187 161.682L285.159 162.751C283.848 163.103 281.88 162.996 280.509 163.188L277.412 163.689C275.882 163.656 276.157 163.566 276.151 159.922C274.502 160.897 272.855 163.522 269.285 163.964C265.862 164.389 263.025 162.912 262.089 160.578C260.847 157.483 262.054 147.56 261.398 145.807C260.657 143.823 258.275 145.677 258.373 143.348ZM515.786 144.375L516.829 143.42C517.296 143.139 517.896 142.839 518.499 142.624C519.87 142.136 521.569 142.069 523.102 142.406C531.575 144.267 525.945 158.707 528.098 161.254C529.277 162.648 530.917 161.141 531.161 163.215C530.207 163.914 525.114 163.358 522.07 163.529C520.934 163.593 519.964 163.819 519.124 163.215C519.327 161.632 520.327 162.253 521.738 161.372C522.018 160.025 522.08 150.772 521.768 148.847C521.467 146.983 520.705 146.96 520.392 146.282C516.516 145.527 513.815 147.244 513.278 150.52C513.005 152.19 513.043 160.049 513.361 161.463C515.109 162.313 516.083 161.579 515.905 163.476C514.663 163.995 506.519 163.168 503.97 163.736L503.885 162.403C508.112 160.552 507.327 164.049 507.333 150.668C507.334 149.101 507.704 146.822 506.809 145.603C505.517 143.843 503.576 145.656 503.782 143.219C504.654 142.962 512.643 142.215 513.32 142.383L513.161 146.454C514.42 145.731 513.967 145.222 515.786 144.375ZM446.141 143.158C448.155 142.797 449.887 143.09 453.161 142.458C454.351 142.228 454.832 142.08 455.647 142.49C455.998 143.585 455.501 145.178 455.565 146.491C457.161 145.278 458.193 143.413 461.086 142.531C464.036 141.632 467.312 142.61 468.649 144.154C471.641 147.609 469.132 156.527 470.228 160.917C471.627 162.826 473.278 161.111 473.533 163.215C472.803 163.767 471.689 163.586 470.631 163.527C469.607 163.47 468.579 163.456 467.554 163.456C465.751 163.455 463.145 163.755 461.56 163.599C461.213 161.66 462.503 162.318 464.097 161.317C464.558 159.301 464.284 154.06 464.278 151.713C464.269 148.524 464.113 145.517 460.121 146.116C457.326 146.536 455.707 148.515 455.531 151.438C455.418 153.298 455.22 159.856 455.708 161.178C457.18 162.973 458.323 160.919 458.32 163.569C454.62 163.831 450.329 163.404 446.28 163.667C446.26 161.872 446.199 162.298 447.97 161.889C449.184 161.609 449.594 161.39 449.69 160.098L449.563 146.57C448.862 143.346 445.797 146.047 446.141 143.158ZM442.264 163.559L429.536 163.546C429.331 161.353 431.105 162.489 432.766 161.049C432.912 160.788 433.312 146.986 432.419 145.62C431.365 144.008 428.878 145.465 429.397 143.216C429.672 143.127 438.19 142.228 438.84 142.268C439.178 143.591 438.349 157.827 438.715 160.36C438.882 161.519 439.4 161.629 440.455 161.882C442.201 162.299 441.965 161.895 442.264 163.559ZM434.301 131.847C439.147 129.996 441.492 137.029 437.134 138.435C432.094 140.059 430.071 133.462 434.301 131.847ZM316.357 131.791C321.172 130.325 322.848 137.272 318.692 138.485C313.669 139.952 311.443 133.287 316.357 131.791ZM620.446 160.442L621.399 159.354C622.342 158.249 623.013 156.919 623.457 155.587L625.251 155.754C625.439 156.448 624.254 162.778 623.837 163.476L598.493 163.641L598.383 162.167C603.043 160.303 602.533 164.203 602.533 150.668C602.533 145.484 602.664 140.15 602.5 134.985C600.225 132.781 598.84 134.956 598.838 131.948L613.352 132.022C613.032 134.136 613.119 133.478 610.992 133.968C607.886 134.684 609.025 137.962 609.025 144.132C609.025 161.441 607.244 160.964 614.605 161.042C620.071 161.1 618.085 160.726 620.446 160.442ZM399.122 162.195C404.062 159.827 403.219 164.588 403.219 147.792C403.219 129.718 403.855 135.961 399.09 133.363L399.16 131.943C402.532 131.72 407.691 132.097 411.36 132.097L423.357 131.903C423.683 132.423 425.024 138.454 425.086 139.413C421.697 139.903 423.482 136.427 419.526 134.938C417.797 134.287 411.982 134.435 409.719 134.551L409.758 146.672C410.829 146.734 416.414 146.828 417.141 146.633C419.608 145.969 417.152 142.751 420.482 142.959C420.681 143.64 420.667 152.254 420.464 152.878C417.188 153.131 419.66 149.865 417.142 149.21C416.39 149.014 410.855 149.108 409.772 149.173C409.606 150.972 409.425 159.151 409.889 160.338C410.97 161.995 413.2 161.254 414.808 162.168L414.758 163.57L399.107 163.628L399.122 162.195ZM200.461 145.898L214.499 145.927C214.634 143.117 214.516 140.163 214.538 137.333C214.585 131.025 210.84 136.166 210.838 132.021L224.699 131.952C224.755 134.933 223.472 133.041 221.658 134.329C220.657 135.04 221.028 137.085 221.03 138.381V157.464C221.027 158.955 220.664 160.729 221.807 161.374C223.787 162.491 224.751 160.828 224.698 163.531L210.9 163.667L210.91 162.123C215.089 160.789 214.538 162.065 214.533 156.941C214.531 154.231 214.647 151.305 214.496 148.559L200.462 148.648C200.931 150.531 200.618 155.481 200.61 157.726C200.605 159.234 200.282 160.781 201.399 161.391C203.375 162.47 204.342 160.839 204.273 163.622L190.493 163.552L190.455 162.124C194.968 160.73 194.113 161.865 194.112 156.418L194.113 138.12C194.117 136.594 194.478 134.881 193.287 134.218C191.333 133.131 190.421 134.759 190.426 131.959L204.275 132.021C204.342 135.063 202.761 132.794 200.709 134.813L200.461 145.898ZM670.164 129.833L670.069 158.51C670.069 163.36 673.798 159.584 673.197 162.738L664.351 163.653L664.256 160.406C662.894 161.101 662.813 162.521 659.955 163.513C657.87 164.237 655.267 164.207 653.194 163.479C649.74 162.268 647.412 159.096 647.171 154.593C646.917 149.851 649.313 146.346 652.098 144.419C657.758 140.503 661.623 142.987 664.257 143.028L664.272 135.768C664.273 130.02 660.607 133.899 660.678 130.712L670.164 129.833ZM177.747 178.739L699.945 178.802L699.989 125.206C698.25 124.694 641.902 125.029 635.018 125.029H194.132C190.289 125.029 180.98 124.586 177.774 125.14L177.747 178.739ZM239.877 144.511C234.032 146.148 235.031 163.898 243.738 161.755C247.476 160.835 247.815 155.313 247.225 151.204C246.707 147.601 244.516 143.211 239.877 144.511ZM364.391 163.711C363.457 164.869 363.304 166.698 363.696 168.313C364.889 173.222 372.481 173.402 374.994 171.558C377.418 169.778 377.836 166.263 374.477 165.007C372.908 164.42 371.003 164.486 369.17 164.399C367.337 164.311 366.02 163.824 364.391 163.711ZM372.687 152.828C372.563 151.284 372.647 152.498 372.238 151.976C372.119 154.055 368.729 152.796 367.992 152.992C367.785 152.15 367.237 150.985 367.178 150.07C367.143 149.538 367.176 148.875 367.16 148.316C367.158 148.248 367.149 147.358 367.15 147.355L367.359 146.735C367.379 146.685 367.422 146.598 367.467 146.537L367.648 146.946C367.715 147.207 367.753 147.302 367.774 147.596C367.882 149.099 367.15 149.746 368.003 150.908L368.222 147.158C368.236 147.111 368.266 147.024 368.306 146.965C369.561 148.379 367.476 150.435 369.424 151.222C369.061 150.63 369.031 150.027 369.006 149.1L369.082 147.571C369.326 146.799 369.139 147.262 369.424 146.976C370.105 147.952 369.224 149.998 369.983 151.143C370.101 150.802 370.137 149.946 370.142 149.361C370.144 149.149 370.145 148.521 370.122 148.333L369.904 147.573L370.974 147.068C371.024 147.05 371.122 147.035 371.192 147.008C370.107 146.488 370.723 146.873 370.264 146.091L371.919 146.485C371.449 146.161 370.795 145.613 370.374 145.791C368.834 146.444 370.653 145.325 370.191 146.244C369.94 146.744 370.794 146.418 369.722 146.711C369.091 146.884 368.489 146.664 368.11 146.485L369.854 145.962C369.829 145.951 369.58 145.03 367.911 146.193L367.564 146.484C367.944 145.646 368.217 145.247 369.419 145.206C370.271 145.176 371.476 145.528 372.026 145.69C372.547 147.116 373.369 149.787 372.609 151.713C373.237 152.155 372.371 151.998 373.408 151.714C374.436 150.318 373.36 146.345 372.506 145.434C371.018 143.846 367.972 143.879 366.781 145.838C365.77 147.501 366.106 151.049 367.093 152.586C368.178 154.275 372.085 154.708 372.687 152.828ZM372.687 152.828C372.752 152.782 372.859 152.656 372.885 152.694C372.912 152.733 373.031 152.583 373.063 152.527C373.345 152.052 373.181 152.495 373.408 151.714C372.371 151.998 373.237 152.155 372.609 151.713C373.369 149.787 372.547 147.116 372.026 145.69C371.476 145.528 370.271 145.176 369.419 145.206C368.217 145.247 367.944 145.646 367.564 146.484L367.911 146.193C369.58 145.03 369.829 145.951 369.854 145.962L368.11 146.485C368.489 146.664 369.091 146.884 369.722 146.711C370.794 146.418 369.94 146.744 370.191 146.244C370.653 145.325 368.834 146.444 370.374 145.791C370.795 145.613 371.449 146.161 371.919 146.485L370.264 146.091C370.723 146.873 370.107 146.488 371.192 147.008C371.122 147.035 371.024 147.05 370.974 147.068L369.904 147.573L370.122 148.333C370.145 148.521 370.144 149.149 370.142 149.361C370.137 149.946 370.101 150.802 369.983 151.143C369.224 149.998 370.105 147.952 369.424 146.976C369.139 147.262 369.326 146.799 369.082 147.571L369.006 149.1C369.031 150.027 369.061 150.63 369.424 151.222C367.476 150.435 369.561 148.379 368.306 146.965C368.266 147.024 368.236 147.111 368.222 147.158L368.003 150.908C367.15 149.746 367.882 149.099 367.774 147.596C367.753 147.302 367.715 147.207 367.648 146.946L367.467 146.537C367.422 146.598 367.379 146.685 367.359 146.735L367.15 147.355C367.15 147.358 367.159 148.248 367.16 148.316C367.176 148.875 367.143 149.538 367.178 150.07C367.237 150.985 367.785 152.15 367.992 152.992C368.729 152.796 372.119 154.055 372.238 151.976C372.647 152.498 372.563 151.284 372.687 152.828ZM566.202 150.991C574.516 150.747 575.52 151.475 574.724 148.265C573.328 142.638 566.187 142.381 566.202 150.991ZM491.049 152.993C482.434 153.823 484.125 159.981 485.036 160.987C486.48 162.582 489.462 161.325 490.386 159.719C491.359 158.026 491.159 155.168 491.049 152.993ZM653.824 155.111C654.269 158.309 656.981 163.32 661.127 160.696C664.501 158.56 664.269 155.02 664.271 150.406C664.272 147.328 664.912 146.605 662.582 145.275C661.105 144.431 658.717 143.901 656.872 144.704C653.656 146.101 653.296 151.313 653.824 155.111Z" fill="#E30016"/>
<path fill-rule="evenodd" clip-rule="evenodd" d="M83.9899 116.889C90.5696 114.471 93.5403 123.965 87.2914 125.794C81.1857 127.581 77.7156 119.194 83.9899 116.889ZM74.5675 129.056L72.8277 127.472C70.8552 127.966 68.1785 129.829 66.3187 130.062L61.7626 120.83L65.5886 139.138L59.6133 139.208C58.7399 143.047 60.1683 160.94 59.3342 165.529C57.8324 165.838 49.0526 165.882 47.759 165.466C47.4305 163.028 47.6597 147.171 47.6748 142.302C47.681 140.25 47.9911 139.746 47.0759 139.266C46.1662 139.671 46.3516 138.256 46.3805 142.041C46.4208 147.234 46.6135 162.216 46.3323 165.409C44.9424 166.041 36.6267 165.848 34.7735 165.558L34.4966 139.237L28.6419 139.163L32.4633 121.344C30.913 122.252 29.0488 128.743 27.506 130.064L17.5526 125.682C17.8831 124.328 35.151 89.67 35.8931 88.8079L58.4519 88.7694C61.9684 95.4901 65.1829 102.474 68.6927 109.289C70.4165 112.636 71.9768 116.07 73.7354 119.458C75.2321 122.341 75.0808 122.012 77.1092 123.891C78.424 125.108 79.8421 126.854 81.4621 127.686C82.3642 127.879 89.1447 127.945 90.1048 127.701C91.1101 127.444 93.9418 124.437 94.9184 123.512C97.0077 121.534 96.9213 121.235 98.4053 118.147L113.131 88.7893L136.064 88.7739L154.239 125.52C153.112 126.25 144.862 129.858 143.808 130.038C143.258 129.296 136.85 116.527 136.728 116.069L136.646 165.464L125.209 165.475L125.204 132.286L123.771 132.187L123.657 165.453L112.317 165.503L112.22 116.383C110.768 117.48 106.785 127.479 104.948 130.017C103.153 129.741 100.766 128.054 98.7972 127.521C97.0386 128.655 94.3514 131.573 92.7574 132.995C91.2926 134.302 91.779 135.194 91.7805 137.597L91.8109 165.422L86.1381 165.468C86.1298 163.292 86.3956 149.8 85.9367 148.992C84.9379 149.248 85.3596 149.929 85.3643 152.497L85.3622 165.368L79.6911 165.484L79.7029 134.47C79.5427 133.127 75.5006 129.816 74.5675 129.056ZM45.4876 66.989C58.3145 64.8063 62.204 83.5097 48.971 85.7795C35.795 88.0393 31.6174 69.3496 45.4876 66.989ZM121.574 67.2977C127.937 65.4186 132.974 69.5451 134.287 73.8319C136.071 79.6556 131.708 84.3977 127.312 85.5687C114.521 88.9763 108.454 71.1715 121.574 67.2977ZM0.945274 178.681C0.770766 177.805 0.899393 178.391 0.891987 177.862L0.949031 175.761C1.16318 119.318 0.944861 62.5971 0.944861 6.11207C0.944861 3.53667 1.3257 2.00385 0.388382 0.449304C2.81293 1.41532 8.39917 0.882625 11.2903 0.882625C64.3159 0.882625 117.342 0.882625 170.367 0.882625C170.619 44.5144 170.366 89.2745 170.366 133.153C170.366 146.175 170.078 162.051 170.377 174.981C170.442 177.767 170.287 177.001 169.807 177.417V13.1712L92.3667 13.1702C88.1418 13.1509 88.8662 14.0456 87.8934 13.082C86.5129 13.7696 88.101 12.4213 87.7645 13.4055C87.5187 14.1244 88.3544 13.1746 87.7133 13.5585C87.535 13.6653 87.4425 13.6695 87.056 13.5195C87.4486 14.4538 87.449 14.3813 87.8949 14.5649C86.6684 15.0971 87.2987 14.2348 87.2934 14.1479C87.2882 14.0616 87.3059 14.0148 87.32 13.9289L86.4135 14.4059L109.031 30.5479L109.068 27.5035L124.624 27.5123L124.605 40.8989C124.65 42.6219 125.339 42.7591 126.414 43.5506L156.541 68.5872C154.204 71.4479 151.161 74.7314 148.632 77.4756C147.356 76.9489 141.931 72.4264 140.598 71.3266C137.953 69.1442 135.469 67.2455 132.758 65.0658L117.168 52.7172C107.149 45.2406 96.2841 35.7946 85.9366 27.9232C84.7164 28.2236 43.5107 61.4141 38.6755 65.1736L26.8517 74.5112C25.7765 75.3248 24.061 76.9394 23.0326 77.4289L14.9698 68.587C15.9106 67.486 31.0121 56.043 32.4858 54.9458C35.6016 52.6261 38.2778 50.4282 41.3646 48.0877L81.1006 17.5366C82.5062 16.4477 84.1179 15.0226 85.6557 14.2311C85.7462 13.2863 85.3967 13.7631 85.9366 13.6929C84.9934 12.9726 84.4091 13.653 83.371 13.5933C82.2761 13.5299 83.4416 13.6508 82.4174 13.3023C81.434 12.9676 78.8646 13.1715 77.5495 13.1712H1.22764V167.397C1.22764 169.407 0.82282 176.217 1.69119 177.592H165.615C168.038 177.591 169.474 177.961 170.369 177.332V178.661C170.881 178.163 170.876 178.724 170.83 176.289C170.578 163.034 170.82 147.78 170.82 134.46V22.8418C170.82 15.7458 171.267 7.28666 170.772 0.359055L0.499986 0.333984L0.443245 177.853C0.463064 179.363 0.359478 178.165 0.945274 178.681ZM0.945274 178.681L170.369 178.661V177.332C169.474 177.961 168.038 177.591 165.615 177.592H1.69119C0.82282 176.217 1.22764 169.407 1.22764 167.397V13.1712H77.5495C78.8646 13.1715 81.434 12.9676 82.4174 13.3023C83.4416 13.6508 82.2761 13.5299 83.371 13.5933C84.4091 13.653 84.9934 12.9726 85.9366 13.6929C85.3967 13.7631 85.7462 13.2863 85.6557 14.2311L86.4135 14.4059L87.32 13.9289C87.3059 14.0148 87.2882 14.0616 87.2934 14.1479C87.2987 14.2348 86.6684 15.0971 87.8949 14.5649C87.449 14.3813 87.4486 14.4538 87.056 13.5195C87.4425 13.6695 87.535 13.6653 87.7133 13.5585C88.3544 13.1746 87.5187 14.1244 87.7645 13.4055C88.101 12.4213 86.5129 13.7696 87.8934 13.082C88.8662 14.0456 88.1418 13.1509 92.3667 13.1702L169.807 13.1712V177.417C170.287 177.001 170.442 177.767 170.377 174.981C170.078 162.051 170.366 146.175 170.366 133.153C170.366 89.2745 170.619 44.5144 170.367 0.882625C117.342 0.882625 64.3159 0.882625 11.2903 0.882625C8.39917 0.882625 2.81293 1.41532 0.388382 0.449304C1.3257 2.00385 0.944861 3.53667 0.944861 6.11207C0.944861 62.5971 1.16318 119.318 0.949031 175.761L0.891987 177.862C0.899393 178.391 0.770766 177.805 0.945274 178.681Z" fill="#E30016"/>
<path fill-rule="evenodd" clip-rule="evenodd" d="M81.4621 127.686C81.6139 128.337 89.0377 127.927 90.1781 127.927C89.9368 128.52 90.7372 128.673 88.7663 128.571C87.5909 128.51 88.3798 128.346 87.0563 128.388L81.7185 128.496C78.7759 128.123 81.4929 127.603 77.5509 127.665C77.8035 128.46 77.4081 128.46 78.11 128.711C78.0722 128.631 77.9323 128.572 77.9007 128.55C77.8894 128.542 77.8309 128.508 77.8182 128.499L76.9903 127.665C76.1024 128.562 75.7127 128.709 74.5675 129.056C75.5006 129.816 79.5426 133.127 79.7028 134.47L79.691 165.484L85.3621 165.368L85.3642 152.497C85.359 149.929 84.9379 149.248 85.9366 148.992C86.3955 149.8 86.1294 163.292 86.138 165.468L91.8108 165.422L91.7804 137.597C91.7793 135.194 91.2925 134.302 92.7573 132.995C94.3513 131.573 97.0385 128.655 98.7971 127.521C100.766 128.054 103.153 129.741 104.948 130.017C106.785 127.479 110.768 117.48 112.22 116.383L112.317 165.503L123.657 165.453L123.771 132.187L125.204 132.286L125.209 165.475L136.646 165.464L136.728 116.069C136.85 116.527 143.258 129.296 143.808 130.038C144.862 129.858 153.112 126.25 154.239 125.52L136.064 88.7739L113.131 88.7893L98.4052 118.147C96.9212 121.235 97.0076 121.534 94.9183 123.512C93.9417 124.437 91.11 127.444 90.1047 127.701C89.1446 127.945 82.3642 127.88 81.4621 127.686Z" fill="#FCFDFD"/>
<path fill-rule="evenodd" clip-rule="evenodd" d="M34.4966 139.237C35.0481 139.671 34.9955 138.342 34.9666 141.779L34.9718 165.365L46.0212 165.365C46.1191 158.311 45.7294 146.932 45.997 140.457C46.0348 139.542 46.1762 138.522 47.3559 138.906C48.1534 139.496 47.9163 138.775 48.0587 140.193L48.0365 165.289L59.1194 165.378L59.1288 142.302C59.1257 140.641 58.8337 139.731 59.6131 139.208L65.5884 139.138L61.7624 120.83L66.3185 130.062C68.1783 129.829 70.8551 127.966 72.8275 127.473L74.5673 129.056C75.7125 128.709 76.1022 128.562 76.9901 127.665L77.818 128.499C77.8307 128.507 77.8892 128.542 77.9005 128.55C77.9321 128.572 78.0719 128.631 78.1098 128.711C77.4079 128.46 77.8032 128.46 77.5507 127.665C81.4926 127.603 78.7757 128.123 81.7183 128.496L87.0562 128.388C88.3796 128.346 87.5907 128.51 88.7661 128.571C90.737 128.673 89.9366 128.52 90.1779 127.927C89.0375 127.927 81.6136 128.337 81.4619 127.686C79.8418 126.854 78.4238 125.108 77.109 123.891C75.0806 122.012 75.2319 122.341 73.7352 119.458C71.9766 116.07 70.4163 112.636 68.6925 109.289C65.1828 102.474 61.9682 95.4902 58.4517 88.7695L35.8929 88.808C35.1508 89.6701 17.8829 124.328 17.5524 125.682L27.5058 130.064C29.0486 128.743 30.9128 122.252 32.463 121.344L28.6417 139.163L34.4966 139.237Z" fill="#FCFDFD"/>
<path fill-rule="evenodd" clip-rule="evenodd" d="M240.201 32.4665L241.015 33.8881C243.627 40.2169 257.899 73.8274 258.137 75.3311C249.88 75.4398 229.308 75.6145 221.783 75.268L240.201 32.4665ZM228.701 107.573C224.232 107.021 221.427 108.034 217.308 105.992C214.585 104.644 212.336 102.281 212.909 98.1702C213.253 95.699 218.459 81.9925 219.573 80.4579L260.313 80.4716C261.218 81.9432 266.479 95.0243 267.674 97.8768C268.935 100.887 271.212 104.802 267.04 106.441C264 107.636 258.901 107.486 255.306 107.49C255.203 108.934 255 111.041 255.453 112.379L296.343 112.369C296.765 111.008 296.572 108.964 296.477 107.51C289.349 107.319 286.334 107.103 283.971 101.69L268.158 63.951C266.033 58.7976 247.263 14.7946 247.25 13.6025C241.36 13.5682 242.825 12.2742 239.732 19.728C238.859 21.8316 237.914 24.079 237.027 26.0756L209.821 89.5448C205.118 100.548 203.846 106.85 191.295 107.513C191.194 108.948 190.994 111.038 191.437 112.379L228.707 112.341L228.701 107.573Z" fill="#FCFDFD"/>
<path fill-rule="evenodd" clip-rule="evenodd" d="M460.712 20.5164C475.11 20.5242 474.063 22.9071 474.063 35.6506C474.063 42.8544 474.522 101.352 473.724 103.909C472.478 107.901 467.578 107.367 462.847 107.511L462.804 112.335L497.389 112.363L497.371 107.488C483.3 107.483 485.549 108.814 485.547 80.0887C485.546 73.0818 486.158 69.5995 489.63 64.6542C496.496 54.8736 510.224 53.9929 515.879 62.8761C518.985 67.7537 518.42 73.5678 518.42 79.8273C518.42 86.2753 518.417 92.7233 518.42 99.1712C518.424 107.768 516.626 107.4 506.662 107.496L506.602 112.353L541.996 112.362L541.981 107.508C536.454 107.371 530.727 108.575 530.107 103.101C528.799 91.5548 532.657 70.2603 527.163 59.648C525.184 55.8244 523.208 53.3142 519.417 51.4704C509.062 46.4343 497.105 50.3397 489.477 57.4559C488.648 58.2286 486.375 61.0831 485.561 61.4604L485.544 13.5855L460.811 13.4727L460.712 20.5164Z" fill="#FCFDFD"/>
<path fill-rule="evenodd" clip-rule="evenodd" d="M410.363 54.9455C423.929 52.5426 430.613 65.8642 431.369 77.443C433.342 107.651 410.781 113.62 401.553 101.544C398.301 97.2869 397.202 90.8608 396.894 84.797C396.23 71.7208 397.608 57.2047 410.363 54.9455ZM399.482 111.065C405.234 113.655 413.118 114.208 419.17 111.445C427.02 107.862 428.595 103.066 431.21 100.257C431.769 101.25 432.407 107.784 432.635 109.653C432.836 111.299 432.641 112.115 433.446 112.367L455.392 112.366L455.333 107.488C450.64 107.482 446.341 107.974 444.206 104.554C442.334 101.555 442.864 96.3655 442.864 92.6365V39.8332C442.864 33.8222 443.164 18.4214 442.825 13.5361L417.286 13.6008L417.275 20.4744C421.541 20.7656 426.562 19.9694 429.394 22.4483C432.204 24.9083 431.317 29.7199 431.317 34.0824C431.317 42.8459 431.553 51.8983 431.288 60.6258C430.822 60.2848 431.172 60.5781 430.773 60.1559L429.827 58.8974C427.053 55.0742 423.245 51.8225 418.348 50.2826C411.947 48.2697 404.232 49.4788 399.161 52.2149C376.262 64.5727 378.791 101.748 399.482 111.065Z" fill="#FCFDFD"/>
<path fill-rule="evenodd" clip-rule="evenodd" d="M86.4138 14.4057L85.6557 14.231C84.1179 15.0225 82.5062 16.4476 81.1006 17.5365L41.3646 48.0876C38.2778 50.4281 35.6016 52.626 32.4858 54.9457C31.0121 56.0429 15.9106 67.4859 14.9698 68.5869L23.0326 77.4288C24.061 76.9394 25.7766 75.3247 26.8517 74.5111L38.6755 65.1735C43.5107 61.4141 84.7164 28.2235 85.9366 27.9231C96.2841 35.7945 107.149 45.2405 117.168 52.7171L132.758 65.0656C135.47 67.2453 137.954 69.144 140.598 71.3264C141.931 72.4263 147.357 76.9487 148.633 77.4754C151.162 74.7312 154.204 71.4477 156.541 68.5869L126.415 43.5504C125.339 42.7589 124.651 42.6217 124.605 40.8987L124.624 27.5121L109.068 27.5033L109.031 30.5477L86.4138 14.4057Z" fill="#FCFDFD"/>
<path fill-rule="evenodd" clip-rule="evenodd" d="M596.146 79.8409C596.483 83.3794 596.378 90.6178 595.59 93.9023C593.93 100.821 587.836 106.937 580.524 108.607C575.613 109.728 571.354 109.119 568.549 106.43C564.001 102.07 563.665 91.7274 572.428 86.3951C577.968 83.0237 588.326 80.6319 596.146 79.8409ZM619.083 105.792C615.122 107.616 611.401 109.491 608.936 104.737C606.431 99.9042 609.036 69.6156 607.587 62.625C603.832 44.5036 566.377 45.2957 557.104 61.0834C555.008 64.6509 555.042 69.1969 557.853 71.9842C563.408 77.4937 576.481 73.0047 568.667 62.4032C567.187 60.3956 567.02 59.3288 568.868 57.7068C572.968 54.1072 581.955 53.2882 587.348 55.115C590.979 56.3443 593.956 58.9419 595.343 62.0243C596.337 64.233 596.695 72.9425 596.062 75.5273C578.332 77.1665 551.516 83.883 552.303 100.488C553.021 115.647 576.635 116.924 587.177 110.901C592.135 108.068 593.157 106.028 596.651 103.409C598.953 108.268 600.841 112.236 606.312 113.71C609.276 114.509 612.811 114.33 615.477 113.312C617.715 112.457 620.397 110.802 621.525 109.366C621.266 108.625 619.706 106.253 619.083 105.792Z" fill="#FCFDFD"/>
<path fill-rule="evenodd" clip-rule="evenodd" d="M346.703 79.9032C347.47 90.3576 346.58 97.297 340.802 103.253C336.796 107.381 325.067 112.523 318.955 106.368C314.473 101.855 314.599 91.2142 322.835 86.4585C327.666 83.669 339.732 79.9533 346.703 79.9032ZM347.058 103.536C347.839 104.28 348.538 107.05 350.801 109.788C356.683 116.905 367.888 114.454 372.091 109.366L369.777 105.747C367.899 106.36 358.441 113.009 358.439 97.8646C358.438 90.2838 358.44 82.7032 358.44 75.1225C358.44 67.3052 359.393 61.2284 354.729 56.179C351.105 52.2556 345.317 49.7989 337.812 49.3469C330.426 48.9025 323.074 49.8572 317.411 52.6287C306.775 57.8354 302.489 68.1396 309.625 73.0053C312.078 74.6777 316.689 74.8085 319.078 73.0072C321.33 71.3089 322.526 67.949 320.859 64.8526C319.482 62.2959 316.268 60.0566 319.581 57.5342C325.626 52.9326 339.941 52.1715 345.17 60.6764C347.445 64.3749 346.676 68.5672 346.761 73.3024C346.814 76.2801 347.376 75.2846 340.725 76.2519C327.778 78.1349 305.032 83.6881 302.973 97.7191C300.69 113.279 320.891 116.496 332.78 113C336.105 112.022 338.154 110.725 340.551 109.033C341.817 108.139 342.689 107.414 343.828 106.346C344.655 105.571 346.186 104.099 347.058 103.536Z" fill="#FCFDFD"/>
<path fill-rule="evenodd" clip-rule="evenodd" d="M410.363 54.9453C397.608 57.2046 396.23 71.7207 396.894 84.7969C397.202 90.8607 398.301 97.2868 401.553 101.544C410.782 113.62 433.342 107.651 431.369 77.4429C430.613 65.8641 423.929 52.5424 410.363 54.9453Z" fill="#374B92"/>
<path fill-rule="evenodd" clip-rule="evenodd" d="M653.935 90.2836C653.935 82.9807 656.58 74.4087 659.074 68.3422C661.106 63.4021 668.313 53.6983 673.511 55.8459C674.07 58.1475 669.538 61.0797 672.467 66.5179C675.594 72.3251 687.323 71.0731 685.934 59.4253C684.893 50.7009 675.814 48.3345 668.68 50.9069C662.127 53.27 658.482 59.4295 655.802 65.0132C655.18 66.3092 652.224 73.4507 652.129 74.4325L652.115 49.9683L628.534 51.2051L628.645 55.7151C635.577 55.7984 642.104 54.4985 642.105 64.6663V102.831C642.105 108.543 634.365 107.475 629.032 107.485L628.982 112.366C634.645 112.369 666.779 112.571 669.675 112.271L669.635 107.563C662.511 106.804 653.936 109.692 653.936 102.308L653.935 90.2836Z" fill="#FCFDFD"/>
<path fill-rule="evenodd" clip-rule="evenodd" d="M221.783 75.2677C229.308 75.6143 249.88 75.4396 258.137 75.3309C257.899 73.8272 243.627 40.2167 241.015 33.8879L240.201 32.4663L221.783 75.2677Z" fill="#374B92"/>
<path fill-rule="evenodd" clip-rule="evenodd" d="M346.703 79.9033C339.732 79.9534 327.666 83.6692 322.835 86.4586C314.599 91.2143 314.473 101.855 318.955 106.368C325.067 112.523 336.796 107.381 340.802 103.253C346.58 97.2971 347.47 90.3577 346.703 79.9033Z" fill="#374B92"/>
<path fill-rule="evenodd" clip-rule="evenodd" d="M596.146 79.8408C588.326 80.6318 577.968 83.0236 572.428 86.395C563.665 91.7273 564.001 102.07 568.549 106.43C571.354 109.119 575.613 109.728 580.524 108.607C587.836 106.937 593.93 100.821 595.59 93.9022C596.378 90.6177 596.483 83.3793 596.146 79.8408Z" fill="#374B92"/>
<path fill-rule="evenodd" clip-rule="evenodd" d="M364.391 163.71C366.02 163.824 367.337 164.31 369.17 164.398C371.003 164.486 372.908 164.42 374.477 165.007C377.836 166.263 377.418 169.778 374.994 171.558C372.481 173.402 364.889 173.221 363.696 168.313C363.304 166.697 363.457 164.869 364.391 163.71ZM373.408 151.714C373.18 152.495 373.345 152.052 373.063 152.527C373.031 152.583 372.912 152.733 372.885 152.694C372.859 152.656 372.752 152.781 372.687 152.827C372.085 154.707 368.178 154.275 367.093 152.586C366.106 151.049 365.77 147.501 366.781 145.838C367.971 143.879 371.018 143.846 372.506 145.434C373.36 146.345 374.436 150.318 373.408 151.714ZM378.503 145.595C379.158 145.517 382.556 145.341 382.816 145.115C383.819 144.239 382.538 142.512 382.084 142.06C380.8 142.324 379.59 143.062 378.375 143.634C376.367 144.58 376.371 143.909 374.661 143.154C369.107 140.704 361.777 143.092 360.733 148.085C359.873 152.199 362.244 153.04 363.755 154.85C361.775 156.719 358.547 158.153 362.721 162.76C357.467 165.723 358.004 171.439 362.386 173.716C366.499 175.854 373.988 175.366 377.738 173.08C381.645 170.698 383.554 164.282 379.02 161.301C373.725 157.821 365.088 160.26 364.028 158.07C363.89 157.112 364.466 156.31 365.262 155.924C366.237 155.452 376.508 158.166 379.121 151.64C380.187 148.976 379.221 147.781 378.503 145.595Z" fill="#FCFDFD"/>
<path fill-rule="evenodd" clip-rule="evenodd" d="M653.824 155.111C653.296 151.313 653.656 146.101 656.872 144.703C658.717 143.901 661.105 144.431 662.582 145.275C664.912 146.605 664.272 147.328 664.271 150.406C664.27 155.02 664.501 158.56 661.127 160.695C656.981 163.32 654.269 158.309 653.824 155.111ZM660.678 130.711C660.607 133.899 664.273 130.02 664.272 135.767L664.257 143.028C661.623 142.986 657.758 140.503 652.098 144.419C649.313 146.346 646.917 149.851 647.171 154.593C647.412 159.096 649.74 162.268 653.194 163.479C655.267 164.207 657.87 164.237 659.955 163.513C662.813 162.521 662.894 161.101 664.256 160.405L664.351 163.653L673.197 162.738C673.798 159.583 670.069 163.36 670.069 158.509L670.164 129.833L660.678 130.711Z" fill="#FCFDFD"/>
<path fill-rule="evenodd" clip-rule="evenodd" d="M399.09 133.363C403.855 135.961 403.219 129.717 403.219 147.791C403.219 164.587 404.062 159.827 399.122 162.195L399.107 163.628L414.758 163.569L414.808 162.167C413.199 161.253 410.969 161.995 409.889 160.338C409.425 159.15 409.606 150.971 409.772 149.172C410.855 149.107 416.39 149.014 417.142 149.209C419.66 149.864 417.188 153.13 420.464 152.877C420.667 152.253 420.681 143.639 420.482 142.959C417.152 142.75 419.607 145.969 417.141 146.632C416.414 146.827 410.829 146.734 409.758 146.672L409.719 134.55C411.982 134.435 417.797 134.286 419.526 134.937C423.482 136.427 421.697 139.902 425.086 139.412C425.024 138.454 423.683 132.422 423.357 131.902L411.36 132.097C407.691 132.097 402.531 131.719 399.16 131.943L399.09 133.363Z" fill="#FBFCFB"/>
<path fill-rule="evenodd" clip-rule="evenodd" d="M177.516 13.3448L177.513 92.3747C177.513 96.4565 176.99 116.382 177.721 118.701C180.23 119.167 238.603 118.83 242.777 118.83H667.449C671.884 118.83 698.204 119.247 700 118.649L177.829 118.547L177.863 0.426415L699.908 0.449639C698.806 -0.186698 668.779 0.174783 667.728 0.174783C509.863 0.174783 351.997 0.174783 194.132 0.174783C189.899 0.174783 181.552 -0.26993 177.809 0.259375C177.102 1.65362 177.528 11.0528 177.516 13.3448Z" fill="#ADB5D2"/>
<path fill-rule="evenodd" clip-rule="evenodd" d="M45.4876 66.9893C31.6174 69.3499 35.795 88.0396 48.971 85.7798C62.204 83.51 58.3145 64.8066 45.4876 66.9893Z" fill="#FCFDFD"/>
<path fill-rule="evenodd" clip-rule="evenodd" d="M121.574 67.2979C108.454 71.1717 114.521 88.9765 127.312 85.5689C131.708 84.3979 136.071 79.6559 134.287 73.8321C132.974 69.5453 127.937 65.4188 121.574 67.2979Z" fill="#FCFDFD"/>
<path fill-rule="evenodd" clip-rule="evenodd" d="M461.56 163.598C463.145 163.755 465.751 163.454 467.554 163.456C468.579 163.456 469.607 163.47 470.631 163.527C471.689 163.586 472.803 163.767 473.533 163.215C473.278 161.111 471.627 162.826 470.228 160.917C469.132 156.527 471.641 147.609 468.649 144.153C467.312 142.609 464.036 141.632 461.086 142.531C458.193 143.412 457.161 145.278 455.565 146.491C455.501 145.177 455.998 143.585 455.647 142.49C454.832 142.079 454.351 142.227 453.161 142.457C449.887 143.09 448.155 142.796 446.141 143.157C445.797 146.046 448.862 143.346 449.563 146.57L449.69 160.098C449.594 161.39 449.184 161.609 447.97 161.889C446.199 162.298 446.26 161.871 446.28 163.667C450.329 163.404 454.62 163.831 458.32 163.569C458.323 160.919 457.18 162.972 455.708 161.177C455.22 159.856 455.418 153.298 455.531 151.438C455.707 148.515 457.326 146.535 460.121 146.116C464.113 145.517 464.269 148.524 464.278 151.713C464.284 154.06 464.558 159.301 464.097 161.317C462.503 162.318 461.213 161.659 461.56 163.598Z" fill="#FCFDFD"/>
<path fill-rule="evenodd" clip-rule="evenodd" d="M339.893 163.58C340.221 161.598 338.928 162.395 337.349 161.348C336.943 159.524 337.092 153.811 337.178 151.703C337.303 148.637 338.812 146.577 341.744 146.134C345.97 145.494 345.925 148.874 345.927 151.974C345.928 154.414 346.19 159.482 345.732 161.475C343.987 162.266 342.834 161.627 343.244 163.546L355.114 163.476C355.356 161.055 353.463 162.807 352.041 161.133C350.654 158.671 353.293 147.817 350.441 144.368C349.086 142.729 346.209 141.601 343.02 142.448C339.762 143.314 339.138 145.375 337.176 146.317L337.298 142.238L327.812 143.12C327.469 146.04 330.704 143.342 331.264 146.825L331.336 160.328C331.012 162.962 327.575 160.874 327.965 163.568C328.154 163.598 339.615 163.618 339.893 163.58Z" fill="#FCFDFD"/>
<path fill-rule="evenodd" clip-rule="evenodd" d="M285.187 161.682C283.433 160.752 282.102 161.665 281.982 159.051C281.788 154.848 282.426 145.385 281.85 142.369C280.198 142.014 277.935 142.875 275.196 142.971C274.073 143.011 273.713 142.874 272.934 143.348C272.866 145.88 275.536 143.554 276.087 146.224C276.329 147.4 276.152 150.591 276.154 151.974C276.159 155.855 275.874 158.866 272.53 159.912C264.408 162.453 268.563 150.921 267.287 142.381C265.826 142.023 264.292 142.578 262.873 142.778C261.65 142.95 259.385 142.753 258.373 143.348C258.275 145.676 260.657 143.823 261.398 145.806C262.054 147.56 260.847 157.483 262.089 160.578C263.025 162.911 265.862 164.389 269.285 163.964C272.855 163.522 274.501 160.897 276.151 159.921C276.158 163.565 275.882 163.656 277.412 163.689L280.509 163.188C281.88 162.995 283.848 163.102 285.159 162.75L285.187 161.682Z" fill="#FCFDFD"/>
<path fill-rule="evenodd" clip-rule="evenodd" d="M239.877 144.511C244.516 143.211 246.707 147.601 247.225 151.203C247.815 155.313 247.476 160.834 243.738 161.755C235.031 163.898 234.032 146.148 239.877 144.511ZM253.794 154.85C254.908 148.079 250.112 143.04 243.886 142.307C236.479 141.435 230.905 145.488 229.961 151.221C227.441 166.528 251.528 168.621 253.794 154.85Z" fill="#FCFDFD"/>
<path fill-rule="evenodd" clip-rule="evenodd" d="M200.462 148.648C201.1 148.12 200.676 148.311 201.941 148.289C204.251 148.249 213.424 148.873 214.818 147.792C214.02 147.081 213.994 147.108 213.171 147.008C211.769 146.838 202.532 147.246 200.73 147.007L211.464 147.01C211.863 147.015 212.823 147.063 213.152 147.036C214.233 146.945 214.323 146.845 214.818 146.486L203.917 146.485C199.349 146.518 200.813 146.614 200.461 145.899L200.708 134.813C202.761 132.794 204.342 135.063 204.275 132.022L190.425 131.959C190.42 134.759 191.332 133.131 193.287 134.218C194.478 134.881 194.117 136.595 194.112 138.12L194.112 156.419C194.113 161.865 194.968 160.73 190.455 162.124L190.493 163.552L204.272 163.623C204.341 160.84 203.374 162.47 201.398 161.391C200.281 160.781 200.604 159.234 200.61 157.726C200.618 155.481 200.93 150.531 200.462 148.648Z" fill="#FCFDFD"/>
<path fill-rule="evenodd" clip-rule="evenodd" d="M491.049 152.993C491.158 155.168 491.359 158.026 490.386 159.719C489.462 161.325 486.48 162.582 485.036 160.987C484.125 159.981 482.434 153.823 491.049 152.993ZM478.82 149.531C480.121 149.649 482.862 149.123 483.728 148.54C484.784 147.829 484.829 145.651 485.895 144.818C487.416 143.628 489.565 144.541 490.277 145.625C491.148 146.951 491.267 149.195 490.919 150.83C489.651 151.647 484.513 152.413 482.423 153.33C475.91 156.185 475.688 163.568 484.317 164.008C488.736 164.234 490.053 163.031 491.996 160.739C492.754 162.45 493.539 163.543 495.586 163.909C496.7 164.109 497.88 164.066 498.983 163.838C499.359 163.76 500.112 163.557 500.382 163.323C500.986 162.8 500.751 162.709 500.546 162.136C498.395 161.596 497.236 162.671 496.973 159.77C496.497 154.537 498.2 146.395 494.803 143.747C489.704 139.775 477.225 143.93 478.82 149.531Z" fill="#FCFDFD"/>
<path fill-rule="evenodd" clip-rule="evenodd" d="M200.461 145.898C200.813 146.613 199.349 146.518 203.917 146.484L214.818 146.485C214.323 146.845 214.233 146.945 213.152 147.035C212.823 147.063 211.863 147.014 211.464 147.009L200.73 147.006C202.532 147.245 211.769 146.838 213.171 147.007C213.994 147.107 214.02 147.08 214.818 147.791C213.424 148.872 204.251 148.248 201.941 148.288C200.676 148.31 201.1 148.119 200.462 148.647L214.496 148.559C214.647 151.305 214.53 154.23 214.533 156.941C214.538 162.064 215.089 160.789 210.91 162.123L210.899 163.666L224.697 163.53C224.751 160.828 223.787 162.49 221.807 161.373C220.663 160.728 221.026 158.954 221.029 157.464V138.381C221.027 137.084 220.656 135.04 221.658 134.328C223.472 133.04 224.755 134.932 224.699 131.951L210.837 132.021C210.839 136.165 214.585 131.024 214.537 137.332C214.516 140.163 214.634 143.116 214.499 145.927L200.461 145.898Z" fill="#FCFDFD"/>
<path fill-rule="evenodd" clip-rule="evenodd" d="M566.202 150.991C566.187 142.381 573.328 142.638 574.724 148.265C575.52 151.475 574.516 150.747 566.202 150.991ZM581.292 159.307C579.66 158.084 578.811 159.642 577.101 160.295C571.409 162.468 565.362 159.235 566.442 153.213L581.284 152.587C582.212 147.961 578.957 142.349 571.84 142.197C559.711 141.939 554.771 159.014 566.404 163.299C569.078 164.284 572.622 164.206 575.428 163.469C577.644 162.888 581.249 161.029 581.292 159.307Z" fill="#FCFDFD"/>
<path fill-rule="evenodd" clip-rule="evenodd" d="M170.773 0.359055C171.267 7.28666 170.82 15.7458 170.82 22.8418V134.46C170.82 147.78 170.578 163.034 170.83 176.289C170.876 178.724 170.881 178.163 170.369 178.661L0.9455 178.68C0.359704 178.165 0.463481 179.363 0.443662 177.853L0.500403 0.333984C-0.220995 1.21044 0.131465 10.0116 0.131465 11.0787C0.131465 28.4382 -0.228083 176.132 0.242035 178.773C1.84995 179.358 77.1392 179.009 85.6574 179.009C94.5245 179.009 169.264 179.46 171.053 178.756C171.453 176.045 171.138 35.543 171.138 22.5804L171.163 1.65017C171.097 0.580049 171.048 0.679663 170.773 0.359055Z" fill="#F4A6A8"/>
<path fill-rule="evenodd" clip-rule="evenodd" d="M290.049 157.009C289.822 158.342 289.977 159.793 290.069 161.146C290.185 162.86 290.498 162.813 292.217 163.286C303.851 166.484 308.781 159.631 305.986 154.297C303.836 150.193 296.133 150.625 295.029 148.082C293.939 145.574 296.58 144.076 299.251 144.361C302.502 144.708 302.483 146.241 303.538 148.537L305.435 148.63C305.423 147.046 305.624 144.71 304.843 143.528C301.194 141.632 295.068 141.651 292.336 144.203C289.051 147.272 289.96 152.219 293.564 154.155C295.511 155.201 297.354 155.449 299.383 156.275C305.029 158.575 300.655 163.58 295.004 161.462C292.179 160.403 292.8 159.428 291.783 157.142L290.049 157.009Z" fill="#FCFDFD"/>
<path fill-rule="evenodd" clip-rule="evenodd" d="M556.142 160.669C555.1 156.983 553.782 161.741 547.525 160.835C540.085 159.757 541.07 147.968 543.545 145.393C544.439 144.461 546.417 143.788 547.921 144.801C549.184 145.652 548.961 147.35 550.202 148.396C550.741 148.641 559.388 149.011 554.544 144.617C548.963 139.554 536.489 142.486 535.356 152.347C533.961 164.494 548.306 167.024 556.142 160.669Z" fill="#FCFDFD"/>
<path fill-rule="evenodd" clip-rule="evenodd" d="M643.411 142.81L637.408 142.661L637.382 137.75C634.407 137.769 634.474 139.148 633.265 140.92C631.975 142.81 631.095 142.755 628.545 143.342L628.569 145.154L631.526 145.29C631.775 148.956 630.908 159.158 632.227 161.643C633.843 164.686 638.797 164.624 641.979 162.67C642.888 162.113 644.223 161.519 643.796 160.517C642.683 158.919 637.927 164.143 637.462 159.048L637.488 145.18C639.078 145.172 641.607 145.517 642.851 144.952L643.411 142.81Z" fill="#FBFCFB"/>
<path fill-rule="evenodd" clip-rule="evenodd" d="M602.5 134.984C602.664 140.15 602.533 145.484 602.533 150.667C602.533 164.203 603.043 160.302 598.383 162.167L598.493 163.641L623.837 163.476C624.254 162.778 625.439 156.448 625.251 155.754L623.457 155.587C623.013 156.919 622.342 158.249 621.399 159.354L620.446 160.442C621.588 160.538 620.619 160.177 621.295 160.752C619.319 161.217 619.935 161.94 616.567 161.914C607.594 161.847 607.924 161.752 607.924 154.588V139.689C607.924 138.601 608.315 135.671 607.714 134.832C607.301 136.748 607.574 149.971 607.574 153.804L607.34 159.827C606.685 158.867 607.005 142.029 607.039 138.382C607.043 137.932 607.085 137.221 607.055 136.801L606.525 148.315C606.525 150.557 607.047 158.786 606.012 160.709C605.959 159.412 606.314 135.364 605.663 134.309C605.317 134.887 605.404 134.959 605.433 136.018L605.476 140.995C605.476 144.313 605.858 159.897 605.104 160.83C604.756 159.922 604.87 141.413 604.942 137.598C604.947 137.306 605.025 136.187 605.011 136.02C604.793 133.497 605.219 135.289 604.29 134.462C604.609 142.508 604.55 149.931 604.543 157.988C604.543 158.313 604.563 159.329 604.535 159.575L603.989 137.598C604.062 133.467 603.929 135.083 603.171 134.462C604.039 140.766 602.652 155.594 603.356 161.1C602.888 160.607 603.022 159.776 603.068 159.3L603.191 136.543C603.038 135.054 602.867 135.237 602.5 134.984ZM602.5 134.984C602.867 135.237 603.038 135.054 603.191 136.543L603.068 159.3C603.022 159.776 602.888 160.607 603.356 161.1C602.652 155.594 604.039 140.766 603.171 134.462C603.929 135.083 604.062 133.467 603.989 137.598L604.535 159.575C604.563 159.329 604.543 158.313 604.543 157.988C604.55 149.931 604.609 142.508 604.29 134.462C605.219 135.289 604.793 133.497 605.011 136.02C605.025 136.187 604.947 137.306 604.942 137.598C604.87 141.413 604.756 159.922 605.104 160.83C605.858 159.897 605.476 144.313 605.476 140.995L605.433 136.018C605.404 134.959 605.317 134.887 605.663 134.309C606.314 135.364 605.959 159.412 606.012 160.709C607.047 158.786 606.525 150.557 606.525 148.315L607.055 136.801C607.085 137.221 607.043 137.932 607.039 138.382C607.005 142.029 606.685 158.867 607.34 159.827L607.574 153.804C607.574 149.971 607.301 136.748 607.714 134.832C608.315 135.671 607.924 138.601 607.924 139.689V154.588C607.924 161.752 607.594 161.847 616.567 161.914C619.935 161.94 619.319 161.217 621.295 160.752C620.619 160.177 621.588 160.538 620.446 160.442C618.085 160.725 620.071 161.1 614.605 161.042C607.244 160.963 609.025 161.441 609.025 144.132C609.025 137.962 607.886 134.683 610.992 133.968C613.119 133.478 613.032 134.136 613.352 132.022L598.838 131.948C598.841 134.956 600.225 132.781 602.5 134.984Z" fill="#FDFBFB"/>
<path fill-rule="evenodd" clip-rule="evenodd" d="M520.392 146.282C519.528 145.674 520.046 145.517 518.17 145.627C516.072 145.75 517.253 146.704 515.083 145.961C515.341 144.834 515.089 145.519 515.786 144.375C513.967 145.222 514.42 145.731 513.161 146.454L513.32 142.383C512.643 142.215 504.654 142.962 503.782 143.219C503.576 145.656 505.517 143.842 506.809 145.603C507.704 146.822 507.334 149.101 507.333 150.667C507.327 164.049 508.112 160.552 503.885 162.403L503.97 163.736C506.519 163.168 514.663 163.994 515.905 163.476C516.083 161.579 515.109 162.313 513.361 161.463C513.043 160.049 513.005 152.19 513.278 150.52C513.814 147.244 516.516 145.527 520.392 146.282Z" fill="#FBFCFB"/>
<path fill-rule="evenodd" clip-rule="evenodd" d="M515.786 144.374C515.089 145.519 515.341 144.834 515.083 145.961C517.253 146.704 516.072 145.75 518.17 145.627C520.046 145.517 519.528 145.674 520.392 146.282C520.705 146.96 521.467 146.983 521.768 148.846C522.08 150.772 522.018 160.024 521.738 161.372C520.327 162.253 519.327 161.632 519.124 163.215C519.963 163.819 520.934 163.593 522.07 163.529C525.114 163.358 530.207 163.914 531.161 163.215C530.917 161.141 529.277 162.648 528.098 161.254C525.945 158.707 531.575 144.267 523.102 142.405C521.569 142.068 519.87 142.135 518.499 142.624C517.896 142.839 517.296 143.138 516.829 143.419L515.786 144.374Z" fill="#FCFDFD"/>
<path fill-rule="evenodd" clip-rule="evenodd" d="M442.264 163.559C441.965 161.895 442.201 162.299 440.455 161.882C439.4 161.629 438.882 161.519 438.715 160.36C438.349 157.827 439.178 143.591 438.839 142.268C438.19 142.228 429.672 143.127 429.397 143.216C428.878 145.465 431.365 144.008 432.419 145.62C433.312 146.986 432.912 160.788 432.766 161.049C431.105 162.49 429.331 161.353 429.536 163.546L442.264 163.559Z" fill="#FCFDFD"/>
<path fill-rule="evenodd" clip-rule="evenodd" d="M310.962 143.348C310.892 145.973 313.936 143.305 314.464 146.838L314.53 160.316C314.197 163.135 310.747 160.717 311.171 163.586C312.676 163.771 315.653 163.455 317.423 163.456C319.376 163.457 321.93 163.743 323.7 163.613C324.102 161.201 322.159 162.74 320.422 160.948C319.857 159.792 320.8 144.021 320.483 142.231L310.962 143.348Z" fill="#FBFDFD"/>
<path fill-rule="evenodd" clip-rule="evenodd" d="M83.9899 116.889C77.7156 119.194 81.1857 127.581 87.2914 125.794C93.5403 123.965 90.5696 114.471 83.9899 116.889Z" fill="#FCFDFD"/>
<path fill-rule="evenodd" clip-rule="evenodd" d="M59.6133 139.208C58.8339 139.731 59.1255 140.642 59.129 142.303L59.1196 165.378L48.0367 165.289L48.059 140.193C47.9165 138.775 48.1536 139.496 47.3561 138.906C46.1764 138.522 46.0351 139.542 45.9972 140.458C45.7296 146.932 46.1193 158.311 46.0214 165.365L34.972 165.365L34.9668 141.779C34.9957 138.342 35.0484 139.671 34.4969 139.237L34.7737 165.558C36.627 165.848 44.9426 166.041 46.3326 165.409C46.6138 162.217 46.421 147.234 46.3807 142.041C46.3519 138.256 46.1664 139.671 47.0762 139.267C47.9914 139.747 47.6811 140.25 47.675 142.303C47.6599 147.171 47.4307 163.029 47.7593 165.467C49.0528 165.883 57.8327 165.839 59.3344 165.53C60.1685 160.94 58.74 143.047 59.6133 139.208Z" fill="#EF9EA1"/>
<path fill-rule="evenodd" clip-rule="evenodd" d="M434.301 131.846C430.071 133.462 432.094 140.059 437.134 138.434C441.492 137.029 439.147 129.995 434.301 131.846Z" fill="#FCFDFD"/>
<path fill-rule="evenodd" clip-rule="evenodd" d="M316.357 131.791C311.443 133.287 313.669 139.951 318.691 138.485C322.848 137.271 321.172 130.325 316.357 131.791Z" fill="#FCFDFD"/>
</svg>
