<svg width="679" height="200" viewBox="0 0 679 200" fill="none" xmlns="http://www.w3.org/2000/svg">
<path d="M199.044 199.998H137.236L99.7076 124.004H161.506L199.044 199.998ZM99.4861 2.61115e-06L130.478 61.8918L62.0186 200H0.329529L99.4861 2.61115e-06ZM237.395 97.8425L226.979 74.6701L216.052 97.8425H237.395ZM241.695 107.524H211.643L203.829 124.004H192.378L227.183 51.572L260.722 124.004H249.119L241.695 107.524ZM284.227 88.4364L264.853 55.9606H276.931L290.377 78.9456L304.439 55.9606H316.61L296.39 88.4364L317.645 124.004H305.756L290.213 97.9273L274.146 124.004H262.148L284.227 88.4364ZM337.746 124.006H327.16V55.9585H337.743L337.746 124.006ZM390.685 65.9722L382.04 70.9509C380.427 68.2478 378.918 66.4846 377.436 65.6542C375.921 64.7072 373.98 64.2444 371.57 64.2444C368.648 64.2444 366.22 65.0571 364.236 66.7037C362.304 68.2725 361.333 70.2547 361.336 72.654C361.336 76.0213 363.895 78.6785 368.971 80.689L375.988 83.4981C381.69 85.6676 385.856 88.4485 388.525 91.6392C391.202 94.8829 392.474 98.8156 392.474 103.54C392.474 109.776 390.335 114.992 385.999 119.013C381.687 123.172 376.259 125.225 369.829 125.225C363.728 125.225 358.68 123.486 354.73 119.942C350.78 116.391 348.373 111.487 347.378 105.172L358.117 102.868C358.628 106.893 359.441 109.6 360.691 111.147C362.855 114.066 366.086 115.561 370.252 115.561C373.584 115.561 376.304 114.522 378.48 112.324C380.683 110.2 381.757 107.462 381.757 104.183C381.757 102.868 381.593 101.639 381.137 100.579C380.832 99.4269 380.23 98.4481 379.435 97.5153C378.663 96.639 377.57 95.6956 376.304 94.9076C375.039 94.0772 373.523 93.3741 371.764 92.5649L364.988 89.8406C355.317 85.9185 350.558 80.1661 350.558 72.5691C350.558 67.4457 352.585 63.2268 356.601 59.7958C360.612 56.3047 365.639 54.5274 371.649 54.5345C379.737 54.5345 386.127 58.3506 390.685 65.9722ZM444.649 114.316H451.213C456.048 114.316 459.572 113.422 461.82 111.63C464.17 109.634 465.381 107.143 465.381 104.15C465.381 101.189 464.17 98.712 461.921 96.6591C459.696 94.8005 455.759 93.7476 450.02 93.7476H444.649V114.316ZM444.649 85.1649H448.009C451.94 85.1649 454.858 84.3345 456.675 82.6384C458.488 80.9388 459.432 78.4584 459.432 75.2076C459.432 71.9568 458.488 69.5117 456.62 67.9216C454.709 66.2079 451.998 65.374 448.404 65.374H444.649V85.1649ZM434.054 124.004V55.9574H444.649C449.351 55.9574 453.093 56.2613 455.89 56.9856C458.704 57.6676 461.078 58.9149 463.007 60.5155C465 62.3211 466.522 64.4589 467.699 67.1019C468.916 69.6424 469.507 72.3208 469.507 74.9885C469.507 79.8611 467.55 83.9811 463.695 87.3697C467.462 88.5958 470.371 90.7583 472.528 93.85C474.741 96.8923 475.818 100.412 475.818 104.549C475.818 109.821 473.889 114.316 469.985 118.015C467.663 120.284 465.04 121.877 462.128 122.718C458.93 123.591 454.95 124.004 450.133 124.004H434.054ZM521.432 97.8425L510.977 74.6701L500.004 97.8425H521.432ZM525.744 107.524H495.65L487.826 124.004H476.37L511.123 51.572L544.72 124.004H533.059L525.744 107.524ZM551.666 124.006V51.2272L602.899 103.257V55.9585H613.513V128.157L562.267 76.304V124.006H551.666ZM637.274 83.1253L664.655 55.9602H678.777L647.024 86.7895L678.996 124.004H664.783L639.484 93.7186L637.274 95.8457V124.004H626.646V55.9602H637.274V83.1253Z" fill="#800000"/>
</svg>
