<svg width="700" height="183" viewBox="0 0 700 183" fill="none" xmlns="http://www.w3.org/2000/svg">
<path fill-rule="evenodd" clip-rule="evenodd" d="M662.402 65C667.7 65 671.878 62.5 671.878 57.4V10H694.804V59.5C694.804 74.5 684.716 79.5 671.47 79.5H633.261C631.834 79.5 630.306 79.2 629.083 78.5C627.758 77.8 626.638 76.9 625.822 75.7L619.199 65H662.402ZM474.614 65C479.913 65 484.09 62.5 484.09 57.4V10H506.914V59.5C506.914 74.5 496.827 79.5 483.581 79.5H445.371C442.416 79.5 439.665 78 437.933 75.6L431.31 64.9L474.614 65ZM562.649 26.8L531.674 79.6H504.571L547.875 10H577.424L620.626 79.6H593.726L586.39 67.2H546.346L552.969 56.5C553.785 55.3 554.905 54.3 556.23 53.7C557.555 53 558.981 52.7 560.408 52.7H577.729L562.649 26.8ZM374.76 26.8L343.683 79.6H316.681L359.985 10H389.534L432.737 79.6H405.735L398.501 67.2H358.457L365.08 56.5C365.895 55.3 367.016 54.3 368.341 53.7C369.665 53 371.092 52.7 372.518 52.7H389.84L374.76 26.8ZM245.866 50.3V79.6L252.387 68.9C253.202 67.7 254.323 66.7 255.648 66.1C256.972 65.4 258.399 65.1 259.825 65.1H285.095C289.884 65.2 293.654 61.8 293.654 57.8C293.654 53.8 289.985 50.4 285.095 50.4L245.866 50.3ZM245.866 50.3L252.387 39.6C254.119 37.2 256.87 35.7 259.825 35.7H285.4C289.985 35.7 293.654 33.7 293.654 30.2C293.654 26.7 289.985 24.6 285.4 24.6H245.764V50.3H245.866ZM222.94 79.6V10H285.502C298.443 10 319.127 11.7 319.127 28.3C319.127 36.4 311.892 42.2 303.435 44.2C313.93 47.3 319.127 53 319.127 60.8C319.127 77.8 299.461 79.5 285.502 79.5L222.94 79.6Z" fill="#0069B4"/>
<path d="M222.737 102.7H279.389V119.7H242.402V136.3H275.924V152.3H242.402V172.4H222.737V102.7Z" fill="#0069B4"/>
<path d="M312.606 102.7H292.838V172.3H312.606V102.7Z" fill="#0069B4"/>
<path d="M329.52 102.7H347.86L377.001 139.6V102.7H396.361V172.4H379.243L348.981 134.2V172.4H329.52V102.7Z" fill="#0069B4"/>
<path d="M407.671 162L418.574 149.2C424.993 154.5 433.144 157.5 441.499 157.6C446.798 157.6 449.651 155.8 449.651 152.8V152.6C449.651 149.7 447.307 148.1 437.729 145.9C422.649 142.5 411.033 138.3 411.033 124V123.8C411.033 110.9 421.426 101.5 438.443 101.5C450.466 101.5 459.84 104.7 467.584 110.8L457.7 124.5C451.179 120 444.148 117.6 437.831 117.6C433.042 117.6 430.699 119.6 430.699 122.1V122.3C430.699 125.5 433.144 126.9 442.926 129.1C459.229 132.6 469.316 137.8 469.316 150.8V151C469.316 165.2 457.904 173.7 440.684 173.7C428.253 173.6 416.332 169.8 407.671 162Z" fill="#0069B4"/>
<path d="M483.071 102.7H540.029V119.2H502.431V129.7H536.463V144.9H502.431V156H540.539V172.4H483.071V102.7Z" fill="#0069B4"/>
<path d="M587.103 136.2C593.828 136.2 597.598 133 597.598 127.9V127.7C597.598 122.2 593.523 119.4 587.001 119.4H574.163V136.1H587.103V136.2ZM554.6 102.7H588.122C598.923 102.7 606.463 105.5 611.15 110.3C615.327 114.3 617.467 119.7 617.467 126.5V126.7C617.467 137.3 611.659 144.4 602.897 148.1L619.811 172.4H597.089L582.824 151.3H574.265V172.4H554.6V102.7Z" fill="#0069B4"/>
<path d="M623.683 102.7H645.691L661.79 146.8L677.788 102.7H699.287L670.553 172.9H652.416L623.683 102.7Z" fill="#0069B4"/>
<path d="M93.1295 0.600098C90.0728 0.600098 87.1179 0.700092 84.0611 1.00009C81.0044 1.30009 78.0495 1.70009 75.0946 2.30009C72.1397 2.90009 69.1849 3.60009 66.3319 4.50009C63.4789 5.40009 60.6259 6.40009 57.7729 7.50009C55.0218 8.60009 52.2707 9.90009 49.6215 11.3001C44.3231 14.1001 39.2285 17.4001 34.5415 21.2001C32.198 23.1001 29.9563 25.1001 27.8166 27.2001C25.6769 29.3001 23.639 31.5001 21.7031 33.8001C19.7671 36.1001 17.933 38.5001 16.3028 41.0001C14.5706 43.5001 13.0422 46.0001 11.6157 48.6001C7.33624 56.5001 4.27948 64.9001 2.44542 73.7001C1.83406 76.6001 1.42649 79.6001 1.12081 82.5001C0.815135 85.5001 0.713242 88.4001 0.713242 91.4001C0.713242 94.4001 0.917028 97.3001 1.12081 100.3C1.3246 103.3 1.83406 106.2 2.44542 109.1C4.27948 117.9 7.33624 126.3 11.6157 134.2C13.0422 136.8 14.5706 139.4 16.3028 141.8C18.0349 144.2 19.7671 146.7 21.7031 149C23.639 151.3 25.6769 153.5 27.8166 155.6C29.9563 157.7 32.198 159.7 34.5415 161.6C39.2285 165.4 44.2212 168.7 49.6215 171.5C52.2707 172.9 55.0218 174.2 57.7729 175.3C60.524 176.4 63.377 177.4 66.3319 178.3C69.2868 179.2 72.1397 179.9 75.0946 180.5C78.0495 181.1 81.0044 181.5 84.0611 181.8C87.1179 182.1 90.0728 182.2 93.1295 182.2C96.1863 182.2 99.1412 182.1 102.198 181.8C105.255 181.5 108.21 181.1 111.164 180.5C114.119 179.9 117.074 179.2 119.927 178.3C122.78 177.4 125.633 176.4 128.486 175.3C131.339 174.2 133.988 172.9 136.638 171.5C139.287 170.1 141.936 168.6 144.381 166.9C146.929 165.2 149.272 163.5 151.616 161.6C153.959 159.7 156.201 157.7 158.341 155.6C162.62 151.4 166.492 146.8 169.854 141.8C171.485 139.3 173.115 136.8 174.541 134.2C175.968 131.6 177.293 128.9 178.413 126.1C179.534 123.4 180.553 120.6 181.47 117.7C182.387 114.8 183.1 112 183.712 109.1C184.323 106.2 184.731 103.2 185.036 100.3C185.342 97.3001 185.444 94.4001 185.444 91.4001C185.444 88.4001 185.342 85.5001 185.036 82.5001C184.731 79.5001 184.323 76.6001 183.712 73.7001C183.1 70.8001 182.387 67.9001 181.47 65.1001C180.553 62.3001 179.534 59.5001 178.413 56.7001C177.293 53.9001 175.968 51.3001 174.541 48.6001C173.115 46.0001 171.587 43.4001 169.854 41.0001C168.122 38.6001 166.39 36.1001 164.454 33.8001C160.582 29.2001 156.303 25.0001 151.616 21.2001C149.272 19.3001 146.827 17.5001 144.381 15.9001C141.936 14.3001 139.287 12.7001 136.638 11.3001C133.988 9.90009 131.237 8.60009 128.486 7.50009C125.735 6.40009 122.882 5.40009 119.927 4.50009C117.074 3.60009 114.119 2.90009 111.164 2.30009C108.21 1.70009 105.255 1.30009 102.198 1.00009C99.1412 0.700092 96.1863 0.600098 93.1295 0.600098ZM150.801 114.8C150.801 139.6 122.678 141.9 102.707 142H84.7744V119.7H120.437V102.7H84.7744V79.6001H124.207V61.6001H63.8865V142.1H40.8588V40.9001H102.707C121.15 40.9001 150.801 43.5001 150.801 67.4001C150.801 79.2001 140.509 87.9001 128.486 90.9001C143.362 95.5001 150.801 102.7 150.801 114.8Z" fill="#0069B4"/>
</svg>
