<svg xmlns="http://www.w3.org/2000/svg" version="1.0" width="830.000000pt" height="328.000000pt" viewBox="0 0 830.000000 328.000000" preserveAspectRatio="xMidYMid meet">

<g transform="translate(0.000000,328.000000) scale(0.100000,-0.100000)" fill="#005dac" stroke="none">
<path d="M10 1640 l0 -1630 1630 0 1630 0 0 1630 0 1630 -1630 0 -1630 0 0 -1630z m1961 1008 c131 -35 215 -103 243 -199 20 -66 20 -102 0 -169 -19 -63 -98 -149 -157 -171 -20 -7 -37 -15 -37 -19 1 -3 23 -16 51 -29 57 -28 113 -86 137 -140 20 -45 21 -172 3 -225 -17 -48 -71 -109 -125 -141 -71 -41 -155 -56 -368 -62 l-198 -6 0 122 c0 116 1 123 25 146 23 24 29 25 157 25 105 0 138 3 156 16 12 8 40 51 62 95 l40 79 -186 0 c-107 0 -193 -4 -204 -10 -11 -6 -26 -23 -34 -38 -14 -25 -15 -18 -16 100 0 202 6 208 232 208 124 0 158 3 176 16 12 8 40 51 62 95 l40 79 -365 0 -365 0 0 -465 0 -466 -122 3 -123 3 -3 588 -2 589 432 -5 c339 -3 445 -7 489 -19z m-1292 -1608 c54 -15 91 -57 91 -101 0 -30 -7 -43 -35 -68 -20 -17 -41 -31 -48 -31 -7 -1 5 -10 25 -21 21 -10 42 -28 48 -38 16 -32 12 -86 -10 -114 -36 -46 -75 -52 -335 -52 l-240 0 -3 218 -2 217 237 0 c131 0 254 -4 272 -10z m663 -205 c70 -115 128 -213 128 -217 0 -5 -36 -8 -79 -8 l-80 0 -22 40 -23 40 -123 0 c-68 0 -123 2 -123 5 0 3 11 23 25 45 l25 40 71 0 71 0 -37 68 c-21 37 -43 73 -50 80 -9 11 -31 -20 -106 -152 l-94 -165 -82 -1 c-46 0 -83 2 -83 5 0 2 59 101 132 220 l132 216 95 -3 95 -3 128 -210z m598 43 c0 -187 -5 -206 -53 -242 -25 -19 -45 -21 -173 -24 -80 -2 -155 -1 -168 2 -13 3 -35 23 -49 45 l-26 39 150 4 c135 3 152 5 165 22 11 15 14 57 14 173 l0 153 70 0 70 0 0 -172z m571 -43 c71 -116 129 -213 129 -217 0 -5 -36 -8 -80 -8 l-79 0 -23 40 -23 40 -122 0 c-68 0 -123 2 -123 5 0 3 11 23 25 45 25 40 25 40 90 40 40 0 65 4 65 11 0 18 -81 151 -88 144 -4 -3 -47 -77 -97 -163 l-90 -157 -82 -3 c-46 -2 -83 0 -83 3 0 3 59 103 131 221 l131 215 95 -3 95 -3 129 -210z m599 43 c0 -187 -5 -206 -53 -242 -25 -19 -45 -21 -182 -24 -95 -2 -160 0 -173 7 -11 6 -29 26 -40 45 l-20 34 148 4 c105 2 153 7 162 16 9 9 14 59 16 172 l3 160 70 0 69 0 0 -172z"/>
<path d="M320 883 l0 -78 21 35 c12 19 27 38 33 42 6 4 55 8 108 8 53 0 103 3 112 6 21 8 21 50 0 58 -9 3 -74 6 -145 6 l-129 0 0 -77z"/>
<path d="M320 715 c0 -47 2 -85 4 -85 2 0 13 16 25 35 l20 35 93 0 c104 0 141 13 146 50 6 42 -19 50 -160 50 l-128 0 0 -85z"/>
<path d="M3600 1640 l0 -321 103 3 102 3 3 128 3 127 97 0 c64 0 104 4 114 13 8 6 29 36 46 65 l32 52 -145 0 -145 0 0 38 c0 68 19 76 187 80 l144 3 35 54 c19 30 34 59 34 65 0 7 -99 10 -305 10 l-305 0 0 -320z"/>
<path d="M4290 1640 l0 -320 100 0 100 0 0 320 0 320 -100 0 -100 0 0 -320z"/>
<path d="M4580 1640 l0 -320 100 0 100 0 0 170 c0 94 3 170 8 170 4 -1 41 -51 82 -112 41 -61 94 -137 118 -169 l42 -59 120 0 120 0 0 320 0 320 -100 0 -100 0 0 -177 c0 -152 -2 -175 -14 -163 -8 8 -64 88 -125 178 l-112 162 -120 0 -119 0 0 -320z"/>
<path d="M5480 1949 c-50 -10 -83 -31 -114 -73 -31 -41 -29 -139 2 -184 43 -60 162 -102 290 -102 64 0 76 -3 97 -25 32 -31 32 -58 -1 -84 -25 -19 -40 -21 -200 -21 l-174 0 0 -71 0 -71 213 4 c228 6 277 15 345 65 44 33 62 72 62 134 0 77 -34 130 -107 166 -50 24 -72 28 -163 31 -58 2 -117 8 -132 13 -32 13 -41 41 -21 68 13 20 23 21 209 21 l194 0 0 70 0 70 -227 -1 c-126 -1 -248 -5 -273 -10z"/>
<path d="M6070 1640 l0 -320 295 0 295 0 0 64 0 63 -82 6 c-46 4 -122 7 -170 7 -105 0 -128 14 -128 80 l0 40 98 0 c53 0 103 4 110 8 7 5 28 33 47 63 l34 54 -145 3 -144 3 0 34 c0 63 23 75 149 75 59 0 136 3 170 6 l61 7 0 63 0 64 -295 0 -295 0 0 -320z"/>
<path d="M6753 1898 l24 -63 147 -5 c140 -5 149 -6 167 -29 24 -30 24 -52 -2 -85 -20 -25 -23 -26 -139 -26 l-119 0 22 -62 22 -63 70 -3 70 -3 68 -119 68 -120 115 0 c69 0 114 4 114 10 0 6 -33 65 -73 133 l-73 122 42 40 c97 92 72 243 -49 308 -39 20 -57 22 -270 25 l-227 4 23 -64z"/>
<path d="M7330 1953 c0 -4 78 -147 173 -318 l173 -310 133 0 133 0 174 310 c95 171 173 313 174 318 0 4 -53 7 -118 7 l-117 0 -49 -97 c-26 -54 -82 -163 -123 -242 l-76 -144 -121 239 -121 239 -117 3 c-65 1 -118 -1 -118 -5z"/>
</g>
</svg>