<svg width="679" height="210" viewBox="0 0 679 210" fill="none" xmlns="http://www.w3.org/2000/svg">
<path d="M98.7287 0.190674C44.1864 1.90808 0.329529 47.7055 0.329529 104.093C0.329529 161.531 45.5801 208.092 101.516 208.187C101.516 208.187 101.516 208.187 101.609 208.187C120.193 208.187 170.461 200.173 194.155 146.456C183.748 150.845 172.505 153.039 161.262 153.039C112.945 153.039 73.9199 120.886 73.9199 71.3674C73.8269 45.8926 81.3532 25.3792 92.875 10.3043C95.1979 7.25111 99.0075 2.9576 101.609 0.190674H98.7287Z" fill="url(#paint0_linear_69_177)"/>
<path d="M110.715 10.3045C125.861 31.1041 129.391 51.0451 129.391 71.4631C129.391 121.077 90.2733 153.135 42.0493 153.135C30.8063 153.135 19.5634 150.941 9.15665 146.552C33.3151 201.795 83.1187 208.283 101.702 208.283C157.638 208.283 202.982 161.627 202.982 104.189C202.982 47.8011 159.125 2.00374 104.583 0.286335L101.609 0.190918C104.304 2.86243 108.485 7.06053 110.715 10.3045Z" fill="url(#paint1_linear_69_177)"/>
<path d="M91.2025 12.5941C80.6099 27.6691 73.827 47.3238 73.9199 70.9858C74.0128 96.9376 84.7912 118.596 101.795 132.908C119.821 117.928 130.042 95.2202 129.484 71.4628C129.298 52.0944 127.533 33.9662 111.18 10.8767C108.299 7.06028 105.14 3.43465 101.702 0.190674C101.423 0.190674 95.2908 6.67863 91.2025 12.5941Z" fill="white"/>
<path d="M252.135 59.9181V87.1103C253.9 87.3011 255.759 87.3966 257.803 87.492C259.847 87.5874 261.612 87.5874 263.378 87.5874C266.444 87.5874 269.417 87.3965 272.484 86.9195C274.992 86.5378 277.501 85.87 279.731 84.6296C281.683 83.6755 283.355 82.1489 284.656 80.3361C285.957 78.2371 286.607 75.8518 286.514 73.3711C286.514 68.3143 284.749 64.7841 281.125 62.7805C277.501 60.7768 272.577 59.8227 266.258 59.8227L252.135 59.9181ZM252.135 47.133H263.285C269.325 47.133 274.063 46.2743 277.408 44.4615C280.846 42.6487 282.519 39.5001 282.519 35.0158C282.519 30.7223 280.753 27.6691 277.222 25.8563C273.692 24.0435 269.046 23.1848 263.378 23.1848C260.962 23.1848 258.825 23.1848 256.967 23.2802C255.108 23.3756 253.436 23.471 252.135 23.6619V47.133ZM262.82 101.136C258.174 101.136 253.529 100.945 248.883 100.659C244.701 100.468 240.613 99.8 236.618 98.7505V12.1171C238.476 11.7355 240.427 11.4492 242.471 11.163C244.516 10.8768 246.653 10.5905 248.883 10.4951C251.113 10.3997 253.25 10.2089 255.294 10.1135C257.338 10.0181 259.475 10.0181 261.334 10.0181C266.258 10.0181 271.183 10.3997 276.015 11.2584C280.103 11.9263 284.098 13.2621 287.722 15.3611C290.881 17.0785 293.576 19.6546 295.434 22.8032C297.385 26.238 298.315 30.2452 298.222 34.2525C298.315 38.0689 297.293 41.8854 295.248 45.1294C293.111 48.1825 290.324 50.6632 286.979 52.2852C292.275 54.098 296.178 56.7695 298.593 60.2998C301.102 63.83 302.31 68.3143 302.403 73.6573C302.403 82.8168 299.151 89.7818 292.647 94.3616C286.328 98.8459 276.293 101.136 262.82 101.136Z" fill="#0A3152"/>
<path d="M333.159 89.1139C336.689 89.2093 340.313 88.923 343.844 88.3506V71.0811C342.636 70.6995 341.428 70.5087 340.22 70.3179C338.455 70.0316 336.689 69.9362 335.017 69.9362C333.344 69.9362 331.672 70.0316 329.906 70.3179C328.327 70.5087 326.747 70.9857 325.261 71.749C323.96 72.4169 322.752 73.371 321.916 74.6114C321.079 76.0425 320.615 77.6645 320.708 79.2865C320.708 83.0075 321.823 85.4882 324.053 86.9194C326.283 88.3506 329.349 89.1139 333.159 89.1139ZM331.951 31.0084C336.225 30.913 340.499 31.4855 344.587 32.9167C347.747 33.9662 350.534 35.8744 352.764 38.3551C354.901 40.7404 356.388 43.6981 357.131 46.7513C358.06 50.2815 358.525 54.0025 358.432 57.6282V98.4642C356.109 98.9412 352.578 99.6091 347.839 100.372C342.543 101.136 337.247 101.517 331.858 101.422C328.234 101.517 324.61 101.136 321.079 100.277C318.106 99.6091 315.226 98.3688 312.717 96.5559C310.394 94.8385 308.536 92.5487 307.328 89.8772C305.934 86.6332 305.283 83.1984 305.376 79.6682C305.283 76.2333 306.027 72.894 307.606 69.9362C309 67.2647 311.044 65.0702 313.553 63.4482C316.248 61.7308 319.128 60.4905 322.287 59.8226C325.725 59.0593 329.163 58.6777 332.601 58.7731C334.366 58.7731 336.132 58.8685 337.897 59.1547C339.849 59.3456 341.893 59.7272 343.751 60.2043V57.6282C343.751 55.9108 343.565 54.1934 343.101 52.476C342.729 50.854 341.986 49.4228 340.871 48.1825C339.756 46.8467 338.362 45.8926 336.689 45.3201C334.552 44.5568 332.415 44.2706 330.185 44.2706C326.933 44.2706 323.774 44.5568 320.522 45.0339C318.106 45.4155 315.69 45.988 313.367 46.8467L311.509 34.2524C314.203 33.3937 317.084 32.7258 319.871 32.2488C323.774 31.5809 327.769 31.1993 331.672 31.1993" fill="#0A3152"/>
<path d="M368.932 34.9207C377.759 32.5354 386.772 31.2951 395.878 31.2951C400.431 31.1043 404.983 31.8675 409.258 33.4895C412.603 34.8253 415.576 36.9243 417.806 39.7867C420.036 42.649 421.523 45.9884 422.266 49.614C423.195 53.7167 423.66 57.9148 423.567 62.1129V99.9911H408.421V64.5936C408.514 61.5404 408.236 58.3919 407.678 55.4341C407.306 53.2397 406.563 51.1406 405.448 49.2324C404.426 47.6104 402.939 46.4655 401.174 45.7976C399.037 45.0343 396.807 44.6526 394.577 44.6526C392.533 44.6526 390.581 44.748 388.537 45.0343C386.4 45.3205 384.913 45.5113 383.891 45.7022V100.087H368.746" fill="#0A3152"/>
<path d="M446.053 66.2154C446.053 73.085 447.632 78.428 450.792 82.3398C453.951 86.2517 458.318 88.1599 463.986 88.1599C466.03 88.1599 468.167 88.0645 470.211 87.8737C471.605 87.6829 472.999 87.492 474.393 87.1104V48.4689C472.72 47.324 470.955 46.4652 469.003 45.7974C466.773 44.9387 464.357 44.557 461.942 44.557C456.46 44.557 452.371 46.4653 449.862 50.3771C447.354 54.289 446.053 59.632 446.053 66.2154ZM489.538 97.9873C481.175 100.468 472.534 101.708 463.8 101.708C459.061 101.804 454.322 100.945 449.862 99.2276C445.867 97.7011 442.336 95.3158 439.363 92.1672C436.389 89.0186 434.159 85.2022 432.766 81.0995C431.186 76.4244 430.35 71.463 430.443 66.5016C430.35 61.6356 431 56.6742 432.394 51.9991C433.509 47.8964 435.46 44.1754 438.062 40.836C440.571 37.7828 443.73 35.3021 447.261 33.6802C451.163 31.9628 455.437 31.104 459.712 31.1995C462.499 31.1995 465.38 31.5811 468.074 32.3444C470.211 33.0123 472.348 33.871 474.393 34.9205V2.5761L489.538 0" fill="#0A3152"/>
<path d="M500.688 100.086V2.76677L515.834 0.190674V33.5846C517.692 32.9167 519.643 32.3443 521.687 32.058C523.824 31.6764 526.054 31.3901 528.284 31.3901C533.581 31.3901 537.948 32.1534 541.386 33.68C544.638 35.0158 547.518 37.2102 549.655 39.9771C551.792 42.8395 553.372 46.1789 554.115 49.7091C555.045 53.8118 555.509 58.0099 555.416 62.2079V100.086H540.271V64.6886C540.271 61.6355 540.085 58.4869 539.527 55.5292C539.156 53.3347 538.412 51.2357 537.204 49.3274C536.182 47.8009 534.696 46.5605 533.023 45.8926C530.979 45.1294 528.749 44.7477 526.519 44.7477C524.475 44.7477 522.431 44.9385 520.386 45.4156C518.807 45.7018 517.227 46.0835 515.741 46.5605V100.086" fill="#0A3152"/>
<path d="M588.588 89.1139C592.118 89.2093 595.742 88.923 599.273 88.3506V71.0811C598.065 70.6995 596.857 70.5087 595.649 70.3179C593.884 70.0316 592.118 69.9362 590.446 69.9362C588.773 69.9362 587.008 70.0316 585.336 70.3179C583.756 70.5087 582.176 70.9857 580.69 71.749C579.389 72.4169 578.181 73.371 577.345 74.6114C576.508 76.0425 576.044 77.6645 576.137 79.2865C576.137 83.0075 577.252 85.4882 579.482 86.9194C581.712 88.3506 584.685 89.1139 588.588 89.1139ZM587.287 31.0084C591.561 30.913 595.835 31.4855 599.924 32.9167C606.149 34.9203 610.981 40.1679 612.56 46.7513C613.489 50.2815 613.861 54.0025 613.861 57.6282V98.4642C611.538 98.9412 608.007 99.6091 603.269 100.372C597.972 101.136 592.583 101.517 587.287 101.422C583.663 101.422 580.039 101.04 576.508 100.277C573.535 99.6091 570.655 98.3688 568.146 96.5559C565.823 94.8385 563.965 92.5487 562.757 89.8772C561.363 86.6332 560.713 83.1984 560.805 79.6682C560.713 76.2333 561.456 72.894 563.035 69.9362C564.429 67.2647 566.473 65.0702 568.982 63.4482C571.677 61.7308 574.65 60.4905 577.716 59.8226C581.154 59.0593 584.592 58.6777 588.03 58.7731C589.796 58.7731 591.561 58.8685 593.326 59.1547C595.278 59.3456 597.322 59.7272 599.18 60.2043V57.6282C599.18 55.9108 598.994 54.1934 598.53 52.476C598.158 50.854 597.415 49.4228 596.3 48.1825C595.185 46.8467 593.791 45.8926 592.211 45.3201C590.167 44.5568 587.937 44.2706 585.707 44.2706C582.455 44.2706 579.203 44.5568 576.044 45.0339C573.628 45.4155 571.212 45.988 568.889 46.8467L567.031 34.2524C569.726 33.3937 572.606 32.7258 575.393 32.2488C579.389 31.3901 583.291 31.0084 587.287 31.0084Z" fill="#0A3152"/>
<path d="M624.268 34.9205C627.985 33.871 631.794 33.1077 635.697 32.4399C640.807 31.6766 646.01 31.2949 651.214 31.2949C656.603 31.2949 661.063 32.0582 664.594 33.5848C667.939 34.9205 670.912 37.115 673.235 39.8819C675.465 42.7443 676.952 46.0837 677.695 49.7093C678.624 53.812 678.996 58.0101 678.996 62.3036V100.182H663.85V64.7842C663.943 61.7311 663.665 58.5825 663.2 55.6248C662.828 53.4303 662.085 51.3313 660.97 49.423C659.948 47.8011 658.461 46.6561 656.696 45.9882C654.559 45.2249 652.329 44.8433 650.099 44.8433C648.055 44.8433 646.103 44.9387 644.059 45.2249C642.015 45.5112 640.435 45.702 639.413 45.8928V100.277H624.268" fill="#0A3152"/>
<path d="M246.56 165.825V201.127C247.768 201.318 249.719 201.508 252.228 201.699C254.737 201.89 257.245 202.081 259.847 202.081C263.564 202.081 267.373 201.795 271.09 201.318C274.435 200.84 277.687 199.886 280.66 198.455C283.355 197.215 285.585 195.211 287.257 192.731C289.023 189.964 289.952 186.72 289.766 183.476C289.859 180.518 289.302 177.56 288.001 174.889C286.886 172.599 285.12 170.786 282.983 169.45C280.567 168.019 277.873 167.065 274.992 166.683C271.555 166.111 268.024 165.92 264.493 165.92L246.56 165.825ZM246.56 158.287H263.099C266.072 158.287 268.953 158.001 271.833 157.524C274.342 157.142 276.851 156.283 279.081 154.948C281.125 153.707 282.797 151.99 283.912 149.986C285.12 147.506 285.771 144.739 285.678 141.972C285.771 139.396 285.12 136.82 283.82 134.625C282.519 132.526 280.66 130.809 278.523 129.664C275.922 128.328 273.134 127.374 270.254 126.897C266.816 126.324 263.285 126.038 259.754 126.038C256.688 126.038 254.086 126.134 251.949 126.324C249.812 126.515 248.046 126.706 246.653 126.992L246.56 158.287ZM258.918 209.427C257.524 209.427 255.852 209.332 253.993 209.237C252.135 209.141 250.184 208.95 248.232 208.76C246.281 208.569 244.423 208.283 242.657 207.996C240.892 207.71 239.405 207.424 238.104 207.042V121.172C239.777 120.695 241.449 120.313 243.122 120.123C244.98 119.836 246.839 119.55 248.79 119.359C250.741 119.169 252.692 118.978 254.551 118.882C256.409 118.787 258.174 118.787 259.754 118.787C264.214 118.787 268.674 119.169 273.134 119.932C277.037 120.6 280.753 121.84 284.284 123.748C287.35 125.466 289.952 127.946 291.903 130.904C293.855 134.243 294.784 138.06 294.691 141.876C294.784 146.265 293.576 150.559 291.16 154.184C288.837 157.524 285.399 160.004 281.59 161.245C284.005 161.817 286.328 162.676 288.465 163.821C290.51 164.966 292.368 166.397 293.948 168.114C295.62 169.927 296.828 172.122 297.664 174.602C298.593 177.56 299.058 180.613 298.965 183.666C298.965 192.063 295.713 198.551 289.209 202.94C282.705 207.328 272.577 209.427 258.918 209.427Z" fill="#0A3152"/>
<path d="M328.791 202.653C331.951 202.653 334.738 202.558 337.154 202.367C339.198 202.176 341.242 201.89 343.194 201.509V178.037C341.8 177.465 340.313 176.988 338.826 176.702C336.132 176.129 333.344 175.938 330.557 176.034C328.42 176.034 326.376 176.225 324.239 176.511C322.101 176.797 320.15 177.465 318.199 178.419C316.433 179.373 314.854 180.804 313.646 182.426C312.345 184.43 311.788 186.815 311.881 189.296C311.788 191.49 312.252 193.589 313.088 195.593C313.832 197.215 315.04 198.742 316.433 199.791C318.013 200.841 319.778 201.604 321.73 201.986C324.238 202.367 326.561 202.653 328.791 202.653ZM328.141 140.541C331.858 140.445 335.574 141.113 339.012 142.354C341.8 143.499 344.216 145.216 346.26 147.506C348.118 149.796 349.512 152.467 350.255 155.329C351.092 158.478 351.556 161.817 351.463 165.061V207.042C350.255 207.424 349.047 207.71 347.839 207.901C346.26 208.187 344.402 208.569 342.264 208.855C340.127 209.141 337.897 209.523 335.296 209.714C332.694 209.905 330.185 210 327.398 210C324.239 210 320.986 209.618 317.92 208.855C315.226 208.187 312.624 206.947 310.394 205.23C308.257 203.512 306.491 201.318 305.376 198.742C304.075 195.688 303.425 192.444 303.518 189.105C303.425 185.861 304.168 182.712 305.562 179.85C306.863 177.274 308.814 175.08 311.23 173.458C313.832 171.645 316.805 170.404 319.871 169.737C323.495 168.973 327.119 168.592 330.743 168.592C331.951 168.592 333.251 168.687 334.459 168.782C335.76 168.878 336.968 169.069 338.176 169.26C339.384 169.45 340.406 169.737 341.335 169.927C341.986 170.023 342.543 170.214 343.194 170.5V166.397C343.194 164.107 343.008 161.913 342.729 159.623C342.45 157.524 341.707 155.52 340.499 153.707C339.291 151.895 337.711 150.464 335.76 149.414C333.251 148.269 330.464 147.697 327.676 147.792C322.938 147.792 319.314 148.078 316.991 148.842C314.668 149.605 312.903 150.082 311.881 150.559L310.766 143.212C312.903 142.354 315.133 141.686 317.363 141.304C320.893 140.827 324.424 140.541 328.141 140.541Z" fill="#0A3152"/>
<path d="M364.1 144.452C366.516 143.785 369.768 143.021 373.856 142.163C378.781 141.208 383.891 140.827 388.909 140.827C393.09 140.731 397.271 141.399 401.267 143.021C404.426 144.357 407.121 146.456 409.165 149.223C411.209 152.085 412.603 155.425 413.346 158.955C414.275 163.058 414.647 167.256 414.647 171.454V208.664H406.47V174.125C406.563 170.118 406.191 166.111 405.541 162.199C405.076 159.337 403.961 156.57 402.382 154.184C400.895 152.181 398.944 150.559 396.621 149.7C393.74 148.746 390.674 148.269 387.701 148.364C384.356 148.364 381.011 148.555 377.759 149.032C375.9 149.223 374.042 149.605 372.277 150.177V208.569H364.1" fill="#0A3152"/>
<path d="M443.544 172.408C446.703 174.698 449.677 177.179 452.557 179.85C455.53 182.617 458.504 185.67 461.477 188.914C464.45 192.158 467.145 195.498 469.747 198.932C472.07 202.081 474.3 205.325 476.344 208.664H466.495C464.45 205.134 462.22 201.89 459.712 198.742C454.694 192.444 449.119 186.815 442.987 181.663C440.664 179.659 438.062 177.846 435.46 176.32V208.664H427.284V110.295L435.46 108.769V170.786C437.226 169.259 439.363 167.16 441.964 164.489C444.566 161.817 447.261 159.146 449.862 156.474C452.464 153.803 455.159 151.227 457.575 148.651C459.99 146.17 462.035 143.976 463.614 142.067H473.649C471.791 144.166 469.561 146.456 467.052 148.937L459.247 156.761L451.349 164.775C448.562 167.542 446.053 170.023 443.544 172.408Z" fill="#0A3152"/>
<defs>
<linearGradient id="paint0_linear_69_177" x1="1.05802" y1="9.03915" x2="131.547" y2="162.257" gradientUnits="userSpaceOnUse">
<stop stop-color="#EF3B23"/>
<stop offset="1" stop-color="#8B131E"/>
</linearGradient>
<linearGradient id="paint1_linear_69_177" x1="1.59077" y1="104.17" x2="171.213" y2="104.17" gradientUnits="userSpaceOnUse">
<stop stop-color="#B7212F"/>
<stop offset="1" stop-color="#EF3B23"/>
</linearGradient>
</defs>
</svg>
