<svg width="679" height="136" viewBox="0 0 679 136" fill="none" xmlns="http://www.w3.org/2000/svg">
<path d="M184.052 66.9415C187.662 67.7345 190.069 68.924 191.673 69.717C193.678 71.303 194.882 73.682 194.882 76.061C194.882 78.8365 193.678 81.2155 191.673 82.8015C188.865 85.1805 184.854 85.9735 179.64 85.9735H160.388V84.784C161.992 84.784 163.196 84.7841 163.998 84.3876C164.8 83.991 165.201 83.5946 165.201 83.198C165.602 82.8015 165.602 81.612 165.602 79.6295V55.8394C165.602 53.8569 165.602 52.6674 165.201 52.2709C164.8 51.8744 164.399 51.4779 163.998 51.0814C163.196 50.6849 162.394 50.6849 160.388 50.6849V49.4954H178.036C182.448 49.4954 185.256 49.8919 187.261 50.6849C188.865 51.4779 190.47 52.6674 191.272 53.8569C192.475 55.4429 192.876 57.0289 192.876 58.615C192.876 60.201 192.074 61.787 190.871 63.373C189.668 64.959 187.261 66.1485 184.052 66.9415ZM174.025 66.1485C176.432 66.1485 178.437 65.752 179.64 65.3555C180.844 64.959 181.646 63.7695 182.448 62.9765C183.25 61.787 183.25 60.5975 183.25 59.0115C183.25 57.4254 182.849 56.2359 182.448 55.0464C181.646 53.8569 180.844 53.0639 179.64 52.6674C178.437 52.2709 176.432 51.8744 174.025 51.8744C174.025 51.8744 174.025 66.1485 174.025 66.1485ZM174.025 68.5275V80.4225V81.612C174.025 82.405 174.426 83.198 174.827 83.991C175.228 84.3875 176.031 84.784 177.234 84.784C178.838 84.784 180.041 84.3875 181.245 83.991C182.448 83.198 183.25 82.405 184.052 81.2155C184.854 80.026 184.854 78.8365 184.854 77.2505C184.854 75.6645 184.453 74.0785 183.651 72.4925C182.849 71.303 181.646 70.1135 180.443 69.717C179.239 68.5275 176.833 68.5275 174.025 68.5275ZM212.53 82.8015C209.321 85.577 206.513 86.7666 204.107 86.7666C202.502 86.7666 201.299 86.3701 200.497 85.1806C199.695 84.3876 198.893 83.198 198.893 81.612C198.893 79.6295 199.695 78.0435 201.299 76.4575C202.903 74.8715 206.513 72.889 212.129 70.1135V67.7345C212.129 65.752 212.129 64.5625 211.727 64.166C211.326 63.7695 210.925 63.373 210.524 62.9765C210.123 62.58 209.321 62.58 208.519 62.58C207.315 62.58 206.513 62.9765 205.711 63.373C205.31 63.7695 204.909 64.166 204.909 64.5625C204.909 64.959 205.31 65.3555 205.711 66.1485C206.513 66.9415 206.914 67.7345 206.914 68.5275C206.914 69.3205 206.513 70.1135 206.112 70.9065C205.31 71.6995 204.508 71.6995 203.305 71.6995C202.101 71.6995 201.299 71.303 200.497 70.51C199.695 69.717 199.294 68.924 199.294 68.131C199.294 66.9415 199.695 65.752 200.898 64.5625C202.101 63.373 203.305 62.58 205.31 61.787C207.315 60.994 208.92 60.994 210.925 60.994C213.332 60.994 215.337 61.3905 216.541 62.58C218.145 63.7695 218.947 64.5625 219.348 65.752C219.749 66.545 219.749 68.131 219.749 70.9065V80.819C219.749 82.0085 219.749 82.8015 219.749 83.198C219.749 83.5946 220.15 83.5945 220.15 83.991C220.15 83.991 220.551 84.3876 220.952 84.3876C221.354 84.3876 221.755 83.9911 222.557 83.198L223.359 83.991C222.557 85.1805 221.354 86.3701 220.551 86.7666C219.749 87.5596 218.546 87.5596 217.343 87.5596C215.738 87.5596 214.936 87.1631 213.733 86.3701C213.332 85.1806 212.931 83.991 212.53 82.8015ZM212.53 80.819V72.4925C210.123 73.682 208.519 75.268 207.717 76.4575C206.914 77.2505 206.513 78.44 206.513 79.233C206.513 80.026 206.914 80.819 207.315 81.612C207.717 82.0085 208.519 82.405 209.321 82.405C210.524 82.405 211.326 81.612 212.53 80.819ZM236.996 60.994V64.166C238.199 62.58 239.403 61.787 240.606 60.994C241.809 60.201 243.012 60.201 244.617 60.201C246.221 60.201 247.825 60.5975 248.628 61.3905C249.831 62.1835 250.633 63.373 250.633 64.959C251.034 66.1485 251.034 68.131 251.034 70.9065V80.819C251.034 82.8015 251.034 83.991 251.435 84.3876C251.836 84.7841 252.639 85.1806 253.842 85.1806V85.9735H241.408V85.1806C242.21 85.1806 243.012 84.784 243.413 83.991C243.815 83.5945 243.815 82.405 243.815 80.819V69.717C243.815 67.7345 243.815 66.1485 243.413 65.752C243.413 65.3555 243.012 64.959 242.611 64.5625C242.21 64.166 241.809 64.166 241.408 64.166C239.804 64.166 238.199 65.3555 236.996 67.338V80.819C236.996 82.8015 236.996 83.991 237.397 84.3876C237.798 84.7841 238.6 85.1806 239.403 85.1806V85.9735H226.568V85.1806C227.771 85.1806 228.573 84.784 228.974 83.991C229.375 83.5945 229.375 82.405 229.375 80.4225V66.1485C229.375 64.166 229.375 62.9765 228.974 62.58C228.573 62.1835 227.771 61.787 226.568 61.787V60.5975C226.568 60.994 236.996 60.994 236.996 60.994ZM268.281 49.8919V74.0785L274.297 68.131C275.501 66.9415 276.303 66.1485 276.704 65.752C277.105 65.3555 277.105 64.5625 277.105 64.166C277.105 63.7695 277.105 63.373 276.704 62.9765C276.303 62.58 275.501 62.58 274.297 62.1835V60.994H285.528V62.1835C284.325 62.1835 283.522 62.58 282.72 62.9765C281.918 63.373 280.314 64.959 277.907 66.9415L275.099 69.717L281.116 78.44C283.522 82.0085 285.127 83.991 285.528 84.3876C286.33 85.1806 286.731 85.1806 287.934 85.5771V86.3701H274.698V85.5771C275.099 85.5771 275.501 85.5771 275.902 85.1806C276.303 84.7841 276.303 84.7841 276.303 84.3876C276.303 83.991 275.902 83.198 275.099 82.0085L269.885 74.475L268.281 76.061V80.4225C268.281 82.405 268.281 83.5945 268.682 83.991C269.083 84.3875 269.885 84.784 271.089 84.784V85.5771H257.853V84.784C259.056 84.784 259.858 84.3875 260.259 83.5945C260.66 83.198 260.66 82.0085 260.66 80.026V54.2534C260.66 52.2709 260.66 51.0814 260.259 50.6849C259.858 50.2884 259.056 49.8919 257.853 49.8919V48.7024C257.853 49.8919 268.281 49.8919 268.281 49.8919ZM315.208 60.201C317.615 60.201 319.62 60.5975 321.626 61.787C323.631 62.9765 324.835 64.5625 326.038 66.545C326.84 68.5275 327.642 70.9065 327.642 73.2855C327.642 76.854 326.84 80.026 324.835 82.405C322.428 85.1806 319.62 86.7666 315.609 86.7666C311.599 86.7666 308.791 85.577 306.786 82.8015C304.78 80.026 303.577 76.854 303.577 73.682C303.577 70.1135 304.78 66.9415 306.786 64.166C308.39 61.787 311.599 60.201 315.208 60.201ZM315.208 62.1835C314.406 62.1835 313.604 62.58 312.802 63.373C312 64.166 311.599 65.3555 311.599 67.338C311.197 69.3205 311.197 72.096 311.197 76.061C311.197 78.0435 311.197 79.6295 311.599 81.612C312 82.8015 312.401 83.991 312.802 84.3876C313.604 85.1806 314.005 85.5771 315.208 85.5771C316.011 85.5771 316.813 85.1805 317.214 84.784C318.016 83.991 318.417 83.198 318.818 82.0085C319.219 80.4225 319.219 76.854 319.219 71.6995C319.219 68.5275 319.219 66.545 318.818 65.3555C318.417 64.166 318.016 63.373 317.214 62.9765C316.813 62.58 316.011 62.1835 315.208 62.1835ZM342.482 63.7695V81.2155C342.482 82.8015 342.482 83.991 342.884 84.3876C343.285 85.1806 344.488 85.1806 346.092 85.1806V85.9735H330.851V85.1806C332.054 85.1806 332.856 85.1805 333.257 84.784C333.658 84.3875 334.06 84.3875 334.06 83.5945C334.06 83.198 334.461 82.405 334.461 80.819V63.373H330.851V60.5975H334.461V58.615V57.4255C334.461 54.6499 335.263 52.6674 337.268 51.0814C339.274 49.4954 341.68 48.3059 345.29 48.3059C347.697 48.3059 349.301 48.7024 350.103 49.4954C351.306 50.2884 351.707 51.0814 351.707 52.2709C351.707 53.0639 351.306 53.8569 350.504 54.2534C349.702 54.6499 348.9 55.0464 347.697 55.0464C346.894 55.0464 346.092 54.6499 345.29 54.2534C344.889 53.8569 344.488 53.0639 344.488 52.6674C344.488 52.6674 344.488 52.2709 344.488 51.4779C344.488 51.0814 344.488 50.6849 344.488 50.6849C344.488 50.2884 344.488 49.8919 344.087 49.8919C343.686 49.4954 343.285 49.4954 342.884 49.4954C342.482 49.4954 342.081 49.8919 341.68 50.2884C341.279 50.6849 341.279 51.4779 341.279 52.2709V57.0289V60.201H344.889V62.9765C346.092 63.7695 342.482 63.7695 342.482 63.7695ZM388.608 74.0785L398.635 49.8919H413.876V51.0814H412.673C411.47 51.0814 410.668 51.0814 409.865 51.4779C409.464 51.8744 409.063 52.2709 408.662 52.6674C408.662 53.0639 408.261 54.2534 408.261 56.2359V80.4225C408.261 82.405 408.261 83.5945 408.662 83.991C409.063 84.3875 409.464 84.7841 409.865 85.1806C410.668 85.5771 411.47 85.5771 412.272 85.5771H413.876V86.7666H394.624V85.5771H395.827C397.031 85.5771 397.833 85.5771 398.635 85.1806C399.036 84.7841 399.437 84.3875 399.838 83.991C399.838 83.5945 400.239 82.405 400.239 80.4225V53.0639L385.8 86.7666H384.998L370.559 53.4604V79.233C370.559 81.2155 370.559 82.0085 370.559 82.405C370.96 83.198 371.361 83.991 372.163 84.784C372.965 85.1805 374.168 85.5771 375.773 85.5771V86.7666H362.938V85.5771H363.339C364.141 85.5771 364.943 85.5771 365.746 85.1806C366.548 84.7841 366.949 84.3875 367.35 83.991C367.751 83.5945 368.152 82.8015 368.152 82.0085C368.152 81.612 368.152 80.819 368.152 79.233V55.8394C368.152 53.8569 368.152 52.6674 367.751 52.2709C367.35 51.8744 366.949 51.4779 366.548 51.0814C365.746 50.6849 364.943 50.6849 364.141 50.6849H362.938V49.4954H378.179C378.179 49.8919 388.608 74.0785 388.608 74.0785ZM431.123 82.8015C427.914 85.577 425.107 86.7666 422.7 86.7666C421.096 86.7666 419.893 86.3701 419.09 85.1806C418.288 84.3876 417.486 83.198 417.486 81.612C417.486 79.6295 418.288 78.0435 419.893 76.4575C421.497 74.8715 425.107 72.889 430.722 70.1135V67.7345C430.722 65.752 430.722 64.5625 430.321 64.166C429.92 63.7695 429.519 63.373 429.118 62.9765C428.717 62.58 427.914 62.58 427.112 62.58C425.909 62.58 425.107 62.9765 424.305 63.373C423.903 63.7695 423.502 64.166 423.502 64.5625C423.502 64.959 423.903 65.3555 424.305 66.1485C425.107 66.9415 425.508 67.7345 425.508 68.5275C425.508 69.3205 425.107 70.1135 424.706 70.9065C423.903 71.6995 423.101 71.6995 421.898 71.6995C420.695 71.6995 419.893 71.303 419.09 70.51C418.288 69.717 417.887 68.924 417.887 68.131C417.887 66.9415 418.288 65.752 419.491 64.5625C420.695 63.373 421.898 62.58 423.903 61.787C425.909 60.994 427.513 60.994 429.519 60.994C431.925 60.994 433.931 61.3905 435.134 62.58C436.738 63.7695 437.54 64.5625 437.942 65.752C438.343 66.545 438.343 68.131 438.343 70.9065V80.819C438.343 82.0085 438.343 82.8015 438.343 83.198C438.343 83.5946 438.744 83.5945 438.744 83.991C438.744 83.991 439.145 84.3876 439.546 84.3876C439.947 84.3876 440.348 83.9911 441.15 83.198L441.952 83.991C441.15 85.1805 439.947 86.3701 439.145 86.7666C438.343 87.5596 437.139 87.5596 435.936 87.5596C434.332 87.5596 433.53 87.1631 432.326 86.3701C431.925 85.1806 431.123 83.991 431.123 82.8015ZM431.123 80.819V72.4925C428.717 73.682 427.112 75.268 426.31 76.4575C425.508 77.2505 425.107 78.44 425.107 79.233C425.107 80.026 425.508 80.819 425.909 81.612C426.31 82.0085 427.112 82.405 427.914 82.405C428.717 82.405 429.92 81.612 431.123 80.819ZM455.589 49.8919V64.5625C457.194 62.9765 458.397 62.1835 459.6 61.3905C460.804 60.5975 462.007 60.5975 463.21 60.5975C464.815 60.5975 466.018 60.994 467.221 61.787C468.424 62.58 469.226 63.7695 469.628 64.959C470.029 66.1485 470.029 68.131 470.029 71.303V81.2155C470.029 83.198 470.029 84.3875 470.43 84.784C470.831 85.1805 471.633 85.5771 472.836 85.5771V86.3701H460.001V85.5771C460.804 85.5771 461.606 85.1806 462.007 84.3876C462.408 83.991 462.408 82.8015 462.408 80.819V69.717C462.408 67.7345 462.408 66.1485 462.007 65.752C462.007 65.3555 461.606 64.959 461.205 64.5625C460.804 64.166 460.403 64.166 460.001 64.166C459.199 64.166 458.397 64.5625 457.996 64.959C457.194 65.3555 456.392 66.1485 455.589 67.7345V81.2155C455.589 83.198 455.589 83.991 455.991 84.784C456.392 85.577 457.194 85.9735 457.996 85.9735V86.7666H445.161V85.9735C446.364 85.9735 447.167 85.577 447.568 84.784C447.969 84.3875 447.969 83.198 447.969 81.2155V55.4429C447.969 53.4604 447.969 52.2709 447.568 51.8744C447.167 51.4779 446.364 51.0814 445.161 51.0814V49.8919H455.589ZM490.484 82.8015C487.275 85.577 484.468 86.7666 482.061 86.7666C480.457 86.7666 479.254 86.3701 478.452 85.1806C477.649 84.3876 476.847 83.198 476.847 81.612C476.847 79.6295 477.649 78.0435 479.254 76.4575C480.858 74.8715 484.468 72.889 490.083 70.1135V67.7345C490.083 65.752 490.083 64.5625 489.682 64.166C489.281 63.7695 488.88 63.373 488.479 62.9765C488.078 62.58 487.275 62.58 486.473 62.58C485.27 62.58 484.468 62.9765 483.666 63.373C483.265 63.7695 482.863 64.166 482.863 64.5625C482.863 64.959 483.265 65.3555 483.666 66.1485C484.468 66.9415 484.869 67.7345 484.869 68.5275C484.869 69.3205 484.468 70.1135 484.067 70.9065C483.265 71.6995 482.462 71.6995 481.259 71.6995C480.056 71.6995 479.254 71.303 478.452 70.51C477.649 69.717 477.248 68.924 477.248 68.131C477.248 66.9415 477.649 65.752 478.853 64.5625C480.056 63.373 481.259 62.58 483.265 61.787C485.27 60.994 486.874 60.994 488.88 60.994C491.286 60.994 493.292 61.3905 494.495 62.58C496.099 63.7695 496.902 64.5625 497.303 65.752C497.704 66.545 497.704 68.131 497.704 70.9065V80.819C497.704 82.0085 497.704 82.8015 497.704 83.198C497.704 83.5946 498.105 83.5945 498.105 83.991C498.105 83.991 498.506 84.3876 498.907 84.3876C499.308 84.3876 499.709 83.9911 500.511 83.198L501.314 83.991C500.511 85.1805 499.308 86.3701 498.506 86.7666C497.704 87.5596 496.501 87.5596 495.297 87.5596C493.693 87.5596 492.891 87.1631 491.687 86.3701C490.885 85.1806 490.484 83.991 490.484 82.8015ZM490.484 80.819V72.4925C488.078 73.682 486.473 75.268 485.671 76.4575C484.869 77.2505 484.468 78.44 484.468 79.233C484.468 80.026 484.869 80.819 485.27 81.612C485.671 82.0085 486.473 82.405 487.275 82.405C488.078 82.405 489.281 81.612 490.484 80.819ZM514.951 60.994V66.545C516.555 63.7695 518.159 62.1835 519.363 61.3905C520.566 60.5975 521.769 60.201 522.972 60.201C524.176 60.201 524.978 60.5975 525.379 60.994C526.181 61.787 526.181 62.58 526.181 63.7695C526.181 64.959 525.78 65.752 525.379 66.545C524.978 67.338 524.176 67.7345 523.373 67.7345C522.571 67.7345 521.769 67.338 520.967 66.9415C520.165 66.1485 519.764 66.1485 519.764 65.752C519.764 65.752 519.363 65.752 518.961 65.752C518.56 65.752 517.758 65.752 517.357 66.545C516.555 67.338 516.154 68.131 515.753 69.3205C515.352 70.9065 514.951 72.889 514.951 75.268V81.2155V82.8015C514.951 83.991 514.951 84.3875 514.951 84.784C515.352 85.1805 515.352 85.577 515.753 85.9735C516.154 86.37 516.956 86.3701 517.758 86.3701V87.1631H503.72V86.3701C504.923 86.3701 505.726 85.9736 506.127 85.5771C506.528 85.1806 506.528 83.5945 506.528 81.612V67.7345C506.528 66.1485 506.528 65.3555 506.127 64.959C506.127 64.5625 505.726 64.166 505.324 63.7695C504.923 63.373 504.522 63.373 503.319 63.373V62.1835C504.522 60.994 514.951 60.994 514.951 60.994ZM543.428 82.8015C540.219 85.577 537.412 86.7666 535.005 86.7666C533.401 86.7666 532.197 86.3701 531.395 85.1806C530.593 84.3876 529.791 83.198 529.791 81.612C529.791 79.6295 530.593 78.0435 532.197 76.4575C533.802 74.8715 537.412 72.889 543.027 70.1135V67.7345C543.027 65.752 543.027 64.5625 542.626 64.166C542.225 63.7695 541.824 63.373 541.422 62.9765C541.021 62.58 540.219 62.58 539.417 62.58C538.214 62.58 537.412 62.9765 536.609 63.373C536.208 63.7695 535.807 64.166 535.807 64.5625C535.807 64.959 536.208 65.3555 536.609 66.1485C537.412 66.9415 537.813 67.7345 537.813 68.5275C537.813 69.3205 537.412 70.1135 537.01 70.9065C536.208 71.6995 535.406 71.6995 534.203 71.6995C533 71.6995 532.197 71.303 531.395 70.51C530.593 69.717 530.192 68.924 530.192 68.131C530.192 66.9415 530.593 65.752 531.796 64.5625C533 63.373 534.203 62.58 536.208 61.787C538.214 60.994 539.818 60.994 541.824 60.994C544.23 60.994 546.236 61.3905 547.439 62.58C549.043 63.7695 549.845 64.5625 550.246 65.752C550.648 66.545 550.648 68.131 550.648 70.9065V80.819C550.648 82.0085 550.648 82.8015 550.648 83.198C550.648 83.5946 551.049 83.5945 551.049 83.991C551.049 83.991 551.45 84.3876 551.851 84.3876C552.252 84.3876 552.653 83.9911 553.455 83.198L554.257 83.991C553.455 85.1805 552.252 86.3701 551.45 86.7666C550.648 87.5596 549.444 87.5596 548.241 87.5596C546.637 87.5596 545.834 87.1631 544.631 86.3701C544.23 85.1806 543.428 83.991 543.428 82.8015ZM543.428 80.819V72.4925C541.021 73.682 539.417 75.268 538.615 76.4575C537.813 77.2505 537.412 78.44 537.412 79.233C537.412 80.026 537.813 80.819 538.214 81.612C538.615 82.0085 539.417 82.405 540.219 82.405C541.021 82.405 542.225 81.612 543.428 80.819ZM573.51 60.5975L573.911 69.3205H573.108C571.905 66.9415 570.702 64.959 569.499 64.166C568.295 63.373 567.092 62.58 565.889 62.58C565.087 62.58 564.686 62.9765 563.883 63.373C563.482 63.7695 563.081 64.5625 563.081 64.959C563.081 65.3555 563.081 65.752 563.482 66.545C563.883 67.338 565.889 68.5275 568.295 70.51C571.103 72.4925 572.707 73.682 573.51 75.268C574.312 76.4575 574.713 78.0435 574.713 79.6295C574.713 81.2155 574.312 82.405 573.51 83.5945C572.707 84.784 571.905 85.9736 570.301 86.7666C569.098 87.5596 567.493 87.9561 565.889 87.9561C564.686 87.9561 563.081 87.5596 561.076 86.7666C560.675 86.3701 560.274 86.3701 559.873 86.3701C559.471 86.3701 558.669 86.7666 558.268 87.5596L557.867 78.44H558.669C559.471 80.819 560.675 82.8015 561.878 83.991C563.081 85.1805 564.686 85.9735 565.889 85.9735C566.691 85.9735 567.493 85.5771 567.894 85.1806C568.295 84.7841 568.697 83.9911 568.697 83.198C568.697 82.405 568.295 81.612 567.894 80.819C567.493 80.026 566.29 79.233 564.285 78.0435C561.477 76.061 559.873 74.475 558.669 73.682C557.466 72.096 556.664 70.51 556.664 68.924C556.664 66.9415 557.466 65.3555 558.669 63.7695C559.873 62.1835 561.878 61.3905 564.686 61.3905C565.889 61.3905 567.493 61.787 568.697 62.58C569.098 62.9765 569.499 62.9765 569.9 62.9765C570.301 62.9765 570.702 62.9765 570.702 62.58C571.103 62.58 571.103 62.1835 571.504 61.3905C572.707 60.5975 573.51 60.5975 573.51 60.5975ZM589.553 49.8919V64.5625C591.158 62.9765 592.361 62.1835 593.564 61.3905C594.767 60.5975 595.971 60.5975 597.174 60.5975C598.778 60.5975 599.981 60.994 601.185 61.787C602.388 62.58 603.19 63.7695 603.591 64.959C603.992 66.1485 603.992 68.131 603.992 71.303V81.2155C603.992 83.198 603.992 84.3875 604.393 84.784C604.795 85.1805 605.597 85.5771 606.8 85.5771V86.3701H593.965V85.5771C594.767 85.5771 595.569 85.1806 595.971 84.3876C596.372 83.991 596.372 82.8015 596.372 80.819V69.717C596.372 67.7345 596.372 66.1485 595.971 65.752C595.971 65.3555 595.569 64.959 595.168 64.5625C594.767 64.166 594.366 64.166 593.965 64.166C593.163 64.166 592.361 64.5625 591.96 64.959C591.158 65.3555 590.355 66.1485 589.553 67.7345V81.2155C589.553 83.198 589.553 83.991 589.954 84.784C590.355 85.577 591.158 85.9735 591.96 85.9735V86.7666H579.125V85.9735C580.328 85.9735 581.13 85.577 581.531 84.784C581.932 84.3875 581.932 83.198 581.932 81.2155V55.4429C581.932 53.4604 581.932 52.2709 581.531 51.8744C581.13 51.4779 580.328 51.0814 579.125 51.0814V49.8919C579.125 49.8919 589.553 49.8919 589.553 49.8919ZM620.437 51.8744V60.994H626.453V63.7695H620.437V79.233C620.437 80.819 620.437 81.612 620.838 82.0085C620.838 82.405 621.239 82.8015 621.64 83.198C622.041 83.5946 622.442 83.5945 622.442 83.5945C623.646 83.5945 624.849 82.8015 625.651 80.819L626.453 81.612C624.849 85.1806 622.442 86.7666 619.234 86.7666C617.629 86.7666 616.426 86.3701 615.223 85.5771C614.02 84.784 613.217 83.5945 613.217 82.405C613.217 81.612 612.816 80.026 612.816 77.2505V63.373H609.608V62.58C612.014 60.994 614.02 59.408 615.624 57.4255C617.228 55.8394 618.833 53.8569 620.036 51.4779C619.635 51.8744 620.437 51.8744 620.437 51.8744ZM639.689 60.994V66.545C641.294 63.7695 642.898 62.1835 644.101 61.3905C645.304 60.5975 646.508 60.201 647.711 60.201C648.914 60.201 649.716 60.5975 650.118 60.994C650.92 61.787 650.92 62.58 650.92 63.7695C650.92 64.959 650.519 65.752 650.118 66.545C649.716 67.338 648.914 67.7345 648.112 67.7345C647.31 67.7345 646.508 67.338 645.706 66.9415C644.903 66.1485 644.502 66.1485 644.502 65.752C644.502 65.752 644.101 65.752 643.7 65.752C643.299 65.752 642.497 65.752 642.096 66.545C641.294 67.338 640.893 68.131 640.491 69.3205C640.09 70.9065 639.689 72.889 639.689 75.268V81.2155V82.8015C639.689 83.991 639.689 84.3875 639.689 84.784C640.09 85.1805 640.09 85.577 640.491 85.9735C640.893 86.37 641.695 86.3701 642.497 86.3701V87.1631H628.459V86.3701C629.662 86.3701 630.464 85.9736 630.865 85.5771C631.266 85.1806 631.266 83.5945 631.266 81.612V67.7345C631.266 66.1485 631.266 65.3555 630.865 64.959C630.865 64.5625 630.464 64.166 630.063 63.7695C629.662 63.373 629.261 63.373 628.058 63.373V62.1835C629.261 60.994 639.689 60.994 639.689 60.994ZM668.167 82.8015C664.958 85.577 662.15 86.7666 659.744 86.7666C658.139 86.7666 656.936 86.3701 656.134 85.1806C655.332 84.3876 654.53 83.198 654.53 81.612C654.53 79.6295 655.332 78.0435 656.936 76.4575C658.54 74.8715 662.15 72.889 667.765 70.1135V67.7345C667.765 65.752 667.765 64.5625 667.364 64.166C666.963 63.7695 666.562 63.373 666.161 62.9765C665.76 62.58 664.958 62.58 664.156 62.58C662.952 62.58 662.15 62.9765 661.348 63.373C660.947 63.7695 660.546 64.166 660.546 64.5625C660.546 64.959 660.947 65.3555 661.348 66.1485C662.15 66.9415 662.551 67.7345 662.551 68.5275C662.551 69.3205 662.15 70.1135 661.749 70.9065C660.947 71.6995 660.145 71.6995 658.942 71.6995C657.738 71.6995 656.936 71.303 656.134 70.51C655.332 69.717 654.931 68.924 654.931 68.131C654.931 66.9415 655.332 65.752 656.535 64.5625C657.738 63.373 658.942 62.58 660.947 61.787C662.952 60.994 664.557 60.994 666.562 60.994C668.969 60.994 670.974 61.3905 672.177 62.58C673.782 63.7695 674.584 64.5625 674.985 65.752C675.386 66.545 675.386 68.131 675.386 70.9065V80.819C675.386 82.0085 675.386 82.8015 675.386 83.198C675.386 83.5946 675.787 83.5945 675.787 83.991C675.787 83.991 676.188 84.3876 676.589 84.3876C676.991 84.3876 677.392 83.9911 678.194 83.198L678.996 83.991C678.194 85.1805 676.99 86.3701 676.188 86.7666C675.386 87.5596 674.183 87.5596 672.98 87.5596C671.375 87.5596 670.573 87.1631 669.37 86.3701C668.969 85.1806 668.167 83.991 668.167 82.8015ZM668.167 80.819V72.4925C665.76 73.682 664.156 75.268 663.353 76.4575C662.551 77.2505 662.15 78.44 662.15 79.233C662.15 80.026 662.551 80.819 662.952 81.612C663.354 82.0085 664.156 82.405 664.958 82.405C665.76 82.405 666.963 81.612 668.167 80.819Z" fill="#0E88D3"/>
<path fill-rule="evenodd" clip-rule="evenodd" d="M69.016 0.0991392C107.119 0.0991392 137.602 30.6298 137.602 67.9009C137.602 105.569 106.718 135.703 69.016 135.703C30.9126 135.703 0.429802 105.172 0.429802 67.9009C0.429802 30.6298 31.3136 0.0991392 69.016 0.0991392Z" fill="white"/>
<path fill-rule="evenodd" clip-rule="evenodd" d="M122.662 25.7726C132.288 37.2711 137.903 52.3382 137.903 68.1983C137.903 84.4548 132.288 98.7289 122.662 110.624V107.452C131.085 95.9534 135.898 82.8688 135.898 68.1983C135.898 53.5277 131.085 40.0466 122.662 28.9446V25.7726ZM122.662 91.9883L123.464 92.3848L125.469 91.1953L122.662 90.0058V91.9883ZM122.662 86.0408C124.667 86.4373 127.475 84.4548 127.475 81.6793L125.87 82.0758C125.068 83.6618 124.266 84.8513 122.662 84.4548V86.0408ZM122.662 80.0933L123.464 80.4898L125.068 78.9038C122.662 75.3353 123.063 72.1633 124.266 71.7668C125.87 71.3703 127.074 74.1458 127.074 76.9213L129.079 75.7318C128.277 72.5598 126.673 70.5773 124.266 70.5773C123.865 70.5773 123.464 70.9738 122.662 70.9738C122.662 71.3703 122.662 80.0933 122.662 80.0933ZM122.662 68.1983H128.277L129.48 66.2157H122.662C122.662 66.2157 122.662 68.1983 122.662 68.1983ZM122.662 60.2682H126.271L127.074 58.2857L122.261 58.6822V60.2682H122.662ZM122.662 55.5102H126.271L127.074 53.5277H122.261V55.5102H122.662ZM111.431 14.6706C115.442 17.8426 119.052 21.8076 122.662 25.7726V28.9446C119.453 24.5831 115.843 20.6181 111.431 17.4461V14.6706ZM122.662 110.227C119.453 114.192 115.442 118.157 111.431 121.329V118.95C115.442 115.382 119.453 111.417 122.662 107.055C122.662 107.055 122.662 110.227 122.662 110.227ZM122.662 53.5277V55.5102H118.25L119.453 53.5277H122.662ZM122.662 58.2857V60.2682H118.25L119.854 58.2857C119.453 58.2857 122.662 58.2857 122.662 58.2857ZM122.662 66.2157C122.662 66.2157 122.662 68.1983 122.662 68.1983H120.255C120.255 70.1808 119.854 72.1633 119.854 73.7493H121.458C121.458 72.9563 121.859 72.1633 122.662 71.7668V80.0933C121.458 82.0758 121.057 83.2653 122.261 84.0583H122.662V86.0408C121.859 85.6443 121.057 85.2478 120.656 84.0583C119.854 82.0758 120.656 79.6968 122.261 77.3178L121.859 75.3353H119.854C119.453 79.3003 118.25 83.2653 116.645 87.2303L123.063 90.0058V91.9883L115.843 88.8163C115.442 89.6093 115.041 90.7988 114.239 91.9883C117.447 91.1953 122.261 92.7813 121.057 97.9359C120.656 100.315 117.849 102.297 115.843 101.108C113.036 99.9184 113.036 96.7464 116.244 94.7639C116.645 95.1604 116.645 95.5569 117.046 96.3499C115.041 97.9359 115.041 99.9184 116.645 99.5219C118.25 99.1254 120.656 96.3499 117.447 93.5744C116.645 92.7814 114.64 92.7813 113.036 93.1778C112.634 93.9708 112.233 94.7639 111.431 95.5569V93.5744C116.244 86.0408 119.052 76.9213 118.651 67.4052C118.651 66.2157 118.651 65.0262 118.25 63.4402H119.854C119.854 64.2332 119.854 65.0262 119.854 65.4227C120.255 66.2157 122.662 66.2157 122.662 66.2157ZM111.431 114.192H112.634V112.606H111.431V114.192ZM111.431 105.866V103.09C112.233 103.09 113.036 103.487 113.036 104.676C113.036 105.073 112.233 105.866 111.431 105.866ZM111.431 82.8688C113.036 78.5073 113.838 73.3528 113.838 68.1983C113.838 63.0437 113.036 58.2857 111.431 53.5277V61.8542C111.832 63.8367 111.832 66.2157 111.832 68.1983C111.832 70.1808 111.431 72.9563 111.431 74.5423V82.8688ZM111.431 49.9592V47.9767C111.832 49.5627 113.036 49.9592 115.843 49.9592V50.7522C113.838 51.1487 112.634 50.3557 111.431 49.9592ZM111.431 47.1837V42.0292L116.645 32.9096L111.431 33.7026V32.5131L121.057 30.9271L112.233 44.8047C112.233 45.5977 111.431 46.3907 111.431 47.1837ZM111.431 23.7901L113.036 21.0146C112.634 21.4111 112.233 21.4111 111.431 21.4111C111.431 21.4111 111.431 23.7901 111.431 23.7901ZM96.1898 5.55103C101.404 7.93003 107.019 11.102 111.431 14.6706V17.4461C107.019 13.4811 101.404 10.309 96.1898 7.93003V5.55103ZM111.431 121.329C107.019 124.898 101.404 128.07 96.1898 130.449V128.466C101.404 126.087 107.019 122.519 111.431 118.95V121.329ZM111.431 21.4111C111.431 21.4111 111.431 23.7901 111.431 23.7901L107.019 33.3061L111.431 32.5131V33.7026L103.409 34.8921L108.624 23.7901C105.014 25.7726 100.201 27.7551 96.1898 27.7551V26.5656C101.003 26.1691 106.618 23.7901 111.431 21.4111ZM111.431 42.0292V47.1837C111.431 47.5802 111.431 47.5802 111.431 47.9767V49.9592C109.426 48.3732 109.025 45.9942 110.228 44.0117L111.431 42.0292ZM111.431 53.5277C108.624 45.2012 103.008 38.0641 96.1898 32.9096V35.2886C104.212 41.6327 109.827 51.1487 111.431 61.8542C111.431 61.4577 111.431 53.5277 111.431 53.5277ZM111.431 74.5423V82.8688C108.624 91.1953 103.008 98.3324 96.1898 103.883V101.108C104.212 94.3673 109.827 85.2478 111.431 74.5423ZM111.431 94.3673C107.42 100.315 102.206 105.469 96.1898 109.434V111.02C98.9974 109.434 101.805 107.055 104.212 105.073L105.415 106.659C101.805 107.848 99.7996 110.624 101.805 112.606C102.607 113.399 105.816 112.21 107.019 111.02C108.222 109.434 109.827 110.227 108.624 111.813C107.821 113.399 106.217 113.796 104.212 114.589V115.382L107.019 114.985L106.217 116.571H107.821L108.624 114.985L111.832 114.589V113.003H109.827C111.431 111.417 111.832 109.434 110.228 108.245C108.624 107.055 107.019 108.641 105.816 110.227C103.81 111.813 103.008 109.831 104.212 109.038C105.415 108.245 107.019 107.055 108.222 106.262L106.217 103.487C108.222 101.504 110.228 99.1254 112.233 96.3499C111.431 95.9534 111.431 94.3673 111.431 94.3673ZM111.431 103.09C110.629 103.09 109.827 103.487 109.827 104.676C109.827 105.469 110.228 106.262 111.431 106.262V103.09ZM96.1898 116.968L97.7941 120.14H99.7996L96.1898 113.003V116.968ZM96.1898 91.9883V90.4023H100.201V47.9767H96.1898V45.9942H101.805V91.9883H96.1898ZM96.1898 86.4373C96.992 85.6443 97.393 84.8513 97.393 83.6618C97.393 82.4723 96.992 81.6793 96.1898 81.2828C96.1898 81.6793 96.1898 86.4373 96.1898 86.4373ZM96.1898 80.8863C96.5909 80.4898 96.9919 80.0933 96.9919 78.9038C96.9919 78.1108 96.5909 77.3178 96.1898 76.9213V80.8863ZM96.1898 70.1808V56.3032H96.9919L98.1952 58.6822H96.5909L96.1898 70.1808ZM96.1898 54.7172V51.5452C96.992 51.5452 97.7941 52.3382 97.7941 53.1312C97.7941 54.3207 96.992 54.7172 96.1898 54.7172ZM92.1789 4.36152C93.3822 4.75803 94.9865 5.15452 96.1898 5.94752V7.93003C94.5854 7.53353 93.3822 7.13703 92.1789 6.34403V4.36152ZM96.1898 130.449C94.5854 130.845 93.3822 131.242 92.1789 132.035V130.052C93.3822 129.656 94.9865 128.863 96.1898 128.466V130.449ZM96.1898 26.5656V27.7551C94.5854 27.7551 93.3822 27.7551 92.1789 27.3586V26.1691C93.3822 26.5656 94.9865 26.5656 96.1898 26.5656ZM96.1898 32.9096V35.2886C94.5854 34.4956 93.3822 33.3061 92.1789 32.5131V30.1341C93.3822 30.9271 94.9865 31.7201 96.1898 32.9096ZM92.1789 45.9942H96.1898V47.9767H92.1789V45.9942ZM96.1898 51.5452V54.7172C95.3876 54.7172 94.5854 53.9242 94.5854 53.1312C94.5854 52.3382 95.3876 51.5452 96.1898 51.5452ZM96.1898 56.3032H95.7887C94.1843 55.1137 93.7832 53.5277 92.58 51.9417V53.9242C92.9811 54.7172 93.7832 55.5102 94.5854 56.3032H93.3822C92.9811 55.9067 92.58 55.5102 92.1789 55.1137V59.0787H94.1843V61.8542C93.7832 61.0612 92.9811 60.6647 92.1789 60.2682V61.8542C92.9811 61.8542 93.7832 62.2507 93.7832 62.6472C93.7832 62.6472 93.7832 62.6472 94.1843 62.6472V63.8367C93.7832 64.2332 93.3821 64.6297 92.9811 64.6297L92.1789 63.4402V66.6122C92.9811 66.2157 93.7832 65.8192 94.1843 65.4227V68.5948L96.1898 69.7843C96.1898 70.1808 96.1898 56.3032 96.1898 56.3032ZM96.1898 76.5248V80.4898C96.1898 80.8863 95.7887 80.8863 95.7887 81.2828C96.1898 81.2828 96.1898 81.2828 96.5909 81.6793V86.8338C95.7887 87.6268 94.9865 87.6268 92.9811 87.6268H92.1789V85.6443H92.9811C94.1843 85.6443 94.5854 84.8513 94.5854 83.6618C94.5854 82.8688 93.7832 82.0758 92.9811 82.0758H92.1789V80.0933H92.9811C93.7832 80.0933 94.5854 79.6968 94.5854 78.9038C94.5854 78.1108 93.7832 77.7143 92.9811 77.7143H92.1789V75.7318H93.3822C94.9865 75.7318 95.7887 76.1283 96.1898 76.5248ZM92.1789 90.0058H96.1898V91.9883H92.1789V90.0058ZM96.1898 101.108V103.883C94.5854 104.676 93.3822 105.866 92.1789 106.659V104.28C93.7832 103.09 94.9865 102.297 96.1898 101.108ZM96.1898 109.434V111.02C95.7887 111.02 95.7887 111.417 95.3876 111.417L96.1898 113.003V116.968L95.7887 116.175L92.58 117.761V115.778L95.3876 114.192L94.1843 112.21C93.7832 112.606 93.3822 112.606 92.58 113.003V111.417C93.3822 111.02 94.9865 110.227 96.1898 109.434ZM91.3767 3.56852C91.7778 3.96502 91.7778 3.96501 92.1789 3.96501V5.94752C91.7778 5.94752 91.3767 5.94753 91.3767 5.55103V3.56852ZM92.1789 132.035C91.7778 132.035 91.3767 132.035 91.3767 132.431V130.449C91.7778 130.449 91.7778 130.052 92.1789 130.052V132.035ZM92.1789 26.1691V27.3586C91.7778 27.3586 91.3767 26.9621 91.3767 26.9621V25.7726C91.3767 25.7726 91.7778 26.1691 92.1789 26.1691ZM92.1789 29.7376V32.1166C91.7778 31.7201 91.3767 31.7201 91.3767 31.7201V29.3411C91.3767 29.7376 91.7778 29.7376 92.1789 29.7376ZM91.3767 45.9942H92.1789V47.9767H91.3767V45.9942ZM92.1789 51.9417V53.9242C91.7778 53.5277 91.3767 53.1312 91.3767 53.1312V51.5452C91.3767 51.5452 91.7778 51.5452 92.1789 51.9417ZM92.1789 55.1137V59.0787H91.3767V56.3032V54.3207C91.3767 54.7172 91.7778 54.7172 92.1789 55.1137ZM92.1789 60.2682V61.8542C91.7778 61.8542 91.3767 62.2507 91.3767 62.2507V60.6647C91.3767 60.2682 91.7778 60.2682 92.1789 60.2682ZM92.1789 63.4402V66.6122C91.7778 66.6122 91.3767 66.6122 91.3767 66.6122V65.0262H91.7778L91.3767 64.6297V61.8542L92.1789 63.4402ZM91.3767 75.7318H92.1789V77.7143H91.3767V75.7318ZM91.3767 80.0933H92.1789V82.0758H91.3767V80.0933ZM91.3767 85.6443H92.1789V87.6268H91.3767V85.6443ZM91.3767 90.0058H92.1789V91.9883H91.3767V90.0058ZM92.1789 103.883V106.262C91.7778 106.659 91.3767 106.659 91.3767 106.659V104.28C91.3767 104.28 91.7778 103.883 92.1789 103.883ZM92.1789 111.813V113.399C91.7778 113.796 91.3767 113.796 91.3767 113.796V112.21C91.3767 111.813 91.7778 111.813 92.1789 111.813ZM92.1789 115.778V117.761L91.7778 118.157C92.1789 119.743 91.7778 121.726 91.3767 122.915V116.175L92.1789 115.778ZM90.1734 3.56852C90.5745 3.56852 90.9756 3.96501 91.3767 3.96501V5.94752C90.9756 5.94752 90.5745 5.55103 90.1734 5.55103V3.56852ZM91.3767 132.431C90.9756 132.431 90.5745 132.828 90.1734 132.828V130.845C90.5745 130.449 90.9756 130.449 91.3767 130.449C91.3767 130.052 91.3767 132.431 91.3767 132.431ZM91.3767 25.7726V26.9621C90.9756 26.5656 90.5745 26.5656 90.1734 26.1691V25.3761C90.5745 25.7726 90.9756 25.7726 91.3767 25.7726ZM91.3767 29.3411V31.7201C90.9756 31.3236 90.5745 31.3236 90.1734 30.9271V28.5481C90.5745 28.9446 90.9756 29.3411 91.3767 29.3411ZM90.1734 45.9942H91.3767V47.9767H90.1734V45.9942ZM91.3767 51.1487V52.7347C90.9756 52.3382 90.5745 52.3382 90.5745 51.9417C90.1734 51.9417 90.1734 51.5452 90.1734 51.5452V49.9592C90.5745 49.9592 90.5745 50.3557 90.5745 50.3557C90.5745 50.7522 90.9756 51.1487 91.3767 51.1487ZM91.3767 54.3207V56.3032L90.1734 55.5102V53.9242C90.5745 53.9242 90.9756 54.3207 91.3767 54.3207ZM90.1734 56.3032H91.3767V59.0787H90.1734V56.3032ZM91.3767 60.2682V64.6297L90.1734 63.0437V60.2682C90.5745 60.2682 90.5745 60.2682 90.9756 60.2682C90.9756 60.2682 90.9756 60.2682 91.3767 60.2682ZM91.3767 65.0262V66.6122C90.9756 66.6122 90.5745 66.6122 90.1734 66.2157V64.6297C90.5745 65.0262 90.5745 65.0262 91.3767 65.0262ZM90.1734 75.7318H91.3767V77.7143H90.1734V75.7318ZM90.1734 80.0933H91.3767V82.0758H90.1734V80.0933ZM90.1734 85.6443H91.3767V87.6268H90.1734V85.6443ZM90.1734 90.0058H91.3767V91.9883H90.1734V90.0058ZM91.3767 104.28V106.659C90.9756 107.055 90.5745 107.055 90.1734 107.452V105.073C90.5745 104.676 90.9756 104.676 91.3767 104.28ZM91.3767 112.21V113.796C90.9756 113.796 90.5745 114.192 90.1734 114.192V112.606C90.5745 112.606 90.9756 112.21 91.3767 112.21ZM91.3767 116.175V122.915C90.9756 123.312 90.5745 123.708 90.1734 124.105V114.589L90.9756 116.175C90.5745 116.175 91.3767 116.175 91.3767 116.175ZM88.168 3.17201C88.5691 3.17201 89.3713 3.56852 89.7724 3.56852V5.55103C89.3713 5.15452 88.5691 5.15452 88.168 4.75802V3.17201ZM90.1734 132.431C89.7724 132.828 88.9702 132.828 88.5691 133.225V131.242C88.9702 130.845 89.7724 130.845 90.1734 130.845C90.1734 130.845 90.1734 132.431 90.1734 132.431ZM90.1734 25.3761V26.1691C90.1734 26.1691 90.1734 26.1691 90.1734 25.7726V25.3761C90.1734 24.9796 90.1734 24.9796 90.1734 25.3761ZM90.1734 28.5481V30.9271C89.7724 30.5306 88.9702 30.1341 88.5691 30.1341V28.1516C88.9702 28.1516 89.3713 28.5481 90.1734 28.5481ZM88.168 45.9942H89.7724V47.9767H88.168V45.9942ZM90.1734 50.3557V51.9417C89.7724 51.5452 89.3713 51.5452 88.5691 51.5452H88.168V49.9592C88.9702 49.9592 89.3713 49.9592 90.1734 50.3557ZM90.1734 53.5277V55.1137L88.5691 54.3207H88.168V52.7347C88.9702 52.7347 89.3713 53.1312 90.1734 53.5277ZM88.168 56.3032H89.7724V59.0787H88.168V56.3032ZM90.1734 60.2682V63.0437L89.7724 62.2507C88.9702 63.0437 88.5691 63.8367 88.9702 64.2332C89.3713 64.6297 89.3713 64.6297 89.7724 64.6297V66.2157C88.9702 66.2157 88.5691 65.8192 88.168 65.4227V60.6647C88.9702 60.6647 89.3713 60.2682 90.1734 60.2682ZM88.168 75.7318H89.7724V87.6268H88.168V75.7318ZM88.168 90.0058H89.7724V91.9883H88.168V90.0058ZM90.1734 105.073V107.452C89.3713 107.848 88.9702 107.848 88.168 108.245V105.866C88.9702 105.866 89.3713 105.469 90.1734 105.073ZM90.1734 112.606V114.192C90.1734 114.192 90.1734 114.192 89.7724 114.192L90.1734 114.589V124.105C89.7724 124.501 88.9702 124.501 88.5691 124.501V123.312C90.1734 123.708 90.5745 121.329 89.7724 119.347C89.3713 119.347 88.9702 119.743 88.5691 119.743V117.761C88.9702 117.364 88.9702 117.364 88.9702 117.364L88.5691 116.175V114.192C88.9702 113.003 89.3713 113.003 90.1734 112.606ZM69.3168 -1.05189e-06C75.7342 -1.05189e-06 82.5528 0.793005 88.5691 2.77551V4.75802C82.5528 3.17201 76.1353 1.98251 69.3168 1.98251V-1.05189e-06ZM88.168 133.225C82.1517 134.811 75.7342 136 68.9157 136V134.017C75.3331 134.017 82.1517 133.225 88.168 131.242V133.225ZM88.168 28.1516V30.1341C82.1517 27.3586 75.7342 25.7726 68.9157 25.7726V23.7901C75.7342 23.7901 82.5528 24.9796 88.168 28.1516ZM88.168 45.9942H82.5528V90.0058H79.7451V87.2303H77.3386L76.5364 85.6443V80.4898C77.3386 79.6968 77.7397 80.0933 78.5419 78.1108L78.9429 76.5248C79.7451 76.9213 79.7451 76.1283 79.7451 74.9388H77.7397C77.7397 76.9213 76.1353 77.7143 74.9321 77.7143V74.1458C75.7342 73.7493 76.1353 73.7493 76.9375 72.5598L77.7397 71.3703C78.1408 70.9738 78.5419 70.9738 78.5419 70.5773V69.7843H76.5364L76.1353 71.3703H73.7288V68.9913C74.9321 68.1983 76.5364 67.4053 76.9375 65.8193C77.3386 65.8193 78.1408 65.0262 78.5419 65.0262V63.4402H76.5364L75.7342 64.6297C75.3332 65.4227 72.9266 65.4227 73.3277 65.4227V62.6472C74.531 62.2507 75.7342 61.4577 76.1353 60.6647L77.3386 60.2682V58.2857H75.3331C75.3331 59.0787 74.9321 59.8717 74.1299 60.2682C73.7288 60.2682 73.3277 60.2682 72.9266 60.2682V57.8892C74.1299 57.0962 75.7342 56.6997 75.7342 55.1137L76.9375 54.7172V53.1312H74.531C74.531 53.5277 73.7288 54.3207 73.7288 54.7172H72.5255V52.7347C73.7288 51.9417 74.531 51.1487 74.531 49.5627L76.1353 49.1662V47.5802H74.1299C73.7288 49.5627 72.5255 49.5627 72.1244 49.5627V47.5802C73.3277 46.7872 73.3277 46.7872 74.531 45.5977C75.3332 45.2012 76.1353 42.8222 75.3331 43.2187H74.1299C73.3277 43.2187 73.3277 44.4082 72.9266 44.8047C72.5255 44.8047 72.1244 45.2012 71.3223 45.2012V43.2187C72.5255 42.8222 74.1299 42.0292 74.1299 40.4432H74.9321C74.9321 40.0467 74.9321 39.6502 75.3331 39.2537C74.531 39.2537 73.7288 39.2537 73.3277 39.2537C73.3277 40.0467 72.5255 40.4431 71.7234 40.8396C70.9212 40.0466 70.5201 40.0466 70.119 38.8571C70.119 37.2711 71.7234 35.6851 70.5201 33.7026V32.5131C70.5201 30.5306 69.7179 30.5306 68.9157 29.7376V91.9883H88.168V90.4023H83.756V47.9767H88.168V45.9942ZM88.168 49.5627V51.1487H86.9647L86.1626 49.5627H88.168ZM88.168 52.7347V54.3207H86.9647L85.7615 52.3382C86.5636 52.3382 86.9647 52.3382 87.7669 52.3382C88.168 52.3382 88.168 52.3382 88.168 52.7347ZM88.168 56.3032V59.0787H86.9647L86.1626 56.3032H88.168ZM88.168 61.0612V65.8193C87.3658 65.0262 86.9647 64.2332 86.9647 63.4402C86.9647 62.6472 87.3658 61.4577 88.168 61.0612ZM87.7669 75.7318H88.168V87.6268H87.7669V75.7318ZM88.168 105.866V108.245C82.1517 111.02 75.7342 112.21 68.9157 112.21V110.227C75.7342 110.624 82.5528 109.038 88.168 105.866ZM88.168 113.399V115.382L87.7669 114.985C82.1517 116.968 76.5364 118.157 70.119 118.157V121.329C72.1244 120.536 74.1299 119.743 75.7342 119.743C78.943 119.743 79.7451 121.726 78.9429 124.105C78.1408 126.087 74.9321 126.087 72.9266 125.691C73.3277 125.294 73.3277 124.501 73.7288 123.708C75.7342 124.501 78.5419 123.708 78.1408 122.122C77.3386 120.536 74.531 121.329 72.9266 122.519C72.1244 122.915 71.3223 123.312 70.5201 123.708V127.673L69.3168 126.88V116.968C75.7342 117.364 82.1517 115.778 88.168 113.399ZM88.168 117.364C83.756 119.347 84.1571 122.915 86.9647 124.105C87.3658 124.105 87.7669 124.501 88.168 124.501V123.312C87.7669 123.312 87.3658 122.915 87.3658 122.915C85.7615 122.122 86.1626 120.14 88.168 119.347V117.364ZM69.3168 15.8601L73.7288 8.72303L77.7397 20.6181C78.943 24.1866 83.756 25.3761 86.5636 21.0146L85.7615 20.6181C82.9538 23.7901 80.9484 23.7901 79.7451 19.8251L74.9321 4.36152L68.9157 13.8776C69.3168 13.8776 69.3168 15.8601 69.3168 15.8601ZM69.3168 136C61.295 136 53.2733 134.414 46.0537 132.035V130.052C53.2733 132.828 61.295 134.414 69.3168 134.414V136ZM45.6526 4.36152C52.8722 1.58601 60.8939 0.396509 68.9157 0.396509V2.37902C60.8939 2.37902 52.8722 3.96502 45.6526 6.34403V4.36152ZM69.3168 13.8776L67.3114 16.6531L62.0972 4.36152C59.2896 11.8951 57.6852 21.8076 50.0646 24.5831L50.8667 24.9796C56.0809 24.1866 59.6907 15.4636 61.6961 9.11953L66.5092 20.2216L69.3168 15.8601C69.3168 15.8601 69.3168 13.8776 69.3168 13.8776ZM69.3168 23.7901V25.7726C60.8939 25.7726 52.8722 28.5481 46.0537 32.9096V30.5306C52.4711 26.1691 60.4929 23.7901 69.3168 23.7901ZM69.3168 29.7376C68.9157 29.3411 68.9157 28.9446 68.9157 28.1516C68.5146 27.7551 68.1136 27.3586 67.7125 27.7551C66.1081 28.9446 64.5037 27.7551 64.9048 31.7201L65.707 33.7026C63.7016 35.2886 64.5037 36.4781 64.9048 38.4606C64.9048 38.8571 64.9048 39.2537 64.9048 40.0467L64.5037 40.8396C63.7016 40.4431 62.8994 40.0466 62.8994 38.8571C62.0972 38.8571 61.6961 38.8571 60.894 38.8571C60.894 39.2536 60.8939 39.6502 61.295 40.0467H62.0972C62.4983 41.6327 63.3005 42.8222 64.5037 42.8222V44.8047C64.1027 44.8047 63.7016 44.8047 63.7016 44.8047C63.3005 44.0117 62.8994 42.8222 62.0972 42.8222H61.295C60.4929 42.8222 61.295 44.4082 62.0972 44.8047C62.4983 45.9942 63.3005 46.3907 64.5037 46.7872V48.7697C63.7016 49.1662 62.4983 49.1662 62.0972 46.7872H60.4929V48.3732L61.6961 48.7697C62.0972 50.3557 62.8994 51.1487 64.1027 51.9417V53.5277L63.3005 53.9242C62.8994 53.5277 62.4983 52.7347 62.4983 52.3382H60.4929V53.9242H61.295C61.6961 55.5102 62.4983 56.6997 64.1027 57.0962V60.2682C63.7016 60.2682 63.3005 60.2682 62.8994 60.2682C62.0972 59.8717 62.0972 59.4752 62.0972 58.6822H60.0918V60.2682L60.894 60.6647C61.6961 61.4577 62.4983 62.6472 63.7016 63.0437L64.1027 65.8193C64.1027 65.8193 62.0972 66.2158 62.0972 65.0262V63.8367H60.0918C60.0918 64.2332 60.0918 64.6297 60.0918 65.4227C60.4929 65.4227 60.4929 65.8193 60.894 65.8193C61.6961 67.4053 62.4983 68.5948 63.7016 69.3878L63.3005 71.7668H62.0972L61.6961 70.1808H59.2896V70.9738C59.6907 71.3703 60.0918 71.7668 60.4929 71.7668L60.894 72.5598C61.6961 74.1458 62.4983 74.5423 63.3005 74.5423V78.1108C62.4983 78.1108 61.295 77.3178 60.894 75.7318H59.2896V77.3178L60.0918 77.7143C60.4929 79.6968 61.6961 80.8863 62.8994 81.6793V86.8338L61.6961 88.4198H59.6907V90.7988H55.6798V46.7872H45.6526V48.7697H54.0754V91.1953H45.6526V91.9883H68.9157C69.3168 91.9883 69.3168 29.7376 69.3168 29.7376ZM69.3168 110.624V112.606C60.8939 112.606 52.8722 110.227 46.0537 106.262V104.28C52.4711 107.848 60.4929 110.624 69.3168 110.624ZM69.3168 117.364C64.9048 117.364 60.4929 116.571 56.482 115.778L56.0809 114.192H54.4765C52.8722 111.417 51.2678 109.831 48.8613 109.434V111.02C50.8667 111.02 51.6689 112.606 52.4711 114.589C50.4656 113.796 48.0591 113.003 46.0537 111.813V113.399C46.8558 113.796 47.2569 114.192 47.658 114.192L47.2569 115.778L46.0537 115.382V116.968C48.4602 116.968 49.6635 117.761 49.2624 118.95C48.8613 120.14 47.658 120.536 46.0537 120.14V122.122C48.4602 121.726 50.0645 120.933 50.4656 119.347C50.8667 117.761 50.0646 116.571 48.8613 116.175L49.2624 114.985C50.8667 115.382 52.07 116.175 53.6744 116.571L51.6689 123.708L52.4711 125.691L55.6798 116.968C60.0918 118.157 64.5037 118.554 68.9157 118.554L69.3168 122.519C64.9048 124.105 62.0972 124.105 61.6961 122.915C61.295 121.726 63.3005 120.933 66.1081 122.122C66.5092 121.726 66.9103 121.329 67.3114 120.933C65.3059 119.743 63.3005 119.743 61.295 120.536C58.4874 121.726 59.2896 123.708 60.894 124.898C63.3005 126.087 66.1081 125.691 68.9157 124.501V126.484L69.3168 126.88C69.3168 127.277 69.3168 117.364 69.3168 117.364ZM45.6526 87.6268V83.6618L46.0537 85.2478L48.0591 75.7318H51.2678V87.6268H49.2624V77.7143L47.658 87.6268H45.6526ZM45.6526 64.6297V62.2507H48.0591V59.0787H45.6526V56.6997H51.2678L52.07 59.0787H50.4656V71.3703L48.4602 69.7843V64.6297C48.0591 64.6297 45.6526 64.6297 45.6526 64.6297ZM45.6526 28.5481C46.4547 27.3586 46.8558 25.7726 46.4547 23.7901H45.6526V28.5481ZM45.6526 132.035C41.6417 130.449 38.0319 128.863 34.4221 126.88V124.501C38.0319 126.484 42.0428 128.466 45.6526 130.052C45.6526 129.656 45.6526 132.035 45.6526 132.035ZM34.4221 9.51604C38.0319 7.53353 42.0428 5.55103 45.6526 4.36152V6.34403C41.6417 7.93004 38.0319 9.51603 34.4221 11.895V9.51604ZM45.6526 23.7901V28.5481C44.4493 30.1341 42.4439 30.9271 40.0373 30.1341L34.021 27.3586V24.5831L40.4384 27.7551C44.4493 29.3411 46.4547 28.1516 45.6526 23.7901ZM45.6526 30.1341C41.2406 32.9096 37.2297 36.0816 34.4221 40.0467V43.2187C37.6308 39.2537 41.6417 35.2886 45.6526 32.5131C45.6526 32.5131 45.6526 30.1341 45.6526 30.1341ZM45.6526 45.9942V47.9767H37.6308V90.4023H45.6526V91.9883H36.0264V45.9942H45.6526ZM45.6526 56.6997H39.6362L40.4384 59.0787H41.6417V62.2507C39.6362 62.6472 39.6362 63.4402 40.8395 65.4227C41.2406 66.2157 42.4439 67.0088 43.6471 67.0088C44.4493 66.2158 44.0482 65.4227 44.0482 64.2332H46.0537V61.8542H44.0482V58.6822H46.0537C45.6526 59.0787 45.6526 56.6997 45.6526 56.6997ZM45.6526 83.2653L44.0482 75.7318H40.4384V87.6268H42.845V77.7143L44.8504 87.6268H45.6526C45.6526 87.6268 45.6526 83.2653 45.6526 83.2653ZM45.6526 103.883V105.866C41.2406 103.09 37.2297 99.9184 34.4221 95.9534V92.7813C37.6308 97.1429 41.6417 101.108 45.6526 103.883ZM45.6526 111.417V113.003C45.2515 113.003 44.8504 112.606 44.4493 112.606L45.2515 111.417C45.6526 111.417 45.6526 111.417 45.6526 111.417ZM45.6526 114.985H44.8504C43.246 112.606 41.6417 111.02 39.2351 111.02C37.2297 111.02 35.2243 113.003 37.6308 117.761L39.2351 116.968C37.6308 115.382 37.2297 113.796 38.433 113.003C39.2351 111.813 40.8395 112.606 42.4439 114.985L42.0428 115.382L42.4439 116.968C43.6471 116.571 44.8504 116.571 45.6526 116.571C45.6526 116.571 45.6526 114.985 45.6526 114.985ZM45.6526 120.14V122.122C45.2515 122.122 44.8504 122.122 44.0482 121.726V119.743C44.4493 119.743 45.2515 120.14 45.6526 120.14ZM34.4221 100.315C35.2243 100.315 36.0264 99.5219 36.0264 98.7289C36.0264 97.9359 35.2243 97.1429 34.4221 97.1429C34.4221 97.5394 34.4221 100.315 34.4221 100.315ZM34.4221 126.484C34.021 126.087 34.021 126.087 33.6199 126.087V123.708C34.021 124.105 34.021 124.105 34.4221 124.105V126.484ZM33.6199 9.91254C34.021 9.91254 34.021 9.51604 34.4221 9.51604V11.895C34.021 12.2915 34.021 12.2916 33.6199 12.2916V9.91254ZM34.4221 24.1866V26.9621L33.6199 26.5656V23.7901L34.4221 24.1866ZM34.4221 40.0467V43.2187C34.021 43.6152 34.021 44.0117 33.6199 44.4082V41.2362C34.021 40.8397 34.021 40.0467 34.4221 40.0467ZM34.4221 93.1778V95.9534C34.021 95.5569 34.021 95.1604 33.6199 95.1604V91.9883C34.021 92.3848 34.021 92.3848 34.4221 93.1778ZM34.4221 97.5394V100.315C34.021 100.315 34.021 99.9184 33.6199 99.9184V97.5394C34.021 97.5394 34.021 97.5394 34.4221 97.5394ZM33.6199 103.883V102.297C34.021 102.694 34.021 102.694 34.4221 103.09C34.4221 103.09 33.6199 103.883 33.6199 103.883ZM33.6199 126.087C32.0155 125.294 30.8123 124.105 29.2079 123.312V120.933C30.8123 121.726 32.0155 122.915 33.6199 123.708V126.087ZM29.2079 12.688C30.8123 11.895 32.0155 10.7055 33.6199 9.91254V12.2916C32.0155 13.0846 30.8123 14.274 29.2079 15.0671V12.688ZM33.6199 24.1866V26.9621L29.2079 24.9796V22.2041L33.6199 24.1866ZM33.6199 40.8396V44.4082C32.0155 47.1837 30.4112 49.5627 29.2079 52.3382V47.9767C30.4112 45.2012 32.0155 43.2187 33.6199 40.8396ZM33.6199 91.9883V95.1604C32.0155 93.1778 30.4112 90.7988 29.2079 88.4198V84.0583C30.4112 86.8338 32.0155 89.2128 33.6199 91.9883ZM33.6199 97.9359V100.315C33.2188 99.9184 32.8177 99.5219 32.8177 99.1254C32.8177 98.3324 33.2188 97.9359 33.6199 97.9359ZM33.6199 102.297C32.0155 100.711 30.4112 99.1254 29.2079 97.1429V98.7289L30.8123 100.711L29.2079 101.901V104.28L32.0156 102.297C32.4166 102.694 32.8177 103.09 33.6199 103.883L34.021 103.487C33.6199 103.883 33.6199 102.297 33.6199 102.297ZM29.2079 36.4781V33.7026L30.0101 34.0991L29.2079 30.9271V26.9621L32.0156 37.2711L29.2079 36.4781ZM29.2079 123.312C25.9992 120.933 22.7905 118.157 19.5818 114.985V112.21C22.3894 115.382 25.9992 118.157 29.2079 120.933V123.312ZM19.5818 21.0146C22.7905 18.2391 25.9992 15.0671 29.2079 12.688V15.0671C25.9992 17.8426 22.3894 20.6181 19.5818 23.7901C19.5818 23.7901 19.5818 21.0146 19.5818 21.0146ZM29.2079 21.8076L25.9992 20.2216L29.2079 30.9271V26.9621L28.4057 24.1866L29.2079 24.5831V21.8076ZM29.2079 34.0991V36.4781L20.384 33.3061C23.9938 39.2537 28.0047 47.5802 24.7959 51.9417L23.9938 52.3382C26.4003 46.7872 23.1916 40.4432 19.5818 34.4956V30.9271C19.5818 30.5306 29.2079 34.0991 29.2079 34.0991ZM29.2079 47.5802C25.9992 53.5277 23.9938 60.6647 23.9938 67.8018C23.9938 75.3353 25.9992 82.0758 29.2079 88.0233V83.6618C27.2025 78.5073 25.9992 73.3528 25.9992 67.8018C25.9992 62.2507 27.2025 57.0962 29.2079 51.9417C29.2079 52.3382 29.2079 47.5802 29.2079 47.5802ZM29.2079 97.1429V98.7289L27.6036 96.7464C26.8014 99.9184 25.197 100.711 22.3894 99.1254C22.3894 101.504 24.7959 102.694 27.6036 103.09L29.2079 101.901V104.28L24.7959 107.848L24.3949 105.866L25.9992 104.28C19.9829 102.694 19.9829 99.5219 21.5872 95.9534C23.5927 98.7289 25.5981 98.3324 25.9992 94.7639C24.796 93.1779 23.9938 91.1953 22.7905 89.2128L19.5818 90.4023V84.8513C20.384 85.6443 20.384 86.8338 21.1861 88.0233L22.3894 87.6268C21.5872 85.2478 20.384 82.8688 19.5818 80.4898V72.9563C19.9829 77.3178 21.1861 81.2828 22.7905 85.2478C23.9938 83.6618 24.3949 82.0758 23.5927 80.4898L25.197 79.6968C25.9992 81.6793 25.5981 84.0583 24.3949 86.8338L25.197 88.4198L24.7959 88.8163C25.5981 91.9883 27.2025 94.7639 29.2079 97.1429ZM19.5818 114.985C18.7796 114.192 17.9774 113.399 17.1753 112.21V109.038C17.9774 109.831 18.7796 111.02 19.5818 111.813C19.5818 112.21 19.5818 114.985 19.5818 114.985ZM17.1753 23.7901C17.9774 22.9971 18.7796 22.2041 19.5818 21.0146C19.5818 21.0146 19.5818 23.7901 19.5818 23.7901C18.7796 24.5831 17.9774 25.7726 17.1753 26.5656C17.1753 26.9621 17.1753 23.7901 17.1753 23.7901ZM19.5818 30.5306V34.0991C18.7796 32.5131 17.9774 30.9271 17.1753 29.3411C17.1753 29.7376 19.5818 30.5306 19.5818 30.5306ZM19.5818 73.3528V80.8863C19.5818 80.4898 19.1807 80.0933 19.1807 79.3003L17.1753 79.6968V77.7143L19.1807 77.3178L18.7796 74.1458L17.1753 74.5423V72.5598L17.9774 72.1633C17.9774 70.9738 17.9774 69.7843 17.9774 68.1983H19.1807C19.1807 69.7843 19.5818 71.7668 19.5818 73.3528ZM19.5818 85.2478V90.7988L19.1807 91.1953C18.7796 88.4198 17.9774 86.4373 17.1753 85.6443V83.6618C17.9774 83.6618 19.1807 84.4548 19.5818 85.2478ZM17.1753 92.3848L17.9774 91.1953C17.5764 90.7988 17.5763 90.4023 17.1753 90.4023V92.3848ZM17.1753 60.6647V58.6822H19.5818L18.7796 60.6647H17.1753ZM17.1753 56.3032V54.3207H19.5818L18.7796 56.3032H17.1753ZM17.1753 112.606C15.1698 110.227 13.1644 107.452 11.1589 105.073V101.108C12.7633 103.883 14.7687 107.055 17.1753 109.434V112.606ZM11.1589 31.3236C13.1644 28.5481 15.1698 26.1691 17.1753 23.7901V26.9621C15.1698 29.7376 13.1644 32.5131 11.1589 35.2886V31.3236ZM17.1753 29.7376V56.3032H11.1589V54.7172L11.56 53.9242H16.7742C17.1753 54.3207 17.1753 29.7376 17.1753 29.7376ZM17.1753 58.6822V60.6647H11.1589V59.0787L11.56 58.6822C11.9611 58.6822 17.1753 58.6822 17.1753 58.6822ZM17.1753 72.1633V74.1458H15.1698L15.5709 77.7143L17.1753 77.3178V79.3003L11.1589 80.0933V78.5073L13.1644 78.1108L12.7633 74.5423C12.3622 74.5423 11.56 74.1458 11.1589 74.1458V72.1633C11.56 72.1633 11.56 72.1633 11.56 72.1633C12.3622 71.7668 12.3622 71.3703 12.3622 70.5773C11.9611 69.7843 11.56 69.3878 11.1589 69.3878V67.4052C12.7633 67.0087 14.3676 68.1982 15.1698 72.5598C15.1698 72.1633 17.1753 72.1633 17.1753 72.1633ZM17.1753 83.2653V85.2478C16.7742 84.8513 16.7742 84.8513 16.3731 84.8513C14.3676 84.8513 14.3676 87.6268 15.5709 88.8163C16.3731 89.2128 16.7742 89.2128 17.1753 89.6093V91.5918L16.7742 91.9883L14.7687 91.5918L12.7633 92.7813C12.3622 93.1779 11.9611 93.1778 11.56 93.1778V90.4023L11.9611 90.0058L12.7633 90.7988L13.5655 90.0058L11.56 88.8163V86.8338L13.1644 88.0233C12.7633 84.8513 13.5655 82.8688 15.972 82.8688C16.3731 83.2653 16.7742 83.2653 17.1753 83.2653ZM11.1589 104.676C4.34041 93.9709 0.329529 81.2828 0.329529 67.8018C0.329529 54.3207 4.34041 41.6327 11.1589 30.9271V34.8921C5.54368 44.4082 2.33497 55.9067 2.33497 67.8018C2.33497 79.6968 5.54368 91.1953 11.1589 100.711V104.676ZM11.1589 54.7172L10.3567 56.3032H11.1589V54.7172ZM11.1589 59.0787L10.3567 60.6647H11.1589V59.0787ZM11.1589 67.0088C9.95566 67.4053 8.75239 68.5948 8.75239 70.5773C8.75239 72.1633 9.55457 73.3528 11.1589 74.1458V72.1633C10.7578 72.1633 10.3567 71.7668 10.3567 70.9738C9.95566 70.1808 10.3567 69.3878 11.1589 69.3878C11.1589 68.9913 11.56 68.9913 11.56 69.3878V67.0088H11.1589ZM11.1589 78.5073H10.3567C9.95566 77.3178 9.55457 76.1283 8.75239 74.9388L7.95022 75.3353C9.55457 78.1108 8.3513 80.0933 6.74695 78.5073C5.14259 76.9213 6.34586 74.1458 6.74695 72.1633L5.94477 71.7668C4.74151 74.5423 3.93933 76.9213 5.94477 79.6968C7.54913 81.6793 8.75239 81.2828 10.3567 80.0933L11.1589 79.6968V78.5073ZM11.1589 87.6268L9.55457 86.8338L8.75239 88.0233L11.1589 89.6093C11.1589 89.2128 11.1589 87.6268 11.1589 87.6268ZM11.1589 91.1953L9.55457 92.3848L10.3567 93.1778C10.7578 93.5743 10.7578 93.5744 11.1589 93.5744V91.1953Z" fill="#0E88D3"/>
</svg>
