<svg width="679" height="170" viewBox="0 0 679 170" fill="none" xmlns="http://www.w3.org/2000/svg">
<path d="M666.771 145.926H665.863C662.413 145.926 659.961 146.561 658.326 147.832C656.783 149.102 655.966 151.008 655.966 153.73C655.966 155.092 656.238 156.181 656.874 156.907C657.418 157.723 658.236 158.086 659.325 158.086C661.232 158.086 662.776 157.088 664.047 155.092C665.228 152.914 666.136 149.919 666.771 145.926ZM664.229 160.355C662.957 161.807 661.595 162.805 660.143 163.531C658.69 164.257 657.055 164.53 655.239 164.53C652.424 164.53 650.063 163.622 648.247 161.898C646.431 160.174 645.614 157.905 645.614 155.182C645.614 149.828 647.067 145.926 649.972 143.566C652.878 141.207 657.691 140.027 664.32 140.027C665.318 140.027 666.045 140.027 666.59 140.027C667.134 140.027 667.588 140.027 668.042 140.118C668.224 138.938 668.406 138.031 668.496 137.305C668.587 136.579 668.587 136.034 668.587 135.671C668.587 134.401 668.315 133.402 667.679 132.767C667.044 132.132 666.136 131.86 664.955 131.86C663.684 131.86 662.685 132.223 661.868 133.039C661.141 133.856 660.597 135.036 660.324 136.579H650.063C650.517 132.858 651.879 130.135 654.24 128.411C656.601 126.687 660.052 125.87 664.683 125.87C669.495 125.87 673.037 126.687 675.307 128.23C677.577 129.863 678.666 132.404 678.666 135.853C678.666 136.76 678.576 137.668 678.485 138.757C678.303 139.846 678.122 140.935 677.849 142.114L674.762 156.453C674.49 157.723 674.308 158.994 674.126 160.264C673.945 161.535 673.854 162.715 673.672 164.076H663.684L664.229 160.355ZM629.451 160.627C628.452 162.079 627.272 163.259 625.91 163.894C624.547 164.62 622.913 164.893 620.915 164.893C617.737 164.893 615.376 164.076 613.833 162.533C612.289 160.99 611.472 158.54 611.472 155.273C611.472 154.003 611.653 152.369 611.926 150.373C612.198 148.376 612.561 146.198 613.106 143.839C613.651 141.298 614.287 139.12 614.922 137.214C615.558 135.308 616.194 133.765 616.92 132.586C618.191 130.408 619.644 128.774 621.279 127.776C622.913 126.778 624.911 126.233 627.181 126.233C629.088 126.233 630.722 126.596 632.084 127.322C633.446 128.048 634.718 129.319 635.807 131.043L640.257 110.533H650.79L640.62 158.086C640.438 158.812 640.347 159.72 640.166 160.718C639.984 161.716 639.893 162.805 639.712 163.985H628.906L629.451 160.627ZM630.268 133.221C629.088 133.221 628.18 133.584 627.453 134.219C626.727 134.854 626.091 136.125 625.546 137.849C624.638 140.844 623.821 143.748 623.276 146.743C622.731 149.647 622.459 152.006 622.459 153.821C622.459 155.182 622.731 156.181 623.367 156.907C623.912 157.633 624.82 157.905 626 157.905C626.999 157.905 627.816 157.542 628.543 156.907C629.269 156.271 629.996 155.182 630.631 153.821C630.995 153.004 631.267 151.915 631.63 150.554C631.993 149.193 632.357 147.559 632.72 145.654C633.083 143.748 633.355 142.114 633.537 140.753C633.719 139.392 633.809 138.303 633.809 137.486C633.809 136.034 633.446 135.036 632.901 134.31C632.266 133.584 631.358 133.221 630.268 133.221ZM595.672 132.404C594.491 132.404 593.583 132.767 592.857 133.402C592.131 134.038 591.495 135.127 590.95 136.579C590.769 137.032 590.587 137.668 590.315 138.666C590.042 139.664 589.86 140.662 589.588 141.933C589.406 142.659 589.225 143.657 588.952 145.018C587.863 150.01 587.318 153.095 587.318 154.184C587.318 155.636 587.59 156.816 588.226 157.542C588.862 158.268 589.77 158.722 591.041 158.722C592.221 158.722 593.129 158.359 593.947 157.723C594.764 157.088 595.4 155.999 595.944 154.547C596.217 153.73 596.58 152.551 596.943 150.917C597.306 149.284 597.76 147.469 598.214 145.472C598.578 143.566 598.941 141.933 599.122 140.481C599.304 139.029 599.395 137.849 599.395 136.942C599.395 135.49 599.122 134.401 598.487 133.675C597.851 132.767 596.943 132.404 595.672 132.404ZM577.057 152.641C577.057 151.462 577.148 150.1 577.42 148.558C577.602 147.015 577.965 145.2 578.419 143.294C578.964 140.935 579.509 138.847 580.145 137.032C580.78 135.217 581.507 133.765 582.142 132.767C583.686 130.408 585.502 128.683 587.681 127.594C589.861 126.505 592.585 125.961 595.944 125.961C600.485 125.961 603.935 127.05 606.296 129.137C608.657 131.224 609.837 134.401 609.837 138.394C609.837 139.664 609.746 141.025 609.565 142.477C609.383 144.02 609.111 145.654 608.657 147.469C608.112 149.828 607.567 151.825 606.932 153.64C606.296 155.455 605.57 156.997 604.843 158.086C603.39 160.446 601.483 162.17 599.395 163.259C597.216 164.348 594.491 164.893 591.132 164.893C586.592 164.893 583.141 163.804 580.78 161.716C578.238 159.72 577.057 156.634 577.057 152.641ZM552.268 164.167L558.442 135.036C558.715 133.675 558.987 132.223 559.26 130.861C559.532 129.5 559.714 128.139 559.804 126.778H570.065L569.157 132.223C570.429 130.317 571.791 128.865 573.425 127.957C575.059 127.05 576.876 126.596 579.055 126.596C579.509 126.596 579.781 126.596 580.054 126.596C580.235 126.596 580.508 126.596 580.599 126.687L578.692 135.943C578.601 135.943 578.601 135.943 578.51 135.943C577.239 135.762 576.422 135.671 575.877 135.671C573.425 135.671 571.427 136.397 570.156 137.849C568.794 139.301 567.704 141.751 566.978 145.2L562.983 164.167H552.268ZM540.917 145.926H540.009C536.559 145.926 534.107 146.561 532.473 147.832C530.929 149.102 530.112 151.008 530.112 153.73C530.112 155.092 530.384 156.181 531.02 156.907C531.565 157.723 532.382 158.086 533.471 158.086C535.378 158.086 536.922 157.088 538.193 155.092C539.283 152.914 540.282 149.919 540.917 145.926ZM538.284 160.355C537.013 161.807 535.651 162.805 534.198 163.531C532.745 164.257 531.111 164.53 529.294 164.53C526.48 164.53 524.119 163.622 522.303 161.898C520.487 160.174 519.669 157.905 519.669 155.182C519.669 149.828 521.122 145.926 524.028 143.566C526.934 141.207 531.746 140.027 538.375 140.027C539.374 140.027 540.1 140.027 540.645 140.027C541.19 140.027 541.644 140.027 542.098 140.118C542.279 138.938 542.461 138.031 542.552 137.305C542.643 136.579 542.643 136.034 542.643 135.671C542.643 134.401 542.37 133.402 541.735 132.767C541.099 132.132 540.191 131.86 539.01 131.86C537.739 131.86 536.74 132.223 535.923 133.039C535.197 133.856 534.652 135.036 534.379 136.579H524.119C524.573 132.858 525.935 130.135 528.296 128.411C530.657 126.687 534.107 125.87 538.738 125.87C543.551 125.87 547.092 126.687 549.362 128.23C551.632 129.863 552.722 132.404 552.722 135.853C552.722 136.76 552.631 137.668 552.54 138.757C552.359 139.846 552.177 140.935 551.905 142.114L548.817 156.453C548.545 157.723 548.363 158.994 548.182 160.264C548 161.535 547.909 162.715 547.728 164.076H537.83L538.284 160.355ZM478.626 164.167L490.067 110.624H505.141C511.134 110.624 515.402 111.532 518.035 113.347C520.668 115.162 521.939 118.066 521.939 122.149C521.939 126.324 520.85 129.682 518.761 132.223C516.673 134.764 513.676 136.306 509.681 136.76C512.405 137.305 514.403 138.484 515.674 140.209C516.945 141.933 517.672 144.292 517.672 147.196C517.672 150.1 517.127 152.823 516.037 155.273C514.947 157.723 513.495 159.538 511.588 160.9C509.863 162.079 507.774 162.896 505.232 163.441C502.78 163.894 498.694 164.167 493.064 164.167H478.626ZM491.611 155.818H496.514C500.056 155.818 502.598 155.092 504.233 153.549C505.867 152.097 506.684 149.737 506.684 146.47C506.684 144.292 506.049 142.75 504.868 141.842C503.688 140.935 501.599 140.481 498.694 140.481H495.061L491.611 155.818ZM496.605 132.313H500.51C504.233 132.313 506.957 131.678 508.591 130.317C510.226 128.956 511.043 126.868 511.043 123.874C511.043 121.968 510.407 120.697 509.227 119.881C508.046 119.064 505.958 118.61 503.143 118.61H499.692L496.605 132.313ZM447.844 164.167L454.291 133.402H448.479L449.932 126.868H455.834L456.924 121.333C457.741 117.34 459.103 114.436 461.101 112.621C463.099 110.806 465.823 109.898 469.273 109.898C470.363 109.898 471.453 109.898 472.542 109.989C473.632 110.08 474.721 110.17 475.811 110.352L474.358 117.521C473.813 117.43 473.269 117.34 472.905 117.249C472.542 117.158 472.179 117.158 471.907 117.158C470.635 117.158 469.636 117.521 469.001 118.156C468.274 118.792 467.82 119.881 467.457 121.333L466.368 126.868H472.451L471.089 133.402H464.824L458.286 164.167H447.844ZM433.587 132.404C432.498 132.404 431.499 132.767 430.773 133.402C430.046 134.038 429.41 135.127 428.956 136.579C428.775 137.032 428.593 137.668 428.321 138.666C428.048 139.664 427.867 140.662 427.594 141.933C427.413 142.659 427.231 143.657 426.959 145.018C425.869 150.01 425.324 153.095 425.324 154.184C425.324 155.636 425.597 156.816 426.232 157.542C426.868 158.268 427.776 158.722 428.956 158.722C430.046 158.722 431.045 158.359 431.771 157.723C432.498 157.088 433.224 155.999 433.678 154.547C433.951 153.73 434.314 152.551 434.677 150.917C435.04 149.284 435.494 147.469 435.858 145.472C436.221 143.566 436.493 141.933 436.766 140.481C437.038 139.029 437.038 137.849 437.038 136.942C437.038 135.49 436.766 134.401 436.13 133.675C435.767 132.767 434.859 132.404 433.587 132.404ZM415.336 152.641C415.336 151.462 415.427 150.1 415.699 148.558C415.881 147.015 416.244 145.2 416.607 143.294C417.152 140.935 417.697 138.847 418.332 137.032C418.968 135.217 419.604 133.765 420.33 132.767C421.783 130.408 423.599 128.683 425.778 127.594C427.867 126.505 430.591 125.961 433.86 125.961C438.309 125.961 441.669 127.05 444.03 129.137C446.391 131.224 447.48 134.401 447.48 138.394C447.48 139.664 447.39 141.025 447.208 142.477C447.026 144.02 446.754 145.654 446.3 147.469C445.755 149.828 445.21 151.825 444.575 153.64C443.939 155.455 443.303 156.997 442.577 158.086C441.124 160.446 439.308 162.17 437.129 163.259C435.04 164.348 432.316 164.893 429.047 164.893C424.598 164.893 421.147 163.804 418.877 161.716C416.516 159.72 415.336 156.634 415.336 152.641ZM368.3 164.167L379.922 110.624H390.728L384.19 140.572L396.086 126.778H407.618L393.634 143.294L401.171 164.076H390.092L383.555 142.931L379.014 164.076H368.3V164.167ZM333.522 164.167L340.15 133.675C340.514 132.132 340.786 130.771 340.968 129.772C341.149 128.683 341.331 127.776 341.422 126.868H351.683L351.047 131.134C352.227 129.319 353.589 128.048 355.133 127.231C356.677 126.415 358.584 126.052 360.763 126.052C363.578 126.052 365.666 126.687 367.119 128.048C368.572 129.319 369.298 131.315 369.298 133.856C369.298 134.764 369.208 135.671 369.117 136.488C369.026 137.305 368.935 138.121 368.754 138.847L363.305 164.257H352.5L358.039 138.757C358.22 138.031 358.311 137.395 358.402 137.032C358.493 136.669 358.493 136.306 358.493 136.125C358.493 135.127 358.22 134.401 357.766 133.947C357.312 133.493 356.586 133.221 355.678 133.221C354.316 133.221 353.045 133.947 351.955 135.308C350.865 136.669 350.048 138.575 349.594 141.025L344.509 164.257H333.522V164.167ZM321.99 145.926H320.991C317.54 145.926 314.998 146.561 313.363 147.832C311.729 149.102 311.003 151.008 311.003 153.73C311.003 155.092 311.275 156.181 311.911 156.907C312.455 157.723 313.363 158.086 314.362 158.086C316.269 158.086 317.904 157.088 319.175 155.092C320.446 152.914 321.354 149.919 321.99 145.926ZM319.447 160.355C318.176 161.807 316.814 162.805 315.27 163.531C313.817 164.257 312.092 164.53 310.367 164.53C307.461 164.53 305.1 163.622 303.284 161.898C301.468 160.174 300.56 157.905 300.56 155.182C300.56 149.828 302.013 145.926 304.919 143.566C307.824 141.207 312.728 140.027 319.447 140.027C320.446 140.027 321.173 140.027 321.717 140.027C322.262 140.027 322.716 140.027 323.261 140.118C323.533 138.938 323.624 138.031 323.715 137.305C323.806 136.579 323.806 136.034 323.806 135.671C323.806 134.401 323.533 133.402 322.898 132.767C322.262 132.132 321.354 131.86 320.083 131.86C318.812 131.86 317.813 132.223 316.996 133.039C316.178 133.856 315.724 135.036 315.452 136.579H305.009C305.463 132.858 306.916 130.135 309.277 128.411C311.638 126.687 315.179 125.87 319.901 125.87C324.805 125.87 328.346 126.687 330.616 128.23C332.886 129.863 333.976 132.404 333.976 135.853C333.976 136.76 333.885 137.668 333.794 138.757C333.613 139.846 333.431 140.935 333.159 142.114L330.071 156.453C329.799 157.723 329.617 158.994 329.436 160.264C329.254 161.535 329.072 162.715 328.982 164.076H318.902L319.447 160.355ZM258.972 164.167L270.595 110.624H285.85C291.934 110.624 296.292 111.532 298.926 113.347C301.559 115.162 302.921 118.066 302.921 122.149C302.921 126.324 301.831 129.682 299.743 132.223C297.654 134.764 294.567 136.306 290.572 136.76C293.296 137.305 295.384 138.484 296.656 140.209C298.018 141.933 298.653 144.292 298.653 147.196C298.653 150.1 298.108 152.823 297.019 155.273C295.929 157.723 294.385 159.538 292.479 160.9C290.753 162.079 288.665 162.896 286.122 163.441C283.58 163.894 279.494 164.167 273.773 164.167H258.972ZM272.139 155.818H277.042C280.583 155.818 283.217 155.092 284.851 153.549C286.486 152.097 287.303 149.737 287.303 146.47C287.303 144.292 286.667 142.75 285.487 141.842C284.215 140.935 282.218 140.481 279.221 140.481H275.498L272.139 155.818ZM277.224 132.313H281.128C284.851 132.313 287.575 131.678 289.3 130.317C290.935 128.956 291.752 126.868 291.752 123.874C291.752 121.968 291.117 120.697 289.936 119.881C288.665 119.064 286.667 118.61 283.761 118.61H280.311L277.224 132.313Z" fill="#F94F00"/>
<path fill-rule="evenodd" clip-rule="evenodd" d="M550.361 82.401H558.987L557.444 90.1148H548.817L550.361 82.401ZM526.207 64.4325C524.754 66.5198 522.666 67.9718 520.759 67.9718H520.214C517.399 67.9718 515.946 64.977 516.945 61.347L518.67 55.176L526.116 64.614L526.207 64.4325ZM525.571 48.1883H526.026C528.84 48.1883 530.293 51.183 529.385 54.813L528.023 59.8043L520.486 51.183C521.939 49.368 523.755 48.1883 525.571 48.1883ZM511.86 33.3053H579.69L572.063 23.232L578.51 17.9685L587.5 33.3053H589.86L583.05 14.9738L591.586 11.0715L596.489 33.396H659.779L658.78 37.752H653.151L642.254 78.771H633.083L643.979 37.752H635.989L632.357 48.1883C628.452 48.1883 622.913 47.2808 619.19 48.0068C616.012 48.642 615.376 50.1848 614.377 52.8165C612.289 58.443 611.199 64.0695 609.746 69.9683C610.11 73.7798 612.198 74.5058 616.103 74.415C615.74 70.6035 616.648 65.34 621.188 63.162C624.184 61.71 629.451 61.6193 630.541 65.1585C632.084 70.2405 626.818 75.2318 623.095 75.5948C624.093 78.6803 626.364 78.9525 629.723 80.3138L620.098 85.5773C617.919 82.9455 616.284 80.223 616.194 77.4098C612.743 79.0433 606.841 79.2248 603.209 77.4098C602.391 77.0468 601.574 76.4115 600.848 75.3225C599.304 73.1445 598.759 70.3313 599.032 66.9735C599.395 63.6158 599.849 60.258 600.939 56.991C602.119 53.0888 603.481 50.1848 606.568 47.4623C611.381 43.1063 616.466 43.4693 624.093 43.8323L625.91 37.752H598.941L588.044 78.771H578.873L589.77 37.752H582.324L578.147 51.8183L569.157 52.0905L568.522 48.7328C566.796 48.0068 563.891 47.6438 561.984 48.0068C559.441 48.4605 558.896 50.0033 558.17 52.272C557.444 54.5408 557.262 56.991 558.987 57.6263C561.802 58.7153 566.706 58.1708 569.611 57.9893C573.425 57.8985 575.695 59.3505 575.513 62.9805C575.15 66.7013 573.97 70.059 572.335 73.1445C571.337 75.2318 570.156 76.7745 568.522 77.4098C564.617 79.0433 557.534 78.4988 553.357 78.4988C551.087 78.4988 548.908 78.408 546.82 78.2265C545.912 78.1358 545.094 77.8635 544.277 77.319C543.551 76.8653 542.915 76.1393 542.37 75.2318C541.281 73.2353 541.462 72.0555 541.916 69.9683L542.733 66.3383L553.721 66.5198C552.54 69.2423 552.177 71.2388 552.903 72.3278C554.447 74.5965 559.986 73.5075 561.802 72.3278L563.981 65.2493C564.435 63.6158 563.437 62.8898 561.984 62.5268C559.986 62.073 557.716 62.2545 555.718 62.2545C553.539 62.2545 550.542 62.6175 548.636 61.347C545.457 59.2598 546.275 53.8148 547.455 50.2755C548.454 47.2808 549.725 45.5565 552.631 44.286C558.806 41.4728 568.522 42.1988 570.519 45.8288L572.426 37.389H543.551L533.017 78.6803H523.846L526.298 69.0608C523.755 71.6925 520.123 73.326 516.491 73.326H515.492C509.59 73.326 505.776 68.6978 507.138 63.0713L509.499 53.0888C510.861 47.4623 516.764 42.834 522.666 42.834H523.665C527.478 42.834 530.475 44.7398 531.655 47.6438L534.289 37.389H510.952L511.86 33.3053ZM411.341 18.513L420.512 18.4223C420.058 19.5113 419.604 22.0523 420.33 23.0505C421.692 24.8655 426.505 24.7748 428.23 22.7783C428.956 21.9615 429.683 19.6928 429.955 18.6038L440.034 18.513C439.126 22.9598 437.492 26.6805 433.315 27.6788C428.412 28.8585 418.968 28.4048 413.974 27.4973C409.07 26.5898 410.523 22.5968 411.341 18.513ZM435.403 75.141H444.03L442.486 82.9455H433.86L435.403 75.141ZM460.647 37.6613H452.747L447.662 57.8078C445.574 65.2493 449.932 65.5215 454.291 61.5285L460.647 37.6613ZM403.622 33.3053H489.522L488.524 37.6613H470.544L468.002 47.4623C476.174 42.6525 481.986 43.923 483.893 47.6438C485.255 50.1848 484.256 52.5443 483.62 55.0853L478.444 74.3243H468.638L473.359 55.8113C475.448 48.4605 471.18 48.0975 466.822 51.9998L460.102 78.4988L449.66 78.8618L453.019 66.1568C444.847 71.0573 439.036 69.696 437.038 66.066C435.676 63.525 436.675 61.1655 437.31 58.6245L442.849 37.752H435.04L424.144 78.771H414.973L425.869 37.752H417.788L406.891 78.771H397.72L403.35 57.5355H395.177L396.63 51.8183H404.803L408.526 37.6613H402.351L403.622 33.3053ZM387.913 54.7223C393.271 55.176 396.176 59.9858 394.269 65.7938L393.725 67.3365C391.818 73.4168 385.371 78.4988 379.378 78.4988H360.4L361.853 72.963H375.11C378.742 72.963 382.465 69.7868 383.373 65.7938L383.555 64.7955C384.463 60.8933 382.193 57.6263 378.56 57.6263H367.846L368.572 54.6315L387.913 54.7223ZM387.822 54.7223C387.641 54.7223 387.459 54.7223 387.368 54.7223C387.55 54.7223 387.732 54.7223 387.822 54.7223ZM388.095 54.7223C393.452 54.087 398.174 49.6403 398.719 44.286L398.9 42.834C399.536 37.026 395.177 32.307 389.275 32.307H372.386L371.024 37.752H382.647C386.279 37.752 388.64 40.7468 387.913 44.3768L387.732 45.2843C387.005 48.9143 383.464 51.909 379.832 51.909H369.389L368.754 54.6315L388.095 54.7223ZM312.637 48.8235C314.544 49.2773 315.724 50.9108 315.27 52.4535L311.366 65.8845C310.912 67.4273 309.005 68.244 307.098 67.7903C305.191 67.3365 304.011 65.703 304.465 64.1603L308.369 50.7293C308.823 49.1865 310.73 48.3698 312.637 48.8235ZM297.836 21.78H306.462L304.919 29.5845H296.292L297.836 21.78ZM275.861 64.4325C274.409 66.5198 272.32 67.9718 270.413 67.9718H269.959C267.144 67.9718 265.691 64.977 266.69 61.347L268.416 55.176L275.861 64.614V64.4325ZM275.226 48.1883H275.68C278.495 48.1883 279.948 51.183 279.04 54.813L277.678 59.8043L270.141 51.183C271.594 49.368 273.41 48.1883 275.226 48.1883ZM261.514 33.3053H277.133L269.505 23.232L275.952 17.9685L284.942 33.3053H287.303L280.492 14.9738L289.028 11.0715L293.931 33.396H348.958L347.96 37.752H328.709L326.53 46.6455C335.156 41.019 344.691 42.471 343.783 52.8165C343.419 56.7188 342.057 61.6193 340.423 65.1585C339.061 68.1533 337.245 70.3313 334.975 71.7833C331.343 74.052 328.437 73.4168 324.805 72.6908C323.624 72.5093 323.533 72.6908 323.987 71.511L324.532 69.9683C324.714 69.333 324.714 69.4238 325.349 69.4238C326.257 69.4238 327.166 69.333 327.983 68.97C329.345 68.3348 330.344 65.8845 331.07 63.162C331.797 60.5303 334.248 51.9998 332.795 49.4588C332.16 48.3698 330.253 48.1883 328.618 49.1865C327.166 50.094 326.076 51.2738 325.259 52.4535L318.812 78.9525H309.55L311.911 69.333C309.459 71.9648 306.462 73.5983 303.103 73.5983H302.104C296.474 73.5983 292.842 68.97 294.113 63.3435L296.383 53.361C297.654 47.7345 303.375 43.1063 309.005 43.1063H310.004C313.727 43.1063 315.906 44.9213 317.086 47.8253L319.81 37.6613H293.296L282.763 78.9525H273.228L275.68 69.333C273.137 71.9648 269.505 73.5983 265.873 73.5983H264.874C258.972 73.5983 255.158 68.97 256.52 63.3435L258.881 53.361C260.243 47.7345 266.145 43.1063 272.048 43.1063H273.047C276.86 43.1063 279.857 45.012 281.037 47.916L283.671 37.6613H260.425L261.514 33.3053Z" fill="#F94F00"/>
<path fill-rule="evenodd" clip-rule="evenodd" d="M158.452 29.766C157.454 35.3018 157.454 35.3018 156.727 38.841C154.911 43.8323 152.55 47.8253 149.554 52.1813C149.372 52.272 149.281 52.3628 149.1 52.4535C140.746 61.9823 130.757 67.881 118.771 72.0555C116.41 72.6 116.41 72.6 116.138 72.7815V73.326C116.955 74.1428 118.499 73.9613 119.498 73.9613C120.406 74.2335 120.406 74.2335 121.858 74.3243C126.217 75.6855 130.394 77.319 134.389 79.6785C134.662 80.0415 136.569 81.4028 139.656 84.1253C140.564 85.2143 141.472 86.3033 142.38 87.3923C144.287 90.1148 145.649 93.291 146.83 96.4673C147.193 98.1008 147.556 99.7343 147.919 101.368C148.101 103.183 148.101 103.183 148.101 107.902C147.738 110.171 147.284 112.439 146.92 114.708C146.285 116.069 146.103 117.068 145.013 119.79C142.653 124.509 140.019 128.865 136.569 132.858C132.392 137.214 127.852 141.026 123.039 144.656C122.222 145.019 120.95 145.472 120.406 146.198C112.96 150.373 105.605 153.186 97.5231 155.999C92.5289 156.998 87.6255 157.996 82.5405 158.631C73.2785 159.176 73.2785 159.176 70.6452 159.448C62.4729 159.72 30.964 161.263 30.4192 161.172C29.9652 160.718 30.056 159.539 30.4192 159.085C38.864 156.635 47.4903 153.821 56.0259 151.734C56.7523 151.462 71.0993 147.287 72.5521 146.743C78.9992 145.382 85.3554 142.931 91.7117 141.207C93.1645 140.663 100.792 138.575 107.875 136.488C114.14 135.036 120.769 133.04 126.853 130.952C127.125 130.589 127.125 130.226 127.125 129.773C126.944 129.682 126.762 129.5 126.671 129.41C126.126 129.41 117.954 131.497 79.8164 140.753C79.6348 140.844 79.4532 140.935 79.3624 141.026C72.3705 142.387 65.3786 144.383 58.3867 146.017C57.8419 146.198 57.2971 146.38 56.8431 146.561C30.4192 152.823 30.4192 152.823 29.7836 153.095H29.0572C28.5123 152.369 28.1491 152.279 28.3307 151.28C30.3284 150.01 30.3284 150.01 35.2318 147.197C36.5031 146.652 48.5799 139.755 49.7604 139.211C59.3856 133.493 69.374 128.139 78.9992 122.513C87.0807 118.066 95.253 113.438 103.335 108.991C103.607 108.809 103.879 108.628 104.152 108.356C110.326 105.179 116.319 101.64 122.403 98.2823C125.218 97.1025 128.215 95.2875 130.757 93.5633C131.211 92.928 130.848 92.1113 130.122 92.0205C124.219 95.0153 118.408 98.1008 112.597 101.096C111.688 101.368 111.688 101.368 110.78 102.003C94.0726 110.534 94.0726 110.534 92.7105 111.078C90.8036 112.258 85.8094 114.708 85.3554 115.071C78.0911 118.701 70.8268 122.513 63.6534 126.415C63.3809 126.506 63.1993 126.506 63.0177 126.596C59.1132 129.228 54.3914 130.952 50.396 133.403C43.4041 136.851 36.3215 140.481 29.4204 144.111C28.6031 144.293 23.3365 148.013 23.8813 144.383C26.333 142.115 28.7848 139.755 31.2365 137.486C31.9629 136.67 33.8698 134.945 34.1422 134.855C36.7755 131.951 39.772 128.593 43.0409 126.415C43.2225 126.143 43.4949 125.87 43.6765 125.507C50.0328 119.609 56.4799 113.619 62.5637 107.357C80.8152 89.9333 99.1576 72.5093 117.5 55.3575C118.045 54.6315 118.59 53.9055 119.407 53.4518C130.576 42.7433 131.302 41.9265 144.559 29.3123C145.467 28.677 145.467 28.677 145.74 28.1325C145.74 25.9545 144.469 26.9528 143.288 27.8603C140.019 31.1273 136.478 34.0312 133.118 37.2075C131.847 39.0225 129.577 40.293 128.124 42.0173C124.946 44.9213 121.223 48.8235 117.591 51.3645C114.957 53.9963 111.961 56.7188 109.055 58.9875C98.6128 69.0608 87.0807 78.1358 76.7291 88.2998C71.6441 92.2928 67.1947 97.4655 62.0189 101.368C60.6568 102.911 60.6568 102.911 51.3949 111.441C51.0316 111.713 50.7592 111.895 50.396 112.076C40.0444 121.605 29.5112 130.952 18.978 140.3C17.7975 140.3 17.5251 140.027 17.6159 138.848C30.2376 120.516 42.8593 102.094 55.2994 83.6715C60.3844 76.0485 65.3786 68.244 70.736 60.8025C74.5498 55.176 74.8222 54.6315 76.1843 52.8165C85.9003 38.3873 96.0703 23.8673 105.605 9.2565C106.785 8.07675 106.422 7.35075 104.878 7.53225C96.7967 18.876 88.4427 30.0383 80.452 41.5635C79.09 43.2878 76.5475 47.0993 49.488 84.942C48.8524 85.9403 39.1364 99.1898 38.5007 100.007C29.7836 112.167 21.0664 124.509 12.1677 136.488C11.7137 136.851 11.2597 137.214 10.624 136.851V135.762C16.9803 119.246 23.6998 102.638 30.6008 86.394C40.68 61.0748 50.7592 35.574 61.0201 10.2548C61.0201 9.71025 61.02 9.71025 60.6568 9.2565C60.2936 9.2565 59.9304 9.34725 59.658 9.6195C51.8489 27.1343 43.7674 44.649 35.8674 62.1638C35.5042 62.6175 27.2411 81.0398 24.8802 85.7588C23.8814 88.209 23.0641 89.7518 21.9745 92.2928C15.255 106.45 8.80795 120.879 2.36089 135.218C1.54365 135.581 0.817233 135.671 0 135.308C0.0908037 134.31 0.0907953 134.31 3.26892 122.603C3.54133 121.968 4.44938 118.429 4.72179 117.703C4.9942 116.432 5.26661 115.797 8.35393 103.637C9.9884 97.5563 11.6229 91.476 13.3481 85.4865C13.6205 84.216 29.0572 28.4048 29.2388 27.588C29.7836 25.773 30.2376 24.0488 30.7824 22.2338C32.7801 14.4293 34.8686 7.16925 36.4123 0.9075C36.5939 0.45375 36.7755 0.362999 37.1387 0.0907486C64.743 0.0907486 92.4381 0.1815 120.133 0C128.578 0.45375 137.204 1.90575 145.013 5.53575C145.831 6.171 145.831 6.171 147.828 7.26C149.554 8.5305 151.37 9.9825 153.004 11.616C153.912 12.8865 154.729 14.157 155.637 15.4275C156.182 16.698 156.636 18.0593 157.181 19.3298C157.544 21.2355 157.998 23.1413 158.362 24.9563C158.362 26.4083 158.362 28.0418 158.452 29.766ZM202.674 36.9353C202.129 40.8375 201.493 44.4675 200.404 48.1883C198.134 52.9073 198.134 52.9073 196.681 55.539C194.047 59.532 190.688 62.8898 187.146 66.066C183.696 68.6978 183.696 68.6978 179.973 71.3295C175.523 73.9613 170.62 76.0485 165.898 78.2265C164.082 78.771 161.903 79.2248 160.268 80.223C160.268 80.6768 160.268 80.6768 160.359 80.8583C166.443 81.4935 171.801 83.5808 176.886 86.9385C179.337 89.0258 181.698 91.113 183.787 93.654C186.238 97.1933 188.145 100.642 189.598 104.635C189.961 106.268 190.324 107.811 190.688 109.445C190.96 111.986 190.96 114.527 190.96 117.158C190.143 124.6 187.419 131.225 183.423 137.577C180.881 141.116 180.881 141.116 178.338 144.383C173.98 148.921 168.622 154.094 162.811 156.725C158.543 159.902 152.823 161.898 147.919 163.895C144.832 164.802 141.654 165.8 138.566 166.799C131.574 168.069 131.574 168.069 130.848 168.341C125.491 168.886 125.491 168.886 124.038 169.158C92.9829 170.429 61.5649 169.884 30.51 169.884C30.1468 169.249 29.9652 168.341 30.7824 167.978C45.6742 167.343 60.6568 166.617 75.5486 166.163C78.4544 166.163 81.6325 166.254 84.4474 165.8C94.4358 165.437 104.152 164.984 114.049 163.441C114.685 163.169 117.318 162.624 121.223 161.626C140.564 155.364 158.18 143.113 166.352 123.874C166.897 122.15 166.897 122.15 167.442 121.151C167.896 118.973 168.35 116.795 168.804 114.617C168.895 109.263 168.895 109.263 168.804 107.176C168.078 102.003 166.171 96.8303 163.174 92.565C161.812 91.113 160.541 89.5703 159.179 88.1183C152.823 83.127 146.557 79.7693 138.385 79.134C138.385 78.4988 138.566 78.408 139.111 78.1358C141.109 77.5913 141.109 77.5913 143.924 76.593C156.818 70.9665 168.35 63.4343 175.614 51.0923C176.341 49.4588 177.067 47.7345 177.794 46.0103C179.065 41.8358 179.791 37.6613 180.154 33.3053C179.973 31.3995 179.882 29.4938 179.791 27.588C179.428 26.4083 179.065 25.1378 178.702 23.8673C177.158 20.1465 175.523 17.8778 172.709 15.0645C168.259 11.5252 163.265 8.8935 157.635 7.623C157.635 7.53225 157.635 7.35075 157.726 7.26C160.632 6.7155 164.173 7.26 167.079 7.4415C168.441 7.71375 168.441 7.71375 173.344 8.25825C174.979 8.62125 176.613 8.98425 178.338 9.34725C183.605 10.7993 188.872 12.6142 193.321 15.7905C194.592 16.9702 195.954 18.15 197.226 19.3298C198.315 21.054 199.405 22.6875 200.494 24.321C201.039 25.9545 201.584 27.4973 202.129 29.1308C202.22 31.4903 202.583 34.2128 202.674 36.9353Z" fill="#F94F00"/>
</svg>
