<svg width="739" height="255" viewBox="0 0 739 255" fill="none" xmlns="http://www.w3.org/2000/svg">
<rect width="739" height="255" fill="#D31F26"/>
<path d="M343.272 105.588C343.43 106.239 343.525 107.505 342.104 107.505H335.948C335.19 107.505 334.653 107.143 334.432 106.311L332.665 97.1587C332.444 96.2543 332.286 95.8925 331.686 95.8925H320.415C319.594 95.8925 319.594 96.4352 319.342 97.0863C319.057 98.8951 317.984 104.502 317.574 106.311C317.416 107.143 316.753 107.505 316.121 107.505H310.249C308.797 107.505 308.734 106.673 308.955 105.66L320.068 52.3365C320.289 51.5044 320.762 51.0703 321.646 51.0703H330.36C331.054 51.0703 331.654 51.0703 331.781 52.2641L343.178 105.588H343.272ZM328.055 73.6804L326.224 63.1531C326.161 62.6828 325.782 62.6105 325.687 63.1531L323.951 73.4633L321.583 86.5229C321.52 87.1741 321.52 87.3188 322.12 87.3188H330.044C330.518 87.3188 330.739 87.1379 330.518 86.4144L328.055 73.6442V73.6804Z" fill="white"/>
<path d="M348.319 107.514C347.404 107.514 346.867 106.971 346.867 105.958V52.6347C346.867 51.6218 347.404 51.043 348.319 51.043H363.695C373.261 51.043 378.028 57.4461 378.028 67.8649V90.3664C378.028 100.966 373.197 107.478 363.916 107.478H348.319V107.514ZM363 98.2528C367.483 98.2528 369.409 95.2502 369.409 90.4026V67.9734C369.409 62.4023 366.82 60.1232 362.716 60.1232H356.844C355.77 60.1232 355.549 60.7743 355.549 61.6787V96.8057C355.549 97.891 355.833 98.2528 356.78 98.2528H363Z" fill="white"/>
<path d="M385.608 107.505C384.787 107.505 384.25 107.143 384.25 106.13V52.445C384.25 51.4321 384.787 51.0703 385.608 51.0703H391.543C392.364 51.0703 392.9 51.4321 392.9 52.445V106.022C392.9 107.107 392.458 107.505 391.543 107.505H385.608Z" fill="white"/>
<path d="M427.095 60.1232H418.098C417.182 60.1232 416.866 60.5935 416.866 61.317L416.803 106.031C416.803 107.116 416.361 107.514 415.446 107.514H409.573C408.753 107.514 408.216 107.152 408.216 106.139L408.342 61.4255C408.342 60.5935 408.153 60.1232 407.174 60.1232H398.65C397.766 60.1232 397.355 59.6529 397.355 58.4591V52.6347C397.355 51.6218 397.766 51.043 398.65 51.043H427.127C427.885 51.043 428.295 51.5856 428.295 52.5262V58.4591C428.295 59.472 428.042 60.1232 427.127 60.1232" fill="white"/>
<path d="M440.347 52.5194L447.229 74.7315L447.892 74.8039C450.165 67.5687 452.596 59.8993 454.743 52.7003C455.217 51.5065 455.564 51.0362 457.111 51.0362H462.731C464.341 51.0362 464.341 52.0491 464.025 52.8812L452.312 85.4397C451.933 86.4526 451.87 86.9229 451.87 87.8273V105.843C451.87 106.928 451.334 107.471 450.481 107.471H444.609C443.725 107.471 443.283 106.928 443.283 105.915V87.6102C443.283 86.959 443.188 86.3441 442.904 85.5844L431.097 52.9173C430.812 52.0129 430.718 51 432.17 51H438.168C439.337 51 439.936 51.1809 440.378 52.4832" fill="white"/>
<path d="M492.697 105.588C492.887 106.239 492.95 107.505 491.592 107.505H485.404C484.646 107.505 484.11 107.143 483.889 106.311L482.121 97.1587C481.9 96.2543 481.774 95.8925 481.142 95.8925H469.871C469.05 95.8925 469.05 96.4352 468.798 97.0863C468.514 98.8951 467.44 104.502 467.061 106.311C466.872 107.143 466.209 107.505 465.578 107.505H459.705C458.253 107.505 458.19 106.673 458.443 105.66L469.524 52.3365C469.777 51.5044 470.219 51.0703 471.134 51.0703H479.816C480.479 51.0703 481.111 51.0703 481.237 52.2641L492.634 105.588H492.697ZM477.48 73.6804L475.649 63.1531C475.617 62.6828 475.207 62.6105 475.144 63.1531L473.376 73.4633L471.039 86.5229C470.945 87.1741 470.945 87.3188 471.545 87.3188H479.469C479.942 87.3188 480.163 87.1379 479.942 86.4144L477.511 73.6442L477.48 73.6804Z" fill="white"/>
<path d="M536.863 76.9724L536.926 77.515C541.504 79.9027 543.556 85.2929 543.556 90.3214C543.556 100.559 538.157 107.541 529.128 107.541H512.9C511.985 107.541 511.543 106.999 511.543 105.986V52.6621C511.543 51.6491 512.017 51.0703 512.9 51.0703H528.276C536.737 51.0703 542.072 56.2797 542.072 65.9749C542.072 69.8095 539.862 74.6571 536.894 76.9724M528.086 73.2101C531.496 73.2101 533.422 70.2075 533.422 66.4452C533.422 62.6828 531.37 60.1505 527.96 60.1505H521.077C520.383 60.1505 520.162 60.6208 520.162 61.3443V71.763C520.162 72.776 520.446 73.2101 521.141 73.2101H528.086ZM529.002 98.2801C532.664 98.2801 534.811 94.8072 534.811 90.5023C534.811 86.1973 533.106 82.1094 528.339 82.1094H521.33C520.414 82.1094 520.225 82.5435 520.225 83.4841V97.1225C520.225 98.0269 520.446 98.3163 521.33 98.3163H529.033L529.002 98.2801Z" fill="white"/>
<path d="M549.553 107.505C548.732 107.505 548.195 107.143 548.195 106.13V52.445C548.195 51.4321 548.732 51.0703 549.553 51.0703H555.488C556.341 51.0703 556.877 51.4321 556.877 52.445V106.022C556.877 107.107 556.404 107.505 555.488 107.505H549.553Z" fill="white"/>
<path d="M580.272 51.0791C589.364 51.0791 594.794 57.1206 594.794 67.4307C594.794 73.8339 591.606 79.5136 588.101 83.3482C587.691 83.8909 587.691 84.1803 587.912 84.7229C587.975 84.9038 591.795 94.8522 595.963 105.488C596.499 106.682 595.899 107.514 594.921 107.514H589.112C587.059 107.514 586.649 106.682 586.239 105.488L579.23 86.5679C579.167 86.0976 578.851 85.7359 578.251 85.7359H573.2C572.726 85.7359 572.505 86.0253 572.505 86.7488V106.031C572.505 107.116 571.969 107.514 571.053 107.514H565.275C564.455 107.514 563.918 107.152 563.918 106.139V52.6347C563.918 51.6218 564.234 51.043 565.149 51.043H580.24L580.272 51.0791ZM580.966 76.6918C581.44 76.6918 582.198 76.4024 582.482 76.1492C584.913 73.8701 586.049 70.2887 586.049 68.0096C586.049 63.5237 583.997 60.1593 579.609 60.1593H573.737C572.789 60.1593 572.568 60.5211 572.568 61.534V75.4257C572.568 76.2577 572.726 76.6918 573.642 76.6918H580.935H580.966Z" fill="white"/>
<path d="M626.687 98.2528C627.35 98.2528 627.919 98.7231 627.919 99.8084V105.85C627.919 106.935 627.508 107.478 626.75 107.478H601.178C600.262 107.478 599.82 106.935 599.82 105.922V52.4177C599.82 51.4047 600.294 51.043 601.115 51.043H607.05C607.903 51.043 608.408 51.3324 608.408 52.3091V96.8781C608.408 97.7825 608.408 98.2528 609.418 98.2528H626.687Z" fill="white"/>
<path d="M664.917 105.588C665.074 106.239 665.138 107.505 663.78 107.505H657.624C656.866 107.505 656.329 107.143 656.108 106.311L654.34 97.1587C654.119 96.2543 653.961 95.8925 653.33 95.8925H642.059C641.238 95.8925 641.238 96.4352 641.017 97.0863C640.702 98.8951 639.66 104.502 639.249 106.311C639.123 107.143 638.428 107.505 637.797 107.505H631.925C630.473 107.505 630.41 106.673 630.63 105.66L641.743 52.3365C641.964 51.5044 642.438 51.0703 643.322 51.0703H652.004C652.73 51.0703 653.298 51.0703 653.488 52.2641L664.885 105.588H664.917ZM649.699 73.6804L647.868 63.1531C647.805 62.6828 647.426 62.6105 647.332 63.1531L645.595 73.4633L643.227 86.5229C643.164 87.1741 643.164 87.3188 643.764 87.3188H651.688C652.162 87.3188 652.383 87.1379 652.162 86.4144L649.731 73.6442L649.699 73.6804Z" fill="white"/>
<path d="M308.957 182.027V146.358C308.957 132.574 318.428 123.422 331.404 123.422C339.391 123.422 347.032 125.882 352.809 135.143C353.504 136.192 353.598 137.458 352.209 138.471L345.99 143.753C344.727 144.513 343.433 143.898 342.864 142.74C340.307 138.616 336.392 136.301 331.846 136.301C325.374 136.301 322.027 141.184 322.027 146.864V182.027C322.027 187.417 325.532 191.939 332.004 191.939C336.298 191.939 340.212 189.226 342.77 185.898C343.559 184.994 344.253 183.583 345.8 184.632L352.714 189.407C353.756 190.058 354.23 191.324 353.662 192.482C348.326 201.49 340.496 204.999 331.783 204.999C318.239 204.999 308.989 196.1 308.989 182.063" fill="white"/>
<path d="M412.973 201.454C413.194 202.359 413.321 204.167 411.237 204.167H401.86C400.724 204.167 399.903 203.661 399.556 202.503L396.904 189.625C396.556 188.322 396.335 187.816 395.388 187.816H378.277C377.014 187.816 377.014 188.576 376.667 189.48C376.193 192.048 374.583 199.899 374.015 202.467C373.794 203.625 372.752 204.131 371.805 204.131H362.87C360.692 204.131 360.565 202.974 360.913 201.563L377.835 126.461C378.151 125.304 378.845 124.652 380.234 124.652H393.431C394.473 124.652 395.388 124.652 395.641 126.316L413.005 201.418L412.973 201.454ZM389.832 156.524L387.054 141.727C386.927 141.076 386.327 140.968 386.233 141.727L383.581 156.27L380.013 174.684C379.855 175.588 379.855 175.842 380.802 175.842H392.831C393.557 175.842 393.873 175.588 393.557 174.539L389.863 156.487L389.832 156.524Z" fill="white"/>
<path d="M448.177 171.724H438.926C437.727 171.724 437.506 172.375 437.506 173.28V202.112C437.506 203.523 436.811 204.174 435.422 204.174H426.519C425.098 204.174 424.277 203.523 424.277 202.112V126.649C424.277 125.238 425.098 124.695 426.519 124.695H448.05C461.784 124.695 470.371 134.608 470.371 148.499C470.371 162.391 461.026 171.688 448.177 171.688M448.082 137.429H439.053C437.758 137.429 437.442 138.189 437.442 139.347V157.001C437.442 158.411 437.916 158.954 439.053 158.954H448.082C453.607 158.954 457.332 154.577 457.332 148.246C457.332 142.711 454.08 137.465 448.082 137.465" fill="white"/>
<path d="M485.939 204.174C484.645 204.174 483.855 203.668 483.855 202.257V126.649C483.855 125.238 484.645 124.695 485.939 124.695H494.937C496.231 124.695 497.021 125.202 497.021 126.649V202.112C497.021 203.668 496.326 204.174 494.937 204.174H485.939Z" fill="white"/>
<path d="M555.015 137.5H541.345C539.987 137.5 539.514 138.115 539.514 139.164L539.419 202.146C539.419 203.702 538.693 204.208 537.304 204.208H528.401C527.106 204.208 526.317 203.702 526.317 202.291L526.412 139.308C526.412 138.115 526.191 137.5 524.675 137.5H511.731C510.342 137.5 509.742 136.848 509.742 135.184V126.936C509.742 125.525 510.31 124.766 511.731 124.766H555.015C556.183 124.766 556.751 125.525 556.751 126.828V135.184C556.751 136.595 556.373 137.5 555.015 137.5Z" fill="white"/>
<path d="M610.449 201.454C610.702 202.359 610.797 204.167 608.713 204.167H599.305C598.137 204.167 597.347 203.661 597 202.503L594.348 189.625C594.001 188.322 593.78 187.816 592.833 187.816H575.69C574.427 187.816 574.427 188.576 574.111 189.48C573.638 192.048 572.027 199.899 571.428 202.467C571.207 203.625 570.165 204.131 569.218 204.131H560.315C558.136 204.131 557.978 202.974 558.326 201.563L575.185 126.461C575.563 125.304 576.226 124.652 577.647 124.652H590.844C591.854 124.652 592.801 124.652 593.054 126.316L610.386 201.418L610.449 201.454ZM587.308 156.524L584.53 141.727C584.435 141.076 583.835 140.968 583.709 141.727L581.057 156.27L577.489 174.684C577.363 175.588 577.363 175.842 578.279 175.842H590.339C591.033 175.842 591.38 175.588 591.033 174.539L587.339 156.487L587.308 156.524Z" fill="white"/>
<path d="M663.154 191.187C664.195 191.187 664.985 191.838 664.985 193.394V201.859C664.985 203.415 664.416 204.174 663.248 204.174H624.353C622.995 204.174 622.301 203.415 622.301 201.967V126.649C622.301 125.238 622.995 124.695 624.258 124.695H633.287C634.55 124.695 635.371 125.057 635.371 126.504V189.233C635.371 190.536 635.371 191.187 636.887 191.187H663.154Z" fill="white"/>
<path d="M285.904 51.1133H74V204.211H285.904V51.1133Z" fill="white"/>
<path d="M285.907 147.523L257.304 162.825L225.859 117.424L260.966 51.1133H285.907V147.523Z" fill="#AB1F24"/>
<path d="M285.9 204.131V147.516L257.297 162.818L285.9 204.131Z" fill="#EF7032"/>
<path d="M225.862 117.424L179.926 51.1133H260.969L225.862 117.424Z" fill="#EF7032"/>
<path d="M213.233 141.271L225.798 117.467L179.926 51.1562V130.563H180.241C192.365 130.49 203.667 134.47 213.233 141.235" fill="#FFD35D"/>
<path d="M180.241 130.516H179.926V204.134L213.233 141.26C203.604 134.459 192.365 130.516 180.241 130.516Z" fill="#AB1F24"/>
<path d="M237.879 173.202L257.295 162.819L225.882 117.418L213.254 141.258C223.956 148.819 232.544 159.925 237.911 173.202" fill="#EF7032"/>
<path d="M213.233 141.27L179.926 204.216L237.89 173.213C232.555 159.936 223.936 148.83 213.233 141.27Z" fill="#D31F26"/>
<path d="M257.299 162.82L237.883 173.203C241.64 182.609 243.787 193.1 243.787 204.206H285.902L257.299 162.82Z" fill="#FFD35D"/>
<path d="M179.926 204.14H243.731C243.731 193.106 241.647 182.579 237.89 173.137L179.926 204.14Z" fill="#AB1F24"/>
<path d="M74 147.523L102.635 162.825L134.048 117.424L98.9727 51.1133H74V147.523Z" fill="#AB1F24"/>
<path d="M74 204.131V147.516L102.635 162.818L74 204.131Z" fill="#EF7032"/>
<path d="M134.048 117.424L179.921 51.1133H98.9727L134.048 117.424Z" fill="#EF7032"/>
<path d="M146.651 141.271L134.086 117.467L179.959 51.1562V130.563H179.643C167.583 130.49 156.28 134.47 146.651 141.235" fill="#D31F26"/>
<path d="M179.643 130.516H179.959V204.134L146.715 141.26C156.281 134.459 167.583 130.516 179.675 130.516" fill="#EF7032"/>
<path d="M122.053 173.202L102.637 162.819L134.05 117.418L146.615 141.222C135.913 148.855 127.325 159.925 122.021 173.238" fill="#EF7032"/>
<path d="M146.637 141.27L179.944 204.216L122.043 173.213C127.347 159.936 135.934 148.83 146.637 141.27Z" fill="#D31F26"/>
<path d="M102.638 162.82L122.055 173.203C118.298 182.609 116.151 193.1 116.151 204.206H74.0352L102.638 162.82Z" fill="#FFD35D"/>
<path d="M179.922 204.14H116.117C116.117 193.106 118.201 182.579 122.021 173.137L179.922 204.14Z" fill="#AB1F24"/>
</svg>
