<svg width="357" height="102" viewBox="0 0 357 102" fill="none" xmlns="http://www.w3.org/2000/svg">
<path d="M281.001 63.7103L253.33 73.5052L222.91 44.4446L256.873 2H281.001V63.7103Z" fill="#AB1F24"/>
<path d="M280.991 99.9459V63.707L253.32 73.5019L280.991 99.9459Z" fill="#EF7032"/>
<path d="M222.911 44.4446L178.473 2H256.874L222.911 44.4446Z" fill="#EF7032"/>
<path d="M210.694 59.7085L222.85 44.472L178.473 2.02734V52.8544H178.778C190.506 52.8081 201.44 55.3552 210.694 59.6853" fill="#FFD35D"/>
<path d="M178.778 52.8281H178.473V99.9502L210.694 59.7054C201.379 55.3521 190.506 52.8281 178.778 52.8281Z" fill="#AB1F24"/>
<path d="M234.538 80.1477L253.321 73.502L222.932 44.4414L210.715 59.7011C221.069 64.5407 229.376 71.6495 234.568 80.1477" fill="#EF7032"/>
<path d="M210.694 59.7109L178.473 100.002L234.548 80.1575C229.386 71.6593 221.048 64.5505 210.694 59.7109Z" fill="#D31F26"/>
<path d="M253.322 73.5039L234.539 80.1496C238.174 86.1701 240.25 92.8853 240.25 99.9942H280.993L253.322 73.5039Z" fill="#FFD35D"/>
<path d="M178.473 99.95H240.198C240.198 92.8875 238.182 86.1491 234.548 80.1055L178.473 99.95Z" fill="#AB1F24"/>
<path d="M76 63.7103L103.701 73.5052L134.091 44.4446L100.159 2H76V63.7103Z" fill="#AB1F24"/>
<path d="M76 99.9459V63.707L103.701 73.5019L76 99.9459Z" fill="#EF7032"/>
<path d="M134.092 44.4446L178.47 2H100.16L134.092 44.4446Z" fill="#EF7032"/>
<path d="M146.285 59.7085L134.129 44.472L178.506 2.02734V52.8544H178.201C166.534 52.8081 155.6 55.3552 146.285 59.6853" fill="#D31F26"/>
<path d="M178.199 52.8281H178.504V99.9502L146.344 59.7054C155.598 55.3521 166.532 52.8281 178.229 52.8281" fill="#EF7032"/>
<path d="M122.486 80.1477L103.703 73.502L134.092 44.4414L146.248 59.6779C135.894 64.5638 127.587 71.6495 122.456 80.1708" fill="#EF7032"/>
<path d="M146.269 59.7109L178.49 100.002L122.477 80.1575C127.608 71.6593 135.915 64.5505 146.269 59.7109Z" fill="#D31F26"/>
<path d="M103.706 73.5039L122.489 80.1496C118.855 86.1701 116.778 92.8853 116.778 99.9942H76.0352L103.706 73.5039Z" fill="#FFD35D"/>
<path d="M178.471 99.95H116.746C116.746 92.8875 118.762 86.1491 122.457 80.1055L178.471 99.95Z" fill="#AB1F24"/>
</svg>
