<svg xmlns:inkscape="http://www.inkscape.org/namespaces/inkscape" xmlns:sodipodi="http://sodipodi.sourceforge.net/DTD/sodipodi-0.dtd" xmlns="http://www.w3.org/2000/svg" xmlns:svg="http://www.w3.org/2000/svg" version="1.1" id="svg2" width="725.33331" height="178.66667" viewBox="0 0 725.33331 178.66667" sodipodi:docname="Bank-of-Baroda-Logo-Vector-1.eps">
  <defs id="defs6"/>
  <sodipodi:namedview id="namedview4" pagecolor="#ffffff" bordercolor="#000000" borderopacity="0.25" inkscape:showpageshadow="2" inkscape:pageopacity="0.0" inkscape:pagecheckerboard="0" inkscape:deskcolor="#d1d1d1"/>
  <g id="g8" inkscape:groupmode="layer" inkscape:label="ink_ext_XXXXXX" transform="matrix(1.3333333,0,0,-1.3333333,0,178.66667)">
    <g id="g10" transform="scale(0.1)">
      <path d="m 878.352,10.6406 -637.309,-0.5508 4.637,22.4844 464.39,13.3555 c 88.989,3.3711 175.473,8.0781 259.223,36.6328 171.537,57.3435 308.297,174.3005 348.467,319.0895 43.19,155.192 -56.02,306.176 -242.83,319.215 158.28,46.418 293.21,146.844 329.13,276.164 46.64,167.839 -37.74,252.739 -180.37,283.799 237.25,3.71 422.63,-76.06 359.56,-303.158 -36,-129.317 -174.12,-227.684 -331.39,-270.59 C 1436.55,693.301 1537.8,517.191 1488.88,363.684 1437.86,203.926 1309.13,104.621 1137.57,47.293 1053.84,18.7383 967.34,14.0313 878.352,10.6406" style="fill:#f27139;fill-opacity:1;fill-rule:evenodd;stroke:none" id="path12"/>
      <path d="M 543.832,91.0313 244.813,76.1875 c -0.125,7.6367 0.246,5.8789 -0.571,13.2852 l 757.458,224.2933 2.51,27.437 -773.8,-200.305 c -2.383,7.336 -2.633,5.332 -5.828,12.293 l 809.978,448.887 -8.19,22.426 -827.573,-428.336 c -4.988,7.066 -2.805,4.062 -8.559,10.457 l 962.802,900.045 -11.77,24.44 L 154.738,238.504 142.043,247.152 847.93,1264.3 818.203,1264.05 95.7969,268.336 83.1523,272.156 502.594,1265.81 H 475.941 L 24.5703,279.668 6.29297,279.613 298.371,1335.78 l 545.567,-1.69 c 258.082,14.79 461.942,-54.95 394.852,-296.27 C 1202.86,908.5 1067.93,808.078 910.516,765.152 l -0.871,-3.441 C 1096.46,748.672 1201.72,598.063 1158.6,442.887 1118.36,298.102 974.605,185.012 803.055,127.688 719.324,99.1133 632.84,94.4102 543.832,91.0313 Z M 1955.19,213.02 H 2011 c 48.15,0 58.09,-24.754 49.46,-65.352 -13.58,-64.0235 -59.33,-64.7149 -79.68,-64.7149 h -53.19 z m 39.74,187.14 h 58.96 c 32.29,0 49.86,-24.754 42.75,-58.34 -9.4,-44.41 -41.56,-58.386 -62.48,-58.386 h -64.02 z m -8.82,-387.6366 c 40.61,0 142.44,5.0782 167.1,121.1676 13.32,62.778 4.82,106.641 -60.91,116.106 l 0.32,1.242 c 54.08,10.211 88.19,48.254 99.26,100.871 20.77,97.742 -34.99,118.66 -107.84,118.66 H 1914.2 L 1816.93,12.5234 h 169.18" style="fill:#f27139;fill-opacity:1;fill-rule:evenodd;stroke:none" id="path14"/>
      <path d="m 2359.8,167.344 c -7.44,-34.899 -14.28,-105.9495 -66.84,-105.9495 -29.16,0 -27.1,27.8789 -22.22,50.7535 12.15,57.079 44.24,53.243 89.06,55.196 z m 101.14,64.711 c 12.45,58.34 8.2,107.195 -105.21,107.195 -34.23,0 -64.66,-5.703 -88.12,-20.922 -23.97,-14.598 -41.3,-39.336 -49.56,-78.07 h 87.48 c 5.4,25.379 12.97,48.875 44.01,48.875 32.28,0 31.91,-19.676 26.16,-46.922 l -5.26,-24.754 c -82.74,1.262 -165.48,-3.195 -187.94,-109.129 -11.83,-55.828 1.12,-102.12878 63.2,-102.12878 38.68,0 68.03,15.85938 94,48.87498 h 1.26 l -5.21,-42.5508 h 83.01 c 2.38,19.6758 4.12,39.9766 8.26,59.6485 l 33.92,159.8831" style="fill:#f27139;fill-opacity:1;fill-rule:evenodd;stroke:none" id="path16"/>
      <path d="m 2619.22,332.926 h -89.38 L 2461.81,12.5234 h 89.38 l 46.86,220.8436 c 6.02,28.508 15.84,50.684 44.38,50.684 28.47,0 28.86,-22.176 22.78,-50.684 L 2618.33,12.5234 h 89.38 l 54.58,257.0036 c 9.37,44.36 -22.66,69.793 -65.04,69.793 -33.6,0 -59.83,-10.215 -83.68,-38.715 h -1.31 l 6.96,32.321" style="fill:#f27139;fill-opacity:1;fill-rule:evenodd;stroke:none" id="path18"/>
      <path d="m 2839.39,12.5234 37.05,174.4806 h 1.24 L 2923.7,12.5234 h 100.76 l -63.1,177.6216 120.99,142.781 h -93.14 l -109.2,-135.145 h -1.26 l 57.89,272.864 h -89.36 L 2750.01,12.5234 Z m 422.57,50.7539 c -32.85,0 -36.74,20.9219 -15.96,118.5937 14.15,66.668 24.47,100.246 62.45,100.246 38.06,0 34.07,-33.578 19.96,-100.246 C 3307.66,84.1992 3294.94,63.2773 3261.96,63.2773 Z M 3249.89,6.14844 c 115.39,0 145.49,70.41406 166.79,170.71456 18.57,87.532 21.77,162.387 -96.08,162.387 -117.85,0 -146.44,-74.855 -165.03,-162.387 C 3134.28,76.5625 3134.54,6.14844 3249.89,6.14844" style="fill:#f27139;fill-opacity:1;fill-rule:evenodd;stroke:none" id="path20"/>
      <path d="m 3653.61,472.508 c -10.64,0.64 -20.65,1.262 -31.41,1.262 -108.97,0 -111.78,-48.872 -130.67,-140.844 h -40.57 l -11.69,-55.196 h 39.91 L 3422.86,12.5234 h 89.37 l 56.34,265.2066 h 41.8 l 11.7,55.196 h -41.8 l 8.2,38.715 c 6.88,32.336 17.46,46.312 53.07,43.738 z M 3825.54,213.02 h 55.83 c 48.12,0 58.07,-24.754 49.44,-65.352 -13.59,-64.0235 -59.41,-64.7149 -79.67,-64.7149 h -53.2 z m 39.74,187.14 h 58.95 c 32.29,0 49.87,-24.754 42.75,-58.34 -9.46,-44.41 -41.55,-58.386 -62.46,-58.386 h -64.03 z m -8.76,-387.6366 c 40.55,0 142.44,5.0782 167.04,121.1676 13.32,62.778 4.88,106.641 -60.97,116.106 l 0.32,1.242 c 54.13,10.211 88.18,48.254 99.38,100.871 20.73,97.742 -34.98,118.66 -107.9,118.66 H 3784.55 L 3687.28,12.5234 h 169.24" style="fill:#f27139;fill-opacity:1;fill-rule:evenodd;stroke:none" id="path22"/>
      <path d="m 4230.15,167.344 c -7.44,-34.899 -14.28,-105.9495 -66.9,-105.9495 -29.11,0 -26.97,27.8789 -22.16,50.7535 12.07,57.079 44.25,53.243 89.06,55.196 z m 101.13,64.711 c 12.4,58.34 8.26,107.195 -105.27,107.195 -34.17,0 -64.52,-5.703 -88.05,-20.922 -24.03,-14.598 -41.3,-39.336 -49.51,-78.07 h 87.43 c 5.45,25.379 12.96,48.875 44,48.875 32.29,0 31.99,-19.676 26.16,-46.922 l -5.25,-24.754 c -82.74,1.262 -165.48,-3.195 -187.95,-109.129 -11.89,-55.828 1.07,-102.12878 63.21,-102.12878 38.68,0 68.03,15.85938 94.07,48.87498 h 1.26 l -5.26,-42.5508 h 82.99 c 2.31,19.6758 4.12,39.9766 8.25,59.6485 l 33.92,159.8831" style="fill:#f27139;fill-opacity:1;fill-rule:evenodd;stroke:none" id="path24"/>
      <path d="M 4400.19,332.926 4332.15,12.5234 h 89.31 l 37.06,174.4806 c 6.75,31.769 17.66,77.391 95.25,72.363 l 16.9,79.953 c -36.12,0 -68.78,-10.836 -93.05,-47.613 h -1.32 l 8.76,41.219 h -84.87" style="fill:#f27139;fill-opacity:1;fill-rule:evenodd;stroke:none" id="path26"/>
      <path d="m 4649.96,63.2773 c -32.97,0 -36.74,20.9219 -16.01,118.5937 14.13,66.668 24.47,100.246 62.45,100.246 37.99,0 34.05,-33.578 19.91,-100.246 C 4695.59,84.1992 4682.89,63.2773 4649.96,63.2773 Z M 4637.82,6.14844 c 115.34,0 145.51,70.41406 166.79,170.71456 18.59,87.532 21.78,162.387 -96.13,162.387 -117.78,0 -146.39,-74.855 -164.96,-162.387 C 4522.23,76.5625 4522.47,6.14844 4637.82,6.14844" style="fill:#f27139;fill-opacity:1;fill-rule:evenodd;stroke:none" id="path28"/>
      <path d="m 4935.91,61.3945 c -32.28,0 -30.91,33.6524 -13.83,114.2225 13.64,64.074 22.46,108.434 61.09,108.434 36.79,0 26.73,-44.36 13.07,-108.434 -17.08,-80.5701 -29.91,-114.2225 -60.33,-114.2225 z m 115.1,-48.8711 97.26,458.1216 h -89.38 l -35.67,-168.161 h -1.32 c -12.57,27.317 -32.73,36.836 -65.01,36.836 -90,0 -108.6,-99.629 -122.36,-164.34 -14.01,-65.972 -39,-168.78078 53.51,-168.78078 34.16,0 61.21,10.83598 84.3,41.91018 h 1.31 l -7.56,-35.586 h 84.92" style="fill:#f27139;fill-opacity:1;fill-rule:evenodd;stroke:none" id="path30"/>
      <path d="m 5284.64,167.344 c -7.39,-34.899 -14.28,-105.9495 -66.84,-105.9495 -29.16,0 -27.05,27.8789 -22.17,50.7535 12.16,57.079 44.33,53.243 89.01,55.196 z m 101.26,64.711 c 12.33,58.34 8.21,107.195 -105.27,107.195 -34.24,0 -64.59,-5.703 -88.12,-20.922 -24.03,-14.598 -41.31,-39.336 -49.49,-78.07 h 87.42 c 5.38,25.379 12.9,48.875 43.94,48.875 32.35,0 31.98,-19.676 26.16,-46.922 l -5.26,-24.754 c -82.74,1.262 -165.4,-3.195 -187.94,-109.129 -11.83,-55.828 1.12,-102.12878 63.27,-102.12878 38.61,0 67.97,15.85938 94,48.87498 h 1.32 l -5.26,-42.5508 h 83.06 c 2.25,19.6758 3.99,39.9766 8.18,59.6485 z M 3476.81,1260.73 c -20.02,-76.68 -55.13,-80.95 -99.06,-80.95 h -85.62 c -71.67,0 -77.36,30.71 -62.9,80.95 h 84.55 c -8.08,-26.12 -18.59,-49.99 26.48,-49.99 29.65,0 39.6,7.14 51,48.55 z m 806.92,-399.964 -64.27,83.324 -5.58,-21.113 c -16.41,-63.719 -15.72,-89.914 23.33,-89.914 21.67,0 35.56,8.523 46.52,27.703 z m -41.76,122.734 64.28,-83.523 6.26,22.75 c 12.95,50.683 23.09,86.023 -23.03,86.453 -23.48,0.25 -37.56,-9.325 -47.51,-25.68 z m 422.7,41.79 17.21,73.23 h -240.33 l -90.87,-353.911 h -81.23 l 21.4,77.301 c -23.28,-24.609 -64.03,-32.371 -96.75,-32.371 -88.49,0 -73.91,85.203 -60.53,137.379 13.14,51.199 40.25,126.052 126.31,126.052 30.97,0 65.08,-8.26 77.16,-29.87 l 19.16,75.42 h -196.84 l 12.15,38.91 h 577.71 l -71.04,87.91 59.21,43.42 75.74,-131.33 h 22.91 l -60.59,159.7 71.53,31.83 41.81,-191.53 h 545.43 l -12.14,-38.91 h -45.57 l -90.93,-354.161 h -81.17 l 90.87,354.161 h -70.54 l -28.22,-89.89 h -113.4 c -36.99,0 -47.19,-44.31 -62.34,-109.646 -18.22,-78.566 -32.3,-125.804 18.72,-125.804 3.5,0 9.2,1.437 16.27,3.82 -5.33,48.301 22.46,104.758 79.61,104.758 52.19,0 52.32,-28.699 45.18,-53.949 -9.95,-35.59 -28.17,-54.7 -63.33,-64.59 18.08,-34.203 61.77,-36.848 61.77,-36.848 l -87.38,-47.984 c -19.96,23.742 -32.03,44.734 -35.6,69.047 -21.47,-5.774 -45.13,-7.391 -63.15,-7.391 -104.89,-0.07 -87.43,102.555 -69.73,172.027 18.16,71.375 49.2,133.95 135.31,133.95 30.92,0 65.6,-2 65.6,-2 l 15.45,54.5 h -228.75 l -90.87,-354.161 h -81.23 l 90.94,354.161 h -65.1 l -32.41,-124.86 h -81.42 c 6.82,27.44 -5.83,37.52 -40.44,37.52 -31.42,0 -40.67,-4.38 -53.58,-49.172 -9.32,-38.285 1.58,-46.293 39.5,-45.352 h 64.91 c 47.55,0 56.13,-17.992 39.35,-88.847 -20.96,-79.809 -59.88,-84.461 -108.58,-84.461 h -94.88 c -83.04,0 -86.12,37.168 -67.4,97.496 h 93.75 c -8.63,-31.774 -27.4,-63.153 27.05,-63.153 32.78,0 43.79,7.887 56.43,53.688 10.34,33.012 12.84,50.184 -37.22,50.184 0,0 -44.31,0.816 -65.6,0.746 -55.64,0 -46.81,47.183 -36.74,86.144 19.73,72.177 33.79,81.457 116.8,81.457 50.88,0 73.47,-5.57 80.66,-24.62 z M 2280.39,832.441 c 29.08,0 41.36,26.567 57.69,90.286 13.02,50.683 22.66,85.823 -12.52,85.823 -36.99,0 -45.32,-35.14 -58.32,-85.823 -16.4,-63.719 -17.85,-90.286 13.15,-90.286 z m 15.13,-87.586 c 21.46,77.254 20.97,77.055 20.97,77.055 z m -281.77,119.29 -64.81,84.085 c -2.33,-7.902 -4.58,-16.355 -6.9,-25.253 -16.33,-63.719 -15.64,-89.914 23.41,-89.914 22.91,0 37.05,9.535 48.3,31.082 z m -48.55,122.425 63.46,-82.382 5,18.539 c 13.02,50.683 23.16,86.023 -22.96,86.453 -21.97,0.25 -35.68,-8.14 -45.5,-22.61 z m 62.46,150.86 -70.96,87.91 59.19,43.42 75.74,-131.33 h 22.91 l -60.65,159.7 71.59,31.83 41.8,-191.53 h 473.34 l -12.15,-38.91 h -164.46 l -20.15,-82.06 c 22.02,24.56 49.11,34 81.84,34 88.57,0 69.17,-83.765 55.78,-135.882 -13.16,-51.183 -35.37,-125.164 -121.43,-125.164 -16.96,0 -32.28,3.371 -40.99,11.203 l 6.08,22.926 8,-2.059 c 37,0 47.01,44.364 60.03,95.047 16.39,63.715 17.71,90.269 -13.21,90.269 -25.79,0 -40.99,-19.163 -55.57,-68.034 l -48.07,-194.157 -80.8,0.246 20.97,77.055 c -23.28,-24.609 -49.12,-33.137 -81.87,-33.137 -88.55,0 -68.33,88.403 -54.94,140.524 13.08,51.254 34.68,122.923 120.72,122.923 30.92,0 50.26,-7.51 62.28,-29.12 l 19.14,75.42 h -219.11 l -90.87,-353.911 h -81.17 l 21.35,77.301 c -23.29,-24.609 -63.97,-32.371 -96.7,-32.371 -88.56,0 -70.84,90.266 -57.45,142.461 13.09,51.18 37.17,120.97 123.23,120.97 30.92,0 65.08,-8.26 77.16,-29.87 l 19.09,75.42 h -198.08 l 12.14,38.91 z M 2920.5,745.051 h -121.3 l 10.27,40.097 h 105.65 c 26.77,0 66.27,15.024 79.86,68.161 8.63,33.636 -5.83,72.543 -54.15,72.543 h -79.35 l 10.65,43.793 h 91.98 c 32.68,0 57.64,27.828 67.16,64.605 7.14,27.86 5.44,65.09 -42.93,65.09 h -98.76 l 10.26,40.1 h 118.72 c 60.22,0 125.61,-25.95 108.15,-98.3 -12.94,-53.824 -40.61,-80.82 -104.01,-91.027 65.65,-8.898 78.6,-52.636 65.21,-104.691 -24.72,-96.18 -126.8,-100.371 -167.41,-100.371 z m 731.74,353.469 h -64.16 L 3537.9,905.379 c -5.76,-22.625 -5.19,-39.16 22.09,-39.16 27.22,0 37.61,25.75 43.44,48.359 z m -482.29,38.91 h 727.24 l -12.2,-38.91 h -147.13 l -24.22,-93.34 c 22.66,22.23 50.13,32.27 81.99,32.27 40.61,0 71.21,-20.12 62.26,-55.212 l -52.19,-203.23 h -85.56 l 44.87,174.672 c 5.83,22.554 5.45,40.101 -21.77,40.101 -19.71,0 -33.3,-16.48 -41.51,-34.222 l -21.14,-81.762 c -4.32,-16.602 -27.92,-116.531 -30.35,-133.063 h -88.49 l 27.03,108.45 c -23.98,-22.551 -49.07,-30.633 -81.23,-30.633 -40.57,0 -71.23,20.101 -62.21,55.246 l 57.25,220.723 h -67.71 l -90.93,-354.161 h -81.17 l 90.92,354.161 h -64.2 l -91.01,-354.161 h -81.1 l 47.68,186.004 h -65.96 l 11.01,39.602 h 65.16 l 32.98,128.555 h -50.44 z m -970.05,96.43 h 77.34 l -17.46,-64.41 h -77.23 z M 3436.94,770.855 h 77.23 l -17.33,-64.464 h -77.23 z m 1058.63,-63.523 h 77.23 l -17.33,-64.41 h -77.23 l 17.33,64.41" style="fill:#f27139;fill-opacity:1;fill-rule:evenodd;stroke:none" id="path32"/>
    </g>
  </g>
</svg>