<svg width="679" height="143" viewBox="0 0 679 143" fill="none" xmlns="http://www.w3.org/2000/svg">
<path d="M66.9519 118.479L89.0086 94.8073V71.5H94.2117V94.6859L66.9519 123.941V118.479ZM7.00308 71.5H11.98L45.2346 107.189H66.9519V112.773H45.3477L7.00308 71.5ZM18.088 71.5H23.0649L45.1215 95.1715H66.8388V100.755H45.3477L18.088 71.5ZM66.9519 130.497L100.207 94.8073V71.5H105.41V94.6859L66.9519 135.959V130.497ZM46.0264 71.5L66.9519 49.0424L87.8775 71.5L66.9519 93.9575L46.0264 71.5ZM66.9519 42.2445H88.4431L115.703 71.5H110.726L88.6693 47.8285H66.9519V42.2445ZM66.9519 30.2267H88.5562L127.014 71.5H122.037L88.7824 35.8107H67.0651V30.2267H66.9519ZM39.5791 48.3141L66.8388 19.0586V24.3998L44.7822 48.0713V71.3786H39.5791V48.3141ZM28.3811 48.3141L66.8388 7.04075V12.382L33.5842 48.0713V71.3786H28.3811V48.3141ZM66.9519 0L22.2731 47.9499H0.329529V71.5L45.0084 119.45V143H66.9519L111.631 95.0501H133.574V71.5L88.8955 23.5501V0H66.9519Z" fill="#C22829"/>
<path fill-rule="evenodd" clip-rule="evenodd" d="M190.356 49.771L195.672 51.2277C194.541 55.962 192.505 59.4824 189.677 62.0316C186.737 64.4594 183.23 65.6734 179.045 65.6734C174.747 65.6734 171.127 64.7022 168.413 62.8814C165.698 60.9391 163.662 58.2684 162.191 54.6267C160.721 50.9849 160.042 47.2217 160.042 43.0944C160.042 38.6029 160.834 34.7184 162.418 31.3194C164.001 27.9204 166.263 25.3712 169.204 23.6717C172.145 21.9722 175.425 21.1224 178.932 21.1224C183.004 21.1224 186.397 22.215 189.112 24.4C191.827 26.5851 193.749 29.7413 194.881 33.6258L189.677 34.9611C188.773 31.8049 187.415 29.4985 185.605 28.0418C183.796 26.5851 181.647 25.8567 178.932 25.8567C175.878 25.8567 173.276 26.7065 171.127 28.2846C169.091 29.8627 167.621 32.0477 166.716 34.7184C165.924 37.389 165.472 40.181 165.472 42.973C165.472 46.6148 165.924 49.8924 166.942 52.563C167.96 55.355 169.544 57.2973 171.58 58.754C173.729 60.0893 175.991 60.8177 178.366 60.8177C181.307 60.8177 183.909 59.8465 185.945 58.0257C188.207 56.2048 189.677 53.4127 190.356 49.771Z" fill="#26231F"/>
<path fill-rule="evenodd" clip-rule="evenodd" d="M205.287 46.2504H221.575C221.349 43.5797 220.783 41.6375 219.765 40.3021C218.181 38.2385 216.145 37.2673 213.657 37.2673C211.395 37.2673 209.472 38.1171 207.888 39.6952C206.305 41.3947 205.513 43.5797 205.287 46.2504ZM221.575 54.8692L226.665 55.5976C225.873 58.7538 224.403 61.303 222.14 63.0025C219.991 64.7019 217.163 65.6731 213.77 65.6731C209.472 65.6731 206.079 64.2164 203.59 61.4244C201.102 58.6324 199.857 54.6264 199.857 49.528C199.857 44.3081 201.102 40.1808 203.703 37.2673C206.192 34.3539 209.472 32.8972 213.544 32.8972C217.39 32.8972 220.67 34.3539 223.045 37.1459C225.534 39.938 226.778 43.9439 226.778 49.1638C226.778 49.5279 226.778 50.0135 226.778 50.6205H205.061C205.287 54.0195 206.192 56.6901 207.775 58.511C209.359 60.3319 211.395 61.303 213.883 61.303C215.693 61.303 217.277 60.8174 218.521 59.7249C219.765 58.7538 220.783 57.0543 221.575 54.8692Z" fill="#26231F"/>
<path fill-rule="evenodd" clip-rule="evenodd" d="M232.773 64.9447V33.6255H237.184V38.117C239.333 34.718 242.387 33.0186 246.459 33.0186C248.269 33.0186 249.853 33.3827 251.323 33.9897C252.793 34.718 253.925 35.5678 254.603 36.6603C255.395 37.7528 255.847 39.0882 256.187 40.5449C256.413 41.516 256.413 43.2155 256.413 45.6433V64.9447H251.436V45.8861C251.436 43.7011 251.21 42.123 250.871 41.0304C250.531 39.9379 249.853 39.0882 248.835 38.4812C247.817 37.8742 246.685 37.5101 245.441 37.5101C243.292 37.5101 241.482 38.2384 240.012 39.6951C238.428 41.1518 237.75 43.8224 237.75 47.8284V64.9447H232.773Z" fill="#26231F"/>
<path fill-rule="evenodd" clip-rule="evenodd" d="M274.85 60.2105L275.529 64.9448C274.171 65.309 272.927 65.4303 271.796 65.4303C269.986 65.4303 268.629 65.0662 267.611 64.4592C266.593 63.8523 265.914 63.0025 265.575 62.0314C265.123 61.0602 265.009 58.9966 265.009 55.719V37.7529H261.39V33.6256H265.009V25.8565L269.873 22.7003V33.6256H274.85V37.7529H269.873V56.0832C269.873 57.6613 269.986 58.511 270.099 58.9966C270.326 59.4821 270.552 59.7249 271.004 60.0891C271.457 60.3319 271.909 60.4533 272.701 60.4533C273.153 60.4533 273.945 60.3319 274.85 60.2105Z" fill="#26231F"/>
<path fill-rule="evenodd" clip-rule="evenodd" d="M279.488 64.9447V33.6256H283.899V38.3599C285.03 36.1748 286.048 34.7181 287.066 33.9897C287.971 33.2614 289.102 32.8972 290.233 32.8972C291.93 32.8972 293.627 33.5042 295.323 34.5967L293.627 39.5738C292.382 38.8454 291.251 38.3599 290.007 38.3599C288.876 38.3599 287.971 38.724 287.066 39.4524C286.161 40.1807 285.596 41.1519 285.256 42.3658C284.691 44.1867 284.465 46.3717 284.465 48.5568V64.9447H279.488Z" fill="#26231F"/>
<path fill-rule="evenodd" clip-rule="evenodd" d="M316.927 49.2852C315.118 50.135 312.403 50.7419 308.897 51.3489C306.861 51.7131 305.39 51.9559 304.598 52.4414C303.807 52.8056 303.128 53.4126 302.675 54.1409C302.223 54.8693 301.997 55.719 301.997 56.6902C301.997 58.1469 302.449 59.2394 303.467 60.2105C304.485 61.1817 305.956 61.6672 307.879 61.6672C309.801 61.6672 311.498 61.1817 312.969 60.3319C314.439 59.4822 315.57 58.2682 316.249 56.6902C316.814 55.4762 317.041 53.7767 317.041 51.3489V49.2852H316.927ZM317.267 61.0603C315.457 62.7598 313.647 63.8523 311.951 64.5806C310.254 65.309 308.444 65.5518 306.521 65.5518C303.354 65.5518 300.866 64.702 299.169 63.0025C297.472 61.303 296.567 59.118 296.567 56.5688C296.567 54.9907 296.907 53.6553 297.585 52.32C298.264 51.1061 299.056 50.0136 300.187 49.2852C301.205 48.5569 302.449 47.9499 303.693 47.5857C304.711 47.343 306.069 47.1002 308.105 46.736C312.064 46.2504 315.005 45.6434 316.927 44.9151C316.927 44.1867 316.927 43.7012 316.927 43.5798C316.927 41.3947 316.475 39.938 315.57 38.9669C314.326 37.753 312.403 37.146 309.915 37.146C307.539 37.146 305.843 37.6316 304.711 38.4813C303.58 39.3311 302.789 40.9092 302.223 43.0942L297.359 42.3659C297.812 40.1808 298.49 38.3599 299.508 37.0246C300.526 35.6893 301.997 34.5968 303.92 33.8684C305.843 33.1401 307.992 32.7759 310.593 32.7759C313.082 32.7759 315.118 33.1401 316.701 33.747C318.285 34.354 319.416 35.2037 320.095 36.1749C320.773 37.146 321.339 38.3599 321.678 39.8166C321.791 40.6664 321.904 42.3659 321.904 44.6723V51.7131C321.904 56.6901 322.017 59.725 322.244 61.0603C322.47 62.3956 322.809 63.6095 323.488 64.8234H318.285C317.719 63.8523 317.493 62.517 317.267 61.0603Z" fill="#26231F"/>
<path d="M334.347 21.7292H329.37V64.9449H334.347V21.7292Z" fill="#26231F"/>
<path fill-rule="evenodd" clip-rule="evenodd" d="M363.19 59.8464H373.257C374.953 59.8464 376.198 59.725 376.876 59.6036C378.121 59.3608 379.139 58.9966 379.93 58.3897C380.722 57.9041 381.401 57.0544 381.966 55.9618C382.532 54.8693 382.758 53.6554 382.758 52.3201C382.758 50.742 382.419 49.2853 381.627 48.0713C380.835 46.8574 379.817 46.0077 378.46 45.5221C377.103 45.0365 375.18 44.7938 372.578 44.7938H363.303V59.8464H363.19ZM363.19 39.9381H371.899C374.275 39.9381 375.971 39.8167 376.989 39.4525C378.347 38.9669 379.365 38.36 380.043 37.2675C380.722 36.2963 381.061 34.961 381.061 33.5043C381.061 32.0476 380.722 30.8337 380.157 29.7411C379.478 28.6486 378.573 27.9203 377.442 27.5561C376.198 27.1919 374.162 26.9491 371.334 26.9491H363.303V39.9381H363.19ZM357.874 64.9449V21.7292H373.031C376.085 21.7292 378.573 22.2148 380.383 23.0646C382.193 23.9143 383.663 25.2496 384.794 27.0705C385.812 28.8914 386.378 30.8337 386.378 32.7759C386.378 34.5968 385.925 36.2963 385.02 37.9958C384.115 39.5739 382.645 40.9092 380.835 42.0017C383.324 42.7301 385.133 44.0654 386.491 45.8863C387.848 47.7072 388.414 49.8922 388.414 52.4415C388.414 54.5051 387.961 56.326 387.169 58.0255C386.378 59.725 385.36 61.0603 384.229 62.0314C383.097 63.0026 381.627 63.7309 379.817 64.2165C378.007 64.7021 375.858 64.9449 373.37 64.9449H357.874Z" fill="#26231F"/>
<path fill-rule="evenodd" clip-rule="evenodd" d="M413.524 49.2852C411.715 50.135 409 50.7419 405.493 51.3489C403.457 51.7131 401.987 51.9559 401.195 52.4414C400.403 52.8056 399.725 53.4126 399.272 54.1409C398.82 54.8693 398.594 55.719 398.594 56.6902C398.594 58.1469 399.046 59.2394 400.064 60.2105C401.082 61.1817 402.553 61.6672 404.475 61.6672C406.398 61.6672 408.095 61.1817 409.565 60.3319C411.036 59.4822 412.167 58.2682 412.846 56.6902C413.411 55.4762 413.637 53.7767 413.637 51.3489V49.2852H413.524ZM413.977 61.0603C412.167 62.7598 410.357 63.8523 408.661 64.5806C406.964 65.309 405.154 65.5518 403.231 65.5518C400.064 65.5518 397.576 64.702 395.879 63.0025C394.182 61.303 393.277 59.118 393.277 56.5688C393.277 54.9907 393.617 53.6553 394.295 52.32C394.974 51.1061 395.766 50.0136 396.897 49.2852C397.915 48.5569 399.159 47.9499 400.403 47.5857C401.421 47.343 402.779 47.1002 404.815 46.736C408.774 46.2504 411.715 45.6434 413.637 44.9151C413.637 44.1867 413.637 43.7012 413.637 43.5798C413.637 41.3947 413.185 39.938 412.28 38.9669C411.036 37.753 409.113 37.146 406.625 37.146C404.249 37.146 402.553 37.6316 401.421 38.4813C400.29 39.3311 399.499 40.9092 398.933 43.0942L394.069 42.3659C394.522 40.1808 395.2 38.3599 396.218 37.0246C397.236 35.6893 398.707 34.5968 400.63 33.8684C402.553 33.1401 404.702 32.7759 407.303 32.7759C409.792 32.7759 411.828 33.1401 413.411 33.747C414.995 34.354 416.126 35.2037 416.805 36.1749C417.483 37.146 418.049 38.3599 418.388 39.8166C418.501 40.6664 418.614 42.3659 418.614 44.6723V51.7131C418.614 56.6901 418.727 59.725 418.954 61.0603C419.18 62.3956 419.519 63.6095 420.198 64.8234H414.995C414.429 63.8523 414.09 62.517 413.977 61.0603Z" fill="#26231F"/>
<path fill-rule="evenodd" clip-rule="evenodd" d="M426.193 64.9447V33.6255H430.604V38.117C432.753 34.718 435.807 33.0186 439.879 33.0186C441.689 33.0186 443.273 33.3827 444.743 33.9897C446.213 34.718 447.345 35.5678 448.023 36.6603C448.815 37.7528 449.267 39.0882 449.607 40.5449C449.833 41.516 449.833 43.2155 449.833 45.6433V64.9447H444.856V45.8861C444.856 43.7011 444.63 42.123 444.291 41.0304C443.951 39.9379 443.273 39.0882 442.255 38.4812C441.237 37.8742 440.105 37.5101 438.861 37.5101C436.712 37.5101 434.902 38.2384 433.432 39.6951C431.848 41.1518 431.17 43.8224 431.17 47.8284V64.9447H426.193Z" fill="#26231F"/>
<path fill-rule="evenodd" clip-rule="evenodd" d="M457.411 64.9449V21.7292H462.388V46.3719L474.039 33.6257H480.373L469.288 45.2793L481.617 64.9449H475.509L465.782 48.9211L462.388 52.5629V64.9449H457.411Z" fill="#26231F"/>
<path fill-rule="evenodd" clip-rule="evenodd" d="M504.239 49.2852C504.239 53.2911 505.031 56.3259 506.728 58.2682C508.311 60.2104 510.46 61.303 512.836 61.303C515.324 61.303 517.36 60.3318 518.944 58.2682C520.527 56.3259 521.432 53.1697 521.432 49.0424C521.432 45.1578 520.64 42.2444 518.944 40.3021C517.36 38.3599 515.211 37.2673 512.836 37.2673C510.347 37.2673 508.311 38.2385 506.728 40.3021C505.031 42.2444 504.239 45.2792 504.239 49.2852ZM499.149 49.2852C499.149 43.4583 500.62 39.2096 503.674 36.4176C506.162 34.1111 509.216 32.8972 512.836 32.8972C516.795 32.8972 520.188 34.3539 522.676 37.1459C525.278 39.938 526.522 43.8225 526.522 48.7996C526.522 52.8055 525.957 55.9617 524.826 58.2682C523.694 60.5746 522.111 62.3955 519.962 63.6094C517.813 64.9447 515.437 65.5517 512.949 65.5517C508.877 65.5517 505.597 64.095 503.108 61.303C500.394 58.6323 499.149 54.6264 499.149 49.2852Z" fill="#26231F"/>
<path fill-rule="evenodd" clip-rule="evenodd" d="M533.422 64.9447V37.7529H529.011V33.6256H533.422V30.348C533.422 28.2843 533.648 26.7062 533.988 25.6137C534.44 24.2784 535.345 23.0644 536.476 22.2147C537.72 21.365 539.304 20.8794 541.566 20.8794C542.923 20.8794 544.507 21.0008 546.204 21.365L545.412 25.9779C544.394 25.7351 543.376 25.7351 542.471 25.7351C541.001 25.7351 539.869 26.0993 539.304 26.8276C538.625 27.556 538.399 28.7699 538.399 30.7121V33.6256H544.055V37.7529H538.399V64.9447H533.422Z" fill="#26231F"/>
<path d="M570.183 21.7292H564.867V64.9449H570.183V21.7292Z" fill="#26231F"/>
<path fill-rule="evenodd" clip-rule="evenodd" d="M578.893 64.9447V33.6255H583.304V38.117C585.453 34.718 588.507 33.0186 592.579 33.0186C594.389 33.0186 595.973 33.3827 597.443 33.9897C598.913 34.718 600.044 35.5678 600.723 36.6603C601.515 37.7528 601.967 39.0882 602.307 40.5449C602.533 41.516 602.533 43.2155 602.533 45.6433V64.9447H597.556V45.8861C597.556 43.7011 597.33 42.123 596.99 41.0304C596.651 39.9379 595.972 39.0882 594.954 38.4812C593.936 37.8742 592.805 37.5101 591.561 37.5101C589.412 37.5101 587.602 38.2384 586.132 39.6951C584.548 41.1518 583.87 43.8224 583.87 47.8284V64.9447H578.893Z" fill="#26231F"/>
<path fill-rule="evenodd" clip-rule="evenodd" d="M613.392 49.2853C613.392 53.2912 614.183 56.326 615.767 58.2683C617.35 60.2106 619.16 61.3031 621.309 61.3031C623.458 61.3031 625.268 60.332 626.852 58.5111C628.322 56.5688 629.114 53.7768 629.114 49.7708C629.114 45.5221 628.322 42.3659 626.852 40.3023C625.268 38.2386 623.458 37.2674 621.196 37.2674C619.047 37.2674 617.124 38.2386 615.654 40.1809C614.183 42.1231 613.392 45.1579 613.392 49.2853ZM629.001 64.9448V60.9389C627.191 64.0951 624.476 65.5518 620.857 65.5518C618.482 65.5518 616.446 64.8235 614.41 63.4882C612.487 62.1529 610.903 60.2106 609.885 57.7827C608.867 55.3549 608.302 52.4415 608.302 49.2853C608.302 46.1291 608.754 43.337 609.772 40.7878C610.79 38.2386 612.147 36.2963 614.183 34.961C616.106 33.6257 618.255 32.8973 620.744 32.8973C622.554 32.8973 624.024 33.2615 625.381 34.1112C626.739 34.961 627.87 35.9321 628.775 37.2674V21.7292H633.638V64.9448H629.001Z" fill="#26231F"/>
<path fill-rule="evenodd" clip-rule="evenodd" d="M641.33 33.6257H646.307V64.9449H641.33V33.6257ZM641.33 21.7292H646.307V27.7989H641.33V21.7292Z" fill="#26231F"/>
<path fill-rule="evenodd" clip-rule="evenodd" d="M672.322 49.2852C670.513 50.135 667.798 50.7419 664.292 51.3489C662.256 51.7131 660.785 51.9559 659.993 52.4414C659.202 52.8056 658.523 53.4126 658.07 54.1409C657.618 54.8693 657.392 55.719 657.392 56.6902C657.392 58.1469 657.844 59.2394 658.862 60.2105C659.88 61.1817 661.351 61.6672 663.274 61.6672C665.196 61.6672 666.893 61.1817 668.364 60.3319C669.834 59.4822 670.965 58.2682 671.644 56.6902C672.209 55.4762 672.436 53.7767 672.436 51.3489V49.2852H672.322ZM672.775 61.0603C670.965 62.7598 669.155 63.8523 667.459 64.5806C665.762 65.309 663.952 65.5518 662.029 65.5518C658.862 65.5518 656.374 64.702 654.677 63.0025C652.98 61.303 652.076 59.118 652.076 56.5688C652.076 54.9907 652.415 53.6553 653.094 52.32C653.772 51.1061 654.564 50.0136 655.695 49.2852C656.713 48.5569 657.957 47.9499 659.202 47.5857C660.22 47.343 661.577 47.1002 663.613 46.736C667.572 46.2504 670.513 45.6434 672.436 44.9151C672.436 44.1867 672.436 43.7012 672.436 43.5798C672.436 41.3947 671.983 39.938 671.078 38.9669C669.834 37.753 667.911 37.146 665.423 37.146C663.047 37.146 661.351 37.6316 660.22 38.4813C659.088 39.3311 658.297 40.9092 657.731 43.0942L652.867 42.3659C653.32 40.1808 653.998 38.3599 655.016 37.0246C656.034 35.6893 657.505 34.5968 659.428 33.8684C661.351 33.1401 663.5 32.7759 666.101 32.7759C668.59 32.7759 670.626 33.1401 672.209 33.747C673.793 34.354 674.924 35.2037 675.603 36.1749C676.281 37.146 676.847 38.3599 677.186 39.8166C677.299 40.6664 677.412 42.3659 677.412 44.6723V51.7131C677.412 56.6901 677.526 59.725 677.752 61.0603C677.978 62.3956 678.317 63.6095 678.996 64.8234H673.793C673.227 63.8523 672.888 62.517 672.775 61.0603Z" fill="#26231F"/>
</svg>
