<svg width="679" height="120" viewBox="0 0 679 120" fill="none" xmlns="http://www.w3.org/2000/svg">
<path d="M11.7399 40.1971V74.5788H17.0492C22.2714 74.5788 26.07 74.0462 28.4306 72.9481C30.8056 71.8698 32.7231 70.0353 34.2265 67.4578C35.7445 64.8869 36.4854 61.7243 36.4854 57.9764C36.4854 52.1837 34.6986 47.6994 31.1179 44.5039C27.9076 41.6371 22.729 40.1971 15.6111 40.1971H11.7399ZM0.329529 30.1963H13.9116C22.6782 30.1963 29.1714 31.176 33.4349 33.1354C37.6765 35.0948 41.1846 38.3035 43.9519 42.7154C46.6828 47.1405 48.0701 52.3021 48.0701 58.2131C48.0701 62.4015 47.2929 66.2612 45.7459 69.792C44.2133 73.3098 42.0852 76.2423 39.3834 78.5502C36.6597 80.8778 33.7181 82.4821 30.5732 83.3632C27.4137 84.2443 21.9301 84.698 14.1367 84.698H0.329529V30.1963Z" fill="#540F44"/>
<path d="M127.674 52.6832C124.224 52.6832 121.37 53.7944 119.082 56.0168C116.801 58.2129 115.632 61.0468 115.632 64.512C115.632 67.9968 116.801 70.8439 119.125 73.0992C121.442 75.3479 124.304 76.4854 127.732 76.4854C131.24 76.4854 134.138 75.3807 136.426 73.1715C138.779 70.9556 139.934 68.0428 139.934 64.4594C139.934 60.9614 138.779 58.1275 136.426 55.9445C134.138 53.7813 131.24 52.6832 127.674 52.6832ZM139.418 44.3853H150.596V84.6978H139.418V80.4371C137.232 82.3241 135.046 83.6589 132.867 84.4939C130.666 85.3224 128.291 85.7301 125.72 85.7301C119.968 85.7301 115.007 83.7181 110.802 79.6809C106.618 75.6372 104.505 70.6203 104.505 64.6172C104.505 58.4036 106.56 53.2947 110.591 49.3167C114.658 45.3453 119.583 43.353 125.401 43.353C128.066 43.353 130.579 43.8001 132.918 44.7272C135.257 45.6478 137.421 46.9891 139.418 48.8302V44.3853Z" fill="#540F44"/>
<path d="M161.128 44.3853H172.313V48.5145C174.848 46.5814 177.143 45.2467 179.191 44.484C181.254 43.7278 183.353 43.353 185.517 43.353C189.919 43.353 193.674 44.747 196.761 47.5348C199.346 49.9019 200.639 53.4131 200.639 58.0551V84.6978H189.592V67.05C189.592 62.237 189.331 59.048 188.873 57.4699C188.394 55.8853 187.558 54.6755 186.382 53.8536C185.198 53.0383 183.723 52.6043 181.995 52.6043C179.721 52.6043 177.797 53.3013 176.17 54.6623C174.565 56.0366 173.424 57.9236 172.8 60.3433C172.466 61.6057 172.313 64.341 172.313 68.5294V84.6978H161.128V44.3853Z" fill="#540F44"/>
<path d="M251.154 52.6832C247.69 52.6832 244.828 53.7944 242.526 56.0168C240.252 58.2129 239.119 61.0468 239.119 64.512C239.119 67.9968 240.281 70.8439 242.606 73.0992C244.923 75.3479 247.791 76.4854 251.191 76.4854C254.684 76.4854 257.611 75.3807 259.921 73.1715C262.216 70.9556 263.385 68.0428 263.385 64.4594C263.385 60.9614 262.216 58.1275 259.921 55.9445C257.611 53.7813 254.684 52.6832 251.154 52.6832ZM262.892 44.3853H274.069V84.6978H262.892V80.4371C260.72 82.3241 258.519 83.6589 256.347 84.4939C254.147 85.3224 251.764 85.7301 249.208 85.7301C243.455 85.7301 238.48 83.7181 234.275 79.6809C230.077 75.6372 227.978 70.6203 227.978 64.6172C227.978 58.4036 230.019 53.2947 234.064 49.3167C238.146 45.3453 243.063 43.353 248.888 43.353C251.532 43.353 254.06 43.8001 256.391 44.7272C258.73 45.6478 260.88 46.9891 262.892 48.8302V44.3853Z" fill="#540F44"/>
<path d="M330.722 44.3853H341.893V49.0274C343.81 47.1206 345.916 45.6938 348.255 44.7535C350.616 43.8264 353.129 43.353 355.903 43.353C358.678 43.353 361.205 43.9711 363.428 45.2138C365.687 46.4236 367.502 48.2252 368.853 50.612C370.604 48.2252 372.79 46.4236 375.383 45.2138C377.947 43.9711 380.772 43.353 383.83 43.353C386.989 43.353 389.8 44.0237 392.197 45.3585C394.587 46.6932 396.301 48.4291 397.361 50.5594C398.414 52.7292 398.937 56.2141 398.937 61.06V84.6978H387.701V64.2555C387.701 59.6792 387.069 56.5757 385.798 54.9714C384.542 53.3539 382.682 52.5451 380.155 52.5451C378.252 52.5451 376.516 53.0448 375.02 54.0245C373.502 55.0108 372.383 56.385 371.635 58.1143C370.909 59.8633 370.531 62.6512 370.531 66.5108V84.6978H359.28V65.1695C359.28 61.5663 359.012 58.9559 358.416 57.345C357.806 55.7078 356.934 54.5177 355.758 53.7287C354.581 52.9396 353.179 52.5451 351.487 52.5451C349.642 52.5451 347.935 53.0448 346.439 54.0443C344.899 55.0371 343.774 56.4442 343.018 58.2458C342.263 60.054 341.893 62.8879 341.893 66.7673V84.6978H330.722V44.3853Z" fill="#540F44"/>
<path d="M413.202 27.7827C415.134 27.7827 416.826 28.4271 418.228 29.7092C419.637 30.9914 420.334 32.5563 420.334 34.3908C420.334 36.1792 419.637 37.731 418.25 39.0066C416.863 40.2624 415.207 40.9199 413.267 40.9199C411.284 40.9199 409.607 40.2558 408.198 38.9605C406.803 37.6586 406.099 36.0806 406.099 34.2395C406.099 32.4577 406.774 30.9454 408.169 29.6764C409.556 28.4205 411.226 27.7827 413.202 27.7827Z" fill="#540F44"/>
<path d="M407.602 44.3789H418.795V84.6979H407.602V44.3789Z" fill="#540F44"/>
<path d="M441.543 108.342C441.405 107.717 441.216 107.185 440.962 106.737C440.736 106.31 440.38 105.902 439.93 105.508C439.509 105.133 438.942 104.804 438.318 104.528C437.671 104.285 436.996 104.153 436.262 104.153C435.536 104.153 434.868 104.272 434.236 104.515C433.64 104.752 433.081 105.067 432.631 105.429C432.195 105.81 431.825 106.238 431.563 106.711C431.302 107.185 431.091 107.724 430.96 108.342H441.543ZM443.293 109.762H430.96C431.026 110.42 431.2 111.011 431.461 111.518C431.716 112.024 432.101 112.484 432.58 112.872C433.037 113.26 433.575 113.589 434.185 113.845C434.831 114.075 435.5 114.194 436.248 114.194C437.323 114.194 438.303 113.937 439.168 113.405C440.046 112.892 440.7 112.195 441.07 111.301H442.923C442.618 112.057 442.254 112.668 441.819 113.155C441.107 113.937 440.279 114.549 439.298 114.976C438.347 115.404 437.308 115.607 436.175 115.607C434.221 115.607 432.594 114.996 431.214 113.766C429.856 112.543 429.203 111.064 429.203 109.289C429.203 108.112 429.5 107.014 430.139 105.994C430.764 104.975 431.636 104.186 432.776 103.601C433.902 103.016 435.057 102.74 436.27 102.74C437.461 102.74 438.608 103.016 439.741 103.601C440.838 104.186 441.739 104.988 442.371 106.008C442.995 107.04 443.308 108.112 443.308 109.229L443.293 109.762Z" fill="#540F44"/>
<path d="M444.818 111.682H446.547C446.569 112.208 446.663 112.636 446.801 112.925C446.99 113.352 447.259 113.668 447.644 113.878C448.007 114.089 448.472 114.194 449.031 114.194C449.786 114.194 450.404 114.01 450.847 113.609C451.304 113.214 451.5 112.695 451.5 112.05C451.5 111.492 451.312 111.031 450.963 110.65C450.636 110.269 449.873 109.9 448.769 109.545C447.862 109.263 447.237 109.019 446.852 108.789C446.322 108.474 445.915 108.099 445.617 107.678C445.341 107.244 445.211 106.738 445.211 106.159C445.211 105.179 445.574 104.357 446.3 103.713C447.041 103.062 447.927 102.733 449.031 102.733C449.764 102.733 450.433 102.891 451.028 103.22C451.631 103.536 452.089 103.983 452.416 104.548C452.626 104.91 452.742 105.442 452.764 106.08H451.028C450.956 105.442 450.73 104.962 450.367 104.647C449.982 104.311 449.539 104.147 449.002 104.147C448.406 104.147 447.927 104.331 447.527 104.686C447.15 105.035 446.954 105.469 446.954 105.975L447.237 106.882L448.043 107.527C448.319 107.665 448.74 107.823 449.278 108C450.266 108.309 451.006 108.585 451.406 108.842C452.023 109.184 452.474 109.604 452.786 110.084C453.076 110.591 453.214 111.189 453.214 111.939C453.214 112.622 453.069 113.254 452.721 113.826C452.386 114.411 451.9 114.851 451.246 115.154C450.6 115.463 449.873 115.621 449.082 115.621C448.319 115.621 447.658 115.489 447.106 115.233C446.518 114.963 446.068 114.661 445.748 114.286C445.414 113.924 445.16 113.543 445.036 113.142C444.898 112.741 444.818 112.261 444.818 111.682Z" fill="#540F44"/>
<path d="M456.911 115.318V104.469H454.064V103.062H456.911V98.7158H458.647V103.062H461.908V104.469H458.647V115.318H456.911Z" fill="#540F44"/>
<path d="M463.637 109.217C463.637 110.098 463.848 110.946 464.327 111.702C464.77 112.484 465.424 113.096 466.303 113.543C467.167 113.977 468.089 114.194 469.099 114.194C470.065 114.194 471.016 113.99 471.873 113.55C472.723 113.109 473.391 112.511 473.885 111.728C474.379 110.946 474.597 110.098 474.597 109.21C474.597 108.309 474.379 107.448 473.885 106.659C473.391 105.857 472.709 105.245 471.873 104.818C471.031 104.371 470.116 104.154 469.142 104.154C468.605 104.154 468.089 104.219 467.646 104.331C467.167 104.45 466.688 104.627 466.266 104.864C465.823 105.081 465.409 105.39 465.002 105.784C464.596 106.185 464.24 106.692 464.015 107.283C463.753 107.895 463.637 108.533 463.637 109.217ZM476.239 103.062V115.318H474.488V113.155H474.452C474.074 113.635 473.725 113.99 473.42 114.247C472.89 114.641 472.287 114.976 471.554 115.233C470.835 115.489 470 115.621 469.048 115.621C467.646 115.621 466.419 115.325 465.308 114.766C464.233 114.187 463.376 113.392 462.794 112.373C462.177 111.347 461.887 110.301 461.887 109.19C461.887 108.059 462.206 106.981 462.824 105.962C463.477 104.943 464.342 104.154 465.489 103.588C466.608 103.016 467.85 102.733 469.142 102.733C470 102.733 470.791 102.858 471.51 103.095C472.229 103.332 472.847 103.654 473.362 104.068C473.725 104.351 474.089 104.726 474.452 105.199H474.488V103.062H476.239Z" fill="#540F44"/>
<path d="M480.96 109.21C480.96 110.078 481.199 110.9 481.657 111.689C482.129 112.478 482.797 113.096 483.661 113.543C484.54 113.977 485.463 114.194 486.443 114.194C487.438 114.194 488.346 113.983 489.24 113.569C490.118 113.142 490.779 112.537 491.259 111.741C491.716 110.959 491.941 110.097 491.941 109.177C491.941 108.243 491.687 107.402 491.222 106.606C490.75 105.837 490.068 105.225 489.203 104.804C488.324 104.37 487.417 104.153 486.443 104.153C485.448 104.153 484.519 104.37 483.661 104.818C482.804 105.278 482.129 105.896 481.679 106.692C481.199 107.487 480.96 108.329 480.96 109.21ZM479.34 115.318V98.7158H481.069V105.199H481.112C481.49 104.752 481.853 104.403 482.194 104.127C482.528 103.851 482.95 103.601 483.407 103.391C483.887 103.174 484.388 103.016 484.882 102.904C485.412 102.786 485.942 102.733 486.494 102.733C487.489 102.733 488.419 102.904 489.305 103.24C490.169 103.588 490.932 104.022 491.527 104.568C492.138 105.113 492.617 105.712 492.966 106.369C493.459 107.25 493.677 108.204 493.677 109.184C493.677 110.308 493.365 111.366 492.748 112.392C492.116 113.411 491.244 114.194 490.104 114.766C488.978 115.325 487.765 115.621 486.48 115.621C485.637 115.621 484.867 115.509 484.184 115.285C483.509 115.068 482.892 114.779 482.354 114.378C481.969 114.089 481.533 113.688 481.112 113.155H481.069V115.318H479.34Z" fill="#540F44"/>
<path d="M496.038 98.7227H497.766V115.332H496.038V98.7227Z" fill="#540F44"/>
<path d="M500.882 103.062H502.589V115.318H500.882V103.062ZM500.882 98.7227H502.589V101.543H500.882V98.7227Z" fill="#540F44"/>
<path d="M504.695 111.682H506.41C506.453 112.208 506.533 112.636 506.664 112.925C506.86 113.352 507.15 113.668 507.528 113.878C507.877 114.089 508.334 114.194 508.879 114.194C509.678 114.194 510.266 114.01 510.695 113.609C511.167 113.214 511.37 112.695 511.37 112.05C511.37 111.492 511.203 111.031 510.833 110.65C510.499 110.269 509.765 109.9 508.618 109.545C507.731 109.263 507.114 109.019 506.736 108.789C506.184 108.474 505.792 108.099 505.509 107.678C505.204 107.244 505.102 106.738 505.102 106.159C505.102 105.179 505.436 104.357 506.17 103.713C506.903 103.062 507.79 102.733 508.879 102.733C509.613 102.733 510.303 102.891 510.876 103.22C511.494 103.536 511.966 103.983 512.264 104.548C512.474 104.91 512.598 105.442 512.656 106.08H510.913C510.833 105.442 510.622 104.962 510.245 104.647C509.874 104.311 509.417 104.147 508.857 104.147C508.283 104.147 507.79 104.331 507.405 104.686C507.005 105.035 506.809 105.469 506.809 105.975L507.114 106.882L507.928 107.527C508.189 107.665 508.61 107.823 509.17 108C510.165 108.309 510.869 108.585 511.283 108.842C511.893 109.184 512.336 109.604 512.656 110.084C512.946 110.591 513.121 111.189 513.121 111.939C513.121 112.622 512.939 113.254 512.598 113.826C512.264 114.411 511.777 114.851 511.123 115.154C510.491 115.463 509.765 115.621 508.966 115.621C508.189 115.621 507.528 115.489 506.962 115.233C506.402 114.963 505.945 114.661 505.618 114.286C505.277 113.924 505.044 113.543 504.906 113.142C504.754 112.741 504.695 112.261 504.695 111.682Z" fill="#540F44"/>
<path d="M515.118 115.318V98.7158H516.825V104.607H516.905C517.362 104.035 517.943 103.568 518.626 103.24C519.309 102.904 520.159 102.733 521.197 102.733C522.098 102.733 522.926 102.891 523.659 103.187C524.4 103.476 525.061 103.917 525.628 104.489C525.998 104.864 526.26 105.324 526.514 105.856C526.87 106.711 527.044 107.592 527.044 108.579V115.318H525.301V108.579C525.301 107.178 524.901 106.087 524.11 105.298C523.311 104.535 522.279 104.153 521.037 104.153C520.304 104.153 519.657 104.298 519.084 104.581C518.51 104.87 518.045 105.219 517.689 105.639C517.457 105.942 517.246 106.343 517.101 106.843C516.934 107.362 516.825 107.928 516.825 108.579V115.318H515.118Z" fill="#540F44"/>
<path d="M541.353 108.342C541.215 107.717 541.026 107.185 540.764 106.737C540.532 106.31 540.176 105.902 539.726 105.508C539.283 105.133 538.752 104.804 538.113 104.528C537.459 104.285 536.769 104.153 536.058 104.153C535.331 104.153 534.656 104.272 534.06 104.515C533.414 104.752 532.891 105.067 532.448 105.429C531.969 105.81 531.627 106.238 531.373 106.711C531.09 107.185 530.886 107.724 530.763 108.342H541.353ZM543.103 109.762H530.763C530.843 110.42 530.981 111.011 531.249 111.518C531.518 112.024 531.91 112.484 532.368 112.872C532.84 113.26 533.385 113.589 534.024 113.845C534.634 114.075 535.295 114.194 536.021 114.194C537.118 114.194 538.099 113.937 538.977 113.405C539.849 112.892 540.488 112.195 540.873 111.301H542.711C542.406 112.057 542.028 112.668 541.621 113.155C540.909 113.937 540.074 114.549 539.101 114.976C538.135 115.404 537.104 115.607 535.963 115.607C534.031 115.607 532.39 114.996 531.017 113.766C529.673 112.543 528.983 111.064 528.983 109.289C528.983 108.112 529.303 107.014 529.92 105.994C530.567 104.975 531.438 104.186 532.586 103.601C533.697 103.016 534.852 102.74 536.072 102.74C537.249 102.74 538.404 103.016 539.537 103.601C540.648 104.186 541.527 104.988 542.173 106.008C542.805 107.04 543.103 108.112 543.103 109.229V109.762Z" fill="#540F44"/>
<path d="M557.716 109.184C557.716 108.375 557.469 107.559 557.026 106.751C556.583 105.949 555.915 105.33 555.073 104.857C554.186 104.377 553.242 104.147 552.196 104.147C551.201 104.147 550.286 104.37 549.429 104.804C548.579 105.245 547.933 105.837 547.432 106.626C546.952 107.428 546.72 108.289 546.72 109.21C546.72 110.117 546.952 110.979 547.432 111.741C547.911 112.524 548.579 113.129 549.429 113.549C550.293 113.97 551.201 114.2 552.211 114.2C553.206 114.2 554.143 113.97 554.985 113.536C555.857 113.096 556.518 112.484 556.997 111.695C557.469 110.9 557.716 110.084 557.716 109.184ZM559.314 98.7158V115.331H557.607V113.168H557.557C557.172 113.641 556.808 114.01 556.482 114.273C555.915 114.68 555.276 115.009 554.557 115.259C553.823 115.489 553.068 115.607 552.196 115.607C550.177 115.607 548.47 114.989 547.09 113.747C545.674 112.511 544.991 111.018 544.991 109.276C544.991 108.085 545.282 106.981 545.936 105.975C546.567 104.949 547.432 104.153 548.579 103.588C549.712 103.023 550.904 102.733 552.196 102.733C553.417 102.733 554.528 102.983 555.523 103.489C556.264 103.864 556.925 104.417 557.557 105.159H557.607V98.7158H559.314Z" fill="#540F44"/>
<path d="M570.136 115.318V100.228H566.977V98.7158H571.981V115.318H570.136Z" fill="#540F44"/>
<path d="M585.679 104.186C585.679 103.516 585.52 102.832 585.171 102.161C584.808 101.471 584.292 100.938 583.588 100.544C582.898 100.149 582.128 99.952 581.278 99.952C580.472 99.952 579.731 100.136 579.055 100.498C578.351 100.859 577.813 101.372 577.414 102.056C577.029 102.727 576.847 103.443 576.847 104.226C576.847 105.022 577.043 105.738 577.414 106.429C577.828 107.099 578.365 107.606 579.055 107.98C579.745 108.349 580.486 108.533 581.263 108.533C581.924 108.533 582.527 108.401 583.065 108.171C583.602 107.928 584.067 107.606 584.466 107.244C584.822 106.876 585.142 106.409 585.36 105.883C585.592 105.344 585.679 104.805 585.679 104.186ZM580.784 115.318H578.678L582.934 109.69L582.876 109.664C582.338 109.894 581.764 110.025 581.14 110.025C580.297 110.025 579.506 109.887 578.758 109.604C578.024 109.302 577.356 108.921 576.869 108.447C576.353 107.967 575.932 107.428 575.627 106.863C575.206 106.041 574.995 105.179 574.995 104.279C574.995 103.24 575.279 102.26 575.816 101.339C576.368 100.412 577.116 99.7088 578.082 99.2025C579.055 98.7028 580.116 98.4595 581.278 98.4595C582.476 98.4595 583.544 98.7159 584.517 99.2288C585.498 99.7285 586.231 100.458 586.769 101.385C587.27 102.319 587.546 103.279 587.546 104.265C587.546 104.995 587.386 105.692 587.132 106.369C586.849 107.027 586.253 107.967 585.316 109.216L580.784 115.318Z" fill="#540F44"/>
<path d="M589.151 115.319V113.806L595.572 108.217C596.574 107.336 597.3 106.659 597.758 106.199C598.194 105.712 598.521 105.278 598.724 104.818C598.935 104.371 599.044 103.904 599.044 103.45C599.044 102.878 598.869 102.313 598.542 101.747C598.194 101.169 597.722 100.722 597.112 100.413C596.494 100.091 595.84 99.9262 595.121 99.9262C594.562 99.9262 594.09 100.005 593.654 100.163C593.211 100.308 592.848 100.511 592.55 100.748L591.766 101.577C591.555 101.925 591.41 102.274 591.294 102.661C591.192 103.056 591.141 103.516 591.105 104.088H589.282C589.304 103.26 589.391 102.615 589.551 102.155C589.754 101.432 590.124 100.794 590.626 100.255C591.148 99.696 591.788 99.2489 592.579 98.9202C593.386 98.5914 594.235 98.4336 595.172 98.4336C596.988 98.4336 598.477 99.0451 599.595 100.294C600.453 101.261 600.903 102.346 600.903 103.536C600.903 104.022 600.823 104.47 600.685 104.871C600.554 105.278 600.38 105.64 600.177 105.956L599.472 106.81C598.826 107.52 598.179 108.158 597.511 108.737L591.635 113.806H600.772V115.319H589.151Z" fill="#540F44"/>
<path d="M603.961 115.318L611.529 100.228H602.82V98.7158H613.425V100.228L605.907 115.318H603.961Z" fill="#540F44"/>
<path d="M443.576 28.4406C448.777 28.4274 452.11 29.2033 454.645 30.5447C460.659 33.4246 462.322 38.8886 462.293 43.123C462.337 44.4709 462.257 50.9277 455.626 54.7742C465.141 58.4168 466.056 66.7345 466.034 69.2462C465.976 76.2685 462.01 81.0355 455.757 83.4288C453.011 84.277 449.735 84.711 445.842 84.711H429.711V28.4406H443.576ZM445.951 80.5949C448.966 80.5949 451.842 80.2333 454.028 79.5166C458.175 77.8465 461.102 74.8482 461.218 69.233C461.204 64.2096 458.364 60.4223 453.861 58.5878C450.81 57.424 449.031 57.3714 444.136 57.3714H434.505V80.5949H445.951ZM444.136 53.2422C447.6 53.2422 450.266 52.8805 452.045 51.9797C456.606 49.5995 457.449 46.4895 457.5 42.8205C457.514 38.3297 454.725 35.1078 452.045 34.0361C450.542 33.2602 448.639 32.6487 443.576 32.5632H434.505V53.2422H444.136Z" fill="#540F44"/>
<path d="M494.149 85.6774C486.806 85.6774 480.822 83.0802 476.747 79.0891C472.651 75.0914 470.421 69.7523 470.421 64.2752C470.421 58.6534 472.709 53.3012 476.834 49.3561C480.96 45.3978 486.937 42.8467 494.149 42.8467C502.749 42.8598 509.453 46.6208 513.019 50.9276V43.8067H517.646V84.7109H513.019V77.5242C508.792 82.6397 502.168 85.6774 494.215 85.6774H494.149ZM475.055 64.2555C475.207 72.5928 481.286 81.6074 494.396 81.6271C505.538 81.6074 513.215 73.7566 513.251 64.2752C513.215 54.2086 505.015 46.9167 494.149 46.897C483.603 46.9167 475.084 53.939 475.055 64.2555Z" fill="#540F44"/>
<path d="M564.878 84.7111V63.1576C564.878 56.6088 562.931 52.6702 560.026 50.2834C557.019 47.8243 552.879 46.8972 548.703 46.8972C538.411 47.1405 532.608 52.0916 532.513 61.3363V84.7111H527.872V43.8003H532.513V48.8303C536.21 44.8326 542.5 42.8601 548.194 42.8403L548.688 42.8469C554.375 42.8469 559.205 44.2211 562.888 46.9695C567.42 50.4807 569.526 56.0499 569.512 63.1576V84.7111H564.878Z" fill="#540F44"/>
<path d="M57.0545 28.8223C67.3827 28.1911 67.9565 34.477 67.9565 35.2068V48.4624C70.1282 46.7462 72.5177 45.4772 74.7257 44.6356C76.9482 43.7743 79.1926 43.3403 81.4514 43.3403C85.8528 43.3403 89.5933 44.7342 92.6221 47.5024C95.2077 49.9023 96.4933 53.4201 96.4933 58.0556V84.6982H85.4897V67.0307C85.4897 62.3623 85.2427 59.1865 84.7706 57.5427C84.2767 55.8792 83.4415 54.6628 82.2285 53.8343C81.0519 53.0255 79.5993 52.6047 77.8343 52.6047C75.5828 52.6047 73.629 53.2951 72.0166 54.6628C70.3751 56.0107 69.2566 57.8649 68.632 60.1991C68.3124 61.4286 68.1381 64.1836 68.1381 68.5233V84.6982H57.0545V28.8223Z" fill="#540F44"/>
<path d="M325.856 84.6981L308.765 63.3551L323.88 44.3857C323.88 44.3857 312.855 42.7024 308.591 47.8114C305.199 51.6776 302.367 55.3728 302.367 55.3728L293.564 44.3857H280.599L295.91 63.4932L278.674 84.6981C278.674 84.6981 289.78 86.4011 294.087 81.2659C296.701 78.2676 296.011 79.1355 302.323 71.5083L312.891 84.6981H325.856Z" fill="#540F44"/>
<path d="M220.526 35.3051C220.526 34.5687 219.966 28.1645 209.457 28.8154V84.6979H220.562L220.526 35.3051Z" fill="#540F44"/>
<path d="M595.267 63.8084L611.994 43.8067H606.023L584.292 69.9956V31.156C584.292 30.8404 584.038 28.1709 579.651 28.4405V84.7109H584.292V76.9127L592.332 67.2012L607.403 84.7109H613.424L595.267 63.8084Z" fill="#540F44"/>
<path d="M662.516 39.2432L662.756 39.6837L662.886 39.9533C667.15 47.9027 664.288 54.2938 662.814 58.4164L662.756 58.8372C661.84 62.013 661.397 65.1428 661.288 68.1345C661.347 74.6045 662.908 80.5616 664.622 85.1511L664.47 85.3681L664.593 85.6377L664.622 85.7297C663.787 86.9921 663.097 88.5636 662.719 90.5296L662.581 91.7L655.856 78.3063L655.718 78.405L655.732 78.3063L649.057 92.0945L648.89 90.5296C648.527 88.5636 647.837 86.9921 646.973 85.7297L647.024 85.6377C649.856 79.1611 651.476 70.5542 649.464 61.2306C652.144 58.3572 657.751 48.2972 662.516 39.2432Z" fill="#540F44"/>
<path d="M676.948 12.5944C676.948 12.5944 677.696 12.4366 678.117 12.8968C678.538 13.3374 678.502 13.5083 678.996 13.653C678.996 13.653 678.037 14.0015 677.58 13.2979C677.042 12.5944 676.948 12.5944 676.948 12.5944ZM673.113 9.30021C673.113 9.30021 674.507 9.22788 674.74 10.3851C674.856 11.2333 674.507 11.4371 674.958 12.1341C674.958 12.1341 674.166 12.0749 673.803 11.6541C673.265 11.0295 673.621 9.56979 673.113 9.30021ZM678.938 9.30021C678.466 9.56979 678.8 11.0295 678.262 11.6541C677.892 12.0749 677.137 12.1341 677.137 12.1341C677.594 11.4371 677.217 11.2333 677.333 10.3851C677.594 9.22788 678.938 9.30021 678.938 9.30021ZM676.069 14.3434L675.321 13.5412C675.321 13.5412 674.689 12.693 676.069 12.693C677.384 12.693 676.795 13.5083 676.795 13.5083L676.069 14.3434ZM676.069 9.35939L676.868 10.8388C676.868 10.8388 677.58 12.3314 676.069 12.3314C674.587 12.3314 675.234 10.8783 675.234 10.8783L676.069 9.35939ZM675.168 12.5944C675.168 12.5944 675.074 12.5944 674.573 13.2979C674.064 14.0015 673.149 13.653 673.149 13.653C673.629 13.5083 673.592 13.3374 674.021 12.8968C674.457 12.4366 675.168 12.5944 675.168 12.5944Z" fill="#540F44"/>
<path d="M655.769 82.9751L650.19 94.4751C650.19 94.4751 645.978 105.548 655.769 105.548C665.77 105.548 661.136 94.2581 661.136 94.2581L655.769 82.9751Z" fill="#540F44"/>
<mask id="mask0_69_239" style="mask-type:luminance" maskUnits="userSpaceOnUse" x="649" y="106" width="14" height="15">
<path d="M649.246 106.048H662.262V120H649.246V106.048Z" fill="white"/>
</mask>
<g mask="url(#mask0_69_239)">
<path d="M655.718 120L660.766 113.51C660.766 113.51 664.6 107.244 655.718 107.244C646.595 107.244 650.851 113.635 650.851 113.635L655.718 120Z" fill="#540F44"/>
</g>
<path d="M674.965 82.469C674.965 82.469 665.864 82.0285 664.237 90.7735C663.446 97.1843 665.864 98.7821 662.843 104.266C662.843 104.266 668.029 103.694 670.44 100.551C674.144 95.7443 671.864 84.606 674.965 82.469Z" fill="#540F44"/>
<path d="M636.361 82.469C636.361 82.469 645.419 82.0285 647.046 90.7735C647.852 97.1843 645.419 98.7821 648.433 104.266C648.433 104.266 643.276 103.694 640.894 100.551C637.153 95.7443 639.434 84.606 636.361 82.469Z" fill="#540F44"/>
<path d="M661.702 106.508C661.702 106.508 666.489 105.443 669.387 108.842C672.278 112.208 672.023 113.464 675.168 114.727C675.168 114.727 669.147 117.265 665.77 111.899C662.385 106.508 661.702 106.508 661.702 106.508Z" fill="#540F44"/>
<path d="M649.943 106.508C649.943 106.508 645.193 105.443 642.274 108.842C639.361 112.208 639.601 113.464 636.456 114.727C636.456 114.727 642.521 117.265 645.891 111.899C649.275 106.508 649.943 106.508 649.943 106.508Z" fill="#540F44"/>
<path d="M657.788 3.31024C661.071 4.07954 661.376 6.92659 661.412 7.44603C660.359 6.90686 658.841 6.56496 657.17 6.56496C655.391 6.56496 653.837 6.78194 652.783 7.36055L652.457 7.53151C652.929 4.16501 656.153 3.22476 656.153 3.22476V0.371133C657.098 -0.463916 657.788 0.371133 657.788 0.371133V3.31024Z" fill="#540F44"/>
<path d="M656.618 8.03078C656.618 8.03078 659.938 7.57052 660.686 10.0033C661.492 12.4625 660.845 12.5677 663.155 15.0136C665.479 17.4662 664.324 19.1034 663.671 18.9785C663.024 18.8733 661.223 16.8875 660.352 17.3675C659.465 17.8146 658.521 19.5702 656.618 19.4453C654.686 19.3335 653.372 16.9862 652.493 17.2097C651.585 17.4662 649.958 18.7746 649.66 18.8733C649.174 19.0442 647.089 18.2683 648.752 15.8355C650.43 13.3764 650.786 15.2438 652.326 11.8773C653.909 8.49104 654.309 8.14256 656.618 8.03078Z" fill="#540F44"/>
<path d="M636.514 12.5944C636.514 12.5944 637.233 12.4366 637.683 12.8968C638.119 13.3374 638.054 13.5083 638.548 13.653C638.548 13.653 637.618 14.0015 637.124 13.2979C636.601 12.5944 636.514 12.5944 636.514 12.5944ZM632.664 9.30021C632.664 9.30021 634.052 9.22788 634.306 10.3851C634.437 11.2333 634.052 11.4371 634.524 12.1341C634.524 12.1341 633.739 12.0749 633.369 11.6541C632.832 11.0295 633.144 9.56979 632.664 9.30021ZM638.504 9.30021C638.032 9.56979 638.366 11.0295 637.821 11.6541C637.458 12.0749 636.674 12.1341 636.674 12.1341C637.153 11.4371 636.783 11.2333 636.884 10.3851C637.153 9.22788 638.504 9.30021 638.504 9.30021ZM635.613 14.3434L634.887 13.5412C634.887 13.5412 634.248 12.693 635.613 12.693C636.935 12.693 636.361 13.5083 636.361 13.5083L635.613 14.3434ZM635.613 9.35939L636.412 10.8388C636.412 10.8388 637.124 12.3314 635.613 12.3314C634.153 12.3314 634.785 10.8783 634.785 10.8783L635.613 9.35939ZM634.734 12.5944C634.734 12.5944 634.655 12.5944 634.153 13.2979C633.638 14.0015 632.708 13.653 632.708 13.653C633.187 13.5083 633.137 13.3374 633.601 12.8968C634.023 12.4366 634.734 12.5944 634.734 12.5944Z" fill="#540F44"/>
<path d="M648.839 58.5616L648.832 58.4169C647.343 54.2943 644.46 47.9032 648.738 39.9538L648.839 39.6776C649.275 38.9215 649.697 38.1193 650.118 37.1594C650.706 35.818 649.66 34.0887 648.927 33.0038L661.949 21.5762L668.065 23.5356L667.782 24.2654C663.961 32.0307 653.219 53.4066 648.839 58.5616Z" fill="#540F44"/>
<path d="M670.643 35.0291C669.3 35.6603 667.201 36.3047 666.787 36.4296L667.324 38.1984C667.324 38.8887 667.411 39.6317 667.607 40.3879C668.544 43.7478 672.154 47.6469 672.459 49.8627C672.757 52.0851 673.28 54.9322 674.108 55.5634C674.936 56.2012 675.873 52.6243 675.953 51.4408C676.076 50.2835 676.999 51.8616 677.311 50.9279L677.333 50.7701C677.543 49.8299 674.108 48.6332 673.069 44.2409C672.307 40.789 671.057 36.4954 670.643 35.0291ZM678.923 17.7298C678.451 15.9545 676.236 14.7578 675.793 15.4022C675.793 15.4022 674.733 16.349 675.067 17.7298C675.444 19.0843 675.895 21.1029 675.19 22.1483C674.573 23.128 671.239 25.7581 669.416 26.8299L668.799 27.1389C667.978 28.7827 666.903 30.8539 665.712 33.1683L666.133 34.3453L666.322 34.8582L666.373 35.0028C666.729 34.9042 668.305 34.4636 670.295 33.5957L670.171 33.0368C669.953 32.3662 669.946 32.0637 669.772 31.2484L670.026 31.1169C670.701 30.8933 671.406 30.558 672.023 30.0714C674.275 28.3487 676.846 24.8902 678.103 21.1029C678.785 19.0317 678.785 19.275 678.785 19.275C678.785 19.2026 679.083 18.4334 678.923 17.7298Z" fill="#540F44"/>
<path d="M659.727 20.9053C654.396 20.4385 648.796 21.7207 646.799 24.1995C646.363 24.6992 645.825 26.4811 645.36 28.3484C643.668 27.612 642.288 26.7375 642.288 26.7375C640.472 25.6658 637.153 23.0423 636.514 22.0626C635.802 21.0171 636.282 18.9985 636.63 17.6506C636.957 16.2633 635.926 15.3362 635.926 15.3362C635.504 14.6721 633.275 15.8687 632.795 17.6506C632.606 18.3476 632.933 19.1037 632.933 19.1892C632.933 19.1892 632.911 18.9459 633.616 21.0171C634.887 24.811 637.429 28.2695 639.666 29.9725C640.16 30.3539 641.7 31.2349 644.511 32.1489C644.38 32.813 644.286 33.3193 644.227 33.5954C645.012 34.0491 647.801 34.9894 647.801 34.9894C648.062 33.6546 648.491 31.4782 648.564 31.018L648.578 30.9193L659.938 20.9119L659.727 20.9053ZM644.039 34.9631L643.886 35.6337V35.66L643.654 36.7449C643.458 37.2907 643.305 37.7049 643.305 37.7049C642.012 39.5854 637.85 45.3847 636.521 45.5425C634.887 45.753 633.253 43.8724 633.253 43.8724C630.013 42.2681 626.97 44.622 626.404 45.4439C625.815 46.3118 627.66 46.3118 629.745 46.6932C631.858 47.1403 633.725 48.6 637.458 47.2389C640.523 46.0949 644.162 42.7941 645.942 40.7755C646.203 40.6177 646.435 40.2692 646.624 39.855C646.74 39.5723 647.104 38.0797 647.372 37.0474L647.51 36.3767C645.782 35.7587 644.039 34.9631 644.039 34.9631Z" fill="#540F44"/>
</svg>
