<svg width="679" height="200" viewBox="0 0 679 200" fill="none" xmlns="http://www.w3.org/2000/svg">
<path d="M678.996 0H0.607689V200H678.996V0Z" fill="#00468D"/>
<path d="M678.718 179.863H0.329529V199.725H678.718V179.863Z" fill="#F6A500"/>
<path d="M151.917 111.449L155.255 111.725L154.142 120.829H150.804L151.917 111.449Z" fill="white"/>
<path d="M101.017 60.9653L99.9044 70.8964H79.8781L78.2093 84.4136H98.2355L96.8448 94.0688H76.8186L72.9246 120.552H61.5208L69.5869 60.9653H101.017Z" fill="white"/>
<path d="M107.136 60.9653L99.3481 120.827C99.3481 120.827 133.56 121.379 133.56 120.827C133.56 120.276 134.672 111.448 134.672 111.448H111.864L114.09 94.3446H137.175L138.566 84.4136H115.758L117.705 70.8964H140.513L141.904 61.2412H107.136V60.9653Z" fill="white"/>
<path d="M201.148 60.9653L193.36 120.827C193.36 120.827 227.571 121.379 227.571 120.827C227.571 120.276 228.684 111.448 228.684 111.448H205.876L208.102 94.3446H231.187L232.578 84.4136H209.77L211.717 70.8964H234.525L235.916 61.2412H201.148V60.9653Z" fill="white"/>
<path d="M148.857 60.9653L141.069 120.827H152.473L159.149 70.6205H167.493C175.281 70.8964 181.678 76.4136 183.069 84.1377V84.4136C186.407 98.2067 176.393 110.069 167.215 111.172C162.764 111.448 158.314 111.448 154.142 111.448L153.029 120.827C153.029 120.827 167.771 122.483 177.228 117.793C177.228 117.793 194.751 111.724 194.473 86.8964C194.473 86.8964 193.36 63.9998 164.433 61.2412L148.857 60.9653Z" fill="white"/>
<path d="M242.869 61.2422L234.803 121.104H246.485L253.161 70.8974C253.161 70.8974 264.564 68.9663 265.955 75.0353C265.955 75.0353 269.015 88.2767 253.161 87.7249L251.214 96.5525L265.677 121.38H277.637L262.896 95.7249C262.896 95.7249 275.69 93.7939 276.803 78.0698C276.803 78.0698 277.081 62.3456 259.28 61.518H242.869V61.2422Z" fill="white"/>
<path d="M250.935 87.1724L257.333 87.4482L251.492 96.2758H249.823L250.935 87.1724Z" fill="white"/>
<path d="M279.306 120.828L318.524 58.4829L338.55 120.828H326.312L315.464 83.3105L292.379 120.828H279.306Z" fill="white"/>
<path d="M299.61 108.138H323.252L320.471 98.4829H305.173L299.61 108.138Z" fill="white"/>
<path d="M349.12 61.2412L340.775 120.827H372.205L373.318 111.172H353.848L360.245 60.9653L349.12 61.2412Z" fill="white"/>
<path d="M440.906 120.828L480.124 58.4829L500.151 120.828H488.191L477.065 83.3105L454.257 120.828H440.906Z" fill="white"/>
<path d="M461.489 108.138H484.853L482.071 98.4829H466.774L461.489 108.138Z" fill="white"/>
<path d="M409.476 61.2422L401.688 121.104H413.648L420.602 70.8974L420.88 70.0698C420.88 70.0698 427.834 69.5181 430.337 73.1043C430.337 73.1043 435.344 81.3801 424.774 85.5181L418.099 85.7939L416.43 94.6215C416.43 94.6215 423.383 94.0698 425.33 95.1732C425.33 95.1732 436.734 97.656 429.781 109.518C429.781 109.518 426.721 113.38 415.317 112.001H414.205L413.648 113.932L410.311 121.104C410.311 121.104 413.37 121.104 419.768 121.656C419.768 121.656 435.065 121.656 440.35 114.208C440.35 114.208 450.363 100.966 435.344 90.4836C435.344 90.4836 444.8 83.587 442.297 74.4836C442.297 74.4836 441.185 62.8974 425.33 61.7939L409.476 61.2422Z" fill="white"/>
<path d="M512.389 58.4829L504.601 120.828H515.727L521.289 80.276L560.507 121.655L568.852 60.9657H556.892L552.163 97.6553L512.389 58.4829Z" fill="white"/>
<path d="M576.083 60.9653L568.017 120.827H579.977L588.044 60.9653H576.083Z" fill="white"/>
<path d="M607.513 60.9653H620.586L582.481 97.9309L584.15 82.7584L607.513 60.9653Z" fill="white"/>
<path d="M584.706 94.8965L605.567 120.828H619.195L593.328 86.8965L584.706 94.8965Z" fill="white"/>
<path d="M71.2558 143.724C70.1432 142.069 69.0306 140.138 67.6399 137.931L65.6929 134.897L63.7459 132.138C63.4678 131.586 63.1896 131.311 63.1896 131.311C63.7459 131.311 64.5804 131.311 65.1366 131.311C65.6929 131.311 66.5274 131.311 67.0836 131.311C67.3618 131.862 67.6399 132.414 67.9181 132.966C68.1962 133.517 68.4743 134.069 69.3088 135.173L70.4213 137.38C71.5339 139.035 72.6465 140.69 73.4809 142.069C74.3153 140.966 75.1498 139.311 76.2623 137.655L77.653 135.173C78.2093 134.345 78.4875 133.517 78.7656 133.242C79.0437 132.69 79.3219 132.138 79.6 131.586C80.1563 131.586 80.7126 131.586 80.9907 131.586C81.547 131.586 81.8252 131.586 82.3814 131.586C82.3814 131.586 82.1033 131.862 81.547 132.414L79.6 135.173L77.653 138.207C76.2623 140.138 75.1498 142.069 74.3153 143.449V145.104C74.3153 147.586 74.3153 149.242 74.3153 150.345C74.3153 151.173 74.3153 152 74.5935 152.828C74.0372 152.828 73.4809 152.828 72.9246 152.828C72.3683 152.828 71.8121 152.828 71.2558 152.828C71.2558 152.276 71.2558 151.173 71.5339 150.345C71.812 149.517 71.5339 147.586 71.5339 145.104L71.2558 143.724Z" fill="white"/>
<path d="M97.123 152.829C100.461 152.829 103.798 151.725 106.024 149.518C108.249 147.311 109.639 144.277 109.361 141.242C109.361 138.208 108.249 135.449 106.024 133.518C103.52 131.587 100.461 130.484 97.123 130.484C93.7853 130.208 90.4475 131.587 88.2224 133.518C85.9973 135.725 84.6066 138.76 84.8847 141.794C84.8847 144.829 85.9973 147.587 88.2224 149.518C90.4475 151.725 93.7853 152.829 97.123 152.829ZM97.123 151.449C94.6197 151.449 92.3945 150.622 90.7257 148.967C89.0568 147.036 88.2224 144.553 88.2224 142.07C88.2224 139.311 89.0568 136.829 90.7257 134.898C92.3945 132.967 94.6197 132.139 97.123 132.139C99.6262 132.139 101.851 132.967 103.52 134.622C105.189 136.553 106.024 139.036 106.024 141.518C106.024 144.277 105.189 146.76 103.52 148.691C101.851 150.346 99.6262 151.449 97.123 151.449Z" fill="white"/>
<path d="M134.116 142.898C134.394 145.656 133.559 148.139 131.613 150.07C129.666 151.725 127.162 152.829 124.659 152.553C122.156 152.829 119.652 152.001 117.705 150.346C116.037 148.691 115.202 146.208 115.48 143.725V141.518V134.346C115.48 132.967 115.48 132.139 115.48 131.587C115.48 131.311 115.48 130.76 115.48 130.484C116.037 130.484 116.593 130.484 117.149 130.484C117.705 130.484 118.262 130.484 118.818 130.484C118.818 130.76 118.818 131.311 118.818 131.587C118.818 132.139 118.818 132.967 118.818 134.346C118.818 136.553 118.818 138.76 118.818 141.518V142.898C118.54 145.105 119.374 147.311 120.487 148.967C121.878 150.346 123.825 151.174 125.772 150.898C127.719 151.174 129.666 150.346 131.056 148.691C132.447 146.76 133.003 144.553 132.725 142.07V141.518V134.346C132.725 132.967 132.725 132.139 132.725 131.587C132.725 131.036 132.725 130.76 132.725 130.484C133.003 130.484 133.56 130.484 133.838 130.484C134.116 130.484 134.672 130.484 134.95 130.484C134.95 131.036 134.672 131.311 134.672 131.863C134.672 132.415 134.672 133.242 134.672 134.346C134.672 136.553 134.672 138.76 134.672 141.518L134.116 142.898Z" fill="white"/>
<path d="M141.069 151.449C141.069 151.725 141.069 152.277 141.069 152.553C141.626 152.553 142.182 152.553 142.738 152.553C143.294 152.553 143.851 152.553 144.407 152.553C144.407 152.277 144.407 152.001 144.407 151.449C144.407 150.898 144.407 150.07 144.407 148.691C144.407 146.76 144.407 144.553 144.407 142.07H144.963C146.076 143.449 147.467 144.829 148.857 146.484L150.804 148.691L152.751 150.898C153.029 151.449 153.586 152.001 153.864 152.553C154.42 152.553 155.255 152.553 155.811 152.553C156.367 152.553 157.202 152.553 158.036 152.553C157.758 152.277 157.48 152.001 157.202 151.725C156.645 151.174 155.811 150.346 154.698 148.691L153.029 146.484C151.361 144.553 150.248 143.174 149.135 141.518C150.526 141.243 151.917 140.967 153.308 140.139C154.976 139.311 156.089 137.656 156.089 135.725C156.089 134.346 155.533 132.691 154.142 131.863C152.473 130.76 150.526 130.484 148.579 130.484H147.189H144.963H143.295H140.791C140.791 130.76 140.791 131.311 140.791 131.587C140.791 132.139 140.791 132.967 140.791 134.346C140.791 136.277 140.791 138.76 140.791 141.242C140.791 143.725 140.791 146.208 140.791 148.139C140.791 149.794 140.791 150.898 141.069 151.449ZM143.851 132.415C144.685 132.415 145.52 132.415 146.632 132.415C148.023 132.415 149.414 132.691 150.526 133.518C151.361 134.07 151.917 135.174 151.917 136.277C151.917 137.656 151.361 138.76 149.97 139.311C148.579 140.139 146.91 140.691 145.241 140.415C144.685 140.415 144.129 140.415 143.851 140.415V132.415Z" fill="white"/>
<path d="M171.665 151.449C171.665 152.001 171.665 152.277 171.665 152.553C172.221 152.553 172.778 152.553 173.334 152.553C173.89 152.553 174.446 152.553 175.003 152.553C175.003 152.277 175.003 151.725 175.003 151.449C175.003 150.898 175.003 150.07 175.003 148.691C175.003 146.76 175.003 144.829 175.003 142.622C175.837 142.622 176.95 142.622 177.784 142.622C180.009 142.898 182.234 142.07 184.181 140.967C185.572 139.863 186.407 138.208 186.407 136.277C186.407 134.622 185.85 133.243 184.46 132.139C182.791 131.036 180.566 130.76 178.619 130.76H177.228H175.559H171.387C171.387 131.036 171.387 131.312 171.387 131.863C171.387 132.415 171.387 133.243 171.387 134.622C171.387 136.553 171.387 139.036 171.387 141.518C171.387 144.001 171.387 146.484 171.387 148.415C171.387 149.794 171.387 150.622 171.665 151.449ZM174.446 132.415C175.281 132.415 176.393 132.415 177.228 132.415C178.619 132.415 180.009 132.691 181.4 133.518C182.234 134.346 182.791 135.449 182.791 136.553C182.791 137.932 182.234 139.036 181.122 139.863C179.731 140.691 178.34 141.243 176.672 141.243C175.837 141.243 175.281 141.243 174.446 141.243V132.415Z" fill="white"/>
<path d="M190.022 152.553C190.022 152.277 190.022 152.001 190.022 151.449C190.022 150.898 190.022 150.07 190.022 148.691C190.022 146.484 190.022 144.277 190.022 141.518C190.022 138.76 190.022 136.553 190.022 134.346C190.022 132.967 190.022 132.139 190.022 131.587C190.022 131.036 190.022 130.76 190.022 130.484L191.969 130.76H194.751H197.254H200.035C200.87 130.76 201.426 130.76 201.982 130.484C201.982 131.311 201.982 131.863 201.982 132.691C201.426 132.691 200.592 132.415 200.035 132.415H197.254H196.142C195.029 132.415 194.195 132.415 193.36 132.415V140.139H196.142H199.201C200.035 140.139 200.592 140.139 201.426 139.863C201.426 140.139 201.426 140.691 201.426 140.967C201.426 141.242 201.426 141.794 201.426 142.07C201.148 142.07 200.314 142.07 199.201 141.794H196.142H193.36C193.36 145.105 193.36 148.139 193.36 150.622H196.698C197.81 150.622 198.645 150.622 199.757 150.622C200.592 150.622 201.148 150.622 201.982 150.346C201.982 150.622 201.982 151.174 201.982 151.449C201.982 151.725 201.982 152.277 201.982 152.553C201.148 152.553 200.592 152.277 199.757 152.277H196.976H194.473H191.969L190.022 152.553Z" fill="white"/>
<path d="M207.823 151.449C207.823 151.725 207.823 152.277 207.823 152.553C208.38 152.553 208.936 152.553 209.492 152.553C210.049 152.553 210.605 152.553 211.161 152.553C211.161 152.277 211.161 151.725 211.161 151.449C211.161 150.898 211.161 150.07 211.161 148.691C211.161 146.76 211.161 144.553 211.161 142.07H212.274C213.386 143.449 214.777 144.829 216.168 146.484L218.115 148.691L220.062 150.898C220.34 151.449 220.896 152.001 221.174 152.553C221.731 152.553 222.565 152.553 223.399 152.553C224.234 152.553 224.79 152.553 225.346 152.553C225.068 152.277 224.79 152.001 224.512 151.725C223.956 151.174 223.121 150.346 222.009 148.691L220.34 146.484C218.671 144.553 217.558 143.174 216.446 141.518C217.837 141.243 219.227 140.967 220.618 140.139C222.287 139.311 223.399 137.656 223.399 135.725C223.399 134.346 222.843 132.691 221.452 131.863C219.784 130.76 217.837 130.484 215.89 130.484H214.499H212.83H210.883H208.38C208.38 130.76 208.38 131.311 208.38 131.587C208.38 132.139 208.38 132.967 208.38 134.346C208.38 136.277 208.38 138.76 208.38 141.242C208.38 143.725 208.38 146.208 208.38 148.139C207.823 149.794 207.823 150.898 207.823 151.449ZM210.605 132.415C211.439 132.415 212.274 132.415 213.386 132.415C214.777 132.415 216.168 132.691 217.28 133.518C218.115 134.07 218.671 135.174 218.671 136.277C218.671 137.656 218.115 138.76 217.002 139.311C215.611 140.139 213.943 140.691 212.274 140.415C211.717 140.415 211.161 140.415 210.883 140.415V132.415H210.605Z" fill="white"/>
<path d="M228.406 148.69C228.406 146.483 228.406 144.276 228.406 141.793C228.406 139.311 228.406 136.828 228.406 134.897C228.406 133.517 228.406 132.69 228.406 132.138C228.406 131.586 228.406 131.311 228.406 131.035L230.631 131.311H233.969H235.916H238.697C239.532 131.311 240.088 131.311 240.644 131.035C240.644 131.311 240.644 131.862 240.644 132.138C240.644 132.414 240.644 132.966 240.644 133.242C240.088 133.242 239.253 132.966 238.697 132.966H235.916H234.525C233.412 132.966 232.578 132.966 231.465 132.966C231.465 135.173 231.465 137.655 231.465 140.69H234.803C235.916 140.69 236.75 140.69 237.863 140.69C238.419 140.69 239.253 140.69 239.81 140.414C239.81 140.69 239.81 141.242 239.81 141.517C239.81 141.793 239.81 142.345 239.81 142.621C239.253 142.621 238.419 142.345 237.863 142.345C236.75 142.345 235.638 142.345 234.803 142.345H231.465C231.465 144.828 231.465 147.035 231.465 149.242C231.465 150.621 231.465 151.448 231.465 152C231.465 152.276 231.465 152.828 231.465 153.104C230.909 153.104 230.353 153.104 229.797 153.104C229.24 153.104 228.684 153.104 228.128 153.104C228.128 152.828 228.128 152.552 228.128 152C228.128 151.448 228.128 150.621 228.128 149.242" fill="white"/>
<path d="M245.373 152.553C245.373 152.277 245.373 152.001 245.373 151.449C245.373 150.898 245.373 150.07 245.373 148.691C245.373 146.484 245.373 144.277 245.373 141.518C245.373 138.76 245.373 136.553 245.373 134.346C245.373 132.967 245.373 132.139 245.373 131.587C245.373 131.036 245.373 130.76 245.373 130.484L247.32 130.76H250.101H252.604H255.386C256.22 130.76 256.776 130.76 257.333 130.484C257.333 131.311 257.333 131.863 257.333 132.691C256.776 132.691 255.942 132.415 255.386 132.415H252.604H251.492C250.379 132.415 249.545 132.415 248.71 132.415V140.139H251.492H254.551C255.386 140.139 255.942 140.139 256.776 139.863C256.776 140.139 256.776 140.691 256.776 140.967C256.776 141.242 256.776 141.794 256.776 142.07C256.498 142.07 255.664 142.07 254.551 141.794H251.492H248.71C248.71 145.105 248.71 148.139 248.71 150.622H252.048C253.161 150.622 253.995 150.622 255.108 150.622C255.942 150.622 256.498 150.622 257.333 150.346C257.333 150.622 257.333 151.174 257.333 151.449C257.333 151.725 257.333 152.277 257.333 152.553C256.498 152.553 255.942 152.277 255.108 152.277H252.326H249.823H247.32L245.373 152.553Z" fill="white"/>
<path d="M280.975 149.242C280.975 149.518 280.697 149.794 280.697 150.07C280.697 150.346 280.697 150.621 280.697 150.897C279.584 151.449 278.472 152.001 277.081 152.277C275.69 152.553 274.299 152.828 273.187 152.553C270.127 152.553 267.068 151.725 264.843 149.518C262.617 147.587 261.505 144.552 261.505 141.794C261.505 138.759 262.617 135.725 264.843 133.518C267.346 131.311 270.405 130.208 273.743 130.484C275.134 130.484 276.246 130.484 277.637 130.759C278.75 131.035 280.14 131.311 281.253 131.863C280.975 132.415 280.975 132.69 280.975 133.242C280.975 133.518 280.697 134.07 280.697 134.621H280.14C279.306 133.794 278.472 133.242 277.359 132.69C276.246 132.139 275.134 131.863 274.021 131.863C271.518 131.863 269.293 132.69 267.624 134.621C265.955 136.553 265.121 139.311 265.121 141.794C265.121 144.277 265.955 146.759 267.624 148.69C269.293 150.346 271.518 151.449 273.743 151.449C275.134 151.449 276.246 151.173 277.637 150.897C278.75 150.346 279.584 149.794 280.975 149.242Z" fill="white"/>
<path d="M290.71 148.691C290.71 146.484 290.71 144.277 290.71 141.794C290.71 138.208 290.71 135.174 290.71 132.691H289.041C287.928 132.691 286.816 132.691 285.703 132.691C284.869 132.691 284.312 132.691 283.478 132.967C283.756 132.139 283.756 131.587 283.478 130.76L287.65 131.036H291.266H292.935H296.551C297.941 131.036 299.332 131.036 300.445 130.76C300.167 131.587 300.167 132.139 300.445 132.967C299.61 132.967 299.054 132.691 298.22 132.691C297.107 132.691 295.994 132.691 294.882 132.691H293.769C293.769 135.174 293.769 138.208 293.769 141.794C293.769 144.277 293.769 146.76 293.769 148.691C293.769 150.07 293.769 150.898 293.769 151.449C293.769 152.001 293.769 152.277 293.769 152.553C293.213 152.553 292.657 152.553 292.1 152.553C291.544 152.553 290.988 152.553 290.432 152.553C290.432 152.277 290.432 152.001 290.432 151.449C290.432 150.898 290.432 149.794 290.71 148.691Z" fill="white"/>
<path d="M317.69 141.793H319.915C321.584 141.793 323.252 142.069 324.643 142.897C325.756 143.448 326.312 144.828 326.312 145.931C326.312 147.31 325.756 148.69 324.643 149.517C323.252 150.345 321.584 150.897 319.637 150.621C319.08 150.621 318.246 150.621 317.69 150.345V141.793ZM314.63 151.448C314.63 151.724 314.63 152.276 314.63 152.552H316.299H320.471C322.696 152.552 325.199 152 327.146 150.897C328.815 150.069 329.65 148.414 329.65 146.483C329.65 144.828 328.815 143.173 327.425 142.069C326.312 141.242 324.921 140.966 323.531 140.69C324.643 140.414 325.756 140.138 326.59 139.586C327.981 138.759 328.815 137.379 328.815 135.724C328.815 134.345 328.259 132.966 326.868 132.138C324.921 131.31 322.974 130.759 321.027 131.035H316.299H314.63C314.63 131.311 314.63 131.862 314.63 132.138C314.63 132.69 314.63 133.517 314.63 134.897C314.63 136.828 314.63 139.31 314.63 141.793C314.63 144.276 314.63 146.759 314.63 148.69C314.63 149.793 314.63 150.897 314.63 151.448ZM317.69 132.69C318.524 132.69 319.358 132.414 320.193 132.414C321.584 132.414 322.974 132.69 324.087 133.517C324.921 134.069 325.477 135.173 325.477 136C325.477 137.104 324.921 138.207 323.809 139.035C322.418 139.862 321.027 140.138 319.637 140.138H317.69V132.69Z" fill="white"/>
<path d="M333.544 151.448C333.265 152 332.987 152.276 332.987 152.552C333.544 152.552 333.822 152.552 334.378 152.552C334.934 152.552 335.212 152.552 335.769 152.552C335.769 152 336.047 151.448 336.325 150.897C336.603 150.345 336.881 149.793 337.159 148.69C337.438 147.862 338.272 145.931 339.106 144.552C340.497 144.276 341.888 144.276 343.279 144.276C344.669 144.276 346.06 144.276 347.451 144.552L349.398 148.69C349.954 149.793 350.232 150.345 350.232 150.897C350.51 151.448 350.51 152 350.788 152.552C351.345 152.552 351.901 152.552 352.457 152.552C353.014 152.552 353.57 152.552 354.404 152.552L352.457 148.69C351.345 146.759 350.51 144.276 349.12 141.793C347.173 137.379 345.504 133.793 344.391 131.035H343.557C342.444 134.069 340.775 137.655 338.55 141.793C337.438 144.276 336.325 146.483 335.212 148.69C334.1 150.069 333.544 150.897 333.544 151.448ZM342.722 135.448L345.504 141.517L345.782 142.345C344.669 142.345 343.557 142.621 342.444 142.621C341.332 142.621 340.219 142.621 339.106 142.345L339.385 141.517L341.053 138.207L342.722 135.448Z" fill="white"/>
<path d="M360.523 148.691C360.523 150.07 360.523 150.898 360.802 151.449C360.802 151.725 360.802 152.277 361.08 152.553C360.802 152.553 360.245 152.553 359.967 152.553C359.689 152.553 359.133 152.553 358.855 152.553C358.855 152.277 358.855 151.725 358.855 151.449C358.855 150.898 358.855 150.07 358.855 148.691C358.855 146.484 358.855 144.277 358.855 141.794C358.855 139.311 358.855 137.105 358.855 134.898C358.855 133.518 358.855 132.691 358.855 132.139C358.855 131.863 358.855 131.312 358.855 131.036H359.967C362.749 134.07 366.364 137.656 370.815 142.07L376.099 147.311V141.794C376.099 139.311 376.099 136.829 376.099 134.622C376.099 133.243 376.099 132.415 376.099 131.863C376.099 131.587 376.099 131.036 376.099 130.76C376.378 130.76 376.934 130.76 377.212 130.76C377.49 130.76 378.046 130.76 378.324 130.76C378.324 131.036 378.324 131.587 378.324 131.863C378.324 132.415 378.324 133.243 378.324 134.622C378.324 136.829 378.324 139.036 378.324 141.794C378.324 146.208 378.324 149.794 378.324 152.553H377.49C374.709 149.518 371.093 145.932 366.643 141.518L361.08 136.277V141.518C360.802 144.277 360.802 146.484 360.523 148.691Z" fill="white"/>
<path d="M387.781 148.415C387.781 149.794 387.781 150.622 387.781 151.174C387.781 151.449 387.781 152.001 387.781 152.277C387.225 152.277 386.669 152.277 386.112 152.277C385.556 152.277 385 152.277 384.444 152.277C384.444 152.001 384.444 151.449 384.444 151.174C384.444 150.622 384.444 149.794 384.444 148.415C384.444 146.208 384.444 144.001 384.444 141.518C384.444 139.036 384.444 136.553 384.444 134.622C384.444 133.243 384.444 132.415 384.444 131.863C384.444 131.587 384.444 131.036 384.444 130.76C385 130.76 385.556 130.76 386.112 130.76C386.669 130.76 387.225 130.76 387.781 130.76C387.781 131.036 387.781 131.587 387.781 131.863C387.781 132.415 387.781 133.243 387.781 134.622C387.781 136.553 387.781 138.484 387.781 140.691C389.172 139.587 390.841 137.932 392.788 136.001C394.735 134.07 396.682 132.139 397.794 130.76H399.463C400.02 130.76 400.576 130.76 401.132 130.76C400.576 131.036 400.298 131.311 400.02 131.587L396.682 134.346L393.9 136.829L390.563 140.139L394.179 144.277L397.794 148.415C399.185 149.794 400.02 150.898 400.576 151.449C400.854 151.725 401.132 152.001 401.41 152.277C400.854 152.277 400.02 152.277 399.185 152.277C398.351 152.277 397.794 152.277 396.96 152.277C396.682 151.725 396.404 151.174 395.847 150.622C395.569 150.07 394.735 149.243 393.9 148.415L392.51 146.76C390.563 144.553 389.172 142.898 387.781 141.518V141.794C387.781 144.277 387.781 146.484 387.781 148.415Z" fill="white"/>
<path d="M405.582 148.415C405.582 146.208 405.582 144.001 405.582 141.518C405.582 139.036 405.582 136.553 405.582 134.622C405.582 133.243 405.582 132.415 405.582 131.863C405.582 131.312 405.582 131.036 405.582 130.76C406.139 130.76 406.695 130.76 407.251 130.76C407.808 130.76 408.364 130.76 408.92 130.76C408.92 131.036 408.92 131.587 408.92 131.863C408.92 132.415 408.92 133.243 408.92 134.622C408.92 136.829 408.92 139.036 408.92 141.518C408.92 144.001 408.92 146.484 408.92 148.415C408.92 149.794 408.92 150.622 408.92 151.174C408.92 151.449 408.92 152.001 408.92 152.277C408.364 152.277 407.808 152.277 407.251 152.277C406.695 152.277 406.139 152.277 405.582 152.277C405.582 152.001 405.582 151.725 405.582 151.174C405.582 150.622 405.582 149.794 405.582 148.415Z" fill="white"/>
<path d="M417.543 148.691C417.543 150.07 417.543 150.898 417.543 151.449C417.543 152.001 417.543 152.277 417.543 152.553C417.264 152.553 416.708 152.553 416.43 152.553C416.152 152.553 415.596 152.553 415.317 152.553C415.317 152.277 415.317 152.001 415.317 151.449C415.317 150.898 415.317 150.07 415.317 148.691C415.317 146.484 415.317 144.277 415.317 141.794C415.317 139.311 415.317 137.105 415.317 134.898C415.317 133.518 415.317 132.691 415.317 132.139C415.317 131.587 415.317 131.312 415.317 131.036H416.43C419.211 134.07 422.827 137.656 427.278 142.07L432.562 147.311V141.794C432.562 139.311 432.562 136.829 432.562 134.622C432.562 133.243 432.562 132.415 432.562 131.863C432.562 131.587 432.562 131.036 432.562 130.76C433.397 130.76 434.231 130.76 434.787 130.76C434.787 131.036 434.787 131.587 434.787 131.863C434.787 132.415 434.787 133.243 434.787 134.622C434.787 136.829 434.787 139.036 434.787 141.794C434.787 146.208 434.787 149.794 434.787 152.553H433.953C431.172 149.518 427.556 145.932 423.105 141.518L417.543 136.001V141.243C417.543 144.277 417.543 146.484 417.543 148.691Z" fill="white"/>
<path d="M452.032 152.829C448.973 152.829 445.635 152.001 443.41 149.794C441.185 147.863 440.072 145.105 440.072 142.07C440.072 139.036 441.185 136.001 443.41 133.794C445.913 131.588 448.973 130.484 452.31 130.76C453.979 130.76 455.37 131.036 457.039 131.312C458.429 131.587 459.82 132.139 461.211 132.691C460.933 133.243 460.933 133.519 460.933 134.07C460.933 134.622 460.654 134.898 460.654 135.45H460.098C459.264 134.346 458.151 133.794 456.761 133.243C455.648 132.691 454.257 132.415 452.866 132.415C450.363 132.415 447.86 133.243 446.191 135.174C444.522 137.105 443.41 139.863 443.688 142.346C443.688 144.829 444.522 147.312 446.191 149.243C447.86 150.898 450.363 152.001 452.866 151.725C454.813 151.725 456.76 151.45 458.429 150.622V148.415C458.429 147.036 458.429 145.932 458.429 145.105C458.429 144.277 458.429 143.45 458.151 142.622C458.708 142.622 459.264 142.622 459.82 142.622C460.376 142.622 460.933 142.622 461.489 142.622C461.489 143.174 461.211 143.45 461.211 144.001C461.211 144.553 461.211 145.381 461.211 146.484V147.036C461.211 148.415 461.211 149.519 461.211 150.07C461.211 150.622 461.211 151.174 461.489 151.45C458.429 152.277 455.37 152.829 452.032 152.829Z" fill="white"/>
<path d="M477.621 151.449C477.621 152.001 477.621 152.277 477.621 152.553C478.177 152.553 478.734 152.553 479.29 152.553C479.846 152.553 480.403 152.553 480.959 152.553C480.959 152.277 480.959 152.001 480.959 151.449C480.959 150.898 480.959 150.07 480.959 148.691C480.959 146.76 480.959 144.829 480.959 142.622C481.793 142.622 482.906 142.622 483.74 142.622C485.965 142.898 488.191 142.07 490.138 140.967C491.528 139.863 492.363 138.208 492.363 136.277C492.363 134.622 491.806 133.243 490.416 132.139C488.469 131.036 486.522 130.76 484.575 130.76H483.184H481.515H477.621C477.621 131.036 477.621 131.587 477.621 131.863C477.621 132.415 477.621 133.243 477.621 134.622C477.621 136.553 477.621 139.036 477.621 141.518C477.621 144.001 477.621 146.484 477.621 148.415C477.899 149.794 477.899 150.622 477.621 151.449ZM480.959 132.415C481.793 132.415 482.628 132.415 483.74 132.415C485.131 132.415 486.522 132.691 487.912 133.518C488.747 134.346 489.303 135.449 489.303 136.553C489.303 137.932 488.747 139.036 487.634 139.863C486.244 140.691 484.853 141.243 483.184 141.243C482.35 141.243 481.793 141.243 480.959 141.243V132.415Z" fill="white"/>
<path d="M494.866 151.448C494.588 152 494.31 152.276 494.31 152.552C494.866 152.552 495.144 152.552 495.7 152.552C496.257 152.552 496.535 152.552 497.091 152.552C497.369 152 497.369 151.448 497.647 150.897C497.926 150.345 498.204 149.793 498.482 148.69C498.76 147.586 499.594 145.931 500.429 144.552C501.82 144.276 503.21 144.276 504.601 144.276C505.992 144.276 507.382 144.276 508.773 144.552L510.72 148.69C510.998 149.793 511.554 150.345 511.554 150.897C511.554 151.448 511.833 152 512.111 152.552C512.667 152.552 513.223 152.552 513.78 152.552C514.336 152.552 514.892 152.552 515.727 152.552L513.78 148.69C512.667 146.759 511.833 144.276 510.442 141.793C508.495 137.379 506.826 133.793 505.713 131.035H504.879C503.766 134.069 502.098 137.655 499.873 141.793C498.76 144.276 497.647 146.483 496.535 148.69L494.866 151.448ZM504.045 135.448L506.826 141.517L507.104 142.345C505.992 142.345 504.879 142.621 503.767 142.621C502.654 142.621 501.541 142.621 500.429 142.345L500.707 141.517L502.376 138.207L504.045 135.448Z" fill="white"/>
<path d="M519.621 151.449C519.621 151.725 519.621 152.277 519.621 152.553C520.177 152.553 520.733 152.553 521.29 152.553C521.846 152.553 522.402 152.553 522.958 152.553C522.958 152.277 522.958 152.001 522.958 151.449C522.958 150.898 522.958 150.07 522.958 148.691C522.958 146.76 522.958 144.553 522.958 142.07H524.071C525.184 143.449 526.574 144.829 527.965 146.484L529.912 148.691L531.859 150.898C532.137 151.449 532.693 152.001 532.971 152.553C533.528 152.553 534.362 152.553 535.197 152.553C536.031 152.553 536.587 152.553 537.144 152.553C536.865 152.277 536.587 152.001 536.309 151.725C535.753 151.174 534.918 150.346 533.806 148.691L532.137 146.484C530.468 144.553 529.356 143.174 528.243 141.518C529.634 141.243 531.025 140.967 532.415 140.139C534.084 139.311 535.197 137.656 535.197 135.725C535.197 134.346 534.64 132.691 533.528 131.863C531.859 130.76 529.912 130.484 527.965 130.484H526.574H524.905H523.237H520.733C520.733 130.76 520.733 131.311 520.733 131.587C520.733 132.139 520.733 132.967 520.733 134.346C520.733 136.277 520.733 138.76 520.733 141.242C520.733 143.725 520.733 146.208 520.733 148.139C520.733 149.518 520.733 150.346 520.733 150.898M522.68 132.415C523.515 132.415 524.349 132.415 525.462 132.415C526.852 132.415 528.243 132.691 529.356 133.518C530.19 134.07 530.746 135.174 530.746 136.277C530.746 137.656 530.19 138.76 529.078 139.311C527.687 140.139 526.018 140.691 524.349 140.415C523.793 140.415 523.237 140.415 522.68 140.415V132.415Z" fill="white"/>
<path d="M545.21 148.691C545.21 146.484 545.21 144.277 545.21 141.794C545.21 138.208 545.21 135.174 545.21 132.691H543.541C542.428 132.691 541.316 132.691 540.203 132.691C539.369 132.691 538.812 132.691 537.978 132.967C538.256 132.139 538.256 131.587 537.978 130.76L542.15 131.036H545.766H547.435H551.051C552.719 131.036 553.832 131.036 554.945 130.76C554.666 131.587 554.666 132.139 554.945 132.967C554.11 132.967 553.554 132.691 552.719 132.691C551.607 132.691 550.494 132.691 549.382 132.691H548.269C548.269 135.174 548.269 138.208 548.269 141.794C548.269 144.277 548.269 146.76 548.269 148.691C548.269 150.07 548.269 150.898 548.269 151.449C548.269 152.001 548.269 152.277 548.269 152.553C547.713 152.553 547.157 152.553 546.6 152.553C546.044 152.553 545.488 152.553 544.932 152.553C544.932 152.277 544.932 151.725 544.932 151.449C544.932 150.898 544.932 150.07 544.932 148.691" fill="white"/>
<path d="M561.898 148.691C561.898 150.07 561.898 150.898 562.176 151.449C562.176 151.725 562.176 152.277 562.176 152.553C561.898 152.553 561.342 152.553 561.064 152.553C560.786 152.553 560.229 152.553 559.951 152.553C559.951 152.277 559.951 152.001 559.951 151.449C559.951 150.898 559.951 150.07 559.951 148.691C559.951 146.484 559.951 144.277 559.951 141.794C559.951 139.311 559.951 137.105 559.951 134.898C559.951 133.518 559.951 132.691 559.951 132.139C559.951 131.587 559.951 131.312 559.951 131.036H561.064C563.845 134.07 567.461 137.656 571.911 142.07L577.196 147.311V141.794C577.196 139.311 577.196 136.829 577.196 134.622C577.196 133.243 577.196 132.415 577.196 131.863C577.196 131.312 577.196 131.036 577.196 130.76C577.474 130.76 578.03 130.76 578.309 130.76C578.587 130.76 579.143 130.76 579.421 130.76C579.421 131.036 579.421 131.312 579.421 131.863C579.421 132.415 579.421 133.243 579.421 134.622C579.421 136.829 579.421 139.036 579.421 141.794C579.421 146.208 579.421 149.794 579.699 152.553H578.587C575.805 149.518 572.189 145.932 567.739 141.518L562.176 136.277V141.518C561.898 144.277 561.898 146.484 561.898 148.691Z" fill="white"/>
<path d="M584.984 152.553C584.984 152.277 584.984 152.001 584.984 151.449C584.984 150.898 584.984 150.07 584.984 148.691C584.984 146.484 584.984 144.277 584.984 141.518C584.984 138.76 584.984 136.553 584.984 134.346C584.984 132.967 584.984 132.139 584.984 131.587C584.984 131.036 584.984 130.76 584.984 130.484L586.931 130.76H589.712H592.216H594.997C595.832 130.76 596.388 130.76 596.944 130.484C596.666 131.311 596.666 131.863 596.944 132.691C596.388 132.691 595.553 132.415 594.997 132.415H592.216H591.103C589.991 132.415 589.156 132.415 588.322 132.415V140.139H591.381H594.441C595.275 140.139 595.832 140.139 596.666 139.863C596.666 140.139 596.666 140.691 596.666 140.967C596.666 141.242 596.666 141.794 596.666 142.07C596.388 142.07 595.553 142.07 594.441 141.794H591.381H588.322C588.322 145.105 588.322 148.139 588.322 150.622H591.66C592.772 150.622 593.606 150.622 594.719 150.622C595.553 150.622 596.388 150.622 596.944 150.346C596.944 150.622 596.944 151.174 596.944 151.449C596.944 151.725 596.944 152.277 596.944 152.553C596.388 152.553 595.832 152.277 594.719 152.277H592.216H589.991H587.209L585.262 152.553" fill="white"/>
<path d="M603.063 151.449C603.063 152.001 603.063 152.277 603.063 152.553C603.62 152.553 604.176 152.553 604.732 152.553C605.288 152.553 605.845 152.553 606.401 152.553C606.401 152.277 606.401 152.001 606.401 151.449C606.401 150.898 606.401 150.07 606.401 148.691C606.401 146.76 606.401 144.553 606.401 142.07H607.514C608.626 143.449 610.017 144.829 611.408 146.484L613.354 148.691C614.189 149.794 615.023 150.346 615.302 150.898C615.58 151.449 616.136 152.001 616.414 152.553C616.97 152.553 617.805 152.553 618.639 152.553C619.474 152.553 620.03 152.553 620.864 152.553C620.586 152.277 620.308 152.001 620.03 151.725C619.474 151.174 618.639 150.346 617.527 148.691L615.58 146.484C613.911 144.553 612.798 143.174 611.686 141.518C613.076 141.243 614.467 140.967 615.858 140.139C617.527 139.311 618.639 137.656 618.639 135.725C618.639 134.346 618.083 132.691 616.692 131.863C615.023 130.76 613.076 130.484 611.129 130.484H609.739H608.07H606.401H603.898C603.898 130.76 603.898 131.311 603.898 131.587C603.898 132.139 603.898 132.967 603.898 134.346C603.898 136.277 603.898 138.76 603.898 141.242C603.898 143.725 603.898 146.208 603.898 148.139C603.341 149.794 603.341 150.898 603.063 151.449ZM606.123 132.415C606.957 132.415 607.792 132.415 608.904 132.415C610.295 132.415 611.686 132.691 612.798 133.518C613.633 134.07 614.189 135.174 614.189 136.277C614.189 137.656 613.633 138.76 612.52 139.311C611.129 140.139 609.46 140.691 607.792 140.415C607.235 140.415 606.679 140.415 606.123 140.415V132.415Z" fill="white"/>
</svg>
