<svg width="700" height="140" viewBox="0 0 700 140" fill="none" xmlns="http://www.w3.org/2000/svg">
<path d="M134.932 0H0.0481644V140H134.932V0Z" fill="white"/>
<path d="M700 0H134.932V140H700V0Z" fill="#1B4584"/>
<path fill-rule="evenodd" clip-rule="evenodd" d="M151.6 110.432V30.7776L177.565 30.6808V57.5387H202.182V30.6808L228.195 30.584L228.243 110.432H202.182V79.509H177.613L177.662 110.432H151.6Z" fill="white"/>
<path fill-rule="evenodd" clip-rule="evenodd" d="M88.4454 91.4144L46.2459 91.5596L46.1496 48.6836L88.4454 48.6353V91.4144Z" fill="#1B4584"/>
<path fill-rule="evenodd" clip-rule="evenodd" d="M74.4753 139.952H111.327H134.932V114.4V75.6377H111.279L111.327 114.449L74.4753 114.545V139.952Z" fill="#E1262A"/>
<path fill-rule="evenodd" clip-rule="evenodd" d="M74.4753 0H111.327H134.932V25.5513V64.3139H111.279L111.327 25.4545L74.4753 25.4062V0Z" fill="#E1262A"/>
<path fill-rule="evenodd" clip-rule="evenodd" d="M60.5051 139.952H23.6047H0.0481724L0 114.4L0.0481724 75.6377H23.701L23.6047 114.449L60.5051 114.545V139.952Z" fill="#E1262A"/>
<path fill-rule="evenodd" clip-rule="evenodd" d="M60.5051 0H23.6047H0.0481724L0 25.5513L0.0481724 64.3139H23.701L23.6047 25.4545L60.5051 25.4062V0Z" fill="#E1262A"/>
<path fill-rule="evenodd" clip-rule="evenodd" d="M269.045 49.2153L273.959 49.1669C287.833 49.1669 293.276 53.5706 293.325 70.1693C293.325 85.171 286.725 91.704 274.537 91.704H269.045V49.2153ZM277.235 110.287C302.67 110.287 319.29 98.721 319.29 68.7175C319.242 42.4887 303.393 30.4873 277.813 30.4873L242.936 30.5357L243.032 110.335L277.235 110.287Z" fill="white"/>
<path fill-rule="evenodd" clip-rule="evenodd" d="M361.537 76.6537C369.775 76.6537 375.845 77.0892 375.845 84.1545C375.845 90.01 370.979 91.4618 364.524 91.4618H353.204V76.6537H361.537ZM362.308 48.7795C367.8 48.7795 372.858 48.9247 372.858 55.1189C372.858 59.813 369.197 62.0875 364.091 62.0875L353.155 62.1359V48.7795H362.308ZM365.921 109.996C386.539 109.996 400.124 103.754 400.076 85.8967C400.076 77.2344 395.403 69.8303 386.876 67.6042C391.886 64.4103 397.185 58.458 397.185 50.2313C397.185 34.3585 382.878 30.1483 365.054 30.1967H327.142L327.19 109.996H365.921Z" fill="white"/>
<path fill-rule="evenodd" clip-rule="evenodd" d="M423.295 65.5239V36.0527H441.938V40.3597H429.895V47.8605H441.167V52.1675H429.895V65.5239H423.295Z" fill="white"/>
<path d="M460.244 36.0527H453.644V65.5239H460.244V36.0527Z" fill="white"/>
<path fill-rule="evenodd" clip-rule="evenodd" d="M489.436 36.0527H495.988V65.5239H489.147L483.993 55.0227C482.259 51.5384 480.813 47.9573 479.32 43.3116H479.224C479.465 45.7313 479.754 48.7316 479.946 51.732C480.139 54.6839 480.284 57.6359 480.284 60.0071V65.5723H473.684V36.0527H480.524L485.631 46.7959C487.317 50.2318 488.762 53.7161 490.352 58.5069H490.448C490.207 55.8453 489.966 52.9902 489.822 50.135C489.629 47.2798 489.485 44.4731 489.485 41.8599V36.0527H489.436Z" fill="white"/>
<path fill-rule="evenodd" clip-rule="evenodd" d="M506.634 65.5239L515.064 36.0527H523.928L531.925 65.5239H524.892L523.157 58.023H515.45L513.764 65.5239H506.634ZM516.461 53.7161H522.098L520.315 45.3441C519.978 43.9891 519.833 42.6341 519.641 41.2791C519.593 40.6016 519.496 39.9241 519.4 39.3434H519.303C519.207 39.9725 519.111 40.6016 519.063 41.2791C518.87 42.6341 518.725 43.9891 518.388 45.3441L516.461 53.7161Z" fill="white"/>
<path fill-rule="evenodd" clip-rule="evenodd" d="M558.324 36.0527H564.923V65.5239H558.083L552.976 55.0227C551.242 51.5384 549.797 47.9573 548.255 43.3116H548.159C548.4 45.7313 548.689 48.7316 548.882 51.732C549.074 54.6839 549.219 57.6359 549.219 60.0071V65.5723H542.619V36.0527H549.46L554.566 46.7959C556.252 50.2318 557.649 53.7161 559.287 58.5069H559.383C559.143 55.8453 558.902 52.9902 558.709 50.135C558.516 47.2798 558.372 44.4731 558.372 41.8599V36.0527H558.324Z" fill="white"/>
<path fill-rule="evenodd" clip-rule="evenodd" d="M599.174 55.0225C599.126 55.5548 599.078 56.1839 599.03 56.7162C598.692 62.0878 596.525 66.2496 589.202 66.2496C578.412 66.2496 577.689 60.4909 577.689 52.6512V48.4411C577.978 40.9402 578.701 35.3267 589.202 35.3267C595.08 35.4234 598.355 37.9399 598.837 42.9727C598.933 43.6986 599.03 44.4729 598.981 45.1988H592.526C592.237 43.3115 592.478 39.7788 589.251 39.7788C584.096 39.7788 584.53 44.9084 584.53 47.1829V55.3612C584.53 57.8293 584.77 61.7975 589.251 61.7975C592.864 61.7975 592.478 56.9098 592.575 55.0225H599.174Z" fill="white"/>
<path d="M618.058 36.0527H611.506V65.5239H618.058V36.0527Z" fill="white"/>
<path fill-rule="evenodd" clip-rule="evenodd" d="M628.801 65.5239L637.183 36.0527H646.046L654.043 65.5239H647.01L645.276 58.023H637.568L635.834 65.5239H628.801ZM638.58 53.7161H644.216L642.433 45.3441C642.144 43.9891 642 42.6341 641.807 41.2791C641.759 40.6016 641.663 39.9241 641.566 39.3434H641.47C641.374 39.9725 641.277 40.6016 641.229 41.2791C641.036 42.6341 640.892 43.9891 640.555 45.3441L638.58 53.7161Z" fill="white"/>
<path fill-rule="evenodd" clip-rule="evenodd" d="M664.689 65.5239V36.0527H671.289V61.2169H683.477V65.5239H664.689Z" fill="white"/>
<path fill-rule="evenodd" clip-rule="evenodd" d="M436.494 83.6223C436.543 80.9607 436.254 78.3959 432.641 78.3959C430.425 78.3959 428.979 79.1218 428.979 81.1543C428.979 83.3804 430.714 84.2514 432.737 85.3645C434.905 86.5259 438.903 88.7036 440.734 90.2037C442.998 92.0427 443.672 93.8332 443.672 96.3496C443.672 101.963 439.24 104.867 432.833 104.867C424.933 104.867 422.139 101.14 422.139 95.9141V93.7364H428.69V95.4785C428.546 98.3337 429.606 100.415 432.833 100.415C435.627 100.415 436.928 99.2048 436.928 96.9303C436.928 95.1882 435.965 94.0268 434.278 93.0589C430.858 90.8328 426.571 89.1875 423.921 86.2839C422.813 84.9289 422.235 83.332 422.235 81.735C422.235 76.7022 425.607 73.9922 432.592 73.9922C443.046 73.9922 442.757 80.7672 442.805 83.6707H436.494V83.6223Z" fill="white"/>
<path fill-rule="evenodd" clip-rule="evenodd" d="M458.365 104.141V74.6216H476.863V78.9769H464.965V86.381H475.948V90.7363H464.965V99.7858H476.863V104.141H458.365Z" fill="white"/>
<path fill-rule="evenodd" clip-rule="evenodd" d="M497.915 91.4138V104.141H491.363V74.6699H503.792C509.476 74.6699 513.812 76.3153 513.812 81.7352C513.812 84.9776 512.8 88.3651 508.416 88.849V88.9458C512.318 89.3813 513.475 91.4622 513.475 94.3173C513.475 95.5272 513.282 102.738 514.872 103.657V104.238H507.646C506.875 102.351 507.019 98.7211 506.971 96.737C506.923 94.9464 506.971 92.43 504.707 91.8977C502.925 91.4622 500.998 91.5106 499.119 91.5106H497.915V91.4138ZM497.915 87.1068H503.117C505.285 87.0101 506.971 85.8002 506.971 82.8483C506.971 79.5576 505.285 79.0253 502.78 78.9769H497.915V87.1068Z" fill="white"/>
<path fill-rule="evenodd" clip-rule="evenodd" d="M544.45 74.6216H551.483L543.872 104.093H535.104L527.3 74.6216H534.334L538.476 93.5431C538.814 95.1885 539.054 96.8822 539.247 98.576C539.343 99.3502 539.536 100.221 539.536 100.996H539.633C539.633 100.173 539.825 99.3502 539.922 98.576C540.114 96.8822 540.355 95.1885 540.74 93.5431L544.45 74.6216Z" fill="white"/>
<path d="M571.619 74.6216H565.068V104.093H571.619V74.6216Z" fill="white"/>
<path fill-rule="evenodd" clip-rule="evenodd" d="M608.279 93.6396C608.231 94.2203 608.182 94.801 608.182 95.3334C607.845 100.705 605.678 104.867 598.355 104.867C587.565 104.867 586.842 99.108 586.842 91.2684V87.0582C587.131 79.5573 587.854 73.9922 598.355 73.9922C604.232 74.0406 607.508 76.557 607.99 81.5898C608.086 82.3157 608.182 83.09 608.134 83.8159H601.679C601.39 81.9286 601.631 78.3959 598.355 78.3959C593.201 78.3959 593.634 83.5255 593.634 85.8484V94.0268C593.634 96.4464 593.875 100.415 598.355 100.415C601.968 100.415 601.583 95.5269 601.727 93.6396H608.279Z" fill="white"/>
<path fill-rule="evenodd" clip-rule="evenodd" d="M622.779 104.141V74.6216H641.277V78.9769H629.33V86.381H640.362V90.7363H629.33V99.7858H641.277V104.141H622.779Z" fill="white"/>
<path fill-rule="evenodd" clip-rule="evenodd" d="M669.266 83.6223C669.314 80.9607 669.025 78.3959 665.412 78.3959C663.196 78.3959 661.799 79.1218 661.799 81.1543C661.799 83.3804 663.485 84.2514 665.556 85.3645C667.676 86.5259 671.723 88.7036 673.553 90.2037C675.817 92.0427 676.54 93.8332 676.54 96.3496C676.54 101.963 672.108 104.867 665.653 104.867C657.752 104.867 654.958 101.14 654.958 95.9141V93.7364H661.51V95.4785C661.365 98.3337 662.377 100.415 665.653 100.415C668.447 100.415 669.747 99.2048 669.747 96.9303C669.747 95.1882 668.784 94.0268 667.098 93.0589C663.678 90.8328 659.439 89.1875 656.693 86.2839C655.633 84.9289 655.007 83.332 655.007 81.735C655.007 76.7022 658.427 73.9922 665.364 73.9922C675.817 73.9922 675.528 80.7672 675.576 83.6707H669.266V83.6223Z" fill="white"/>
</svg>
