<svg width="679" height="120" viewBox="0 0 679 120" fill="none" xmlns="http://www.w3.org/2000/svg">
<path d="M0.329529 0.000244322H678.996V120H0.329529V0.000244322Z" fill="#004C8F"/>
<path d="M113.445 0.000244322H678.996V120H113.445V0.000244322Z" fill="#004C8F"/>
<path d="M149.411 88.3892V31.6106H167.017V50.773H183.514V31.6106H201.148V88.3892H183.514V66.3599H167.017V88.3892H149.411Z" fill="white"/>
<path d="M229.007 45.7184H233.572C236.857 45.7184 239.26 46.0804 240.796 46.8047C241.934 47.3328 242.858 48.1175 243.669 49.2944C244.408 50.4563 245.006 51.9202 245.446 53.761C245.845 55.5867 246.058 57.5176 246.058 59.5546C246.058 62.8741 245.631 65.6506 244.707 67.8988C243.811 70.147 242.517 71.7613 240.853 72.7572C239.189 73.7681 236.715 74.2509 233.444 74.2509L229.007 74.2813V45.7184ZM235.804 88.3892C239.957 88.3892 243.399 88.0271 246.215 87.2274C249.045 86.4579 251.348 85.4317 253.112 84.2095C254.904 82.9571 256.525 81.2674 258.018 79.1701C259.497 76.9974 260.791 74.2664 261.801 70.9167C262.839 67.5821 263.337 63.8248 263.337 59.5698C263.337 53.3231 262.214 48.0421 259.938 43.6362C257.634 39.3209 254.506 36.1977 250.51 34.3568C246.528 32.516 241.777 31.6106 236.26 31.6106H211.785V88.3892H235.804Z" fill="white"/>
<path d="M271.401 88.3892V31.6106H313.154V45.613H288.779V54.7114H308.276V68.3362H288.779V88.3892H271.401Z" fill="white"/>
<path d="M372.115 53.3234H355.491C355.178 50.5018 354.211 48.269 352.604 46.6696C350.983 45.1004 348.949 44.3309 346.446 44.3309C343.331 44.3309 340.8 45.6133 338.852 48.1481C336.889 50.7132 335.908 54.8626 335.908 60.5661C335.908 64.5495 336.349 67.5368 337.16 69.5738C337.999 71.6711 339.179 73.1799 340.644 74.1909C342.151 75.2018 343.986 75.6699 346.247 75.6699C348.949 75.6699 351.111 74.9453 352.689 73.2856C354.31 71.7315 355.249 69.4081 355.562 66.2998H372.485C372.115 69.8306 371.447 72.7879 370.48 75.2021C369.555 77.6012 367.906 79.9849 365.673 82.384C363.412 84.8133 360.71 86.6843 357.596 87.9819C354.481 89.2946 350.883 89.9136 346.759 89.9136C342.691 89.9136 338.895 89.2949 335.467 88.0275C331.997 86.7299 329.068 84.8887 326.735 82.5801C324.36 80.1811 322.512 77.4954 321.189 74.4625C319.284 70.1925 318.387 65.5002 318.387 60.2645C318.387 55.8888 319.056 51.7391 320.407 47.9368C321.758 44.1646 323.621 40.9506 325.996 38.3554C328.385 35.7752 330.987 33.8442 333.888 32.5465C337.558 30.8868 341.597 30.0872 346.076 30.0872C349.973 30.0872 353.585 30.6903 356.998 31.9125C360.397 33.1347 363.184 34.9154 365.36 37.2843C367.565 39.6532 369.257 42.3691 370.437 45.4622C371.29 47.6199 371.831 50.2302 372.115 53.3234Z" fill="white"/>
<path d="M428.503 44.3909C430.992 44.3909 432.599 44.5114 433.395 44.7528C434.419 45.0697 435.272 45.6883 435.884 46.5031C436.509 47.348 436.837 48.329 436.837 49.4607C436.837 50.9092 436.296 52.101 435.258 53.0063C434.149 53.9569 432.257 54.3946 429.541 54.3946H422.914V44.3909H428.503ZM432.926 88.3892C437.093 88.3892 440.022 88.1778 441.743 87.7855C443.435 87.363 445.185 86.6995 446.962 85.8243C448.697 84.8587 450.034 83.9533 450.916 82.9575C452.281 81.6146 453.291 79.9846 454.03 78.0231C454.77 76.0465 455.139 73.8135 455.139 71.4144C455.139 67.9893 454.343 65.1676 452.722 62.8741C451.101 60.5656 448.925 59.0418 446.18 58.2119C450.83 55.1036 453.149 51.0902 453.149 46.2015C453.149 41.1468 451.1 37.2839 447.047 34.6584C443.919 32.6366 439.041 31.6106 432.428 31.6106H405.877V88.3892H432.926ZM430.096 64.6096C433.58 64.6096 435.841 65.0621 436.979 66.0127C438.031 66.9331 438.6 68.2005 438.6 69.9055C438.6 71.6256 438.031 72.9835 436.879 73.9341C435.784 74.9451 433.495 75.3676 430.096 75.3676H422.914V64.6096H430.096Z" fill="white"/>
<path d="M493.807 69.3023H482.615L488.132 48.6456L493.807 69.3023ZM477.353 88.3892L479.387 80.9356H496.907L498.955 88.3892H516.461L497.262 31.6106H479.387L460.173 88.3892H477.353Z" fill="white"/>
<path d="M523.856 88.3892V31.6106H540.253L558.755 62.0144V31.6106H575.621V88.3892H558.869L540.765 58.74V88.3892H523.856Z" fill="white"/>
<path d="M587.354 88.3892V31.6106H604.406V50.3356L620.319 31.6106H640.997L621.386 52.9911L643.031 88.3892H621.955L609.085 65.7714L604.406 70.6749V88.3892H587.354Z" fill="white"/>
<path d="M0.329529 0.000244322H113.431V120H0.329529V0.000244322Z" fill="#ED232A"/>
<path d="M20.1252 21.0033H93.6493V99.0117H20.1252V21.0033Z" fill="white"/>
<path d="M51.2272 0.000244322H62.5329V120H51.2272V0.000244322Z" fill="white"/>
<path d="M0.329529 54.0175H113.431V66.0127H0.329529V54.0175Z" fill="white"/>
<path d="M39.9215 42.007H73.8532V78.0088H39.9215V42.007Z" fill="#004C8F"/>
</svg>
