<svg width="679" height="170" viewBox="0 0 679 170" fill="none" xmlns="http://www.w3.org/2000/svg">
<path d="M82.8471 0H247.472V169.792H82.8471V0Z" fill="white"/>
<path d="M329.788 85.101L247.472 0V170L329.788 85.101ZM165.157 85.101L247.472 0H82.8471L165.157 85.101ZM0.329529 85.101L82.8471 170V0L0.329529 85.101ZM165.157 85.101L82.8471 170H247.472L165.157 85.101Z" fill="#DB0011"/>
<path d="M417.481 91.4607H380.362V129.247H361.805V40.751H380.362V77.0479H417.481V40.751H436.038V129.253H417.481V91.4607ZM480.867 130.989C462.31 130.989 447.125 123.29 446.88 102.15H465.437C465.681 111.597 470.98 117.314 481.099 117.314C488.564 117.314 497.252 113.339 497.252 104.693C497.252 97.7331 491.47 95.7454 481.834 92.7038L475.569 90.9622C462.072 86.9867 448.575 81.5156 448.575 65.6073C448.575 45.9696 466.409 39.2554 482.562 39.2554C499.191 39.2554 513.655 45.2187 513.887 64.8627H495.325C494.603 56.9117 490.02 52.2421 481.344 52.2421C474.357 52.2421 467.603 56.0282 467.603 63.9288C467.603 70.3905 473.384 72.3846 485.437 76.3601L492.669 78.6003C507.371 83.333 516.775 88.5453 516.775 103.463C516.531 123.353 497.735 131.058 480.861 131.058L480.867 130.989ZM527.152 41.0034H557.04C562.583 40.751 568.371 41.0034 573.914 42.0004C584.279 44.4867 592.232 51.447 592.232 63.3798C592.232 74.8141 585.245 80.5312 575.119 83.2699C586.744 85.5101 595.31 91.4733 595.31 104.649C595.31 124.842 576.025 129.26 561.084 129.26H527.342L527.152 41.0034ZM557.04 77.7925C565.238 77.7925 573.669 76.0509 573.669 65.8029C573.669 56.6025 565.96 54.1162 558.251 54.1162H545.238V77.7358L557.04 77.7925ZM558.729 116.077C567.404 116.077 575.841 114.089 575.841 103.141C575.841 92.1927 568.61 90.2049 559.689 90.2049H544.987V116.058L558.729 116.077ZM643.571 130.995C615.855 130.995 603.557 112.846 603.557 85.7498C603.557 58.6533 617.299 39.0156 644.532 39.0156C661.644 39.0156 678.274 46.9666 678.757 66.8568H659.472C658.506 57.9087 652.724 53.4347 644.525 53.4347C627.651 53.4347 622.591 72.0817 622.591 86.2484C622.591 100.415 627.651 116.828 643.803 116.828C652.247 116.828 658.506 112.095 659.711 103.154H678.996C677.069 123.536 661.4 130.995 643.51 130.995H643.571Z" fill="black"/>
</svg>
