<svg width="345" height="95" viewBox="0 0 357 102" fill="none" xmlns="http://www.w3.org/2000/svg">
<path d="M153.81 22.1597C182.476 -0.965379 217.259 -6.96378 231.174 8.79219C245.098 24.5549 232.863 56.4062 204.197 79.5244C175.523 102.812 140.748 108.804 126.616 92.8783C112.918 76.9527 125.153 45.2643 153.81 22.1597Z" fill="#F06321"/>
<path d="M231.174 8.79018C236.021 14.6122 237.5 22.3273 236.447 31.0535C232.653 42.867 223.376 55.5492 209.461 66.501C183.746 86.8847 152.965 92.0213 140.112 78.1517C127.668 64.2754 138.215 36.5362 163.304 16.3357C166.463 13.9268 169.622 11.7012 172.789 9.82158C196.608 -2.51449 220.217 -3.53232 231.174 8.79018Z" fill="#AE282E"/>
<path d="M209.045 12.3902V12.9059C208.828 15.8169 206.722 19.4132 202.927 22.4938C197.244 26.9451 189.656 28.6551 186.48 26.0969C182.903 23.3556 185.017 17.3572 190.709 12.5598C196.609 7.9389 204.198 6.39859 207.357 9.13994C208.41 9.99492 209.045 11.0195 209.045 12.3902ZM187.124 90.9936C173.626 99.2109 159.72 103.33 146.223 101.62C151.914 101.789 156.561 96.646 160.355 89.7994C164.149 82.7764 166.255 76.2758 168.152 70.101C170.894 60.3435 171.102 53.4969 169.623 51.9566C167.308 49.5477 162.252 50.0702 156.343 52.8115C153.393 54.1822 149.599 53.3272 154.037 48.8759C158.667 44.4246 176.577 33.7985 182.903 32.0886C190.074 30.5482 198.08 32.7739 195.347 39.1048C193.433 43.7257 168.57 96.4763 187.124 90.9936Z" fill="white"/>
</svg>
