<svg width="679" height="140" viewBox="0 0 679 140" fill="none" xmlns="http://www.w3.org/2000/svg">
<path d="M123.722 138.597H146.665L164.651 68.8621H141.944L123.722 138.597Z" fill="#004A7F"/>
<path d="M241.349 138.597H264.292L282.277 68.8621H259.334L241.349 138.597Z" fill="#004A7F"/>
<path d="M359.189 138.597H381.907L399.679 68.8621H376.736L359.189 138.597Z" fill="#004A7F"/>
<path d="M219.979 92.7306H242.922C246.07 77.0598 236.403 69.1074 213.909 69.1074C187.819 69.1074 170.283 82.4393 164.212 105.139C159.03 126.189 169.608 138.831 194.114 138.831C218.855 138.831 233.469 130.878 239.55 112.857H216.607C213.235 120.809 207.389 124.786 199.296 124.786C188.268 124.786 183.772 117.769 187.144 104.437C190.741 90.6255 199.296 82.9071 210.312 82.9071C217.506 82.9071 220.654 86.1816 219.979 92.7306Z" fill="#004A7F"/>
<path d="M337.831 92.7306H360.773C363.921 77.0598 354.018 69.1074 331.524 69.1074C305.659 69.1074 287.898 82.4393 282.053 105.139C276.657 126.189 287.223 138.831 311.74 138.831C336.257 138.831 350.87 130.878 357.165 112.857H334.233C331.075 120.809 325.005 124.786 316.911 124.786C305.895 124.786 301.398 117.769 304.984 104.437C308.368 90.6255 316.911 82.9071 327.927 82.9071C335.133 82.9071 338.505 86.1816 337.831 92.7306Z" fill="#004A7F"/>
<path d="M35.334 30.2696C65.9209 -1.31755 103.028 -9.51547 117.877 12.0143C132.726 33.5441 119.676 77.0598 89.0887 108.647C58.5018 140.468 21.3952 148.654 6.32092 126.891C-8.29243 105.139 4.75839 61.8451 35.334 30.2696Z" fill="#F06321"/>
<path d="M55.5792 13.418C52.2069 15.9908 48.8346 19.0314 45.4623 22.3176C18.6973 49.917 7.44496 87.8192 20.7207 106.776C34.4347 125.721 67.2698 118.705 94.7091 90.8598C109.559 75.8907 119.451 58.571 123.497 42.4324C124.622 30.5039 123.048 19.967 117.877 12.0147C106.186 -4.82558 80.9952 -3.43393 55.5792 13.418Z" fill="#AE282E"/>
<path d="M94.2596 16.9263V17.628C94.0352 21.6041 91.7865 26.5159 87.7398 30.7259C81.6696 36.8071 73.5761 39.1461 70.1925 35.6494C66.3706 31.9071 68.6301 23.7092 74.7002 17.1602C80.9952 10.8451 89.0887 8.74005 92.4611 12.4823C93.5852 13.6518 94.2596 15.0551 94.2596 16.9263ZM70.8782 124.318C56.4784 135.545 41.6402 141.17 27.2405 138.831C33.3107 139.065 38.2679 132.036 42.3147 122.681C46.3615 113.091 48.6097 104.203 50.633 95.7714C53.5557 82.4396 53.7806 73.0839 52.2068 70.9789C49.7338 67.6927 44.3381 68.406 38.0318 72.1483C34.8843 74.0194 30.8376 72.85 35.5701 66.7688C40.5161 60.6876 59.6259 46.1745 66.3705 43.8356C74.0256 41.7306 82.5689 44.7712 79.6463 53.4252C77.6117 59.7403 51.0828 131.803 70.8782 124.318Z" fill="white"/>
<path d="M434.087 127.592L439.258 107.477H451.848V96.7181H442.181L446.678 79.6323H451.848V69.0955H434.751L416.99 138.831H451.848V127.592H434.087ZM451.848 107.477H454.321C465.798 107.477 471.194 109.582 468.946 117.768C467.147 125.019 461.527 127.592 451.848 127.592V138.831C461.302 138.831 468.272 137.895 475.241 132.971C479.962 129.697 483.346 124.785 484.695 119.172C487.156 109.582 483.11 103.022 472.543 101.63C482.435 99.7588 488.741 94.3675 490.754 85.9474C492.552 79.6323 490.978 74.9545 486.707 71.9139C483.11 69.3411 477.04 69.0955 468.946 69.0955H451.848V79.6323H460.628C471.419 79.6323 476.365 81.0357 474.791 88.0524C472.768 94.8353 466.923 96.7181 455.906 96.7181H451.848V107.477Z" fill="#004A7F"/>
<path d="M514.821 89.9353V98.5776C513.022 99.5249 511.448 101.162 510.774 103.501H497.285C499.522 96.7182 505.603 92.0286 514.821 89.9353ZM514.821 130.878C513.247 131.346 511.448 131.58 509.65 131.58C503.58 131.58 500.882 128.995 502.231 124.317C503.58 118.938 507.626 117.067 514.821 116.365V108.179C499.297 109.348 490.754 113.558 488.056 124.084C485.583 133.673 491.439 140 503.58 140C507.626 140 511.448 139.298 514.821 137.895V130.878ZM527.872 116.365L527.646 117.067C525.848 124.317 521.116 129.241 514.821 130.878V137.895C518.193 136.48 521.115 134.62 523.813 132.048L522.689 138.831H536.19C536.864 135.544 537.539 131.802 538.438 128.06L543.609 108.413C544.058 106.776 544.283 105.138 544.283 103.501V101.162C543.834 93.1981 537.314 88.988 525.174 88.988C521.34 88.988 517.968 89.4558 514.821 89.9353V98.5776C516.844 97.4199 519.317 96.9521 522.476 96.9521C529.434 96.9521 532.143 100.215 530.108 107.243L529.895 107.945H522.689C520.003 107.945 517.294 108.179 514.821 108.179V116.365L527.872 116.365Z" fill="#004A7F"/>
<path d="M548.33 138.831H562.056L568.575 113.792C570.824 104.904 578.692 98.5776 587.011 98.5776C595.104 98.5776 598.038 103.501 595.34 113.325L588.809 138.831H602.535L610.178 109.114C613.326 96.4843 607.256 88.988 593.767 88.988C584.987 88.988 578.018 92.2625 571.948 98.8115L573.521 90.1575H559.807C558.458 97.8759 557.559 102.565 557.098 104.437L548.33 138.831Z" fill="#004A7F"/>
<path d="M614.675 138.831H628.175L634.92 112.623L653.142 138.831H671.802L651.107 110.986L678.996 90.1577H661.685L635.819 109.583L646.161 69.1074H632.672L614.675 138.831Z" fill="#004A7F"/>
</svg>
