<svg width="700" height="150" viewBox="0 0 700 150" fill="none" xmlns="http://www.w3.org/2000/svg">
<mask id="mask0_72_600" style="mask-type:luminance" maskUnits="userSpaceOnUse" x="0" y="0" width="700" height="150">
<path d="M700 0H0V150H700V0Z" fill="white"/>
</mask>
<g mask="url(#mask0_72_600)">
<path fill-rule="evenodd" clip-rule="evenodd" d="M0 0H88.3167C53.6667 6.5737 27.4167 37.6494 27.4167 75.0598C27.4167 112.47 53.6667 143.546 88.3167 150.119H0V0ZM115.617 0H700.117V150H115.617C150.267 143.426 176.517 112.351 176.517 74.9402C176.517 37.6494 150.267 6.5737 115.617 0Z" fill="#017163"/>
</g>
<mask id="mask1_72_600" style="mask-type:luminance" maskUnits="userSpaceOnUse" x="0" y="0" width="700" height="150">
<path d="M700 0H0V150H700V0Z" fill="white"/>
</mask>
<g mask="url(#mask1_72_600)">
<path fill-rule="evenodd" clip-rule="evenodd" d="M102.317 23.665C107.1 23.665 110.95 27.6093 110.95 32.5097C110.95 37.4101 107.1 41.3543 102.317 41.3543C97.5333 41.3543 93.6833 37.4101 93.6833 32.5097C93.8 27.6093 97.65 23.665 102.317 23.665Z" fill="#EF7D00"/>
</g>
<mask id="mask2_72_600" style="mask-type:luminance" maskUnits="userSpaceOnUse" x="0" y="0" width="700" height="150">
<path d="M700 0H0V150H700V0Z" fill="white"/>
</mask>
<g mask="url(#mask2_72_600)">
<path fill-rule="evenodd" clip-rule="evenodd" d="M126.817 117.968V118.326L126.467 117.968H126.817ZM75.8333 116.533H76.1833L75.8333 116.772V116.533ZM78.2833 23.3064L77.5833 23.6649L77.2333 24.0235L76.5333 24.3821L76.1833 24.7406L75.8333 25.0992L75.1333 25.4578L74.7833 25.8163L74.4333 26.1749L74.0833 26.5335L73.7333 26.892L73.3833 27.2506L73.0333 27.6092L72.6833 27.8482L72.3333 28.2068L71.9833 28.5654L71.6333 28.9239L71.2833 29.2825L70.9333 29.641L70.5833 29.9996L70.2333 30.3582L69.8833 30.7167L69.5333 31.0753L69.1833 31.4339L68.8333 31.7924L68.4833 32.151L68.1333 32.5096L67.7833 32.8681L67.4333 33.2267L67.0833 33.5853L66.7333 33.9438L66.3833 34.3024L66.0333 34.661L65.6833 35.0195L65.3333 35.3781L64.9833 35.7367L64.6333 36.0952L64.2833 36.4538L63.9333 36.8124L63.5833 37.1709L63.2333 37.888L62.8833 38.2466L62.5333 38.6052L62.1833 38.9638L61.8333 39.3223L61.4833 39.6809L61.1333 40.398L60.7833 40.7566L60.4333 41.1151L60.0833 41.4737L59.7333 42.1908L59.3833 42.5494L59.0333 42.908L58.6833 43.6251L58.3333 43.9837L57.9833 44.7008L57.6333 45.0594L57.2833 45.7765L56.9333 46.1351L56.5833 46.8522L56.2333 47.5693L55.8833 47.9279L55.5333 48.645L55.1833 49.3622L54.8333 50.0793L54.4833 50.7964L54.1333 51.5135L53.7833 52.2307L53.4333 53.3064L53.0833 54.0235L52.7333 55.0992L52.3833 56.1749L52.0333 57.2506L51.6833 58.3263L51.3333 59.402L50.9833 60.8363L50.6333 62.6291L50.2833 64.4219L49.9333 66.9319L49.5833 71.5932V75.5374L49.9333 80.1988L50.2833 83.0673L50.6333 84.8602L50.9833 86.2944L51.3333 87.7287L51.6833 89.1629L52.0333 90.2387L52.3833 91.3143L52.7333 92.39L53.0833 93.4657L53.4333 94.1829L53.7833 95.2586L54.1333 95.9757L54.4833 96.6928L54.8333 97.41L55.1833 98.1271L55.5333 98.8442L55.8833 99.5613L56.2333 100.278L56.5833 100.996L56.9333 101.713L57.2833 102.071L57.6333 102.788L57.9833 103.506L58.3333 103.864L58.6833 104.581L59.0333 104.94L59.3833 105.657L59.7333 106.016L60.0833 106.374L60.4333 107.091L60.7833 107.45L61.1333 107.808L61.4833 108.525L61.8333 108.884L62.1833 109.243L62.5333 109.601L62.8833 109.96L63.2333 110.318L63.5833 111.035L63.9333 111.394L64.2833 111.753L64.6333 112.111L64.9833 112.47L65.3333 112.828L65.6833 113.187L66.0333 113.545L66.3833 113.904L66.7333 114.263L67.0833 114.621L67.7833 114.98L68.1333 115.338L68.4833 115.697L68.8333 116.055L69.1833 116.414L69.5333 116.772L70.2333 117.131L70.5833 117.49L70.9333 117.848L71.6333 118.207L71.9833 118.565L72.3333 118.924L73.0333 119.282L73.3833 119.641L74.0833 120L74.7833 120.358L75.1333 120.717L75.8333 121.075L76.5333 121.434L76.8833 121.792L77.5833 122.151L78.2833 122.51L78.9833 122.868L79.6833 123.227L80.3833 123.585L81.4333 123.944L82.1333 124.302L82.8333 124.661L83.8833 125.019L84.9333 125.378L85.9833 125.737L87.0333 126.095L88.0833 126.454L89.4833 126.812L90.8833 127.171L92.6333 127.529L94.7333 127.888L98.2333 128.247H106.517L110.017 127.888L112.117 127.529L113.867 127.171L115.267 126.812L116.667 126.454L118.067 126.095L119.117 125.737L120.167 125.378L120.867 125.019L121.917 124.661L122.617 124.302L123.667 123.944L124.367 123.585L125.067 123.227L125.767 122.868L126.467 122.51L127.167 122.151L127.867 121.792L128.217 121.434L128.917 121.075L129.617 120.717L129.967 120.358L130.667 120L131.017 119.641L131.717 119.282L132.067 118.924L132.767 118.565L133.117 118.207L133.817 117.848L134.167 117.49L134.517 117.131L134.867 116.772L135.567 116.414L135.917 116.055L136.267 115.697L136.617 115.338L136.967 114.98L137.317 114.621L137.667 114.263L138.367 113.904L138.717 113.545L139.067 113.187L139.417 112.828L139.767 112.47L140.117 112.111L140.467 111.394L140.817 111.035L141.167 110.677L141.517 110.318L141.867 109.96L142.217 109.601L142.567 109.243L142.917 108.884L143.267 108.167L143.617 107.808L143.967 107.45L144.317 106.733L144.667 106.374L145.017 106.016L145.367 105.298L145.717 104.94L146.067 104.223L146.417 103.864L146.767 103.147L147.117 102.788L147.467 102.071L147.817 101.354L148.167 100.996L148.517 100.278L148.867 99.5613L149.217 98.8442L149.567 98.1271L149.917 97.41L150.267 96.6928L150.617 95.9757L150.967 94.9L151.317 94.1829L151.667 93.1072L152.017 92.39L152.367 91.3143L152.717 90.2387L153.067 88.8044L153.417 87.3701L153.767 85.9359L154.117 84.143L154.467 82.3502L154.817 79.4817V68.8442L154.467 65.2585L154.117 63.1072L153.767 61.3143L153.417 59.8801L153.067 58.8044L152.717 57.3701L152.367 56.2944L152.017 55.5773L151.667 54.5016L151.317 53.4259L150.967 52.7088L150.617 51.9916L150.267 51.2745L149.917 50.5574L149.567 49.8402L149.217 49.1231L148.867 48.406L148.517 47.6889L148.167 46.9717L147.817 46.6131L147.467 45.896L147.117 45.5375L146.183 44.5813L145.833 44.2227L145.483 43.5056L145.133 43.147L144.783 42.4299L144.433 42.0713L144.083 41.7128L143.733 40.9956L143.383 40.6371L143.033 40.2785L142.683 39.9199L142.333 39.5614L141.983 38.8442L141.633 38.4857L141.283 38.1271L140.933 37.7685L140.583 37.41L140.233 37.0514L139.883 36.6928L139.533 36.3343L139.183 35.9757L138.833 35.6171L138.483 35.2586L138.133 34.9L137.783 34.5414L137.433 34.1829L137.083 33.8243L136.733 33.4657L136.383 33.1072L136.033 32.7486L135.683 32.39L135.333 32.0315L134.983 31.6729L134.633 31.3143L134.283 30.9558L133.933 30.5972L133.583 30.2386L133.233 29.8801L132.883 29.5215L132.533 29.163L132.183 28.8044L131.833 28.4458L131.483 28.0873L131.133 27.7287L130.783 27.3701L130.433 27.0116L130.083 26.653L129.733 26.2944L129.383 25.9359L129.033 25.5773L128.683 25.2187L128.333 24.8602L127.633 24.5016L127.517 24.2626L127.167 23.904L126.467 23.5454L126.117 23.1869L125.417 22.8283H123.317L122.267 23.1869L121.917 23.5454L121.567 23.904L121.217 24.2626L120.867 24.6211L120.517 24.9797L120.167 25.6968L119.817 26.7725L119.467 27.4896L119.117 28.2068L118.767 29.2825L118.417 30.7167L118.067 32.151V37.1709L118.417 38.6052L118.767 39.3223L119.117 40.0394L119.467 40.7566L119.817 41.1151L120.167 41.8323L120.517 42.1908L120.867 42.5494L121.217 42.908L121.567 43.6251L121.917 43.9837L122.267 44.3422L122.617 44.7008L122.967 45.0594L123.317 45.4179L123.667 45.7765L124.367 46.1351L124.717 46.4936L125.067 46.8522L125.417 47.2108L125.767 47.5693L126.117 47.9279L126.467 48.2865L126.817 48.645L127.517 49.0036L127.867 49.3622L128.217 49.7207L128.567 50.0793L128.917 50.4378L129.267 50.7964L129.617 51.155L129.967 51.5135L130.317 51.8721L130.667 52.2307L131.017 52.5893L131.367 52.9478L131.717 53.3064L132.067 53.6649L132.417 54.0235L132.767 54.3821L133.117 55.0992L133.467 55.4578L133.817 55.8163L134.167 56.1749L134.517 56.892L134.867 57.2506L135.217 57.6092L135.567 58.3263L135.917 58.6848L136.267 59.402L136.617 59.7606L136.967 60.4777L137.317 61.1948L137.667 61.912L138.017 62.2705L138.367 62.9876L138.717 63.7048L139.067 64.4219L139.417 65.4976L139.767 66.2147L140.117 66.9319L140.467 68.0076L140.817 69.0833L141.167 70.159L141.517 71.2346L141.867 72.6689L142.217 74.1032L142.567 75.5374L142.917 78.0474V89.0434L142.567 91.5534L142.217 93.3462L141.867 94.7805L141.517 96.2147L141.167 97.2904L140.817 98.3661L140.467 99.4418L140.117 100.518L139.767 101.235L139.417 102.31L139.067 103.027L138.717 103.745L138.367 104.462L138.017 105.179L137.667 105.896L137.317 106.255L136.967 106.972L136.617 107.689L136.267 108.047L135.917 108.765L135.567 109.123L135.217 109.84L134.867 110.199L134.517 110.916L134.167 111.274L133.817 111.633L133.467 111.992L133.117 112.709L132.767 113.067L132.417 113.426L132.067 113.784L131.717 114.143L131.367 114.502L131.017 115.219L130.667 115.577L129.85 115.099L129.5 115.458L129.15 115.816L128.8 116.175L128.45 116.533L128.1 116.892L127.75 117.251L127.4 117.609L126.7 117.968L127.05 117.609L127.4 117.251L127.75 116.892L128.1 116.533L128.45 116.175L128.8 115.816L129.15 115.458L129.5 115.099L129.85 114.741L130.2 114.382L130.55 114.024L130.9 113.665L131.25 113.306L131.6 112.589L131.95 112.231L132.3 111.872L132.65 111.155L133 110.796L133.35 110.438L133.7 109.721L134.05 109.004L134.4 108.645L134.75 107.928L135.1 107.569L135.45 106.852L135.8 106.135L136.15 105.418L136.5 104.342L136.85 103.625L137.2 102.908L137.55 101.832L137.9 100.757L138.25 99.6809L138.6 98.6052L138.95 96.8124L139.3 95.0195L139.65 91.7924V85.4578L139.3 82.2307L138.95 80.4378L138.6 79.0036L138.25 77.5693L137.9 76.4936L137.55 75.0594L137.2 74.3422L136.85 73.2665L136.5 72.5494L136.15 71.8323L135.8 70.7566L135.45 70.0394L135.1 69.3223L134.75 68.9637L134.4 68.2466L134.05 67.5295L133.7 66.8124L133.35 66.4538L133 65.7367L132.65 65.3781L132.3 65.0195L131.95 64.3024L131.6 63.9438L131.25 63.5853L130.9 62.8681L130.55 62.5096L130.2 62.151L129.85 61.7924L129.5 61.4339L129.15 60.7167L128.8 60.3582L128.45 59.9996L128.1 59.641L127.75 59.2825L127.4 58.9239L127.05 58.5654L126.7 58.2068L126.35 57.8482L125.65 57.4896L125.3 57.1311L124.95 56.7725L124.6 56.4139L123.9 56.0554L123.55 55.6968L123.2 55.3382L122.5 54.9797L122.15 54.6211L121.45 54.2626L120.75 53.904L120.517 54.143L119.817 53.7845L119.467 53.4259L118.767 53.0673L118.417 52.7088L117.717 52.3502L117.367 51.9916L116.667 51.6331L115.967 51.2745L115.267 50.9159H112.117L111.767 51.2745L111.417 51.6331L111.067 51.9916L110.717 52.3502L110.367 53.0673L110.017 53.7845L109.667 55.2187L109.317 63.3462L108.967 117.609L108.617 117.968L108.267 118.326L107.683 118.685L106.983 119.043L105.933 119.402L104.883 119.761L103.483 120.119H100.683L98.9333 119.761L97.8833 119.402L97.1833 119.043L96.4833 118.685L95.7833 118.326L95.4333 117.968L95.0833 117.609L94.7333 117.251L94.3833 55.8163L94.0333 53.6649L93.6833 52.5893L93.3333 51.8721L92.9833 51.5135L92.6333 51.155L92.2833 50.7964L91.5833 50.4378H89.4833L88.4333 50.7964L87.7333 51.155L87.0333 51.5135L86.3333 51.8721L85.9833 52.2307L85.6333 52.5893L84.9333 52.9478L84.5833 53.3064L83.8833 53.6649L83.5333 54.0235L82.8333 54.3821L82.4833 54.7406L81.7833 55.0992L81.4333 55.4578L80.7333 55.8163L80.3833 56.1749L79.6833 56.5335L79.3333 56.892L78.9833 57.2506L78.6333 57.6092L77.9333 57.9677L77.5833 58.3263L77.2333 58.6848L76.8833 59.0434L76.5333 59.402L76.1833 59.7606V60.1191L75.8333 60.4777L75.4833 60.8363L75.1333 61.1948L74.7833 61.5534L74.4333 61.912L74.0833 62.6291L73.7333 62.9876L73.3833 63.3462L73.0333 63.7048L72.6833 64.0633L72.3333 64.7805L71.9833 65.1391L71.6333 65.8562L71.2833 66.2147L70.9333 66.9319L70.5833 67.2904L70.2333 68.0076L69.8833 68.3661L69.5333 69.0833L69.1833 69.8004L68.8333 70.5175L68.4833 71.2346L68.1333 71.9518L67.7833 72.6689L67.4333 73.7446L67.0833 74.4617L66.7333 75.5374L66.3833 76.6131L66.0333 77.6889L65.6833 79.1231L65.3333 80.5574L64.9833 82.3502L64.6333 84.8602V93.3462L64.9833 95.8562L65.3333 97.649L65.6833 99.0833L66.0333 100.159L66.3833 101.235L66.7333 102.31L67.0833 103.386L67.4333 104.103L67.7833 105.179L68.1333 105.896L68.4833 106.613L68.8333 107.33L69.1833 107.689L69.5333 108.406L69.8833 109.123L70.2333 109.84L70.5833 110.199L70.9333 110.916L71.2833 111.274L71.6333 111.992L71.9833 112.35L72.3333 112.709L72.6833 113.426L73.0333 113.784L73.3833 114.143L73.7333 114.502L74.0833 114.86L74.4333 115.219L74.7833 115.577L75.1333 115.936L75.4833 116.294L75.8333 117.012L75.1333 116.653L74.7833 116.294L74.4333 115.936L74.0833 115.577L73.7333 115.219L73.3833 114.86L73.0333 114.502L72.6833 114.143L72.3333 113.784L71.9833 113.067L71.6333 112.709L71.2833 112.35L70.9333 111.992L70.5833 111.633L70.2333 110.916L69.8833 110.557L69.5333 110.199L69.1833 109.482L68.8333 109.123L68.4833 108.406L68.1333 108.047L67.7833 107.33L67.4333 106.972L67.0833 106.255L66.7333 105.537L66.3833 104.82L66.0333 104.103L65.6833 103.386L65.3333 102.669L64.9833 101.952L64.6333 101.235L64.2833 100.159L63.9333 99.4418L63.5833 98.3661L63.2333 97.2904L62.8833 96.2147L62.5333 95.139L62.1833 93.7048L61.8333 91.912L61.4833 89.7605L61.1333 86.5335V79.4817L61.4833 76.2546L61.8333 74.4617L62.1833 73.0275L62.5333 71.5932L62.8833 70.159L63.2333 69.0833L63.5833 68.3661L63.9333 67.2904L64.2833 66.5733L64.6333 65.4976L64.9833 64.7805L65.3333 64.0633L65.6833 63.3462L66.0333 62.6291L66.3833 62.2705L66.7333 61.5534L67.0833 60.8363L67.4333 60.1191L67.7833 59.7606L68.1333 59.0434L68.4833 58.3263L68.8333 57.9677L69.1833 57.2506L69.5333 56.892L69.8833 56.1749L70.2333 55.8163L70.5833 55.4578L70.9333 54.7406L71.2833 54.3821L71.6333 54.0235L71.9833 53.6649L72.3333 52.9478L72.6833 52.5893L73.0333 52.2307L73.3833 51.8721L73.7333 51.5135L74.0833 51.155L74.4333 50.7964L74.7833 50.4378L75.1333 50.0793L75.4833 49.7207L76.1833 49.3622L76.5333 49.0036L76.8833 48.645L77.2333 48.2865L77.5833 47.9279L77.9333 47.5693L78.6333 47.2108L78.9833 46.8522L79.3333 46.4936L79.6833 46.1351L80.0333 45.7765L80.3833 45.4179L81.0833 45.0594L81.4333 44.7008L81.7833 44.3422L82.1333 43.9837L82.4833 43.6251L82.8333 42.908L83.1833 42.5494L83.5333 42.1908L83.8833 41.8323L84.2333 41.4737L84.5833 40.7566L84.9333 40.0394L85.2833 39.6809L85.6333 38.9638L85.9833 37.888L86.3333 36.4538V31.7924L85.9833 30.3582L85.6333 28.9239L85.2833 27.8482L84.9333 27.1311L84.5833 26.414L84.2333 25.6968L83.8833 24.9797L83.5333 24.2626L83.1833 23.904L82.8333 23.1869L82.1333 22.8283L81.7833 22.4697H78.6333L78.2833 23.3064Z" fill="#EF7D00"/>
</g>
<mask id="mask3_72_600" style="mask-type:luminance" maskUnits="userSpaceOnUse" x="0" y="0" width="700" height="150">
<path d="M700 0H0V150H700V0Z" fill="white"/>
</mask>
<g mask="url(#mask3_72_600)">
<path d="M200.083 116.773C200.55 110.677 200.9 104.462 201.133 98.3662C201.367 92.1511 201.483 84.5017 201.483 75.179C201.483 67.171 201.367 59.8802 201.133 53.187C200.9 46.4937 200.55 39.92 200.083 33.4658C203 33.8244 205.217 34.0634 206.733 34.183C208.25 34.3025 209.533 34.422 210.7 34.422C211.517 34.422 212.567 34.3025 213.85 34.183C215.133 34.0634 217.35 33.8244 220.383 33.4658C220.033 39.4419 219.683 45.6571 219.567 51.9917C219.333 58.4459 219.217 66.0953 219.217 75.179V79.9599C219.217 87.4897 219.333 94.0634 219.567 99.8005C219.8 105.538 220.033 111.155 220.383 116.773C217.817 116.534 215.6 116.414 213.85 116.295C212.1 116.175 210.7 116.175 209.417 116.175C208.833 116.175 207.9 116.175 206.733 116.295C205.683 116.295 203.467 116.414 200.083 116.773Z" fill="white"/>
</g>
<mask id="mask4_72_600" style="mask-type:luminance" maskUnits="userSpaceOnUse" x="0" y="0" width="700" height="150">
<path d="M700 0H0V150H700V0Z" fill="white"/>
</mask>
<g mask="url(#mask4_72_600)">
<path d="M253.05 107.569C254.333 107.808 255.5 108.048 256.55 108.167C257.6 108.287 258.767 108.406 259.817 108.406C268.917 108.406 275.683 105.538 280.233 99.8005C284.783 94.0634 287.117 85.5774 287.117 74.2228C287.117 62.6292 285.017 54.3822 280.817 49.3622C276.617 44.3423 269.733 41.8324 259.933 41.8324C258.3 41.8324 256.9 41.8324 255.967 41.8324C255.033 41.8324 254.1 41.9519 253.167 41.9519C253.167 44.1033 253.05 47.0913 253.05 51.1551C252.817 63.5853 252.817 71.9519 252.817 76.3742C252.817 79.6013 252.817 83.7846 252.933 89.0435C252.933 94.183 252.933 100.398 253.05 107.569ZM232.517 116.773C232.867 113.067 233.217 109.004 233.45 104.701C233.683 100.398 233.8 94.7806 233.8 88.0873V73.2666V64.5415C233.8 57.4897 233.683 51.6332 233.45 46.9718C233.217 42.3104 232.867 37.8881 232.517 33.5853C234.033 33.7049 235.667 33.7049 237.183 33.8244C238.817 33.8244 240.45 33.9439 242.083 33.9439C245.117 33.9439 248.85 33.8244 253.283 33.7049C257.717 33.5853 260.75 33.4658 262.15 33.4658C271.717 33.4658 278.483 33.8244 282.45 34.661C286.533 35.3782 289.917 36.6929 292.833 38.4857C297.85 41.5933 301.7 46.0156 304.15 51.7527C306.6 57.4897 307.883 64.661 307.883 73.2666C307.883 87.7288 303.917 98.6052 296.1 105.896C288.167 113.187 276.383 116.773 260.75 116.773C258.3 116.773 255.15 116.773 250.95 116.653C246.75 116.534 243.833 116.534 242.083 116.534C240.8 116.534 239.517 116.534 238.233 116.534C236.833 116.534 234.85 116.653 232.517 116.773Z" fill="white"/>
</g>
<mask id="mask5_72_600" style="mask-type:luminance" maskUnits="userSpaceOnUse" x="0" y="0" width="700" height="150">
<path d="M700 0H0V150H700V0Z" fill="white"/>
</mask>
<g mask="url(#mask5_72_600)">
<path d="M318.267 116.773C318.733 112.948 319.083 108.885 319.317 104.582C319.55 100.398 319.667 95.1395 319.667 88.8048V79.004V67.0518C319.667 58.3267 319.55 51.3945 319.317 46.4941C319.083 41.5937 318.85 37.2909 318.383 33.3467C321.417 33.4662 324.217 33.5857 326.667 33.5857C329 33.5857 331.1 33.7052 332.85 33.7052C334.483 33.7052 336.7 33.7052 339.617 33.5857C342.533 33.4662 344.633 33.4662 345.917 33.4662C354.9 33.4662 361.55 35.02 365.75 38.2471C369.95 41.4742 372.05 46.4941 372.05 53.3068C372.05 58.4463 370.533 62.749 367.5 65.8566C364.467 69.0837 360.267 70.8765 354.9 71.3546V72.6694C360.967 72.9084 365.633 74.8208 368.9 78.5259C372.167 82.1116 373.8 87.012 373.8 93.3466C373.8 100.757 371.467 106.494 366.683 110.558C361.9 114.622 355.25 116.773 346.617 116.773C344.867 116.773 341.6 116.653 337.167 116.534C332.617 116.414 329.117 116.295 326.433 116.295C324.917 116.295 322.467 116.414 319.083 116.653C318.617 116.653 318.383 116.773 318.267 116.773ZM337.517 68.4861C337.75 68.4861 338.1 68.4861 338.567 68.6056C339.033 68.6056 339.383 68.6056 339.617 68.6056C344.167 68.6056 347.55 67.4104 349.767 64.9005C351.983 62.51 353.033 58.8048 353.033 53.7849C353.033 49.8407 352.1 46.7331 350.117 44.5817C348.133 42.4303 345.333 41.3546 341.6 41.3546C341.133 41.3546 340.083 41.4742 338.567 41.5937H338.217C337.983 43.8646 337.867 46.016 337.75 48.2869C337.633 50.5578 337.633 52.9483 337.633 55.3387V68.4861H337.517ZM338.1 108.287C338.8 108.526 339.5 108.645 340.2 108.765C340.783 108.885 341.367 108.884 341.833 108.884C345.683 108.884 348.717 107.45 350.817 104.582C352.917 101.713 354.083 97.769 354.083 92.6295C354.083 87.4901 352.917 83.5459 350.583 80.7968C348.25 78.0478 344.983 76.6136 340.667 76.6136C340.083 76.6136 339.15 76.7331 337.867 76.8526H337.633V91.9124C337.633 94.1833 337.633 96.6933 337.75 99.4423C337.867 102.43 337.983 105.299 338.1 108.287Z" fill="white"/>
</g>
<mask id="mask6_72_600" style="mask-type:luminance" maskUnits="userSpaceOnUse" x="0" y="0" width="700" height="150">
<path d="M700 0H0V150H700V0Z" fill="white"/>
</mask>
<g mask="url(#mask6_72_600)">
<path d="M389.783 116.773C390.25 110.677 390.6 104.462 390.833 98.3662C391.067 92.1511 391.183 84.5017 391.183 75.179C391.183 67.171 391.067 59.8802 390.833 53.187C390.6 46.4937 390.25 39.92 389.783 33.4658C392.7 33.8244 394.917 34.0634 396.433 34.183C397.95 34.3025 399.233 34.422 400.4 34.422C401.217 34.422 402.267 34.3025 403.55 34.183C404.833 34.0634 407.05 33.8244 410.083 33.4658C409.733 39.4419 409.383 45.6571 409.267 51.9917C409.033 58.4459 408.917 66.0953 408.917 75.179V79.9599C408.917 87.4897 409.033 94.0634 409.267 99.8005C409.5 105.538 409.733 111.155 410.083 116.773C407.517 116.534 405.3 116.414 403.55 116.295C401.8 116.175 400.4 116.175 399.117 116.175C398.533 116.175 397.6 116.175 396.433 116.295C395.383 116.295 393.05 116.414 389.783 116.773Z" fill="white"/>
</g>
<mask id="mask7_72_600" style="mask-type:luminance" maskUnits="userSpaceOnUse" x="0" y="0" width="700" height="150">
<path d="M700 0H0V150H700V0Z" fill="white"/>
</mask>
<g mask="url(#mask7_72_600)">
<path d="M445.2 116.295C445.55 113.307 445.9 110.199 446.017 107.092C446.25 103.864 446.25 99.9202 446.25 95.1394V87.729V78.6454C446.25 71.9521 446.133 66.6932 446.017 62.988C445.9 59.2828 445.667 55.9362 445.317 52.9481C447.767 53.0677 449.983 53.0677 451.967 53.1872C453.95 53.1872 455.583 53.3067 456.983 53.3067C458.267 53.3067 460.133 53.3067 462.467 53.1872C464.8 53.1872 466.55 53.0677 467.483 53.0677C474.833 53.0677 480.2 54.2629 483.583 56.7729C486.967 59.1633 488.717 62.988 488.717 68.2469C488.717 72.1912 487.433 75.4182 484.983 77.8087C482.533 80.3186 479.15 81.6334 474.833 81.992V82.9482C479.733 83.1872 483.467 84.6214 486.15 87.3704C488.833 90.1194 490.117 93.8247 490.117 98.6055C490.117 104.223 488.133 108.645 484.283 111.753C480.433 114.861 474.95 116.414 467.95 116.414C466.433 116.414 463.867 116.414 460.25 116.175C456.633 116.056 453.717 116.056 451.617 116.056C450.333 116.056 448.35 116.175 445.667 116.414C445.55 116.295 445.317 116.295 445.2 116.295ZM460.833 79.482C461.067 79.482 461.3 79.482 461.65 79.482C462 79.482 462.35 79.482 462.467 79.482C466.2 79.482 468.883 78.5258 470.633 76.733C472.383 74.8206 473.317 72.0716 473.317 68.2469C473.317 65.1394 472.5 62.8685 470.983 61.1952C469.35 59.5218 467.133 58.6852 464.1 58.6852C463.633 58.6852 462.817 58.8047 461.65 58.9242H461.3C461.067 60.5975 460.95 62.3904 460.95 64.0637C460.833 65.8565 460.833 67.6493 460.833 69.4422V79.482ZM461.417 109.841C462 109.96 462.583 110.199 463.05 110.199C463.517 110.319 463.983 110.319 464.45 110.319C467.6 110.319 470.05 109.243 471.8 107.092C473.55 104.94 474.367 101.833 474.367 98.0079C474.367 94.0637 473.433 91.0756 471.567 89.0438C469.7 86.8924 467.017 85.8167 463.517 85.8167C463.05 85.8167 462.233 85.8167 461.183 86.0557H460.95V97.5298C460.95 99.3226 460.95 101.235 461.067 103.267C461.183 105.299 461.3 107.45 461.417 109.841ZM509.133 90.9561C509.367 90.9561 509.717 90.9561 510.183 90.9561C513.1 91.0756 515.083 91.0756 516.367 91.0756C517.767 91.0756 520.1 90.9561 523.25 90.8366H523.717C522.783 87.729 521.733 84.5019 520.567 81.2749C519.4 78.0478 518 74.7011 516.483 71.235C515.083 74.8206 513.683 78.1673 512.517 81.5139C511.233 84.741 510.067 87.968 509.133 90.9561ZM491.05 116.295C495.717 105.418 500.267 94.5418 504.467 83.9043C508.667 73.1473 512.633 62.3904 516.25 51.7529H516.483C518.467 51.992 519.983 52.1115 520.8 52.1115C521.5 52.1115 522.783 51.992 524.417 51.8725C524.883 51.8725 525.117 51.7529 525.35 51.7529C529.083 62.988 532.933 74.1035 536.9 84.741C540.867 95.3784 544.833 106.016 549.033 116.295C547.167 116.175 545.417 116.175 544.017 116.056C542.5 116.056 541.333 115.936 540.283 115.936C539 115.936 537.6 115.936 536.083 116.056C534.567 116.056 533.05 116.175 531.3 116.295C530.833 114.621 529.9 111.753 528.733 107.809C527.567 103.864 526.633 100.757 525.933 98.6055C525.35 98.6055 523.95 98.486 521.733 98.486C519.517 98.3665 517.65 98.3665 516.25 98.3665C515.783 98.3665 514.5 98.3665 512.4 98.486C510.183 98.6055 508.317 98.6055 506.567 98.6055C505.4 102.311 503.533 108.048 500.85 115.817L500.617 116.295C499.567 116.175 498.633 116.175 497.933 116.056C497.233 116.056 496.65 115.936 496.183 115.936C495.483 115.936 494.667 115.936 493.733 116.056C492.917 116.056 491.983 116.175 491.05 116.295ZM553.583 116.295C553.933 111.633 554.167 106.972 554.4 102.072C554.517 97.1713 554.633 91.4342 554.633 84.6215C554.633 80.4382 554.517 75.6573 554.4 70.2788C554.283 64.9003 554.05 59.1633 553.817 52.8286C555.333 52.9481 556.617 53.0677 557.433 53.1872C558.367 53.1872 559.067 53.3067 559.65 53.3067C560.35 53.3067 561.05 53.3067 561.983 53.1872C562.8 53.0677 564.083 53.0677 565.483 52.8286C570.967 60.1195 576.567 67.1713 582.283 73.984C588 80.7968 593.95 87.49 600.017 94.0637V76.6135C600.017 71.5935 600.017 67.4103 599.9 63.8246C599.783 60.239 599.667 56.6533 599.433 52.9481C600.483 53.0677 601.417 53.1872 602.117 53.1872C602.933 53.3067 603.517 53.3067 604.1 53.3067C604.567 53.3067 605.383 53.3067 606.55 53.1872C607.717 53.0677 608.533 52.9481 609.117 52.9481C608.65 56.2948 608.417 60.9561 608.183 66.6932C607.95 72.4302 607.833 81.0358 607.833 92.2708V96.6932C607.833 101.235 607.95 105.06 608.067 108.048C608.183 111.036 608.3 113.785 608.533 116.295C607.133 116.056 605.967 116.056 605.267 115.936C604.45 115.817 603.867 115.817 603.167 115.817C602.583 115.817 601.883 115.817 601.067 115.936C600.25 115.936 599.2 116.056 597.8 116.295C592.317 109.123 586.6 102.072 580.767 95.0199C574.933 88.0876 568.75 81.1553 562.45 74.223V99.9202C562.45 101.713 562.45 104.104 562.567 106.972C562.683 109.841 562.683 112.948 562.8 116.414C561.75 116.295 560.817 116.175 560 116.056C559.183 115.936 558.6 115.936 558.017 115.936C557.667 115.936 557.083 115.936 556.5 116.056C555.8 115.936 554.867 116.056 553.583 116.295ZM637.35 52.8286C637 56.0557 636.883 58.8047 636.767 61.0756C636.65 63.3465 636.533 65.498 636.533 67.4103V81.1553L652.167 62.749C653.567 61.0757 654.85 59.4023 656.133 57.729C657.417 56.0557 658.467 54.3824 659.517 52.8286L660.333 52.9481C663.017 53.1872 664.65 53.3067 665.117 53.3067C665.933 53.3067 666.75 53.3067 667.8 53.1872C668.85 53.0677 670.133 52.9481 671.883 52.8286C668.033 56.6533 664.183 60.7171 660.45 64.7808C656.6 68.9641 652.4 73.5059 647.967 78.5258C652.75 86.1752 657.3 93.1075 661.5 99.4422C665.7 105.657 669.783 111.275 673.517 116.175C670.483 115.936 668.383 115.936 667.1 115.817C665.817 115.697 664.883 115.697 664.3 115.697C663.133 115.697 661.733 115.697 660.1 115.817C658.467 115.817 656.367 115.936 653.8 116.175C652.167 112.59 649.95 108.406 646.917 103.745C644 98.9641 640.5 93.9442 636.65 88.6852V103.028C636.65 105.538 636.767 107.809 636.883 109.96C637 112.111 637.117 114.143 637.35 116.175C635.133 115.936 633.383 115.936 632.1 115.817C630.817 115.697 629.65 115.697 628.6 115.697C628.017 115.697 627.083 115.697 626.033 115.817C624.867 115.817 623.117 115.936 620.667 116.175C621.017 111.633 621.367 107.211 621.483 102.669C621.717 98.247 621.717 93.1075 621.717 87.49V84.5019C621.717 77.6892 621.6 71.9521 621.483 67.0517C621.367 62.1513 621.017 57.3704 620.667 52.7091C623.117 52.9481 624.867 53.1872 625.917 53.3067C627.083 53.4262 627.9 53.4262 628.6 53.4262C629.65 53.4262 630.7 53.4262 631.983 53.3067C633.267 53.1872 635.017 53.0677 637.35 52.8286Z" fill="white"/>
</g>
</svg>
