<svg width="679" height="255" viewBox="0 0 679 255" fill="none" xmlns="http://www.w3.org/2000/svg">
<path d="M0.329529 255H678.996V0H0.329529V255Z" fill="#9D1D27"/>
<path d="M51.1878 53.7717H190.33V200.741H51.1878V53.7717ZM202.095 41.3779H39.5154V213.037H202.003V41.3779H202.095Z" fill="#FEFEFE"/>
<path d="M66.5658 98.5648H174.952V69.9712H66.5658V98.5648ZM66.5658 184.443H93.6161V155.752H66.5658V184.443ZM66.5658 141.504H134.192V112.813H66.5658V141.504Z" fill="#FEFEFE"/>
<path d="M270.833 79.7301V116.716H280.56C291.213 116.716 293.714 112.422 293.714 98.0769C293.714 82.7554 292.139 79.7301 279.355 79.7301H270.833ZM282.042 70.0688C298.809 70.0688 304.831 77.7783 304.831 97.8817C304.831 117.302 298.439 126.28 281.949 126.28H259.809V70.0688H282.042ZM238.502 126.28H249.526V70.0688H238.502V126.28ZM313.446 70.0688H350.872V79.7301H324.378V92.9046H347.537V102.566H324.378V126.378H313.354L313.446 70.0688ZM402.193 107.836C401.452 118.863 395.709 127.646 379.219 127.646C363.193 127.646 355.041 119.254 355.041 98.5648C355.041 78.2663 362.73 68.8978 379.219 68.8978C392.281 68.8978 400.341 74.7531 402.101 87.6348H391.077C389.78 82.6578 388.298 78.7542 379.219 78.7542C370.141 78.7542 366.157 84.512 366.157 99.5407C366.157 111.251 369.122 117.79 379.405 117.79C386.816 117.79 390.243 115.35 391.17 107.933H402.193V107.836ZM431.467 70.0688H468.893V79.7301H442.491V92.9046H465.651V102.566H442.491V126.378H431.467V70.0688ZM476.119 126.28H487.143V70.0688H476.119V126.28ZM508.449 79.7301V94.5637H518.362C527.162 94.5637 530.219 93.5878 530.219 86.5613C530.219 80.9012 528.367 79.7301 519.103 79.7301H508.449ZM497.425 70.0688H520.585C531.702 70.0688 541.336 70.3616 541.336 86.9517C541.336 97.9793 536.982 101.98 530.96 103.542L544.856 126.378H531.424L518.362 104.225H508.449V126.378H497.425V70.0688ZM558.659 108.616C559.122 114.472 559.956 117.595 570.517 117.595C576.075 117.595 580.151 116.716 580.151 110.959C580.151 107.543 578.669 105.591 573.944 104.323L560.975 100.614C554.49 98.76 548.747 95.5395 548.747 85.1951C548.747 77.0952 552.267 68.605 568.757 68.605C584.413 68.605 589.322 76.3145 589.6 86.3662H578.669C578.113 81.6819 577.928 78.5591 568.386 78.5591C562.828 78.5591 559.956 79.6325 559.956 84.1216C559.956 88.2204 562.272 89.3914 565.329 90.2697L577.187 93.6854C584.783 95.8323 591.175 98.9552 591.175 110.178C591.175 125.987 578.298 127.549 570.332 127.549C552.916 127.549 548.191 120.327 547.543 108.616H558.659ZM609.981 79.9253H593.954V70.0688H637.031V79.9253H621.097V126.28H610.073V79.9253H609.981ZM249.526 186.005V200.838H259.438C269.443 200.838 271.666 200.057 271.666 193.616C271.666 186.883 269.628 186.005 261.569 186.005H249.526ZM249.526 163.852V176.343H261.847C268.424 176.343 270.092 175.465 270.092 169.707C270.092 165.023 269.073 163.852 259.809 163.852H249.526ZM264.533 154.191C275.001 154.191 280.745 158.094 280.745 168.829C280.745 177.514 276.947 179.368 274.631 180.344C281.208 183.077 282.783 188.347 282.783 194.202C282.783 203.473 278.8 210.402 264.07 210.402H238.502V154.093L264.533 154.191ZM313.261 191.372L306.035 192.641C302.052 193.226 299.273 194.104 299.273 198.496C299.273 201.619 300.755 203.375 305.387 203.375C311.686 203.375 313.261 199.765 313.261 194.69V191.372ZM290.101 181.613C290.657 170.976 296.401 168.048 306.962 168.048C317.8 168.048 323.544 171.073 323.544 180.149V210.402H313.724V207.279C311.686 209.426 307.888 211.475 301.681 211.475C292.325 211.475 288.99 207.084 288.99 200.057C288.99 190.884 294.641 187.371 300.384 186.492L313.354 184.346V181.808C313.354 177.905 311.501 176.831 306.684 176.831C301.589 176.831 300.477 178.1 300.014 181.613H290.101ZM357.82 186.688C357.82 180.344 357.727 177.026 351.15 177.026C343.739 177.026 342.998 181.125 342.998 190.884V210.499H332.715V169.122H342.535V174.489C345.314 170.488 348.371 168.146 355.597 168.146C365.601 168.146 368.195 172.732 368.195 185.224V210.499H357.82V186.688ZM378.108 154.191H388.39V184.443L401.082 169.122H413.773L400.063 184.833L414.329 210.499H402.379L392.837 192.543L388.39 197.422V210.499H378.015L378.108 154.191Z" fill="#FEFEFE"/>
</svg>
