<svg width="700" height="120" viewBox="0 0 700 120" fill="none" xmlns="http://www.w3.org/2000/svg">
<path fill-rule="evenodd" clip-rule="evenodd" d="M66.0902 0C102.683 0 132.18 26.8206 132.18 59.937C132.18 93.0535 102.683 120 66.0902 120C29.4971 120 0 93.1794 0 60.063C0 26.9465 29.6363 0 66.0902 0Z" fill="#ED6E25"/>
<path fill-rule="evenodd" clip-rule="evenodd" d="M66.0902 113.956L77.9169 99.3493H54.2636L66.0902 113.956ZM66.0902 99.3493L67.7599 96.4532L72.4906 88.0167H59.6899L66.0902 99.3493ZM66.0902 43.4416H72.2123L68.4556 36.5161L65.9511 31.9831L59.8291 43.4416H66.0902ZM66.0902 32.109H74.1602L66.0902 17.8802L58.0203 32.109H66.0902ZM66.0902 17.8802H76.1081L66.0902 6.04395L56.0724 17.8802H66.0902ZM92.3872 99.3493H77.9169L87.1 88.0167L92.3872 99.3493ZM123.554 74.0397H98.231L110.614 58.6777L123.554 74.0397ZM98.231 74.0397L106.162 88.0167H86.9608L98.231 74.0397ZM97.8136 43.4416H122.858L110.614 58.5518L97.8136 43.4416ZM97.8136 43.4416L88.2131 31.9831H104.353L97.8136 43.4416ZM74.2993 32.109H88.2131L80.8388 43.5676L74.2993 32.109ZM88.0739 32.109L75.969 17.8802H97.1179L88.0739 32.109ZM66.0902 88.0167L73.1862 74.0397H59.1334L64.5597 84.7428L66.0902 88.0167ZM66.0902 66.4847L66.9251 65.0995L72.3514 56.663H59.8291L66.0902 66.4847ZM66.0902 50.7449H69.5687L66.0902 43.4416L62.6118 50.7449H66.0902ZM72.4906 88.0167L80.4214 74.0397L86.9608 88.0167H72.4906ZM80.4214 74.0397H73.1862L76.943 66.4847L80.4214 74.0397ZM74.995 62.4553L76.943 66.4847H71.934L74.995 62.4553ZM80.6997 59.0555L84.7347 66.4847H76.943L80.6997 59.0555ZM84.8738 50.7449L80.6997 59.0555L79.4474 56.663L76.2473 50.619H84.8738V50.7449ZM89.3262 58.4259L98.231 74.0397H80.4214L84.5955 66.4847L89.3262 58.4259ZM97.8136 43.4416L89.3262 58.4259L80.8388 43.4416H97.8136ZM76.2473 50.7449L72.3514 43.4416H80.8388L76.2473 50.7449ZM76.2473 50.7449L72.3514 56.789L69.5687 50.7449H76.2473ZM74.995 62.4553L72.3514 56.789H79.4474L74.995 62.4553ZM39.7933 99.3493H54.2636L45.0805 88.0167L39.7933 99.3493ZM8.62652 74.0397H33.9495L21.5663 58.6777L8.62652 74.0397ZM33.9495 74.0397L26.0187 88.0167H45.2196L33.9495 74.0397ZM34.5061 43.4416H9.46135L21.7054 58.5518L34.5061 43.4416ZM34.5061 43.4416L44.1065 31.9831H27.9666L34.5061 43.4416ZM58.0203 32.109H44.1065L51.4808 43.5676L58.0203 32.109ZM44.1065 32.109L56.2115 17.8802H35.0626L44.1065 32.109ZM66.0902 74.0397L64.838 72.4028L60.3856 66.4847H71.934L66.0902 74.0397ZM59.6899 88.0167L51.7591 74.0397L45.2196 88.0167H59.6899ZM51.7591 74.0397H58.9942L55.2375 66.4847L51.7591 74.0397ZM57.1855 62.4553L55.2375 66.4847H60.3856L57.1855 62.4553ZM51.4808 59.0555L47.4458 66.4847H55.2375L51.4808 59.0555ZM47.3067 50.7449L51.4808 59.0555L52.7331 56.663L55.9332 50.619H47.3067V50.7449ZM42.8543 58.4259L33.9495 74.0397H51.7591L47.585 66.4847L42.8543 58.4259ZM34.5061 43.4416L42.9934 58.4259L51.4808 43.4416H34.5061ZM56.0724 50.7449L59.9682 43.4416H51.4808L56.0724 50.7449ZM56.0724 50.7449L59.9682 56.789L62.7509 50.7449H56.0724ZM57.1855 62.4553L59.8291 56.789H52.7331L57.1855 62.4553Z" fill="white"/>
<path fill-rule="evenodd" clip-rule="evenodd" d="M316.398 20.3994H301.928C297.476 20.3994 293.858 23.6733 293.858 27.7027V99.6019C307.772 99.6019 321.825 99.6019 335.738 99.6019C340.052 99.6019 343.669 96.3281 343.669 92.4246V79.2032H316.398V20.3994ZM171.278 20.3994H157.086C152.495 20.3994 148.877 23.7992 148.877 27.8286V99.476H163.069C167.661 99.476 171.278 96.0762 171.278 92.0469V20.3994ZM233.194 20.3994H281.336V33.6208C281.336 37.5243 277.718 40.7982 273.405 40.7982H247.525V50.9975H275.631V64.2189C275.631 68.1224 272.014 71.3963 267.7 71.3963H247.525V92.2987C247.525 96.3281 243.908 99.6019 239.455 99.6019H224.985V27.7027C225.263 23.6733 228.881 20.3994 233.194 20.3994ZM209.541 20.3994H195.349C190.757 20.3994 187.14 23.7992 187.14 27.8286V99.476H201.332C205.923 99.476 209.541 96.0762 209.541 92.0469V20.3994Z" fill="#272454"/>
<path d="M593.838 99.6016C592.864 99.6016 591.89 99.4757 591.055 99.0979C590.081 98.7202 589.525 98.0906 588.968 97.2091L567.68 60.9447V96.8314C567.68 98.3424 566.289 99.6016 564.619 99.6016H558.497C556.828 99.6016 555.436 98.3424 555.436 96.8314V42.5607C555.436 41.0497 556.828 39.7905 558.497 39.7905H565.037C566.706 39.7905 567.82 40.0423 568.654 40.4201C569.072 40.6719 569.489 40.9237 569.767 41.3015C570.046 41.5533 570.324 41.9311 570.602 42.3088L591.612 78.1955V42.4347C591.612 40.9237 593.003 39.6646 594.673 39.6646C596.76 39.6646 598.708 39.6646 600.795 39.6646C602.465 39.6646 603.856 40.9237 603.856 42.4347V96.7055C603.856 98.2165 602.465 99.4757 600.795 99.4757C598.569 99.6016 596.204 99.6016 593.838 99.6016Z" fill="#272454"/>
<path d="M477.38 99.6016C476.406 99.6016 475.432 99.4757 474.597 99.0979C473.624 98.7202 473.067 98.0906 472.51 97.2091L451.362 60.9447V96.8314C451.362 98.3424 449.97 99.6016 448.3 99.6016H442.178C440.509 99.6016 439.117 98.3424 439.117 96.8314V42.5607C439.117 41.0497 440.509 39.7905 442.178 39.7905H448.718C450.388 39.7905 451.501 40.0423 452.336 40.4201C452.753 40.6719 453.17 40.9237 453.449 41.3015C453.727 41.5533 454.005 41.9311 454.283 42.3088L475.293 78.1955V42.4347C475.293 40.9237 476.685 39.6646 478.354 39.6646C480.441 39.6646 482.528 39.6646 484.476 39.6646C486.146 39.6646 487.537 40.9237 487.537 42.4347V96.7055C487.537 98.2165 486.146 99.4757 484.476 99.4757C482.111 99.6016 479.746 99.6016 477.38 99.6016Z" fill="#272454"/>
<mask id="mask0_72_440" style="mask-type:luminance" maskUnits="userSpaceOnUse" x="659" y="37" width="41" height="65">
<path d="M700 37.3979H659.789V101.364H700V37.3979Z" fill="white"/>
</mask>
<g mask="url(#mask0_72_440)">
<path fill-rule="evenodd" clip-rule="evenodd" d="M673.425 39.6646H696.939C698.609 39.6646 700 40.9237 700 42.4347V47.9752C700 49.4862 698.609 50.8713 696.939 50.8713H676.625C674.816 50.8713 673.286 52.2564 673.286 53.8933V63.9668H696.939C698.609 63.9668 700 65.2259 700 66.737V72.2774C700 73.7884 698.609 75.0476 696.939 75.0476H673.286V85.121C673.286 86.7579 674.816 88.143 676.625 88.143H696.939C698.609 88.143 700 89.4022 700 91.0392V96.5796C700 98.0906 698.609 99.4757 696.939 99.4757H673.425C666.468 99.4757 660.902 94.313 660.902 88.0171V50.8713C660.763 44.8272 666.468 39.6646 673.425 39.6646Z" fill="#272454"/>
</g>
<path fill-rule="evenodd" clip-rule="evenodd" d="M382.489 39.6646H406.003C407.672 39.6646 409.064 40.9237 409.064 42.4347V47.9752C409.064 49.4862 407.672 50.8713 406.003 50.8713H385.689C383.88 50.8713 382.349 52.2564 382.349 53.8933V63.9668H406.003C407.672 63.9668 409.064 65.2259 409.064 66.737V72.2774C409.064 73.7884 407.672 75.0476 406.003 75.0476H382.349V96.5796C382.349 98.0906 380.958 99.4757 379.288 99.4757H373.166C371.497 99.4757 370.105 98.2165 370.105 96.5796V50.8713C369.827 44.8272 375.532 39.6646 382.489 39.6646Z" fill="#272454"/>
<path fill-rule="evenodd" clip-rule="evenodd" d="M511.469 44.7012L495.19 96.3276C494.633 98.0905 495.886 99.6015 498.112 99.6015H502.703C504.79 99.6015 507.016 98.0905 507.573 96.3276L512.025 82.2248H531.087L535.54 96.3276C536.096 98.0905 538.322 99.6015 540.409 99.6015H545.001C547.088 99.6015 548.479 98.0905 547.923 96.3276L531.644 44.7012C529.557 37.7757 513.695 37.9016 511.469 44.7012ZM527.609 71.0181H515.643L521.626 51.8785L527.609 71.0181Z" fill="#272454"/>
<path fill-rule="evenodd" clip-rule="evenodd" d="M417.69 42.5606V96.8314C417.69 98.3424 419.082 99.6015 420.751 99.6015H426.873C428.543 99.6015 429.934 98.3424 429.934 96.8314V42.5606C429.934 41.0496 428.543 39.7904 426.873 39.7904H420.751C419.082 39.6645 417.69 40.9237 417.69 42.5606Z" fill="#272454"/>
<path fill-rule="evenodd" clip-rule="evenodd" d="M648.937 39.6646H636.553H636.414H635.858C633.771 39.6646 631.823 39.9164 629.875 40.2941C627.788 40.6719 625.701 41.4274 623.753 42.5607C621.666 43.6939 619.857 45.205 618.326 46.9678C616.518 48.9825 615.404 51.5009 614.57 54.0192C613.457 57.2931 613.178 60.6929 613.178 64.0927V75.2994C613.178 78.6992 613.596 82.099 614.57 85.2469C615.404 87.7653 616.657 90.2837 618.326 92.2983C619.857 94.0612 621.666 95.5722 623.753 96.7055C625.701 97.7128 627.788 98.4683 629.875 98.972C631.823 99.3497 633.91 99.6016 635.858 99.6016H636.414H636.553H648.937C650.606 99.6016 651.998 98.3424 651.998 96.8314V91.291C651.998 89.78 650.606 88.5208 648.937 88.5208H636.553H636.414H635.858C634.049 88.5208 632.24 88.3949 630.57 87.5134C628.901 86.632 627.788 85.121 627.092 83.4841C625.979 81.0916 625.701 78.0696 625.701 75.4253V64.2186C625.701 62.078 625.84 59.6855 626.535 57.6709C627.927 53.0119 630.988 51.1231 635.997 51.1231H649.076C650.745 51.1231 652.137 49.8639 652.137 48.227V42.6866C651.998 40.9237 650.606 39.6646 648.937 39.6646Z" fill="#272454"/>
</svg>
