<svg width="679" height="250" viewBox="0 0 679 250" fill="none" xmlns="http://www.w3.org/2000/svg">
<path d="M652.135 139.771L641.147 135.388C637.833 134.089 635.74 131.979 635.74 128.57C635.74 124.187 639.926 120.615 646.205 120.615C655.973 120.615 658.763 126.946 658.763 131.979L678.996 128.407C678.473 119.154 672.019 104.382 646.903 104.382C627.019 104.382 613.937 116.719 613.937 131.005C613.937 140.745 619.17 148.212 632.252 153.569L641.845 157.628C646.903 159.738 648.298 162.498 648.298 165.42C648.298 169.478 644.984 173.374 637.659 173.374C630.333 173.699 624.228 168.342 624.054 161.686C624.054 161.361 624.054 161.037 624.054 160.874C624.054 160.387 624.054 159.9 624.228 159.413L604.344 162.822C604.344 171.589 609.403 189.77 638.007 189.77C660.333 189.77 671.322 175.809 671.322 163.472C671.147 153.569 665.391 145.29 652.135 139.771Z" fill="#17AB47"/>
<path d="M609.751 4.22073L567.716 187.173H590.914L633.821 0L609.751 4.22073Z" fill="#17AB47"/>
<path d="M573.995 10.3893L533.53 187.01H556.728L598.414 6.00623L573.995 10.3893Z" fill="#17AB47"/>
<path d="M541.205 106.817L526.728 170.777C525.507 175.647 524.809 180.517 524.809 185.387V187.173H502.483C502.309 186.036 502.309 184.9 502.309 183.764C502.309 182.465 502.309 181.329 502.483 178.894C497.948 185.549 488.879 189.121 480.855 189.121C462.541 189.121 452.599 177.92 452.599 162.822C452.599 158.764 453.297 154.868 454.344 150.972L463.588 111.037L487.658 106.817L477.541 150.323C476.844 152.92 476.495 155.355 476.32 157.952C476.32 165.095 480.332 169.965 489.227 169.965C498.821 169.965 504.751 162.66 506.844 153.407L516.786 110.875L541.205 106.817Z" fill="#17AB47"/>
<path d="M414.925 105.031C405.157 105.031 396.611 108.44 391.727 113.31L408.646 39.1227L385.099 43.1811L370.971 104.544L351.959 187.01H374.634L377.25 175.809C380.215 182.302 389.634 188.958 403.239 188.958C429.227 188.958 448.413 167.855 448.413 138.634C448.588 120.128 437.076 105.031 414.925 105.031ZM400.971 169.803C390.855 169.803 383.355 162.822 383.355 151.296C383.355 136.037 393.471 124.024 406.727 124.024C417.367 124.024 424.867 130.03 424.867 142.043C425.041 160.387 412.134 169.803 400.971 169.803Z" fill="#17AB47"/>
<path d="M360.855 106.979L337.308 111.037L336.087 116.07C335.215 114.446 333.994 112.985 332.599 111.849C328.762 108.44 322.134 105.031 310.971 105.031C286.029 105.031 267.017 125.81 267.017 153.082C267.017 172.887 279.401 188.796 300.68 188.796C309.924 188.958 318.645 184.738 323.878 177.595C323.703 179.543 323.529 181.978 323.529 183.601C323.529 184.9 323.529 186.036 323.703 187.335H345.331C345.157 186.361 345.157 185.225 345.157 184.251C345.157 179.381 345.68 174.51 346.727 169.803L360.855 106.979ZM307.133 169.803C296.843 169.803 290.215 163.147 290.215 151.946C290.215 138.959 298.064 124.186 313.064 124.186C323.355 124.186 329.459 130.68 329.459 141.394C329.459 159.251 318.994 169.803 307.133 169.803Z" fill="#17AB47"/>
<path d="M249.575 110.226L244.866 111.037L227.424 187.173H250.447L268.936 106.817L249.575 110.226ZM265.098 64.2849C256.552 64.2849 249.401 70.7783 249.401 78.7328C249.226 85.0638 254.633 90.4209 261.61 90.5832C261.784 90.5832 261.959 90.5832 262.308 90.5832C271.029 90.5832 278.18 84.0898 278.354 75.9731C278.529 69.642 272.947 64.2849 266.145 64.2849C265.622 64.2849 265.447 64.2849 265.098 64.2849Z" fill="#17AB47"/>
<path d="M244.866 67.8562L220.447 72.0769L210.68 115.42C207.889 110.875 200.738 105.031 186.086 105.031C161.144 105.031 142.133 125.81 142.133 153.082C142.133 172.887 154.516 188.634 175.796 188.796C185.04 188.958 193.761 184.738 198.819 177.595C198.645 179.381 198.47 181.653 198.47 183.277C198.47 184.575 198.47 186.036 198.645 187.335H219.924C219.749 186.199 219.749 185.062 219.749 183.926C219.924 179.218 220.621 174.348 221.668 169.803L244.866 67.8562ZM182.075 169.803C171.784 169.803 165.156 163.147 165.156 151.946C165.156 138.959 173.005 124.187 188.005 124.187C198.296 124.187 204.4 130.68 204.4 141.394C204.575 159.251 194.11 169.803 182.075 169.803Z" fill="#17AB47"/>
<path d="M111.609 104.706C102.714 104.706 93.1207 107.628 87.3649 115.096C87.7137 112.499 87.8882 109.739 87.8882 107.141L64.8648 111.2C65.2136 113.797 64.1671 117.693 63.4694 120.778L48.4693 187.335H71.4927L82.3067 140.907C84.3998 131.979 90.5044 124.187 100.446 124.187C108.993 124.187 113.528 128.894 113.528 136.037C113.528 137.661 113.353 139.284 113.005 140.745L102.365 187.173H125.912L137.074 138.635C137.772 135.875 138.121 132.953 138.121 130.193C138.121 115.421 128.702 104.706 111.609 104.706Z" fill="#17AB47"/>
<path d="M39.2251 76.6222L14.1087 187.173H38.7018L64.8648 72.2391L39.2251 76.6222Z" fill="#17AB47"/>
<path d="M29.632 249.022L33.9925 230.029H14.2831L9.9226 249.022H0.329529L10.7947 203.244H20.3878L16.2017 221.75H35.9111L40.0972 203.244H49.6903L39.2251 249.022H29.632Z" fill="#211E1E"/>
<path d="M80.0393 202.108C93.1207 202.108 101.842 210.387 101.842 222.562C101.842 239.932 88.7603 249.834 75.5044 249.834C62.4229 249.834 53.7019 241.555 53.7019 229.38C53.3531 212.01 66.4345 202.108 80.0393 202.108ZM79.3416 210.549C70.2718 210.549 63.295 218.666 63.295 228.731C63.295 236.523 68.1787 241.23 75.6788 241.23C84.3997 241.23 91.7254 233.763 91.7254 223.049C91.7254 215.419 87.0161 210.549 79.3416 210.549Z" fill="#211E1E"/>
<path d="M152.772 203.082L145.621 234.412C143.354 244.477 135.679 249.834 126.086 249.834C115.621 249.834 108.818 244.152 108.818 235.224C108.818 233.763 108.993 232.302 109.342 230.679L115.621 203.082H125.04L118.76 231.003C118.586 231.977 118.412 232.951 118.412 233.925C118.412 238.146 120.853 241.068 126.784 241.068C131.842 241.068 134.981 238.146 136.202 232.789L143.005 202.919L152.772 203.082Z" fill="#211E1E"/>
<path d="M180.156 236.523C180.156 234.412 179.11 232.627 175.97 231.49L170.04 228.893C163.761 226.296 160.447 222.399 160.447 216.555C160.447 207.952 168.296 202.108 177.889 202.108C190.97 202.108 194.633 210.549 194.633 215.419L185.563 216.88C185.563 215.094 184.691 209.9 177.365 209.9C173.005 209.9 170.04 212.659 170.04 215.744C170.04 218.016 171.61 219.964 173.877 220.776L179.633 223.049C186.958 225.971 189.924 230.192 189.924 235.711C189.924 242.854 183.47 249.834 172.482 249.834C158.877 249.834 153.993 241.23 153.993 234.899C153.993 234.412 153.993 233.925 154.168 233.601L163.237 232.302C163.237 232.789 163.237 233.276 163.237 233.601C162.889 238.146 166.726 242.042 171.61 242.204C171.958 242.204 172.307 242.204 172.656 242.204C177.191 242.204 180.156 239.769 180.156 236.523Z" fill="#211E1E"/>
<path d="M197.249 249.022L207.714 203.244H217.482L207.017 249.022H197.249Z" fill="#211E1E"/>
<path d="M249.401 249.022L235.098 216.555L227.773 249.022H218.18L228.645 203.244H239.808L252.889 233.925L259.866 203.244H269.459L258.994 249.022H249.401Z" fill="#211E1E"/>
<path d="M282.889 228.568C282.889 236.36 287.424 241.717 295.622 241.717C301.726 242.042 307.482 238.308 309.227 232.789H293.878L295.622 224.997H319.866L314.459 248.86H307.134L307.308 244.152C303.994 247.886 299.11 249.834 294.052 249.672C281.668 249.672 273.122 241.393 273.122 229.055C273.122 211.848 286.203 201.945 299.982 201.945C313.238 201.945 319.517 209.413 320.738 216.393L311.32 218.99C310.447 214.932 306.959 210.387 299.11 210.387C290.389 210.549 282.889 217.529 282.889 228.568Z" fill="#211E1E"/>
<path d="M350.39 249.022L360.855 203.244H391.727L389.808 211.685H368.529L365.913 223.049H384.925L383.18 231.328H364.169L359.983 249.185L350.39 249.022Z" fill="#211E1E"/>
<path d="M391.901 249.022L402.367 203.244H412.134L401.669 249.022H391.901Z" fill="#211E1E"/>
<path d="M444.925 249.022L430.623 216.555L423.297 249.022H413.704L424.169 203.244H435.157L448.239 233.925L455.216 203.244H464.809L454.344 249.022H444.925Z" fill="#211E1E"/>
<path d="M498.297 238.471H479.286L473.006 249.022H462.192L490.972 203.244H501.96L509.809 249.022H499.867L498.297 238.471ZM484.169 230.354H497.076L494.46 213.146L484.169 230.354Z" fill="#211E1E"/>
<path d="M548.53 249.022L534.228 216.555L526.902 249.022H517.309L527.774 203.244H538.763L551.844 233.925L558.821 203.244H568.414L557.949 249.022H548.53Z" fill="#211E1E"/>
<path d="M619.519 216.88L610.275 219.477C609.228 214.12 604.17 210.224 598.24 210.549C589.344 210.549 581.844 217.854 581.844 228.568C581.844 236.036 586.728 241.393 594.577 241.393C601.554 241.393 605.565 237.172 607.658 232.789L616.379 236.036C612.717 244.639 603.821 250.159 593.879 249.996C580.972 249.996 572.077 241.23 572.077 229.218C572.077 212.01 585.333 202.27 598.937 202.108C612.193 202.108 618.298 209.9 619.519 216.88Z" fill="#211E1E"/>
<path d="M621.263 249.022L631.728 203.244H662.426L660.508 211.685H639.403L636.961 222.237H655.973L654.228 230.191H635.042L632.6 240.743H653.705L651.787 249.185H621.263V249.022Z" fill="#211E1E"/>
</svg>
