<svg width="700" height="80" viewBox="0 0 700 80" fill="none" xmlns="http://www.w3.org/2000/svg">
<path fill-rule="evenodd" clip-rule="evenodd" d="M88.8574 56.2665L84.6975 78.1138H66.5157C67.8976 70.882 69.2831 63.1274 70.8537 55.7287C71.1742 54.1229 71.5304 52.48 71.8687 50.6888C71.8687 49.4204 72.0361 48.1595 72.2249 46.8949C72.9123 38.0573 66.8541 36.4256 60.9846 39.1365C57.4907 40.5792 55.9343 43.0973 54.2283 46.3571C52.6506 49.2461 52.1555 51.9423 51.4396 55.5507L46.9343 78.1138H28.9163L39.4763 24.3393C45.0253 24.1575 50.5564 23.9758 56.116 23.8089C55.4321 27.2283 54.5631 30.4807 54.0431 33.9074C60.8101 25.4259 69.4362 21.1017 79.5083 24.1575C89.5519 27.0465 91.6461 37.527 90.0612 47.6106C89.8653 50.6888 89.5519 53.3849 88.8574 56.2665Z" fill="#98272A"/>
<path fill-rule="evenodd" clip-rule="evenodd" d="M417.461 0.000295955H435.137L419.374 78.2848H403.105C403.785 75.3959 404.469 72.5217 405.352 69.6105C402.047 72.874 399.29 75.5702 395.647 77.3874V65.6534C397.032 65.3048 398.435 64.7485 399.632 64.0402C404.85 60.606 406.894 54.472 406.894 48.3343L406.559 45.271C406.221 42.3969 405.017 39.8528 401.879 38.425C400.17 37.3309 397.727 37.3309 395.647 37.7018V23.802C396.676 23.802 397.545 24.158 398.435 24.158C403.45 25.4227 407.763 28.8642 410.221 34.0859L417.461 0.000295955ZM395.647 77.3874C394.443 78.1105 393.072 78.4666 391.48 78.8152C386.661 80.0761 383.854 80.4432 378.84 78.4666C372.963 76.2933 370.028 72.1508 367.774 66.5583C362.578 52.8551 368.273 33.3702 381.094 26.691C385.247 24.5178 390.611 23.2717 395.647 23.802V37.7018C394.268 37.8835 392.726 38.425 391.668 39.137C388.719 41.1285 386.807 44.0101 385.778 47.4294C384.581 50.8487 383.854 55.7292 384.912 59.3303C385.247 61.1401 385.956 62.4232 386.978 63.4876C389.4 65.6534 392.726 66.1911 395.647 65.6534" fill="#98272A"/>
<path fill-rule="evenodd" clip-rule="evenodd" d="M270.568 25.0795L266.936 36.6169C261.921 35.1854 258.263 34.4436 253.081 34.0913C251.507 34.0913 250.324 33.9096 249.117 34.2582C245.456 35.1854 243.892 38.5973 246.674 41.1302C250.125 44.7313 256.197 45.6213 260.525 48.5177C261.582 49.252 262.783 50.3312 263.987 51.4104C267.423 56.9993 266.936 62.9552 263.306 68.7406C257.576 77.5634 246.674 78.4683 236.798 77.7451C231.427 77.3705 226.918 76.2987 221.54 75.2195L224.852 62.2247C231.427 64.0419 235.594 65.6699 241.791 64.9245C244.587 64.7502 248.593 64.9245 248.593 60.9712C247.885 58.0785 245.295 56.2687 242.507 55.0152C238.368 53.0311 233.859 51.7702 230.572 48.336C228.638 45.4544 228.107 43.2886 228.107 39.6839C228.107 36.0754 229.172 33.561 230.729 31.206C239.579 18.0517 257.775 21.8344 270.568 25.0795Z" fill="#98272A"/>
<path fill-rule="evenodd" clip-rule="evenodd" d="M167.853 23.8013L186.209 23.4453C184.827 30.1244 183.428 36.7962 182.042 43.8202C181.202 48.3336 179.464 54.1227 180.682 58.6212C181.383 61.1393 182.209 62.0479 184.485 62.7637C187.085 63.676 190.398 63.1271 192.47 61.5028C198.689 56.8225 200.423 49.053 201.98 41.4764L205.791 23.4453H223.641L212.54 78.1135C207.351 78.2841 202.147 77.9318 196.776 78.1135C197.293 75.0317 198.001 70.522 198.689 67.455C196.776 69.2685 195.231 71.2601 193.147 72.8733C190.558 75.0317 187.427 76.4817 184.143 77.3866C180.325 78.2841 175.129 78.2841 171.489 76.656C167.497 75.0317 164.562 71.2601 162.998 67.0953C160.926 61.5028 161.78 57.7274 162.657 51.942C164.035 42.5704 165.955 33.006 167.853 23.8013Z" fill="#98272A"/>
<path fill-rule="evenodd" clip-rule="evenodd" d="M147.402 0.000295955H165.078L149.148 78.2848H132.857C133.551 75.3959 134.417 72.5217 135.097 69.6105C132.002 72.874 129.06 75.5702 125.588 77.3874V65.6534C126.98 65.3048 128.348 64.7485 129.58 64.0402C134.581 60.606 136.682 54.472 136.682 48.3343L136.483 45.271C136.148 42.3969 134.762 39.8528 131.674 38.425C129.901 37.3309 127.486 37.3309 125.588 37.7018V23.802C126.457 23.802 127.297 24.158 128.348 24.158C133.206 25.4227 137.533 28.8642 140.133 34.0859L147.402 0.000295955ZM125.588 77.3874C124.209 78.1105 122.813 78.4666 121.407 78.8152C116.588 80.0761 113.657 80.4432 108.628 78.4666C102.883 76.2933 99.7665 72.1508 97.5049 66.5583C92.4688 52.8551 98.2421 33.3702 110.868 26.691C115.021 24.5178 120.559 23.2717 125.588 23.802V37.7018C124.031 37.8835 122.653 38.425 121.407 39.137C118.661 41.1285 116.588 44.0101 115.53 47.4294C114.333 50.8487 113.657 55.7292 114.661 59.3303C115.021 61.1401 115.712 62.4232 116.901 63.4876C119.355 65.6534 122.45 66.1911 125.588 65.6534" fill="#98272A"/>
<path fill-rule="evenodd" clip-rule="evenodd" d="M15.5818 0.00157251H34.1126L18.7053 78.1118H0" fill="#98272A"/>
<path fill-rule="evenodd" clip-rule="evenodd" d="M359.28 56.2665L354.931 78.1138H336.575C338.128 70.882 339.684 63.1274 341.084 55.7287C341.429 54.1229 341.792 52.48 342.305 50.8779C342.305 49.4204 342.305 48.1595 342.458 46.8949C343.349 38.0573 336.895 36.4256 331.197 39.1365C327.906 40.7572 326.349 43.0973 324.626 46.3571C322.905 49.2461 322.371 52.1314 321.855 55.5507L317.161 78.1138H299.499L309.724 24.3393C315.248 24.1575 320.833 24.1575 326.349 23.8089C325.666 27.2283 324.957 30.4807 324.255 33.9074C331.015 25.4259 339.684 21.1017 349.728 24.1575C359.789 27.0465 361.876 37.527 360.491 47.7998C360.134 50.6888 359.789 53.3849 359.28 56.2665Z" fill="#98272A"/>
<path fill-rule="evenodd" clip-rule="evenodd" d="M284.772 0.00157251H303.484L288.077 78.1118H269.343" fill="#98272A"/>
<path fill-rule="evenodd" clip-rule="evenodd" d="M631.572 56.824L627.252 78.8159H608.888C610.274 71.4284 612.012 63.4883 613.415 56.2677C613.721 54.4691 614.084 52.8558 614.444 51.0423C614.444 49.7777 614.59 48.5168 614.779 47.2336C615.488 38.396 609.241 36.7976 603.336 39.4827C600.045 40.9475 598.503 43.4657 596.619 46.7181C595.037 49.6034 594.524 52.3181 593.833 55.9117L589.3 78.649H571.289L581.703 24.5185C587.212 24.3368 592.95 24.1551 598.503 23.9771C597.801 27.4001 597.096 30.8417 596.416 34.0867C603.008 25.6051 612.012 21.2735 621.895 24.1551C632.273 27.2295 634.179 37.8843 632.797 47.9864C632.608 51.0423 632.092 53.7459 631.572 56.824Z" fill="#98272A"/>
<path fill-rule="evenodd" clip-rule="evenodd" d="M652.371 4.80166e-05H670.553L661.193 46.5391L679.571 24.1578H700L678.542 48.8792L692.029 78.4663H672.622L660.691 49.7767L654.968 78.4663H637.131" fill="#98272A"/>
<path fill-rule="evenodd" clip-rule="evenodd" d="M568.016 49.7773C566.456 57.5356 564.899 65.1123 563.489 72.6963L562.812 78.8155H547.74L548.801 70.5231C546.201 73.223 543.412 75.5705 540.478 77.2023V67.8195C540.634 67.6378 540.973 67.6378 541.311 67.445C543.245 66.3732 544.638 65.6537 545.66 64.5597C548.092 61.8673 549.317 57.7322 550.322 54.2906H547.74C545.514 54.2906 542.889 54.1237 540.478 54.2906V45.2713C544.1 44.9153 548.263 45.0822 552.405 45.0822C552.405 40.3834 550.682 36.7972 546.005 35.7254C543.932 35.3546 542.041 35.3546 540.478 35.3546V24.1584C551.739 22.7306 563.692 24.7072 567.848 35.3546C569.91 40.758 568.724 44.1847 568.016 49.7773ZM540.478 77.2023C537.7 78.6486 534.569 79.5609 531.634 79.9021C524.867 80.6179 517.776 77.3877 514.834 70.8828C512.74 67.2707 513.285 63.3136 514.122 59.1711C515.012 55.2029 516.754 53.0297 521.22 49.7773C527.642 46.5397 533.91 45.4456 540.478 45.2713V54.2906C537.871 54.4723 535.274 55.2029 533.543 56.4713C530.085 59.1711 528.714 64.2222 532.496 67.2707C534.751 68.8913 537.871 68.7393 540.478 67.8195V77.2023ZM540.478 35.3546C538.034 35.3546 535.947 35.5289 533.201 36.2595C530.085 36.9715 527.831 38.0581 524.867 39.4859L526.947 26.873C531.129 25.8013 535.591 24.7072 540.478 24.1584" fill="#98272A"/>
<path fill-rule="evenodd" clip-rule="evenodd" d="M479.148 6.31862H488.671C497.005 6.31862 509.816 7.57954 512.209 17.6817C512.74 19.3061 512.908 20.9156 512.908 22.5363V22.7328C512.908 28.6629 510.158 33.9068 504.962 37.5301C501.311 39.3176 498.216 40.2262 494.576 41.3054C503.911 42.9261 509.998 49.6052 508.078 60.2526C505.282 75.035 491.962 77.3677 479.148 78.2874V65.3074C479.835 65.3074 480.547 65.1145 481.06 64.9254C491.787 63.1267 494.202 50.1393 484.009 47.8029C482.424 47.432 480.893 47.2354 479.148 47.432V35.8798C481.227 35.8798 483.482 35.698 485.373 35.3568C491.104 33.9068 498.708 27.7802 492.468 20.9156C489.868 18.0526 483.649 18.4012 479.148 18.7572V6.31862ZM461.828 6.31862H479.148V18.7572H477.584L473.937 35.698C475.504 35.698 477.431 35.8798 479.148 35.8798V47.432C476.719 47.432 474.119 47.8029 471.697 47.9883L468.06 66.012C471.162 65.8303 475.344 65.8303 479.148 65.3074V78.2874C478.097 78.4692 476.922 78.4692 475.835 78.6509H447.788" fill="#98272A"/>
</svg>
