<svg width="680" height="100" viewBox="0 0 680 100" fill="none" xmlns="http://www.w3.org/2000/svg">
<path d="M118.014 76.2841V25.2459H124.005V50.6011L146.421 25.2459H154.537L135.599 45.9016L155.31 76.2841H147.387L131.348 50.4918L124.005 58.6885V76.3934H118.014V76.2841ZM180.914 71.8033C178.885 73.7705 176.856 75.1913 175.02 75.9563C173.088 76.7213 171.059 77.1585 168.933 77.1585C165.358 77.1585 162.556 76.1749 160.624 74.2076C158.691 72.2404 157.725 69.7268 157.725 66.5574C157.725 64.6994 158.112 63.0601 158.788 61.6393C159.561 60.1093 160.431 58.9071 161.687 58.0328C162.846 57.1585 164.199 56.3935 165.648 55.9563C166.711 55.6284 168.354 55.3005 170.576 54.9727C175.02 54.3169 178.306 53.6612 180.431 52.7869C180.431 51.9126 180.431 51.3661 180.431 51.1475C180.431 48.6339 179.948 46.776 178.885 45.7923C177.436 44.3716 175.407 43.7159 172.605 43.7159C169.996 43.7159 168.064 44.2623 166.808 45.2459C165.552 46.2295 164.682 48.0874 164.102 50.7104L158.691 49.8361C159.175 47.2131 159.948 45.1366 161.107 43.4973C162.266 41.8579 163.909 40.6557 166.035 39.7814C168.16 38.9071 170.672 38.47 173.474 38.47C176.277 38.47 178.499 38.7978 180.238 39.5629C181.977 40.3279 183.233 41.2022 184.103 42.4044C184.876 43.4973 185.456 44.918 185.842 46.6667C186.035 47.7596 186.132 49.6175 186.132 52.459V60.765C186.132 66.5574 186.228 70.2732 186.518 71.8033C186.712 73.3333 187.195 74.8634 187.871 76.2841H182.074C181.494 75.082 181.108 73.5519 180.914 71.8033ZM180.431 57.8142C178.402 58.7978 175.407 59.5629 171.349 60.2186C169.03 60.5465 167.484 60.9836 166.518 61.4208C165.552 61.8579 164.875 62.5137 164.295 63.4973C163.812 64.3716 163.523 65.3552 163.523 66.4481C163.523 68.0874 164.102 69.5082 165.165 70.6011C166.325 71.694 167.87 72.2404 170.093 72.2404C172.218 72.2404 174.151 71.694 175.793 70.7104C177.436 69.6175 178.692 68.1967 179.465 66.3388C180.045 64.918 180.335 62.8415 180.335 60.1093V57.8142H180.431ZM194.634 76.2841V39.3443H199.659V44.918C200.915 42.2951 202.074 40.5464 203.234 39.7814C204.297 38.9071 205.456 38.47 206.809 38.47C208.645 38.47 210.577 39.1257 212.509 40.4372L210.577 46.2295C209.224 45.3552 207.872 44.8087 206.519 44.8087C205.263 44.8087 204.2 45.2459 203.234 46.0109C202.268 46.8853 201.591 47.9782 201.205 49.3989C200.625 51.5847 200.239 54.0984 200.239 56.7213V76.0656H194.634V76.2841ZM215.601 76.2841V39.3443H220.626V44.5902C223.041 40.5464 226.519 38.47 231.061 38.47C232.993 38.47 234.829 38.9071 236.471 39.6721C238.114 40.4371 239.37 41.5301 240.143 42.8415C241.013 44.153 241.496 45.6831 241.882 47.4317C242.075 48.6339 242.172 50.6011 242.172 53.5519V76.2841H236.665V53.7705C236.665 51.2568 236.471 49.2896 235.988 48.0874C235.602 46.776 234.829 45.7924 233.669 45.0273C232.607 44.2623 231.254 43.9344 229.805 43.9344C227.486 43.9344 225.457 44.8087 223.717 46.4481C221.978 48.1967 221.109 51.3661 221.109 56.0656V76.2841H215.601ZM272.028 71.8033C269.999 73.7705 267.97 75.1913 266.134 75.9563C264.202 76.7213 262.173 77.1585 260.047 77.1585C256.472 77.1585 253.67 76.1749 251.738 74.2076C249.805 72.2404 248.839 69.7268 248.839 66.5574C248.839 64.6994 249.225 63.0601 249.902 61.6393C250.675 60.1093 251.544 58.9071 252.8 58.0328C253.96 57.1585 255.313 56.3935 256.762 55.9563C257.825 55.6284 259.467 55.3005 261.69 54.9727C266.134 54.3169 269.419 53.6612 271.545 52.7869C271.545 51.9126 271.545 51.3661 271.545 51.1475C271.545 48.6339 271.062 46.776 269.999 45.7923C268.55 44.3716 266.521 43.7159 263.719 43.7159C261.11 43.7159 259.177 44.2623 257.921 45.2459C256.665 46.2295 255.796 48.0874 255.216 50.7104L249.805 49.8361C250.288 47.2131 251.061 45.1366 252.221 43.4973C253.38 41.8579 255.023 40.6557 257.148 39.7814C259.274 38.9071 261.786 38.47 264.588 38.47C267.39 38.47 269.612 38.7978 271.352 39.5629C273.091 40.3279 274.347 41.2022 275.216 42.4044C275.989 43.4973 276.569 44.918 276.956 46.6667C277.149 47.7596 277.246 49.6175 277.246 52.459V60.765C277.246 66.5574 277.342 70.2732 277.632 71.8033C277.825 73.3333 278.308 74.8634 278.985 76.2841H273.187C272.511 75.082 272.125 73.5519 272.028 71.8033ZM271.545 57.8142C269.516 58.7978 266.521 59.5629 262.463 60.2186C260.144 60.5465 258.598 60.9836 257.631 61.4208C256.665 61.8579 255.989 62.5137 255.409 63.4973C254.926 64.3716 254.636 65.3552 254.636 66.4481C254.636 68.0874 255.216 69.5082 256.279 70.6011C257.438 71.694 258.984 72.2404 261.206 72.2404C263.332 72.2404 265.265 71.694 266.907 70.7104C268.55 69.6175 269.806 68.1967 270.579 66.3388C271.158 64.918 271.448 62.8415 271.448 60.1093V57.8142H271.545ZM297.826 70.7104L298.599 76.2841C297.053 76.612 295.604 76.8306 294.444 76.8306C292.415 76.8306 290.869 76.5027 289.806 75.7377C288.743 74.9727 287.97 74.0984 287.487 72.8962C287.004 71.694 286.811 69.2896 286.811 65.4645V44.153H282.656V39.235H286.714V30.0546L292.222 26.3388V39.235H297.826V44.153H292.222V65.7924C292.222 67.541 292.318 68.7432 292.512 69.2896C292.705 69.8361 292.995 70.1639 293.478 70.4918C293.961 70.8197 294.541 70.929 295.41 70.929C295.99 70.929 296.86 70.929 297.826 70.7104ZM324.59 71.8033C322.561 73.7705 320.532 75.1913 318.696 75.9563C316.764 76.7213 314.734 77.1585 312.609 77.1585C309.034 77.1585 306.232 76.1749 304.299 74.2076C302.367 72.2404 301.401 69.7268 301.401 66.5574C301.401 64.6994 301.787 63.0601 302.464 61.6393C303.237 60.1093 304.106 58.9071 305.362 58.0328C306.522 57.1585 307.874 56.3935 309.324 55.9563C310.387 55.6284 312.029 55.3005 314.251 54.9727C318.696 54.3169 321.981 53.6612 324.107 52.7869C324.107 51.9126 324.107 51.3661 324.107 51.1475C324.107 48.6339 323.624 46.776 322.561 45.7923C321.111 44.3716 319.082 43.7159 316.28 43.7159C313.672 43.7159 311.739 44.2623 310.483 45.2459C309.227 46.2295 308.358 48.0874 307.778 50.7104L302.367 49.8361C302.85 47.2131 303.623 45.1366 304.783 43.4973C305.942 41.8579 307.585 40.6557 309.71 39.7814C311.836 38.9071 314.348 38.47 317.15 38.47C319.952 38.47 322.174 38.7978 323.914 39.5629C325.653 40.3279 326.909 41.2022 327.778 42.4044C328.551 43.4973 329.131 44.918 329.518 46.6667C329.711 47.7596 329.807 49.6175 329.807 52.459V60.765C329.807 66.5574 329.904 70.2732 330.194 71.8033C330.387 73.3333 330.87 74.8634 331.547 76.2841H325.749C325.073 75.082 324.686 73.5519 324.59 71.8033ZM324.107 57.8142C322.078 58.7978 319.082 59.5629 315.024 60.2186C312.705 60.5465 311.16 60.9836 310.193 61.4208C309.227 61.8579 308.551 62.5137 307.971 63.4973C307.488 64.3716 307.198 65.3552 307.198 66.4481C307.198 68.0874 307.778 69.5082 308.841 70.6011C310 71.694 311.546 72.2404 313.768 72.2404C315.894 72.2404 317.826 71.694 319.469 70.7104C321.111 69.6175 322.368 68.1967 323.141 66.3388C323.72 64.918 324.01 62.8415 324.01 60.1093V57.8142H324.107ZM338.31 76.2841V25.2459H343.817V54.317L356.958 39.235H364.108L351.644 52.8962L365.364 76.1749H358.504L347.779 57.3771L343.914 61.6393V76.2841H338.31ZM391.162 71.8033C389.133 73.7705 387.104 75.1913 385.268 75.9563C383.335 76.7213 381.306 77.1585 379.181 77.1585C375.606 77.1585 372.804 76.1749 370.871 74.2076C368.939 72.2404 367.973 69.7268 367.973 66.5574C367.973 64.6994 368.359 63.0601 369.036 61.6393C369.809 60.1093 370.678 58.9071 371.934 58.0328C373.094 57.1585 374.446 56.3935 375.896 55.9563C376.958 55.6284 378.601 55.3005 380.823 54.9727C385.268 54.3169 388.553 53.6612 390.679 52.7869C390.679 51.9126 390.679 51.3661 390.679 51.1475C390.679 48.6339 390.196 46.776 389.133 45.7923C387.683 44.3716 385.654 43.7159 382.852 43.7159C380.244 43.7159 378.311 44.2623 377.055 45.2459C375.799 46.2295 374.929 48.0874 374.35 50.7104L368.939 49.8361C369.422 47.2131 370.195 45.1366 371.354 43.4973C372.514 41.8579 374.156 40.6557 376.282 39.7814C378.408 38.9071 380.92 38.47 383.722 38.47C386.524 38.47 388.746 38.7978 390.485 39.5629C392.225 40.3279 393.481 41.2022 394.35 42.4044C395.123 43.4973 395.703 44.918 396.089 46.6667C396.283 47.7596 396.379 49.6175 396.379 52.459V60.765C396.379 66.5574 396.476 70.2732 396.766 71.8033C396.959 73.3333 397.442 74.8634 398.118 76.2841H392.321C391.645 75.082 391.258 73.5519 391.162 71.8033ZM390.679 57.8142C388.65 58.7978 385.654 59.5629 381.596 60.2186C379.277 60.5465 377.731 60.9836 376.765 61.4208C375.799 61.8579 375.123 62.5137 374.543 63.4973C374.06 64.3716 373.77 65.3552 373.77 66.4481C373.77 68.0874 374.35 69.5082 375.413 70.6011C376.572 71.694 378.118 72.2404 380.34 72.2404C382.466 72.2404 384.398 71.694 386.041 70.7104C387.683 69.6175 388.939 68.1967 389.712 66.3388C390.292 64.918 390.582 62.8415 390.582 60.1093L390.679 57.8142ZM422.853 76.2841V25.2459H439.762C443.241 25.2459 445.946 25.7924 448.072 26.776C450.197 27.7596 451.743 29.3989 452.999 31.5847C454.159 33.7705 454.738 35.9563 454.738 38.3607C454.738 40.5465 454.255 42.623 453.192 44.4809C452.13 46.4481 450.584 47.9781 448.458 49.1803C451.163 50.0546 453.289 51.5847 454.738 53.7705C456.188 55.9563 456.961 58.5792 456.961 61.53C456.961 63.9344 456.478 66.1202 455.608 68.1967C454.738 70.2732 453.579 71.8033 452.323 72.8962C450.97 73.9891 449.328 74.8634 447.395 75.4098C445.463 75.9563 442.951 76.2841 440.149 76.2841H422.853ZM428.844 46.7759H438.603C441.211 46.7759 443.144 46.5574 444.303 46.2295C445.849 45.683 447.009 44.918 447.685 43.7159C448.458 42.5137 448.845 41.0929 448.845 39.235C448.845 37.5956 448.458 36.0656 447.782 34.7541C447.009 33.4426 446.043 32.5683 444.69 32.1311C443.337 31.694 441.018 31.3661 437.83 31.3661H428.844V46.7759ZM428.844 70.2732H440.052C441.984 70.2732 443.337 70.1639 444.11 70.0547C445.463 69.7268 446.622 69.2896 447.588 68.6339C448.555 67.9781 449.231 66.9946 449.907 65.7924C450.487 64.5902 450.777 63.1694 450.777 61.53C450.777 59.6721 450.39 58.0328 449.521 56.612C448.651 55.1912 447.492 54.2077 445.946 53.6612C444.4 53.1148 442.178 52.7869 439.376 52.7869H428.941V70.2732H428.844ZM485.754 71.8033C483.725 73.7705 481.696 75.1913 479.86 75.9563C477.927 76.7213 475.898 77.1585 473.773 77.1585C470.198 77.1585 467.396 76.1749 465.463 74.2076C463.531 72.2404 462.565 69.7268 462.565 66.5574C462.565 64.6994 462.951 63.0601 463.628 61.6393C464.401 60.1093 465.27 58.9071 466.526 58.0328C467.686 57.1585 469.038 56.3935 470.488 55.9563C471.55 55.6284 473.193 55.3005 475.415 54.9727C479.86 54.3169 483.145 53.6612 485.271 52.7869C485.271 51.9126 485.271 51.3661 485.271 51.1475C485.271 48.6339 484.788 46.776 483.725 45.7923C482.275 44.3716 480.246 43.7159 477.444 43.7159C474.836 43.7159 472.903 44.2623 471.647 45.2459C470.391 46.2295 469.521 48.0874 468.942 50.7104L463.531 49.8361C464.014 47.2131 464.787 45.1366 465.946 43.4973C467.106 41.8579 468.748 40.6557 470.874 39.7814C473 38.9071 475.512 38.47 478.314 38.47C481.116 38.47 483.338 38.7978 485.077 39.5629C486.817 40.3279 488.073 41.2022 488.942 42.4044C489.715 43.4973 490.295 44.918 490.681 46.6667C490.875 47.7596 490.971 49.6175 490.971 52.459V60.765C490.971 66.5574 491.068 70.2732 491.358 71.8033C491.551 73.3333 492.034 74.8634 492.711 76.2841H486.913C486.237 75.082 485.85 73.5519 485.754 71.8033ZM485.271 57.8142C483.242 58.7978 480.246 59.5629 476.188 60.2186C473.869 60.5465 472.323 60.9836 471.357 61.4208C470.391 61.8579 469.715 62.5137 469.135 63.4973C468.652 64.3716 468.362 65.3552 468.362 66.4481C468.362 68.0874 468.942 69.5082 470.005 70.6011C471.164 71.694 472.71 72.2404 474.932 72.2404C477.058 72.2404 478.99 71.694 480.633 70.7104C482.275 69.6175 483.532 68.1967 484.304 66.3388C484.884 64.918 485.174 62.8415 485.174 60.1093V57.8142H485.271ZM499.474 76.2841V39.3443H504.498V44.5902C506.914 40.5464 510.392 38.47 514.933 38.47C516.866 38.47 518.702 38.9071 520.344 39.6721C521.987 40.4371 523.243 41.5301 524.016 42.8415C524.885 44.153 525.368 45.6831 525.755 47.4317C525.948 48.6339 526.045 50.6011 526.045 53.5519V76.2841H520.537V53.7705C520.537 51.2568 520.344 49.2896 519.861 48.0874C519.475 46.776 518.702 45.7924 517.542 45.0273C516.479 44.2623 515.127 43.9344 513.677 43.9344C511.358 43.9344 509.329 44.8087 507.59 46.4481C505.851 48.1967 504.981 51.3661 504.981 56.0656V76.2841H499.474ZM534.547 76.2841V25.2459H540.055V54.317L553.195 39.235H560.345L547.881 52.8962L561.601 76.1749H554.741L544.016 57.3771L540.151 61.6393V76.2841H534.547ZM584.017 76.2841V25.2459H590.008V70.2732H612.231V76.2841H584.017ZM630.685 70.7104L631.458 76.2841C629.912 76.612 628.463 76.8306 627.304 76.8306C625.275 76.8306 623.729 76.5027 622.666 75.7377C621.603 74.9727 620.83 74.0984 620.347 72.8962C619.864 71.694 619.671 69.2896 619.671 65.4645V44.153H615.613V39.235H619.671V30.0546L625.178 26.3388V39.235H630.782V44.153H625.178V65.7924C625.178 67.541 625.275 68.7432 625.468 69.2896C625.661 69.8361 625.951 70.1639 626.434 70.4918C626.917 70.8197 627.497 70.929 628.366 70.929C628.85 70.929 629.623 70.929 630.685 70.7104ZM657.256 76.2841V71.5847C655.227 75.3005 652.135 77.0492 648.077 77.0492C645.468 77.0492 643.053 76.2841 640.927 74.6448C638.705 73.0055 637.062 70.7104 635.806 67.8689C634.647 64.918 633.971 61.6393 633.971 57.8142C633.971 54.0984 634.55 50.8197 635.613 47.7596C636.676 44.8088 638.319 42.4044 640.541 40.8743C642.763 39.235 645.179 38.47 647.884 38.47C649.816 38.47 651.556 38.9071 653.102 39.8907C654.647 40.8743 655.903 42.0765 656.87 43.6066V25.2459H662.377V76.2841H657.256ZM639.768 57.9235C639.768 62.623 640.637 66.2295 642.377 68.5246C644.116 70.8197 646.241 72.0219 648.657 72.0219C651.072 72.0219 653.101 70.9289 654.841 68.6339C656.58 66.4481 657.353 62.9508 657.353 58.3607C657.353 53.3333 656.483 49.6175 654.744 47.2131C653.005 44.8088 650.879 43.7159 648.367 43.7159C645.952 43.7159 643.826 44.8088 642.183 47.1038C640.637 49.3989 639.768 53.0055 639.768 57.9235ZM672.716 76.2841V69.1803H678.996V76.2841H672.716Z" fill="#853A93" stroke="#853A93" stroke-width="1.33333"/>
<path d="M421.984 85.3552H425.269L427.201 89.1803L429.134 85.3552H432.419L428.747 91.9126V96.612H425.752V91.9126L421.984 85.3552ZM432.419 92.5683C432.419 91.3661 432.805 90.2732 433.482 89.5082C434.158 88.7432 435.124 88.306 436.38 88.306C437.733 88.306 438.796 88.7432 439.472 89.7268C440.052 90.4918 440.342 91.4754 440.342 92.5683C440.342 93.7705 439.955 94.8634 439.279 95.6284C438.603 96.3935 437.637 96.8306 436.38 96.8306C435.318 96.8306 434.351 96.5028 433.675 95.847C432.805 94.9727 432.419 93.8798 432.419 92.5683ZM435.028 92.5683C435.028 93.3334 435.124 93.8798 435.414 94.2077C435.704 94.5355 435.994 94.7541 436.38 94.7541C436.767 94.7541 437.057 94.5355 437.347 94.2077C437.637 93.8798 437.733 93.3334 437.733 92.5683C437.733 91.9126 437.637 91.3661 437.347 91.0383C437.057 90.7104 436.767 90.4918 436.38 90.4918C435.994 90.4918 435.704 90.7104 435.414 91.0383C435.124 91.3661 435.028 91.8033 435.028 92.5683ZM449.521 96.612H447.009V95.3006C446.622 95.847 446.236 96.1749 445.849 96.5027C445.463 96.7213 444.98 96.8306 444.497 96.8306C443.724 96.8306 443.241 96.612 442.757 96.0656C442.371 95.5191 442.178 94.7541 442.178 93.6612V88.5246H444.883V93.0055C444.883 93.5519 444.98 93.8798 445.076 94.0984C445.27 94.317 445.463 94.4262 445.753 94.4262C446.043 94.4262 446.332 94.317 446.526 93.9891C446.719 93.6612 446.816 93.2241 446.816 92.459V88.5246H449.424L449.521 96.612ZM451.84 88.5246H454.352V89.8361C454.545 89.2896 454.835 88.8525 455.125 88.6339C455.415 88.4153 455.705 88.306 456.091 88.306C456.478 88.306 456.864 88.4153 457.347 88.7432L456.574 90.929C456.284 90.8197 455.995 90.7104 455.801 90.7104C455.415 90.7104 455.222 90.929 455.028 91.2568C454.738 91.694 454.642 92.5683 454.642 93.8798V96.612H451.936V88.5246H451.84ZM464.594 85.3552H471.84V87.7596H467.492V89.7268H471.164V92.0219H467.492V96.612H464.497L464.594 85.3552ZM475.995 91.1475L473.483 90.8197C473.58 90.2732 473.676 89.8361 473.869 89.6175C474.063 89.2896 474.353 89.071 474.642 88.8525C474.932 88.7432 475.222 88.5246 475.609 88.5246C475.995 88.4153 476.478 88.4153 476.961 88.4153C477.734 88.4153 478.411 88.4153 478.894 88.5246C479.377 88.6339 479.763 88.8525 480.053 89.1803C480.246 89.3989 480.44 89.7268 480.633 90.1639C480.73 90.6011 480.826 91.0383 480.826 91.3661V94.9727C480.826 95.3006 480.826 95.6284 480.923 95.847C480.923 96.0656 481.019 96.3935 481.213 96.7213H478.7C478.604 96.5027 478.507 96.3935 478.507 96.2842C478.507 96.1749 478.411 95.9563 478.411 95.7377C478.024 96.1749 477.734 96.3934 477.348 96.612C476.865 96.8306 476.382 96.9399 475.705 96.9399C474.836 96.9399 474.256 96.7213 473.869 96.2842C473.483 95.847 473.193 95.3006 473.193 94.6448C473.193 93.9891 473.386 93.5519 473.676 93.1148C473.966 92.6776 474.546 92.459 475.415 92.2404C476.382 92.0219 477.058 91.8033 477.348 91.694C477.638 91.5847 477.928 91.4754 478.314 91.3661C478.314 90.929 478.217 90.7104 478.121 90.6011C478.024 90.4918 477.734 90.3825 477.444 90.3825C477.058 90.3825 476.671 90.4918 476.478 90.6011C476.285 90.4918 476.092 90.8197 475.995 91.1475ZM478.314 92.7869C477.928 92.8962 477.541 93.1148 477.155 93.224C476.575 93.4426 476.285 93.5519 476.092 93.7705C475.898 93.9891 475.898 94.0984 475.898 94.3169C475.898 94.5355 475.995 94.7541 476.092 94.8634C476.285 94.9727 476.478 95.082 476.768 95.082C477.058 95.082 477.348 94.9727 477.638 94.8634C477.927 94.6448 478.024 94.5355 478.217 94.2077C478.314 93.9891 478.411 93.6612 478.411 93.224L478.314 92.7869ZM483.145 88.5246H485.657V89.7268C486.044 89.1803 486.334 88.8525 486.72 88.6339C487.107 88.4153 487.493 88.306 488.073 88.306C488.652 88.306 489.039 88.4153 489.425 88.6339C489.715 88.8525 490.005 89.1803 490.198 89.6175C490.585 89.0711 490.971 88.7432 491.358 88.5246C491.744 88.306 492.131 88.1967 492.614 88.1967C493.387 88.1967 493.967 88.4153 494.353 88.9618C494.74 89.5082 494.933 90.2732 494.933 91.3661V96.5027H492.324V91.9126C492.324 91.5847 492.227 91.2568 492.131 91.0383C491.938 90.7104 491.744 90.6011 491.454 90.6011C491.165 90.6011 490.875 90.7104 490.681 91.0383C490.488 91.2568 490.392 91.694 490.392 92.3497V96.5027H487.783V92.0219C487.783 91.694 487.783 91.4754 487.686 91.2568C487.59 91.0383 487.493 90.929 487.396 90.7104C487.3 90.6011 487.107 90.4918 486.913 90.4918C486.623 90.4918 486.334 90.6011 486.14 90.929C485.947 91.1476 485.85 91.694 485.85 92.2404V96.3935H483.242L483.145 88.5246ZM497.252 85.3552H499.86V87.4317H497.252V85.3552ZM497.252 88.5246H499.86V96.612H497.252V88.5246ZM502.373 85.3552H504.981V96.612H502.373V85.3552ZM506.817 88.5246H509.619L511.069 93.8798L512.421 88.5246H515.03L512.325 97.1585C512.035 98.1421 511.648 98.7978 511.358 99.1257C510.875 99.5629 510.199 99.8907 509.233 99.8907C508.846 99.8907 508.267 99.7814 507.494 99.6722L507.3 97.4864C507.687 97.5957 508.073 97.7049 508.556 97.7049C508.846 97.7049 509.136 97.5957 509.329 97.4864C509.523 97.2678 509.716 97.0492 509.812 96.612L506.817 88.5246ZM522.566 85.3552H528.074C529.04 85.3552 529.716 85.5738 530.2 86.1202C530.683 86.6667 530.972 87.3224 530.972 88.0875C530.972 88.7432 530.779 89.2896 530.489 89.8361C530.296 90.164 529.91 90.3825 529.427 90.6011C530.103 90.8197 530.586 91.1475 530.972 91.5847C531.262 92.0219 531.456 92.6776 531.456 93.3333C531.456 93.8798 531.359 94.4262 531.069 94.8634C530.876 95.3005 530.489 95.7377 530.103 95.9563C529.813 96.1749 529.523 96.2842 528.943 96.2842C528.267 96.3935 527.881 96.3935 527.591 96.3935H522.47L522.566 85.3552ZM525.562 89.8361H526.818C527.301 89.8361 527.591 89.7268 527.784 89.5082C527.977 89.2896 528.074 89.0711 528.074 88.7432C528.074 88.4153 527.977 88.1967 527.784 87.9782C527.591 87.7596 527.301 87.6503 526.818 87.6503H525.562V89.8361ZM525.562 94.2077H527.108C527.591 94.2077 527.977 94.0984 528.17 93.8798C528.364 93.6612 528.46 93.3334 528.46 93.0055C528.46 92.6776 528.364 92.459 528.17 92.2404C527.977 92.0219 527.591 91.9126 527.108 91.9126H525.658V94.2077H525.562ZM535.804 91.1475L533.291 90.8197C533.388 90.2732 533.485 89.8361 533.678 89.6175C533.871 89.2896 534.161 89.071 534.451 88.8525C534.644 88.7432 535.031 88.5246 535.417 88.5246C535.804 88.4153 536.287 88.4153 536.77 88.4153C537.543 88.4153 538.219 88.4153 538.702 88.5246C539.185 88.6339 539.572 88.8525 539.862 89.1803C540.055 89.3989 540.248 89.7268 540.441 90.1639C540.538 90.6011 540.635 91.0383 540.635 91.3661V94.9727C540.635 95.3006 540.635 95.6284 540.731 95.847C540.731 96.0656 540.828 96.3935 541.021 96.7213H538.509C538.412 96.5027 538.316 96.3935 538.316 96.2842C538.316 96.1749 538.219 95.9563 538.219 95.7377C537.833 96.1749 537.543 96.3934 537.156 96.612C536.673 96.8306 536.19 96.9399 535.514 96.9399C534.644 96.9399 534.064 96.7213 533.678 96.2842C533.291 95.847 533.001 95.3006 533.001 94.6448C533.001 93.9891 533.195 93.5519 533.485 93.1148C533.774 92.6776 534.354 92.459 535.224 92.2404C536.19 92.0219 536.866 91.8033 537.156 91.694C537.446 91.5847 537.736 91.4754 538.122 91.3661C538.122 90.929 538.026 90.7104 537.929 90.6011C537.833 90.4918 537.543 90.3825 537.253 90.3825C536.866 90.3825 536.48 90.4918 536.287 90.6011C536.093 90.4918 535.9 90.8197 535.804 91.1475ZM538.122 92.7869C537.736 92.8962 537.349 93.1148 536.963 93.224C536.383 93.4426 536.093 93.5519 535.9 93.7705C535.707 93.9891 535.707 94.0984 535.707 94.3169C535.707 94.5355 535.804 94.7541 535.9 94.8634C536.093 94.9727 536.287 95.082 536.576 95.082C536.866 95.082 537.156 94.9727 537.446 94.8634C537.736 94.6448 537.833 94.5355 538.026 94.2077C538.122 93.9891 538.219 93.6612 538.219 93.224V92.7869H538.122ZM542.954 88.5246H545.466V89.8361C545.852 89.2896 546.239 88.9618 546.625 88.6339C547.012 88.4153 547.495 88.306 547.978 88.306C548.751 88.306 549.331 88.5246 549.717 89.0711C550.103 89.6175 550.297 90.3825 550.297 91.4754V96.612H547.591V92.1311C547.591 91.5847 547.495 91.2568 547.398 91.0383C547.205 90.8197 547.012 90.7104 546.722 90.7104C546.432 90.7104 546.142 90.8197 545.949 91.1475C545.755 91.4754 545.659 91.9126 545.659 92.6776V96.612H543.05L542.954 88.5246ZM552.519 85.3552H555.224V91.1475L557.157 88.4153H560.442L557.93 91.2568L560.538 96.5027H557.543L556.191 93.224L555.224 94.3169V96.3935H552.519V85.3552ZM562.084 93.4426H564.886V96.612H562.084V93.4426ZM579.186 94.7541H575.805L575.322 96.612H572.326L575.901 85.3552H579.09L582.665 96.612H579.573L579.186 94.7541ZM578.607 92.3497L577.544 88.306L576.481 92.3497H578.607ZM589.332 93.4426L591.844 93.7705C591.747 94.4262 591.457 94.9727 591.167 95.4098C590.878 95.847 590.491 96.1749 589.911 96.5027C589.428 96.7213 588.752 96.8306 588.076 96.8306C587.303 96.8306 586.723 96.7213 586.24 96.612C585.757 96.5027 585.37 96.1749 584.984 95.847C584.597 95.5192 584.307 95.082 584.114 94.5355C583.921 94.0984 583.824 93.4426 583.824 92.5683C583.824 91.694 583.921 91.0383 584.211 90.4918C584.404 90.0546 584.597 89.7268 584.984 89.3989C585.274 89.071 585.563 88.8525 585.95 88.6339C586.433 88.4153 587.109 88.306 587.979 88.306C589.138 88.306 590.008 88.5246 590.588 89.0711C591.167 89.5082 591.554 90.2732 591.844 91.1475L589.332 91.5847C589.235 91.2568 589.138 90.929 588.945 90.8197C588.752 90.6011 588.462 90.6011 588.076 90.6011C587.592 90.6011 587.303 90.8197 587.013 91.1475C586.723 91.4754 586.626 92.1312 586.626 92.7869C586.626 93.4426 586.723 93.9891 587.013 94.3169C587.303 94.6448 587.592 94.8634 588.076 94.8634C588.462 94.8634 588.752 94.7541 588.945 94.5355C589.042 94.2077 589.235 93.8798 589.332 93.4426ZM593.776 88.5246H596.288V89.8361C596.482 89.2896 596.771 88.8525 597.061 88.6339C597.351 88.4153 597.641 88.306 598.028 88.306C598.414 88.306 598.8 88.4153 599.284 88.7432L598.511 90.929C598.221 90.8197 597.931 90.7104 597.738 90.7104C597.351 90.7104 597.158 90.929 596.965 91.2568C596.675 91.694 596.578 92.5683 596.578 93.8798V96.612H593.776V88.5246ZM600.25 92.5683C600.25 91.3661 600.636 90.2732 601.313 89.5082C601.989 88.7432 602.955 88.306 604.211 88.306C605.564 88.306 606.627 88.7432 607.303 89.7268C607.883 90.4918 608.173 91.4754 608.173 92.5683C608.173 93.7705 607.786 94.8634 607.11 95.6284C606.434 96.3935 605.467 96.8306 604.211 96.8306C603.148 96.8306 602.182 96.5028 601.506 95.847C600.636 94.9727 600.25 93.8798 600.25 92.5683ZM602.859 92.5683C602.859 93.3334 602.955 93.8798 603.245 94.2077C603.535 94.5355 603.825 94.7541 604.211 94.7541C604.598 94.7541 604.888 94.5355 605.177 94.2077C605.467 93.8798 605.564 93.3334 605.564 92.5683C605.564 91.9126 605.467 91.3661 605.177 91.0383C604.888 90.7104 604.598 90.4918 604.211 90.4918C603.825 90.4918 603.535 90.7104 603.245 91.0383C602.955 91.3661 602.859 91.8033 602.859 92.5683ZM609.622 94.3169L612.231 93.9891C612.327 94.317 612.521 94.6448 612.714 94.7541C612.907 94.8634 613.197 94.9727 613.487 94.9727C613.873 94.9727 614.163 94.8634 614.356 94.7541C614.55 94.6448 614.55 94.4263 614.55 94.2077C614.55 93.9891 614.453 93.7705 614.26 93.6612C614.067 93.5519 613.777 93.4426 613.1 93.3333C612.134 93.1148 611.554 93.0055 611.168 92.7869C610.781 92.6776 610.492 92.3498 610.298 92.0219C610.008 91.694 609.912 91.2568 609.912 90.7104C609.912 90.1639 610.008 89.7268 610.298 89.2896C610.588 88.8525 610.975 88.6339 611.361 88.4153C611.844 88.1967 612.424 88.0875 613.197 88.0875C614.067 88.0875 614.646 88.1967 615.033 88.306C615.419 88.4153 615.709 88.6339 615.999 88.9618C616.289 89.2896 616.482 89.7268 616.675 90.2732L614.163 90.6011C614.067 90.3825 613.97 90.1639 613.873 90.0547C613.68 89.8361 613.39 89.8361 613.1 89.8361C612.811 89.8361 612.617 89.9454 612.424 90.0547C612.327 90.1639 612.231 90.3825 612.231 90.4918C612.231 90.7104 612.327 90.8197 612.521 90.929C612.714 91.0383 613.1 91.1476 613.68 91.2568C614.55 91.3661 615.226 91.5847 615.613 91.694C615.999 91.9126 616.385 92.2405 616.579 92.5683C616.772 93.0055 616.965 93.3333 616.965 93.8798C616.965 94.3169 616.869 94.7541 616.579 95.3006C616.385 95.7377 615.999 96.0656 615.419 96.3935C614.936 96.612 614.163 96.8306 613.294 96.8306C612.038 96.8306 611.168 96.612 610.588 96.1749C610.105 95.7377 609.719 95.1913 609.622 94.3169ZM618.415 94.3169L621.023 93.9891C621.12 94.317 621.313 94.6448 621.506 94.7541C621.7 94.8634 621.99 94.9727 622.279 94.9727C622.666 94.9727 622.956 94.8634 623.149 94.7541C623.342 94.6448 623.342 94.4263 623.342 94.2077C623.342 93.9891 623.246 93.7705 623.052 93.6612C622.859 93.5519 622.569 93.4426 621.893 93.3333C620.927 93.1148 620.347 93.0055 619.96 92.7869C619.574 92.6776 619.284 92.3498 619.091 92.0219C618.801 91.694 618.704 91.2568 618.704 90.7104C618.704 90.1639 618.801 89.7268 619.091 89.2896C619.381 88.8525 619.767 88.6339 620.154 88.4153C620.637 88.1967 621.217 88.0875 621.99 88.0875C622.859 88.0875 623.439 88.1967 623.825 88.306C624.212 88.4153 624.502 88.6339 624.792 88.9618C625.081 89.2896 625.275 89.7268 625.468 90.2732L622.956 90.6011C622.859 90.3825 622.763 90.1639 622.666 90.0547C622.473 89.8361 622.183 89.8361 621.893 89.8361C621.603 89.8361 621.41 89.9454 621.217 90.0547C621.12 90.1639 621.023 90.3825 621.023 90.4918C621.023 90.7104 621.12 90.8197 621.313 90.929C621.506 91.0383 621.893 91.1476 622.473 91.2568C623.342 91.3661 624.019 91.5847 624.405 91.694C624.792 91.9126 625.178 92.2405 625.371 92.5683C625.565 93.0055 625.758 93.3333 625.758 93.8798C625.758 94.3169 625.661 94.7541 625.371 95.3006C625.178 95.7377 624.792 96.0656 624.212 96.3935C623.729 96.612 622.956 96.8306 622.086 96.8306C620.83 96.8306 619.96 96.612 619.381 96.1749C618.898 95.7377 618.608 95.1913 618.415 94.3169ZM633.971 85.3552H636.966V96.612H633.971V85.3552ZM639.575 88.5246H642.087V89.8361C642.473 89.2896 642.86 88.9618 643.246 88.6339C643.633 88.4153 644.116 88.306 644.599 88.306C645.372 88.306 645.952 88.5246 646.338 89.0711C646.725 89.6175 646.918 90.3825 646.918 91.4754V96.612H644.212V92.1311C644.212 91.5847 644.116 91.2568 644.019 91.0383C643.826 90.8197 643.633 90.7104 643.343 90.7104C643.053 90.7104 642.763 90.8197 642.57 91.1475C642.377 91.4754 642.28 91.9126 642.28 92.6776V96.612H639.671L639.575 88.5246ZM656.387 85.3552V96.612H653.874V95.4098C653.488 95.9563 653.198 96.2842 652.908 96.3935C652.522 96.612 652.135 96.7213 651.652 96.7213C650.686 96.7213 650.01 96.2842 649.527 95.4098C649.043 94.5355 648.754 93.5519 648.754 92.3497C648.754 91.0383 649.043 89.9454 649.623 89.2896C650.203 88.5246 650.879 88.1967 651.749 88.1967C652.135 88.1967 652.522 88.306 652.908 88.4153C653.198 88.6339 653.585 88.8525 653.778 89.1803V85.2459H656.387V85.3552ZM653.681 92.5683C653.681 91.9126 653.585 91.4754 653.295 91.1475C653.101 90.8197 652.812 90.7104 652.425 90.7104C652.135 90.7104 651.845 90.8197 651.652 91.1475C651.459 91.4754 651.362 91.9126 651.362 92.6776C651.362 93.3333 651.459 93.8798 651.652 94.0984C651.845 94.4262 652.135 94.5355 652.425 94.5355C652.812 94.5355 653.005 94.4262 653.295 94.0984C653.585 93.7705 653.681 93.2241 653.681 92.5683ZM658.706 85.3552H661.314V87.4317H658.706V85.3552ZM658.706 88.5246H661.314V96.612H658.706V88.5246ZM666.145 91.1475L663.633 90.8197C663.73 90.2732 663.826 89.8361 664.02 89.6175C664.213 89.2896 664.503 89.071 664.793 88.8525C664.986 88.7432 665.372 88.5246 665.759 88.5246C666.145 88.4153 666.628 88.4153 667.112 88.4153C667.885 88.4153 668.561 88.4153 669.044 88.5246C669.527 88.6339 669.914 88.8525 670.203 89.1803C670.397 89.3989 670.59 89.7268 670.783 90.1639C670.88 90.6011 670.976 91.0383 670.976 91.3661V94.9727C670.976 95.3006 670.976 95.6284 671.073 95.847C671.073 96.0656 671.17 96.3935 671.363 96.7213H668.851C668.754 96.5027 668.658 96.3935 668.658 96.2842C668.658 96.1749 668.561 95.9563 668.561 95.7377C668.174 96.1749 667.885 96.3934 667.498 96.612C667.015 96.8306 666.532 96.9399 665.855 96.9399C664.986 96.9399 664.406 96.7213 664.02 96.2842C663.633 95.847 663.343 95.3006 663.343 94.6448C663.343 93.9891 663.537 93.5519 663.826 93.1148C664.116 92.6776 664.696 92.459 665.566 92.2404C666.532 92.0219 667.208 91.8033 667.498 91.694C667.788 91.5847 668.078 91.4754 668.464 91.3661C668.464 90.929 668.368 90.7104 668.271 90.6011C668.174 90.4918 667.885 90.3825 667.595 90.3825C667.208 90.3825 666.822 90.4918 666.628 90.6011C666.435 90.4918 666.242 90.8197 666.145 91.1475ZM668.464 92.7869C668.078 92.8962 667.691 93.1148 667.305 93.224C666.725 93.4426 666.435 93.5519 666.242 93.7705C666.049 93.9891 666.049 94.0984 666.049 94.3169C666.049 94.5355 666.145 94.7541 666.242 94.8634C666.435 94.9727 666.628 95.082 666.918 95.082C667.208 95.082 667.498 94.9727 667.788 94.8634C668.078 94.6448 668.174 94.5355 668.368 94.2077C668.464 93.9891 668.561 93.6612 668.561 93.224L668.464 92.7869ZM673.295 93.4426H676.097V96.612H673.295V93.4426Z" fill="#853A93"/>
<path fill-rule="evenodd" clip-rule="evenodd" d="M70.6697 68.1967L64.2927 56.3934L58.0123 68.1967H70.6697ZM70.6697 31.694H57.9157L64.2927 43.1694L70.6697 31.694ZM40.8138 13.3333L34.5334 25.0273H47.1908L40.8138 13.3333ZM11.0545 31.694L17.3348 43.2787L23.6152 31.694H11.0545ZM11.0545 68.306L23.6152 68.1967L17.3348 56.5027L11.0545 68.306ZM0.329529 25.0273H27.3834L40.1374 1.53004L40.9104 -4.41074e-06L41.6833 1.53004L54.4373 25.0273H81.4912L80.7183 26.5574L67.9643 49.9454L80.7183 73.4426L81.4912 74.9727H54.4373L41.6833 98.47L40.9104 100L40.1374 98.47L27.3834 74.9727H0.329529L1.1025 73.4426L13.8565 49.9454L1.1025 26.5574L0.329529 25.0273ZM30.9584 31.9126L20.7166 49.9454L30.9584 68.0874H50.959L61.2008 49.9454L50.959 31.9126H30.9584ZM40.9104 86.5574L47.1908 74.9727H34.5334L40.9104 86.5574ZM40.1374 42.1858C42.1665 42.1858 43.9056 43.0601 45.2583 44.4809C46.611 45.9017 47.384 47.7596 47.384 49.9454C47.384 52.0219 46.611 53.9891 45.2583 55.4098C43.9056 56.8306 42.1665 57.7049 40.1374 57.7049C38.1084 57.7049 36.2726 56.8306 35.0165 55.4098C33.6638 53.9891 32.8908 52.0219 32.8908 49.9454C32.8908 47.8689 33.6638 45.9017 35.0165 44.4809C36.3692 43.0601 38.205 42.1858 40.1374 42.1858Z" fill="#853A93"/>
</svg>
