<svg width="679" height="190" viewBox="0 0 679 190" fill="none" xmlns="http://www.w3.org/2000/svg">
<path fill-rule="evenodd" clip-rule="evenodd" d="M0.814227 109.403L38.7494 109.706C39.3924 111.407 39.8841 114.431 40.4136 116.359C48.4318 146.186 74.0371 169.889 105.807 175.824C125.361 179.491 146.012 175.031 160.611 166.752C171.277 160.703 180.241 152.726 187.238 143.313C188.713 141.347 193.289 133.787 193.932 133.673L678.996 133.711V0.113017H14.7326C10.7992 0.113017 6.33621 -0.113802 2.51621 0.0752138C0.322546 0.150826 0.776407 0.377643 0.814227 4.61165V109.403Z" fill="#E2E42B"/>
<path fill-rule="evenodd" clip-rule="evenodd" d="M678.996 133.71L193.932 133.672C193.289 133.786 188.713 141.346 187.238 143.312C180.241 152.725 171.277 160.702 160.611 166.75C146.012 175.029 125.361 179.49 105.807 175.823C74.0371 169.888 48.4318 146.185 40.4136 116.358C39.8841 114.43 39.3924 111.406 38.7494 109.705L0.814183 109.402C-0.017891 110.536 0.473789 148.189 0.473789 149.323C0.473789 162.895 0.473789 176.428 0.473789 190H678.996V133.71Z" fill="#00934C"/>
<path d="M219.348 115.265V80.7876H229.711V92.2043L239.091 80.7876H251.194L239.583 93.4896L252.707 115.265H240.264L232.283 101.466L229.711 104.301V115.265H219.348ZM270.37 103.923C269.462 104.301 268.252 104.68 266.739 105.095C264.356 105.776 263.146 106.683 263.146 107.817C263.146 108.535 263.373 109.065 263.864 109.481C264.318 109.896 264.999 110.085 265.869 110.085C267.458 110.085 268.63 109.707 269.349 108.951C270.105 108.157 270.445 106.91 270.445 105.209C270.445 104.831 270.445 104.566 270.445 104.377C270.445 104.226 270.408 104.075 270.37 103.923ZM271.24 115.265L270.672 112.845C269.424 113.979 268.138 114.811 266.701 115.378C265.302 115.907 263.713 116.21 261.936 116.21C259.212 116.21 257.132 115.491 255.657 114.055C254.182 112.656 253.426 110.652 253.426 108.082C253.426 105.587 254.144 103.697 255.619 102.525C257.057 101.315 259.818 100.445 263.864 99.8784C264.394 99.8028 265.075 99.7272 265.945 99.6516C268.97 99.3114 270.483 98.4419 270.483 97.1566C270.483 96.4005 270.219 95.8713 269.651 95.5688C269.122 95.2286 268.214 95.0396 267.041 95.0396C266.058 95.0396 265.302 95.2664 264.772 95.6822C264.243 96.0603 263.94 96.7029 263.827 97.5724H254.522C254.56 94.6993 255.657 92.5445 257.813 91.108C260.007 89.6337 263.184 88.9154 267.382 88.9154C269.349 88.9154 271.164 89.1044 272.828 89.4824C274.53 89.8983 275.816 90.3897 276.762 91.0702C277.859 91.8641 278.691 92.8092 279.144 93.8299C279.598 94.8506 279.825 96.2871 279.825 98.2151V112.391C279.825 112.845 279.901 113.299 280.09 113.639C280.279 114.017 280.506 114.319 280.846 114.546V115.265H271.24ZM285.385 115.265V89.8227H294.198V94.4725C294.84 92.6201 295.748 91.2592 296.921 90.4275C298.131 89.558 299.719 89.1422 301.686 89.1422H302.556V99.2358C302.178 99.198 301.838 99.1602 301.535 99.1602C301.195 99.1224 300.892 99.1224 300.589 99.1224C298.66 99.1224 297.261 99.576 296.353 100.521C295.446 101.428 294.992 102.865 294.992 104.831V115.265H285.385ZM331.792 89.8227V115.265H323.056V111.522C321.921 113.034 320.673 114.13 319.311 114.886C317.912 115.605 316.361 115.945 314.621 115.945C313.184 115.945 311.86 115.718 310.726 115.189C309.553 114.66 308.608 113.904 307.813 112.883C307.095 111.976 306.603 110.879 306.3 109.594C305.998 108.271 305.847 106.078 305.847 103.016V89.8227H315.416V102.978C315.416 104.906 315.642 106.229 316.134 106.986C316.626 107.742 317.458 108.082 318.668 108.082C319.841 108.082 320.748 107.666 321.354 106.797C321.921 105.927 322.223 104.642 322.223 102.903V89.8227H331.792ZM337.012 115.265V89.8227H345.824V94.4725C346.467 92.6201 347.375 91.2592 348.547 90.4275C349.758 89.558 351.308 89.1422 353.313 89.1422H354.145V99.2358C353.805 99.198 353.464 99.1602 353.162 99.1602C352.821 99.1224 352.519 99.1224 352.216 99.1224C350.287 99.1224 348.85 99.576 347.942 100.521C347.072 101.428 346.618 102.865 346.618 104.831V115.265H337.012ZM370.371 80.7876H381.074L386.558 103.054L392.421 80.7876H402.708L391.74 115.265H381.339L370.371 80.7876ZM405.734 125.282V117.76H408.457C409.365 117.76 410.046 117.571 410.462 117.23C410.878 116.928 411.067 116.361 411.067 115.605C411.067 115.265 411.029 114.924 410.953 114.508C410.878 114.093 410.764 113.639 410.575 113.11L402.519 89.8227H412.201L416.4 105.247L420.484 89.8227H429.486L421.695 115.151C420.825 117.986 420.144 119.914 419.652 120.973C419.198 122.031 418.669 122.825 418.139 123.355C417.421 124.148 416.551 124.678 415.53 125.018C414.508 125.32 412.844 125.472 410.575 125.472C409.894 125.472 409.176 125.472 408.344 125.434C407.511 125.396 406.642 125.358 405.734 125.282ZM430.734 107.288H440.038C440.038 108.346 440.303 109.14 440.832 109.67C441.324 110.199 442.118 110.463 443.177 110.463C444.161 110.463 444.955 110.312 445.485 109.934C446.014 109.594 446.279 109.065 446.279 108.346C446.279 107.212 445.106 106.381 442.724 105.851C442.497 105.776 442.345 105.738 442.232 105.7C437.731 104.717 434.819 103.621 433.457 102.449C432.058 101.277 431.377 99.5382 431.377 97.3078C431.377 94.5481 432.398 92.4689 434.403 91.0324C436.407 89.6336 439.357 88.9154 443.215 88.9154C446.808 88.9154 449.569 89.5958 451.536 90.919C453.503 92.2799 454.637 94.2457 454.94 96.9298H446.317C446.241 96.1359 445.938 95.531 445.409 95.0774C444.842 94.6237 444.123 94.3969 443.291 94.3969C442.459 94.3969 441.816 94.5481 441.362 94.8506C440.946 95.153 440.719 95.6066 440.719 96.2115C440.719 97.1944 441.816 97.9504 443.972 98.4419C444.539 98.5553 444.955 98.6687 445.258 98.7065C449.607 99.765 452.444 100.899 453.767 102.109C455.091 103.281 455.734 105.058 455.734 107.364C455.734 110.274 454.675 112.467 452.519 113.979C450.401 115.454 447.224 116.21 443.026 116.21C439.13 116.21 436.143 115.454 434.138 113.979C432.058 112.467 430.961 110.237 430.734 107.288ZM460.008 125.282V117.76H462.693C463.639 117.76 464.32 117.571 464.736 117.23C465.152 116.928 465.341 116.361 465.341 115.605C465.341 115.265 465.303 114.924 465.227 114.508C465.152 114.093 465.001 113.639 464.849 113.11L456.793 89.8227H466.476L470.674 105.247L474.759 89.8227H483.76L475.969 115.151C475.099 117.986 474.418 119.914 473.926 120.973C473.435 122.031 472.943 122.825 472.376 123.355C471.657 124.148 470.787 124.678 469.804 125.018C468.783 125.32 467.119 125.472 464.849 125.472C464.168 125.472 463.412 125.472 462.618 125.434C461.786 125.396 460.916 125.358 460.008 125.282ZM502.406 103.923C501.499 104.301 500.288 104.68 498.775 105.095C496.393 105.776 495.182 106.683 495.182 107.817C495.182 108.535 495.447 109.065 495.901 109.481C496.355 109.896 497.036 110.085 497.905 110.085C499.494 110.085 500.666 109.707 501.385 108.951C502.141 108.157 502.482 106.91 502.482 105.209C502.482 104.831 502.482 104.566 502.482 104.377C502.482 104.226 502.444 104.075 502.406 103.923ZM503.314 115.265L502.709 112.845C501.499 113.979 500.175 114.811 498.775 115.378C497.338 115.907 495.75 116.21 493.972 116.21C491.287 116.21 489.169 115.491 487.694 114.055C486.219 112.656 485.462 110.652 485.462 108.082C485.462 105.587 486.219 103.697 487.656 102.525C489.131 101.315 491.892 100.445 495.939 99.8784C496.43 99.8028 497.149 99.7272 498.019 99.6516C501.045 99.3114 502.52 98.4419 502.52 97.1566C502.52 96.4005 502.255 95.8713 501.725 95.5688C501.158 95.2286 500.288 95.0396 499.078 95.0396C498.095 95.0396 497.338 95.2664 496.809 95.6822C496.279 96.0603 495.977 96.7029 495.901 97.5724H486.559C486.597 94.6993 487.694 92.5445 489.887 91.108C492.043 89.6337 495.22 88.9154 499.418 88.9154C501.385 88.9154 503.201 89.1044 504.902 89.4824C506.567 89.8983 507.853 90.3897 508.798 91.0702C509.933 91.8641 510.727 92.8092 511.181 93.8299C511.635 94.8506 511.862 96.2871 511.862 98.2151V112.391C511.862 112.845 511.937 113.299 512.126 113.639C512.316 114.017 512.58 114.319 512.921 114.546V115.265H503.314ZM542.913 107.212H547.755C549.381 107.212 550.516 106.986 551.196 106.456C551.877 105.965 552.217 105.133 552.217 103.999C552.217 102.865 551.839 102.071 551.158 101.58C550.478 101.088 549.305 100.861 547.679 100.861H542.913V107.212ZM542.913 94.5481H547.225C548.7 94.5481 549.721 94.3591 550.289 93.8677C550.894 93.414 551.158 92.6579 551.158 91.5994C551.158 90.4275 550.856 89.6715 550.213 89.2556C549.57 88.802 548.133 88.613 545.826 88.613H542.913V94.5481ZM532.777 115.265V80.7876H546.128C549.003 80.7876 551.083 80.8632 552.407 81.0144C553.73 81.1656 554.865 81.4303 555.811 81.8083C557.437 82.451 558.685 83.4717 559.593 84.8704C560.463 86.2691 560.879 87.9325 560.879 89.9361C560.879 91.486 560.576 92.847 559.933 94.0189C559.252 95.1908 558.269 96.1359 556.945 96.892C558.685 97.5346 559.971 98.5175 560.803 99.8406C561.597 101.126 562.013 102.827 562.013 104.944C562.013 106.986 561.635 108.762 560.803 110.274C560.009 111.749 558.836 112.921 557.323 113.715C556.264 114.282 555.092 114.697 553.768 114.924C552.444 115.151 550.251 115.265 547.187 115.265H532.777ZM582.815 103.923C581.908 104.301 580.697 104.68 579.184 105.095C576.802 105.776 575.591 106.683 575.591 107.817C575.591 108.535 575.818 109.065 576.31 109.481C576.764 109.896 577.445 110.085 578.315 110.085C579.903 110.085 581.075 109.707 581.794 108.951C582.513 108.157 582.891 106.91 582.891 105.209C582.891 104.831 582.891 104.566 582.891 104.377C582.891 104.226 582.853 104.075 582.815 103.923ZM583.723 115.265L583.118 112.845C581.908 113.979 580.584 114.811 579.147 115.378C577.747 115.907 576.159 116.21 574.381 116.21C571.658 116.21 569.578 115.491 568.103 114.055C566.628 112.656 565.871 110.652 565.871 108.082C565.871 105.587 566.59 103.697 568.065 102.525C569.502 101.315 572.263 100.445 576.348 99.8784C576.839 99.8028 577.52 99.7272 578.39 99.6516C581.416 99.3114 582.929 98.4419 582.929 97.1566C582.929 96.4005 582.664 95.8713 582.097 95.5688C581.567 95.2286 580.697 95.0396 579.487 95.0396C578.504 95.0396 577.747 95.2664 577.218 95.6822C576.688 96.0603 576.386 96.7029 576.272 97.5724H566.968C567.006 94.6993 568.103 92.5445 570.258 91.108C572.452 89.6337 575.629 88.9154 579.827 88.9154C581.794 88.9154 583.61 89.1044 585.274 89.4824C586.938 89.8983 588.262 90.3897 589.207 91.0702C590.342 91.8641 591.136 92.8092 591.59 93.8299C592.044 94.8506 592.271 96.2871 592.271 98.2151V112.391C592.271 112.845 592.346 113.299 592.535 113.639C592.725 114.017 592.952 114.319 593.292 114.546V115.265H583.723ZM597.793 115.265V89.8227H606.492V93.5274C607.589 92.0531 608.837 90.9568 610.236 90.2385C611.598 89.5202 613.148 89.1422 614.888 89.1422C616.363 89.1422 617.687 89.4068 618.822 89.8983C619.956 90.4275 620.94 91.1836 621.734 92.2043C622.452 93.1494 622.982 94.2457 623.285 95.5688C623.587 96.8919 623.738 99.0468 623.738 102.033V115.265H614.17V102.071C614.17 100.143 613.943 98.8199 613.451 98.1017C612.959 97.3834 612.127 97.0054 610.917 97.0054C609.707 97.0054 608.799 97.4212 608.232 98.2529C607.626 99.1224 607.362 100.408 607.362 102.147V115.265H597.793ZM628.731 115.265V80.7876H638.262V97.6102L644.578 89.8227H655.282L646.356 99.198L656.492 115.265H645.146L639.926 106.154L638.262 107.931V115.265H628.731Z" fill="#231F20"/>
<path fill-rule="evenodd" clip-rule="evenodd" d="M155.43 93.4491C158.72 91.937 163.826 93.7516 165.225 95.604C167.116 98.1746 167.192 103.24 164.696 105.509C162.767 107.247 156.337 108.608 155.316 105.471C154.787 103.807 154.9 95.1503 155.43 93.4491ZM157.283 78.8569C164.809 77.307 166.587 88.6859 161.859 90.5005C159.779 91.2943 155.203 92.0126 155.051 87.4384C154.976 84.7165 154.181 79.4996 157.283 78.8569ZM143.667 77.1936C143.1 80.0289 147.487 77.1936 148.016 82.5239L148.092 102.711C148.016 104.412 147.903 105.849 146.806 106.718C145.52 107.777 143.78 107.55 144.877 109.327C146.201 110.158 149.302 109.327 151.118 109.289C157.207 109.251 164.696 110.499 170.142 107.096C172.638 105.546 174.719 101.993 173.849 97.3807C173.092 93.2223 169.877 91.937 165.377 91.4834C166.965 90.6139 171.012 89.8956 171.466 85.3592C172.411 76.4375 161.973 76.3997 155.997 76.8155C153.841 76.9668 151.912 77.118 149.756 77.0802C146.617 77.0424 145.029 76.4375 143.667 77.1936Z" fill="#231F20"/>
<path fill-rule="evenodd" clip-rule="evenodd" d="M76.3442 85.3218C76.3442 88.3461 76.9871 104.072 75.5499 106.114C74.9826 106.945 74.7178 106.945 73.8101 107.513C73.5454 107.702 73.3563 107.588 73.0537 108.193C71.6921 110.877 77.5545 109.176 80.5046 109.214C82.5469 109.251 86.3291 110.272 87.8042 109.289C89.0523 107.399 86.1022 107.55 84.8541 106.681C82.8117 105.244 83.3412 101.048 83.3412 97.8348C83.3412 95.4532 84.5137 94.5081 86.0644 93.7898C88.1446 95.7178 92.9857 104.186 95.3307 107.361C97.2974 110.008 97.7135 109.403 103.841 109.441C105.013 109.478 105.694 109.365 105.996 108.949C106.45 107.324 105.769 107.588 104.484 106.908C103.5 106.378 102.744 105.509 102.139 104.715C100.588 102.485 91.3594 89.2912 91.5107 88.4595L97.9026 82.5621C99.6802 80.9366 101.193 79.9537 103.387 79.0086C104.786 78.4037 104.748 78.7061 104.862 77.3074C103.803 76.5135 100.588 77.005 98.243 77.005C96.541 77.005 94.0069 76.3623 92.721 77.3074C92.9479 79.2732 93.8178 78.2903 95.3685 79.4244C95.5198 81.8438 92.2671 84.4901 90.1491 86.3047L83.4925 91.5972C83.2277 89.4802 82.8495 80.8609 84.0976 79.5378C85.081 78.5171 86.5939 78.9708 86.556 77.1562C85.081 76.1355 82.0931 77.005 80.1642 77.0428C78.0083 77.0806 69.6876 75.7575 72.1081 78.2903C73.7345 79.9915 76.3442 77.005 76.3442 85.3218Z" fill="#231F20"/>
<path fill-rule="evenodd" clip-rule="evenodd" d="M124.68 110.235C126.988 109.555 128.16 104.791 129.257 102.447L139.015 80.8616C140.263 78.669 141.738 79.236 141.738 76.9678C139.923 76.741 138.031 77.119 136.178 77.0812C134.476 77.0434 131.942 76.2873 130.656 77.308C130.959 80.0677 134.779 77.8751 135.157 81.5042C135.384 83.5834 133.871 86.3809 133.115 88.1955C131.829 91.2954 129.408 97.9488 127.971 100.255C126.496 99.839 126.761 99.2342 126.155 97.7598L119.953 83.092C117.986 78.1019 121.806 80.2189 121.995 77.308C120.936 76.5898 120.898 76.7788 118.44 76.9678C113.901 77.2702 107.018 76.1739 107.888 78.1397C108.266 78.9714 110.497 78.8958 112.01 81.9957C114.204 86.5321 122.827 108.95 124.68 110.235Z" fill="#231F20"/>
<path fill-rule="evenodd" clip-rule="evenodd" d="M194.424 112.957C194.575 116.775 184.098 133.9 179.106 138.361C175.929 141.196 176.307 141.725 171.882 145.014C160.309 153.709 147.979 159.455 132.32 160.287C98.4321 162.064 73.8858 141.158 64.506 118.363C55.7692 97.0791 58.0007 71.9018 71.087 52.9622C73.0159 50.1647 74.6801 47.6697 76.9872 45.3258C84.7407 37.5005 89.2414 33.1909 100.928 27.8606C118.705 19.7706 140.301 19.9596 158.039 28.0118C161.481 29.5995 164.129 31.4897 167.192 32.8506C164.091 29.2593 152.177 23.8156 147.222 22.1144C106.829 8.16484 63.0688 29.9019 49.6799 70.1629C38.7872 102.825 51.5332 138.474 78.8026 156.242C105.656 173.745 139.998 173.442 166.133 154.2L174.643 147.093C182.359 139.759 193.554 122.143 194.424 112.957Z" fill="#00934C"/>
<path fill-rule="evenodd" clip-rule="evenodd" d="M93.6288 41.2431C95.1038 40.6761 98.9995 38.2944 103.349 36.5177C106.791 35.0811 110.535 34.0604 114.355 33.2666C122.6 31.5276 132.093 31.7922 140.187 33.6446C184.514 43.8138 202.253 95.4536 176.61 130.611C174.454 133.522 170.369 137.756 169.877 138.663C171.958 137.34 172.487 136.622 174.151 135.11C196.882 114.053 199.492 77.5346 180.089 52.2062C165.566 33.3044 139.734 23.8534 114.242 30.7337C108.077 32.3971 101.155 35.6482 95.9737 39.2395L93.6288 41.2431Z" fill="#00934C"/>
<path fill-rule="evenodd" clip-rule="evenodd" d="M240.718 172.801C243.138 173.632 243.63 173.217 244.348 171.213C245.559 167.886 247.639 162.065 249.795 159.948C250.627 159.154 252.858 158.057 253.123 160.439C253.388 162.669 249.379 170.268 249.454 172.763C250.74 173.368 251.194 173.179 252.518 173.065C253.69 170.268 256.451 161.006 259.969 159.267C260.498 159.002 260.385 158.965 261.066 159.002C265.718 159.116 257.737 168.794 259.515 173.103C261.784 173.67 262.919 173.141 264.394 171.742C264.886 171.251 266.55 169.89 266.739 169.247C267.004 168.378 267.004 168.983 266.625 168.378C265.566 168.453 265.831 170.306 263.108 170.23C262.843 166.752 267.533 160.174 265.869 157.755C264.697 156.016 261.671 156.999 260.234 157.868C259.023 158.587 257.284 160.439 256.262 161.422C256.641 158.435 256.3 155.751 252.215 157.112C249.833 157.944 248.698 160.023 247.147 161.497C247.336 159.758 248.055 158.435 246.769 157.339C244.462 155.562 241.134 159.758 241.02 161.724C242.836 161.649 241.134 161.649 242.344 160.855C243.289 160.212 242.533 160.326 243.97 160.515C244.878 164.182 240.264 170.155 240.718 172.801Z" fill="#FCFEFF"/>
<path fill-rule="evenodd" clip-rule="evenodd" d="M377.519 169.018C374.002 171.211 370.749 169.699 372.11 164.973C373.132 161.457 375.741 159.303 376.46 156.77C374.569 156.808 372.526 156.732 370.673 156.77C365.832 156.883 363.071 166.901 368.366 164.444C368.933 161.155 367.307 163.007 367.421 160.626C368.631 159.189 371.127 159.643 373.359 159.643C372.035 162.629 368.139 165.918 369.009 170.455C369.652 173.819 373.699 174.953 377.897 170.644C380.242 176.314 385.121 172.798 387.958 168.98C390.794 165.238 394.35 155.144 387.882 157.11C386.823 160.89 389.092 159.114 389.244 162.176C389.357 164.822 386.71 168.867 384.327 169.85C382.171 170.757 381.112 170.077 380.204 168.451C381.112 166.334 387.126 160.437 383.57 156.959C378.881 156.127 377.595 164.519 377.519 169.018Z" fill="#EAF1EE"/>
<path fill-rule="evenodd" clip-rule="evenodd" d="M627.029 164.031C628.012 162.141 628.882 161.309 630.433 160.251C635.955 156.433 637.959 161.536 633.156 163.313C631.378 163.993 629.109 164.069 627.029 164.031ZM632.4 145.432L625.365 146.868C625.667 147.889 625.176 147.284 626.235 147.775C626.689 147.964 627.294 148.04 627.672 148.116C628.277 152.501 621.393 169.475 621.129 173.066C625.592 173.671 623.738 172.688 626.764 165.052C629.45 165.883 629.298 170.722 631.303 172.65C632.702 174.011 634.593 173.558 635.841 172.612C636.333 172.234 637.127 171.478 637.506 171.1C638.149 170.42 637.846 170.949 638.073 170.306C638.64 168.681 638.262 169.853 638.035 169.324C637.052 169.55 636.749 170.76 634.82 171.025C633.61 170.722 632.173 167.055 630.698 164.787C634.593 164.522 641.174 162.065 638.3 158.02C635.312 153.862 629.033 160.024 627.974 161.045L632.4 145.432Z" fill="#FCFEFF"/>
<path fill-rule="evenodd" clip-rule="evenodd" d="M556.264 159.606C557.475 164.52 550.478 173.82 547.301 171.06C544.729 168.868 551.537 158.094 556.264 159.606ZM553.466 145.354L546.582 146.98C546.922 148.189 546.355 147.169 548.776 148.34C549.305 154.087 540.341 170.342 544.388 172.951C549.456 176.164 562.883 165.428 560.047 158.661C557.815 153.406 549.721 160.627 547.83 163.727L553.466 145.354Z" fill="#FCFEFF"/>
<path fill-rule="evenodd" clip-rule="evenodd" d="M216.209 166.94C214.81 167.092 214.923 167.432 213.978 171.59C217.079 174.01 222.941 174.199 226.118 172.082C232.888 167.583 226.421 160.854 223.509 157.301C219.197 152.008 222.752 148.454 226.61 148.946C230.392 149.4 228.539 152.424 230.127 153.558C231.262 153.104 231.565 150.458 231.792 149.362C227.858 147.434 223.736 146.224 220.18 149.475C216.285 153.029 218.062 157.149 220.445 160.363C221.845 162.215 226.837 166.562 224.53 170.154C222.714 172.913 217.987 172.611 216.852 170.57C216.247 169.511 216.512 169.095 216.36 167.81C216.36 167.697 216.323 167.583 216.323 167.508L216.209 166.94Z" fill="#FCFEFF"/>
<path fill-rule="evenodd" clip-rule="evenodd" d="M597.982 173.026C599.57 169.019 602.294 160.929 605.206 159.341C609.518 156.959 606.605 163.688 606.076 165.125C605.092 167.62 603.655 170.417 604.449 173.064C607.664 174.236 612.392 170.304 612.052 168.263C610.728 168.111 611.295 168.225 610.236 169.283C608.421 171.211 608.307 169.85 608.307 169.813C607.324 166.448 613.602 160.967 610.198 156.997C607.362 156.544 606.151 157.262 604.449 158.623C603.693 159.19 601.764 161.156 601.235 162.025C601.386 160.21 602.407 158.509 601.008 157.337C598.7 155.485 595.221 160.248 595.334 161.609C597.301 162.063 595.486 160.362 598.284 160.475C599.343 164.104 594.464 170.606 595.032 172.686C596.204 173.328 596.507 173.215 597.982 173.026Z" fill="#FCFEFF"/>
<path fill-rule="evenodd" clip-rule="evenodd" d="M439.282 157.036C437.92 159.305 441.475 165.126 435.046 171.25C434.856 167.243 435.046 161.384 433.117 158.246C430.62 154.277 425.855 159.229 425.893 162.178C425.893 162.215 425.968 162.442 425.968 162.404C425.968 162.329 426.006 162.556 426.044 162.631C427.141 162.253 426.725 162.064 427.481 160.854C431.604 154.617 434.667 176.694 428.654 179.114C426.725 179.908 426.082 178.244 424.645 179.227C422.943 180.361 424.342 184.104 429.07 180.55C430.696 179.303 432.512 176.883 433.873 175.22C436.483 171.931 447.943 155.146 439.282 157.036Z" fill="#FCFEFF"/>
<path fill-rule="evenodd" clip-rule="evenodd" d="M404.524 170.118C402.859 165.997 408.268 158.437 412.277 159.949C412.844 161.839 410.651 164.901 409.629 166.338C408.457 167.963 406.868 170.496 404.524 170.118ZM413.109 169.929C412.844 165.695 417.232 159.382 417.269 156.433C413.676 156.433 416.173 157.227 413.487 157.718C413.26 157.756 412.504 157.794 412.201 157.832C410.499 157.983 408.911 158.701 407.663 159.495C399.418 164.788 398.396 176.053 404.977 172.802C407.285 171.63 409.478 168.114 411.067 165.997C410.499 168.417 408.76 170.988 410.386 173.029C412.012 174.239 415.227 170.685 415.908 169.778C417.118 168.19 416.248 168.039 416.248 168.001C415.076 168.379 415.378 169.702 413.109 169.929Z" fill="#FCFEFF"/>
<path fill-rule="evenodd" clip-rule="evenodd" d="M572.906 170.116C571.28 165.958 576.764 158.322 580.659 159.947C581.302 161.989 579.071 164.824 578.012 166.298C576.877 167.886 575.402 170.457 572.906 170.116ZM581.492 169.927C581.227 165.656 585.69 159.305 585.69 156.432C583.345 156.432 584.555 156.205 583.156 157.15C582.286 157.755 583.496 157.414 581.908 157.717C581.681 157.755 580.924 157.755 580.622 157.83C576.196 158.284 571.809 162.48 570.032 166.298C567.876 171.024 569.426 180.059 579.449 166.034C578.995 168.415 577.142 170.986 578.806 173.027C580.395 174.199 583.458 170.948 584.328 169.776L584.669 167.999C583.496 168.415 583.723 169.701 581.492 169.927Z" fill="#FCFEFF"/>
<path fill-rule="evenodd" clip-rule="evenodd" d="M285.423 159.984C292.533 157.337 283.305 169.056 282.435 169.661C277.405 173.215 279.863 162.025 285.423 159.984ZM288.713 169.737C288.373 165.919 292.722 159.454 292.949 156.43C290.718 156.43 290.945 156.128 290.151 157.753C279.182 157.526 273.32 171.325 277.707 173.139C281.414 174.689 285.423 167.317 286.52 166.372C285.952 169.208 284.629 170.304 285.688 173.026C288.562 173.668 290.113 171.476 291.55 169.623C292.458 168.489 292.533 168.716 291.966 167.884C290.68 168.792 290.794 170.115 288.713 169.737Z" fill="#FCFEFF"/>
<path fill-rule="evenodd" clip-rule="evenodd" d="M499.002 171.967C496.884 168.3 500.44 156.014 504.638 158.358C506.983 159.643 505.432 165.2 504.6 167.355C503.503 170.228 502.595 172.686 499.002 171.967ZM509.252 165.314C511.862 153.897 497.3 154.351 494.842 164.86C492.232 176.201 506.756 176.277 509.252 165.314Z" fill="#FCFEFF"/>
<path fill-rule="evenodd" clip-rule="evenodd" d="M330.998 157.982C331.528 154.617 333.797 152.803 328.767 153.408L327.443 157.944L324.379 157.982C324.531 159.91 324.682 159.305 326.989 159.305C326.497 161.649 323.698 169.966 323.888 171.44C324.417 175.145 330.847 173.557 332.662 168.907C331.225 168.643 331.49 169.096 330.506 170.041C329.22 171.289 327.745 171.175 327.897 168.869C327.897 168.832 330.015 159.607 331.036 159.305C332.397 159.305 333.948 159.721 334.44 158.7C334.478 157.566 333.683 157.982 330.998 157.982Z" fill="#FCFEFF"/>
<path fill-rule="evenodd" clip-rule="evenodd" d="M478.995 157.98C475.175 157.98 474.305 159.228 478.579 159.303C477.747 163.084 474.494 169.851 476.045 173.026C479.978 174.311 483.231 171.136 483.798 169.813C484.441 168.376 484.138 169.284 483.76 168.717C482.852 168.906 481.907 171.325 479.94 170.645C478.465 169.548 481.415 162.29 482.02 159.303C486.521 159.228 485.84 159.908 485.992 157.98L482.55 157.943L483.685 153.482C479.373 152.688 480.091 154.54 478.995 157.98Z" fill="#FCFEFF"/>
<path fill-rule="evenodd" clip-rule="evenodd" d="M308.229 163.046C308.419 161.193 310.348 156.808 307.057 156.884C305.128 156.959 302.632 159.87 302.556 161.76C304.372 161.534 302.708 161.571 303.918 160.778C304.977 160.097 304.334 160.248 305.469 160.626C306.49 163.953 301.875 169.926 302.216 173.026L305.052 172.988C306.111 171.476 307.624 166.977 308.57 164.785C311.709 157.489 312.05 161.496 314.584 160.475C315.907 159.87 315.983 158.963 315.529 157.148C312.957 156.468 311.785 157.337 310.688 158.887C310.121 159.719 308.532 162.101 308.229 163.046Z" fill="#FCFEFF"/>
</svg>
