<svg width="679" height="190" viewBox="0 0 679 190" fill="none" xmlns="http://www.w3.org/2000/svg">
<path fill-rule="evenodd" clip-rule="evenodd" d="M103.856 190C46.8124 190 0.329529 147.33 0.329529 94.9774C0.329529 42.6697 46.8124 0 103.856 0C160.857 0 207.339 42.6697 207.339 94.9774C207.339 147.33 160.857 190 103.856 190Z" fill="#004A8F"/>
<path fill-rule="evenodd" clip-rule="evenodd" d="M170.272 104.614L181.808 105.157C174.937 156.334 129.43 160.089 106.485 110.497L109.496 105.157C133.247 121.221 161.026 127.284 170.272 104.614Z" fill="white"/>
<path fill-rule="evenodd" clip-rule="evenodd" d="M91.9381 30.1344L115.01 22.0801L116.028 161.401L90.9202 170.496L91.9381 30.1344Z" fill="#ED1C24"/>
<path fill-rule="evenodd" clip-rule="evenodd" d="M170.781 85.8387H181.299C177.227 62.445 166.116 47.6939 144.655 45.6577C126.758 46.0197 111.49 57.1057 98.936 78.8704C90.6658 92.3093 77.391 113.395 61.2747 115.884C41.8503 118.87 30.5689 100.635 38.9663 84.9337C44.0557 75.341 57.8394 71.3591 67.4668 72.3093C67.5092 72.3093 67.594 72.3545 67.6364 72.3545C76.458 73.3048 84.601 75.703 91.5564 80.2278L91.6836 60.4993C87.3153 56.5174 83.7527 52.5355 78.6209 49.8206C71.6655 46.1102 64.8797 44.9337 58.2635 46.2007C28.9997 53.0785 23.6134 78.5989 29.1693 112.626C40.5355 152.128 76.0339 155.16 96.4337 129.775C110.429 111.947 145.164 51.6306 170.781 85.8387Z" fill="white"/>
<path fill-rule="evenodd" clip-rule="evenodd" d="M327.151 119.594C345.304 119.594 359.639 108.372 359.639 89.0059C359.639 69.6393 345.304 57.3769 327.151 57.3769C308.957 57.3769 294.622 69.6393 294.622 89.0059C294.622 108.372 308.957 119.594 327.151 119.594ZM327.151 105.341C318.542 105.341 314.725 97.1507 314.725 89.0059C314.725 79.8203 318.542 71.6303 327.151 71.6303C335.761 71.6303 339.578 79.8203 339.578 89.0059C339.578 97.1507 335.761 105.341 327.151 105.341ZM357.73 73.7117H368.248V97.1507C368.248 111.449 373.041 119.594 390.26 119.594C395.01 119.594 397.894 118.553 401.711 118.553L400.778 105.341C398.869 105.341 396.918 106.336 395.01 106.336C389.284 106.336 387.376 102.264 387.376 95.1145V73.7117H400.778V59.4131H387.376V39.0059L369.224 46.1552V59.4131H357.73V73.7117ZM467.66 118.553H486.788V89.0059H487.763L503.074 118.553H526.018L504.982 85.9289L524.11 59.4131H503.074L487.763 83.8927H486.788V39.0059L467.66 46.1552V118.553ZM243.94 118.553H263.068V89.0059L278.378 118.553H301.323L281.262 85.9289L300.39 59.4131H279.354L263.068 83.8927V39.0059L243.94 45.1597V118.553ZM461.002 118.553C460.026 113.485 460.026 109.413 460.026 104.3V81.8565C460.026 63.4855 447.6 57.3769 433.265 57.3769C425.631 57.3769 417.997 58.3724 411.253 61.4493V75.7479C417.021 72.671 422.747 71.6303 429.448 71.6303C436.149 71.6303 441.874 73.7117 441.874 81.8565C439.966 80.8158 436.149 80.8158 433.265 80.8158C422.747 80.8158 403.619 82.8973 403.619 101.223C403.619 114.526 414.137 119.594 424.655 119.594C433.265 119.594 438.057 116.517 442.85 109.413C442.85 112.445 443.783 115.522 443.783 118.553H461.002ZM421.814 99.2321C421.814 94.119 427.539 92.0828 434.24 92.0828C437.082 92.0828 439.966 92.0828 441.874 92.0828C441.874 99.2321 437.082 106.336 430.423 106.336C425.631 106.336 421.814 103.305 421.814 99.2321Z" fill="#ED1C24"/>
<path fill-rule="evenodd" clip-rule="evenodd" d="M532.295 42.0815C533.779 42.0815 535.264 42.4888 536.706 43.3033C538.148 44.1177 539.251 45.2942 540.056 46.8327C540.862 48.3711 541.244 50.0001 541.244 51.6743C541.244 53.3033 540.862 54.887 540.056 56.4254C539.293 57.9639 538.19 59.1404 536.748 59.9548C535.349 60.8146 533.822 61.2218 532.295 61.2218C530.726 61.2218 529.241 60.8146 527.799 59.9548C526.4 59.1404 525.255 57.9639 524.491 56.4254C523.686 54.887 523.261 53.3033 523.261 51.6743C523.261 50.0001 523.686 48.3711 524.491 46.8327C525.297 45.2942 526.442 44.1177 527.842 43.3033C529.284 42.4888 530.768 42.0815 532.295 42.0815ZM532.295 43.6653C531.023 43.6653 529.793 43.982 528.605 44.706C527.375 45.3847 526.442 46.3802 525.806 47.6472C525.128 48.9141 524.788 50.2716 524.788 51.6743C524.788 53.0318 525.128 54.344 525.764 55.611C526.442 56.8779 527.375 57.8734 528.563 58.5974C529.75 59.2761 530.98 59.6381 532.295 59.6381C533.567 59.6381 534.797 59.2761 536.027 58.5974C537.215 57.8734 538.105 56.8779 538.784 55.611C539.463 54.344 539.759 53.0318 539.759 51.6743C539.759 50.2716 539.42 48.9141 538.784 47.6472C538.105 46.3802 537.172 45.3847 535.942 44.706C534.755 43.982 533.525 43.6653 532.295 43.6653ZM528.351 56.9232V46.6517H531.659C532.804 46.6517 533.61 46.7422 534.119 46.9232C534.628 47.1042 535.052 47.4662 535.349 47.9186C535.646 48.4164 535.815 48.9141 535.815 49.4571C535.815 50.1811 535.561 50.8598 535.052 51.4028C534.543 51.9458 533.864 52.2625 533.016 52.353C533.355 52.4888 533.652 52.6698 533.864 52.896C534.246 53.3033 534.713 53.982 535.264 54.9322L536.451 56.9232H534.585L533.695 55.3395C533.016 54.0272 532.465 53.258 532.041 52.9413C531.786 52.6698 531.362 52.5793 530.811 52.5793H529.878V56.9232H528.351ZM529.878 51.1313H531.786C532.719 51.1313 533.313 50.9956 533.652 50.7241C533.992 50.4073 534.119 50.0453 534.119 49.5929C534.119 49.2761 534.076 49.0046 533.907 48.7784C533.737 48.5069 533.525 48.3259 533.228 48.2354C532.931 48.0996 532.422 48.0544 531.659 48.0544H529.878V51.1313Z" fill="#004A8F"/>
<path d="M267.988 173.89H262.813L249.878 157.736C249.411 157.193 249.157 156.786 248.987 156.56H248.902V173.89H245.255V138.641H248.902V155.202H248.987C249.199 154.886 249.496 154.478 249.878 154.026L262.432 138.641H266.97L252.635 155.564L267.988 173.89ZM269.684 161.628C269.684 157.465 270.787 154.162 272.907 151.718C275.028 149.32 277.954 148.144 281.644 148.144C285.122 148.144 287.836 149.275 289.787 151.628C291.78 153.935 292.756 157.148 292.756 161.266C292.756 165.248 291.696 168.415 289.575 170.859C287.412 173.302 284.613 174.478 281.093 174.478C277.7 174.478 274.943 173.347 272.822 170.994C270.744 168.641 269.684 165.519 269.684 161.628ZM273.331 161.492C273.331 164.433 274.052 166.831 275.494 168.596C276.979 170.361 278.93 171.266 281.347 171.266C283.807 171.266 285.716 170.406 287.115 168.687C288.43 166.922 289.151 164.524 289.151 161.402C289.151 158.189 288.472 155.7 287.115 153.981C285.758 152.216 283.849 151.356 281.347 151.356C278.887 151.356 276.936 152.261 275.494 154.071C274.052 155.881 273.331 158.325 273.331 161.492ZM309.593 173.664C308.745 174.162 307.6 174.433 306.158 174.433C302.129 174.433 300.093 172.035 300.093 167.148V151.99H295.979V148.732H300.093V142.533L303.613 141.311V148.732H309.593V151.99H303.613V166.469C303.613 168.189 303.91 169.411 304.419 170.135C304.97 170.859 305.903 171.221 307.133 171.221C308.109 171.221 308.957 170.949 309.593 170.361V173.664ZM315.276 150.497C317.609 148.913 320.238 148.144 323.25 148.144C328.721 148.144 331.435 151.221 331.435 157.465V173.89H327.872V169.954H327.745C326.134 172.985 323.716 174.478 320.493 174.478C318.16 174.478 316.337 173.845 314.979 172.487C313.622 171.175 312.986 169.411 312.986 167.239C312.986 162.578 315.573 159.863 320.747 159.049L327.872 157.963C327.872 153.619 326.218 151.402 322.953 151.402C320.111 151.402 317.524 152.442 315.276 154.524V150.497ZM322.104 161.945C320.069 162.261 318.669 162.759 317.863 163.528C317.057 164.252 316.676 165.429 316.676 166.967C316.676 168.234 317.1 169.275 317.948 170.044C318.796 170.859 319.899 171.221 321.256 171.221C323.165 171.221 324.734 170.497 326.006 169.094C327.236 167.646 327.872 165.836 327.872 163.664V161.13L322.104 161.945ZM357.984 173.89H352.938L342.292 161.854H342.207V173.89H338.645V136.65H342.207V160.27H342.292L352.386 148.732H357.094L346.024 160.904L357.984 173.89ZM403.153 173.89V150.089C403.153 148.279 403.28 146.017 403.492 143.257H403.407C402.983 144.931 402.644 146.062 402.389 146.605L390.896 173.89H389.284L377.748 146.786C377.451 146.062 377.154 144.931 376.815 143.257H376.688C376.815 144.524 376.9 146.786 376.9 150.044V173.89H373.337V138.641H378.087L388.436 163.483C389.242 165.429 389.751 166.831 389.963 167.646H390.132C390.556 166.424 391.065 164.976 391.701 163.347L402.304 138.641H406.758V173.89H403.153ZM415.579 150.497C417.912 148.913 420.541 148.144 423.552 148.144C429.023 148.144 431.738 151.221 431.738 157.465V173.89H428.175V169.954H428.048C426.436 172.985 424.019 174.478 420.796 174.478C418.463 174.478 416.639 173.845 415.282 172.487C413.925 171.175 413.289 169.411 413.289 167.239C413.289 162.578 415.876 159.863 421.05 159.049L428.175 157.963C428.175 153.619 426.521 151.402 423.256 151.402C420.414 151.402 417.827 152.442 415.579 154.524V150.497ZM422.365 161.945C420.372 162.261 418.972 162.759 418.166 163.528C417.36 164.252 416.979 165.429 416.979 166.967C416.979 168.234 417.403 169.275 418.251 170.044C419.099 170.859 420.202 171.221 421.559 171.221C423.468 171.221 425.037 170.497 426.267 169.094C427.539 167.646 428.175 165.836 428.175 163.664V161.13L422.365 161.945ZM458.33 173.89H454.81V159.365C454.81 154.026 452.943 151.356 449.211 151.356C447.303 151.356 445.691 152.126 444.419 153.709C443.146 155.248 442.51 157.239 442.51 159.637V173.89H438.948V136.65H442.51V152.94H442.595C444.419 149.727 447.006 148.144 450.399 148.144C455.7 148.144 458.33 151.537 458.33 158.415V173.89ZM465.073 139.682C465.073 138.958 465.328 138.325 465.752 137.872C466.218 137.374 466.77 137.103 467.406 137.103C468.042 137.103 468.636 137.374 469.102 137.872C469.569 138.37 469.781 138.958 469.781 139.682C469.781 140.316 469.569 140.904 469.102 141.402C468.636 141.899 468.042 142.171 467.406 142.171C466.727 142.171 466.176 141.944 465.752 141.447C465.328 140.949 465.073 140.361 465.073 139.682ZM465.582 173.89V148.732H469.102V173.89H465.582ZM496.288 173.89H492.725V159.501C492.725 154.071 490.859 151.356 487.127 151.356C485.176 151.356 483.564 152.126 482.335 153.709C481.062 155.248 480.468 157.193 480.468 159.546V173.89H476.906V148.732H480.468V152.94H480.553C482.335 149.727 484.922 148.144 488.315 148.144C490.902 148.144 492.853 149.003 494.252 150.813C495.609 152.578 496.288 155.157 496.288 158.506V173.89ZM523.431 173.89H519.869V169.592H519.784C518.045 172.849 515.331 174.478 511.641 174.478C508.672 174.478 506.297 173.347 504.516 171.085C502.777 168.822 501.886 165.745 501.886 161.899C501.886 157.782 502.862 154.433 504.855 151.899C506.806 149.411 509.435 148.144 512.659 148.144C515.924 148.144 518.299 149.501 519.784 152.261H519.869V136.65H523.431V173.89ZM519.869 158.732C519.869 156.696 519.232 154.931 517.918 153.528C516.603 152.08 514.991 151.356 513.083 151.356C510.708 151.356 508.884 152.307 507.527 154.162C506.17 156.017 505.491 158.506 505.491 161.718C505.491 164.614 506.17 166.922 507.442 168.641C508.714 170.406 510.453 171.266 512.616 171.266C514.737 171.266 516.433 170.451 517.833 168.822C519.19 167.193 519.869 165.112 519.869 162.578V158.732ZM543.28 152.623C542.643 152.08 541.71 151.809 540.481 151.809C538.784 151.809 537.427 152.668 536.367 154.343C535.264 156.062 534.755 158.279 534.755 161.04V173.89H531.192V148.732H534.755V153.935H534.84C535.391 152.126 536.197 150.768 537.342 149.773C538.445 148.777 539.632 148.279 540.989 148.279C542.007 148.279 542.771 148.415 543.28 148.641V152.623ZM547.987 150.497C550.32 148.913 552.949 148.144 555.961 148.144C561.432 148.144 564.146 151.221 564.146 157.465V173.89H560.583V169.954H560.456C558.845 172.985 556.427 174.478 553.204 174.478C550.871 174.478 549.048 173.845 547.69 172.487C546.333 171.175 545.697 169.411 545.697 167.239C545.697 162.578 548.284 159.863 553.458 159.049L560.583 157.963C560.583 153.619 558.929 151.402 555.664 151.402C552.822 151.402 550.278 152.442 547.987 154.524V150.497ZM554.816 161.945C552.78 162.261 551.38 162.759 550.574 163.528C549.811 164.252 549.387 165.429 549.387 166.967C549.387 168.234 549.811 169.275 550.659 170.044C551.507 170.859 552.61 171.221 554.01 171.221C555.876 171.221 557.445 170.497 558.717 169.094C559.947 167.646 560.583 165.836 560.583 163.664V161.13L554.816 161.945ZM582.807 173.89V138.641H592.053C594.767 138.641 597.015 139.365 598.669 140.859C600.365 142.306 601.214 144.252 601.214 146.696C601.214 148.687 600.705 150.406 599.729 151.899C598.711 153.347 597.312 154.433 595.53 155.112V155.202C597.736 155.429 599.475 156.288 600.832 157.827C602.189 159.365 602.868 161.356 602.868 163.8C602.868 166.786 601.85 169.23 599.856 171.085C597.821 172.94 595.276 173.89 592.222 173.89H582.807ZM586.412 142.216V153.845H590.441C592.604 153.845 594.343 153.257 595.573 152.171C596.803 151.04 597.397 149.456 597.397 147.465C597.397 143.981 595.276 142.216 590.992 142.216H586.412ZM586.412 157.42V170.316H591.798C594.046 170.316 595.827 169.727 597.142 168.551C598.414 167.42 599.051 165.791 599.051 163.754C599.051 159.501 596.336 157.42 590.908 157.42H586.412ZM609.696 150.497C612.028 148.913 614.658 148.144 617.627 148.144C623.14 148.144 625.855 151.221 625.855 157.465V173.89H622.292V169.954H622.165C620.553 172.985 618.136 174.478 614.912 174.478C612.58 174.478 610.756 173.845 609.399 172.487C608.042 171.175 607.363 169.411 607.363 167.239C607.363 162.578 609.993 159.863 615.167 159.049L622.292 157.963C622.292 153.619 620.638 151.402 617.372 151.402C614.531 151.402 611.944 152.442 609.696 154.524V150.497ZM616.482 161.945C614.488 162.261 613.089 162.759 612.283 163.528C611.477 164.252 611.095 165.429 611.095 166.967C611.095 168.234 611.52 169.275 612.368 170.044C613.216 170.859 614.319 171.221 615.676 171.221C617.584 171.221 619.154 170.497 620.384 169.094C621.656 167.646 622.292 165.836 622.292 163.664V161.13L616.482 161.945ZM652.446 173.89H648.884V159.501C648.884 154.071 647.018 151.356 643.328 151.356C641.335 151.356 639.765 152.126 638.493 153.709C637.263 155.248 636.627 157.193 636.627 159.546V173.89H633.064V148.732H636.627V152.94H636.712C638.493 149.727 641.08 148.144 644.473 148.144C647.06 148.144 649.054 149.003 650.411 150.813C651.768 152.578 652.446 155.157 652.446 158.506V173.89ZM678.996 173.89H673.907L663.304 161.854H663.219V173.89H659.656V136.65H663.219V160.27H663.304L673.398 148.732H678.105L666.994 160.904L678.996 173.89Z" fill="#003974"/>
</svg>
