<svg xmlns="http://www.w3.org/2000/svg" xmlns:xlink="http://www.w3.org/1999/xlink" width="450pt" height="135.29pt" viewBox="0 0 450 135.29" version="1.1">
<defs>
<clipPath id="clip1">
  <path d="M 0 0 L 158 0 L 158 135.289063 L 0 135.289063 Z M 0 0 "/>
</clipPath>
</defs>
<g id="surface1">
<g clip-path="url(#clip1)" clip-rule="nonzero">
<path style=" stroke:none;fill-rule:nonzero;fill:rgb(0%,21.998596%,45.498657%);fill-opacity:1;" d="M 0 67.644531 C 0 30.289063 35.210938 0.00390625 78.652344 0.00390625 C 122.089844 0.00390625 157.300781 30.289063 157.300781 67.644531 C 157.300781 105.007813 122.089844 135.292969 78.652344 135.292969 C 35.210938 135.292969 0 105.007813 0 67.644531 "/>
</g>
<path style=" stroke:none;fill-rule:nonzero;fill:rgb(92.498779%,10.998535%,13.699341%);fill-opacity:1;" d="M 69.101563 21.726563 L 87.375 15.6875 L 87.464844 114.46875 L 69.035156 120.644531 Z M 69.101563 21.726563 "/>
<path style=" stroke:none;fill-rule:nonzero;fill:rgb(92.498779%,10.998535%,13.699341%);fill-opacity:1;" d="M 259.175781 93.882813 C 250.707031 93.882813 247.238281 86.832031 247.238281 78.964844 C 247.238281 70.992188 250.707031 63.949219 259.175781 63.949219 C 267.65625 63.949219 271.121094 70.992188 271.121094 78.964844 C 271.121094 86.832031 267.65625 93.882813 259.175781 93.882813 M 259.175781 106.75 C 276.738281 106.75 290.109375 96.539063 290.109375 78.964844 C 290.109375 61.292969 276.738281 51.078125 259.175781 51.078125 C 241.625 51.078125 228.25 61.292969 228.25 78.964844 C 228.25 96.539063 241.625 106.75 259.175781 106.75 "/>
<path style=" stroke:none;fill-rule:nonzero;fill:rgb(92.498779%,10.998535%,13.699341%);fill-opacity:1;" d="M 288.425781 65.171875 L 298.941406 65.171875 L 298.941406 86.832031 C 298.941406 99.492188 302.921875 106.75 319.347656 106.75 C 323.945313 106.75 327.421875 106.136719 330.886719 105.726563 L 330.273438 93.777344 C 328.4375 94.082031 326.496094 94.492188 324.660156 94.492188 C 318.84375 94.492188 317.308594 91.222656 317.308594 84.785156 L 317.308594 65.171875 L 330.167969 65.171875 L 330.167969 52.300781 L 317.308594 52.300781 L 317.300781 33.898438 L 299.242188 40.347656 L 299.242188 52.300781 L 288.425781 52.300781 L 288.425781 65.171875 "/>
<path style=" stroke:none;fill-rule:nonzero;fill:rgb(92.498779%,10.998535%,13.699341%);fill-opacity:1;" d="M 394.46875 105.527344 L 412.84375 105.527344 L 412.84375 79.171875 L 413.046875 79.171875 L 427.75 105.527344 L 450 105.527344 L 429.988281 76.71875 L 448.464844 52.304688 L 428.359375 52.304688 L 413.046875 74.675781 L 412.84375 74.675781 L 412.84375 33.96875 L 394.46875 40.339844 "/>
<path style=" stroke:none;fill-rule:nonzero;fill:rgb(92.498779%,10.998535%,13.699341%);fill-opacity:1;" d="M 179.324219 105.527344 L 197.703125 105.527344 L 197.703125 79.171875 L 197.90625 79.171875 L 212.609375 105.527344 L 234.859375 105.527344 L 214.847656 76.71875 L 233.324219 52.304688 L 213.21875 52.304688 L 197.90625 74.675781 L 197.703125 74.675781 L 197.703125 33.96875 L 179.324219 40.027344 "/>
<path style=" stroke:none;fill-rule:nonzero;fill:rgb(92.498779%,10.998535%,13.699341%);fill-opacity:1;" d="M 350.441406 88.71875 C 350.441406 83.546875 355.402344 81.585938 361.703125 81.585938 C 364.496094 81.585938 367.183594 81.792969 369.554688 81.894531 C 369.554688 88.203125 365.113281 94.609375 358.089844 94.609375 C 353.75 94.609375 350.441406 92.4375 350.441406 88.71875 M 387.949219 105.773438 C 387.121094 101.539063 386.914063 97.300781 386.914063 93.058594 L 386.914063 73.003906 C 386.914063 56.5625 375.027344 50.671875 361.289063 50.671875 C 353.339844 50.671875 346.414063 51.804688 339.804688 54.496094 L 340.117188 67.105469 C 345.273438 64.21875 351.269531 63.074219 357.261719 63.074219 C 363.980469 63.074219 369.449219 65.042969 369.554688 72.382813 C 367.183594 71.96875 363.878906 71.660156 360.878906 71.660156 C 350.964844 71.660156 333.089844 73.628906 333.089844 90.0625 C 333.089844 101.746094 342.597656 107.015625 353.234375 107.015625 C 360.878906 107.015625 366.039063 104.019531 370.277344 97.300781 L 370.484375 97.300781 C 370.484375 100.09375 370.796875 102.886719 370.898438 105.773438 "/>
<path style=" stroke:none;fill-rule:nonzero;fill:rgb(100%,100%,100%);fill-opacity:1;" d="M 79.945313 83.328125 C 72.007813 92.898438 64.332031 102.675781 49.957031 102.675781 C 29.652344 102.675781 20.019531 83.042969 20.019531 66.628906 C 20.019531 50.859375 27.546875 32.191406 47.328125 32.191406 C 55.910156 32.191406 64.167969 37.4375 69.09375 42.988281 L 69.078125 56.375 C 64.964844 53.609375 55.75 50.890625 49.738281 50.792969 C 37.191406 50.582031 26.132813 56.019531 26.324219 68.402344 C 26.457031 76.925781 34.902344 82.71875 43.304688 82.71875 C 56.175781 82.71875 63.972656 70.960938 70.488281 62.039063 C 72.308594 59.707031 77.433594 52.855469 78.234375 51.753906 C 85.472656 41.640625 93.847656 32.40625 108.222656 32.40625 C 125.15625 32.40625 134.664063 46.058594 137.355469 60.109375 L 129.71875 60.109375 C 126.648438 55.550781 120.730469 52.765625 114.902344 52.765625 C 101.601563 52.765625 93.644531 65.003906 86.996094 74.015625 C 86.996094 74.015625 81.820313 81.070313 79.945313 83.328125 M 137.800781 74.457031 C 136.085938 88.589844 128.160156 102.863281 110.851563 102.890625 C 100.746094 102.910156 92.855469 95.988281 87.386719 87.527344 L 87.386719 77.722656 C 94.226563 81.117188 100.621094 84.761719 108.378906 84.875 C 117.933594 85.015625 126.570313 81.34375 130.144531 74.457031 "/>
</g>
</svg>