<svg width="700" height="150" viewBox="0 0 700 150" fill="none" xmlns="http://www.w3.org/2000/svg">
<rect width="700" height="150" fill="#FFCB05"/>
<mask id="mask0_72_673" style="mask-type:luminance" maskUnits="userSpaceOnUse" x="25" y="5" width="650" height="140">
<path d="M675 5H25V145H675V5Z" fill="white"/>
</mask>
<g mask="url(#mask0_72_673)">
<path fill-rule="evenodd" clip-rule="evenodd" d="M93.9176 5.69824C131.292 5.69824 161.936 36.9091 161.936 75.2338C161.936 113.648 131.292 144.912 93.9176 144.912C56.4475 144.912 25.9667 113.648 25.9667 75.2338C25.9667 36.9091 56.4475 5.69824 93.9176 5.69824ZM84.5191 135.449L113.525 83.9065L93.9176 83.915L103.655 66.6007H149.717L139.965 83.9577L123.3 83.9065L93.9176 136.239C126.651 136.239 153.47 108.784 153.47 75.2338C153.47 41.821 126.65 14.4049 93.9176 14.4049C91.5424 14.4049 89.1353 14.5471 86.9 14.8551L57.6515 66.6007H93.9176L84.0966 83.9065H38.1052L75.6258 17.3953C51.7509 25.3291 34.4237 48.3204 34.4237 75.2338C34.4237 105.504 56.1663 130.79 84.5191 135.449Z" fill="#1F1A17"/>
<path fill-rule="evenodd" clip-rule="evenodd" d="M186.906 109.053H226.027L228.342 98.1205H202.753L214.896 39.623H201.291L186.906 109.053Z" fill="#1F1A17"/>
<path fill-rule="evenodd" clip-rule="evenodd" d="M270.751 54.2529C270.751 60.9081 263.944 63.7954 258.988 65.1973C257.227 62.7004 255.39 59.4256 255.39 56.4394C255.39 51.1696 259.089 48.1803 263.944 48.1803C267.242 48.1803 270.751 49.5657 270.751 54.2529ZM265.396 96.424C262.381 98.7178 258.015 99.8999 253.947 99.8999C247.516 99.8999 242.091 97.1352 242.091 89.8522C242.091 82.7959 247.721 79.9222 253.351 77.7297L265.396 96.424ZM273.561 109.053H288.141L280.258 97.3312C286.961 90.3714 290.758 80.9022 291.933 71.3561H280.062C279.868 77.4278 277.446 83.1215 274.135 88.0748L264.334 73.6478C273.369 70.2659 282.011 65.2974 282.011 54.2529C282.011 43.301 271.329 38.4326 263.257 38.4326C252.958 38.4326 242.971 44.0883 242.971 56.0324C242.971 62.211 245 65.1973 247.721 68.9882C237.815 72.0527 229.057 79.0183 229.057 90.5501C229.057 104.588 240.716 110.26 252.666 110.26C258.988 110.26 266.76 108.269 271.135 105.072L273.561 109.053Z" fill="#1F1A17"/>
<path fill-rule="evenodd" clip-rule="evenodd" d="M290.105 50.5717H308.242L295.909 109.052H310.095L322.429 50.5717H339.546L341.783 39.623H292.429L290.105 50.5717Z" fill="#1F1A17"/>
<path d="M370.466 39.6406H407.901L405.539 50.5758H381.844L378.242 67.6899H400.894L398.759 78.6294H376.021L369.795 109.072H356.19L370.466 39.6406Z" fill="#1F1A17"/>
<path d="M417.299 35.7471H430.332L427.606 48.4843H414.586L417.299 35.7471ZM412.543 57.8354H425.573L414.875 109.073H401.857L412.543 57.8354Z" fill="#1F1A17"/>
<path d="M434.038 65.2048C434.616 62.1117 435.108 59.4246 435.305 57.8366H448.016L447.163 62.8026H447.348C450.941 59.4246 455.89 56.6475 461.535 56.6475C471.35 56.6475 477.862 62.91 477.862 73.0682C477.862 76.9438 476.881 81.0275 476.198 84.2004L470.957 109.074H457.939L462.799 84.9159C463.482 81.4074 464.269 77.9223 464.269 74.1532C464.269 69.8784 461.335 66.9804 457.161 66.9804C448.129 66.9804 444.822 75.6497 443.174 83.3138L437.833 109.074H424.798L434.038 65.2048Z" fill="#1F1A17"/>
<path d="M499.157 100.527C508.868 100.527 511.889 93.6513 513.922 85.387H509.348C503.036 85.387 492.547 86.4866 492.547 95.1435C492.547 98.7232 495.853 100.527 499.157 100.527ZM511.889 101.219H511.698C507.217 106.986 502.744 110.268 495.549 110.268C486.521 110.268 480.11 105.089 480.11 95.6375C480.11 78.7279 498.573 77.4445 510.815 77.4445H515.377C515.774 76.0335 515.774 74.5471 515.774 73.067C515.774 67.8928 510.323 66.3805 505.761 66.3805C500.019 66.3805 494.488 67.8928 489.333 70.3647L491.184 59.7262C496.718 57.7532 502.356 56.6475 508.186 56.6475C518.204 56.6475 527.629 60.4329 527.629 72.4662C527.629 79.3232 522.673 99.4123 521.511 109.074H510.523L511.889 101.219Z" fill="#1F1A17"/>
<path d="M539.308 65.2048C539.881 62.1117 540.375 59.4246 540.56 57.8366H553.286L552.409 62.8026H552.609C556.202 59.4246 561.158 56.6475 566.79 56.6475C576.603 56.6475 583.126 62.91 583.126 73.0682C583.126 76.9438 582.157 81.0275 581.469 84.2004L576.227 109.074H563.206L568.057 84.9159C568.74 81.4074 569.524 77.9223 569.524 74.1532C569.524 69.8784 566.596 66.9804 562.434 66.9804C553.393 66.9804 550.09 75.6497 548.432 83.3138L543.086 109.074H530.071L539.308 65.2048Z" fill="#1F1A17"/>
<path d="M626.661 69.5813C624.139 67.8928 620.74 66.9789 617.141 66.9789C606.747 66.9789 600.912 76.9429 600.912 86.5862C600.912 93.2514 603.053 99.9221 611.989 99.9221C615.2 99.9221 619.189 99.0182 622.586 97.3342L621.125 107.887C617.141 109.862 612.865 110.268 608.599 110.268C595.67 110.268 587.316 101.413 587.316 88.1733C587.316 70.2707 598.866 56.6475 616.843 56.6475C621.712 56.6475 626.366 57.5416 629.864 58.6306L626.661 69.5813Z" fill="#1F1A17"/>
<path d="M661.764 78.4269C661.958 77.2415 662.051 76.1449 662.051 74.9564C662.051 69.4827 659.227 66.3805 653.783 66.3805C645.726 66.3805 642.22 71.366 639.7 78.4269H661.764ZM637.953 87.5783C637.953 97.0347 642.897 100.527 651.847 100.527C657.188 100.527 662.343 99.1244 667.2 96.8402L665.545 107.388C660.491 108.978 654.963 110.268 649.611 110.268C635.228 110.268 625.522 103.098 625.522 87.8778C625.522 71.9565 637.559 56.6475 653.985 56.6475C666.314 56.6475 674.487 63.1234 674.487 76.1449C674.487 80.0235 673.995 83.8035 673.217 87.578L637.953 87.5783Z" fill="#1F1A17"/>
</g>
</svg>
