<svg width="700" height="70" viewBox="0 0 700 70" fill="none" xmlns="http://www.w3.org/2000/svg">
<path fill-rule="evenodd" clip-rule="evenodd" d="M647.198 0.950617V12.963H666.21V69.0494H680.988V12.963H700V0.950617H647.198ZM533.728 40.7901C538.654 25.0617 541.679 15.2099 542.716 11.2346C542.975 12.358 543.407 13.9136 544.012 15.8148C544.617 17.716 547.21 26.0123 551.963 40.7037H533.728V40.7901ZM533.556 0.691358L508.926 69.0494H524.914L530.012 52.8025H555.506L560.605 69.0494H576.593L551.704 0.691358H533.556ZM501.235 0.950617H484.815L465.802 24.1111L460.012 32.1481V0.950617H445.235V69.0494H460.012V44.7654L466.235 40.358L484.556 69.0494H501.407L476.778 31.1111L501.235 0.950617ZM400.815 42.8642H414.037V57.037C410.84 57.642 407.728 57.9877 404.617 57.9877C398.654 57.9877 394.161 56 391.049 52.1111C387.938 48.2222 386.383 42.6049 386.383 35.1728C386.383 28.0864 388.284 22.4691 392.173 18.2346C396.062 14.0864 401.161 11.9259 407.556 11.9259C413.086 11.9259 418.358 13.1358 423.457 15.642L428.383 4.06173C421.728 1.38272 414.815 0 407.642 0C396.235 0 387.247 3.11111 380.765 9.24691C374.284 15.3827 371.086 23.9383 371.086 34.9136C371.086 46.2346 373.852 54.8765 379.469 60.9259C385 66.9753 393.123 70 403.667 70C407.815 70 411.877 69.7407 415.852 69.1358C419.827 68.5309 424.062 67.5802 428.556 66.1111V30.8519H400.815V42.8642ZM343.346 33.1852C343.346 36.8148 343.605 43.1235 344.037 51.9383H343.691L313.358 0.950617H294.691V69.0494H307.914V36.9877C307.914 33.0988 307.654 26.6173 306.963 17.5432H307.395L337.815 69.0494H356.654V0.950617H343.346V33.1852ZM262.284 69.0494H277.062V0.950617H262.284V69.0494ZM210.951 57.1235H204.556V12.7901H212.42C225.642 12.7901 232.296 20.1358 232.296 34.7407C232.383 49.6914 225.21 57.1235 210.951 57.1235ZM211.728 0.950617H189.778V69.0494H209.568C221.926 69.0494 231.432 66.1111 237.914 60.1481C244.481 54.1852 247.765 45.6296 247.765 34.3951C247.765 23.8519 244.568 15.642 238.259 9.76543C231.951 3.88889 223.136 0.950617 211.728 0.950617ZM158.84 33.1852C158.84 36.8148 159.099 43.1235 159.531 51.9383H159.185L128.852 0.950617H110.185V69.0494H123.407V36.9877C123.407 33.0988 123.062 26.6173 122.457 17.5432H122.889L153.309 69.0494H172.148V0.950617H158.84V33.1852ZM55.3086 69.0494H95.5802V57.1235H70.1728V39.5802H93.8519V27.7407H70.1728V12.7901H95.5802V0.950617H55.3086V69.0494ZM14.8642 0.950617H0V69.0494H43.2099V57.1235H14.8642V0.950617Z" fill="#294E9B"/>
<path fill-rule="evenodd" clip-rule="evenodd" d="M590.506 0L585.407 6.48148H598.63C599.926 6.5679 608.568 7.4321 611.852 14H590.506L585.407 20.3951H613.148C613.148 20.4815 613.148 20.6543 613.148 20.7407C613.148 20.7407 613.494 34.8272 588.518 32.321V39.8395L614.963 70H625.16V67.8395L599.667 37.679C599.667 37.679 619.716 37.9383 623.086 20.4815C623.086 20.4815 623.086 20.4815 623.086 20.3951H631.642L636.309 14H623.086C622.568 11.5802 621.012 8.64198 619.025 6.48148H632.247L636.309 0L590.506 0Z" fill="#FF7000"/>
</svg>
