<svg width="357" height="95" viewBox="0 0 357 102" fill="none" xmlns="http://www.w3.org/2000/svg">
<path d="M227.835 31.1161C230.156 32.7136 228.558 35.846 226.944 35.846H219.029V101H137.975V36.1906H130.122C128.524 36.1906 126.818 32.9642 129.123 31.351C134.948 27.5765 168.021 6.15082 173.292 2.62686C177.257 -0.0356821 179.624 1.01367 182.805 2.62686L201.693 14.5143V7.70135H211.545V20.7322L227.835 31.1161Z" fill="#014E9F"/>
<path fill-rule="evenodd" clip-rule="evenodd" d="M174.781 84.7572C174.781 85.0913 174.781 85.4255 174.781 85.7596C174.535 85.8536 174.135 85.7909 173.828 85.8536C173.782 88.0149 173.828 90.3955 173.859 92.4473C173.413 92.4473 172.952 92.4629 172.568 92.4003C172.552 92.0401 172.875 91.4449 172.614 91.0533C172.306 91.21 172.122 91.3509 171.707 91.3822C170.017 91.5075 169.156 90.3799 169.033 88.8607C168.971 88.1246 169.141 87.4041 169.494 86.9186C169.586 86.7933 169.771 86.574 169.909 86.5583C170.232 86.5114 170.447 86.8716 170.693 86.8559C171.123 86.8246 171.246 86.0258 170.831 85.8536C170.585 85.7439 170.063 85.8066 169.663 85.8066C169.217 85.8066 168.879 85.8066 168.541 85.9005C168.526 88.0149 168.434 90.5522 168.587 92.4159C168.172 92.4943 167.588 92.5412 167.219 92.4003C167.373 90.3016 167.235 88.0619 167.266 85.8536C166.958 85.7909 166.589 85.8849 166.22 85.8536C166.144 86.3391 166.251 86.9812 166.174 87.4667C165.621 87.3571 164.96 87.0439 164.392 87.4041C164.223 87.4981 164.084 87.7017 164.054 87.9679C164.238 88.0462 164.407 87.9679 164.576 87.9679C165.913 87.9836 166.989 88.845 166.912 90.2859C166.881 90.6148 166.804 91.0064 166.881 91.3353C166.528 91.4449 165.79 91.4449 165.467 91.3039C165.514 90.975 165.667 90.8811 165.713 90.6305C165.836 89.7691 165.083 89.1896 164.422 89.3619C163.9 89.5028 163.731 90.1919 163.777 90.6461C163.823 91.022 164.1 91.5232 164.484 91.6015C164.899 91.6798 165.006 91.4449 165.421 91.4762C165.452 91.9148 165.452 92.5256 165.421 92.9798C163.884 93.0111 162.655 92.2906 162.501 90.8341C162.424 89.91 162.732 89.2052 163.116 88.6414C162.901 88.3125 162.701 88.1245 162.701 87.6703C162.701 86.9656 163.377 86.2294 163.992 86.1511C164.192 86.1355 165.129 86.2294 165.145 85.9789C165.16 85.7752 164.591 85.8222 164.346 85.8066C163.685 85.7909 162.962 85.7596 162.394 85.8849C162.363 87.3101 162.332 88.9546 162.332 90.4269C162.332 90.9437 162.271 91.4919 162.332 91.9461C162.363 92.1497 162.486 92.1967 162.486 92.369C162.302 92.5099 161.887 92.4003 161.625 92.4786C161.564 92.7605 161.641 93.1677 161.564 93.4183C161.195 93.5123 160.749 93.5279 160.657 93.8882C160.719 94.2014 160.795 94.4833 161.072 94.5147C161.379 94.546 161.61 94.2641 161.871 94.2797C162.025 94.6399 161.963 95.4074 161.871 95.7833C161.687 95.8616 161.687 95.611 161.579 95.6893C161.364 95.6736 161.226 95.8146 161.026 95.7833C160.872 95.752 160.765 95.611 160.611 95.5327C160.38 95.423 160.181 95.4074 160.042 95.2821C159.412 94.7026 159.597 92.9641 160.242 92.4943C160.534 92.2907 160.903 92.3376 161.21 92.1027C161.226 90.004 161.18 87.9679 161.195 85.8536C160.857 85.8222 160.442 85.7752 160.15 85.8849C159.904 87.0282 160.15 88.2812 160.073 89.2679C159.981 90.3799 159.489 91.022 158.598 91.3353C158.444 91.3822 158.213 91.4292 157.952 91.4136C156.292 91.2413 155.401 88.986 156.431 87.5137C156.876 86.8872 157.937 86.3547 158.859 86.7463C158.905 86.4957 158.813 86.1668 158.859 85.8536C157.814 85.8066 156.677 85.8849 155.585 85.8536C155.539 87.2631 155.555 88.9233 155.555 90.4582C155.555 90.975 155.478 91.5232 155.555 91.9774C155.585 92.1497 155.724 92.2123 155.693 92.4003C155.309 92.5099 154.586 92.5569 154.264 92.369C154.279 91.9931 154.494 91.6172 154.356 91.2256C154.141 91.1943 154.002 91.3666 153.803 91.4136C153.096 91.5389 152.297 91.0847 151.897 90.5835C151.682 90.3172 151.636 89.9413 151.482 89.6908C151.282 89.6438 150.975 89.7221 150.729 89.7064C150.621 89.2522 150.606 88.5161 150.744 88.0932C150.975 88.0932 151.236 88.3595 151.497 88.2185C151.605 88.1715 151.713 87.8426 151.774 87.7173C152.189 86.9812 152.988 86.4331 154.172 86.621C154.141 87.1535 154.233 87.7956 154.11 88.2498C153.818 88.2498 153.741 87.9836 153.511 87.9993C153.249 87.9993 152.942 88.3282 152.85 88.5788C152.573 89.1896 153.019 89.863 153.511 90.0353C154.433 89.9413 154.479 88.9703 154.433 87.827C154.402 87.1065 154.464 86.4017 154.387 85.8849C153.08 85.8692 151.544 85.7596 150.36 85.8849C150.514 86.3078 150.714 86.6836 150.698 87.2005C150.652 88.1245 149.945 88.6727 149.484 89.1426C149.976 89.6751 150.268 90.4269 150.452 91.3353C150.498 91.5232 150.483 91.7581 150.545 91.9304C150.621 92.087 150.867 92.1497 150.821 92.369C150.391 92.5569 149.576 92.4786 149.131 92.369C149.33 91.8364 149.1 91.069 148.869 90.4895C148.593 89.8004 148.255 89.3305 147.425 89.2835C147.409 88.8763 147.363 88.3282 147.455 87.9523C147.809 87.9523 148.024 88.2342 148.501 88.1715C149.085 88.0932 149.469 87.5451 149.423 86.9499C149.346 85.9005 148.147 85.8692 147.133 85.7596C147.163 85.4307 147.071 84.9765 147.179 84.7416C156.354 84.6789 165.636 84.7102 174.781 84.7572ZM172.322 85.9005C172.537 87.3414 171.861 88.2812 170.462 88.1402C169.801 89.0799 170.862 90.1763 171.83 89.9413C172.107 89.863 172.522 89.5968 172.645 89.3149C172.814 88.8763 172.737 88.1715 172.768 87.592C172.783 86.9812 172.721 86.3704 172.66 85.8536C172.614 85.8066 172.491 85.8379 172.399 85.8379C172.368 85.8536 172.337 85.8692 172.322 85.9005ZM157.23 88.892C157.184 89.4088 157.553 89.957 157.998 90.004C159.243 90.1606 159.013 87.7643 158.014 88.0149C157.645 88.2185 157.276 88.4221 157.23 88.892ZM190.165 82.7995C189.965 82.7838 189.827 82.8464 189.611 82.8464C189.289 82.8621 188.904 83.2223 188.874 83.4886C188.812 83.9271 189.212 84.4283 189.412 84.6632C195.764 84.6528 202.091 84.6685 208.392 84.7102C208.53 84.9921 208.484 85.5403 208.376 85.8066C208.069 85.8066 207.746 85.7909 207.5 85.8536C207.424 87.2475 207.454 88.892 207.454 90.4112C207.454 90.928 207.377 91.4762 207.454 91.9304C207.485 92.134 207.639 92.1967 207.593 92.4159C207.224 92.6039 206.578 92.4473 206.117 92.4786C206.148 92.0244 206.486 91.5859 206.256 91.1003C205.472 91.4919 204.35 91.5389 203.643 90.9281C203.443 90.7558 203.228 90.4895 203.074 90.2076C202.936 89.9413 202.736 89.5811 202.69 89.3149C202.629 88.986 202.582 88.4535 202.613 88.1089C202.644 87.686 202.982 87.2788 203.182 86.9029C203.228 86.8089 203.305 86.5583 203.397 86.527C203.75 86.4017 203.935 86.8246 204.196 86.8246C204.457 86.8246 204.534 86.527 204.688 86.3391C204.596 85.5873 202.921 85.8066 202.183 85.8849C202.121 88.0306 202.214 90.2389 202.183 92.4473C201.814 92.6039 201.169 92.5569 200.815 92.4159C200.815 90.2233 200.769 88.0776 200.784 85.8536C200.554 85.8222 200.139 85.7909 199.939 85.8849C199.924 86.3547 200.062 87.0752 199.862 87.4981C199.048 87.4354 197.895 87.0282 197.695 87.9209C197.987 87.9366 198.249 87.8426 198.541 87.874C199.417 87.9523 200.216 88.7667 200.462 89.4871C200.646 90.0197 200.554 90.7244 200.523 91.3822C200.139 91.5075 199.509 91.4606 199.155 91.3509C199.171 90.8811 199.386 90.8497 199.37 90.4112C199.34 89.816 198.802 89.3305 198.279 89.3305C197.757 89.3462 197.403 89.8317 197.388 90.3329C197.388 90.7871 197.634 91.4449 198.08 91.5545C198.418 91.6328 198.648 91.3822 199.002 91.5075C199.063 91.9461 199.017 92.5099 199.032 92.9954C198.694 93.0894 198.402 92.9484 198.095 92.8701C197.803 92.7918 197.465 92.8388 197.204 92.6979C196.912 92.5569 196.604 92.087 196.42 91.7581C195.882 90.7714 195.959 89.4402 196.635 88.6414C196.512 88.4535 196.374 88.4221 196.297 88.2185C195.913 87.1535 196.773 86.3704 197.588 86.1355C197.972 86.0258 198.402 86.2138 198.71 85.9475C198.633 85.7596 198.233 85.8222 197.972 85.8066C197.142 85.7596 196.174 85.7596 195.482 85.9005C195.451 86.8559 195.467 87.827 195.467 88.8137C195.467 90.0823 195.359 91.3979 195.559 92.4473C195.159 92.6195 194.406 92.5726 194.068 92.369C194.053 92.181 194.222 92.1497 194.268 91.9304C194.376 91.3353 194.161 90.4269 194.222 89.816C193.607 89.7534 192.916 89.8004 192.27 89.7847C192.224 89.4558 192.209 89.0799 192.224 88.7197C191.963 88.7354 191.778 89.033 191.609 89.2052C191.778 89.5968 192.055 89.863 192.224 90.3172C192.378 90.7401 192.378 91.257 192.501 91.7268C192.578 91.9774 192.747 92.181 192.716 92.4473C192.27 92.4786 191.655 92.4786 191.21 92.4473C191.287 91.5702 191.102 90.9281 190.733 90.3799C190.503 90.051 190.18 89.6751 189.78 89.6908C189.642 89.957 189.704 90.3955 189.704 90.7714C189.704 91.4136 189.688 92.0087 189.796 92.4943C189.335 92.5099 188.628 92.6195 188.336 92.369C188.32 92.087 188.397 91.6798 188.382 91.3039C187.752 91.4136 187.245 91.5232 186.753 91.4762C185.108 91.3196 184.217 88.9546 185.016 87.2318C185.124 86.9812 185.431 86.4644 185.646 86.4331C185.969 86.3704 186.384 86.8089 186.553 86.3391C186.63 86.1041 186.599 85.7283 186.261 85.8379C186.123 85.9319 186.338 86.1511 186.215 86.2764C185.785 86.2921 185.247 86.3861 184.924 86.2294C184.77 86.2138 184.893 85.9162 184.816 85.8379C184.617 85.8536 184.402 85.8536 184.217 85.8849C184.171 86.8246 184.186 87.7956 184.186 88.798C184.186 90.0666 184.079 91.3979 184.279 92.4473C183.879 92.5569 183.187 92.5569 182.788 92.4159C182.726 92.181 182.972 92.1184 183.018 91.8991C183.141 91.2883 182.941 90.4582 182.941 89.8787C182.803 89.8474 182.542 89.8787 182.373 89.91C182.281 91.2883 181.266 92.6665 179.945 92.5412C179.56 92.5099 179.207 92.4003 178.869 92.228C178.577 92.087 178.469 91.8521 178.162 91.6955C178.116 91.3039 177.732 91.0847 177.578 90.7088C177.286 90.0353 177.562 89.1269 177.701 88.4691C178.1 88.3751 178.669 88.4065 179.038 88.5161C178.976 89.0643 178.669 89.1426 178.715 89.7377C178.792 90.5052 179.56 91.1786 180.313 90.9281C180.867 90.7401 181.143 90.145 181.128 89.5655C181.128 89.0486 180.913 88.3595 180.375 88.1402C180.221 88.0776 179.975 88.1089 179.822 87.9993C179.76 87.827 179.806 87.5764 179.791 87.3728C180.098 87.1848 180.483 87.1222 180.529 86.6993C180.575 86.1825 180.052 85.6656 179.576 86.0572C179.422 86.3547 179.622 86.5583 179.591 86.8246C179.192 86.9499 178.5 86.9656 178.1 86.8246C178.07 86.5897 178.208 86.4644 178.254 86.3078C178.454 85.6656 178.623 84.9138 179.176 84.5849C179.468 84.4127 179.914 84.397 180.252 84.4596C180.544 84.5223 180.974 84.6163 181.189 84.8355C181.266 84.9295 181.328 85.1331 181.42 85.3054C181.528 85.462 181.651 85.6186 181.697 85.7596C181.866 86.2764 181.651 86.8246 181.574 87.3728C181.896 87.6704 182.204 87.9523 182.311 88.4691C182.527 88.4691 182.747 88.4691 182.972 88.4691C183.018 87.6704 183.141 86.5897 182.941 85.8536C182.619 85.7909 182.173 85.8536 181.866 85.7752C181.804 85.462 181.804 85.0548 181.866 84.7416C182.865 84.5536 184.263 84.6319 185.231 84.7572C185.862 84.1777 187.275 84.2717 187.675 85.0235C187.767 85.1958 187.706 85.3524 187.829 85.509C188.105 84.6319 187.383 84.1777 187.383 83.3633C187.383 82.5489 188.09 81.7188 188.782 81.4995C189.166 81.3899 190.057 81.5308 190.518 81.5308L190.165 82.7995ZM209.867 86.8872C209.867 87.3989 209.867 87.9105 209.867 88.4221C209.437 88.4535 208.822 88.5004 208.453 88.3751C208.407 87.9679 208.315 87.1848 208.53 86.8872C208.976 86.8872 209.422 86.8872 209.867 86.8872ZM209.867 90.8184C209.867 91.3666 209.867 91.9148 209.867 92.4629C209.375 92.4786 208.914 92.4316 208.438 92.4316C208.423 91.8834 208.423 91.3196 208.484 90.8184C208.945 90.8184 209.406 90.8184 209.867 90.8184ZM187.921 85.8849C187.89 86.6523 187.844 87.3571 187.337 87.6234C187.03 87.8113 186.538 87.733 186.138 87.9053C185.769 88.9546 186.384 90.1136 187.383 90.0666C187.798 90.051 188.336 89.6751 188.413 89.3149C188.52 88.8137 188.382 88.1559 188.382 87.5764C188.382 86.9812 188.428 86.4017 188.367 85.8849C188.274 85.8379 188.105 85.8536 187.998 85.8066C187.967 85.8275 187.941 85.8536 187.921 85.8849ZM192.362 85.8849C192.916 86.48 192.639 87.6077 192.439 88.3751C192.946 88.5004 193.623 88.4691 194.253 88.4691C194.299 87.6704 194.437 86.5427 194.191 85.8379C193.607 85.8536 192.87 85.7283 192.362 85.8849ZM189.765 85.9162C189.658 86.574 189.688 87.4981 189.78 88.1245C191.24 88.7824 191.917 86.4331 190.826 85.9319C190.564 85.8066 190.242 85.8536 189.811 85.8379C189.78 85.8483 189.765 85.8744 189.765 85.9162ZM205.933 85.8849C206.163 86.8246 205.518 88.0619 204.965 88.2185C204.657 88.3125 204.335 88.1872 203.981 88.2812C203.674 89.2835 204.35 90.004 205.257 89.8944C205.687 89.8317 206.24 89.4871 206.302 89.1739C206.394 88.8137 206.286 88.2968 206.286 87.8583C206.286 87.1222 206.317 86.4487 206.256 85.8849C206.209 85.8379 206.071 85.8692 206.01 85.8379C205.979 85.8536 205.964 85.8692 205.933 85.8849ZM153.511 36.3459C153.511 36.3459 153.956 34.4821 153.956 34.0906C153.956 33.6207 153.649 32.2111 155.094 33.0726C156.554 33.9496 156.154 35.093 155.862 35.7821C155.555 36.5025 154.802 38.9145 154.402 39.7446L152.804 44.2709C152.804 44.2709 152.665 44.6468 152.589 44.8034C152.512 44.8974 151.897 47.2154 152.143 49.7839L152.42 52.7127C152.42 52.7127 152.512 52.9477 152.742 52.7127C152.742 52.7127 153.05 52.5718 152.804 51.0995C152.804 51.0995 152.804 48.0768 152.881 47.4503C152.973 46.8081 153.28 44.8974 153.418 44.5685C153.588 44.1926 153.649 44.1143 153.956 43.2529C154.264 42.3288 155.263 39.6819 155.263 39.6819C155.263 39.6819 156.615 36.8001 156.769 36.0327C156.769 36.0327 157.399 34.4821 157.307 32.3991C157.307 32.3991 157.168 31.8353 157.399 31.6003C157.691 31.3811 158.69 31.6003 159.059 31.9136C159.443 32.2111 160.119 32.9316 160.058 33.9496C159.981 34.8737 159.535 36.5652 158.905 38.2097C158.905 38.2097 158.383 39.447 158.075 39.8385C157.845 40.1518 156.477 43.4095 156.477 43.5504C156.4 43.7227 156.323 43.942 156.154 44.1143C156.154 44.1143 155.478 46.1973 155.416 46.9021C155.263 47.6852 155.032 48.4527 154.879 50.0815C154.802 51.6477 155.309 53.8247 155.309 53.8247C155.309 53.8247 155.416 54.2006 155.632 54.2006C155.862 54.2006 155.862 53.3549 155.862 53.2766C155.862 53.1199 155.785 52.3368 155.708 51.9609C155.632 51.6477 155.708 49.0008 155.708 49.0008C155.708 49.0008 155.939 47.0587 156.477 45.7431C156.692 45.2733 156.861 44.4902 157.168 43.801C157.629 42.7047 158.075 41.7023 158.075 41.7023C158.075 41.7023 159.766 37.9748 159.827 37.7398C159.889 37.5049 160.734 35.2496 160.826 34.0906C160.826 33.0099 161.057 32.2111 161.057 32.2111C161.057 32.2111 160.903 31.3811 161.948 31.8353C162.947 32.3051 163.639 33.2292 163.715 34.0906C163.715 34.0906 163.869 34.952 163.562 35.0303C163.178 35.1713 163.008 34.952 162.793 35.1713C162.793 35.1713 162.563 35.3435 162.563 35.7351C162.486 36.0327 162.255 37.035 162.179 37.27C162.179 37.5832 162.179 37.8965 161.948 38.8362C161.656 39.6819 160.734 42.4854 160.672 42.6264C160.672 42.6264 160.058 44.4902 159.981 44.6468C159.981 44.8034 159.827 45.0227 159.766 45.195C159.766 45.2733 158.905 48.3117 158.844 49.0008C158.767 49.69 158.536 50.9429 158.598 51.726C158.598 52.4778 158.844 53.4332 158.982 54.1223C158.982 54.1223 159.059 54.3572 159.366 54.2789C159.597 54.2006 159.151 53.2766 159.289 51.867C159.443 50.4731 159.673 48.5153 159.827 48.0768C159.889 47.5286 160.826 44.8974 160.826 44.7094C160.903 44.5685 161.733 41.9216 161.948 41.4517C162.117 41.0132 162.87 38.5073 162.947 38.0374C163.008 37.5832 163.008 36.3459 164.253 36.1736C165.544 36.5652 165.467 38.9145 165.314 39.7446C165.314 39.7446 165.083 42.1722 164.253 44.036C163.485 45.8214 163.562 45.8214 163.562 45.8841C163.562 46.0564 163.777 47.8418 163.715 48.5153C163.715 49.2358 163.777 49.9249 163.408 51.4128C162.947 52.885 163.254 53.0416 163.316 53.2766C163.485 53.5741 164.253 54.6705 164.484 55.2813C164.622 55.9078 164.837 57.1451 164.945 57.38C165.006 57.5523 165.928 58.4763 166.297 59.1655C166.605 59.792 167.604 61.4208 167.665 61.5774C167.757 61.8124 170.877 65.8375 171.707 67.4037C172.552 68.9542 173.321 70.3638 173.244 71.7577C173.167 72.8384 172.706 74.0131 172.091 74.9371C171.784 75.313 171.43 75.7202 170.954 76.0178C170.723 76.1744 170.186 76.3937 170.047 76.8009L169.433 79.5887H157.445L160.058 74.9371C160.058 74.9371 160.903 74.389 159.059 72.0397C157.23 69.8156 154.11 64.146 154.11 64.146C154.11 64.146 151.282 59.1655 150.76 58.1631C149.914 56.8475 150.084 50.1755 150.084 48.1394C150.084 48.1394 149.761 45.7431 151.067 42.5637C152.358 39.3843 153.511 36.3459 153.511 36.3459Z" fill="white"/>
<path d="M205.828 36.3651C205.828 36.3651 205.444 34.4857 205.382 34.0941C205.382 33.6243 205.674 32.2147 204.23 33.0761C202.846 33.9532 203.231 35.1122 203.461 35.8013C203.784 36.5061 204.537 38.9181 204.998 39.7638L206.596 44.2745C206.596 44.2745 206.735 44.666 206.735 44.8226C206.827 44.9009 207.426 47.2346 207.196 49.7875L206.888 52.7319C206.888 52.7319 206.827 52.9669 206.596 52.7319C206.596 52.7319 206.289 52.591 206.504 51.1031C206.504 51.1031 206.504 48.0803 206.443 47.4538C206.366 46.8274 206.135 44.9009 205.905 44.5877C205.751 44.1961 205.674 44.1178 205.382 43.2721C205.136 42.3324 204.061 39.6855 204.061 39.6855C204.061 39.6855 202.708 36.8037 202.554 36.0362C202.554 36.0362 201.94 34.4857 202.017 32.4027C202.017 32.4027 202.247 31.8388 201.94 31.6039C201.632 31.3846 200.726 31.6039 200.341 31.9328C199.957 32.2147 199.189 32.9352 199.281 33.9532C199.419 34.8772 199.803 36.5844 200.403 38.2133C200.403 38.2133 200.956 39.4662 201.264 39.8578C201.494 40.1553 202.846 43.4287 202.939 43.5697C202.939 43.742 203.077 43.9612 203.169 44.1178C203.169 44.1178 203.83 46.2009 203.922 46.9213C204.061 47.6888 204.383 48.4719 204.46 50.1007C204.537 51.6513 203.999 53.8283 203.999 53.8283C203.999 53.8283 203.922 54.2042 203.692 54.2042C203.461 54.2042 203.461 53.3584 203.461 53.2958C203.461 53.1235 203.538 52.3404 203.6 51.9645C203.692 51.6513 203.6 49.02 203.6 49.02C203.6 49.02 203.384 47.0623 202.846 45.7467C202.708 45.2768 202.478 44.5094 202.186 43.8046C201.786 42.7239 201.264 41.7059 201.264 41.7059C201.264 41.7059 199.65 37.994 199.588 37.7591C199.496 37.5085 198.589 35.2688 198.513 34.0941C198.513 33.0135 198.282 32.2147 198.282 32.2147C198.282 32.2147 198.513 31.3846 197.437 31.8388C196.376 32.3087 195.7 33.2484 195.623 34.0941C195.623 34.0941 195.47 34.9556 195.854 35.0339C196.146 35.1748 196.376 34.9556 196.53 35.1748C196.53 35.1748 196.761 35.3628 196.822 35.7387C196.822 36.0362 197.068 37.0543 197.145 37.2892C197.206 37.5868 197.145 37.9 197.375 38.8397C197.683 39.6855 198.589 42.489 198.651 42.6456C198.651 42.6456 199.281 44.5094 199.342 44.666C199.419 44.8226 199.496 45.0262 199.588 45.2142C199.65 45.2768 200.403 48.3153 200.495 49.02C200.572 49.7092 200.802 50.9465 200.802 51.7296C200.726 52.497 200.572 53.4367 200.403 54.1415C200.403 54.1415 200.265 54.3765 200.034 54.2982C199.727 54.2042 200.188 53.2958 200.034 51.8705C199.957 50.4766 199.65 48.5345 199.496 48.0803C199.419 47.5322 198.589 44.9009 198.513 44.7287C198.513 44.5877 197.59 41.9408 197.375 41.471C197.206 41.0168 196.53 38.5108 196.376 38.0566C196.299 37.5868 196.299 36.3651 195.085 36.1929C193.779 36.5844 193.856 38.9181 194.01 39.7638C194.01 39.7638 194.255 42.1757 195.085 44.0395C195.931 45.8407 195.762 45.8407 195.762 45.8876C195.762 46.0599 195.546 47.8611 195.623 48.5345C195.623 49.255 195.546 49.9284 195.931 51.4163C196.376 52.8886 196.084 53.0608 196.007 53.2958C195.931 53.5934 195.085 54.6897 194.855 55.2849C194.701 55.9113 194.547 57.1643 194.394 57.3992C194.332 57.5558 193.41 58.4799 193.026 59.169C192.719 59.8112 191.735 61.44 191.658 61.581C191.581 61.8159 188.462 65.8567 187.601 67.4229C186.771 68.9735 186.095 70.383 186.156 71.777C186.156 72.842 186.617 74.0323 187.294 74.9407C187.601 75.3322 187.924 75.7395 188.369 76.0214C188.677 76.1937 189.122 76.4129 189.291 76.8201L189.906 79.608H201.94L199.342 74.9407C199.342 74.9407 198.436 74.4082 200.265 72.0589C202.093 69.8349 205.213 64.1652 205.213 64.1652C205.213 64.1652 208.118 59.169 208.656 58.1823C209.424 56.8511 209.332 50.179 209.271 48.1586C209.271 48.1586 209.563 45.7467 208.272 42.5673C207.042 39.3879 205.828 36.3651 205.828 36.3651Z" fill="white"/>
<path fill-rule="evenodd" clip-rule="evenodd" d="M188.492 61.861C188.492 63.6935 186.478 66.8572 183.589 68.533C182.437 69.2065 181.146 69.5824 179.855 69.5824C178.256 69.5824 176.75 69.0499 175.459 68.1728C172.862 66.4187 171.141 63.4742 171.141 61.861C171.141 60.6707 172.862 59.5744 175.459 59.0732C176.105 58.9322 176.827 58.7756 177.534 58.6973C177.257 58.1804 176.904 57.6009 176.596 57.0841C176.182 56.1444 175.751 54.9697 176.028 53.936C176.596 52.0253 178.333 50.2555 178.84 46.293C178.84 46.293 179.855 48.8772 180.285 49.7543C180.638 50.553 181.945 53.5601 181.007 56.1444C180.715 57.0841 180.423 57.8985 180.223 58.6346C181.422 58.6346 182.59 58.7756 183.589 58.9322C186.478 59.4491 188.492 60.5454 188.492 61.861ZM178.902 61.6417C178.902 60.7647 178.564 60.1695 178.118 59.5117C178.041 59.3707 177.903 59.2768 177.841 59.1515C176.965 59.2141 176.182 59.3707 175.459 59.5117C173.369 59.9502 172.001 60.6707 172.001 61.3442C172.001 61.9393 173.369 62.5188 175.459 62.8321C176.75 62.973 178.902 62.973 178.902 61.6417ZM187.493 61.3442C187.493 60.6707 185.894 59.8719 183.589 59.4491C182.59 59.2141 181.361 59.0732 180.07 59.0732C179.778 60.2478 179.639 61.1249 179.855 61.5634C180.346 62.8321 182.221 62.879 183.589 62.879C183.743 62.8321 183.958 62.8321 184.096 62.8321C184.096 62.8321 184.096 62.8321 184.173 62.8321C186.11 62.5188 187.493 61.9393 187.493 61.3442Z" fill="white"/>
<path d="M174.984 53.658C175.214 52.8749 175.583 52.1544 175.967 51.4183C176.674 50.0871 177.458 48.5678 177.765 46.1559L178.288 41.9741L179.84 45.8896C179.855 45.9053 180.854 48.4269 181.254 49.257C182.499 52.1075 182.745 54.5507 182.022 56.5398C182.022 56.5398 182.022 56.545 182.022 56.5555C185.019 56.8531 187.617 57.7458 189.292 58.9831V49.8834H194.486L179.671 34.7383L164.871 49.8834H170.066V58.9831C171.357 58.0277 173.185 57.2759 175.337 56.8374C174.953 55.882 174.692 54.7387 174.984 53.658Z" fill="white"/>
</svg>
