<svg width="700" height="185" viewBox="0 0 700 185" fill="none" xmlns="http://www.w3.org/2000/svg">
<rect width="700" height="185" fill="#174836"/>
<path fill-rule="evenodd" clip-rule="evenodd" d="M184.953 92.0371C184.953 136.737 150.026 172.975 106.943 172.975C63.8601 172.975 28.9333 136.737 28.9333 92.0371C28.9333 47.3371 63.8601 11.0996 106.943 11.0996C150.026 11.0996 184.953 47.3371 184.953 92.0371ZM132.362 53.0972C136.318 53.0972 139.903 55.4938 141.549 59.2214L141.545 59.2304L170.942 125.932H149.389L129.826 78.1204L110.267 125.932H88.715L75.4533 93.5165L62.1872 125.932H42.9188L65.104 75.6068C65.7493 74.1453 66.7853 72.9066 68.0889 72.0378C69.3926 71.1691 70.9091 70.7067 72.4586 70.7056H78.448C81.6117 70.7056 84.4851 72.6166 85.8026 75.6068L98.3535 104.07L118.12 59.2214C118.925 57.3942 120.219 55.8453 121.848 54.7595C123.477 53.6737 125.372 53.0967 127.308 53.0972H132.362Z" fill="white"/>
<path d="M279.203 94.3264C279.203 79.7667 289.033 69.4831 303.391 69.4831C317.753 69.4831 327.83 79.7622 327.83 94.3264C327.83 108.895 317.922 119.179 303.391 119.179C288.859 119.179 279.203 108.895 279.203 94.3264ZM303.391 108.212C309.749 108.212 315.855 103.409 315.855 94.3264C315.855 85.2434 309.749 80.4456 303.391 80.4456C297.033 80.4456 291.256 85.158 291.256 94.3264C291.256 103.499 297.12 108.212 303.391 108.212ZM334.851 70.3374H346.738V74.6181C348.719 71.7044 352.932 69.3122 357.968 69.3122C368.126 69.3122 374.155 76.3358 374.155 87.9009V118.14H362.267V88.8407C362.267 83.274 359.047 79.6677 354.669 79.6677C350.292 79.6677 346.747 82.9232 346.747 88.9216V118.131H334.859V70.333L334.851 70.3374ZM380.92 94.241C380.92 79.5913 391.234 69.3122 405.103 69.3122C417.329 69.3122 427.401 77.5364 428.636 89.6995C428.887 92.3524 428.887 95.3561 428.636 97.9236H393.31C394.55 105.455 399.751 109.062 405.359 109.062C409.736 109.062 414.2 106.836 415.682 102.632H427.903C426.17 112.232 417.415 119.17 405.116 119.17C391.161 119.17 380.933 108.891 380.933 94.241H380.92ZM416.254 88.9306C415.01 82.4241 409.983 79.4204 405.354 79.4204C400.154 79.4204 395.287 82.5051 393.631 88.9306H416.254ZM479.997 70.3374H493.037L502.867 102.213L514.096 70.3374H526.235L509.987 114.93C509.276 116.863 507.491 118.149 505.493 118.149H500.422C499.443 118.147 498.488 117.835 497.684 117.255C496.88 116.675 496.266 115.854 495.924 114.903L479.997 70.3464V70.3374ZM531.431 70.3374H543.315V118.145H531.431V70.3464V70.3374ZM537.044 49.9502C541.009 49.9502 544.229 53.3721 544.229 57.4864C544.229 61.5962 541.009 65.1125 537.044 65.1125C535.1 65.0937 533.242 64.2841 531.868 62.8578C530.494 61.4316 529.715 59.5027 529.698 57.4864C529.698 53.2866 532.996 49.9502 537.044 49.9502ZM550.336 94.241C550.336 79.5913 560.655 69.3122 574.528 69.3122C586.749 69.3122 596.817 77.5364 598.061 89.6995C598.308 92.4349 598.308 95.1883 598.061 97.9236H562.722C563.966 105.455 569.166 109.062 574.775 109.062C579.152 109.062 583.611 106.836 585.094 102.632H597.319C595.586 112.232 586.836 119.17 574.532 119.17C560.577 119.17 550.344 108.891 550.344 94.241H550.336ZM585.67 88.9306C584.43 82.4241 579.399 79.4204 574.775 79.4204C569.574 79.4204 564.707 82.5051 563.051 88.9306H585.67ZM277.466 118.14H265.201L259.12 88.5034L249.009 118.14H237.403L228.532 88.5034L221.606 118.14H210L220.96 74.0741C221.506 71.8708 223.418 70.333 225.611 70.333H230.616C232.662 70.333 234.478 71.6729 235.15 73.6739L244.121 100.352L253.486 73.6154C253.823 72.6555 254.436 71.8262 255.242 71.2399C256.048 70.6536 257.009 70.3385 257.993 70.3374H262.509C264.728 70.3374 266.653 71.9112 267.177 74.1415L277.457 118.14H277.466ZM447.462 70.3419V98.6116C447.462 101.354 448.147 103.58 449.53 105.293C450.899 107.011 452.806 107.861 455.22 107.861C457.638 107.861 459.38 107.034 460.754 105.374C462.124 103.715 462.817 101.435 462.817 98.5217V70.3374H474.792V117.461C474.792 123.167 473.375 127.569 470.54 130.654C467.71 133.738 463.233 135.285 457.127 135.285H440.285V124.237H454.652C460.325 124.237 463.155 121.521 463.155 116.099V112.591C462.163 114.075 460.668 115.388 458.652 116.53C456.641 117.672 454.349 118.248 451.757 118.248C446.587 118.248 442.595 116.584 439.787 113.275C436.979 109.965 435.574 105.392 435.574 99.5649V70.3554H447.462V70.3374V70.3419ZM600.873 70.3419H613.138L619.219 99.9741L629.329 70.3419H640.936L649.803 99.9741L656.733 70.3419H668.339L657.378 114.408C656.832 116.611 654.921 118.149 652.728 118.149H647.723C645.677 118.149 643.861 116.805 643.189 114.804L634.218 88.1302L624.853 114.862C624.517 115.823 623.904 116.653 623.098 117.24C622.291 117.827 621.33 118.143 620.345 118.145H615.825C613.61 118.145 611.686 116.571 611.162 114.336L600.882 70.3374H600.873V70.3419Z" fill="white"/>
</svg>
