<svg width="700" height="140" viewBox="0 0 700 140" fill="none" xmlns="http://www.w3.org/2000/svg">
<path d="M112.78 56.3096C112.628 25.5568 87.7858 0.46505 57.1522 0.00605334C25.7566 -0.452943 0 25.2509 0 56.6156V59.0636L30.4812 28.3108C38.1015 21.4259 48.0078 17.7539 58.219 18.2129C77.5746 19.1309 93.2724 35.1958 94.1868 54.6266C95.1012 76.6585 77.727 94.7123 56.0854 94.7123C40.3876 94.7123 26.2138 84.9204 20.5748 70.2325L6.85826 84.0024C9.14435 88.2864 12.0401 92.2644 15.5454 95.6303L56.0854 140L97.0825 95.6303C107.294 85.0734 112.933 70.9975 112.78 56.3096Z" fill="#374B9B"/>
<path d="M55.1709 72.222C63.7056 72.834 71.1735 66.5611 71.7831 57.9931C71.7831 57.2281 71.7831 56.3101 71.7831 55.5451C71.1735 48.0482 65.2297 42.0813 57.6094 41.3163C53.342 40.8573 49.2271 42.3872 46.179 44.9882L44.1977 46.9772C41.6068 50.0372 40.3875 54.1682 40.8448 58.1461C41.7592 65.4901 47.8554 71.763 55.1709 72.222Z" fill="#374B9B"/>
<path d="M216.569 62.4295C214.13 65.3364 211.387 67.0194 207.729 68.2434C203.309 69.9264 198.89 70.3854 194.47 70.3854H181.515V101.444H166.275V23.5678H194.47C203.309 23.5678 210.168 25.7098 215.045 30.1467C219.464 34.2777 222.36 40.0917 222.36 45.9056C222.208 52.0256 220.226 57.8395 216.569 62.4295ZM181.973 58.2985H194.927C198.128 58.2985 201.328 57.5335 203.767 54.9325C207.729 50.0366 207.729 42.9986 203.767 38.4087C201.328 36.2667 198.128 35.1957 194.927 35.0427H181.973C181.973 35.1957 181.973 58.2985 181.973 58.2985ZM238.668 94.2532C233.486 87.9803 230.59 80.6363 230.59 71.1504C230.59 61.6645 233.333 54.1675 238.668 48.3536C243.849 42.5396 251.165 39.3267 259.242 39.6327C266.863 39.1737 274.178 43.3046 278.141 50.3426V40.3976H293.381V102.362H278.141V92.1113C273.721 99.6082 267.32 103.28 259.242 103.28C251.165 103.739 243.849 100.067 238.668 94.2532ZM272.959 84.7673C279.36 76.9644 279.36 65.6424 272.959 57.8395C266.863 51.2606 257.261 51.2606 250.86 57.3805L250.403 57.8395C247.202 61.5115 245.221 66.5604 245.526 70.9974C245.069 75.8934 247.202 80.9423 250.403 84.6143C256.499 91.1933 266.101 91.1933 272.197 85.0733C272.959 85.0733 272.959 85.0733 272.959 84.7673ZM324.777 100.373L301.459 39.1736H318.376L333.616 83.3903L349.771 39.1736H365.469L328.435 130.973H312.28L324.777 100.373ZM399.76 34.2777C397.017 34.2777 394.579 35.0427 392.445 36.7257C390.464 38.4087 389.702 40.8566 389.702 43.3046C389.702 45.7526 390.464 48.2006 391.683 49.8836C393.359 51.5666 395.341 52.7906 397.322 53.5556C399.761 54.3205 402.199 55.2385 404.942 55.6975C407.686 56.4625 410.581 57.3805 413.02 58.1455C415.763 59.0635 418.354 60.2875 420.64 61.8175C423.079 63.5005 425.06 65.4895 426.279 68.0904C427.956 71.4564 428.26 74.3634 428.26 78.0354C428.26 84.3083 425.517 90.4283 420.945 94.5592C416.068 99.1492 409.21 101.597 401.589 101.597C393.512 101.597 387.111 99.6082 381.929 95.3242C377.052 91.1933 374.309 84.9203 374.309 78.3414H390.464C390.921 85.3793 394.884 88.5923 401.742 88.5923C404.485 88.5923 407.381 87.8273 409.819 85.6853C411.801 83.6963 413.02 81.0953 412.563 78.1884C412.563 75.2814 410.886 72.3744 408.6 70.6914C405.857 68.5494 402.504 67.3255 398.998 66.5605C395.036 65.7955 391.378 64.4185 387.72 63.1945C383.758 61.9705 380.405 59.8285 378.119 56.6155C375.376 53.2496 374.156 48.8126 374.156 44.2226C374.156 37.6437 376.595 31.3707 381.472 27.2397C386.349 23.1088 392.75 20.9668 400.37 20.9668C407.99 20.9668 414.391 22.9558 419.268 26.3218C424.145 29.9937 426.584 35.8077 426.889 43.3046H410.429C410.429 40.3976 409.21 37.9497 407.228 36.2667C404.942 35.1957 402.199 34.2777 399.76 34.2777ZM470.172 103.28C462.094 103.739 454.017 100.373 448.378 94.5592C442.739 88.7453 439.996 80.9423 439.996 71.4564C439.996 61.5115 442.739 54.1675 448.378 48.3536C454.017 42.5396 462.094 39.3267 470.172 39.6327C478.25 39.1737 486.327 42.5396 492.271 48.3536C497.91 54.1675 500.653 61.5115 500.653 71.1504C500.653 73.1394 500.653 75.2814 500.196 77.4234H455.693C455.693 81.0953 457.37 84.4613 460.113 87.3683C462.857 89.8163 466.209 91.0403 469.715 91.0403C474.592 91.4993 479.316 88.5923 481.755 84.4613H498.672C496.995 90.2753 493.49 95.1712 488.613 98.9962C483.127 101.597 476.573 103.739 470.172 103.28ZM480.231 56.6155C477.487 54.1675 473.83 52.9435 470.172 52.9435C466.514 52.9435 462.857 54.1675 460.57 56.6155C457.827 59.0635 456.151 62.7355 456.151 66.5605H485.108C484.651 62.4295 483.127 59.0635 480.231 56.6155ZM526.105 40.0917V49.1186C530.068 42.5396 536.164 38.7146 545.003 38.7146C551.404 38.7146 557.501 40.8566 561.92 45.7526C566.34 50.3426 568.321 56.9215 568.321 65.1835V101.597H553.081V67.7844C553.081 62.8885 551.862 59.0635 549.423 56.6155C546.985 54.1675 543.327 52.4845 539.821 52.9435C536.164 52.9435 532.506 54.1675 530.22 56.6155C527.781 59.0635 526.562 62.8885 526.562 67.7844V101.597H511.322V40.0917H526.105ZM580.514 58.2985C580.514 52.9435 582.952 47.8946 586.915 44.6816C591.335 41.0096 596.974 39.3267 604.289 39.3267C611.605 39.3267 617.244 41.0096 621.663 44.6816C626.083 48.3536 628.522 53.8615 628.522 59.5225H613.281C612.824 54.1675 609.623 51.7195 603.984 51.7195C601.546 51.7195 599.107 52.1786 597.126 53.4025C595.602 54.6265 594.688 56.4625 594.688 58.2985C594.688 60.2875 596.364 62.4295 598.345 63.1945C601.089 64.4185 603.984 65.1835 607.185 66.1015C610.385 66.8664 614.043 67.7844 617.244 68.5494C620.444 69.7734 623.34 71.4564 625.626 73.9044C628.064 76.8114 629.284 80.4834 629.284 84.1553C629.284 89.5103 626.845 94.8652 622.425 97.7722C611.909 104.81 598.345 104.81 587.829 97.7722C583.41 94.4062 580.514 88.7453 580.514 82.9313H595.754C596.212 88.2863 599.717 90.7343 605.356 90.7343C607.794 90.7343 610.233 90.2753 612.214 88.5923C613.891 87.3683 614.958 85.2263 614.958 83.2373C614.958 81.2483 613.281 78.6474 611.3 78.3414C608.557 77.1174 605.661 76.3524 602.46 75.4344C599.26 74.6694 595.602 73.7514 592.402 72.9864C589.201 72.2214 586.305 70.0794 584.019 67.6314C581.733 65.6425 580.514 61.9705 580.514 58.2985ZM669.519 103.28C661.441 103.739 653.364 100.373 647.725 94.5592C642.086 88.7453 639.342 80.9423 639.342 71.4564C639.342 61.5115 642.086 54.1675 647.725 48.3536C653.364 42.5396 661.441 39.3267 669.519 39.6327C677.596 39.1737 685.674 42.5396 691.618 48.3536C697.257 54.1675 700 61.5115 700 71.1504C700 73.1394 700 75.2814 699.543 77.4234H654.888C654.888 81.0953 656.564 84.4613 659.308 87.3683C662.051 90.2753 665.404 91.4993 669.366 91.0403C674.243 91.4993 678.968 88.5923 681.406 84.4613H698.324C696.647 90.2753 693.142 95.1712 688.265 98.9962C682.321 101.597 675.92 103.739 669.519 103.28ZM679.578 56.6155C676.834 54.1675 673.177 52.9435 669.519 52.9435C665.861 52.9435 662.203 54.1675 659.917 56.6155C657.174 59.0635 655.498 62.7355 655.498 66.5605H684.455C683.997 62.4295 682.321 59.0635 679.578 56.6155Z" fill="#374B9B"/>
</svg>
