<svg width="679" height="300" viewBox="0 0 679 300" fill="none" xmlns="http://www.w3.org/2000/svg">
<mask id="mask0_66_13" style="mask-type:luminance" maskUnits="userSpaceOnUse" x="0" y="0" width="679" height="300">
<path d="M678.996 0H0.329529V300H678.996V0Z" fill="white"/>
</mask>
<g mask="url(#mask0_66_13)">
<path d="M17.3763 103.45C20.9018 63.1808 0.329529 50.9758 0.329529 50.9758C0.329529 50.9758 5.1836 68.055 1.63507 111.867C-0.780465 141.736 10.216 164.893 16.6056 179.192C17.5143 181.22 20.6027 179.644 20.0276 177.538C14.2361 156.381 14.4661 136.745 17.3763 103.45Z" fill="#FF4612"/>
</g>
<mask id="mask1_66_13" style="mask-type:luminance" maskUnits="userSpaceOnUse" x="0" y="0" width="679" height="300">
<path d="M678.996 0H0.329529V300H678.996V0Z" fill="white"/>
</mask>
<g mask="url(#mask1_66_13)">
<path d="M116.045 293.822C143.036 269.98 181.431 198.961 182.138 145.117C175.904 146.899 163.545 153.344 158.972 173.248C156.344 184.679 148.948 211.684 121.71 209.356C83.9414 206.131 89.4166 136.973 148.557 143.24C176.508 146.203 181.046 126.729 181.046 124.122C174.921 126.84 165.696 125.704 157.028 124.701C103.743 118.495 78.1614 148.047 78.1614 181.776C78.1614 202.025 91.7516 219.032 107.073 228.502C115.223 233.526 109.362 238.445 103.306 234.217C87.1909 222.954 68.3727 208.069 68.3727 176.345C68.3727 123.375 124.166 100.363 137.273 90.9046C156.718 76.8613 166.087 65.2691 161.348 44.608C153.652 58.3282 134.754 70.316 120.652 77.5743C82.5438 97.1937 52.6718 125.759 52.6718 167.711C52.6718 200.722 67.6366 218.854 85.615 232.891C89.6927 236.072 85.3735 240.529 80.1513 236.457C51.5388 214.119 42.0952 189.386 42.0952 157.606C42.0952 97.5558 120.266 43.26 85.1147 0.010498C85.6035 44.168 26.6531 82.7326 26.6531 155.784C26.6531 188.584 40.249 221.138 78.1556 246.885C100.488 262.059 103.651 279.433 100.384 295.153C98.9234 303.642 109.54 299.565 116.045 293.822Z" fill="#FF4612"/>
</g>
<mask id="mask2_66_13" style="mask-type:luminance" maskUnits="userSpaceOnUse" x="0" y="0" width="679" height="300">
<path d="M678.996 0H0.329529V300H678.996V0Z" fill="white"/>
</mask>
<g mask="url(#mask2_66_13)">
<path d="M323.758 124.1C318.961 124.1 314.717 127.531 314.067 132.205C313.21 138.388 318.978 143.764 325.305 142.767C330.918 141.881 334.679 136.26 333.144 130.929C331.982 126.863 328.037 124.1 323.758 124.1Z" fill="black"/>
</g>
<mask id="mask3_66_13" style="mask-type:luminance" maskUnits="userSpaceOnUse" x="0" y="0" width="679" height="300">
<path d="M678.996 0H0.329529V300H678.996V0Z" fill="white"/>
</mask>
<g mask="url(#mask3_66_13)">
<path d="M644.799 175.883C644.799 157.428 635.942 150.459 616.664 150.459C602.309 150.459 588.839 155.595 588.839 160.743C588.839 162.514 590.536 167.126 593.285 170.19C600.06 166.425 605.909 163.806 613.65 163.806C625.935 163.806 626.13 169.26 626.13 176.017C606.012 176.017 584.526 180.117 584.526 199.508C584.526 212.47 592.554 220.386 606.49 220.386C616.198 220.386 621.587 216.927 627.562 213.15C630.116 221.088 641.641 219.963 647.698 217.356C645.409 213.807 644.787 210.008 644.787 201.519L644.799 175.883ZM626.142 201.875C622.214 205.474 618.05 207.424 612.948 207.424C600.83 207.424 600.301 194.389 607.496 189.704C612.017 186.768 620.316 185.871 626.142 185.871V201.875Z" fill="black"/>
</g>
<mask id="mask4_66_13" style="mask-type:luminance" maskUnits="userSpaceOnUse" x="0" y="0" width="679" height="300">
<path d="M678.996 0H0.329529V300H678.996V0Z" fill="white"/>
</mask>
<g mask="url(#mask4_66_13)">
<path d="M457.336 175.883C457.336 157.428 448.485 150.459 429.207 150.459C414.852 150.459 401.377 155.595 401.377 160.743C401.377 162.514 403.073 167.126 405.828 170.19C412.603 166.425 418.452 163.806 426.193 163.806C438.478 163.806 438.674 169.26 438.674 176.017C418.556 176.017 397.069 180.117 397.069 199.508C397.069 212.47 405.092 220.386 419.033 220.386C428.741 220.386 434.13 216.927 440.1 213.15C442.659 221.088 454.185 219.963 460.241 217.356C457.952 213.807 457.331 210.008 457.331 201.519L457.336 175.883ZM438.685 201.875C434.757 205.474 430.593 207.424 425.492 207.424C413.374 207.424 412.845 194.389 420.04 189.704C424.56 186.768 432.859 185.871 438.685 185.871V201.875Z" fill="black"/>
</g>
<mask id="mask5_66_13" style="mask-type:luminance" maskUnits="userSpaceOnUse" x="0" y="0" width="679" height="300">
<path d="M678.996 0H0.329529V300H678.996V0Z" fill="white"/>
</mask>
<g mask="url(#mask5_66_13)">
<path d="M263.122 124.1H237.287V218.726C238.334 219.066 243.602 219.378 244.839 219.272C252.839 219.071 256.796 215.924 256.796 208.894V184.919H264.1C286.369 184.919 302.846 175.365 302.846 152.42C302.846 130.606 283.867 124.1 263.122 124.1ZM256.807 171.444V138.093C270.53 136.828 282.763 139.257 282.763 153.378C282.763 171.137 270.07 171.444 256.807 171.444Z" fill="black"/>
</g>
<mask id="mask6_66_13" style="mask-type:luminance" maskUnits="userSpaceOnUse" x="0" y="0" width="679" height="300">
<path d="M678.996 0H0.329529V300H678.996V0Z" fill="white"/>
</mask>
<g mask="url(#mask6_66_13)">
<path d="M333.495 208.883C333.495 215.924 329.538 219.06 321.538 219.266C320.301 219.378 315.039 219.055 313.986 218.715V162.263C313.986 155.217 317.943 152.08 325.943 151.874C327.18 151.763 332.448 152.092 333.495 152.42V208.883Z" fill="black"/>
</g>
<mask id="mask7_66_13" style="mask-type:luminance" maskUnits="userSpaceOnUse" x="0" y="0" width="679" height="300">
<path d="M678.996 0H0.329529V300H678.996V0Z" fill="white"/>
</mask>
<g mask="url(#mask7_66_13)">
<path d="M554.194 183.064C554.194 174.574 554.015 172.257 553.314 170.402C550.271 162.347 532.736 164.776 532.736 173.042V208.894C532.736 215.946 528.779 219.077 520.784 219.277C519.542 219.394 514.274 219.066 513.233 218.732V183.08C513.233 174.585 513.055 172.268 512.353 170.413C509.311 162.358 491.769 164.787 491.769 173.053V208.905C491.769 215.957 487.812 219.088 479.824 219.294C478.576 219.411 473.313 219.077 472.272 218.743V152.415C480.272 151.323 489.112 151.423 490.769 159.01C498.556 148.315 525.086 145.897 530.165 161.901C534.875 153.211 545.273 149.763 555.171 150.593C571.965 151.986 573.662 165.294 573.725 181.543L573.731 208.888C573.731 215.941 569.774 219.071 561.779 219.272C560.537 219.389 555.269 219.06 554.228 218.726V183.069L554.194 183.064Z" fill="black"/>
</g>
<mask id="mask8_66_13" style="mask-type:luminance" maskUnits="userSpaceOnUse" x="0" y="0" width="679" height="300">
<path d="M678.996 0H0.329529V300H678.996V0Z" fill="white"/>
</mask>
<g mask="url(#mask8_66_13)">
<path d="M348.523 218.726C349.569 219.066 354.837 219.378 356.074 219.283C364.085 219.071 368.031 215.924 368.031 208.894V175.348C368.031 168.056 379.321 162.932 389.115 170.903C391.513 167.031 393.848 160.921 393.848 157.339C393.848 149.624 377.009 146.231 367.168 158.949C365.356 151.651 356.195 151.183 348.523 152.426V218.726Z" fill="black"/>
</g>
<mask id="mask9_66_13" style="mask-type:luminance" maskUnits="userSpaceOnUse" x="0" y="0" width="679" height="300">
<path d="M678.996 0H0.329529V300H678.996V0Z" fill="white"/>
</mask>
<g mask="url(#mask9_66_13)">
<path d="M678.996 124.646C678.093 124.351 673.975 124.089 672.405 124.089C663.801 124.089 659.494 127.192 659.494 134.506V218.721C660.558 219.061 665.814 219.373 667.045 219.278C675.045 219.066 678.996 215.919 678.996 208.889V124.646Z" fill="black"/>
</g>
</svg>
