<svg width="357" height="95" viewBox="0 0 357 102" fill="none" xmlns="http://www.w3.org/2000/svg">
<path d="M184.419 99.8963C198.132 91.7901 217.641 67.6437 218 49.3364C214.832 49.9425 208.553 52.1338 206.23 58.901C204.894 62.7875 201.136 71.9695 187.297 71.1779C168.107 70.0812 170.889 46.5674 200.938 48.6981C215.139 49.7057 217.445 43.0844 217.445 42.198C214.333 43.1222 209.646 42.7359 205.242 42.395C178.168 40.2851 165.171 50.3327 165.171 61.8007C165.171 68.6854 172.076 74.4677 179.86 77.6875C184.001 79.3959 181.023 81.0682 177.946 79.6307C169.758 75.8011 160.197 70.7403 160.197 59.9541C160.197 41.9442 188.545 34.1201 195.204 30.9042C205.084 26.1294 209.844 22.188 207.436 15.1632C203.527 19.8281 193.925 23.904 186.759 26.3718C167.397 33.0425 152.22 42.7548 152.22 57.0184C152.22 68.2422 159.823 74.4071 168.958 79.1799C171.03 80.2614 168.835 81.7766 166.182 80.3921C151.644 72.7972 146.846 64.3879 146.846 53.5827C146.846 33.1656 186.564 14.7049 168.704 0C168.952 15.0136 139 28.1257 139 52.9634C139 64.1152 145.908 75.1836 165.168 83.9376C176.514 89.0968 178.122 95.0042 176.462 100.349C175.72 103.235 181.114 101.849 184.419 99.8963Z" fill="#FF4612"/>
</svg>
