<svg xmlns:inkscape="http://www.inkscape.org/namespaces/inkscape" xmlns:sodipodi="http://sodipodi.sourceforge.net/DTD/sodipodi-0.dtd" xmlns="http://www.w3.org/2000/svg" xmlns:svg="http://www.w3.org/2000/svg" version="1.1" id="svg2" width="630.26666" height="180.14667" viewBox="0 0 630.26666 180.14667" sodipodi:docname="pnb-housing-seeklogo.eps">
  <defs id="defs6"/>
  <sodipodi:namedview id="namedview4" pagecolor="#ffffff" bordercolor="#000000" borderopacity="0.25" inkscape:showpageshadow="2" inkscape:pageopacity="0.0" inkscape:pagecheckerboard="0" inkscape:deskcolor="#d1d1d1"/>
  <g id="g8" inkscape:groupmode="layer" inkscape:label="ink_ext_XXXXXX" transform="matrix(1.3333333,0,0,-1.3333333,0,180.14667)">
    <g id="g10" transform="scale(0.1)">
      <path d="m 3836.59,993.633 c 29.99,-0.211 53.2,18.217 53.87,42.757 0.7,25.75 -20.42,44.15 -51.36,44.73 -30.01,0.57 -53.7,-17.93 -54.17,-42.3 -0.47,-24.69 22.73,-44.988 51.66,-45.187 z m 50.81,-176.18 c 0.06,0 0.13,0 0.2,0 0,42.004 -0.35,84.016 0.22,126.012 0.17,11.773 -3.18,16.394 -15.47,15.976 -22.95,-0.781 -45.94,-0.546 -68.91,-0.082 -11.59,0.235 -16.32,-3.945 -16.28,-16.004 0.27,-84.011 0.19,-168.023 -0.19,-252.035 -0.05,-11.207 4.21,-15.168 15.06,-14.968 22.96,0.421 45.96,0.668 68.9,-0.082 12.97,-0.426 16.92,4.378 16.72,17.136 -0.67,41.34 -0.25,82.699 -0.25,124.047 z M 3646.92,965.18 c -30.82,2.133 -60.77,-5.903 -88.75,-22.075 -52.66,-30.441 -54.73,-97.906 -4.03,-130.765 13.85,-8.981 28.65,-15.645 44.42,-20.598 13.72,-4.304 27.21,-9.48 40.48,-15.054 10.24,-4.305 17.84,-11.204 15.69,-24.028 -2.23,-13.328 -11.76,-18.519 -23.62,-19.789 -20.99,-2.246 -41.8,-0.891 -62.5,3.996 -13.88,3.278 -29.44,16.395 -40.39,9.848 -11.72,-7.008 -9.2,-27.371 -14.89,-41.18 -5.1,-12.355 -0.54,-17.609 11.34,-21.281 43.97,-13.594 88.5,-18.414 133.94,-9.816 30.89,5.847 60.35,16.054 78.78,43.46 28.32,42.125 10.63,95.684 -38.45,117.278 -22.74,10.008 -46.71,17.187 -69.79,26.453 -10.01,4.012 -18.49,10.469 -16.57,23.621 1.78,12.164 11.27,15.168 20.96,17.633 17.04,4.324 33.86,0.012 50.79,-1.5 11.95,-1.067 24.9,-14.016 34.36,-5.324 8.07,7.41 9.1,22.484 13.22,34.175 0.43,1.231 0.67,2.536 1.11,3.766 3.87,10.84 0.06,17.035 -10.9,20.508 -24,7.601 -48.44,11.437 -75.2,10.672 z m -679.02,-0.129 c -5.9,0 -11.85,0.449 -17.7,-0.071 -62.25,-5.519 -114.55,-27.039 -142.68,-88.082 -28.62,-62.101 -10.4,-136.746 45.97,-174.992 57.02,-38.683 119.52,-39.996 182.7,-17.531 95.35,33.898 126.14,156.746 57.93,231.309 -33.49,36.613 -77.77,49.328 -126.22,49.367 z m 972.82,-146.219 c 0.62,0 1.23,0 1.85,0 0,-41.344 0.44,-82.691 -0.25,-124.023 -0.23,-13.907 4.75,-18.571 18.35,-17.996 20.31,0.855 40.72,0.996 61.01,-0.02 15.15,-0.758 20.74,3.953 20.42,19.887 -0.97,47.886 -0.6,95.804 -0.35,143.707 0.15,29.679 20.8,52.136 48.89,54.093 32,2.227 50.23,-12.253 55.82,-44.925 1.21,-7.051 1.23,-14.36 1.25,-21.555 0.14,-44.621 0.42,-89.25 -0.06,-133.867 -0.13,-12.203 2.87,-17.953 16.42,-17.371 22.27,0.953 44.62,0.539 66.93,0.203 10.27,-0.152 16.08,2.777 15.98,14.344 -0.47,55.765 1.04,111.601 -1.32,167.281 -1.98,46.84 -23.11,84.035 -70.13,99.355 -47.44,15.465 -91.91,8.211 -130.59,-25.418 -3.71,-3.23 -6.02,-10.547 -12.09,-8.226 -6.62,2.527 -5.37,10.121 -5.09,15.617 0.75,14.812 -6.24,19.465 -20.18,18.77 -15.71,-0.786 -31.55,-0.985 -47.22,0.132 -15.43,1.102 -20.49,-4.007 -20.03,-19.953 1.17,-39.98 0.39,-80.019 0.39,-120.035 z M 3378.25,713.797 c 6.68,-4.098 5.71,-9.266 5.73,-13.5 0.06,-19.52 9.58,-25.766 28.45,-23.641 14.9,1.676 30.15,0.766 45.22,0.278 11.24,-0.368 14.47,4.214 14.35,15.293 -0.89,82.636 -1.43,165.281 -1.41,247.925 0.01,13.493 -3.9,18.977 -17.89,18.407 -20.3,-0.825 -40.75,-1.223 -60.97,0.328 -17.12,1.312 -20.84,-5.348 -20.56,-21.196 0.89,-48.519 0.64,-97.074 0.1,-145.609 -0.32,-28.074 -19.05,-47.352 -47.58,-50.82 -27.91,-3.399 -47.26,10.355 -55.15,38.703 -2.51,9.023 -2.71,18.105 -2.72,27.289 -0.03,45.258 -0.39,90.523 0.18,135.773 0.15,12.086 -3.93,16.188 -15.8,15.821 -22.94,-0.711 -45.91,-0.547 -68.87,-0.336 -9.53,0.086 -15.02,-3.071 -14.78,-13.434 1.37,-59.648 -3.82,-119.504 2.38,-178.93 6.91,-66.21 58.77,-103.664 124.93,-95.16 33.89,4.356 62.3,17.68 84.39,42.809 z m 1229.2,102.031 c 0,40.649 -1.14,81.34 0.51,121.918 0.75,18.285 -5.32,23.027 -22.06,21.66 -14.33,-1.172 -28.89,-0.961 -43.26,-0.019 -13.17,0.863 -21.57,-2.117 -22.43,-17.098 -0.71,-12.449 -4.9,-12.305 -13.93,-4.367 -19.8,17.391 -43.3,26.34 -70.02,27.047 -98.22,2.597 -168.45,-79.75 -150.15,-176.399 10.98,-57.953 50.56,-98.058 108.5,-106.828 35.77,-5.414 70.85,-2.918 99.97,23.137 2.78,2.488 6.72,5 10.17,5.066 3.69,0.071 3.42,-4.297 3.73,-7.683 3.31,-35.188 -16.18,-65.203 -50.1,-75.289 -28.51,-8.481 -56.96,-4.192 -85.59,1 -14.29,2.593 -29.98,18.961 -41.1,8.547 -9.95,-9.332 -9.92,-28.93 -15.36,-43.606 -4.31,-11.609 -2.2,-17.965 10.38,-21.699 65.21,-19.356 130.57,-22.758 195.21,0.605 44,15.903 70.83,48.012 79.12,94.801 8.76,49.539 2.09,99.504 6.41,149.207 z M 2386.9,871.539 c 0,-59.051 0.31,-118.109 -0.24,-177.16 -0.12,-13.238 3.26,-18.981 17.57,-18.285 21.6,1.054 43.33,1.062 64.94,0.027 15.1,-0.723 19.04,5.332 18.8,19.539 -0.74,42.637 0.01,85.301 -0.54,127.945 -0.15,11.68 3.11,16.184 15.48,16.02 43.96,-0.586 87.93,-0.484 131.89,0.094 12.39,0.16 17.19,-2.86 16.97,-16.531 -0.7,-43.286 0.6,-86.598 0.17,-129.891 -0.13,-12.774 3.65,-17.754 16.7,-17.039 15.7,0.863 31.49,0.203 47.23,0.172 35.97,-0.067 36.07,-0.071 36.06,36.332 -0.02,110.89 -0.42,221.785 0.11,332.668 0.07,16.17 -4.49,22.21 -21.05,21.12 -20.26,-1.33 -40.7,-1.12 -60.99,-0.21 -13.52,0.61 -18.5,-3.61 -18.21,-17.63 0.78,-38.04 -0.19,-76.112 0.49,-114.159 0.24,-13.449 -3.81,-18.731 -17.85,-18.512 -43.3,0.684 -86.62,0.816 -129.92,-0.008 -14.64,-0.277 -17.36,5.699 -17.11,18.617 0.72,36.731 -0.38,73.502 0.67,110.222 0.45,15.74 -3.38,22.75 -20.48,21.64 -20.25,-1.31 -40.7,-1.07 -60.99,-0.07 -15.02,0.74 -20.4,-3.53 -20.11,-19.71 1.04,-58.378 0.41,-116.789 0.41,-175.191 z m -558.97,-80.168 c 0,30.844 0.92,61.719 -0.24,92.52 -1.36,36.144 -11.76,70.093 -34.94,98.281 -38.79,47.178 -91.21,64.578 -150.37,61.468 -87.76,-4.62 -163.35,-64.3 -165.16,-155.574 -1.28,-64.281 -0.08,-128.613 -0.53,-192.914 -0.1,-13.824 5.49,-18.382 18.8,-18.172 34.77,0.555 69.6,1.243 104.32,-0.195 19.79,-0.82 24.27,6.86 23.99,25.129 -0.93,59.699 -0.45,119.422 -0.2,179.137 0.08,18.844 11.05,30.914 27.52,31.617 18.13,0.77 29.9,-11.77 29.99,-33.305 0.27,-61.023 0.51,-122.054 -0.07,-183.074 -0.14,-14.316 3.92,-19.754 18.91,-19.387 37.38,0.914 74.81,0.645 112.21,0.153 11.82,-0.153 16.22,3.8 16,15.89 -0.62,32.801 -0.21,65.618 -0.23,98.426 z M 515.883,1250.3 C 303.727,1252.7 121.652,1080.76 118.184,862.43 114.594,636.27 292.355,456.16 515.066,455.535 733.465,454.922 913.121,632.902 914.203,850.949 915.301,1071.6 737.926,1249.43 515.883,1250.3 Z M 1032.03,712.934 c 0,-50.508 0.33,-101.02 -0.22,-151.52 -0.15,-13.445 4.01,-18.547 17.96,-18.238 35.41,0.789 70.84,0.179 106.26,0.281 24.01,0.07 24.96,1.07 24.99,26.004 0.09,90.516 0.08,181.035 0.18,271.555 0.01,7.859 -0.16,15.836 1.04,23.558 3.78,24.438 22.42,42.93 44.93,45.399 27.67,3.031 53.53,-9.629 62.9,-30.793 9.18,-20.742 4.3,-43.293 -14.02,-58.414 -16.93,-13.989 -36.55,-17.575 -57.12,-9.223 -12.88,5.227 -17.41,2.93 -17.12,-11.703 0.74,-36.719 0.89,-73.477 -0.04,-110.188 -0.4,-16.043 6.52,-19.418 20.94,-20.422 72.36,-5.054 131.66,19.754 180.05,73.661 42.13,46.937 55.32,126.726 28.57,183.972 -41.87,89.597 -146.92,134.837 -248.35,110.737 -96.84,-23.01 -151.71,-99.545 -150.96,-192.827 0.35,-43.945 0.06,-87.894 0.01,-131.839 z m 972.64,293.926 c -0.07,0 -0.14,0 -0.21,0 0,49.23 0.11,98.47 -0.12,147.69 -0.04,7.92 2.52,17.47 -12.03,17.08 -39.35,-1.06 -78.73,-1.56 -118.08,-0.93 -15.04,0.24 -18.94,-5.14 -18.86,-19.41 0.54,-99.77 -1.32,-199.587 1.15,-299.302 1.33,-53.582 22.56,-101.039 66.97,-134.207 47.29,-35.324 100.26,-50.98 160.18,-45.176 63.06,6.11 114.84,32.02 152.41,82.383 52.08,69.809 42.8,166.16 -19.15,228.071 -49.13,49.101 -107.91,69.461 -176.86,61.441 -10.25,-1.2 -14.89,-4.48 -14.73,-15.72 0.59,-38.717 0.4,-77.452 0.15,-116.178 -0.08,-11.352 2.8,-16.278 14.94,-10.93 5.88,2.59 12.56,4.023 19,4.566 29.51,2.496 52.51,-14.961 58.46,-43.824 4.75,-23.051 -10.35,-45.367 -37.09,-54.797 -40.1,-14.14 -74.91,10.582 -75.89,55.5 -1.05,47.895 -0.24,95.828 -0.24,143.743 z M 0,1351.05 c 165.355,-0.19 330.715,-0.53 496.07,-0.53 1404.41,-0.04 2808.82,-0.02 4213.23,0 5.89,0 11.78,0.35 17.68,0.53 0,-330.87 0,-661.737 0,-992.609 -46.6,-0.128 -93.21,-0.371 -139.81,-0.375 -1520.85,-0.027 -3041.71,-0.039 -4562.5645,0 -8.3946,0 -17.21878,-1.738 -24.6055,4.317 0,329.555 0,659.107 0,988.667" style="fill:#ae2223;fill-opacity:1;fill-rule:nonzero;stroke:none" id="path12"/>
      <path d="m 464.988,271.641 c 9.278,0.8 18.215,5.82 18.2,17.129 -0.02,11.941 -8.77,18.55 -20.645,18.429 -10.82,-0.121 -19.617,-5.84 -19.621,-17.148 -0.008,-11.973 8.004,-18.5 22.066,-18.41 z M 3575.26,271.32 c 12.56,0.739 20.75,5.641 20.38,18.84 -0.34,12.481 -9.39,16.449 -19.73,16.988 -12.53,0.653 -19.22,-6.226 -19.34,-18.898 -0.12,-13.031 8.99,-15.672 18.69,-16.93 z m -683.19,0.09 c 11.2,0.57 20.31,4.981 20.34,16.93 0.04,12.16 -7.91,18.879 -20.38,19.012 -12.61,0.117 -20.15,-5.993 -19.79,-18.93 0.35,-12.371 8.96,-16.402 19.83,-17.012 z m 668.24,-135.129 c 0,-24.222 -0.17,-48.4412 0.1,-72.6599 0.09,-7.9023 -3.01,-18.9219 10.56,-18.6914 11.16,0.1992 19.11,3.4414 18.82,18.3516 -0.95,48.4297 -0.55,96.8787 -0.22,145.3207 0.07,11.257 -3.05,16.82 -15.57,16.578 -12.04,-0.219 -13.91,-6.371 -13.79,-16.239 0.3,-24.211 0.1,-48.441 0.1,-72.66 z m -3083.173,-1.98 c 0.043,0 0.086,0 0.129,0 0,25.597 -0.305,51.199 0.132,76.789 0.207,11.941 -6.058,14 -16.113,13.969 -10.148,-0.028 -15.883,-2.379 -15.789,-14.231 0.399,-50.539 0.309,-101.078 0.067,-151.6171 -0.059,-12.4296 6.343,-15.2304 17.363,-15.5195 11.996,-0.3125 14.379,5.7695 14.289,15.7891 -0.231,24.9414 -0.078,49.8785 -0.078,74.8205 z m 2432.713,-7.41 c 0.55,0.007 1.1,0.007 1.66,0.007 0,26.18 0.29,52.364 -0.14,78.532 -0.19,11.55 -2.17,21.992 -18.07,22.25 -14.33,0.242 -17.43,-6.469 -17.64,-19.309 -0.84,-49.141 2.51,-98.32 -1.76,-147.4413 -0.98,-11.168 4.22,-18.0586 17.72,-17.2109 11.4,0.7109 18.89,2.2031 18.42,16.2617 -0.73,22.2812 -0.19,44.6095 -0.19,66.9105 z m 902.72,11.168 c 0,-11.821 -0.03,-23.637 0.01,-35.45 0.13,-43.8082 13.87,-57.4176 56.79,-55.8902 10.13,0.3593 22.95,-1.9493 22.39,14.4609 -0.55,16.1914 -13.28,8.8398 -20.85,9.1289 -17.7,0.6719 -26.81,8.4531 -26.7,26.5703 0.12,22.3201 -0.21,44.6411 -0.1,66.9611 0.05,11.781 -3.08,25.551 1.9,34.859 6.61,12.36 22.42,4.531 34.13,5.789 7.95,0.852 12.02,3.133 11.98,11.703 -0.03,7.887 -2.53,12.629 -11.09,12.571 -5.91,-0.032 -11.88,0.59 -17.72,-0.024 -13.96,-1.468 -21.47,2.973 -19.22,18.403 0.66,4.5 0.5,9.238 -0.1,13.757 -0.8,6.043 3.44,14.411 -4.67,17.442 -7.71,2.879 -16.31,-0.879 -22.37,-4.75 -8.19,-5.219 -4.64,-15.762 -4.21,-23.82 0.76,-14.508 -2.92,-23.051 -19.47,-21.129 -8.66,1 -15.39,-0.442 -15.42,-12.051 -0.02,-11.84 7.1,-12.68 15.57,-11.828 14.73,1.476 20,-5.121 19.28,-19.453 -0.79,-15.707 -0.18,-31.5 -0.13,-47.25 z M 1793.55,232.73 c -54.54,5.719 -103.23,-38.019 -101.25,-102.589 2.28,-74.2816 84.23,-102.0707 136.82,-76.5902 10.72,5.1992 12.69,14.2695 9.39,22.8476 -4.57,11.8907 -11.85,1.4922 -17.32,-0.6679 -33.12,-13.0703 -71.46,-3.4688 -85.95,21.9883 -16.43,28.8832 -14.91,62.1722 3.95,86.5432 18.09,23.386 46.65,30.226 82.06,19.879 6.22,-1.821 14.58,-8.653 17.56,2.839 2.29,8.879 1.8,17.918 -10.31,21.981 -11.6,3.891 -23.22,3.359 -34.95,3.769 z m 754.69,-60.3 c -0.02,0 -0.04,0 -0.07,0 0,-28.809 -0.13,-57.629 0.03,-86.4495 0.29,-49.4297 -4.4,-41.2617 41.67,-42.0508 28.81,-0.4883 57.64,0.0391 86.46,-0.1016 11.64,-0.0468 14.23,6.7227 13.96,16.6211 -0.29,10.3906 -4.83,12.3789 -15.1,11.8203 -24.82,-1.3476 -49.8,0.2813 -74.6,-1.1406 -16.68,-0.957 -21.04,4.9727 -20.82,21.082 0.86,61.5511 0.26,123.1171 0.5,184.6871 0.04,11.993 0.38,21.782 -16.59,22.114 -18.61,0.359 -15.33,-11.793 -15.38,-22.442 -0.16,-34.711 -0.06,-69.422 -0.06,-104.14 z M 121.559,171.109 c 0,-36.089 0.113,-72.1793 -0.071,-108.2692 -0.054,-11.0195 1.403,-19.6601 15.723,-18.9882 12.789,0.6093 16.605,7 16.309,19.0898 -0.625,25.5703 0.371,51.1876 -0.485,76.7576 -0.469,13.981 4.817,18.34 18.356,17.762 20.961,-0.902 41.988,-0.211 62.988,-0.242 8.937,-0.008 17.402,0.051 17.828,12.601 0.465,13.52 -8.711,14.602 -18.293,14.649 -21.644,0.133 -43.457,1.332 -64.883,-0.93 -13.605,-1.437 -16.004,3.16 -15.785,14.481 0.352,18.371 0.734,36.769 -0.109,55.109 -0.621,13.371 3.527,18.871 17.715,18.269 23.582,-0.976 47.234,-0.277 70.859,-0.226 9.059,0.027 18.848,-1.992 18.547,12.93 -0.274,13.398 -8.82,12.187 -17.442,12.187 -34.781,-0.008 -69.57,-0.418 -104.336,0.199 -12.835,0.223 -17.316,-4.297 -17.101,-17.117 0.605,-36.082 0.211,-72.172 0.18,-108.262 z m 579.316,31.36 c -1.687,2.301 -3.062,3.301 -3.035,4.269 0.359,14.832 -7.371,19.25 -21.192,18.09 -15.203,-1.277 -10.785,-12.398 -10.835,-20.59 -0.313,-47.218 0.035,-94.449 -0.29,-141.6677 -0.078,-11.4414 1.762,-18.8711 15.793,-18.8594 14.204,0 15.786,7.9805 15.739,19.0899 -0.125,31.4805 -0.629,62.9882 0.531,94.4372 1.004,27.114 26.305,48.032 55.055,47.532 26.672,-0.461 42.496,-17.61 43.011,-47.891 0.543,-32.129 0.543,-64.2774 0.207,-96.4102 -0.121,-11.5704 3.965,-16.7188 15.993,-16.6875 12.218,0.0195 15.906,5.7578 15.793,17.0078 C 827.277,96.8594 828.137,132.961 827,169 c -0.543,17.18 -6.418,33.172 -20.906,44.77 -30.52,24.449 -70.824,20.582 -105.219,-11.301 z m 646.255,-67.047 c 0,-24.262 0.25,-48.5236 -0.11,-72.7814 -0.16,-11.3515 1.89,-18.8515 15.87,-18.9218 14.16,-0.0782 15.92,7.6796 15.83,18.9023 -0.25,29.5078 -0.5,59.0269 0.13,88.5199 0.67,30.859 24.16,53.871 53.68,53.789 28.22,-0.078 44.29,-18.621 44.77,-52.539 0.44,-30.813 0.54,-61.641 0.23,-92.4496 -0.12,-11.8203 4.57,-16.3125 16.38,-16.2617 10.7,0.0391 15.49,3.3984 15.35,14.6719 -0.44,36.0586 0.93,72.1794 -0.66,108.1794 -1.89,42.899 -23.85,61.297 -67.13,62.129 -21.44,0.41 -38.05,-7.371 -52.59,-21.93 -2.65,-2.652 -5.69,-6.449 -9.94,-3.601 -1.55,1.031 -2.49,4.859 -1.9,6.871 4.34,14.609 -4.71,14.359 -14.91,14.941 -12.88,0.731 -15.41,-5.679 -15.19,-16.73 0.47,-24.262 0.14,-48.52 0.19,-72.789 z M 1133.48,73.8906 c -0.18,-14.6601 0.48,-24.789 17.23,-23.7109 18.14,1.1719 14.67,13.4414 14.78,23.9609 0.29,28.2114 0.94,56.4684 -0.22,84.6404 -1.08,26.289 -1.75,55.367 -31,67.09 -32.91,13.18 -66.91,10.719 -98.55,-6.543 -8.53,-4.648 -9.72,-15.148 -5.59,-22.719 4.69,-8.597 11.81,-0.769 16.79,1.813 15.63,8.117 31.97,10.898 49.41,10.418 18.25,-0.512 28.81,-9.41 34.78,-26.289 5.16,-14.582 1,-19.801 -14.26,-21.512 -27.18,-3.059 -55.16,-3.5 -80.24,-16.738 -32.92,-17.371 -36.32,-65.7815 -5.93,-86.9807 27.79,-19.3789 64.93,-18.9297 102.8,16.5703 z m 993.79,58.0704 c 15.72,0 31.44,-0.039 47.15,0.008 12.03,0.051 16.69,5.359 16.84,18.133 0.63,52.617 -29.42,83.359 -82.25,82.66 -46.6,-0.621 -81.6,-33.352 -87.63,-81.953 -6.35,-51.1293 18.04,-90.9301 64.15,-102.3871 28.83,-7.1719 57.07,-3.543 83.91,9.707 10.74,5.3125 11.61,15.4922 7.56,23.4492 -4.35,8.543 -11.9,0.3907 -16.62,-2.3086 -17.64,-10.0976 -36.65,-9.8789 -55.56,-8.1093 -26.02,2.4296 -45.06,21.9101 -49.11,46.1988 -2.19,13.102 2.97,17.52 14.63,15.653 18.94,-3.051 37.94,-1.883 56.93,-1.051 z m 2049.82,0.391 c 0,-0.743 0.01,-1.493 0.01,-2.231 17.04,0 34.09,-0.269 51.13,0.117 7.66,0.184 17.3,-0.359 17.46,11.032 0.59,43.582 -17.23,89.601 -72.6,91.39 -58.1,1.879 -89.34,-25.859 -97.25,-86.73 -4.88,-37.481 7.07,-68.5511 39.33,-89.6995 25.14,-16.4922 86.52,-14.4297 109.69,2.1914 8.63,6.1797 8.56,16.3164 6.16,22.9297 -3.55,9.8203 -10.73,0.3672 -16.14,-1.1719 -6.9,-1.9609 -13.37,-5.4805 -20.28,-7.3711 -39.09,-10.6797 -75.67,6.7305 -84.82,39.1404 -4.45,15.75 2.39,20.371 16.26,20.391 17.02,0.031 34.04,0.012 51.05,0.012 z m 399.78,70.597 c -41.88,43.102 -95.33,40.051 -130.81,-1.371 -21.53,-25.137 -19.08,-54.558 -18.13,-83.93 1.26,-38.9878 34.46,-71.7066 73.29,-73.6597 22.53,-1.1367 42.94,3.5625 60.55,18.1914 5.01,4.1601 10.6,8.1016 12.68,-1.9609 3.19,-15.3477 14.62,-13.0977 24.65,-11.5782 12.31,1.8789 9.15,12.7188 9.17,20.6485 0.25,75.4489 0.11,150.9099 0.35,226.3709 0.04,11.418 0.12,19.981 -15.91,20.16 -16.26,0.18 -16.06,-8.511 -15.94,-19.91 0.31,-29.25 0.1,-58.512 0.1,-92.961 z m -1453.01,-4.918 c 4.8,18.008 3.51,26.43 -12.01,27.039 -14.61,0.578 -17.63,-5.898 -17.41,-18.82 0.8,-47.109 0.77,-94.219 1.13,-141.3398 0.08,-9.7305 -1.77,-20.711 13.53,-20.9688 15.53,-0.25 18.17,9.2383 18.1,21.957 -0.18,30.1719 -0.78,60.3826 0.39,90.5116 1.36,35 28.7,54.18 61.84,44.809 18.66,-5.278 28.01,-18.18 28.56,-42.617 0.72,-32.133 0.36,-64.2817 0.31,-96.4223 -0.01,-9.8984 0.39,-19.2109 14.11,-18.0508 10.98,0.9297 17.88,4.6992 17.52,18.1524 -0.81,30.1484 0.26,60.3477 -0.17,90.5197 -0.24,16.558 7.49,29.328 18.53,39.719 13.96,13.152 31.48,16.492 49.35,9.218 16.55,-6.718 22.33,-21.679 22.64,-38.289 0.64,-34.75 0.66,-69.5271 0.44,-104.2888 -0.08,-13.0118 8.04,-14.6485 17.98,-15.3516 10.32,-0.7305 13.88,4.0898 13.78,13.9805 -0.39,38.6992 0.41,77.4299 -0.81,116.0899 -0.84,26.793 -19.99,49.262 -43.98,53.891 -28.93,5.589 -55.65,-1.27 -75.99,-22.098 -8.12,-8.313 -10.46,-6.781 -15.33,-0.082 -17.04,23.449 -41.11,25.84 -66.89,22.23 -16.99,-2.379 -28.16,-15.332 -45.62,-29.789 z M 0,362.383 c 7.38672,-6.055 16.2109,-4.317 24.6055,-4.317 1520.8545,-0.039 3041.7145,-0.027 4562.5645,0 46.6,0.004 93.21,0.247 139.81,0.375 0,-119.48 0,-238.961 0,-358.441 -6.49,0.539063 -12.97,1.55078 -19.45,1.55859 -112.25,0.08204 -224.52,1.32032 -336.75,-0.39062 -83.94,-1.277345 -167.87,0.20312 -251.8,-0.38672 -80.66,-0.582031 -161.46,2.20703 -242.1,0.28906 C 3779.73,-1.25 3682.68,2.17188 3585.59,1.80078 3405.78,1.12891 3225.97,1.89844 3046.16,1.62891 2928.78,1.46094 2811.4,0.109375 2694.02,0.0585938 2592.97,0.0117188 2491.9,2.17969 2390.85,1.30078 2293.12,0.441406 2195.37,0.671875 2097.67,0.769531 1975.62,0.890625 1853.54,1.14063 1731.47,1.46094 1650.82,1.67188 1570.17,-0.0390625 1489.52,0.0507813 1297.94,0.261719 1106.36,1.21094 914.777,1.51953 744.215,1.78906 573.656,1.58984 403.094,1.60156 296.813,1.60938 190.531,1.73828 84.2539,1.55859 56.168,1.51953 28.0859,0.550781 0,0 0,120.789 0,241.59 0,362.383" style="fill:#f2b00d;fill-opacity:1;fill-rule:nonzero;stroke:none" id="path14"/>
      <path d="m 2004.67,1006.86 c 0,-47.915 -0.81,-95.848 0.24,-143.743 0.98,-44.918 35.79,-69.64 75.89,-55.5 26.74,9.43 41.84,31.746 37.09,54.797 -5.95,28.863 -28.95,46.32 -58.46,43.824 -6.44,-0.543 -13.12,-1.976 -19,-4.566 -12.14,-5.348 -15.02,-0.422 -14.94,10.93 0.25,38.726 0.44,77.461 -0.15,116.178 -0.16,11.24 4.48,14.52 14.73,15.72 68.95,8.02 127.73,-12.34 176.86,-61.441 61.95,-61.911 71.23,-158.262 19.15,-228.071 -37.57,-50.363 -89.35,-76.273 -152.41,-82.383 -59.92,-5.804 -112.89,9.852 -160.18,45.176 -44.41,33.168 -65.64,80.625 -66.97,134.207 -2.47,99.715 -0.61,199.532 -1.15,299.302 -0.08,14.27 3.82,19.65 18.86,19.41 39.35,-0.63 78.73,-0.13 118.08,0.93 14.55,0.39 11.99,-9.16 12.03,-17.08 0.23,-49.22 0.12,-98.46 0.12,-147.69 0.07,0 0.14,0 0.21,0" style="fill:#f2b00d;fill-opacity:1;fill-rule:nonzero;stroke:none" id="path16"/>
      <path d="m 1032.05,712.934 c 0.03,43.945 0.32,87.894 -0.03,131.839 -0.75,93.282 54.12,169.817 150.96,192.827 101.43,24.1 206.48,-21.14 248.35,-110.737 26.75,-57.246 13.56,-137.035 -28.57,-183.972 -48.39,-53.907 -107.69,-78.715 -180.05,-73.661 -14.42,1.004 -21.34,4.379 -20.94,20.422 0.93,36.711 0.78,73.469 0.04,110.188 -0.29,14.633 4.24,16.93 17.12,11.703 20.57,-8.352 40.19,-4.766 57.12,9.223 18.32,15.121 23.2,37.672 14.02,58.414 -9.37,21.164 -35.23,33.824 -62.9,30.793 -22.51,-2.469 -41.15,-20.961 -44.93,-45.399 -1.2,-7.722 -1.03,-15.699 -1.04,-23.558 -0.1,-90.52 -0.09,-181.039 -0.18,-271.555 -0.03,-24.934 -0.98,-25.934 -24.99,-26.004 -35.42,-0.102 -70.85,0.508 -106.26,-0.281 -13.95,-0.309 -18.11,4.793 -17.96,18.238 0.55,50.5 0.22,101.012 0.24,151.52" style="fill:#f2b00d;fill-opacity:1;fill-rule:nonzero;stroke:none" id="path18"/>
      <path d="M 858.367,853.324 C 857.535,1044.45 704.074,1197.06 513.473,1196.31 325.672,1195.57 172.926,1040.97 173.449,852.172 173.973,663.016 326.984,510.762 515.832,511.477 706.984,512.199 859.188,664.098 858.367,853.324 Z M 515.883,1250.3 C 737.926,1249.43 915.301,1071.6 914.203,850.949 913.121,632.902 733.465,454.922 515.066,455.535 292.355,456.16 114.594,636.27 118.184,862.43 c 3.468,218.33 185.543,390.27 397.699,387.87" style="fill:#ffffff;fill-opacity:1;fill-rule:nonzero;stroke:none" id="path20"/>
      <path d="m 1827.94,791.371 c 0.01,-32.808 -0.4,-65.625 0.22,-98.426 0.22,-12.09 -4.18,-16.043 -16,-15.89 -37.4,0.492 -74.83,0.761 -112.21,-0.153 -14.99,-0.367 -19.05,5.071 -18.91,19.387 0.58,61.02 0.34,122.051 0.07,183.074 -0.09,21.535 -11.86,34.075 -29.99,33.305 -16.47,-0.703 -27.44,-12.773 -27.52,-31.617 -0.25,-59.715 -0.73,-119.438 0.2,-179.137 0.28,-18.269 -4.2,-25.949 -23.99,-25.129 -34.72,1.438 -69.55,0.75 -104.32,0.195 -13.31,-0.21 -18.9,4.348 -18.8,18.172 0.45,64.301 -0.75,128.633 0.53,192.914 1.81,91.274 77.4,150.954 165.16,155.574 59.16,3.11 111.58,-14.29 150.37,-61.468 23.18,-28.188 33.58,-62.137 34.94,-98.281 1.16,-30.801 0.24,-61.676 0.25,-92.52" style="fill:#f2b00d;fill-opacity:1;fill-rule:nonzero;stroke:none" id="path22"/>
      <path d="m 2386.9,871.539 c 0,58.402 0.63,116.813 -0.41,175.191 -0.29,16.18 5.09,20.45 20.11,19.71 20.29,-1 40.74,-1.24 60.99,0.07 17.1,1.11 20.93,-5.9 20.48,-21.64 -1.05,-36.72 0.05,-73.491 -0.67,-110.222 -0.25,-12.918 2.47,-18.894 17.11,-18.617 43.3,0.824 86.62,0.692 129.92,0.008 14.04,-0.219 18.09,5.063 17.85,18.512 -0.68,38.047 0.29,76.119 -0.49,114.159 -0.29,14.02 4.69,18.24 18.21,17.63 20.29,-0.91 40.73,-1.12 60.99,0.21 16.56,1.09 21.12,-4.95 21.05,-21.12 -0.53,-110.883 -0.13,-221.778 -0.11,-332.668 0.01,-36.403 -0.09,-36.399 -36.06,-36.332 -15.74,0.031 -31.53,0.691 -47.23,-0.172 -13.05,-0.715 -16.83,4.265 -16.7,17.039 0.43,43.293 -0.87,86.605 -0.17,129.891 0.22,13.671 -4.58,16.691 -16.97,16.531 -43.96,-0.578 -87.93,-0.68 -131.89,-0.094 -12.37,0.164 -15.63,-4.34 -15.48,-16.02 0.55,-42.644 -0.2,-85.308 0.54,-127.945 0.24,-14.207 -3.7,-20.262 -18.8,-19.539 -21.61,1.035 -43.34,1.027 -64.94,-0.027 -14.31,-0.696 -17.69,5.047 -17.57,18.285 0.55,59.051 0.24,118.109 0.24,177.16" style="fill:#ffffff;fill-opacity:1;fill-rule:nonzero;stroke:none" id="path24"/>
      <path d="m 4506.69,822.012 c 0,5.886 0.08,11.769 -0.01,17.652 -0.48,30.516 -15.06,51.711 -39.78,57.895 -29.48,7.379 -56.98,-4.379 -71.33,-31.34 -14.73,-27.66 -15.27,-56.61 -3.8,-85.25 10.89,-27.188 40.2,-42.141 68.54,-36.778 31.07,5.879 45.59,24.059 46.38,58.211 0.16,6.532 0.03,13.075 0,19.61 z m 100.76,-6.184 c -4.32,-49.703 2.35,-99.668 -6.41,-149.207 -8.29,-46.789 -35.12,-78.898 -79.12,-94.801 -64.64,-23.363 -130,-19.961 -195.21,-0.605 -12.58,3.734 -14.69,10.09 -10.38,21.699 5.44,14.676 5.41,34.274 15.36,43.606 11.12,10.414 26.81,-5.954 41.1,-8.547 28.63,-5.192 57.08,-9.481 85.59,-1 33.92,10.086 53.41,40.101 50.1,75.289 -0.31,3.386 -0.04,7.754 -3.73,7.683 -3.45,-0.066 -7.39,-2.578 -10.17,-5.066 -29.12,-26.055 -64.2,-28.551 -99.97,-23.137 -57.94,8.77 -97.52,48.875 -108.5,106.828 -18.3,96.649 51.93,178.996 150.15,176.399 26.72,-0.707 50.22,-9.656 70.02,-27.047 9.03,-7.938 13.22,-8.082 13.93,4.367 0.86,14.981 9.26,17.961 22.43,17.098 14.37,-0.942 28.93,-1.153 43.26,0.019 16.74,1.367 22.81,-3.375 22.06,-21.66 -1.65,-40.578 -0.51,-81.269 -0.51,-121.918" style="fill:#ffffff;fill-opacity:1;fill-rule:nonzero;stroke:none" id="path26"/>
      <path d="m 3378.25,713.797 c -22.09,-25.129 -50.5,-38.453 -84.39,-42.809 -66.16,-8.504 -118.02,28.95 -124.93,95.16 -6.2,59.426 -1.01,119.282 -2.38,178.93 -0.24,10.363 5.25,13.52 14.78,13.434 22.96,-0.211 45.93,-0.375 68.87,0.336 11.87,0.367 15.95,-3.735 15.8,-15.821 -0.57,-45.25 -0.21,-90.515 -0.18,-135.773 0.01,-9.184 0.21,-18.266 2.72,-27.289 7.89,-28.348 27.24,-42.102 55.15,-38.703 28.53,3.468 47.26,22.746 47.58,50.82 0.54,48.535 0.79,97.09 -0.1,145.609 -0.28,15.848 3.44,22.508 20.56,21.196 20.22,-1.551 40.67,-1.153 60.97,-0.328 13.99,0.57 17.9,-4.914 17.89,-18.407 -0.02,-82.644 0.52,-165.289 1.41,-247.925 0.12,-11.079 -3.11,-15.661 -14.35,-15.293 -15.07,0.488 -30.32,1.398 -45.22,-0.278 -18.87,-2.125 -28.39,4.121 -28.45,23.641 -0.02,4.234 0.95,9.402 -5.73,13.5" style="fill:#ffffff;fill-opacity:1;fill-rule:nonzero;stroke:none" id="path28"/>
      <path d="m 3940.72,818.832 c 0,40.016 0.78,80.055 -0.39,120.035 -0.46,15.946 4.6,21.055 20.03,19.953 15.67,-1.117 31.51,-0.918 47.22,-0.132 13.94,0.695 20.93,-3.958 20.18,-18.77 -0.28,-5.496 -1.53,-13.09 5.09,-15.617 6.07,-2.321 8.38,4.996 12.09,8.226 38.68,33.629 83.15,40.883 130.59,25.418 47.02,-15.32 68.15,-52.515 70.13,-99.355 2.36,-55.68 0.85,-111.516 1.32,-167.281 0.1,-11.567 -5.71,-14.496 -15.98,-14.344 -22.31,0.336 -44.66,0.75 -66.93,-0.203 -13.55,-0.582 -16.55,5.168 -16.42,17.371 0.48,44.617 0.2,89.246 0.06,133.867 -0.02,7.195 -0.04,14.504 -1.25,21.555 -5.59,32.672 -23.82,47.152 -55.82,44.925 -28.09,-1.957 -48.74,-24.414 -48.89,-54.093 -0.25,-47.903 -0.62,-95.821 0.35,-143.707 0.32,-15.934 -5.27,-20.645 -20.42,-19.887 -20.29,1.016 -40.7,0.875 -61.01,0.02 -13.6,-0.575 -18.58,4.089 -18.35,17.996 0.69,41.332 0.25,82.679 0.25,124.023 -0.62,0 -1.23,0 -1.85,0" style="fill:#ffffff;fill-opacity:1;fill-rule:nonzero;stroke:none" id="path30"/>
      <path d="m 2898.68,819.27 c -1.01,-13.207 0.63,-27.465 5.08,-41.321 8.61,-26.816 29.79,-43.969 55.67,-45.32 27.33,-1.43 48.61,11.453 59.6,38.949 12.36,30.93 12.92,62.742 -0.5,93.649 -12.35,28.429 -29.76,38.687 -60.03,37.527 -25.39,-0.973 -45.3,-16.871 -54.59,-43.516 -4.37,-12.531 -5.82,-25.453 -5.23,-39.968 z m 69.22,145.781 c 48.45,-0.039 92.73,-12.754 126.22,-49.367 68.21,-74.563 37.42,-197.411 -57.93,-231.309 -63.18,-22.465 -125.68,-21.152 -182.7,17.531 -56.37,38.246 -74.59,112.891 -45.97,174.992 28.13,61.043 80.43,82.563 142.68,88.082 5.85,0.52 11.8,0.071 17.7,0.071" style="fill:#ffffff;fill-opacity:1;fill-rule:nonzero;stroke:none" id="path32"/>
      <path d="m 3646.92,965.18 c 26.76,0.765 51.2,-3.071 75.2,-10.672 10.96,-3.473 14.77,-9.668 10.9,-20.508 -0.44,-1.23 -0.68,-2.535 -1.11,-3.766 -4.12,-11.691 -5.15,-26.765 -13.22,-34.175 -9.46,-8.692 -22.41,4.257 -34.36,5.324 -16.93,1.512 -33.75,5.824 -50.79,1.5 -9.69,-2.465 -19.18,-5.469 -20.96,-17.633 -1.92,-13.152 6.56,-19.609 16.57,-23.621 23.08,-9.266 47.05,-16.445 69.79,-26.453 49.08,-21.594 66.77,-75.153 38.45,-117.278 -18.43,-27.406 -47.89,-37.613 -78.78,-43.46 -45.44,-8.598 -89.97,-3.778 -133.94,9.816 -11.88,3.672 -16.44,8.926 -11.34,21.281 5.69,13.809 3.17,34.172 14.89,41.18 10.95,6.547 26.51,-6.57 40.39,-9.848 20.7,-4.887 41.51,-6.242 62.5,-3.996 11.86,1.27 21.39,6.461 23.62,19.789 2.15,12.824 -5.45,19.723 -15.69,24.028 -13.27,5.574 -26.76,10.75 -40.48,15.054 -15.77,4.953 -30.57,11.617 -44.42,20.598 -50.7,32.859 -48.63,100.324 4.03,130.765 27.98,16.172 57.93,24.208 88.75,22.075" style="fill:#ffffff;fill-opacity:1;fill-rule:nonzero;stroke:none" id="path34"/>
      <path d="m 3887.4,817.453 c 0,-41.348 -0.42,-82.707 0.25,-124.047 0.2,-12.758 -3.75,-17.562 -16.72,-17.136 -22.94,0.75 -45.94,0.503 -68.9,0.082 -10.85,-0.2 -15.11,3.761 -15.06,14.968 0.38,84.012 0.46,168.024 0.19,252.035 -0.04,12.059 4.69,16.239 16.28,16.004 22.97,-0.464 45.96,-0.699 68.91,0.082 12.29,0.418 15.64,-4.203 15.47,-15.976 -0.57,-41.996 -0.22,-84.008 -0.22,-126.012 -0.07,0 -0.14,0 -0.2,0" style="fill:#ffffff;fill-opacity:1;fill-rule:nonzero;stroke:none" id="path36"/>
      <path d="m 3836.59,993.633 c -28.93,0.199 -52.13,20.497 -51.66,45.187 0.47,24.37 24.16,42.87 54.17,42.3 30.94,-0.58 52.06,-18.98 51.36,-44.73 -0.67,-24.54 -23.88,-42.968 -53.87,-42.757" style="fill:#ffffff;fill-opacity:1;fill-rule:nonzero;stroke:none" id="path38"/>
      <path d="m 3123.86,198.031 c 17.46,14.457 28.63,27.41 45.62,29.789 25.78,3.61 49.85,1.219 66.89,-22.23 4.87,-6.699 7.21,-8.231 15.33,0.082 20.34,20.828 47.06,27.687 75.99,22.098 23.99,-4.629 43.14,-27.098 43.98,-53.891 1.22,-38.66 0.42,-77.3907 0.81,-116.0899 0.1,-9.8907 -3.46,-14.711 -13.78,-13.9805 -9.94,0.7031 -18.06,2.3398 -17.98,15.3516 0.22,34.7617 0.2,69.5388 -0.44,104.2888 -0.31,16.61 -6.09,31.571 -22.64,38.289 -17.87,7.274 -35.39,3.934 -49.35,-9.218 -11.04,-10.391 -18.77,-23.161 -18.53,-39.719 0.43,-30.172 -0.64,-60.3713 0.17,-90.5197 0.36,-13.4532 -6.54,-17.2227 -17.52,-18.1524 -13.72,-1.1601 -14.12,8.1524 -14.11,18.0508 0.05,32.1406 0.41,64.2893 -0.31,96.4223 -0.55,24.437 -9.9,37.339 -28.56,42.617 -33.14,9.371 -60.48,-9.809 -61.84,-44.809 -1.17,-30.129 -0.57,-60.3397 -0.39,-90.5116 0.07,-12.7187 -2.57,-22.207 -18.1,-21.957 -15.3,0.2578 -13.45,11.2383 -13.53,20.9688 -0.36,47.1208 -0.33,94.2308 -1.13,141.3398 -0.22,12.922 2.8,19.398 17.41,18.82 15.52,-0.609 16.81,-9.031 12.01,-27.039" style="fill:#ae2223;fill-opacity:1;fill-rule:nonzero;stroke:none" id="path40"/>
      <path d="m 4519.77,208.719 c -34.07,0.281 -59.91,-28.309 -60.37,-66.77 -0.53,-44.3474 21.17,-71.699 57.89,-71.2771 41.77,0.4883 58.82,26.6289 62.15,78.0191 2.11,32.489 -26.13,59.758 -59.67,60.028 z m 57.1,-5.77 c 0,34.449 0.21,63.711 -0.1,92.961 -0.12,11.399 -0.32,20.09 15.94,19.91 16.03,-0.179 15.95,-8.742 15.91,-20.16 -0.24,-75.461 -0.1,-150.922 -0.35,-226.3709 -0.02,-7.9297 3.14,-18.7696 -9.17,-20.6485 -10.03,-1.5195 -21.46,-3.7695 -24.65,11.5782 -2.08,10.0625 -7.67,6.121 -12.68,1.9609 -17.61,-14.6289 -38.02,-19.3281 -60.55,-18.1914 -38.83,1.9531 -72.03,34.6719 -73.29,73.6597 -0.95,29.372 -3.4,58.793 18.13,83.93 35.48,41.422 88.93,44.473 130.81,1.371" style="fill:#ae2223;fill-opacity:1;fill-rule:nonzero;stroke:none" id="path42"/>
      <path d="m 4158.83,157.25 c 0,-0.051 0,-0.102 0,-0.16 9.79,0 19.63,-0.66 29.34,0.211 7.72,0.699 18.64,-4.699 22.19,6.308 3.1,9.641 -0.44,19.5 -7.21,27.289 -13.64,15.711 -31.35,21.524 -51.18,16.762 -20.34,-4.879 -33.93,-18.531 -41.22,-38.301 -3.25,-8.828 0.4,-12.14 8.95,-12.121 13.04,0.043 26.09,0.012 39.13,0.012 z m 18.26,-24.898 c -17.01,0 -34.03,0.019 -51.05,-0.012 -13.87,-0.02 -20.71,-4.641 -16.26,-20.391 9.15,-32.4099 45.73,-49.8201 84.82,-39.1404 6.91,1.8906 13.38,5.4102 20.28,7.3711 5.41,1.5391 12.59,10.9922 16.14,1.1719 2.4,-6.6133 2.47,-16.75 -6.16,-22.9297 -23.17,-16.6211 -84.55,-18.6836 -109.69,-2.1914 -32.26,21.1484 -44.21,52.2185 -39.33,89.6995 7.91,60.871 39.15,88.609 97.25,86.73 55.37,-1.789 73.19,-47.808 72.6,-91.39 -0.16,-11.391 -9.8,-10.848 -17.46,-11.032 -17.04,-0.386 -34.09,-0.117 -51.13,-0.117 0,0.738 -0.01,1.488 -0.01,2.231" style="fill:#ae2223;fill-opacity:1;fill-rule:nonzero;stroke:none" id="path44"/>
      <path d="m 2106.8,157.301 c 0,-0.02 0,-0.039 0,-0.071 11.76,0 23.56,0.598 35.28,-0.14 16.68,-1.039 18.68,6.91 14.54,20.539 -6.57,21.621 -25.6,33.121 -52.25,30.871 -20.96,-1.77 -44.43,-22.82 -46.96,-41.16 -1.23,-8.981 3.73,-9.961 10.18,-10.012 13.07,-0.098 26.14,-0.027 39.21,-0.027 z m 20.47,-25.34 c -18.99,-0.832 -37.99,-2 -56.93,1.051 -11.66,1.867 -16.82,-2.551 -14.63,-15.653 4.05,-24.2887 23.09,-43.7692 49.11,-46.1988 18.91,-1.7696 37.92,-1.9883 55.56,8.1093 4.72,2.6993 12.27,10.8516 16.62,2.3086 4.05,-7.957 3.18,-18.1367 -7.56,-23.4492 -26.84,-13.25 -55.08,-16.8789 -83.91,-9.707 -46.11,11.457 -70.5,51.2578 -64.15,102.3871 6.03,48.601 41.03,81.332 87.63,81.953 52.83,0.699 82.88,-30.043 82.25,-82.66 -0.15,-12.774 -4.81,-18.082 -16.84,-18.133 -15.71,-0.047 -31.43,-0.008 -47.15,-0.008" style="fill:#ae2223;fill-opacity:1;fill-rule:nonzero;stroke:none" id="path46"/>
      <path d="m 1078.79,70.5391 c 33.99,-0.4493 58.01,24.1093 55.37,56.4729 -0.55,6.828 -0.81,13.976 -10.45,12.609 -17.98,-2.562 -36.15,-4.519 -53.75,-8.793 -20.97,-5.09 -29.49,-18.027 -26.11,-36.5467 3.55,-19.461 17.77,-23.9415 34.94,-23.7422 z m 54.69,3.3515 c -37.87,-35.5 -75.01,-35.9492 -102.8,-16.5703 -30.39,21.1992 -26.99,69.6097 5.93,86.9807 25.08,13.238 53.06,13.679 80.24,16.738 15.26,1.711 19.42,6.93 14.26,21.512 -5.97,16.879 -16.53,25.777 -34.78,26.289 -17.44,0.48 -33.78,-2.301 -49.41,-10.418 -4.98,-2.582 -12.1,-10.41 -16.79,-1.813 -4.13,7.571 -2.94,18.071 5.59,22.719 31.64,17.262 65.64,19.723 98.55,6.543 29.25,-11.723 29.92,-40.801 31,-67.09 1.16,-28.172 0.51,-56.429 0.22,-84.6404 -0.11,-10.5195 3.36,-22.789 -14.78,-23.9609 -16.75,-1.0781 -17.41,9.0508 -17.23,23.7109" style="fill:#ae2223;fill-opacity:1;fill-rule:nonzero;stroke:none" id="path48"/>
      <path d="m 1347.11,135.422 c -0.03,24.269 0.3,48.527 -0.17,72.789 -0.22,11.051 2.31,17.461 15.19,16.73 10.2,-0.582 19.25,-0.332 14.91,-14.941 -0.59,-2.012 0.35,-5.84 1.9,-6.871 4.25,-2.848 7.29,0.949 9.94,3.601 14.54,14.559 31.15,22.34 52.59,21.93 43.28,-0.832 65.24,-19.23 67.13,-62.129 1.59,-36 0.22,-72.1208 0.66,-108.1794 0.14,-11.2735 -4.65,-14.6328 -15.35,-14.6719 -11.81,-0.0508 -16.5,4.4414 -16.38,16.2617 0.31,30.8086 0.21,61.6366 -0.23,92.4496 -0.48,33.918 -16.55,52.461 -44.77,52.539 -29.52,0.082 -53.01,-22.93 -53.68,-53.789 -0.63,-29.493 -0.38,-59.0121 -0.13,-88.5199 0.09,-11.2227 -1.67,-18.9805 -15.83,-18.9023 -13.98,0.0703 -16.03,7.5703 -15.87,18.9218 0.36,24.2578 0.11,48.5194 0.09,72.7814" style="fill:#ae2223;fill-opacity:1;fill-rule:nonzero;stroke:none" id="path50"/>
      <path d="m 700.875,202.469 c 34.395,31.883 74.699,35.75 105.219,11.301 14.488,-11.598 20.363,-27.59 20.906,-44.77 1.137,-36.039 0.277,-72.1406 0.645,-108.2109 0.113,-11.25 -3.575,-16.9883 -15.793,-17.0078 -12.028,-0.0313 -16.114,5.1171 -15.993,16.6875 0.336,32.1328 0.336,64.2812 -0.207,96.4102 -0.515,30.281 -16.339,47.43 -43.011,47.891 -28.75,0.5 -54.051,-20.418 -55.055,-47.532 -1.16,-31.449 -0.656,-62.9567 -0.531,-94.4372 0.047,-11.1094 -1.535,-19.0899 -15.739,-19.0899 -14.031,-0.0117 -15.871,7.418 -15.793,18.8594 0.325,47.2187 -0.023,94.4497 0.29,141.6677 0.05,8.192 -4.368,19.313 10.835,20.59 13.821,1.16 21.551,-3.258 21.192,-18.09 -0.027,-0.968 1.348,-1.968 3.035,-4.269" style="fill:#ae2223;fill-opacity:1;fill-rule:nonzero;stroke:none" id="path52"/>
      <path d="m 121.574,171.109 c 0.016,36.09 0.41,72.18 -0.195,108.262 -0.215,12.82 4.266,17.34 17.101,17.117 34.766,-0.617 69.555,-0.207 104.336,-0.199 8.622,0 17.168,1.211 17.442,-12.187 0.301,-14.922 -9.488,-12.903 -18.547,-12.93 -23.625,-0.051 -47.277,-0.75 -70.859,0.226 -14.188,0.602 -18.336,-4.898 -17.715,-18.269 0.843,-18.34 0.461,-36.738 0.109,-55.109 -0.219,-11.321 2.18,-15.918 15.785,-14.481 21.426,2.262 43.239,1.063 64.883,0.93 9.582,-0.047 18.758,-1.129 18.293,-14.649 -0.426,-12.55 -8.891,-12.609 -17.828,-12.601 -21,0.031 -42.027,-0.66 -62.988,0.242 -13.539,0.578 -18.825,-3.781 -18.356,-17.762 0.856,-25.57 -0.14,-51.1873 0.485,-76.7576 0.296,-12.0898 -3.52,-18.4805 -16.309,-19.0898 -14.32,-0.6719 -15.777,7.9687 -15.723,18.9882 0.184,36.0899 0.071,72.1802 0.086,108.2692" style="fill:#ae2223;fill-opacity:1;fill-rule:nonzero;stroke:none" id="path54"/>
      <path d="m 2548.24,172.43 c 0,34.718 -0.1,69.429 0.06,104.14 0.05,10.649 -3.23,22.801 15.38,22.442 16.97,-0.332 16.63,-10.121 16.59,-22.114 -0.24,-61.57 0.36,-123.136 -0.5,-184.6871 -0.22,-16.1093 4.14,-22.039 20.82,-21.082 24.8,1.4219 49.78,-0.207 74.6,1.1406 10.27,0.5586 14.81,-1.4297 15.1,-11.8203 0.27,-9.8984 -2.32,-16.6679 -13.96,-16.6211 -28.82,0.1407 -57.65,-0.3867 -86.46,0.1016 -46.07,0.7891 -41.38,-7.3789 -41.67,42.0508 -0.16,28.8205 -0.03,57.6405 -0.03,86.4495 0.03,0 0.05,0 0.07,0" style="fill:#ae2223;fill-opacity:1;fill-rule:nonzero;stroke:none" id="path56"/>
      <path d="m 1793.56,232.738 c 11.72,-0.418 23.34,0.114 34.94,-3.777 12.11,-4.063 12.6,-13.102 10.31,-21.981 -2.98,-11.492 -11.34,-4.66 -17.56,-2.839 -35.41,10.347 -63.97,3.507 -82.06,-19.879 -18.86,-24.371 -20.38,-57.66 -3.95,-86.5432 14.49,-25.4571 52.83,-35.0586 85.95,-21.9883 5.47,2.1601 12.75,12.5586 17.32,0.6679 3.3,-8.5781 1.33,-17.6484 -9.39,-22.8476 -52.59,-25.4805 -134.54,2.3086 -136.82,76.5902 -1.98,64.57 46.71,108.308 101.26,102.597" style="fill:#ae2223;fill-opacity:1;fill-rule:nonzero;stroke:none" id="path58"/>
      <path d="m 3812.55,138.059 c -0.03,15.75 -0.64,31.543 0.15,47.25 0.72,14.332 -4.55,20.929 -19.28,19.453 -8.47,-0.852 -15.59,-0.012 -15.57,11.828 0.03,11.609 6.76,13.051 15.42,12.051 16.55,-1.922 20.23,6.621 19.47,21.129 -0.43,8.058 -3.98,18.601 4.21,23.82 6.06,3.871 14.66,7.629 22.37,4.75 8.11,-3.031 3.87,-11.399 4.67,-17.442 0.6,-4.519 0.76,-9.257 0.1,-13.757 -2.25,-15.43 5.26,-19.871 19.22,-18.403 5.84,0.614 11.81,-0.008 17.72,0.024 8.56,0.058 11.06,-4.684 11.09,-12.571 0.04,-8.57 -4.03,-10.851 -11.98,-11.703 -11.71,-1.258 -27.52,6.571 -34.13,-5.789 -4.98,-9.308 -1.85,-23.078 -1.9,-34.859 -0.11,-22.32 0.22,-44.641 0.1,-66.9611 -0.11,-18.1172 9,-25.8984 26.7,-26.5703 7.57,-0.2891 20.3,7.0625 20.85,-9.1289 0.56,-16.4102 -12.26,-14.1016 -22.39,-14.4609 -42.92,-1.5274 -56.66,12.082 -56.79,55.8902 -0.04,11.813 -0.01,23.629 -0.03,35.45" style="fill:#ae2223;fill-opacity:1;fill-rule:nonzero;stroke:none" id="path60"/>
      <path d="m 2909.85,126.891 c 0,-22.301 -0.54,-44.6293 0.19,-66.9105 0.47,-14.0586 -7.02,-15.5508 -18.42,-16.2617 -13.5,-0.8477 -18.7,6.0429 -17.72,17.2109 4.27,49.1213 0.92,98.3003 1.76,147.4413 0.21,12.84 3.31,19.551 17.64,19.309 15.9,-0.258 17.88,-10.7 18.07,-22.25 0.43,-26.168 0.14,-52.352 0.14,-78.532 -0.56,0 -1.11,0 -1.66,-0.007" style="fill:#ae2223;fill-opacity:1;fill-rule:nonzero;stroke:none" id="path62"/>
      <path d="m 477.137,134.301 c 0,-24.942 -0.153,-49.8791 0.078,-74.8205 0.09,-10.0196 -2.293,-16.1016 -14.289,-15.7891 -11.02,0.2891 -17.422,3.0899 -17.363,15.5195 0.242,50.5391 0.332,101.0781 -0.067,151.6171 -0.094,11.852 5.641,14.203 15.789,14.231 10.055,0.031 16.32,-2.028 16.113,-13.969 -0.437,-25.59 -0.132,-51.192 -0.132,-76.789 -0.043,0 -0.086,0 -0.129,0" style="fill:#ae2223;fill-opacity:1;fill-rule:nonzero;stroke:none" id="path64"/>
      <path d="m 3560.31,136.281 c 0,24.219 0.2,48.449 -0.1,72.66 -0.12,9.868 1.75,16.02 13.79,16.239 12.52,0.242 15.64,-5.321 15.57,-16.578 -0.33,-48.442 -0.73,-96.891 0.22,-145.3207 0.29,-14.9102 -7.66,-18.1524 -18.82,-18.3516 -13.57,-0.2305 -10.47,10.7891 -10.56,18.6914 -0.27,24.2187 -0.1,48.4379 -0.1,72.6599" style="fill:#ae2223;fill-opacity:1;fill-rule:nonzero;stroke:none" id="path66"/>
      <path d="m 2892.07,271.41 c -10.87,0.61 -19.48,4.641 -19.83,17.012 -0.36,12.937 7.18,19.047 19.79,18.93 12.47,-0.133 20.42,-6.852 20.38,-19.012 -0.03,-11.949 -9.14,-16.36 -20.34,-16.93" style="fill:#ae2223;fill-opacity:1;fill-rule:nonzero;stroke:none" id="path68"/>
      <path d="m 3575.26,271.32 c -9.7,1.258 -18.81,3.899 -18.69,16.93 0.12,12.672 6.81,19.551 19.34,18.898 10.34,-0.539 19.39,-4.507 19.73,-16.988 0.37,-13.199 -7.82,-18.101 -20.38,-18.84" style="fill:#ae2223;fill-opacity:1;fill-rule:nonzero;stroke:none" id="path70"/>
      <path d="m 464.988,271.641 c -14.062,-0.09 -22.074,6.437 -22.066,18.41 0.004,11.308 8.801,17.027 19.621,17.148 11.875,0.121 20.625,-6.488 20.645,-18.429 0.015,-11.309 -8.922,-16.329 -18.2,-17.129" style="fill:#ae2223;fill-opacity:1;fill-rule:nonzero;stroke:none" id="path72"/>
      <path d="m 587.223,849.41 c 0.187,39.746 -30.543,71.582 -69.512,72.02 -40.148,0.449 -73.02,-31.711 -72.719,-71.149 0.305,-39.086 30.668,-70.152 68.965,-70.554 42.313,-0.446 73.078,28.812 73.266,69.683 z M 299.367,980.566 c 46.121,0 86.403,-0.218 126.676,0.297 4.684,0.059 9.766,3.567 13.898,6.539 18.055,12.988 36.426,25.648 53.508,39.848 12.793,10.62 24.055,14.62 37.125,1.42 3.649,-3.69 7.934,-6.89 12.34,-9.65 18.809,-11.82 33.219,-34.77 54.629,-36.95 41.082,-4.179 82.895,-1.215 124.422,-1.215 0.984,3.043 -1.27,4.598 -3.391,6.071 -55.386,38.414 -110.75,76.864 -166.207,115.174 -38.656,26.7 -38.719,26.61 -77.847,-0.39 -3.231,-2.23 -6.504,-4.4 -9.735,-6.64 -53.609,-37.1 -107.215,-74.21 -165.418,-114.504 z M 696.613,792.777 c 0,51.828 -0.308,103.661 0.219,155.485 0.133,12.761 -3.965,17.664 -16.961,17.043 -18.332,-0.871 -36.785,-1.145 -55.086,-0.047 -15.367,0.922 -18.937,-5.59 -18.508,-19.637 0.844,-27.527 0.141,-55.101 0.102,-82.656 -0.012,-8.527 -0.625,-17.125 0.207,-25.574 4.359,-44.11 -38.133,-75.219 -72.734,-77.563 -69.649,-4.719 -112.196,34.395 -112.676,103.875 -0.121,17.715 0.097,35.442 -0.531,53.141 -1.649,46.59 -3.481,48.234 -49.125,48.207 -5.907,-0.004 -11.813,-0.192 -17.715,-0.09 -8.692,0.152 -11.547,-2.895 -8.977,-12.023 10.246,-36.391 11.063,-73.887 9.141,-111.133 -3.563,-68.938 59.34,-137.184 127.648,-152.133 37.457,-8.195 72.887,-3.692 105.914,16.312 12.657,7.668 16.832,4.219 16.231,-10.265 -0.848,-20.305 0.429,-40.696 -0.414,-60.996 -0.516,-12.325 4.246,-16.133 15.957,-15.739 19.004,0.637 38.086,0.922 57.062,-0.054 15.383,-0.789 20.746,4.773 20.524,20.332 -0.746,51.16 -0.282,102.34 -0.278,153.515 z m 161.754,60.547 C 859.188,664.098 706.984,512.199 515.832,511.477 326.984,510.762 173.973,663.016 173.449,852.172 c -0.523,188.798 152.223,343.398 340.024,344.138 190.601,0.75 344.062,-151.86 344.894,-342.986" style="fill:#ae2223;fill-opacity:1;fill-rule:nonzero;stroke:none" id="path74"/>
      <path d="m 4506.7,822.012 c 0.02,-6.535 0.15,-13.078 -0.01,-19.61 -0.79,-34.152 -15.31,-52.332 -46.38,-58.211 -28.34,-5.363 -57.65,9.59 -68.54,36.778 -11.47,28.64 -10.93,57.59 3.8,85.25 14.35,26.961 41.85,38.719 71.33,31.34 24.72,-6.184 39.3,-27.379 39.78,-57.895 0.09,-5.883 0.01,-11.766 0.02,-17.652" style="fill:#ae2223;fill-opacity:1;fill-rule:nonzero;stroke:none" id="path76"/>
      <path d="m 2898.68,819.27 c -0.59,14.515 0.86,27.437 5.23,39.968 9.29,26.645 29.2,42.543 54.59,43.516 30.27,1.16 47.68,-9.098 60.03,-37.527 13.42,-30.907 12.86,-62.719 0.5,-93.649 -10.99,-27.496 -32.27,-40.379 -59.6,-38.949 -25.88,1.351 -47.06,18.504 -55.67,45.32 -4.45,13.856 -6.09,28.114 -5.08,41.321" style="fill:#ae2223;fill-opacity:1;fill-rule:nonzero;stroke:none" id="path78"/>
      <path d="m 4519.77,208.719 c 33.54,-0.27 61.78,-27.539 59.67,-60.028 -3.33,-51.3902 -20.38,-77.5308 -62.15,-78.0191 -36.72,-0.4219 -58.42,26.9297 -57.89,71.2771 0.46,38.461 26.3,67.051 60.37,66.77" style="fill:#f2b00d;fill-opacity:1;fill-rule:nonzero;stroke:none" id="path80"/>
      <path d="m 4158.83,157.25 c -13.04,0 -26.09,0.031 -39.13,-0.012 -8.55,-0.019 -12.2,3.293 -8.95,12.121 7.29,19.77 20.88,33.422 41.22,38.301 19.83,4.762 37.54,-1.051 51.18,-16.762 6.77,-7.789 10.31,-17.648 7.21,-27.289 -3.55,-11.007 -14.47,-5.609 -22.19,-6.308 -9.71,-0.871 -19.55,-0.211 -29.34,-0.211 0,0.058 0,0.109 0,0.16" style="fill:#f2b00d;fill-opacity:1;fill-rule:nonzero;stroke:none" id="path82"/>
      <path d="m 2106.8,157.301 c -13.07,0 -26.14,-0.071 -39.21,0.027 -6.45,0.051 -11.41,1.031 -10.18,10.012 2.53,18.34 26,39.39 46.96,41.16 26.65,2.25 45.68,-9.25 52.25,-30.871 4.14,-13.629 2.14,-21.578 -14.54,-20.539 -11.72,0.738 -23.52,0.14 -35.28,0.14 0,0.032 0,0.051 0,0.071" style="fill:#f2b00d;fill-opacity:1;fill-rule:nonzero;stroke:none" id="path84"/>
      <path d="m 1078.79,70.5508 c -17.17,-0.211 -31.39,4.2695 -34.94,23.7305 -3.38,18.5197 5.14,31.4567 26.11,36.5467 17.6,4.274 35.77,6.231 53.75,8.793 9.64,1.367 9.9,-5.781 10.45,-12.609 2.64,-32.3636 -21.38,-56.9222 -55.37,-56.4612" style="fill:#f2b00d;fill-opacity:1;fill-rule:nonzero;stroke:none" id="path86"/>
      <path d="m 696.609,792.777 c 0,-51.175 -0.464,-102.355 0.282,-153.515 0.222,-15.559 -5.141,-21.121 -20.524,-20.332 -18.976,0.976 -38.058,0.691 -57.062,0.054 -11.711,-0.394 -16.473,3.414 -15.957,15.739 0.843,20.3 -0.434,40.691 0.414,60.996 0.601,14.484 -3.574,17.933 -16.231,10.265 -33.027,-20.004 -68.457,-24.507 -105.914,-16.312 -68.308,14.949 -131.211,83.195 -127.648,152.133 1.922,37.246 1.105,74.742 -9.141,111.133 -2.57,9.128 0.285,12.175 8.977,12.023 5.902,-0.102 11.808,0.086 17.715,0.09 45.644,0.027 47.476,-1.617 49.125,-48.207 0.628,-17.699 0.41,-35.426 0.531,-53.141 0.48,-69.48 43.027,-108.594 112.676,-103.875 34.601,2.344 77.093,33.453 72.734,77.563 -0.832,8.449 -0.219,17.047 -0.207,25.574 0.039,27.555 0.742,55.129 -0.102,82.656 -0.429,14.047 3.141,20.559 18.508,19.637 18.301,-1.098 36.754,-0.824 55.086,0.047 12.996,0.621 17.094,-4.282 16.961,-17.043 -0.527,-51.824 -0.219,-103.657 -0.223,-155.485" style="fill:#f2b00d;fill-opacity:1;fill-rule:nonzero;stroke:none" id="path88"/>
      <path d="m 299.367,980.566 c 58.203,40.294 111.809,77.404 165.418,114.504 3.231,2.24 6.504,4.41 9.735,6.64 39.128,27 39.191,27.09 77.847,0.39 55.457,-38.31 110.821,-76.76 166.207,-115.174 2.121,-1.473 4.375,-3.028 3.391,-6.071 -41.527,0 -83.34,-2.964 -124.422,1.215 -21.41,2.18 -35.82,25.13 -54.629,36.95 -4.406,2.76 -8.691,5.96 -12.34,9.65 -13.07,13.2 -24.332,9.2 -37.125,-1.42 -17.082,-14.2 -35.453,-26.86 -53.508,-39.848 -4.132,-2.972 -9.214,-6.48 -13.898,-6.539 -40.273,-0.515 -80.555,-0.297 -126.676,-0.297" style="fill:#f2b00d;fill-opacity:1;fill-rule:nonzero;stroke:none" id="path90"/>
      <path d="m 587.223,849.41 c -0.188,-40.871 -30.953,-70.129 -73.266,-69.683 -38.297,0.402 -68.66,31.468 -68.965,70.554 -0.301,39.438 32.571,71.598 72.719,71.149 38.969,-0.438 69.699,-32.274 69.512,-72.02" style="fill:#f2b00d;fill-opacity:1;fill-rule:nonzero;stroke:none" id="path92"/>
    </g>
  </g>
</svg>