<svg width="680" height="630" viewBox="0 0 680 630" fill="none" xmlns="http://www.w3.org/2000/svg">
<path fill-rule="evenodd" clip-rule="evenodd" d="M0.420959 0H679.087V630H0.420959V0Z" fill="#008739"/>
<path fill-rule="evenodd" clip-rule="evenodd" d="M339.754 37.3545C478.136 37.3545 590.373 139.937 590.373 266.479C590.373 392.965 478.136 495.575 339.754 495.575C201.372 495.575 89.1355 392.965 89.1355 266.479C89.1355 139.937 201.372 37.3545 339.754 37.3545Z" fill="white"/>
<path fill-rule="evenodd" clip-rule="evenodd" d="M374.115 362.721C384.705 361.35 393.202 368.861 394.482 377.143C395.982 386.939 387.985 395.106 378.864 396.192C367.649 397.505 359.121 390.166 357.934 381.713C356.498 371.346 364.557 363.949 374.115 362.721ZM348.969 110.721C349.25 108.437 355.81 101.04 357.216 99.5548C359.996 96.5848 364.182 93.272 368.118 90.9587C372.147 88.5598 376.771 86.4751 382.144 85.247C391.577 83.0766 393.452 84.5045 400.886 84.5331C400.949 81.7058 401.417 71.0535 400.667 69.2829C393.639 66.2557 375.615 66.5698 367.368 67.9692C357.466 69.6827 347.97 73.0811 340.223 77.0508C324.417 85.1043 307.298 99.7548 294.897 111.949C292.054 114.748 283.558 123.687 281.309 124.972C273.312 129.513 266.127 134.767 260.505 139.908C240.731 158.014 228.018 183.717 228.018 212.018V415.583C228.018 426.778 227.674 438.401 228.049 449.539H286.619C287.025 439.115 286.65 427.977 286.65 417.468V226.469C286.65 216.273 285.682 205.792 288.806 196.882C301.051 161.584 349.969 152.902 376.24 178.062C387.173 188.543 395.388 206.364 388.485 226.069C383.487 240.348 369.461 253.713 353.124 257.369L352.936 202.451L296.022 202.508C295.303 205.907 295.897 217.501 295.897 221.757V357.466C295.897 369.604 294.96 383.226 297.896 394.535C305.33 423.151 331.008 443.713 366.587 447.968C415.255 453.794 456.301 416.04 451.335 372.403C447.742 340.674 421.003 316.599 390.546 311.659C373.741 308.917 367.899 310.83 353.155 313.629C353.093 311.43 353.061 311.687 355.654 311.373C383.737 307.889 410.195 292.153 426.751 272.391C441.432 254.799 449.648 232.495 449.148 209.505C448.023 157.471 403.447 114.976 348.969 110.721Z" fill="#CEA353"/>
<path d="M251.571 541.354L247.166 534.586H201.497L205.87 541.354H212.149V555.919C212.149 561.774 221.739 567 226.05 567C228.236 567 231.953 565.715 233.953 563.773L233.859 572.54L241.856 577.624V541.354H251.571ZM220.271 541.354H233.796V554.863C229.829 559.032 225.081 561.374 222.77 561.374C221.208 561.374 220.239 560.574 220.239 558.804V541.354H220.271ZM270.907 541.354L266.502 534.586H257.881C256.475 522.049 249.79 516.337 241.793 516.337C235.546 516.337 230.704 520.278 230.704 524.705C230.704 526.704 232.016 529.303 233.672 530.902L238.42 530.445C238.263 529.331 238.263 528.589 238.263 527.875C238.263 524.905 240.887 522.477 244.605 522.477C249.54 522.477 254.007 527.389 254.195 534.615H241.793L246.167 541.383H252.414V572.569L260.255 577.652V541.383H270.907V541.354ZM282.34 575.453L275.655 569.313L269.032 575.368L275.717 581.508L282.34 575.453ZM320.793 561.831V541.326H332.32L327.915 534.558H281.621L286.026 541.326H292.367V563.344C292.367 564.972 292.898 566.429 295.616 568.085C297.302 569.142 317.544 579.908 319.825 581.279C321.324 582.165 322.136 583.393 322.136 584.563C322.136 585.192 321.324 586.991 320.699 587.791L328.009 592.617C329.352 591.446 331.476 588.276 331.476 586.448C331.476 584.278 329.789 582.422 327.572 581.222L307.861 570.256C301.082 566.457 300.489 564.458 300.489 562.545V541.326H312.702V556.605C312.702 559.518 311.734 560.546 309.704 560.546C308.454 560.546 307.142 560.289 306.205 560.203L309.61 565.515C312.171 566.429 314.983 566.971 316.67 566.971C319.481 567 320.793 565.915 320.793 561.831ZM364.432 561.431V572.54L372.335 577.624V541.354H381.144L376.739 534.586H323.386L327.79 541.354H340.566V553.263C340.566 553.806 340.379 554.206 340.129 554.206C339.161 554.206 337.161 551.893 335.287 551.893C333.788 551.893 331.945 553.178 331.945 554.691C331.945 556.862 334.319 560.403 335.818 562.259L350.406 579.794L353.842 576.881C349.188 572.397 345.752 569.228 342.253 564.658C343.909 563.373 346.533 561.574 348.282 558.946C350.594 560.803 353.311 562.973 356.404 562.973C359.403 562.945 361.589 562.802 364.432 561.431ZM364.244 541.354V553.72C363.557 554.691 356.622 556.233 355.185 556.233C352.874 556.233 351.218 556.148 348.657 555.434V541.354H364.244ZM392.296 575.453L385.58 569.313L378.988 575.368L385.673 581.508L392.296 575.453ZM429.625 565.801L429.5 572.54L437.528 577.624V541.354H446.305L441.932 534.586H392.108L396.513 541.354H429.406V551.635H428.969C425.189 546.409 421.222 544.81 414.63 544.81C405.384 544.81 400.199 550.036 400.199 555.434C400.199 562.031 406.103 569.913 416.38 569.913C421.503 569.884 424.939 568.856 429.625 565.801ZM421.94 561.917L415.099 551.236C416.598 550.665 418.816 550.436 420.003 550.436C423.971 550.436 426.782 552.607 426.782 555.177C426.782 557.833 424.876 560.403 421.94 561.917ZM411.413 552.835L418.348 563.687C416.692 564.315 414.662 564.744 413.006 564.744C408.32 564.744 406.384 562.488 406.384 559.66C406.384 557.347 408.508 554.034 411.413 552.835ZM466.579 541.354L462.174 534.586H453.552C452.147 522.049 445.462 516.337 437.465 516.337C431.218 516.337 426.376 520.278 426.376 524.705C426.376 526.704 427.688 529.303 429.375 530.902L434.123 530.445C433.935 529.331 433.935 528.589 433.935 527.875C433.935 524.905 436.59 522.477 440.276 522.477C445.212 522.477 449.679 527.389 449.898 534.615H437.496L441.87 541.383H448.117V572.569L455.958 577.652V541.383H466.579V541.354ZM478.011 575.453L471.295 569.313L464.704 575.368L471.42 581.508L478.011 575.453Z" fill="white"/>
</svg>
