<svg width="679" height="150" viewBox="0 0 679 150" fill="none" xmlns="http://www.w3.org/2000/svg">
<path d="M678.996 0H0.329529V149.872H678.996V0Z" fill="#A21C39"/>
<mask id="mask0_61_382" style="mask-type:luminance" maskUnits="userSpaceOnUse" x="0" y="0" width="679" height="150">
<path d="M678.996 0.12793H0.329529V150H678.996V0.12793Z" fill="white"/>
</mask>
<g mask="url(#mask0_61_382)">
<path d="M173.163 77.3658C180.629 77.3658 186.737 84.2712 186.737 92.8389C186.737 103.325 177.688 110.102 169.091 106.905V100C173.842 103.197 179.95 99.8722 179.95 93.4783C179.95 88.8747 176.67 85.1663 172.711 85.1663C168.752 85.1663 165.472 88.8747 165.472 93.4783C165.472 102.941 165.245 112.532 165.245 122.123H159.59V92.9668L159.703 91.5602C159.816 83.7597 165.924 77.4937 173.163 77.3658Z" fill="white"/>
</g>
<mask id="mask1_61_382" style="mask-type:luminance" maskUnits="userSpaceOnUse" x="0" y="0" width="679" height="150">
<path d="M678.996 0.12793H0.329529V150H678.996V0.12793Z" fill="white"/>
</mask>
<g mask="url(#mask1_61_382)">
<path d="M188.773 78.7723H194.767V93.9897C194.315 102.941 206.757 103.581 206.418 93.9897V78.7723H212.413V94.3734C213.091 113.811 187.981 112.404 188.886 94.3734V78.7723" fill="white"/>
</g>
<mask id="mask2_61_382" style="mask-type:luminance" maskUnits="userSpaceOnUse" x="0" y="0" width="679" height="150">
<path d="M678.996 0.12793H0.329529V150H678.996V0.12793Z" fill="white"/>
</mask>
<g mask="url(#mask2_61_382)">
<path d="M215.58 107.545H221.575V92.3273C221.122 83.3759 233.565 82.7365 233.225 92.3273V107.545H239.22V91.9437C239.786 72.5064 214.675 73.7852 215.58 91.9437V107.545Z" fill="white"/>
</g>
<mask id="mask3_61_382" style="mask-type:luminance" maskUnits="userSpaceOnUse" x="0" y="0" width="679" height="150">
<path d="M678.996 0.12793H0.329529V150H678.996V0.12793Z" fill="white"/>
</mask>
<g mask="url(#mask3_61_382)">
<path d="M297.585 108.696C305.051 108.696 311.159 101.662 311.159 93.0947C311.159 82.6088 302.11 75.8313 293.513 79.0282V86.0614C298.151 82.8645 304.372 86.1893 304.372 92.5832C304.372 97.1868 301.092 100.895 297.133 100.895C293.174 100.895 289.894 97.1868 289.894 92.5832C289.894 82.9924 289.668 73.5294 289.668 63.9387H284.012V93.0947L284.125 94.5013C284.351 102.302 290.346 108.568 297.585 108.696Z" fill="white"/>
</g>
<mask id="mask4_61_382" style="mask-type:luminance" maskUnits="userSpaceOnUse" x="0" y="0" width="679" height="150">
<path d="M678.996 0.12793H0.329529V150H678.996V0.12793Z" fill="white"/>
</mask>
<g mask="url(#mask4_61_382)">
<path d="M240.804 85.6777V78.7723H252.68V106.905C252.793 115.601 247.364 122.378 239.673 123.146V116.88C243.518 115.089 246.459 112.66 246.572 106.777V85.6777H240.804Z" fill="white"/>
</g>
<mask id="mask5_61_382" style="mask-type:luminance" maskUnits="userSpaceOnUse" x="0" y="0" width="679" height="150">
<path d="M678.996 0.12793H0.329529V150H678.996V0.12793Z" fill="white"/>
</mask>
<g mask="url(#mask5_61_382)">
<path d="M254.716 95.0128C254.151 86.8287 259.467 80.9463 264.557 79.2839C271.796 76.8542 280.845 81.0742 281.184 92.711V107.289H275.642L275.755 92.4553C275.416 85.6778 266.367 82.8645 262.521 89.2583C261.051 92.5831 260.598 97.8261 264.896 100.512C266.932 101.407 269.308 101.79 272.135 101.151V107.417C267.611 108.951 263.087 108.568 258.562 103.964C256.3 101.407 255.282 98.4655 254.716 95.0128Z" fill="white"/>
</g>
<mask id="mask6_61_382" style="mask-type:luminance" maskUnits="userSpaceOnUse" x="0" y="0" width="679" height="150">
<path d="M678.996 0.12793H0.329529V150H678.996V0.12793Z" fill="white"/>
</mask>
<g mask="url(#mask6_61_382)">
<path d="M320.321 107.545H326.316V92.3273C325.863 83.3759 338.192 82.7365 337.966 92.3273V107.545H343.961V91.9437C344.64 72.5064 319.529 73.7852 320.434 91.9437V107.545" fill="white"/>
</g>
<mask id="mask7_61_382" style="mask-type:luminance" maskUnits="userSpaceOnUse" x="0" y="0" width="679" height="150">
<path d="M678.996 0.12793H0.329529V150H678.996V0.12793Z" fill="white"/>
</mask>
<g mask="url(#mask7_61_382)">
<path d="M346.563 95.0128C345.884 86.8287 351.313 80.9463 356.403 79.2839C363.642 76.8542 372.804 81.0742 373.031 92.711V107.289H367.488L367.601 92.4553C367.262 85.6778 358.1 82.8645 354.367 89.2583C352.784 92.5831 352.444 97.8261 356.743 100.512C358.778 101.407 361.041 101.79 363.869 101.151V107.417C359.344 108.951 354.82 108.568 350.408 103.964C348.146 101.407 347.128 98.4655 346.563 95.0128Z" fill="white"/>
</g>
<mask id="mask8_61_382" style="mask-type:luminance" maskUnits="userSpaceOnUse" x="0" y="0" width="679" height="150">
<path d="M678.996 0.12793H0.329529V150H678.996V0.12793Z" fill="white"/>
</mask>
<g mask="url(#mask8_61_382)">
<path d="M430.83 107.545H436.825V92.3273C436.486 83.3759 448.815 82.7365 448.476 92.3273V107.545H454.471V91.9437C455.036 72.5064 429.925 73.7852 430.83 91.9437V107.545Z" fill="white"/>
</g>
<mask id="mask9_61_382" style="mask-type:luminance" maskUnits="userSpaceOnUse" x="0" y="0" width="679" height="150">
<path d="M678.996 0.12793H0.329529V150H678.996V0.12793Z" fill="white"/>
</mask>
<g mask="url(#mask9_61_382)">
<path d="M457.185 95.0128C456.506 86.8287 461.936 80.9463 467.026 79.2839C474.265 76.8542 483.314 81.0742 483.653 92.711V107.289H478.111L478.224 92.4553C477.884 85.6778 468.722 82.8645 464.99 89.2583C463.406 92.5831 463.067 97.8261 467.365 100.512C469.401 101.407 471.663 101.79 474.491 101.151V107.417C469.967 108.951 465.442 108.568 460.918 103.964C458.656 101.407 457.638 98.4655 457.185 95.0128Z" fill="white"/>
</g>
<mask id="mask10_61_382" style="mask-type:luminance" maskUnits="userSpaceOnUse" x="0" y="0" width="679" height="150">
<path d="M678.996 0.12793H0.329529V150H678.996V0.12793Z" fill="white"/>
</mask>
<g mask="url(#mask10_61_382)">
<path d="M396.218 64.7059C398.82 64.7059 400.856 67.1356 400.856 70.0767C400.856 73.0179 398.82 75.4475 396.218 75.4475C393.504 75.4475 391.468 73.0179 391.468 70.0767C391.468 67.1356 393.617 64.7059 396.218 64.7059Z" fill="white"/>
</g>
<mask id="mask11_61_382" style="mask-type:luminance" maskUnits="userSpaceOnUse" x="0" y="0" width="679" height="150">
<path d="M678.996 0.12793H0.329529V150H678.996V0.12793Z" fill="white"/>
</mask>
<g mask="url(#mask11_61_382)">
<path d="M399.838 79.0282H393.164V107.673H399.838V79.0282Z" fill="white"/>
</g>
<mask id="mask12_61_382" style="mask-type:luminance" maskUnits="userSpaceOnUse" x="0" y="0" width="679" height="150">
<path d="M678.996 0.12793H0.329529V150H678.996V0.12793Z" fill="white"/>
</mask>
<g mask="url(#mask12_61_382)">
<path d="M376.311 69.0538H382.758V79.1561H390.563V86.0615H382.758V90.7929C382.532 99.2328 384.794 101.023 390.223 102.558V108.184C379.93 109.207 376.311 102.174 376.424 90.7929V69.0538" fill="white"/>
</g>
<mask id="mask13_61_382" style="mask-type:luminance" maskUnits="userSpaceOnUse" x="0" y="0" width="679" height="150">
<path d="M678.996 0.12793H0.329529V150H678.996V0.12793Z" fill="white"/>
</mask>
<g mask="url(#mask13_61_382)">
<path d="M415.447 78.9002C408.208 78.9002 402.213 85.5498 402.213 93.8619C402.213 102.046 408.095 108.823 415.447 108.823C422.686 108.823 428.681 102.174 428.681 93.8619C428.681 85.5498 422.686 78.9002 415.447 78.9002ZM415.447 101.534C411.601 101.534 408.547 98.0818 408.547 93.734C408.547 89.514 411.601 85.9335 415.447 85.9335C419.18 85.9335 422.347 89.3861 422.347 93.734C422.234 98.0818 419.18 101.534 415.447 101.534Z" fill="white"/>
</g>
<mask id="mask14_61_382" style="mask-type:luminance" maskUnits="userSpaceOnUse" x="0" y="0" width="679" height="150">
<path d="M678.996 0.12793H0.329529V150H678.996V0.12793Z" fill="white"/>
</mask>
<g mask="url(#mask14_61_382)">
<path d="M541.792 95.0128C541.114 86.8287 546.543 80.9463 551.633 79.2839C558.872 76.8542 567.921 81.0742 568.26 92.711V107.289H562.831L562.944 92.4553C562.605 85.6778 553.443 82.8645 549.71 89.2583C548.24 92.5831 547.787 97.8261 552.085 100.512C554.121 101.407 556.497 101.79 559.211 101.151V107.417C554.687 108.951 550.162 108.568 545.751 103.964C543.376 101.407 542.358 98.4655 541.792 95.0128Z" fill="white"/>
</g>
<mask id="mask15_61_382" style="mask-type:luminance" maskUnits="userSpaceOnUse" x="0" y="0" width="679" height="150">
<path d="M678.996 0.12793H0.329529V150H678.996V0.12793Z" fill="white"/>
</mask>
<g mask="url(#mask15_61_382)">
<path d="M571.767 107.545H577.762V92.3273C577.309 83.3759 589.638 82.7365 589.412 92.3273V107.545H595.407V91.9437C595.972 72.5064 570.862 73.7852 571.88 91.9437V107.545" fill="white"/>
</g>
<mask id="mask16_61_382" style="mask-type:luminance" maskUnits="userSpaceOnUse" x="0" y="0" width="679" height="150">
<path d="M678.996 0.12793H0.329529V150H678.996V0.12793Z" fill="white"/>
</mask>
<g mask="url(#mask16_61_382)">
<path d="M526.409 108.696C533.874 108.696 539.982 101.662 539.982 93.0947C539.982 82.6088 530.934 75.8313 522.337 79.0282V86.0614C527.088 82.8645 533.196 86.1893 533.196 92.5832C533.196 97.1868 529.916 100.895 525.957 100.895C521.998 100.895 518.718 97.1868 518.718 92.5832C518.718 82.9924 518.491 73.5294 518.491 63.9387H512.949V94.5013C513.175 102.302 519.17 108.568 526.409 108.696Z" fill="white"/>
</g>
<mask id="mask17_61_382" style="mask-type:luminance" maskUnits="userSpaceOnUse" x="0" y="0" width="679" height="150">
<path d="M678.996 0.12793H0.329529V150H678.996V0.12793Z" fill="white"/>
</mask>
<g mask="url(#mask17_61_382)">
<path d="M486.82 64.578H492.589V88.7468C492.25 98.4655 496.095 100.895 502.203 101.79V108.056C490.779 109.207 486.707 101.407 486.82 88.6189V64.578Z" fill="white"/>
</g>
<mask id="mask18_61_382" style="mask-type:luminance" maskUnits="userSpaceOnUse" x="0" y="0" width="679" height="150">
<path d="M678.996 0.12793H0.329529V150H678.996V0.12793Z" fill="white"/>
</mask>
<g mask="url(#mask18_61_382)">
<path d="M598.461 64.1943H605.021V86.7007C606.944 80.8184 611.469 76.7263 616.672 76.7263L617.803 76.8542V83.8874C613.618 84.9104 610.451 88.7467 610.451 93.3503C610.451 97.9539 613.618 101.79 617.803 102.813V108.951H616.672C611.356 108.951 606.944 104.859 605.021 98.9769V107.673H598.461V64.1943Z" fill="white"/>
</g>
<mask id="mask19_61_382" style="mask-type:luminance" maskUnits="userSpaceOnUse" x="0" y="0" width="679" height="150">
<path d="M678.996 0.12793H0.329529V150H678.996V0.12793Z" fill="white"/>
</mask>
<g mask="url(#mask19_61_382)">
<path d="M131.538 123.146V96.8031L128.145 98.2097C119.322 101.918 111.518 103.708 104.505 103.708C92.9675 103.708 82.9006 98.7212 73.7386 88.491C66.1602 79.4118 63.3324 67.5192 64.916 49.7443C65.1422 46.6752 64.1242 36.5729 61.7488 28.3888H77.2451C80.5253 35.1663 80.2991 42.3274 80.186 50C79.9597 60.3581 79.8466 71.2276 88.8955 79.9233L89.0086 80.0511L89.1217 80.179C94.5511 84.1432 100.207 86.1893 105.749 86.1893C120.34 86.1893 130.86 72.1228 131.538 58.9514V26.7264H149.749V123.018H131.538" fill="#FCBA13"/>
</g>
<mask id="mask20_61_382" style="mask-type:luminance" maskUnits="userSpaceOnUse" x="0" y="0" width="679" height="150">
<path d="M678.996 0.12793H0.329529V150H678.996V0.12793Z" fill="white"/>
</mask>
<g mask="url(#mask20_61_382)">
<path d="M105.749 37.4681C114.798 37.4681 122.037 45.6522 122.037 55.7545C122.037 65.8568 114.798 74.041 105.749 74.041C96.8133 74.041 89.4611 65.8568 89.4611 55.7545C89.4611 45.6522 96.8133 37.4681 105.749 37.4681Z" fill="#FCBA13"/>
</g>
</svg>
