<svg width="679" height="190" viewBox="0 0 679 190" fill="none" xmlns="http://www.w3.org/2000/svg">
<path d="M315.929 146.571C320.167 149.828 322.71 154.985 322.71 160.414C322.71 175.614 310.843 181.042 296.999 181.042H261.399V108.571H293.326C308.583 108.571 317.624 113.999 317.624 128.114C317.624 140.328 309.713 142.228 305.475 142.228V142.499C309.148 142.771 312.821 144.128 315.929 146.571ZM288.523 137.342C295.021 137.342 297.564 134.899 297.564 130.285C297.564 125.671 294.173 123.499 287.11 123.499H280.894V137.342H288.523ZM290.783 165.842C297.281 165.842 300.107 163.671 300.107 157.971C300.107 152.271 296.151 150.099 290.5 150.099H281.177V165.842H290.783Z" fill="#21317D"/>
<path d="M331.752 181.042V108.571H351.247V165.842H381.479V180.771L331.752 181.042Z" fill="#21317D"/>
<path d="M253.205 180.499C250.097 181.314 246.989 181.585 243.598 181.585C218.452 181.585 226.928 156.071 211.671 156.071H208.281V181.042H188.785V108.571H217.039C237.382 108.571 247.554 115.085 247.554 132.185C247.554 139.785 243.033 147.114 235.97 150.371C241.903 157.428 241.621 165.842 250.379 165.842H253.77L253.205 180.499ZM214.779 141.957C222.69 141.957 228.341 138.971 228.341 132.999C228.341 127.028 223.538 123.771 216.192 123.771H208.281V142.228H214.779V141.957Z" fill="#21317D"/>
<path d="M509.753 162.314H482.347L475.566 181.042H461.439L489.128 108.571H502.972L530.661 180.771H516.534L509.753 162.314ZM485.737 152.271H506.363L496.191 124.585L485.737 152.271Z" fill="#ED1C24"/>
<path d="M583.214 181.042L553.83 132.457V181.042H540.268V108.571H554.395L584.062 158.785V108.571H597.624V180.771L583.214 181.042Z" fill="#ED1C24"/>
<path d="M400.409 181.042V108.571H427.816C443.356 108.571 452.115 114.271 452.115 127.571C452.115 140.871 443.921 142.771 440.53 142.771V143.042C450.137 143.585 457.765 151.456 457.2 160.685C457.2 160.685 457.2 160.685 457.2 160.957C457.2 176.157 444.769 181.042 430.924 181.042H400.409ZM427.251 139.242C435.727 139.242 438.553 135.171 438.553 129.199C438.553 123.228 434.314 119.428 424.991 119.428H413.971V139.242H427.251ZM428.381 170.457C436.292 170.457 442.791 168.014 442.791 159.328C442.791 151.185 436.575 148.199 428.381 148.199H413.971V170.185H428.381V170.457Z" fill="#ED1C24"/>
<path d="M675.888 171.271C666.282 171.271 665.999 155.528 657.805 147.928C654.98 144.942 651.307 142.499 647.069 141.414L675.606 108.842H658.37L629.551 141.142V108.571H615.989V180.771H629.551V160.414L638.027 150.914H638.875C654.697 150.914 649.612 181.042 671.65 181.042C674.193 181.042 676.453 180.771 678.996 180.499V170.999L675.888 171.271Z" fill="#ED1C24"/>
<path d="M37.9076 45.8714V0H0.329529V108.571C0.329529 82.7857 14.7392 58.9 37.9076 45.8714Z" fill="#21317D"/>
<path d="M80.289 36.3716V72.743C100.915 75.1859 115.607 93.3716 113.064 113.186C110.521 133 91.5907 147.114 70.9651 144.672C52.0348 142.5 37.9077 127.029 37.9077 108.572V171.272C74.0731 191.357 120.127 179.414 141.036 144.943C161.944 110.472 149.512 65.9573 113.629 45.8716C103.457 40.443 92.1558 36.9144 80.289 36.3716Z" fill="#21317D"/>
<path d="M37.9077 45.8716C14.7392 58.9001 0.329529 82.7858 0.329529 108.572V190H37.9077V108.572C37.9077 90.3858 52.0348 74.9144 70.9651 72.743V36.3716C59.3809 36.9144 48.0792 40.1716 37.9077 45.8716Z" fill="#ED1C24"/>
</svg>
