<svg width="357" height="102" viewBox="0 0 357 102" fill="none" xmlns="http://www.w3.org/2000/svg">
<path d="M187.832 51.1894C185.922 49.6054 183.448 48.5828 181.267 47.6801C178.259 46.4361 175.66 45.3628 175.66 43.3721C175.66 42.5028 176.067 41.7041 176.807 41.1281C177.587 40.5201 178.676 40.1855 179.872 40.1855C183.634 40.1855 186.634 42.8455 186.66 42.8695L187.394 43.5388L190.727 37.2868L190.346 36.8841C190.2 36.7295 186.69 33.1055 179.918 33.1055C176.668 33.1055 173.68 34.1441 171.5 36.0294C169.288 37.9428 168.067 40.5841 168.067 43.4654C168.067 46.2748 169.158 48.5468 171.396 50.4095C173.279 51.9735 175.624 52.9841 177.894 53.9628C180.988 55.2961 183.664 56.4494 183.664 58.5014C183.664 60.0641 182.606 61.7348 179.639 61.7348C175.384 61.7348 171.97 58.4948 171.936 58.4615L171.296 57.8401L167.152 63.5828L167.566 64.0454C167.612 64.0934 168.683 65.2761 170.695 66.4534C172.54 67.5308 175.575 68.8161 179.544 68.8161C183.018 68.8161 185.978 67.7508 188.106 65.7375C190.107 63.8415 191.208 61.2228 191.208 58.3628C191.208 55.4201 190.104 53.0734 187.832 51.1894Z" fill="#292075"/>
<path d="M222.863 68.2998H230.629V33.6211H222.863V68.2998Z" fill="#292075"/>
<path d="M207.687 61.8052H201.776V40.1132H206.988C209.324 40.1132 210.664 41.4199 210.664 43.6972C210.664 45.9985 209.459 47.1638 207.08 47.1638H205.285V53.5465H207.687C209 53.5465 210.095 53.9559 210.851 54.7345C211.645 55.5505 211.968 56.3585 211.968 57.5225C211.968 60.1652 210.328 61.8052 207.687 61.8052ZM217.997 52.7145C217.229 51.5065 216.176 50.5465 214.923 49.9038C216.945 48.2825 218.089 45.7931 218.089 42.9505C218.089 40.0758 216.995 37.6785 214.923 36.0132C212.971 34.4465 210.26 33.6172 207.08 33.6172H194.445V68.2958H207.221C210.611 68.2958 213.543 67.4398 215.699 65.8172C218.147 63.9771 219.439 61.2385 219.439 57.8945C219.439 55.9892 218.941 54.1972 217.997 52.7145Z" fill="#292075"/>
<path d="M143.928 33C134.027 33 126 41.0453 126 50.9693C126 60.2733 133.055 67.9253 142.093 68.8453V55.792C140.151 55.0507 138.767 53.1693 138.767 50.9693C138.767 48.1226 141.081 45.8067 143.928 45.8067C146.773 45.8067 149.091 48.1226 149.091 50.9693C149.091 53.1693 147.704 55.0507 145.761 55.792V68.8453C154.801 67.9253 161.856 60.2733 161.856 50.9693C161.856 41.0453 153.829 33 143.928 33Z" fill="#00B5EF"/>
</svg>
