<svg width="700" height="120" viewBox="0 0 700 120" fill="none" xmlns="http://www.w3.org/2000/svg">
<mask id="mask0_72_636" style="mask-type:luminance" maskUnits="userSpaceOnUse" x="0" y="0" width="118" height="120">
<path d="M56.5265 0.861306C24.3186 2.33811 -0.606321 30.0051 0.843791 62.6873C2.30703 95.3402 29.6045 120.616 61.8098 119.157C94.0264 117.663 118.959 89.993 117.502 57.3241C116.08 25.5844 90.2677 0.800069 59.2307 0.792969C58.3328 0.792969 57.4393 0.817819 56.5265 0.861306Z" fill="white"/>
</mask>
<g mask="url(#mask0_72_636)">
<path d="M118.958 0.792969H-0.606323V120.616H118.958V0.792969Z" fill="url(#paint0_radial_72_636)"/>
</g>
<mask id="mask1_72_636" style="mask-type:luminance" maskUnits="userSpaceOnUse" x="0" y="0" width="119" height="120">
<path d="M45.8358 110.866C39.3002 110.214 31.4974 108.13 24.7002 102.157C18.4438 96.6853 14.5713 89.1548 12.6889 82.5207C10.7688 75.7482 9.9549 67.8317 13.1413 68.4503C14.111 68.6402 15.807 72.9961 17.6474 76.1707C19.5535 79.4447 21.0823 81.2534 22.5298 82.3645C23.1809 82.8651 25.4099 77.8347 28.6663 74.9699C30.5558 73.3839 32.6045 72.847 32.9537 77.5623C33.3475 83.3381 32.3174 90.2163 33.9968 90.2163C35.531 90.2163 39.0429 89.0323 46.7547 88.3605C49.6444 88.1138 51.2984 88.6711 48.5382 92.6045C47.1546 94.5819 45.3177 97.3713 40.9498 100.551C47.4977 106.77 55.3468 106.013 55.4965 108.666C55.5831 110.181 52.6505 111.018 48.8113 111.018C47.8617 111.019 46.8684 110.97 45.8358 110.866ZM67.8771 54.9754C61.8789 53.708 60.6519 48.1851 60.6519 48.1851C60.1619 46.2397 60.035 43.7787 60.4419 40.6511C61.2453 34.0916 63.0052 31.0306 64.9953 25.9425C67.6575 19.1194 61.1665 15.1283 62.229 12.6265C63.6826 9.23356 68.3217 13.5424 73.5148 13.8672C77.9605 14.1095 80.6455 13.8974 84.1084 14.3607C88.7187 14.973 94.2233 16.5608 96.679 19.4815C98.9263 22.1556 95.4861 25.41 91.3677 23.375C88.3441 21.8778 84.5416 22.791 86.7793 25.9878C89.4512 29.0222 90.7359 29.1029 93.4838 29.828C101.02 31.8435 101.176 39.1787 96.0699 42.9568C90.2747 47.2657 84.3797 45.4756 82.0361 37.0319C80.8564 32.8074 77.9273 30.6605 74.9054 31.8684C71.922 33.0559 73.6916 38.6063 75.9713 43.7503C79.9042 53.9512 71.9352 55.0331 68.8827 55.0331C68.4145 55.0339 68.0513 54.9984 67.8771 54.9754ZM63.5522 112.783C63.4848 111.423 65.4442 111.09 65.4442 111.09C82.948 107.582 77.8292 95.9486 71.6411 90.0095C69.0306 87.5227 44.6683 66.1925 44.6683 66.1925C21.4438 45.9104 23.3017 30.0827 23.3017 30.0827C24.4429 10.5888 41.2465 5.76255 53.9737 6.8879C55.4676 7.01658 56.3007 7.9245 56.0242 9.19185C55.7538 10.5675 53.7812 10.6589 53.7812 10.6589C49.7293 10.9101 46.0966 11.3192 43.353 13.2087C33.1059 20.2004 36.1077 32.1045 49.7888 45.3557C51.5119 47.0225 53.341 48.7806 55.2304 50.5707C55.2304 50.5707 57.9644 53.0246 63.4436 58.2937C73.9594 68.1148 79.7126 73.4079 79.7126 73.4079C98.2586 89.0678 91.9024 103.383 84.8418 108.352C79.4325 112.154 73.4535 113.936 65.5991 114.364C65.5326 114.374 65.4626 114.378 65.3926 114.378C64.675 114.378 63.5959 113.936 63.5522 112.783ZM56.4863 0.0612376C23.8487 1.55401 -1.41321 29.6141 0.0614101 62.7126C1.5404 95.8129 29.2011 121.432 61.8465 119.938C94.4832 118.447 119.756 90.4 118.278 57.2918C116.855 25.1003 90.6562 0.00355 59.1957 0C58.2961 0 57.392 0.019525 56.4863 0.0612376Z" fill="white"/>
</mask>
<g mask="url(#mask1_72_636)">
<path d="M119.756 0H-1.41321V121.432H119.756V0Z" fill="url(#paint1_radial_72_636)"/>
</g>
<path d="M150.578 77.8607C155.307 81.6973 162.79 84.0936 167.992 84.0936C174.374 84.0936 178.236 81.2953 178.236 75.9446C178.236 71.7866 176.581 69.1463 171.379 66.5175C165.385 63.3988 160.507 61.4774 155.934 57.5653C151.838 53.8919 148.925 49.4127 148.925 42.7822C148.925 33.514 156.484 27.0459 169.099 27.0459C176.027 27.0459 181.857 28.1615 187.295 30.5604V40.3859C187.295 41.8246 185.951 42.302 184.849 41.3444C180.442 37.5903 175.865 35.8322 170.666 35.8322C165.075 35.8322 161.923 38.4698 161.923 42.7822C161.923 45.8982 163.021 48.0584 165.075 49.7349C169.014 53.0089 173.9 55.4051 178.235 57.4881C186.427 61.4011 191.234 66.0312 191.234 75.783C191.234 87.9294 181.065 92.9615 168.148 92.9615C158.613 92.9615 146.559 88.3314 148.138 84.3323L150.578 77.8607Z" fill="#0046FF"/>
<path d="M198.252 27.8896H211.719V50.1837C215.026 47.3073 219.205 45.55 224.17 45.55C234.098 45.55 240.637 51.3836 240.637 59.853V91.9708H228.265V61.5286C228.265 56.9722 225.979 54.8981 221.094 54.8981C217.866 54.8981 214.871 56.3341 211.718 58.6513V91.9699H199.351V35.8798C199.351 33.1614 198.953 31.8071 197.374 30.127C196.436 28.928 197.068 27.8896 198.252 27.8896Z" fill="#0046FF"/>
<path d="M263.879 47.0642V91.9718H251.511V54.9754C251.511 52.4177 250.958 51.0624 249.542 49.386C248.594 48.1834 249.228 47.0642 250.331 47.0642H263.879ZM264.356 32.842C264.356 37.1571 261.204 40.4364 256.87 40.4364C252.538 40.4364 249.384 37.1571 249.384 32.842C249.384 28.5297 252.538 25.2539 256.87 25.2539C261.203 25.2548 264.356 28.5297 264.356 32.842Z" fill="#0046FF"/>
<path d="M273.966 47.0665H287.125V51.4631C290.357 48.2664 294.296 45.5488 299.808 45.5488C309.184 45.5488 316.36 50.9022 316.36 60.7287V91.9749H303.985V61.8487C303.985 56.813 301.783 54.5765 296.813 54.5765C293.35 54.5765 290.358 56.016 287.518 58.5747V91.9731H275.147V55.1374C275.147 52.419 274.677 51.062 273.185 49.3846C272.157 48.1856 272.787 47.0665 273.966 47.0665Z" fill="#0046FF"/>
<path d="M325.734 27.8896H339.208V50.1837C342.514 47.3073 346.69 45.55 351.651 45.55C361.584 45.55 368.123 51.3836 368.123 59.853V91.9708H355.754V61.5286C355.754 56.9722 353.468 54.8981 348.575 54.8981C345.353 54.8981 342.356 56.3341 339.207 58.6513V91.9699H326.835V35.8798C326.835 33.1614 326.442 31.8071 324.864 30.127C323.921 28.928 324.555 27.8896 325.734 27.8896Z" fill="#0046FF"/>
<path d="M396.177 54.0209C391.368 54.0209 386.321 56.2583 382.782 58.5756C381.05 59.7693 380.019 59.1329 380.019 57.2949V48.9036C384.668 46.8295 391.684 45.5488 396.962 45.5488C409.172 45.5488 416.186 50.344 416.186 60.2494V91.9722H404.048V87.099C400.585 91.414 395.623 93.4118 390.345 93.4118C381.52 93.4118 375.45 87.6608 375.45 79.186C375.45 69.6019 381.993 63.6086 395.859 63.6086H403.817V60.2494C403.818 55.8563 401.062 54.0209 396.177 54.0209ZM403.818 71.9156H395.779C389.714 71.9156 387.352 74.7148 387.352 78.9499C387.352 82.4653 389.401 84.8616 393.024 84.8616C397.276 84.8616 401.062 82.862 403.817 79.6661L403.818 71.9156Z" fill="#0046FF"/>
<path d="M425.332 47.0665H438.486V51.4631C441.722 48.2664 445.662 45.5488 451.173 45.5488C460.549 45.5488 467.721 50.9022 467.721 60.7287V91.9749H455.345V61.8487C455.345 56.813 453.14 54.5765 448.173 54.5765C444.707 54.5765 441.722 56.016 438.879 58.5747V91.9731H426.511V55.1374C426.511 52.419 426.041 51.062 424.545 49.3846C423.519 48.1856 424.148 47.0665 425.332 47.0665Z" fill="#0046FF"/>
<path d="M501.758 29.6465H523.428C536.351 29.6465 544.543 35.638 544.543 45.3091C544.543 51.3823 542.18 55.8526 537.608 58.6509C543.989 61.1279 547.849 65.8406 547.849 74.1502C547.849 85.899 538.477 91.9695 524.374 91.9695H502.941V37.721C502.941 34.9999 502.467 33.642 500.967 31.9655C500.025 30.7656 500.655 29.6465 501.758 29.6465ZM515.784 55.0592H522.559C528.466 55.0592 531.698 52.8183 531.698 46.8267C531.698 40.7571 528.466 38.5153 522.323 38.5153H515.783V55.0592H515.784ZM534.615 73.4349C534.615 66.8008 530.988 63.928 523.584 63.928H515.785V83.1016H523.664C531.068 83.1016 534.615 80.1435 534.615 73.4349Z" fill="#0046FF"/>
<path d="M573.695 54.0209C568.89 54.0209 563.847 56.2583 560.301 58.5756C558.568 59.7693 557.542 59.1329 557.542 57.2949V48.9036C562.191 46.8295 569.203 45.5488 574.481 45.5488C586.693 45.5488 593.705 50.344 593.705 60.2494V91.9722H581.574V87.099C578.107 91.414 573.145 93.4118 567.863 93.4118C559.042 93.4118 552.977 87.6608 552.977 79.186C552.977 69.6019 559.512 63.6086 573.378 63.6086H581.338V60.2494C581.338 55.8563 578.581 54.0209 573.695 54.0209ZM581.338 71.9156H573.302C567.236 71.9156 564.871 74.7148 564.871 78.9499C564.871 82.4653 566.92 84.8616 570.546 84.8616C574.795 84.8616 578.581 82.862 581.338 79.6661L581.338 71.9156Z" fill="#0046FF"/>
<path d="M602.851 47.0665H616.004V51.4631C619.237 48.2664 623.18 45.5488 628.692 45.5488C638.067 45.5488 645.238 50.9022 645.238 60.7287V91.9749H632.87V61.8487C632.87 56.813 630.665 54.5765 625.696 54.5765C622.234 54.5765 619.237 56.016 616.4 58.5747V91.9731H604.03V55.1374C604.03 52.419 603.559 51.062 602.064 49.3846C601.038 48.1856 601.671 47.0665 602.851 47.0665Z" fill="#0046FF"/>
<path d="M655.722 91.9718V35.88C655.722 33.1642 655.328 31.8046 653.744 30.129C652.803 28.9291 653.435 27.8916 654.619 27.8916H668.09V64.6466L683.771 47.0678H697.95L681.013 66.245L700 91.971H686.368L672.738 73.1923C671.323 71.1954 670.692 70.8777 669.192 70.8777H668.089V91.9718H655.722Z" fill="#0046FF"/>
<defs>
<radialGradient id="paint0_radial_72_636" cx="0" cy="0" r="1" gradientUnits="userSpaceOnUse" gradientTransform="translate(66.4306 40.8504) scale(55.3962 56.1748)">
<stop stop-color="white"/>
</radialGradient>
<radialGradient id="paint1_radial_72_636" cx="0" cy="0" r="1" gradientUnits="userSpaceOnUse" gradientTransform="translate(68.5986 44.029) scale(123.908 125.649)">
<stop offset="1" stop-color="#0046FF"/>
</radialGradient>
</defs>
</svg>
