<svg width="679" height="270" viewBox="0 0 679 270" fill="none" xmlns="http://www.w3.org/2000/svg">
<path fill-rule="evenodd" clip-rule="evenodd" d="M0.329529 0H678.996V270H0.329529V0Z" fill="#C4161C"/>
<path d="M487.218 160.021H509.094C514.328 160.021 518.403 161.161 521.38 163.388C524.326 165.616 525.862 168.284 525.862 171.366C525.862 175.329 523.543 178.334 518.936 180.406C522.414 181.235 525.047 182.685 526.928 184.757C528.777 186.829 529.717 189.264 529.717 192.01C529.717 195.947 528.181 199.159 525.173 201.645C522.132 204.106 517.682 205.323 511.852 205.323H487.218V160.021ZM499.817 168.335V178.049H506.399C508.436 178.049 510.003 177.582 511.163 176.65C512.291 175.743 512.855 174.578 512.855 173.153C512.855 171.754 512.291 170.615 511.163 169.708C510.003 168.802 508.436 168.361 506.399 168.361H499.817V168.335ZM499.817 186.363V197.086H506.932C510.254 197.086 512.667 196.646 514.14 195.817C515.613 194.988 516.366 193.564 516.366 191.492C516.366 189.912 515.676 188.694 514.266 187.762C512.855 186.829 510.944 186.389 508.624 186.389H499.817V186.363ZM572.686 197.786V203.173C569.113 205.012 565.76 205.945 562.657 205.945C559.272 205.945 557.266 204.805 556.639 202.526C552.91 204.805 549.149 205.945 545.356 205.945C542.755 205.945 540.436 205.22 538.618 203.717C536.769 202.189 535.829 200.454 535.829 198.459C535.829 195.791 536.832 193.641 538.681 191.984C540.655 190.378 546.422 188.254 556.138 185.69C556.389 182.297 554.383 180.587 550.183 180.587C545.638 180.587 541.407 182.297 537.584 185.69V177.815C542.097 175.355 547.017 174.086 552.377 174.086C562.061 174.086 566.888 177.168 566.888 183.41V197.371C566.888 198.796 567.452 199.495 568.674 199.495C569.521 199.521 570.868 198.925 572.686 197.786ZM556.106 197.941V190.507C552.534 191.647 550.058 192.657 548.71 193.564C547.362 194.47 546.673 195.61 546.673 196.957C546.673 197.863 547.017 198.615 547.707 199.236C548.397 199.884 549.18 200.221 550.183 200.221C552.22 200.246 554.195 199.469 556.106 197.941ZM587.918 174.733V179.136C591.084 175.769 594.75 174.112 599.013 174.112C602.554 174.112 605.532 175.122 607.945 177.168C610.327 179.188 611.518 182.115 611.518 185.897V205.375H600.737V186.726C600.737 182.633 598.982 180.613 595.44 180.613C592.933 180.613 590.425 182.297 587.949 185.638V205.375H577.168V174.759H587.918V174.733ZM631.357 160.021V189.886H631.514L644.803 174.733H657.402L644.05 189.886L657.966 205.349H644.803L631.514 190.248H631.357V205.349H620.607V160.021H631.357Z" fill="white"/>
<path d="M175.904 237.754V240.965H161.487V223.456H175.747V226.668H166.345V230.346H175.308V233.557H166.345V237.754H175.904ZM192.797 229.102L187.563 234.904L193.173 240.965H188.347L185.212 237.313L182.204 240.965H177.534L182.924 234.904L177.534 229.102H182.392L185.212 232.521L187.939 229.102H192.797ZM199.065 229.102V230.164C200.194 229.31 201.416 228.895 202.826 228.895C204.55 228.895 205.992 229.491 207.214 230.631C208.374 231.796 209 233.221 209 234.904C209 236.821 208.374 238.323 207.214 239.463C205.992 240.629 204.456 241.198 202.45 241.198C201.259 241.198 200.1 240.914 199.065 240.37V246.923H194.928V229.128H199.065V229.102ZM199.065 232.495V237.961C199.88 238.479 200.664 238.738 201.479 238.738C202.481 238.738 203.296 238.401 203.892 237.754C204.487 237.106 204.801 236.225 204.801 235.137C204.801 233.998 204.519 233.117 203.955 232.495C203.422 231.9 202.67 231.563 201.698 231.563C200.82 231.537 199.943 231.848 199.065 232.495ZM224.608 237.313V239.67C223.041 240.68 221.036 241.224 218.716 241.224C216.397 241.224 214.548 240.655 213.138 239.541C211.759 238.427 211.069 236.951 211.069 235.112C211.069 233.324 211.696 231.822 213.012 230.656C214.329 229.491 216.021 228.921 218.027 228.921C220.033 228.921 221.694 229.543 223.041 230.76C224.358 231.977 224.922 233.635 224.859 235.681H215.363C215.425 236.769 215.864 237.572 216.648 238.142C217.431 238.712 218.466 239.023 219.719 239.023C221.286 238.971 222.916 238.427 224.608 237.313ZM215.457 233.687H221.224C220.973 231.952 220.001 231.071 218.309 231.071C216.616 231.071 215.676 231.952 215.457 233.687ZM231.848 229.102V232.495H231.88C233.102 230.113 234.512 228.869 236.079 228.869C236.832 228.869 237.772 229.258 238.837 229.931L237.709 233.273C236.675 232.677 235.829 232.392 235.233 232.392C234.262 232.392 233.478 232.91 232.789 233.972C232.13 235.06 231.786 235.681 231.786 235.863V240.965H227.617V229.102H231.848ZM240.279 225.269C240.279 224.699 240.53 224.207 240.969 223.818C241.407 223.404 241.972 223.223 242.567 223.223C243.163 223.223 243.727 223.43 244.166 223.818C244.604 224.207 244.855 224.699 244.855 225.269C244.855 225.839 244.636 226.331 244.166 226.719C243.727 227.134 243.163 227.341 242.567 227.341C241.972 227.341 241.376 227.134 240.969 226.719C240.53 226.305 240.279 225.813 240.279 225.269ZM244.667 229.102V240.965H240.53V229.102H244.667ZM261.09 237.313V239.67C259.523 240.68 257.548 241.224 255.229 241.224C252.91 241.224 251.029 240.655 249.65 239.541C248.271 238.427 247.582 236.951 247.582 235.112C247.582 233.324 248.209 231.822 249.494 230.656C250.81 229.491 252.502 228.921 254.54 228.921C256.545 228.921 258.238 229.543 259.554 230.76C260.87 231.977 261.435 233.635 261.372 235.681H251.875C251.938 236.769 252.377 237.572 253.161 238.142C253.913 238.712 254.947 239.023 256.201 239.023C257.768 238.971 259.397 238.427 261.09 237.313ZM251.907 233.687H257.674C257.423 231.952 256.451 231.071 254.759 231.071C253.098 231.071 252.126 231.952 251.907 233.687ZM268.204 229.102V230.812C269.427 229.569 270.837 228.895 272.498 228.895C273.877 228.895 275.005 229.284 275.946 230.087C276.855 230.864 277.325 231.977 277.325 233.428V240.965H273.188V233.739C273.188 232.159 272.498 231.382 271.119 231.382C270.116 231.382 269.145 232.029 268.236 233.35V240.965H264.099V229.102H268.204ZM292.306 237.728V240.396C290.707 240.939 289.234 241.198 287.887 241.198C285.536 241.198 283.687 240.629 282.308 239.515C280.898 238.401 280.208 236.925 280.208 235.086C280.208 233.298 280.898 231.822 282.308 230.631C283.718 229.465 285.505 228.869 287.667 228.869C289.078 228.869 290.551 229.128 292.149 229.62V232.418C291.021 231.874 289.861 231.589 288.733 231.589C287.511 231.589 286.508 231.9 285.787 232.495C285.035 233.117 284.659 233.946 284.659 235.008C284.659 236.044 285.035 236.873 285.787 237.546C286.508 238.194 287.448 238.505 288.639 238.505C289.454 238.557 290.707 238.272 292.306 237.728ZM307.977 237.313V239.67C306.41 240.68 304.435 241.224 302.084 241.224C299.796 241.224 297.916 240.655 296.506 239.541C295.127 238.427 294.437 236.951 294.437 235.112C294.437 233.324 295.064 231.822 296.38 230.656C297.697 229.491 299.358 228.921 301.364 228.921C303.401 228.921 305.093 229.543 306.41 230.76C307.695 231.977 308.29 233.635 308.227 235.681H298.731C298.794 236.769 299.201 237.572 299.985 238.142C300.768 238.712 301.802 239.023 303.056 239.023C304.686 238.971 306.284 238.427 307.977 237.313ZM298.825 233.687H304.529C304.341 231.952 303.369 231.071 301.646 231.071C299.953 231.071 299.044 231.952 298.825 233.687ZM339.193 223.43V240.939H335.087L324.305 229.724V240.939H319.448V223.43H323.867L334.303 234.153V223.43H339.193ZM356.023 237.313V239.67C354.456 240.68 352.481 241.224 350.131 241.224C347.843 241.224 345.962 240.655 344.552 239.541C343.173 238.427 342.483 236.951 342.483 235.112C342.483 233.324 343.11 231.822 344.427 230.656C345.743 229.491 347.404 228.921 349.441 228.921C351.478 228.921 353.171 229.543 354.487 230.76C355.772 231.977 356.368 233.635 356.305 235.681H346.809C346.871 236.769 347.279 237.572 348.062 238.142C348.846 238.712 349.88 239.023 351.134 239.023C352.701 238.971 354.299 238.427 356.023 237.313ZM346.84 233.687H352.575C352.387 231.952 351.416 231.071 349.692 231.071C348 231.071 347.059 231.952 346.84 233.687ZM372.32 229.102L367.086 234.904L372.697 240.965H367.87L364.767 237.313L361.758 240.965H357.089L362.479 234.904L357.089 229.102H361.946L364.799 232.521L367.525 229.102H372.32ZM384.011 229.102V231.667H379.184V236.536C379.184 237.132 379.404 237.598 379.78 237.935C380.124 238.272 380.595 238.453 381.253 238.453C382.099 238.453 383.039 238.22 384.042 237.754V240.473C382.694 240.939 381.441 241.224 380.187 241.224C378.526 241.224 377.304 240.862 376.395 240.085C375.517 239.334 375.047 238.246 375.047 236.795V231.693H373.167V230.967L378.714 225.398H379.184V229.128H384.011V229.102ZM413.252 224.647V228.481C410.745 227.393 408.332 226.875 405.95 226.875C403.63 226.875 401.875 227.367 400.622 228.429C399.399 229.465 398.741 230.786 398.741 232.392C398.741 233.92 399.368 235.163 400.622 236.148C401.875 237.106 403.505 237.572 405.511 237.572C406.608 237.572 407.674 237.391 408.771 236.951V234.904H405.95V231.718H413.66V238.893C412.845 239.567 411.685 240.137 410.118 240.603C408.52 241.017 406.953 241.25 405.417 241.25C402.001 241.25 399.211 240.396 397.017 238.712C394.855 237.054 393.758 234.878 393.758 232.288C393.758 229.646 394.855 227.445 397.017 225.787C399.211 224.103 402.063 223.249 405.542 223.249C408.426 223.197 410.996 223.689 413.252 224.647ZM430.333 237.313V239.67C428.766 240.68 426.792 241.224 424.441 241.224C422.153 241.224 420.241 240.655 418.862 239.541C417.483 238.427 416.794 236.951 416.794 235.112C416.794 233.324 417.421 231.822 418.737 230.656C420.053 229.491 421.746 228.921 423.72 228.921C425.758 228.921 427.45 229.543 428.766 230.76C430.051 231.977 430.647 233.635 430.584 235.681H421.088C421.15 236.769 421.558 237.572 422.341 238.142C423.125 238.712 424.159 239.023 425.413 239.023C427.011 238.971 428.61 238.427 430.333 237.313ZM421.182 233.687H426.917C426.729 231.952 425.758 231.071 424.034 231.071C422.31 231.071 421.401 231.952 421.182 233.687ZM437.417 229.102V230.812C438.67 229.569 440.081 228.895 441.742 228.895C443.121 228.895 444.249 229.284 445.158 230.087C446.067 230.864 446.537 231.977 446.537 233.428V240.965H442.4V233.739C442.4 232.159 441.71 231.382 440.331 231.382C439.36 231.382 438.357 232.029 437.417 233.35V240.965H433.279V229.102H437.417ZM462.897 237.313V239.67C461.33 240.68 459.355 241.224 456.974 241.224C454.686 241.224 452.774 240.655 451.395 239.541C450.016 238.427 449.326 236.951 449.326 235.112C449.326 233.324 449.984 231.822 451.301 230.656C452.617 229.491 454.278 228.921 456.284 228.921C458.353 228.921 460.014 229.543 461.299 230.76C462.584 231.977 463.21 233.635 463.148 235.681H453.651C453.714 236.769 454.122 237.572 454.905 238.142C455.657 238.712 456.691 239.023 457.976 239.023C459.575 238.971 461.173 238.427 462.897 237.313ZM453.745 233.687H459.45C459.261 231.952 458.321 231.071 456.597 231.071C454.874 231.071 453.933 231.952 453.745 233.687ZM470.137 229.102V232.495H470.2C471.391 230.113 472.77 228.869 474.431 228.869C475.183 228.869 476.123 229.258 477.189 229.931L476.029 233.273C475.026 232.677 474.211 232.392 473.553 232.392C472.613 232.392 471.767 232.91 471.14 233.972C470.513 235.06 470.168 235.681 470.168 235.863V240.965H466V229.102H470.137ZM492.233 238.038V240.111C490.854 240.836 489.537 241.198 488.315 241.198C487.03 241.198 486.246 240.758 485.996 239.852C484.554 240.758 483.112 241.198 481.639 241.198C480.636 241.198 479.727 240.914 479.038 240.318C478.317 239.722 477.972 239.075 477.972 238.298C477.972 237.287 478.317 236.458 479.069 235.811C479.79 235.163 482.078 234.36 485.808 233.376C485.933 232.029 485.118 231.382 483.551 231.382C481.796 231.382 480.135 232.055 478.662 233.376V230.346C480.386 229.361 482.297 228.895 484.366 228.895C488.127 228.895 489.976 230.113 489.976 232.495V237.909C489.976 238.453 490.227 238.738 490.666 238.738C490.979 238.712 491.512 238.505 492.233 238.038ZM485.776 238.09V235.241C484.397 235.681 483.457 236.07 482.924 236.433C482.423 236.795 482.141 237.21 482.141 237.754C482.141 238.09 482.266 238.375 482.517 238.634C482.799 238.893 483.144 238.997 483.52 238.997C484.272 238.971 485.024 238.686 485.776 238.09ZM503.422 229.102V231.667H498.595V236.536C498.595 237.132 498.752 237.598 499.128 237.935C499.473 238.272 500.005 238.453 500.632 238.453C501.447 238.453 502.419 238.22 503.422 237.754V240.473C502.105 240.939 500.789 241.224 499.567 241.224C497.937 241.224 496.652 240.862 495.774 240.085C494.865 239.334 494.427 238.246 494.427 236.795V231.693H492.546V230.967L498.062 225.398H498.595V229.128H503.422V229.102ZM505.396 225.269C505.396 224.699 505.647 224.207 506.086 223.818C506.556 223.404 507.088 223.223 507.715 223.223C508.373 223.223 508.875 223.43 509.345 223.818C509.815 224.207 510.003 224.699 510.003 225.269C510.003 225.839 509.784 226.331 509.345 226.719C508.875 227.134 508.373 227.341 507.715 227.341C507.088 227.341 506.556 227.134 506.086 226.719C505.647 226.305 505.396 225.813 505.396 225.269ZM509.846 229.102V240.965H505.678V229.102H509.846ZM520.158 228.869C522.226 228.869 523.981 229.413 525.454 230.501C526.928 231.589 527.648 233.091 527.648 235.06C527.648 237.028 526.896 238.531 525.423 239.593C523.981 240.655 522.226 241.198 520.189 241.198C517.995 241.198 516.209 240.629 514.83 239.463C513.419 238.323 512.73 236.847 512.73 235.034C512.73 233.169 513.451 231.667 514.861 230.527C516.24 229.439 517.995 228.869 520.158 228.869ZM520.158 238.971C522.164 238.971 523.167 237.65 523.167 234.956C523.167 232.392 522.164 231.071 520.158 231.071C519.249 231.071 518.497 231.408 517.933 232.133C517.4 232.78 517.149 233.739 517.149 235.034C517.149 237.676 518.152 238.971 520.158 238.971ZM534.543 229.102V230.812C535.766 229.569 537.208 228.895 538.869 228.895C540.216 228.895 541.376 229.284 542.285 230.087C543.194 230.864 543.664 231.977 543.664 233.428V240.965H539.527V233.739C539.527 232.159 538.837 231.382 537.458 231.382C536.455 231.382 535.484 232.029 534.512 233.35V240.965H530.375V229.102H534.543ZM555.542 223.43H564.036C566.042 223.43 567.671 223.844 568.8 224.725C569.959 225.58 570.523 226.642 570.523 227.833C570.523 229.335 569.615 230.501 567.828 231.33C569.176 231.641 570.21 232.211 570.931 233.039C571.652 233.842 571.997 234.775 571.997 235.837C571.997 237.365 571.432 238.582 570.241 239.541C569.113 240.525 567.358 240.965 565.101 240.965H555.542V223.43ZM560.4 226.642V230.397H562.97C563.754 230.397 564.349 230.19 564.819 229.854C565.227 229.517 565.477 229.025 565.477 228.481C565.477 227.937 565.227 227.522 564.819 227.16C564.349 226.797 563.754 226.642 562.97 226.642H560.4ZM560.4 233.609V237.728H563.127C564.475 237.728 565.383 237.572 565.948 237.261C566.543 236.925 566.794 236.381 566.794 235.604C566.794 234.982 566.543 234.49 565.979 234.153C565.446 233.791 564.725 233.609 563.816 233.609H560.4ZM588.639 238.038V240.111C587.26 240.836 585.943 241.198 584.721 241.198C583.405 241.198 582.653 240.758 582.402 239.852C580.96 240.758 579.518 241.198 578.045 241.198C577.011 241.198 576.134 240.914 575.413 240.318C574.692 239.722 574.347 239.075 574.347 238.298C574.347 237.287 574.723 236.458 575.475 235.811C576.196 235.163 578.484 234.36 582.214 233.376C582.339 232.029 581.556 231.382 579.926 231.382C578.171 231.382 576.541 232.055 575.068 233.376V230.346C576.792 229.361 578.704 228.895 580.772 228.895C584.533 228.895 586.382 230.113 586.382 232.495V237.909C586.382 238.453 586.633 238.738 587.072 238.738C587.385 238.712 587.949 238.505 588.639 238.038ZM582.182 238.09V235.241C580.803 235.681 579.863 236.07 579.299 236.433C578.829 236.795 578.547 237.21 578.547 237.754C578.547 238.09 578.672 238.375 578.923 238.634C579.205 238.893 579.55 238.997 579.895 238.997C580.678 238.971 581.462 238.686 582.182 238.09ZM594.5 229.102V230.812C595.722 229.569 597.164 228.895 598.825 228.895C600.204 228.895 601.332 229.284 602.272 230.087C603.181 230.864 603.651 231.977 603.651 233.428V240.965H599.514V233.739C599.514 232.159 598.825 231.382 597.446 231.382C596.443 231.382 595.44 232.029 594.5 233.35V240.965H590.363V229.102H594.5ZM611.299 223.43V234.982H611.393L616.501 229.076H621.39L616.219 234.982L621.641 240.939H616.501L611.393 235.112H611.299V240.939H607.162V223.43H611.299ZM622.77 225.269C622.77 224.699 623.02 224.207 623.459 223.818C623.866 223.404 624.462 223.223 625.089 223.223C625.684 223.223 626.248 223.43 626.687 223.818C627.157 224.207 627.377 224.699 627.377 225.269C627.377 225.839 627.157 226.331 626.687 226.719C626.248 227.134 625.684 227.341 625.089 227.341C624.462 227.341 623.898 227.134 623.459 226.719C622.989 226.305 622.77 225.813 622.77 225.269ZM627.157 229.102V240.965H622.989V229.102H627.157ZM634.836 229.102V230.812C636.058 229.569 637.5 228.895 639.161 228.895C640.54 228.895 641.668 229.284 642.609 230.087C643.486 230.864 643.988 231.977 643.988 233.428V240.965H639.819V233.739C639.819 232.159 639.13 231.382 637.751 231.382C636.748 231.382 635.776 232.029 634.836 233.35V240.965H630.699V229.102H634.836ZM660.912 229.102V231.615H659C659.47 232.262 659.658 232.962 659.658 233.609C659.658 234.516 659.251 235.371 658.53 236.148C657.778 236.899 656.65 237.391 655.114 237.52C653.641 237.676 652.795 237.805 652.575 237.961C652.387 238.09 652.262 238.246 652.262 238.479C652.262 238.66 652.418 238.867 652.638 238.971C652.92 239.126 653.954 239.23 655.741 239.385C657.527 239.515 658.781 239.955 659.502 240.629C660.222 241.354 660.567 242.105 660.567 242.908C660.567 244.203 659.94 245.187 658.781 245.861C657.559 246.56 655.803 246.923 653.578 246.923C651.228 246.923 649.472 246.612 648.313 245.964C647.09 245.317 646.526 244.488 646.526 243.478C646.526 242.053 647.655 241.017 650.037 240.447C648.971 240.162 648.407 239.67 648.407 238.893C648.407 238.013 649.253 237.443 650.82 237.106C649.754 236.925 648.877 236.51 648.187 235.863C647.467 235.163 647.122 234.386 647.122 233.428C647.122 232.288 647.592 231.304 648.626 230.449C649.629 229.569 651.102 229.128 652.983 229.128H660.912V229.102ZM653.39 231.304C652.732 231.304 652.136 231.537 651.698 231.926C651.228 232.366 651.008 232.858 651.008 233.454C651.008 234.05 651.228 234.542 651.729 234.982C652.199 235.397 652.763 235.604 653.39 235.604C654.048 235.604 654.612 235.371 655.051 234.93C655.553 234.49 655.741 233.946 655.741 233.324C655.741 232.755 655.553 232.262 655.051 231.874C654.644 231.537 654.08 231.304 653.39 231.304ZM653.735 244.669C654.612 244.669 655.365 244.54 655.929 244.255C656.462 243.944 656.744 243.581 656.744 243.193C656.744 242.312 655.678 241.872 653.515 241.872C652.512 241.872 651.76 242.027 651.165 242.286C650.632 242.545 650.35 242.882 650.35 243.271C650.35 244.203 651.478 244.669 653.735 244.669Z" fill="white"/>
<path fill-rule="evenodd" clip-rule="evenodd" d="M161.894 160.643H180.511V204.132H161.894V160.643Z" fill="white"/>
<path fill-rule="evenodd" clip-rule="evenodd" d="M316.627 160.643H335.244V204.132H316.627V160.643Z" fill="white"/>
<path fill-rule="evenodd" clip-rule="evenodd" d="M189.193 203.769H208.342V182.996L230.532 204.313H248.24V160.901H229.09V182.426L206.619 160.901H189.193V203.769Z" fill="white"/>
<path fill-rule="evenodd" clip-rule="evenodd" d="M256.702 160.616V204.053H288.106C319.416 200.039 319.542 164.087 288.106 160.616H256.702ZM275.037 171.78H280.584C287.824 171.78 293.716 176.649 293.716 182.659C293.716 188.642 287.824 193.511 280.584 193.511H275.037V171.78Z" fill="white"/>
<path fill-rule="evenodd" clip-rule="evenodd" d="M338.66 204.209H356.274L358.405 196.568H380.125L381.88 204.209H400.026L380.501 160.72H357.747L338.66 204.209ZM362.918 186.674H375.768L369.28 172.739L362.918 186.674Z" fill="white"/>
<path fill-rule="evenodd" clip-rule="evenodd" d="M403.286 203.769H422.435V182.996L444.625 204.313H462.302V160.901H443.183V182.426L420.712 160.901H403.286V203.769Z" fill="white"/>
<path fill-rule="evenodd" clip-rule="evenodd" d="M402.659 110.498H421.777V127.101H443.152V110.498H462.208V155.696H443.152V138.368H421.777V155.696H402.659V110.498Z" fill="white"/>
<path fill-rule="evenodd" clip-rule="evenodd" d="M338.754 110.523H395.921V122.515H376.646V155.696H358.029V122.515H338.754V110.523Z" fill="white"/>
<path fill-rule="evenodd" clip-rule="evenodd" d="M239.057 109.072C255.825 109.072 269.458 119.744 269.458 132.902C269.458 146.086 255.856 156.757 239.057 156.757C222.289 156.757 208.656 146.086 208.656 132.902C208.656 119.77 222.289 109.072 239.057 109.072ZM239.057 122.956C245.168 122.956 250.12 127.411 250.12 132.902C250.12 138.419 245.2 142.9 239.057 142.9C232.945 142.9 227.993 138.419 227.993 132.902C227.993 127.411 232.945 122.956 239.057 122.956Z" fill="white"/>
<path fill-rule="evenodd" clip-rule="evenodd" d="M275.037 110.419H293.904V139.066C293.904 146.111 313.43 146.448 313.43 139.066V110.263H332.674V133.86C332.078 166.315 274.003 162.015 274.817 134.87L275.037 110.419Z" fill="white"/>
<path fill-rule="evenodd" clip-rule="evenodd" d="M204.143 125.339V111.948C164.026 95.8628 153.746 126.997 171.548 134.042C202.701 146.371 173.365 146.371 162.553 139.145V153.028C200.538 163.389 218.121 144.195 197.122 130.571C193.204 128.059 190.791 127.929 186.999 126.116C177.064 121.247 183.896 113.813 204.143 125.339Z" fill="white"/>
<path fill-rule="evenodd" clip-rule="evenodd" d="M64.6107 43.3332L88.963 30.3823C104.32 22.9744 63.5765 16.4472 64.2973 36.2102L64.6107 43.3332Z" fill="white"/>
<path fill-rule="evenodd" clip-rule="evenodd" d="M64.7048 61.309C79.8426 52.6319 97.0491 45.8456 116.136 39.8623C126.792 36.5468 123.909 32.6875 112.438 29.7606C107.987 28.6209 103.631 29.398 99.3683 31.2888C86.3617 37.0908 74.8594 44.5246 64.548 53.3053L64.7048 61.309Z" fill="white"/>
<path fill-rule="evenodd" clip-rule="evenodd" d="M64.36 82.9367C79.4352 72.3946 125.194 55.688 142.243 52.1913C152.555 50.0673 147.697 44.7057 137.229 39.1886C133.311 37.0905 128.108 38.5669 123.846 40.4319C102.377 49.7306 82.1306 60.7389 64.2346 74.8812L64.36 82.9367Z" fill="white"/>
<path fill-rule="evenodd" clip-rule="evenodd" d="M64.36 106.171C93.006 90.6299 126.353 78.3784 164.37 68.3803C173.804 65.8937 170.67 60.7393 160.703 54.3674C156.974 52.0104 153.213 52.3212 148.794 53.9789C116.606 65.8419 87.4273 80.0361 64.2033 98.1155L64.36 106.171Z" fill="white"/>
<path fill-rule="evenodd" clip-rule="evenodd" d="M65.0495 129.354L64.3286 122.386C90.6241 99.6704 128.234 84.2588 169.949 70.7899C173.71 69.5984 177.502 68.6401 179.853 71.8519L186.999 81.5132C191.543 87.652 184.774 92.8582 174.149 94.3605C132.559 100.396 95.4506 111.3 65.0495 129.354Z" fill="white"/>
<path fill-rule="evenodd" clip-rule="evenodd" d="M142.212 191.361L117.891 204.312C102.502 211.694 143.246 218.247 142.525 198.51L142.212 191.361Z" fill="white"/>
<path fill-rule="evenodd" clip-rule="evenodd" d="M142.118 173.36C126.98 182.037 109.774 188.824 90.6867 194.807C80.0307 198.148 82.9454 202.008 94.4164 204.935C98.8982 206.074 103.223 205.297 107.454 203.406C120.461 197.604 131.963 190.145 142.306 181.39L142.118 173.36Z" fill="white"/>
<path fill-rule="evenodd" clip-rule="evenodd" d="M142.463 151.758C127.388 162.3 81.6291 179.006 64.5794 182.503C54.2681 184.627 59.0946 189.963 69.5627 195.506C73.5117 197.604 78.683 196.128 82.9454 194.263C104.446 184.964 124.661 173.93 142.588 159.787L142.463 151.758Z" fill="white"/>
<path fill-rule="evenodd" clip-rule="evenodd" d="M142.463 128.525C113.817 144.066 80.4695 156.318 42.4837 166.316C33.0186 168.777 36.1841 173.931 46.1193 180.303C49.8489 182.66 53.6099 182.323 58.029 180.692C90.2166 168.854 119.395 154.66 142.619 136.555L142.463 128.525Z" fill="white"/>
<path fill-rule="evenodd" clip-rule="evenodd" d="M141.773 105.317L142.494 112.259C116.199 135 78.589 150.412 36.8736 163.855C33.1126 165.046 29.3203 166.031 27.0011 162.793L19.8239 153.106C15.2794 146.967 22.0805 141.787 32.6739 140.258C74.2952 134.275 111.372 123.396 141.773 105.317Z" fill="white"/>
</svg>
