<svg width="679" height="250" viewBox="0 0 679 250" fill="none" xmlns="http://www.w3.org/2000/svg">
<path fill-rule="evenodd" clip-rule="evenodd" d="M130.154 246.362L18.562 178.146C18.562 178.146 4.61306 170.612 1.31803 156.474C-3.18518 136.763 11.6425 119.734 11.6425 119.734L156.514 208.281C167.717 215.092 170.792 229.127 163.543 239.654C156.184 250.49 141.027 252.967 130.154 246.362Z" fill="#38D200"/>
<path fill-rule="evenodd" clip-rule="evenodd" d="M24.4942 105.102C24.4942 105.102 7.36007 95.4011 7.36007 73.0065C7.36007 50.7151 24.4942 41.1174 24.4942 41.1174L85.5621 3.65538C96.7652 -3.15589 111.703 -0.163057 118.952 10.2602C126.201 20.7868 123.016 34.8221 111.813 41.6334L60.4101 73.1097L148.058 126.671C148.058 126.671 163.874 135.133 166.949 149.478C171.233 169.499 156.625 185.908 156.625 185.908L24.4942 105.102Z" fill="#0473EA"/>
<path fill-rule="evenodd" clip-rule="evenodd" d="M139.27 50.7021C133.559 50.7021 129.495 52.3534 125.431 54.8302L95.6657 72.9936L125.431 91.1569C129.495 93.6338 133.668 95.285 139.27 95.285C152.45 95.285 163.104 85.2745 163.104 72.9936C163.104 60.7127 152.45 50.7021 139.27 50.7021Z" fill="#38D200"/>
<path fill-rule="evenodd" clip-rule="evenodd" d="M24.1636 249.88C29.875 249.88 33.9388 248.229 38.0027 245.752L67.7678 227.588L38.0027 209.425C33.9388 206.948 29.7651 205.297 24.1636 205.297C10.9835 205.297 0.329529 215.307 0.329529 227.588C0.329529 239.972 10.9835 249.88 24.1636 249.88Z" fill="#0473EA"/>
<path fill-rule="evenodd" clip-rule="evenodd" d="M670.209 120.775L678.996 125.832V185.895H670.209V177.433C665.926 183.315 659.116 186.927 650.878 186.927C635.502 186.927 624.518 176.194 624.518 161.54C624.518 146.576 635.502 135.636 650.878 135.636C659.116 135.636 665.926 139.351 670.209 145.337V120.775ZM447.026 120.775L455.703 125.832V169.486C455.703 176.401 460.206 179.084 465.808 179.084C470.091 179.084 474.375 177.949 478.109 175.472V183.418C474.484 185.895 469.432 186.927 465.039 186.927C453.836 186.927 447.026 182.18 447.026 168.867V120.775ZM593.545 135.533C608.702 135.533 618.587 146.06 618.587 160.198C618.587 161.643 618.477 162.984 618.258 164.326H576.74C578.058 173.201 585.527 179.187 595.961 179.187C602.661 179.187 609.251 177.433 614.743 173.717V181.561C609.032 185.173 602.661 186.824 595.961 186.824C579.376 186.824 567.514 176.813 567.514 161.643C567.514 146.782 577.619 135.533 593.545 135.533ZM371.24 135.533C379.478 135.533 386.178 139.145 390.571 145.028V136.359H399.358V185.792H390.571V177.433C386.178 183.212 379.478 186.721 371.24 186.721C355.863 186.721 344.88 175.988 344.88 161.333C344.77 146.472 355.863 135.533 371.24 135.533ZM262.614 135.533C268.875 135.533 274.806 137.287 279.528 140.59V149.672C275.355 145.44 269.643 143.273 263.163 143.273C251.96 143.273 244.052 150.6 244.052 161.127C244.052 171.653 252.07 179.084 263.273 179.084C269.534 179.084 275.465 177.433 280.078 173.821V182.18C274.915 185.482 268.875 186.927 262.504 186.927C246.359 186.927 235.155 176.401 235.155 161.23C235.046 146.06 246.578 135.533 262.614 135.533ZM504.469 135.533C519.626 135.533 529.511 146.06 529.511 160.198C529.511 161.643 529.402 162.984 529.182 164.326H487.665C488.983 173.201 496.451 179.187 506.886 179.187C513.585 179.187 520.176 177.433 525.667 173.717V181.561C519.956 185.173 513.585 186.824 506.886 186.824C490.301 186.824 478.439 176.813 478.439 161.643C478.548 146.782 488.543 135.533 504.469 135.533ZM289.633 120.775L298.31 125.832V144.924C302.264 139.248 308.525 135.636 316.543 135.636C329.833 135.636 336.862 144.718 336.862 156.896V185.998H328.075V158.34C328.075 148.743 323.572 143.583 314.456 143.583C304.79 143.583 298.31 151.426 298.31 161.23V185.998H289.633V120.775ZM440.546 135.533V144.821C430.111 143.376 421.325 150.084 421.325 162.262V185.792H412.648V136.359H421.325V146.885C425.498 139.661 432.308 135.533 440.546 135.533ZM566.855 135.533V144.821C556.421 143.376 547.634 150.084 547.634 162.262V185.792H538.957V136.359H547.634V146.885C551.808 139.661 558.618 135.533 566.855 135.533ZM651.757 143.376C641.103 143.376 633.525 151.013 633.525 161.436C633.525 171.653 641.103 179.187 651.757 179.187C662.521 179.187 670.209 171.653 670.209 161.436C670.209 151.013 662.521 143.376 651.757 143.376ZM372.009 143.273C361.355 143.273 353.777 150.91 353.777 161.333C353.777 171.55 361.355 179.084 372.009 179.084C382.773 179.084 390.461 171.55 390.461 161.333C390.461 150.807 382.773 143.273 372.009 143.273ZM504.579 143.067C495.023 143.067 489.202 149.362 487.774 157.721H520.395C519.517 149.259 513.805 143.067 504.579 143.067ZM593.655 143.067C584.099 143.067 578.278 149.362 576.85 157.721H609.471C608.592 149.259 602.881 143.067 593.655 143.067ZM462.403 135.739C464.599 134.398 467.455 134.398 469.652 135.843L478.329 141.312L469.762 146.472C467.565 147.814 464.709 147.814 462.513 146.472L462.293 146.369C458.339 143.789 458.339 138.216 462.403 135.739ZM340.487 63.2923C348.724 63.2923 355.424 66.9043 359.817 72.7868V64.1179H368.604V113.551H359.817V105.192C355.424 110.971 348.724 114.48 340.487 114.48C325.11 114.48 314.126 103.747 314.126 89.0925C314.016 74.1284 325.11 63.2923 340.487 63.2923ZM288.974 48.3281V97.039C288.974 103.953 293.477 106.637 299.079 106.637C303.363 106.637 307.646 105.502 311.38 103.025V110.971C307.756 113.448 302.704 114.48 298.31 114.48C287.107 114.48 280.297 109.733 280.297 96.4198V53.385L288.974 48.3281ZM651.757 48.3281V113.551H642.97V104.882C638.687 110.765 631.877 114.377 623.64 114.377C608.263 114.377 597.279 103.644 597.279 88.9893C597.279 74.0252 608.263 63.0859 623.64 63.0859C631.877 63.0859 638.687 66.8011 642.97 72.7868V53.1786L651.757 48.3281ZM527.425 63.2923C535.662 63.2923 542.362 66.9043 546.755 72.7868V64.1179H555.542V113.551H546.755V105.192C542.362 110.971 535.662 114.48 527.425 114.48C512.048 114.48 501.064 103.747 501.064 89.0925C501.064 74.1284 512.048 63.2923 527.425 63.2923ZM253.937 63.2923C260.088 63.2923 265.909 64.9435 269.973 67.8331V76.3988C265.14 72.374 259.319 70.1036 254.047 70.1036C248.445 70.1036 244.491 72.4772 244.491 76.502C244.491 79.4948 246.029 81.3525 250.203 82.7973L262.724 87.5445C269.424 90.2277 272.499 94.0462 272.499 99.4126C272.499 108.804 264.371 114.686 252.949 114.686C246.029 114.686 239.659 112.932 235.155 109.63V100.857C240.757 105.811 246.908 107.978 253.058 107.978C259.209 107.978 263.712 105.502 263.712 100.961C263.712 98.2774 262.175 96.1102 258.221 94.6654L245.699 89.9181C239.329 87.3381 235.814 83.9325 235.814 77.534C235.924 68.6587 243.283 63.2923 253.937 63.2923ZM491.619 48.3281V113.551H482.832V104.882C478.548 110.765 471.739 114.377 463.501 114.377C448.124 114.377 437.141 103.644 437.141 88.9893C437.141 74.0252 448.124 63.0859 463.501 63.0859C471.739 63.0859 478.548 66.8011 482.832 72.7868V53.1786L491.619 48.3281ZM596.84 63.2923V72.5804C586.406 71.1356 577.619 77.8436 577.619 90.0214V113.551H568.942V64.1179H577.619V74.6444C581.793 67.3171 588.493 63.2923 596.84 63.2923ZM408.913 63.2923C422.203 63.2923 429.233 72.374 429.233 84.5517V113.654H420.446V85.9965C420.446 76.3988 415.943 71.2388 406.826 71.2388C397.161 71.2388 390.681 79.082 390.681 88.8861V113.654H382.004V64.2211H390.681V72.6836C394.525 66.9043 400.895 63.2923 408.913 63.2923ZM341.255 70.9292C330.601 70.9292 323.023 78.566 323.023 88.9893C323.023 99.2062 330.601 106.74 341.255 106.74C352.019 106.74 359.708 99.2062 359.708 88.9893C359.708 78.566 352.129 70.9292 341.255 70.9292ZM464.38 70.9292C453.726 70.9292 446.147 78.566 446.147 88.9893C446.147 99.2062 453.726 106.74 464.38 106.74C475.143 106.74 482.832 99.2062 482.832 88.9893C482.832 78.566 475.143 70.9292 464.38 70.9292ZM624.518 70.9292C613.864 70.9292 606.286 78.566 606.286 88.9893C606.286 99.2062 613.864 106.74 624.518 106.74C635.282 106.74 642.97 99.2062 642.97 88.9893C643.08 78.566 635.392 70.9292 624.518 70.9292ZM528.303 70.9292C517.649 70.9292 510.071 78.566 510.071 88.9893C510.071 99.2062 517.649 106.74 528.303 106.74C539.067 106.74 546.755 99.2062 546.755 88.9893C546.755 78.566 539.067 70.9292 528.303 70.9292ZM301.056 64.0147C303.253 62.6731 306.108 62.6731 308.305 64.0147L308.525 64.1179C312.698 66.5947 312.698 72.2708 308.525 74.7476C306.328 76.0892 303.472 76.0892 301.276 74.7476L292.599 69.2779L301.056 64.0147Z" fill="#525355"/>
</svg>
