<svg width="642" height="214" viewBox="0 0 642 214" fill="none" xmlns="http://www.w3.org/2000/svg">
<path d="M379.426 108.716C367.703 99.2837 352.55 93.1832 339.182 87.8256C320.74 80.3969 304.8 74.0263 304.8 62.163C304.8 56.9855 307.302 52.2356 311.843 48.7914C316.616 45.1897 323.288 43.1637 330.61 43.1637C353.686 43.1637 372.082 59.034 372.244 59.1465L376.738 63.1535L397.173 25.9202L394.833 23.5115C393.93 22.6111 372.429 1.00049 330.888 1.00049C310.986 1.00049 292.659 7.19103 279.314 18.424C272.694 23.8719 267.379 30.6594 263.741 38.3118C260.104 45.9642 258.231 54.2966 258.254 62.7258C258.254 79.4515 264.95 92.9806 278.666 104.079C290.204 113.398 304.591 119.409 318.516 125.239C337.468 133.185 353.871 140.051 353.871 152.252C353.871 161.572 347.384 171.522 329.196 171.522C303.109 171.522 282.164 152.23 281.979 152.027L278.04 148.335L252.647 182.552L255.196 185.298C255.474 185.569 262.031 192.615 274.379 199.638C290.857 208.912 309.575 213.768 328.617 213.707C349.909 213.707 368.05 207.359 381.094 195.361C393.374 184.083 400.116 168.483 400.116 151.464C400.116 133.906 393.35 119.949 379.426 108.716ZM594.153 210.623H641.765V4.0845H594.176L594.153 210.623ZM501.131 171.949H464.872V42.736H496.822C511.14 42.736 519.342 50.5248 519.342 64.0989C519.342 77.8082 511.974 84.7416 497.378 84.7416H486.373V122.785H501.108C509.147 122.785 515.866 125.216 520.5 129.854C522.794 131.988 524.591 134.575 525.77 137.441C526.949 140.306 527.482 143.384 527.335 146.467C527.335 162.225 517.303 171.972 501.108 171.972M564.312 117.833C559.68 110.712 553.168 104.928 545.453 101.085C557.848 91.4274 564.868 76.6151 564.868 59.6643C564.868 42.5559 558.149 28.2839 545.453 18.3565C533.498 9.01442 516.886 4.0845 497.378 4.0845H419.925V210.623H498.235C519.017 210.623 536.996 205.536 550.225 195.879C565.215 184.916 573.162 168.595 573.162 148.673C573.162 137.327 570.104 126.657 564.312 117.833Z" fill="#292075"/>
<path d="M110.299 0.370117C95.848 0.384889 81.5415 3.16544 68.1966 8.55298C54.8517 13.9405 42.7298 21.8295 32.5233 31.7694C22.3167 41.7093 14.2253 53.5053 8.71133 66.4839C3.19733 79.4625 0.368693 93.3693 0.386959 107.41C0.355143 133.873 10.424 159.407 28.6462 179.075C46.8685 198.743 71.9496 211.146 99.0391 213.887V136.112C93.0474 133.892 87.8903 129.958 84.2498 124.829C80.6092 119.7 78.6568 113.618 78.6507 107.388C78.6507 90.4368 92.853 76.6376 110.299 76.6376C127.745 76.6376 141.947 90.4368 141.947 107.388C141.947 120.489 133.445 131.7 121.536 136.112V213.842C148.625 211.101 173.706 198.698 191.929 179.03C210.151 159.362 220.22 133.828 220.188 107.365C220.206 79.0239 208.641 51.8353 188.035 31.776C167.429 11.7167 139.468 0.42843 110.299 0.392628" fill="#00B5EF"/>
</svg>
