<svg width="679" height="210" viewBox="0 0 679 210" fill="none" xmlns="http://www.w3.org/2000/svg">
<path fill-rule="evenodd" clip-rule="evenodd" d="M349.866 164.714C348.939 164.714 348.455 164.331 348.455 163.553V1.51657C348.455 0.586999 348.938 0.125 349.866 0.125H429.064C490.646 0.125 492.481 66.6319 459.646 79.7549C472.813 85.3659 484.174 97.0433 484.445 117.488C484.445 131.994 479.772 143.49 470.411 151.982C461.205 160.469 450.298 164.714 437.667 164.714H349.866ZM377.861 28.1487V66.6319H429.236C459.962 64.5181 459.559 27.5141 426.261 28.1487H377.861ZM377.861 94.7193V136.507H431.578C463.386 135.453 459.898 94.0158 431.578 94.7193H377.861Z" fill="#C72E8F"/>
<path fill-rule="evenodd" clip-rule="evenodd" d="M365.752 182.583C366.473 183.567 366.838 184.747 366.838 186.127C366.838 187.543 366.473 188.692 365.747 189.535C365.337 190.025 364.748 190.467 363.954 190.865C365.153 191.301 366.054 191.988 366.667 192.911C367.275 193.85 367.581 194.98 367.581 196.313C367.582 197.687 367.225 198.922 366.536 200.026C366.095 200.743 365.535 201.349 364.873 201.841C364.129 202.406 363.246 202.799 362.219 203.007C361.205 203.22 360.105 203.321 358.916 203.321H348.338V180.111H359.672C362.534 180.154 364.557 180.971 365.752 182.583ZM353.012 184.142V189.253H358.717C359.736 189.253 360.565 189.068 361.2 188.691C361.831 188.295 362.147 187.623 362.147 186.647C362.147 185.567 361.727 184.85 360.889 184.508C360.168 184.265 359.24 184.142 358.122 184.142L353.012 184.142ZM353.012 193.103V199.293H358.712C359.726 199.293 360.524 199.154 361.088 198.887C362.115 198.379 362.629 197.411 362.629 195.988C362.629 194.777 362.133 193.946 361.132 193.499C360.574 193.239 359.799 193.11 358.79 193.103H353.012Z" fill="#C72E8F"/>
<path fill-rule="evenodd" clip-rule="evenodd" d="M382.241 186.504C383.458 187.046 384.454 187.889 385.242 189.048C385.95 190.067 386.418 191.238 386.631 192.59C386.747 193.378 386.792 194.516 386.779 195.999H374.133C374.215 197.718 374.819 198.922 375.959 199.629C376.644 200.06 377.477 200.269 378.456 200.269C379.488 200.269 380.33 200.002 380.974 199.48C381.326 199.194 381.633 198.805 381.907 198.302H386.545C386.418 199.315 385.855 200.358 384.855 201.403C383.309 203.07 381.118 203.913 378.33 203.913C376.027 203.913 373.98 203.209 372.219 201.8C370.451 200.39 369.564 198.093 369.564 194.922C369.564 191.943 370.361 189.671 371.966 188.076C373.557 186.499 375.625 185.703 378.168 185.703C379.673 185.703 381.038 185.967 382.241 186.504ZM375.463 190.381C374.819 191.037 374.417 191.916 374.251 193.044H382.065C381.986 191.847 381.579 190.944 380.862 190.333C380.141 189.713 379.231 189.4 378.168 189.4C377.004 189.4 376.094 189.733 375.463 190.381Z" fill="#C72E8F"/>
<path fill-rule="evenodd" clip-rule="evenodd" d="M404.022 192.874C404.864 192.768 405.468 192.648 405.828 192.489C406.478 192.215 406.806 191.783 406.806 191.207C406.807 190.51 406.559 190.019 406.058 189.753C405.553 189.489 404.823 189.357 403.855 189.357C402.764 189.357 401.997 189.615 401.547 190.143C401.224 190.529 401.012 191.06 400.907 191.72H396.523C396.623 190.217 397.045 188.982 397.797 188.019C399.014 186.5 401.074 185.752 404.003 185.752C405.918 185.752 407.604 186.118 409.091 186.868C410.569 187.615 411.303 189.018 411.303 191.083V198.964C411.303 199.503 411.314 200.171 411.348 200.943C411.365 201.534 411.46 201.942 411.609 202.144C411.757 202.353 411.983 202.526 412.285 202.661V203.321H407.346C407.21 202.977 407.111 202.651 407.058 202.353C407.005 202.045 406.967 201.693 406.931 201.309C406.296 201.976 405.579 202.551 404.755 203.03C403.771 203.577 402.664 203.86 401.429 203.86C399.847 203.86 398.544 203.411 397.512 202.526C396.485 201.64 395.967 200.384 395.967 198.754C395.967 196.649 396.792 195.11 398.445 194.178C399.356 193.661 400.694 193.295 402.461 193.079L404.022 192.874ZM406.793 194.975C406.5 195.152 406.203 195.299 405.918 195.409C405.621 195.515 405.215 195.625 404.693 195.716L403.661 195.906C402.687 196.076 401.997 196.278 401.574 196.519C400.862 196.924 400.506 197.574 400.506 198.432C400.506 199.19 400.723 199.748 401.155 200.083C401.596 200.425 402.133 200.6 402.754 200.6C403.746 200.6 404.657 200.314 405.495 199.748C406.324 199.182 406.766 198.144 406.793 196.648L406.793 194.975Z" fill="#C72E8F"/>
<path fill-rule="evenodd" clip-rule="evenodd" d="M426.87 197.839C426.963 198.642 427.18 199.213 427.488 199.539C428.059 200.136 429.104 200.448 430.628 200.448C431.525 200.448 432.236 200.311 432.764 200.051C433.283 199.779 433.557 199.387 433.557 198.872C433.557 198.365 433.345 197.977 432.912 197.718C432.485 197.459 430.907 197.005 428.177 196.365C426.199 195.881 424.81 195.279 424.004 194.549C423.196 193.836 422.796 192.806 422.796 191.461C422.796 189.883 423.427 188.52 424.689 187.369C425.945 186.233 427.721 185.663 430.006 185.663C432.178 185.663 433.945 186.093 435.31 186.945C436.671 187.809 437.455 189.283 437.668 191.382H433.129C433.058 190.805 432.894 190.353 432.628 190.011C432.132 189.405 431.281 189.102 430.083 189.102C429.095 189.102 428.379 189.253 427.96 189.557C427.537 189.86 427.329 190.217 427.329 190.627C427.33 191.145 427.555 191.514 427.996 191.747C428.442 191.987 430.029 192.402 432.737 192.996C434.544 193.406 435.897 194.044 436.802 194.9C437.698 195.758 438.135 196.833 438.135 198.124C438.135 199.828 437.497 201.217 436.216 202.285C434.932 203.365 432.954 203.913 430.272 203.913C427.537 203.913 425.531 203.342 424.22 202.199C422.922 201.063 422.268 199.609 422.268 197.839L426.87 197.839Z" fill="#C72E8F"/>
<path fill-rule="evenodd" clip-rule="evenodd" d="M439.208 189.509V186.32H441.628V181.526H446.122V186.32H448.929V189.509H446.122V198.577C446.122 199.284 446.201 199.729 446.379 199.898C446.558 200.076 447.109 200.165 448.037 200.165C448.18 200.165 448.326 200.162 448.474 200.137C448.632 200.137 448.78 200.134 448.928 200.13L448.929 203.484L446.785 203.563C444.639 203.633 443.174 203.267 442.386 202.462C441.885 201.949 441.628 201.157 441.628 200.078V189.512L439.208 189.509Z" fill="#C72E8F"/>
<path fill-rule="evenodd" clip-rule="evenodd" d="M462.655 186.504C463.868 187.046 464.869 187.889 465.657 189.048C466.369 190.067 466.825 191.238 467.041 192.59C467.163 193.378 467.208 194.516 467.19 195.999H454.558C454.62 197.718 455.233 198.922 456.365 199.629C457.063 200.06 457.897 200.269 458.862 200.269C459.899 200.269 460.741 200.002 461.391 199.48C461.737 199.194 462.052 198.805 462.327 198.302H466.955C466.834 199.315 466.275 200.358 465.27 201.403C463.72 203.07 461.543 203.913 458.749 203.913C456.441 203.913 454.4 203.209 452.638 201.8C450.877 200.39 449.988 198.093 449.988 194.922C449.988 191.943 450.776 189.671 452.376 188.076C453.968 186.499 456.036 185.703 458.582 185.703C460.092 185.703 461.453 185.967 462.655 186.504ZM455.878 190.381C455.234 191.037 454.828 191.916 454.67 193.044H462.48C462.392 191.847 461.998 190.944 461.273 190.333C460.551 189.713 459.659 189.4 458.582 189.4C457.419 189.4 456.514 189.733 455.878 190.381Z" fill="#C72E8F"/>
<path fill-rule="evenodd" clip-rule="evenodd" d="M484.716 188.2C486.115 189.664 486.831 191.81 486.831 194.633C486.831 197.619 486.132 199.899 484.761 201.467C483.38 203.032 481.611 203.813 479.448 203.813C478.068 203.813 476.925 203.478 476.01 202.799C475.509 202.424 475.017 201.883 474.541 201.165V210H470.088V186.374H474.403V188.885C474.895 188.143 475.415 187.56 475.966 187.145C476.975 186.383 478.175 186.002 479.554 186.002C481.594 186.002 483.31 186.731 484.716 188.2ZM481.249 191.387C480.635 190.383 479.649 189.876 478.269 189.876C476.615 189.876 475.482 190.634 474.868 192.163C474.541 192.979 474.389 194.002 474.389 195.252C474.39 197.207 474.922 198.602 476.01 199.401C476.634 199.857 477.391 200.099 478.269 200.099C479.542 200.099 480.505 199.619 481.177 198.672C481.835 197.708 482.166 196.439 482.166 194.858C482.167 193.547 481.858 192.382 481.249 191.387Z" fill="#C72E8F"/>
<path fill-rule="evenodd" clip-rule="evenodd" d="M503.846 192.874C504.693 192.768 505.305 192.648 505.662 192.489C506.316 192.215 506.635 191.783 506.635 191.207C506.635 190.51 506.387 190.019 505.891 189.753C505.392 189.489 504.657 189.357 503.693 189.357C502.61 189.357 501.826 189.615 501.38 190.143C501.061 190.529 500.84 191.06 500.736 191.72H496.365C496.453 190.217 496.883 188.982 497.64 188.019C498.843 186.5 500.912 185.752 503.845 185.752C505.748 185.752 507.447 186.118 508.924 186.868C510.407 187.615 511.141 189.018 511.141 191.083V198.964C511.141 199.503 511.159 200.171 511.177 200.943C511.212 201.534 511.307 201.942 511.452 202.144C511.606 202.353 511.817 202.526 512.12 202.661V203.321H507.181C507.054 202.977 506.958 202.651 506.9 202.353C506.838 202.045 506.805 201.693 506.775 201.309C506.139 201.976 505.413 202.551 504.593 203.03C503.616 203.577 502.502 203.86 501.267 203.86C499.681 203.86 498.378 203.411 497.355 202.526C496.32 201.64 495.81 200.384 495.81 198.754C495.81 196.649 496.635 195.11 498.289 194.178C499.204 193.661 500.542 193.295 502.3 193.079L503.846 192.874ZM506.623 194.975C506.334 195.152 506.04 195.299 505.748 195.409C505.446 195.515 505.045 195.625 504.531 195.716L503.495 195.906C502.53 196.076 501.826 196.278 501.408 196.519C500.696 196.924 500.344 197.574 500.344 198.432C500.344 199.19 500.551 199.748 500.989 200.083C501.426 200.425 501.966 200.6 502.588 200.6C503.571 200.6 504.49 200.314 505.324 199.748C506.154 199.182 506.59 198.144 506.622 196.648L506.623 194.975Z" fill="#C72E8F"/>
<path fill-rule="evenodd" clip-rule="evenodd" d="M527.086 186.256C527.961 186.618 528.677 187.184 529.235 187.941C529.714 188.576 529.997 189.236 530.114 189.911C530.21 190.595 530.268 191.706 530.268 193.227V203.32H525.631V192.869C525.631 191.943 525.473 191.195 525.158 190.627C524.752 189.835 523.973 189.436 522.819 189.436C521.634 189.436 520.728 189.835 520.11 190.623C519.502 191.414 519.187 192.544 519.187 194.019V203.32H514.653V180.186H519.187V188.366C519.844 187.387 520.602 186.691 521.462 186.291C522.328 185.9 523.229 185.703 524.184 185.703C525.248 185.703 526.221 185.891 527.086 186.256Z" fill="#C72E8F"/>
<path fill-rule="evenodd" clip-rule="evenodd" d="M545.346 186.504C546.549 187.046 547.55 187.889 548.344 189.048C549.051 190.067 549.51 191.238 549.722 192.59C549.853 193.378 549.898 194.516 549.875 195.999H537.24C537.319 197.718 537.916 198.922 539.047 199.629C539.749 200.06 540.584 200.269 541.561 200.269C542.589 200.269 543.432 200.002 544.076 199.48C544.428 199.194 544.743 198.805 545.009 198.302H549.642C549.519 199.315 548.956 200.358 547.955 201.403C546.406 203.07 544.224 203.913 541.426 203.913C539.128 203.913 537.081 203.209 535.325 201.8C533.553 200.39 532.665 198.093 532.665 194.922C532.665 191.943 533.464 189.671 535.067 188.076C536.659 186.499 538.722 185.703 541.268 185.703C542.774 185.703 544.139 185.967 545.346 186.504ZM538.564 190.381C537.924 191.037 537.518 191.916 537.356 193.044H545.167C545.078 191.847 544.679 190.944 543.95 190.333C543.237 189.713 542.34 189.4 541.268 189.4C540.106 189.4 539.2 189.733 538.564 190.381Z" fill="#C72E8F"/>
<path fill-rule="evenodd" clip-rule="evenodd" d="M558.551 192.874C559.398 192.768 560.002 192.648 560.367 192.489C561.016 192.215 561.345 191.783 561.345 191.207C561.345 190.51 561.092 190.019 560.592 189.753C560.092 189.489 559.356 189.357 558.388 189.357C557.302 189.357 556.536 189.615 556.086 190.143C555.762 190.529 555.54 191.06 555.436 191.72H551.061C551.16 190.217 551.579 188.982 552.336 188.019C553.54 186.5 555.613 185.752 558.538 185.752C560.448 185.752 562.142 186.118 563.631 186.868C565.104 187.615 565.847 189.018 565.847 191.083V198.964C565.847 199.503 565.857 200.171 565.882 200.943C565.899 201.534 566.004 201.942 566.143 202.144C566.301 202.353 566.526 202.526 566.818 202.661V203.321H561.889C561.749 202.977 561.644 202.651 561.595 202.353C561.542 202.045 561.495 201.693 561.474 201.309C560.839 201.976 560.112 202.551 559.297 203.03C558.315 203.577 557.216 203.86 555.963 203.86C554.38 203.86 553.074 203.411 552.051 202.526C551.023 201.64 550.505 200.384 550.505 198.754C550.505 196.649 551.334 195.11 552.997 194.178C553.898 193.661 555.232 193.295 557.008 193.079L558.551 192.874ZM561.323 194.975C561.038 195.152 560.736 195.299 560.448 195.409C560.15 195.515 559.749 195.625 559.231 195.716L558.195 195.906C557.226 196.076 556.536 196.278 556.109 196.519C555.396 196.924 555.036 197.574 555.036 198.432C555.036 199.19 555.257 199.748 555.698 200.083C556.131 200.425 556.662 200.6 557.284 200.6C558.281 200.6 559.187 200.314 560.024 199.748C560.858 199.182 561.296 198.144 561.322 196.648L561.323 194.975Z" fill="#C72E8F"/>
<path fill-rule="evenodd" clip-rule="evenodd" d="M578.515 186.43C579.331 186.889 579.998 187.523 580.506 188.33V180.142H585.098V203.32H580.697V200.942C580.043 201.966 579.312 202.704 578.483 203.168C577.659 203.632 576.631 203.86 575.396 203.86C573.364 203.86 571.67 203.052 570.286 201.42C568.894 199.799 568.204 197.718 568.204 195.185C568.204 192.248 568.889 189.944 570.25 188.263C571.607 186.591 573.436 185.752 575.721 185.752C576.766 185.752 577.698 185.979 578.515 186.43ZM579.628 198.665C580.299 197.718 580.637 196.492 580.637 194.996C580.638 192.897 580.101 191.389 579.016 190.491C578.371 189.94 577.608 189.67 576.739 189.67C575.41 189.67 574.431 190.167 573.805 191.158C573.196 192.152 572.881 193.378 572.881 194.858C572.881 196.433 573.196 197.703 573.828 198.652C574.454 199.609 575.418 200.076 576.698 200.076C577.987 200.076 578.965 199.609 579.628 198.665Z" fill="#C72E8F"/>
<path fill-rule="evenodd" clip-rule="evenodd" d="M611.773 201.218C610.304 203.016 608.082 203.913 605.103 203.913C602.116 203.913 599.899 203.016 598.438 201.218C596.965 199.435 596.234 197.288 596.234 194.77C596.234 192.29 596.964 190.143 598.438 188.321C599.899 186.515 602.115 185.611 605.103 185.611C608.082 185.611 610.303 186.515 611.773 188.321C613.241 190.143 613.968 192.29 613.968 194.77C613.968 197.288 613.242 199.435 611.773 201.218ZM608.145 198.739C608.853 197.808 609.204 196.485 609.204 194.77C609.204 193.048 608.853 191.724 608.145 190.792C607.437 189.868 606.41 189.4 605.09 189.4C603.764 189.4 602.742 189.868 602.03 190.792C601.308 191.724 600.953 193.048 600.953 194.77C600.953 196.485 601.308 197.808 602.03 198.739C602.743 199.672 603.764 200.136 605.09 200.136C606.41 200.136 607.437 199.672 608.145 198.739Z" fill="#C72E8F"/>
<path fill-rule="evenodd" clip-rule="evenodd" d="M623.9 179.892C624.134 179.909 624.451 179.927 624.859 179.971V183.623C624.604 183.596 624.175 183.571 623.575 183.553C622.976 183.546 622.562 183.67 622.331 183.948C622.106 184.223 621.994 184.528 621.994 184.874C621.994 185.202 621.994 185.691 621.994 186.325H624.964V189.489H621.994V203.325H617.487V189.489H614.945V186.325H617.419V185.217C617.419 183.38 617.744 182.118 618.357 181.422C619.025 180.392 620.614 179.883 623.124 179.883C623.409 179.883 623.674 179.883 623.9 179.9" fill="#C72E8F"/>
<path fill-rule="evenodd" clip-rule="evenodd" d="M640.291 203.32H635.753V180.11H640.291V203.32Z" fill="#C72E8F"/>
<path fill-rule="evenodd" clip-rule="evenodd" d="M648.889 184.114H644.293V179.968H648.889V184.114ZM644.293 186.153H648.889V203.32H644.293V186.153Z" fill="#C72E8F"/>
<path fill-rule="evenodd" clip-rule="evenodd" d="M659.971 179.892C660.201 179.909 660.521 179.927 660.917 179.971V183.623C660.664 183.596 660.24 183.571 659.641 183.553C659.042 183.546 658.632 183.67 658.407 183.948C658.172 184.223 658.064 184.528 658.064 184.874C658.064 185.202 658.064 185.691 658.064 186.325H661.038V189.489H658.064V203.325H653.553V189.489H651.016V186.325H653.494V185.217C653.494 183.38 653.804 182.118 654.428 181.422C655.09 180.392 656.672 179.883 659.191 179.883C659.474 179.883 659.732 179.883 659.97 179.9" fill="#C72E8F"/>
<path fill-rule="evenodd" clip-rule="evenodd" d="M674.455 186.504C675.676 187.046 676.667 187.889 677.451 189.048C678.168 190.067 678.628 191.238 678.844 192.59C678.961 193.378 679.011 194.516 678.992 195.999H666.356C666.427 197.718 667.033 198.922 668.173 199.629C668.858 200.06 669.701 200.269 670.669 200.269C671.705 200.269 672.545 200.002 673.189 199.48C673.535 199.194 673.851 198.805 674.116 198.302H678.758C678.633 199.315 678.079 200.358 677.077 201.403C675.514 203.07 673.346 203.913 670.543 203.913C668.235 203.913 666.203 203.209 664.432 201.8C662.665 200.39 661.787 198.093 661.787 194.922C661.788 191.943 662.584 189.671 664.184 188.076C665.771 186.499 667.839 185.703 670.385 185.703C671.89 185.703 673.247 185.967 674.455 186.504ZM667.677 190.381C667.037 191.037 666.636 191.916 666.464 193.044H674.278C674.199 191.847 673.797 190.944 673.076 190.333C672.35 189.713 671.457 189.4 670.385 189.4C669.214 189.4 668.317 189.733 667.677 190.381Z" fill="#C72E8F"/>
<path fill-rule="evenodd" clip-rule="evenodd" d="M54.5275 164.714C53.5928 164.714 53.1241 164.331 53.1241 163.553V28.216H1.73382C0.798249 28.216 0.329529 27.753 0.329529 26.8269V1.51657C0.329529 0.586999 0.798258 0.125 1.73382 0.125H135.457C136.396 0.125 136.864 0.587068 136.864 1.51657V26.8269C136.864 27.7527 136.396 28.216 135.457 28.216H84.3138V163.553C84.3138 164.331 83.8451 164.714 82.912 164.714H54.5275Z" fill="#C72E8F"/>
<path fill-rule="evenodd" clip-rule="evenodd" d="M133.764 163.56C133.331 164.447 132.781 164.741 132.119 164.741H101.172C100.515 164.741 99.9783 164.211 99.9783 163.56L165.066 1.18145C165.156 0.848599 165.634 0.158645 166.278 0.158645L197.662 0C198.325 0 198.86 0.534495 198.86 1.18151L133.764 163.56Z" fill="#C72E8F"/>
<path fill-rule="evenodd" clip-rule="evenodd" d="M230.83 163.662C231.11 164.3 231.709 164.841 232.362 164.841H263.431C264.085 164.841 264.841 164.3 264.624 163.662L199.181 1.18151C198.86 0.252138 198.226 0 197.572 0H166.594C165.932 0 165.282 0.361829 165.125 1.01237L230.83 163.662Z" fill="#3052A1"/>
<path fill-rule="evenodd" clip-rule="evenodd" d="M299.393 163.381C299.631 164.014 300.146 164.565 300.812 164.565H331.984C332.642 164.565 333.332 164.037 333.183 163.381L267.91 1.18135C267.531 0.486362 267.311 0.11582 266.657 0.11582L235.318 0C234.656 0 234.111 0.53453 234.111 1.18151L299.393 163.381Z" fill="#3052A1"/>
<path fill-rule="evenodd" clip-rule="evenodd" d="M219.609 39.2142C220.195 40.5674 232.088 70.6546 234.967 77.9738C235.292 78.7228 236.107 78.9563 236.599 77.9216C237.067 76.9022 267.725 0.909192 267.725 0.909192C267.568 0.373789 266.981 0.00146484 266.369 0.00146484H234.967C234.521 0.0187471 233.986 0.582207 233.769 1.18297L219.482 36.6579C219.482 36.6579 218.955 37.6725 219.609 39.2142Z" fill="#C72E8F"/>
<path fill-rule="evenodd" clip-rule="evenodd" d="M548.182 35.3432V58.2096H544.13V35.3432H536.761V31.7368H555.54V35.3432H548.182Z" fill="#3052A1"/>
<path fill-rule="evenodd" clip-rule="evenodd" d="M566.176 58.2095V56.4985C564.783 57.8683 563.463 58.43 561.101 58.43C558.731 58.43 557.144 57.8685 555.982 56.7147C555.013 55.7181 554.486 54.269 554.486 52.6768C554.486 49.5029 556.703 47.242 561.061 47.242H566.094V45.898C566.094 43.5203 564.892 42.3695 561.921 42.3695C559.816 42.3695 558.807 42.8551 557.758 44.1942L555.244 41.8567C557.042 39.7699 558.916 39.1362 562.079 39.1362C567.298 39.1362 569.92 41.3325 569.92 45.6095V58.2095H566.176ZM566.097 49.8822H561.622C559.372 49.8822 558.21 50.8859 558.21 52.5941C558.21 54.3047 559.295 55.2681 561.698 55.2681C563.168 55.2681 564.258 55.1609 565.268 54.1929C565.836 53.6332 566.097 52.7438 566.097 51.4037L566.097 49.8822Z" fill="#3052A1"/>
<path fill-rule="evenodd" clip-rule="evenodd" d="M597.722 58.2095V46.7202C597.722 43.7872 596.036 42.5184 593.886 42.5184C591.832 42.5184 589.948 43.8211 589.948 46.5373V58.2095H586.113V46.7202C586.113 43.7872 584.428 42.5184 582.287 42.5184C580.142 42.5184 578.348 43.8211 578.348 46.7202V58.2095H574.509V39.3592H578.268V41.2593C579.547 39.8772 581.422 39.1362 583.332 39.1362C585.707 39.1362 587.555 40.0683 588.749 41.8881C590.282 40.0236 592.201 39.1362 594.72 39.1362C596.672 39.1362 598.397 39.7701 599.528 40.8495C600.997 42.2559 601.561 44.0468 601.561 46.1608V58.2095H597.722Z" fill="#3052A1"/>
<path fill-rule="evenodd" clip-rule="evenodd" d="M606.026 35.644V31.626H610.084V35.644H606.026ZM606.145 58.2095V39.3593H609.974V58.2095H606.145Z" fill="#3052A1"/>
<path fill-rule="evenodd" clip-rule="evenodd" d="M619.857 58.2096C616.211 58.2096 614.634 55.7943 614.634 53.0049V31.7368H618.461V52.779C618.461 54.2291 618.992 54.9692 620.529 54.9692L622.22 54.9683V58.2096H619.857Z" fill="#3052A1"/>
<path fill-rule="evenodd" clip-rule="evenodd" d="M636.713 58.2095V46.7202C636.713 43.7872 635.036 42.5184 632.891 42.5184C630.75 42.5184 628.947 43.8211 628.947 46.7202V58.2095H625.112V39.3592H628.871V41.2593C630.186 39.8459 632.025 39.1362 633.945 39.1362C635.892 39.1362 637.505 39.7701 638.637 40.8495C640.097 42.2559 640.547 44.0468 640.547 46.1608L640.548 58.2095H636.713Z" fill="#3052A1"/>
<path fill-rule="evenodd" clip-rule="evenodd" d="M655.396 58.2095V56.4985C654.004 57.8683 652.684 58.43 650.331 58.43C647.947 58.43 646.374 57.8685 645.208 56.7147C644.234 55.7181 643.711 54.269 643.711 52.6768C643.711 49.5029 645.919 47.242 650.281 47.242H655.315V45.898C655.315 43.5203 654.107 42.3695 651.151 42.3695C649.046 42.3695 648.023 42.8551 646.977 44.1942L644.463 41.8567C646.261 39.7699 648.141 39.1362 651.295 39.1362C656.519 39.1362 659.146 41.3325 659.146 45.6095V58.2095H655.396ZM655.317 49.8822H650.855C648.593 49.8822 647.426 50.8859 647.426 52.5941C647.426 54.3047 648.521 55.2681 650.918 55.2681C652.388 55.2681 653.474 55.1609 654.492 54.1929C655.056 53.6332 655.317 52.7438 655.317 51.4037L655.317 49.8822Z" fill="#3052A1"/>
<path fill-rule="evenodd" clip-rule="evenodd" d="M674.666 58.2096V56.2006C673.233 57.906 671.691 58.4301 669.627 58.4301C667.713 58.4301 666.022 57.8049 664.968 56.7558C663.058 54.8674 662.836 51.6279 662.836 48.761C662.837 45.898 663.058 42.707 664.968 40.8103C666.022 39.77 667.677 39.1363 669.583 39.1363C671.615 39.1363 673.197 39.6247 674.589 41.2594V31.7368H678.412V58.2096H674.666ZM670.646 42.5185C667.186 42.5185 666.658 45.4161 666.658 48.761C666.658 52.1109 667.186 55.0486 670.646 55.0486C674.094 55.0486 674.589 52.1109 674.589 48.761C674.589 45.4152 674.093 42.5185 670.646 42.5185Z" fill="#3052A1"/>
<path fill-rule="evenodd" clip-rule="evenodd" d="M535.64 95.3839V77.6875L529.484 90.5932H526.477L520.159 77.6875V95.3839H516.113V68.9102H520.159L527.974 85.3826L535.64 68.9102H539.701V95.3839H535.64Z" fill="#3052A1"/>
<path fill-rule="evenodd" clip-rule="evenodd" d="M547.708 87.0622C547.708 90.2884 549.424 92.3429 552.548 92.3429C554.684 92.342 555.815 91.743 557.162 90.409L559.609 92.6724C557.65 94.61 555.815 95.6119 552.466 95.6119C547.708 95.6119 543.904 93.119 543.904 85.9435C543.905 79.8467 547.09 76.3145 551.989 76.3145C557.091 76.3135 560.06 80.0333 560.06 85.3836V87.0622H547.708ZM555.734 81.8479C555.135 80.444 553.783 79.4779 551.989 79.4779C550.174 79.4779 548.79 80.444 548.19 81.8488C547.816 82.7095 547.739 83.2676 547.708 84.422H556.271C556.227 83.2676 556.113 82.7095 555.734 81.8479Z" fill="#3052A1"/>
<path fill-rule="evenodd" clip-rule="evenodd" d="M574.297 80.9587C573.432 80.1007 572.76 79.6993 571.439 79.6993C569.375 79.6993 567.645 81.3309 567.645 83.9406V95.3843H563.814V76.5326H567.573V78.5815C568.546 77.2421 570.502 76.3145 572.643 76.3145C574.486 76.3135 575.878 76.7957 577.18 78.0986L574.297 80.9587Z" fill="#3052A1"/>
<path fill-rule="evenodd" clip-rule="evenodd" d="M585.342 95.6119C581.056 95.6119 576.852 93.0073 576.852 85.9435C576.852 78.879 581.056 76.3145 585.342 76.3145C587.97 76.3135 589.812 77.0547 591.619 78.9565L588.984 81.481C587.78 80.1764 586.833 79.6993 585.342 79.6993C583.873 79.6993 582.633 80.2878 581.813 81.3718C580.98 82.4154 580.678 83.7505 580.678 85.9435C580.678 88.1416 580.98 89.5152 581.813 90.5517C582.634 91.6339 583.873 92.227 585.342 92.227C586.834 92.227 587.78 91.743 588.983 90.4427L591.619 92.929C589.813 94.8287 587.97 95.6119 585.342 95.6119Z" fill="#3052A1"/>
<path fill-rule="evenodd" clip-rule="evenodd" d="M604.829 95.3843V93.6762C603.439 95.054 602.125 95.6119 599.763 95.6119C597.402 95.6119 595.815 95.0538 594.653 93.8967C593.675 92.8957 593.151 91.4456 593.151 89.8454C593.152 86.6899 595.365 84.422 599.722 84.422H604.748V83.0774C604.748 80.7074 603.558 79.552 600.588 79.552C598.478 79.552 597.469 80.0332 596.415 81.3718L593.896 79.0324C595.702 76.9407 597.577 76.3145 600.745 76.3145C605.96 76.3135 608.591 78.511 608.591 82.7739V95.3843H604.829ZM604.75 87.0622H600.292C598.04 87.0622 596.867 88.0607 596.867 89.7714C596.867 91.4857 597.958 92.4448 600.361 92.4448C601.825 92.4448 602.919 92.3428 603.929 91.3681C604.498 90.8136 604.75 89.9215 604.75 88.5916V87.0622Z" fill="#3052A1"/>
<path fill-rule="evenodd" clip-rule="evenodd" d="M624.778 95.3843V83.8963C624.778 80.9587 623.094 79.6993 620.948 79.6993C618.798 79.6993 617 80.9968 617 83.8963L617.001 95.3843H613.174V76.5326H616.929V78.4369C618.245 77.0225 620.079 76.3145 621.998 76.3145C623.954 76.3135 625.568 76.9405 626.689 78.0315C628.163 79.436 628.613 81.222 628.613 83.3433L628.614 95.3843H624.778Z" fill="#3052A1"/>
<path fill-rule="evenodd" clip-rule="evenodd" d="M638.871 95.3846C635.302 95.3846 633.643 92.8629 633.643 90.1424V79.7704H631.466V76.8765H633.643V71.1504H637.483V76.8765H641.16V79.7704H637.483V89.9594C637.483 91.3353 638.154 92.1557 639.587 92.1557H641.16V95.3846H638.871Z" fill="#3052A1"/>
<path fill-rule="evenodd" clip-rule="evenodd" d="M644.622 72.8273V68.8013H648.672V72.8273H644.622ZM644.729 95.3847V76.5331H648.56V95.3847H644.729Z" fill="#3052A1"/>
<path fill-rule="evenodd" clip-rule="evenodd" d="M658.439 95.3839C654.797 95.3839 653.223 92.9713 653.223 90.1834L653.224 68.9102H657.05V89.9586C657.05 91.4053 657.572 92.155 659.119 92.155H660.804V95.3839H658.439Z" fill="#3052A1"/>
<path fill-rule="evenodd" clip-rule="evenodd" d="M665.573 87.0622C665.573 90.2884 667.298 92.3429 670.412 92.3429C672.552 92.342 673.689 91.743 675.041 90.409L677.477 92.6724C675.527 94.61 673.689 95.6119 670.34 95.6119C665.573 95.6119 661.778 93.119 661.778 85.9435C661.778 79.8467 664.968 76.3145 669.848 76.3145C674.963 76.3135 677.933 80.0333 677.933 85.3836L677.934 87.0622H665.573ZM673.608 81.8479C673.012 80.444 671.66 79.4779 669.848 79.4779C668.051 79.4779 666.658 80.444 666.059 81.8488C665.685 82.7095 665.603 83.2676 665.572 84.422H674.139C674.095 83.2676 673.985 82.7095 673.608 81.8479Z" fill="#3052A1"/>
<path fill-rule="evenodd" clip-rule="evenodd" d="M554.035 132.562H543.22V106.097H553.62C558.583 106.097 561.696 108.885 561.696 113.34C561.697 116.208 559.894 118.248 558.095 118.964C560.164 119.774 562.111 121.743 562.111 125.093C562.111 129.964 558.771 132.562 554.035 132.562ZM553.287 109.701H547.276V117.283H553.287C555.883 117.283 557.64 115.949 557.64 113.496C557.64 111.044 555.883 109.701 553.287 109.701ZM553.66 120.889H547.276V128.962H553.66C556.482 128.962 558.05 127.247 558.05 124.909C558.05 122.563 556.482 120.889 553.66 120.889Z" fill="#3052A1"/>
<path fill-rule="evenodd" clip-rule="evenodd" d="M576.608 132.563V130.857C575.23 132.224 573.909 132.787 571.543 132.787C569.172 132.787 567.6 132.224 566.432 131.08C565.459 130.077 564.932 128.627 564.932 127.02C564.932 123.868 567.145 121.596 571.503 121.596H576.541V120.263C576.541 117.876 575.337 116.728 572.368 116.728C570.268 116.728 569.249 117.214 568.199 118.545L565.685 116.208C567.483 114.13 569.371 113.496 572.521 113.496C577.74 113.496 580.367 115.689 580.367 119.964V132.563H576.608ZM576.538 124.239H572.068C569.81 124.239 568.651 125.239 568.651 126.952C568.651 128.655 569.737 129.626 572.135 129.626C573.609 129.626 574.69 129.519 575.704 128.549C576.268 127.987 576.538 127.095 576.538 125.761L576.538 124.239Z" fill="#3052A1"/>
<path fill-rule="evenodd" clip-rule="evenodd" d="M596.563 132.563V121.076C596.563 118.138 594.873 116.872 592.737 116.872C590.588 116.872 588.781 118.175 588.781 121.076V132.563H584.955V113.715H588.708V115.605C590.024 114.202 591.862 113.496 593.783 113.496C595.734 113.496 597.352 114.13 598.478 115.203C599.935 116.614 600.389 118.403 600.389 120.519L600.39 132.563H596.563Z" fill="#3052A1"/>
<path fill-rule="evenodd" clip-rule="evenodd" d="M616.965 132.562L611.625 123.868L608.808 127.019V132.562H604.973V106.097H608.808V122.416L616.211 113.715H620.873L614.256 121.119L621.696 132.562H616.965Z" fill="#3052A1"/>
<path fill-rule="evenodd" clip-rule="evenodd" d="M632.399 132.562V106.097H636.455V128.962H649.344V132.562H632.399Z" fill="#3052A1"/>
<path fill-rule="evenodd" clip-rule="evenodd" d="M657.875 132.562C654.297 132.562 652.647 130.036 652.647 127.323V116.951H650.48V114.047H652.647V108.333H656.483V114.047H660.165V116.951H656.483V127.139C656.483 128.522 657.158 129.33 658.582 129.33H660.165V132.562H657.875Z" fill="#3052A1"/>
<path fill-rule="evenodd" clip-rule="evenodd" d="M674.666 132.562V130.556C673.233 132.271 671.692 132.786 669.633 132.786C667.713 132.786 666.022 132.161 664.968 131.113C663.058 129.222 662.836 125.984 662.836 123.12C662.837 120.262 663.058 117.06 664.968 115.164C666.022 114.13 667.677 113.496 669.583 113.496C671.615 113.496 673.202 113.975 674.589 115.605V106.097H678.412V132.562H674.666ZM670.646 116.872C667.181 116.872 666.658 119.774 666.658 123.12C666.658 126.465 667.181 129.405 670.646 129.405C674.094 129.405 674.589 126.465 674.589 123.12C674.589 119.774 674.093 116.872 670.646 116.872Z" fill="#3052A1"/>
</svg>
