<svg width="680" height="120" viewBox="0 0 680 120" fill="none" xmlns="http://www.w3.org/2000/svg">
<path fill-rule="evenodd" clip-rule="evenodd" d="M280.899 57.1262C280.899 48.7663 286.67 41.9738 293.846 41.9738C301.023 41.9738 306.794 48.7663 306.794 57.1262C306.794 65.4862 301.023 72.2786 293.846 72.2786C286.67 72.2786 280.899 65.4862 280.899 57.1262Z" fill="#1E79BE"/>
<path fill-rule="evenodd" clip-rule="evenodd" d="M345.488 98.8389V21.074L327.14 0H260.183L243.61 20.7257V99.4485L260.183 119.826H291.701V78.8098L273.796 58.0842L291.923 33.0914V23.6865L263.586 60.3483L278.309 77.7649V99.2743H260.405V20.5515H327.732V99.2743H310.937V77.1553L324.846 60.2612L295.622 23.3382V33.0043L314.488 58.6937L295.622 79.1582V120H328.028L345.488 98.8389Z" fill="#1E79BE"/>
<path d="M30.237 78.7228C27.3516 80.5515 24.4662 81.4223 21.5067 81.4223C16.7717 81.4223 13.0724 79.1582 10.409 74.4557C9.29919 72.4528 8.26339 69.7532 7.37557 66.357C7.07963 65.5733 6.78369 63.9187 6.33978 61.6545C9.52114 60.6095 11.4448 59.9129 12.1106 59.4775C14.996 58.2583 16.4758 56.7779 16.4758 55.2975C16.4758 54.5138 16.1058 53.5558 15.5139 52.5109L14.996 51.9013H4.04623L0.420959 43.8026H25.7979L29.4971 51.9013H19.2872C19.8051 52.9463 20.175 53.6429 20.397 54.1654C21.2848 56.0812 21.5807 57.7358 21.5807 59.1291C21.5807 62.0029 19.7311 64.4412 16.1798 66.357C15.292 66.8795 13.9603 67.4891 12.1106 68.0987C12.2586 68.7953 12.4066 69.3178 12.5545 69.6662C13.7383 72.1045 16.0318 73.2366 19.2872 73.2366C22.1726 73.2366 24.7621 72.2786 27.2776 70.3628C28.1654 69.7532 29.1272 68.7082 30.163 67.402V78.7228H30.237ZM45.6259 51.9884H36.8957V92.656L29.2012 86.5602V51.9884H24.0962L20.471 43.8897H42.0007L45.6259 51.9884ZM51.1008 111.901L49.1772 113.904L45.6999 108.94C43.6283 105.98 42.0746 103.977 40.9649 102.758C39.1152 100.842 37.3396 99.7097 35.5639 99.2743C35.194 99.1872 34.8981 99.1001 34.5281 99.1001H33.8623C32.2346 99.1001 30.8289 99.7097 29.6451 100.755C28.4614 101.887 27.9435 103.28 27.9435 105.109C27.9435 107.373 28.8313 108.331 30.6069 108.331C31.7167 108.331 32.9745 107.808 34.4542 106.676C34.6021 106.589 35.12 106.067 36.0079 105.283L40.0031 109.811C39.3372 110.595 38.8193 111.118 38.4494 111.466C37.0436 112.685 35.49 113.207 33.9363 113.207C31.9387 113.207 29.8671 112.424 27.7955 110.682C25.206 108.679 23.9483 105.718 23.9483 101.887C23.9483 99.2743 24.6141 97.0972 26.1678 95.4427C27.7215 93.7881 29.6451 92.9172 31.8647 92.9172C35.7119 92.9172 39.2632 95.2685 42.5186 99.8839L51.1008 111.901ZM93.5684 51.9884H70.9289V62.09C71.4468 61.5675 71.9647 61.1321 72.4086 60.9579C73.5923 60.1741 74.8501 59.7387 75.8859 59.7387C78.9933 59.7387 81.5828 61.4804 83.5804 64.8766C85.504 67.9245 86.4658 71.4078 86.4658 75.1524C86.4658 75.762 86.3918 76.1974 86.3918 76.3715C85.8739 80.7257 84.4682 84.7314 82.0267 88.3889L75.9599 83.2511C79.2152 77.6778 80.9169 72.8882 80.9169 68.9695C80.9169 67.3149 80.399 66.5312 79.4372 66.5312C77.3656 66.5312 74.8501 68.2728 71.8907 71.7561L70.9289 72.8882V92.656L63.2344 86.5602V78.4615C62.6425 79.2453 62.1246 79.7677 61.6807 80.1161C60.349 81.2481 58.7953 81.7707 57.0936 81.7707C53.4684 81.7707 50.361 80.4644 47.7715 77.5907C45.182 74.717 43.9243 71.2336 43.9243 66.9666C43.9243 64.0058 44.8121 61.4804 46.6617 59.3904C48.5853 57.3875 50.8049 56.2554 53.3204 56.2554C56.3538 56.2554 58.9433 57.4746 61.3108 59.9129C61.8287 60.5225 62.4206 61.2191 63.2344 62.2641V51.9884H41.7047L38.0794 43.8897H89.7951L93.5684 51.9884ZM63.2344 68.1857C61.8287 65.312 59.9051 63.5704 57.5376 62.8737C57.2416 62.8737 56.9457 62.7866 56.4278 62.7866C54.5781 62.7866 52.8765 63.7445 51.2488 65.3991C49.6211 67.2279 48.8073 69.1437 48.8073 71.2337C48.8073 73.7591 50.139 74.9782 52.7285 74.9782C56.3538 74.9782 59.4612 73.3236 61.9767 70.0145C62.2726 69.7532 62.6425 69.1437 63.2344 68.1857ZM75.368 46.5892C75.6639 47.1988 75.516 47.7213 75.146 47.8955C74.7021 48.2438 74.3322 48.0697 74.0363 47.5472C73.8883 47.373 73.8883 47.0247 73.9623 46.5892C73.9623 46.2409 74.1102 46.0667 74.3322 45.9797C74.7761 45.8926 75.146 45.9797 75.368 46.5892ZM101.781 45.0217H98.8953L95.196 36.5747C93.1245 31.611 90.165 28.9985 86.6137 28.9985H86.0958C85.9479 28.9985 85.8739 28.9985 85.7259 28.9985L83.8763 20.2032C84.3942 20.2032 84.9121 20.1161 85.282 20.1161C89.8691 20.1161 93.7163 24.1219 96.8977 32.0464C97.2676 33.0043 97.8595 34.6589 98.8213 37.2714L101.781 45.0217ZM111.843 51.9884H103.112V92.656L95.418 86.5602V51.9884H90.313L86.6877 43.8897H108.217L111.843 51.9884ZM164.89 51.9884H139.143L135.518 43.8897H161.265L164.89 51.9884ZM165.556 78.0261C165.112 78.5486 164.668 79.1582 164.076 79.8548C161.561 82.6415 158.083 83.9477 153.644 83.9477C151.129 83.9477 148.909 82.9898 146.616 81.1611C144.47 79.3323 142.916 77.0682 142.029 74.3686C141.363 72.3657 140.993 70.3628 140.993 68.447C140.993 65.2249 141.807 62.4383 143.508 60.1742C145.21 57.91 147.504 56.6037 150.241 56.0813C151.129 55.9942 151.869 55.9071 152.609 55.9071C156.16 55.9071 159.267 57.3004 162.153 60C163.114 60.9579 164.224 62.3512 165.556 64.1799V66.7924C164.446 66.0087 163.632 65.4862 163.188 65.1379C161.339 64.0058 159.711 63.3091 158.231 62.9608C157.935 62.9608 157.566 62.9608 156.9 62.8737C156.308 62.8737 155.864 62.7866 155.568 62.7866C154.68 62.7866 154.088 62.8737 153.718 62.9608L159.193 74.4557C159.341 74.4557 159.711 74.1074 160.229 73.672C162.153 72.1045 163.706 70.6241 164.964 69.1437C165.038 69.0566 165.186 68.8824 165.408 68.5341V78.0261H165.556ZM155.05 76.894L149.649 64.9637C146.838 66.6183 145.506 69.0566 145.506 72.1045C145.506 75.8491 147.504 77.6778 151.573 77.6778C152.535 77.6778 153.496 77.5907 154.458 77.1553C154.68 77.1553 154.902 77.0682 155.05 76.894ZM165.926 45.1959H163.41L161.191 41.016C160.673 40.1451 159.563 39.2743 157.714 38.4905C156.604 38.1422 155.716 37.9681 155.198 37.9681C154.384 37.9681 154.014 37.9681 153.866 37.9681L151.499 31.3498C152.535 31.4368 154.384 31.8723 156.974 32.5689C159.119 33.6139 160.895 35.2685 161.931 37.3585L165.926 45.1959ZM171.401 45.1959H168.885L165.408 36.4876C165.112 35.8781 164.89 35.3556 164.742 34.9202C162.301 30.566 159.119 27.9535 154.976 27.2569C154.68 27.2569 154.31 27.2569 153.866 27.0827L152.165 18.984H154.088C158.601 19.5065 162.375 22.5544 165.334 28.0406C165.778 28.8244 166.222 29.9564 166.814 31.1756L171.401 45.1959ZM181.167 51.9884H172.437V92.656L164.742 86.5602V51.9884H159.637L156.012 43.8897H177.542L181.167 51.9884ZM176.136 25.7765L171.771 30.7402L167.406 25.7765L171.623 20.4644L176.136 25.7765ZM229.035 51.9884H206.396V62.09C206.914 61.5675 207.432 61.1321 207.876 60.9579C209.059 60.1741 210.317 59.7387 211.353 59.7387C214.46 59.7387 217.05 61.4804 219.047 64.8766C220.971 67.9245 221.933 71.4078 221.933 75.1524C221.933 75.762 221.859 76.1974 221.859 76.3715C221.341 80.7257 219.935 84.7314 217.494 88.3889L211.427 83.2511C214.756 77.6778 216.384 72.8882 216.384 68.9695C216.384 67.3149 215.866 66.5312 214.904 66.5312C212.833 66.5312 210.317 68.2728 207.358 71.7561L206.396 72.8882V92.656L198.701 86.5602V78.4615C198.109 79.2453 197.592 79.7677 197.148 80.1161C195.816 81.2481 194.262 81.7707 192.561 81.7707C188.935 81.7707 185.828 80.4644 183.238 77.5907C180.649 74.717 179.391 71.2336 179.391 66.9666C179.391 64.0058 180.279 61.4804 182.129 59.3904C184.052 57.3875 186.272 56.2554 188.787 56.2554C191.821 56.2554 194.41 57.4746 196.778 59.9129C197.296 60.5225 197.888 61.2191 198.701 62.2641V51.9884H177.246L173.62 43.8897H225.336L229.035 51.9884ZM198.701 68.1857C197.296 65.312 195.446 63.5704 193.005 62.8737C192.783 62.8737 192.413 62.7866 191.895 62.7866C190.045 62.7866 188.343 63.7445 186.716 65.3991C185.088 67.2279 184.274 69.1437 184.274 71.2337C184.274 73.7591 185.606 74.9782 188.195 74.9782C191.821 74.9782 194.928 73.3236 197.444 70.0145C197.74 69.7532 198.109 69.1437 198.701 68.1857ZM210.835 46.5892C211.131 47.1988 210.983 47.7213 210.613 47.8955C210.169 48.2438 209.799 48.0697 209.503 47.5472C209.355 47.373 209.355 47.0247 209.429 46.5892C209.429 46.2409 209.577 46.0667 209.799 45.9797C210.243 45.8926 210.687 45.9797 210.835 46.5892Z" fill="#1E79BE"/>
<path d="M367.98 38.5776H379.447V62.1771C379.447 65.6604 379.521 68.1858 379.669 69.6662C379.817 71.2337 380.039 72.4528 380.409 73.4107C380.853 74.6299 381.593 75.5878 382.703 76.2845C383.738 76.9811 385.07 77.2424 386.698 77.2424C388.252 77.2424 389.583 76.9811 390.693 76.2845C391.729 75.5878 392.543 74.717 392.987 73.4107C393.356 72.4528 393.578 71.1466 393.726 69.6662C393.874 68.0987 393.948 65.6604 393.948 62.1771V58.8679V38.5776H405.342V64.3541C405.342 69.6662 405.046 73.672 404.528 76.1973C403.936 78.7227 403.049 80.8998 401.717 82.6415C400.311 84.6444 398.313 86.1248 395.798 87.0827C393.282 88.0406 390.249 88.5631 386.624 88.5631C382.999 88.5631 379.965 88.1277 377.45 87.0827C374.934 86.1248 373.011 84.6444 371.531 82.6415C370.199 80.8128 369.311 78.7227 368.719 76.1973C368.128 73.672 367.906 69.7532 367.906 64.3541V59.3033V38.5776H367.98ZM443.444 40.4935V54.9492C441.891 52.9463 440.263 51.4659 438.709 50.508C437.156 49.5501 435.454 49.1146 433.678 49.1146C430.349 49.1146 427.686 50.4209 425.688 53.0334C423.69 55.6458 422.655 59.0421 422.655 63.2221C422.655 67.1408 423.69 70.3628 425.762 72.8882C427.834 75.5007 430.497 76.7199 433.752 76.7199C435.528 76.7199 437.23 76.2844 438.783 75.3265C440.337 74.3686 441.891 72.8882 443.518 70.8853V85.4281C441.669 86.4731 439.893 87.2569 438.044 87.6923C436.268 88.2148 434.418 88.476 432.569 88.476C430.275 88.476 428.13 88.2148 426.206 87.5181C424.282 86.9085 422.507 85.9506 420.879 84.6444C417.772 82.2061 415.33 79.1582 413.702 75.4136C412.075 71.7562 411.261 67.5762 411.261 62.9608C411.261 59.2162 411.779 55.9071 412.815 52.8592C413.85 49.8113 415.404 47.0246 417.55 44.5863C419.547 42.2351 421.767 40.4935 424.282 39.2743C426.798 38.1422 429.535 37.5327 432.643 37.5327C434.492 37.5327 436.342 37.7939 438.118 38.3164C439.819 38.7518 441.595 39.5356 443.444 40.4935ZM491.905 63.0479C491.905 66.5312 491.313 69.8403 490.203 72.8882C489.093 75.9361 487.466 78.7228 485.32 81.074C483.175 83.4252 480.733 85.341 477.922 86.6473C475.184 87.9535 472.299 88.5631 469.339 88.5631C466.306 88.5631 463.42 87.9535 460.683 86.6473C457.946 85.341 455.504 83.5123 453.432 81.074C451.287 78.7228 449.659 75.9361 448.475 72.8012C447.366 69.7533 446.774 66.4441 446.774 63.0479C446.774 59.5646 447.292 56.3425 448.475 53.2946C449.585 50.2467 451.213 47.4601 453.432 45.0217C455.504 42.6705 457.946 40.8418 460.683 39.5355C463.42 38.2293 466.306 37.6197 469.339 37.6197C472.299 37.6197 475.184 38.3164 477.996 39.5355C480.807 40.8418 483.249 42.6705 485.32 45.0217C487.466 47.373 489.019 50.1596 490.203 53.2075C491.387 56.2554 491.905 59.5646 491.905 63.0479ZM469.413 77.3295C472.595 77.3295 475.258 76.0232 477.33 73.2366C479.401 70.537 480.437 67.1408 480.437 63.0479C480.437 58.955 479.401 55.5588 477.256 52.8592C475.184 50.1596 472.521 48.7663 469.413 48.7663C466.232 48.7663 463.568 50.1596 461.497 52.8592C459.425 55.5588 458.39 58.955 458.39 63.0479C458.39 67.2279 459.425 70.6241 461.497 73.3236C463.494 75.9361 466.158 77.3295 469.413 77.3295ZM510.623 87.2569V38.6647H522.165C526.9 38.6647 530.229 38.8389 532.153 39.1872C534.076 39.5356 535.704 40.1451 537.036 41.016C538.589 41.9739 539.773 43.3672 540.587 45.0217C541.401 46.6763 541.845 48.5921 541.845 50.7692C541.845 53.5559 541.253 55.7329 539.995 57.3875C538.811 59.0421 536.814 60.2612 534.15 61.045C537.11 61.3062 539.477 62.5254 541.179 64.7024C542.881 66.8795 543.694 69.7532 543.694 73.3236C543.694 75.9361 543.251 78.2003 542.289 80.2032C541.327 82.2061 539.995 83.6865 538.22 84.8186C536.814 85.6894 535.038 86.3861 532.893 86.7344C530.821 87.1698 527.344 87.2569 522.535 87.2569H510.623ZM521.203 57.9971H523.497C526.382 57.9971 528.306 57.6488 529.341 56.9521C530.377 56.2554 530.969 55.0363 530.969 53.2075C530.969 51.3788 530.451 50.0725 529.489 49.3759C528.527 48.6792 526.604 48.2438 523.718 48.2438H521.277V57.9971H521.203ZM521.203 77.3295H525.198C527.936 77.3295 529.859 76.9811 530.969 76.1973C532.079 75.4136 532.671 74.1074 532.671 72.2786C532.671 70.2757 532.153 68.7954 531.117 68.0116C530.081 67.2279 528.158 66.7924 525.42 66.7924H521.203V77.3295ZM544.36 87.2569L558.861 38.6647H573.215L587.79 87.2569H576.396L574.25 78.5486H557.974L555.754 87.2569H544.36ZM560.415 69.0566H571.809L567.592 53.0334C567.444 52.598 567.296 51.8142 567.074 50.6821C566.852 49.6371 566.556 48.2438 566.186 46.5022C565.964 47.7213 565.742 48.8534 565.446 49.8984C565.224 51.0305 565.002 51.9884 564.706 53.0334L560.415 69.0566ZM590.601 87.2569V38.6647H601.699L617.606 63.6575C617.902 64.18 618.42 65.225 619.159 66.7054C619.899 68.2729 620.639 70.1016 621.453 72.1916C621.231 70.1887 621.083 68.447 620.935 66.7924C620.787 65.2249 620.787 63.8316 620.787 62.6125V38.5776H631.811V87.1698H620.787L604.88 62.09C604.51 61.5675 604.066 60.5225 603.327 59.0421C602.587 57.4746 601.847 55.6459 601.033 53.5559C601.255 55.6459 601.403 57.3875 601.551 58.955C601.699 60.5225 601.699 61.9158 601.699 63.135V87.1698H590.601V87.2569ZM639.579 87.2569V38.6647H650.973V60.7837L664.29 38.6647H677.682L662.145 62.3512L679.087 87.2569H664.734L651.047 65.4862V87.2569H639.579Z" fill="#1E79BE"/>
</svg>
