<svg width="679" height="160" viewBox="0 0 679 160" fill="none" xmlns="http://www.w3.org/2000/svg">
<path d="M113.626 0H121.155C121.785 0.217267 122.454 0.121548 123.096 0.247655C131.66 1.18054 140.151 4.05819 147.401 9.31819C150.324 11.4316 152.987 13.9765 155.399 16.7782C157.247 19.1195 159.016 21.5611 160.453 24.2489C161.383 25.8412 162.101 27.5671 162.863 29.2627C165.068 34.5562 166.386 40.2872 166.908 46.0896C167.05 47.027 166.985 47.9842 167.134 48.9216C167.214 50.0612 167.145 51.2052 167.165 52.3493C167.138 53.6696 167.251 55.0006 167.053 56.3087C166.935 59.6893 166.472 63.044 165.909 66.3669C165.598 68.3481 165.051 70.2686 164.699 72.2392C161.135 88.2106 157.565 104.184 153.998 120.155C153.414 123.115 152.7 126.039 152.064 128.985C151.625 130.876 151.199 132.82 150.218 134.467C149.501 135.759 148.558 136.874 147.522 137.851C145.045 140.065 141.854 141.102 138.713 141.136C137.379 141.002 136.032 140.809 134.761 140.311C133.433 139.726 132.096 139.019 131.13 137.808C129.729 136.426 128.97 134.347 128.855 132.287C128.7 130.993 129.023 129.703 129.308 128.458C130.999 120.887 132.688 113.316 134.382 105.747C135.119 102.55 135.756 99.3262 136.49 96.1295C138.951 85.1035 141.418 74.0776 143.878 63.0486C144.475 60.3487 144.844 57.5896 145.018 54.8167C144.976 52.6805 145.127 50.5337 144.879 48.4111C144.627 45.7553 144.092 43.1177 143.162 40.6503C142.348 38.2543 141.094 36.0679 139.586 34.1475C139.158 33.4227 138.466 32.9988 137.949 32.3729C137.71 32.0932 137.451 31.8351 137.175 31.601C135.584 30.2458 133.886 29.0075 132.027 28.1673C130.41 27.2754 128.685 26.6494 126.942 26.1465C124.53 25.3732 122.042 24.8733 119.534 24.7427C118.414 24.5163 117.274 24.6576 116.146 24.6105C115.257 24.5634 114.39 24.8262 113.503 24.7974C109.349 25.2324 105.264 26.2818 101.355 27.9181C98.7738 28.9239 96.3292 30.3005 93.9254 31.7423C91.0642 33.6476 88.2857 35.7458 85.833 38.2755C84.986 39.2418 84.1187 40.1869 83.2704 41.1517C81.6172 43.3107 80.063 45.6231 79.0817 48.2668C78.0229 52.126 77.1298 56.0413 76.158 59.9309C74.9771 64.9615 73.765 69.9814 72.6357 75.0272C71.273 80.7339 70.0364 86.48 68.595 92.1655C67.9434 94.5493 67.2865 96.9332 66.6268 99.3155C66.3255 100.619 66.0812 101.962 65.5233 103.167C63.7697 107.467 59.9623 110.544 55.832 111.349C53.0183 111.963 49.9629 111.539 47.5129 109.811C46.8003 109.196 46.0267 108.626 45.5095 107.784C44.4237 106.365 43.8115 104.557 43.5903 102.719C43.559 101.853 43.255 100.956 43.5889 100.116C46.9524 87.7745 49.6249 75.2156 52.5663 62.7432C54.2019 55.7086 55.832 48.6725 57.663 41.6971C58.0675 39.9894 58.7326 38.3758 59.4574 36.8124C61.4337 32.1753 64.1592 27.9774 67.2159 24.1608C68.4144 22.8237 69.6075 21.4791 70.8088 20.1436C72.7144 18.328 74.5957 16.4698 76.6656 14.8866C77.7026 13.9309 78.8916 13.226 79.9911 12.3706C84.3847 9.25134 89.0987 6.71858 93.9892 4.73734C95.1972 4.28761 96.3727 3.72241 97.6092 3.36992C100.208 2.50845 102.835 1.7351 105.505 1.2094C107.572 0.724731 109.676 0.510503 111.766 0.191438C112.385 0.112432 113.024 0.223345 113.626 0Z" fill="#00579C"/>
<path d="M26.1486 23.9982C26.8816 23.9693 27.601 23.7764 28.3339 23.7885C30.245 23.983 32.1887 24.299 33.9383 25.2349C35.1341 25.9566 36.3299 26.8105 37.067 28.1293C38.1257 29.6289 38.1976 31.6816 37.8637 33.482C36.9204 37.5766 36.0639 41.7017 35.0717 45.7842C33.9736 50.7297 32.866 55.6737 31.7625 60.6176C30.9413 64.3795 30.0184 68.1111 29.2107 71.876C28.2552 76.1667 27.2874 80.4513 26.3386 84.745C25.5147 88.1301 24.7872 91.5456 24.0217 94.9504C23.1557 98.6106 22.4743 102.354 22.4268 106.153C22.2639 107.14 22.3047 108.143 22.4363 109.131C22.4893 113.104 23.2874 117.057 24.7641 120.67C25.4808 122.129 26.1866 123.61 27.1395 124.898C27.8765 125.824 28.5443 126.826 29.4198 127.598C30.3889 128.434 31.2929 129.376 32.372 130.041C33.5013 130.847 34.7025 131.506 35.9132 132.144C38.6374 133.344 41.4606 134.28 44.3477 134.841C47.0365 135.274 49.7634 135.569 52.4808 135.326C59.2878 134.867 65.978 132.679 72.0168 129.147C75.6001 127.117 78.8835 124.462 81.8791 121.481C83.5758 119.646 85.2005 117.707 86.5049 115.497C87.2989 114.144 88.1527 112.782 88.5205 111.194C92.0984 97.3586 95.128 83.3593 98.4426 69.4481C99.1226 66.7026 99.9438 64.0043 100.662 61.271C101.346 58.7473 102.409 56.3118 103.987 54.3336C104.825 53.0756 105.98 52.1442 107.143 51.2964C109.645 49.5005 112.705 48.8199 115.644 49.1344C117.053 49.3243 118.463 49.7102 119.716 50.482C121.274 51.2979 122.637 52.6486 123.435 54.367C124.22 55.9866 124.236 57.939 123.888 59.6999C121.657 68.0214 119.674 76.4235 117.759 84.8422C115.117 96.169 112.576 107.529 109.664 118.775C109.413 119.793 109.034 120.766 108.632 121.72C107.938 123.592 107.029 125.354 106.094 127.088C104.432 130.123 102.538 133.006 100.366 135.608C99.4796 136.853 98.3883 137.886 97.4151 139.042C95.4714 141.031 93.4612 142.953 91.3261 144.691C87.9722 147.468 84.3495 149.822 80.6195 151.903C78.8903 152.769 77.1855 153.696 75.4087 154.444C73.8668 155.193 72.2435 155.7 70.6662 156.344C68.2258 157.23 65.7364 157.909 63.2362 158.534C62.2861 158.744 61.3224 158.879 60.3763 159.107C58.9186 159.398 57.4404 159.52 55.98 159.772C55.2307 159.923 54.4516 159.734 53.72 160H46.1909C45.9132 159.909 45.6264 159.857 45.3372 159.845C44.2594 159.822 43.2048 159.537 42.1298 159.471C38.8776 158.977 35.6499 158.244 32.5267 157.11C29.0085 155.971 25.6545 154.264 22.4377 152.32C20.1166 150.834 17.9314 149.102 15.856 147.216C15.2167 146.566 14.5122 145.99 13.9245 145.271C12.9975 144.179 11.9632 143.196 11.1257 142.008C5.51995 134.882 1.99904 125.824 0.834455 116.44C0.600994 114.954 0.562989 113.438 0.329529 111.954V103.351C0.466619 102.778 0.454403 102.184 0.508696 101.602C0.902321 97.3829 1.46425 93.1622 2.49582 89.0721C4.09204 82.042 5.60003 74.9846 7.2519 67.9713C8.50878 62.3239 9.7711 56.6795 11.0334 51.0336C12.2211 46.0759 13.2703 41.0757 14.405 36.1029C14.7036 34.8722 14.8746 33.5899 15.3782 32.4367C15.9524 31.1194 16.5645 29.7793 17.5201 28.7538C17.9911 28.2448 18.4322 27.7008 18.9276 27.2207C20.9663 25.3534 23.5466 24.3112 26.1486 23.9982Z" fill="#DA251C"/>
<path d="M281.744 59.2775C281.826 59.3716 281.826 59.3716 281.744 59.2775Z" fill="white"/>
<path d="M211.665 34.8053C216.834 34.7932 222.001 34.8053 227.169 34.7992C224.677 48.086 222.171 61.3666 219.685 74.6534C219.199 77.3077 218.551 79.9742 218.656 82.7059C218.588 84.1949 218.848 85.7203 219.503 87.03C220.094 88.2212 221.159 89.0417 222.291 89.4899C223.334 89.9578 224.468 90.052 225.571 90.2283C227.001 90.3559 228.435 90.2495 229.847 89.9761C231.619 89.7269 233.294 88.8867 234.736 87.7259C236.788 85.8723 237.905 83.0888 238.694 80.3464C239.162 78.6447 239.435 76.8914 239.78 75.1593C242.311 61.7374 244.826 48.3093 247.348 34.8904C247.53 34.7461 247.772 34.819 247.985 34.7962C252.977 34.8159 257.968 34.781 262.959 34.8114C262.377 38.3636 261.631 41.8794 261.004 45.418C259.637 52.6471 258.283 59.8777 256.919 67.1052C256.251 70.5739 255.66 74.0639 254.94 77.5204C254.171 81.1775 253.14 84.7768 251.711 88.1802C250.443 90.9497 248.778 93.4673 246.781 95.6326C242.338 100.248 236.613 103.243 230.634 104.297C229.583 104.492 228.529 104.692 227.461 104.694C225.961 104.971 224.435 104.793 222.922 104.849C222.083 104.91 221.266 104.621 220.427 104.674C217.315 104.294 214.2 103.474 211.421 101.818C209.146 100.497 207.165 98.6203 205.625 96.3269C203.758 93.4007 202.852 89.7375 202.996 86.1534C202.958 84.438 203.01 82.7287 203.231 81.0286C203.679 76.9795 204.561 73.017 205.278 69.0227C207.201 58.8582 209.082 48.6861 211.013 38.5247C211.197 37.2773 211.539 36.0633 211.665 34.8053ZM324.695 34.8008C329.619 34.8008 334.54 34.7992 339.463 34.8023C338.631 39.2828 337.78 43.7558 336.939 48.2333H322.176C323.036 43.761 323.876 39.2824 324.695 34.8008ZM474.145 34.8995C474.314 34.7385 474.561 34.8266 474.778 34.7962C484.7 34.8083 494.622 34.7962 504.544 34.8008C505.189 34.8114 505.843 34.743 506.485 34.9041C509.559 35.0499 512.664 35.6075 515.522 36.9415C517.948 38.1175 520.13 40.2416 521.021 43.0919C521.668 45.2232 521.856 47.4958 521.568 49.7238C521.444 51.4924 521.057 53.2183 520.618 54.917C520.043 56.6718 519.315 58.3857 518.332 59.902C517.657 61.0901 516.639 61.9531 515.794 62.9741C513.93 64.6981 511.799 66.0243 509.506 66.8864C511.181 67.4137 512.824 68.2113 514.17 69.4678C514.795 70.1363 515.483 70.7532 515.952 71.5782C517.141 73.4728 517.831 75.7868 517.724 78.1129C517.785 79.7052 517.583 81.2899 517.272 82.8381C516.527 86.1336 515.249 89.2847 513.458 92.0302C512.502 93.5617 511.253 94.8137 510.078 96.1218C507.863 98.252 505.3 99.9552 502.509 100.941C500.331 101.81 498.041 102.268 495.749 102.535C494.812 102.57 493.894 102.796 492.955 102.716C491.018 103.041 489.047 102.774 487.098 102.912C485.692 103.166 484.262 102.997 482.846 103.046C475.675 103.053 468.503 103.03 461.332 103.056C465.598 80.3373 469.854 57.6108 474.145 34.8995ZM486.546 48.7545C486.478 49.4564 486.336 50.1493 486.192 50.839C485.524 54.3487 484.886 57.866 484.2 61.3712C488.294 61.4046 492.387 61.3773 496.482 61.3864C498.307 61.4472 500.174 61.1706 501.857 60.338C503.055 59.7652 504.099 58.7655 504.738 57.4892C505.293 56.3148 505.774 55.0173 505.705 53.6605C505.705 52.8446 505.777 51.977 505.377 51.2508C505.016 50.3164 504.221 49.7314 503.415 49.3425C502.277 48.8672 501.065 48.6568 499.852 48.7241C495.416 48.7408 490.979 48.6846 486.546 48.7545ZM481.707 74.5227C481.615 75.5498 481.342 76.5434 481.17 77.5538C480.791 79.6353 480.396 81.7138 479.998 83.7923C479.7 85.6155 479.261 87.4083 479.021 89.2468C483.374 89.3288 487.728 89.2544 492.082 89.2863C494.296 89.1313 496.575 88.8305 498.581 87.6849C500.438 86.5043 501.572 84.2572 501.965 81.9569C502.481 79.9316 502.253 77.408 500.693 76.0208C498.911 74.6701 496.676 74.3723 494.573 74.4893C490.284 74.509 485.995 74.4498 481.707 74.5227ZM637.083 34.8038C641.923 34.8038 646.763 34.7886 651.605 34.8114C651.544 35.2292 651.476 35.647 651.407 36.0618C650.694 39.7143 650.039 43.379 649.33 47.0315C647.961 54.5584 646.476 62.0595 645.122 69.5909C645.984 69.0439 646.554 68.1095 647.335 67.444C648.076 66.8059 648.638 65.9429 649.401 65.3291C650.075 64.6606 650.67 63.8994 651.396 63.2947C651.852 62.8267 652.254 62.2874 652.756 61.868C653.444 61.2785 653.968 60.4824 654.662 59.8959C655.296 59.3535 655.787 58.6348 656.421 58.0924C656.941 57.6427 657.374 57.0836 657.852 56.5776C658.707 55.8483 659.402 54.9109 660.251 54.1725C660.744 53.741 661.113 53.1545 661.617 52.7306C663.203 52.6319 664.798 52.7246 666.39 52.6926C670.593 52.6714 674.796 52.7382 679 52.6562V52.7823C673.259 58.5179 667.518 64.2564 661.781 69.9966C661.119 70.5466 660.623 71.3078 659.921 71.7924C660.589 73.9833 661.431 76.1013 662.138 78.277C664.576 85.1855 666.961 92.1153 669.405 99.0208C669.831 100.434 670.423 101.771 670.822 103.193C665.348 103.223 659.873 103.201 654.398 103.204C652.238 96.5336 650.06 89.8667 647.883 83.2028C647.338 83.6084 646.872 84.125 646.373 84.5869C645.032 85.8753 643.689 87.1637 642.347 88.4491C641.963 88.8305 641.444 89.1632 641.319 89.7542C640.47 94.1801 639.666 98.6181 638.805 103.039C633.967 103.046 629.128 103.052 624.292 103.039C624.357 102.28 624.514 101.541 624.646 100.798C628.117 82.4097 631.556 64.0118 635.019 45.6201C635.715 42.0192 636.334 38.3955 637.083 34.8038ZM365.037 50.9393C366.037 50.8147 367.05 50.9135 368.057 50.8831C369.087 50.918 370.129 50.7889 371.151 50.9925C373.706 51.3237 376.309 51.8281 378.617 53.1591C380.001 53.7851 381.219 54.8 382.343 55.8848C382.858 56.2814 383.267 56.8238 383.644 57.3814C384.563 58.4328 385.232 59.7242 385.798 61.0445C386.983 63.5074 387.365 66.3304 387.545 69.0819C387.506 70.2898 387.627 71.5114 387.437 72.7086C387.369 74.4088 387.059 76.0785 386.786 77.7483C386.364 79.7295 385.944 81.7184 385.293 83.6236C384.832 84.8543 384.457 86.1275 383.891 87.3035C382.816 89.6646 381.535 91.9163 379.967 93.9051C379.282 94.6192 378.8 95.546 378.044 96.1841C377.587 96.5412 377.216 97.0091 376.809 97.4254C376.209 97.9633 375.565 98.4373 374.983 98.9949C370.576 102.464 365.233 104.366 359.862 104.574C358.057 104.851 356.238 104.609 354.435 104.509C352.943 104.304 351.452 104.032 350.004 103.567C348.453 103 346.863 102.426 345.511 101.38C342.677 99.4948 340.537 96.4211 339.376 92.9874C338.323 89.8256 338.193 86.4086 338.345 83.0736C338.483 82.1499 338.428 81.2033 338.634 80.2887C339.547 73.482 341.79 66.7239 345.886 61.5003C346.554 60.8181 346.999 59.905 347.744 59.3125C348.23 58.9372 348.599 58.413 349.043 57.977C351.184 56.1142 353.459 54.3715 356.016 53.308C358.87 51.9345 361.958 51.2842 365.037 50.9393ZM364.154 63.7323C363.007 63.9413 361.899 64.3661 360.878 64.9888C359.849 65.598 359.079 66.578 358.272 67.4881C356.127 70.2609 355.039 73.8086 354.31 77.329C353.957 79.3163 353.596 81.3279 353.679 83.3623C353.602 84.8574 353.843 86.3524 354.315 87.7502C354.834 89.3075 355.877 90.7281 357.304 91.3024C359.093 92.1609 361.138 92.0439 362.986 91.4665C364.271 90.9697 365.544 90.2814 366.485 89.1526C367.085 88.4552 367.747 87.8155 368.229 86.9996C370.478 83.5006 371.473 79.2069 371.998 74.9922C372.279 72.9092 372.256 70.7638 371.757 68.7218C371.345 67.1159 370.579 65.4917 369.227 64.6591C367.707 63.6563 365.87 63.5028 364.153 63.7323H364.154ZM292.296 51.8935C294.644 51.3678 297.067 51.2098 299.448 51.5288C301.72 51.7643 304.046 52.4116 305.868 54.0251C307.896 55.6584 308.77 58.5133 308.963 61.2056C308.933 62.8571 309.131 64.5254 308.877 66.1678C308.594 69.1153 307.927 71.993 307.419 74.898C306.146 81.5315 304.94 88.1817 303.67 94.8167C303.186 97.4908 302.653 100.153 302.184 102.825C302.134 103.111 301.826 103.023 301.651 103.05C296.862 103.039 292.072 103.049 287.285 103.046C288.547 96.4576 289.747 89.8545 291.007 83.2651C291.563 80.1732 292.205 77.1011 292.686 73.9909C292.975 71.8866 293.28 69.7565 293.124 67.6218C292.983 66.657 292.736 65.5585 291.946 65.0085C291.395 64.5498 290.748 64.2569 290.067 64.1577C288.335 63.7551 286.518 64.0589 284.886 64.7715C283.92 65.3185 282.978 66.0052 282.291 66.9503C280.334 69.518 279.558 72.8697 278.868 76.077C277.497 83.5006 276.084 90.912 274.701 98.331C274.377 99.8959 274.146 101.485 273.778 103.038C268.892 103.05 264.007 103.052 259.123 103.036C259.16 102.375 259.282 101.727 259.424 101.087C262.306 85.7659 265.171 70.4417 268.066 55.1267C268.216 54.3108 268.324 53.4857 268.532 52.6851C273.361 52.6942 278.193 52.6987 283.024 52.6881C282.632 54.8273 282.174 56.9575 281.843 59.1074C282.793 58.2459 283.526 57.1231 284.509 56.3026C286.717 54.1269 289.435 52.6273 292.296 51.8935ZM281.744 59.2775C281.826 59.3717 281.826 59.3717 281.744 59.2775ZM417.948 53.0603C421.006 51.6291 424.375 51.1687 427.664 51.4346C429.115 51.5896 430.575 51.819 431.957 52.363C433.546 52.9585 435.065 53.9431 436.087 55.4624C437.491 57.5105 437.887 60.1679 437.974 62.687C438.042 63.7353 437.795 64.7594 437.821 65.8062C437.506 69.164 436.744 72.4397 436.166 75.7458C434.621 83.9229 433.086 92.1016 431.55 100.279C431.415 101.209 431.145 102.108 431.061 103.044C426.135 103.041 421.211 103.053 416.287 103.039C416.281 102.04 416.612 101.095 416.743 100.115C418.1 92.8841 419.46 85.6535 420.821 78.4259C421.2 76.349 421.568 74.2705 421.812 72.1677C421.884 71.3047 422.066 70.4508 422.02 69.5772C421.982 68.7218 422.088 67.8543 421.953 67.0095C421.712 66.265 421.473 65.4157 420.839 64.9736C420.177 64.4221 419.349 64.2245 418.552 64.0893C417.568 63.8736 416.561 63.9845 415.592 64.2109C414.633 64.3294 413.759 64.8171 412.92 65.3139C412.265 65.6998 411.784 66.3395 411.264 66.9092C410.358 67.8923 409.856 69.2141 409.3 70.4554C407.997 73.8542 407.57 77.5523 406.823 81.1304C405.664 87.4235 404.447 93.7061 403.296 100.004C403.091 101.01 402.882 102.017 402.77 103.042C397.838 103.041 392.907 103.056 387.975 103.035C391.097 86.243 394.28 69.4633 397.416 52.6759C402.244 52.7154 407.073 52.6759 411.9 52.7002C411.551 54.9003 411.039 57.0653 410.72 59.2699C412.694 56.6566 415.159 54.4824 417.948 53.0603ZM542.822 52.5316C545.208 51.8205 547.681 51.5972 550.131 51.3769C551.353 51.3921 552.577 51.3632 553.801 51.389C554.385 51.4741 554.97 51.5698 555.566 51.544C557.36 51.696 559.128 52.1062 560.86 52.6531C562.45 53.2305 563.961 54.0935 565.27 55.2634C566.305 56.3269 567.254 57.5683 567.732 59.0755C568.505 61.1327 568.519 63.4102 568.415 65.6026C568.075 69.1731 567.458 72.7071 566.759 76.2122C565.971 80.4619 565.168 84.7085 564.366 88.955C563.967 91.2462 563.44 93.5131 563.194 95.8347C563.144 96.7098 563.167 97.5895 563.173 98.4677C563.232 99.4173 563.483 100.537 564.34 100.962C564.186 101.616 564.135 102.3 563.968 102.948C563.785 103.105 563.534 103.018 563.337 103.05C558.499 103.038 553.662 103.05 548.827 103.042C548.86 102.107 548.75 101.155 548.922 100.229C549.026 99.4781 548.956 98.7154 548.95 97.9587C546.553 100.209 543.833 101.988 540.904 103.22C538.639 104.067 536.261 104.644 533.864 104.516C531.407 104.623 528.851 104.25 526.677 102.895C526.093 102.605 525.576 102.178 525.104 101.704C524.36 100.883 523.574 100.072 523.104 99.0101C522.385 97.6731 522.039 96.1294 521.927 94.5858C521.709 93.5298 522.005 92.4723 522.017 91.4134C522.424 87.9173 523.547 84.4927 525.463 81.6743C525.972 80.8356 526.689 80.2005 527.301 79.4652C528.052 78.5292 529.015 77.8577 529.949 77.177C532.398 75.486 535.157 74.4695 537.967 73.8436C540.185 73.3215 542.414 72.8625 544.653 72.467C547.495 71.8988 550.472 71.5053 553.012 69.8431C553.626 69.4967 554.005 68.7826 554.209 68.0715C554.304 67.3666 554.496 66.6813 554.548 65.9703C554.474 65.169 554.147 64.4233 553.628 63.866C553.241 63.4041 552.664 63.2658 552.16 63.0455C550.686 62.6505 549.139 62.5229 547.647 62.8556C545.83 63.1002 544.05 63.9526 542.771 65.4355C542.108 66.2787 541.618 67.2556 541.178 68.2554C536.631 68.2493 532.083 68.266 527.535 68.2463C528.586 65.124 529.972 62.0929 531.993 59.6087C533.003 58.4951 533.955 57.2948 535.152 56.4181C537.435 54.5539 540.086 53.2898 542.821 52.5316M546.586 81.3537C544.038 82.0344 541.301 82.2896 539.054 83.926C537.588 84.8786 536.73 86.7535 536.625 88.6147C536.494 89.7694 536.604 91.0624 537.29 91.9968C537.925 92.9783 538.979 93.5161 540.03 93.6802C542.046 93.8853 544.11 93.4204 545.932 92.4389C547.149 91.62 548.409 90.7372 549.218 89.3911C550.144 88.1316 550.718 86.5925 551.019 85.0047C551.368 83.1481 551.733 81.2975 552.055 79.4348C550.323 80.351 548.45 80.8949 546.586 81.3537ZM604.348 51.9877C608.009 51.0669 611.899 51.1262 615.491 52.3873C616.726 52.9023 617.961 53.5739 618.86 54.6845C620.154 56.0124 620.877 57.9116 621.152 59.8275C621.681 63.2871 621.227 66.8105 620.64 70.2229C618.575 81.1592 616.533 92.1047 614.471 103.041C609.537 103.041 604.604 103.055 599.671 103.035C600.305 99.1636 601.11 95.3302 601.802 91.4711C602.555 87.5451 603.269 83.6115 604.028 79.6885C604.621 76.311 605.335 72.9304 605.472 69.4845C605.612 68.857 605.541 68.2159 605.431 67.5914C605.385 66.777 605.165 65.9384 604.644 65.3443C604.112 64.691 603.341 64.3628 602.588 64.1941C600.901 63.7368 599.117 64.027 597.506 64.6773C596.021 65.3445 594.763 66.519 593.909 68.0336C592.388 70.5861 591.691 73.6081 591.124 76.5723C589.484 85.3998 587.784 94.212 586.166 103.046C581.245 103.042 576.322 103.05 571.402 103.041C574.266 87.7715 577.126 72.4989 580.007 57.2325C580.248 55.7131 580.639 54.2257 580.812 52.6926C585.642 52.6926 590.472 52.6927 595.302 52.6896C595.253 53.7684 594.927 54.8015 594.763 55.8605C594.584 57.0046 594.315 58.1259 594.128 59.2669C594.721 58.7731 595.037 57.9861 595.629 57.4892C596.02 57.1659 596.386 56.8066 596.724 56.4151C598.896 54.2819 601.516 52.6911 604.348 51.9877ZM321.316 52.6957C326.248 52.6911 331.182 52.6896 336.115 52.6926C333.167 68.2311 330.278 83.7801 327.338 99.3201C327.162 100.571 326.797 101.781 326.683 103.042C321.754 103.041 316.823 103.056 311.895 103.036C314.52 88.9292 317.195 74.8357 319.836 60.7315C320.324 58.0529 320.881 55.3895 321.316 52.6957ZM559.8 119.105C560.29 118.977 560.793 118.974 561.289 119.11C562.023 119.132 562.752 119.239 563.483 119.348C563.327 120.957 562.935 122.527 562.666 124.117C561.77 124.076 560.872 123.978 559.981 124.087C559.485 124.212 558.959 124.432 558.692 124.944C558.025 126.172 558 127.645 557.647 128.993C559.004 129.008 560.367 128.984 561.728 129.004C561.484 130.417 561.215 131.827 560.949 133.237C559.596 133.252 558.244 133.214 556.895 133.262C556.076 137.167 555.419 141.113 554.654 145.03C554.021 148.43 553.381 151.826 552.736 155.223C551.05 155.241 549.367 155.208 547.683 155.241C548.906 148.842 550.081 142.43 551.297 136.028C551.41 135.101 551.714 134.212 551.757 133.275C550.583 133.203 549.409 133.25 548.238 133.24C548.466 131.818 548.836 130.429 548.998 128.993C550.194 128.984 551.395 129.029 552.595 128.958C553.064 127.016 553.246 124.977 553.994 123.125C554.494 122.098 555.152 121.15 555.996 120.447C557.101 119.57 558.454 119.158 559.8 119.105ZM579.196 119.482C580.996 119.479 582.797 119.467 584.598 119.485C584.476 121.026 584.048 122.505 583.819 124.025C581.862 134.423 579.892 144.822 577.957 155.226C576.157 155.223 574.36 155.241 572.561 155.216C572.588 154.467 572.754 153.736 572.914 153.012C574.988 141.83 577.142 130.667 579.196 119.482ZM632.562 119.479C634.215 119.482 635.87 119.464 637.524 119.488C635.397 130.974 633.211 142.445 631.062 153.927C630.918 154.337 630.997 154.884 630.723 155.203C629.125 155.26 627.527 155.211 625.933 155.228C626.18 154.202 626.342 153.157 626.523 152.118C625.428 153.105 624.369 154.163 623.097 154.86C621.686 155.728 620.057 156.11 618.452 156.048C616.34 156.115 614.182 155.175 612.776 153.386C612.175 152.535 611.717 151.569 611.326 150.583C610.934 149.393 610.828 148.122 610.702 146.873C610.621 145.938 610.847 145.024 610.859 144.092C611.233 141.002 612.1 137.966 613.532 135.288C614.056 134.318 614.68 133.42 615.392 132.614C615.704 132.036 616.233 131.702 616.658 131.239C619.183 128.61 622.9 127.556 626.246 128.47C627.335 128.864 628.421 129.441 629.196 130.415C629.593 130.895 629.914 131.448 630.276 131.965C630.966 127.998 631.757 124.048 632.488 120.085C632.509 119.883 632.532 119.681 632.562 119.479ZM622.61 133.311C620.979 133.738 619.535 134.794 618.531 136.294C617.749 137.478 617.149 138.801 616.758 140.207C616.245 142.094 615.849 144.067 615.966 146.052C616.123 147.461 616.498 148.959 617.464 149.951C618.228 150.525 619.115 150.999 620.059 150.987C620.841 150.967 621.649 151.078 622.414 150.82C623.769 150.41 625.038 149.573 625.953 148.372C627.867 145.685 628.64 142.201 628.852 138.834C628.792 137.536 628.697 136.132 627.988 135.051C627.213 133.797 625.791 133.186 624.463 133.237C623.842 133.259 623.217 133.18 622.61 133.311ZM643.26 119.482C644.964 119.482 646.671 119.464 648.377 119.488C648.081 121.403 647.728 123.306 647.319 125.195C645.625 125.204 643.933 125.175 642.242 125.21C642.552 123.292 643.016 121.411 643.26 119.482ZM533.189 127.574C535.11 127.455 537.078 127.425 538.944 128.045C541.791 128.934 544.208 131.374 545.211 134.499C546.21 137.77 545.96 141.335 545.207 144.633C544.72 146.745 543.787 148.696 542.612 150.427C541.924 151.347 541.242 152.292 540.365 152.997C537.763 155.45 534.291 156.504 530.932 156.376C529.313 156.313 527.67 156.045 526.177 155.314C525.526 155.066 524.922 154.685 524.395 154.19C521.991 152.367 520.671 149.085 520.653 145.884C520.517 145.236 520.522 144.561 520.668 143.916C520.649 140.464 521.569 137.087 523.305 134.233C525.008 131.403 527.506 129.291 530.404 128.232C531.32 127.963 532.236 127.673 533.189 127.574ZM533.628 131.676C532.585 131.863 531.516 132.091 530.608 132.72C529.773 133.282 528.948 133.926 528.39 134.832C527.095 136.6 526.295 138.761 525.8 140.959C525.518 142.304 525.275 143.678 525.345 145.065C525.264 147.044 525.743 149.158 527.017 150.595C527.549 151.066 528.122 151.504 528.771 151.753C531.927 153.075 535.71 151.937 537.922 149.117C538.711 147.988 539.497 146.823 539.939 145.463C540.634 143.681 540.866 141.736 541.049 139.818C541.128 138.013 541.036 136.111 540.217 134.507C539.338 132.905 537.714 131.939 536.067 131.764C535.262 131.602 534.435 131.511 533.628 131.676ZM659.999 128.233C662.116 128.086 664.302 128.104 666.332 128.887C667.418 129.333 668.535 130.011 669.12 131.181C669.51 131.898 669.788 132.72 669.758 133.574C669.877 135.754 669.196 137.843 668.872 139.967C668.31 142.9 667.778 145.837 667.21 148.769C667.081 149.486 666.98 150.228 667.151 150.949C667.791 151.238 668.494 151.081 669.169 151.151C668.888 152.538 668.638 153.932 668.365 155.319C666.817 155.75 665.165 155.916 663.619 155.392C663.02 155.143 662.427 154.754 662.139 154.093C661.728 153.461 661.852 152.658 661.826 151.934C659.518 154.57 656.234 156.282 652.9 156.047C651.271 155.959 649.504 155.481 648.388 154.059C647.791 153.391 647.424 152.484 647.24 151.572C647.112 149.928 647.149 148.219 647.742 146.683C648.231 144.956 649.196 143.447 650.498 142.371C651.737 141.362 653.19 140.756 654.66 140.308C656.099 139.931 657.554 139.594 659.031 139.442C660.646 139.121 662.385 138.966 663.76 137.854C664.584 137.278 664.805 136.049 664.658 135.043C664.568 134.165 663.931 133.449 663.188 133.226C662.004 132.74 660.728 132.94 659.498 132.922C658.348 133.109 657.177 133.536 656.322 134.455C655.715 135.216 655.327 136.164 655.209 137.175C653.603 137.175 651.997 137.187 650.392 137.169C650.473 136.366 650.682 135.587 650.956 134.843C651.342 133.904 651.734 132.936 652.418 132.216C654.313 129.777 657.159 128.478 659.999 128.233ZM660.466 143.193C658.61 143.684 656.657 143.694 654.865 144.472C653.955 144.898 653.104 145.641 652.753 146.706C652.346 147.792 652.045 149.176 652.69 150.229C652.95 150.781 653.504 151.004 653.99 151.235C655.513 151.7 657.139 151.353 658.605 150.788C660.369 149.983 661.917 148.439 662.621 146.431C662.988 145.069 663.24 143.67 663.467 142.272C662.466 142.593 661.497 143.023 660.467 143.193H660.466ZM596.608 129.637C598.205 128.642 600.077 128.258 601.892 128.34C603.358 128.498 604.91 128.659 606.163 129.613C606.698 130.163 607.307 130.705 607.545 131.508C607.816 132.182 607.903 132.918 607.983 133.645C608.146 134.607 607.858 135.557 607.868 136.521C607.629 138.456 607.193 140.35 606.859 142.265C606.063 146.511 605.244 150.758 604.475 155.01C604.428 155.292 604.11 155.197 603.945 155.228C602.421 155.197 600.897 155.276 599.378 155.216C599.66 153.198 600.126 151.218 600.457 149.21C600.806 147.45 601.102 145.682 601.46 143.928C601.848 141.596 602.394 139.297 602.706 136.951C602.882 135.538 602.25 133.898 600.948 133.483C599.453 133.004 597.813 133.183 596.373 133.806C594.993 134.45 593.846 135.593 593.114 137.052C592.32 138.598 592.055 140.376 591.759 142.102C590.903 146.469 590.136 150.86 589.262 155.222C587.568 155.244 585.875 155.205 584.185 155.244C585.578 147.986 586.901 140.712 588.288 133.452C588.553 131.962 588.829 130.471 589.149 128.996C590.757 129.005 592.37 128.985 593.981 129.002C593.924 130.117 593.589 131.181 593.418 132.275C594.368 131.246 595.41 130.289 596.608 129.637ZM641.501 128.999C643.205 128.999 644.909 128.99 646.617 128.999C645.026 137.751 643.309 146.469 641.728 155.219C640.022 155.234 638.318 155.232 636.611 155.219C638.189 146.467 639.914 137.749 641.501 128.999Z" fill="#DA251C"/>
</svg>
